<svg width="250" height="150" viewBox="0 0 250 150" fill="none" xmlns="http://www.w3.org/2000/svg">
<rect width="250" height="150" fill="white"/>
<path d="M44.253 113.302C44.253 104.05 43.0655 90.2852 45.8362 89.743C83.0437 82.4622 193.241 87.6869 195.457 89.7429C198.228 92.313 199.415 129.429 195.457 133.713C192.291 137.14 93.9947 136.569 45.8363 133.713C45.1766 131.714 44.253 122.554 44.253 113.302Z" fill="#EFEFEF"/>
<path d="M81.2126 98.4372C84.359 97.1279 91.0454 97.619 98.256 97.6189C119.232 97.6189 157.253 96.7665 181.507 98.0281C190.559 98.499 188.062 102.733 183.473 102.733C178.885 102.733 85.8012 103.347 81.2126 102.733C76.6239 102.12 77.2795 100.074 81.2126 98.4372Z" fill="white"/>
<path d="M80.7397 113.244C81.5014 113.556 90.7036 114.062 98.0102 114.062C119.266 114.062 157.793 114.914 182.37 113.653C191.543 113.182 189.013 108.948 184.363 108.948C179.713 108.948 89.3557 108.334 84.706 108.948C80.0562 109.561 76.7542 111.607 80.7397 113.244Z" fill="white"/>
<path d="M80.1859 124.447C81.2195 125.098 83.5534 124.447 85.922 124.447C92.8126 124.447 104.445 124.871 112.412 124.243C115.386 124.009 113.28 121.902 111.772 121.902C110.265 121.902 85.922 122.439 82.0377 122.656C80.1859 122.759 79.4447 123.979 80.1859 124.447Z" fill="white"/>
<path d="M57.1681 118.053C48.1117 113.914 51.9297 105.395 54.9708 101.653C63.2183 98.5797 68.2991 104.514 69.8085 107.865C69.3685 112.986 66.2244 122.193 57.1681 118.053Z" fill="white"/>
<path d="M25.3269 77.4405C25.3269 65.4302 23.7925 47.5625 27.3728 46.8588C75.4526 37.4076 217.85 44.1897 220.714 46.8587C224.295 50.1948 225.829 98.3752 220.714 103.936C216.622 108.384 89.6036 107.642 27.3728 103.936C26.5203 101.341 25.3269 89.4507 25.3269 77.4405Z" fill="#E7EFB4"/>
<path d="M73.1758 57.5522C77.2814 55.7044 86.0058 56.3974 95.4142 56.3973C122.784 56.3973 172.393 55.1944 204.04 56.9748C215.852 57.6393 212.593 63.6151 206.606 63.6151C200.619 63.6151 79.1631 64.4812 73.1758 63.6151C67.1886 62.7489 68.0439 59.8618 73.1758 57.5522Z" fill="white"/>
<path d="M72.326 77.4478C73.32 77.8893 85.3269 78.6026 94.8607 78.6027C122.596 78.6027 172.865 79.8056 204.934 78.0252C216.903 77.3607 213.601 71.3849 207.534 71.3849C201.467 71.3849 83.5683 70.5188 77.5012 71.3849C71.4342 72.2511 67.1257 75.1382 72.326 77.4478Z" fill="white"/>
<path d="M72.3675 92.4892C73.7046 93.6385 76.7238 92.4892 79.788 92.4892C88.702 92.4892 103.75 93.2374 114.057 92.13C117.904 91.7167 115.179 88 113.229 88C111.279 88 79.788 88.9472 74.7631 89.33C72.3675 89.5125 71.4086 91.665 72.3675 92.4892Z" fill="white"/>
<path d="M42.0931 83.6082C30.3372 78.2346 35.2933 67.1761 39.2409 62.3186C49.9469 58.3296 56.5422 66.0324 58.5016 70.3825C57.9304 77.0301 53.8491 88.9818 42.0931 83.6082Z" fill="white"/>
<path d="M71.2316 35.081C71.2316 26.5814 70.1444 13.9366 72.6812 13.4385C106.748 6.75001 207.642 11.5497 209.672 13.4384C212.209 15.7994 213.296 49.8963 209.672 53.8313C206.773 56.9793 116.774 56.4546 72.6812 53.8313C72.0772 51.995 71.2316 43.5805 71.2316 35.081Z" fill="#EFEFEF"/>
<path d="M104.949 21.1641C107.849 19.7783 114.011 20.298 120.656 20.298C139.988 20.298 175.026 19.3958 197.378 20.7311C205.72 21.2295 203.419 25.7113 199.19 25.7113C194.961 25.7113 109.178 26.3609 104.949 25.7113C100.721 25.0617 101.325 22.8964 104.949 21.1641Z" fill="white"/>
<path d="M104.643 35.0299C105.345 35.3058 113.825 35.7516 120.559 35.7517C140.148 35.7517 175.653 36.5035 198.303 35.3908C206.757 34.9755 204.425 31.2406 200.139 31.2406C195.854 31.2406 112.583 30.6993 108.298 31.2406C104.013 31.7819 100.97 33.5864 104.643 35.0299Z" fill="white"/>
<path d="M104.259 45.6935C105.201 46.3831 107.328 45.6935 109.487 45.6935C115.767 45.6935 126.369 46.1424 133.631 45.478C136.341 45.23 134.422 43 133.048 43C131.674 43 109.487 43.5683 105.947 43.798C104.259 43.9075 103.583 45.199 104.259 45.6935Z" fill="white"/>
<path d="M83.0966 39.4458C74.777 35.643 78.2844 27.8169 81.0781 24.3793C88.6547 21.5563 93.3221 27.0076 94.7087 30.0861C94.3045 34.7905 91.4162 43.2487 83.0966 39.4458Z" fill="white"/>
</svg>
