<svg width="40" height="58" viewBox="0 0 40 58" fill="none" xmlns="http://www.w3.org/2000/svg">
<path fill-rule="evenodd" clip-rule="evenodd" d="M40 56V49.5C40 48.3954 39.1046 47.5 38 47.5H23.5C22.3954 47.5 21.5 48.3954 21.5 49.5V56C21.5 57.1046 22.3954 58 23.5 58H38C39.1046 58 40 57.1046 40 56ZM40 8.5V2C40 0.89543 39.1046 0 38 0H23.5C22.3954 0 21.5 0.89543 21.5 2V8.5C21.5 9.60457 22.3954 10.5 23.5 10.5H38C39.1046 10.5 40 9.60457 40 8.5ZM18.5 56V36.5C18.5 35.3954 17.6046 34.5 16.5 34.5H2C0.89543 34.5 0 35.3954 0 36.5V56C0 57.1046 0.89543 58 2 58H16.5C17.6046 58 18.5 57.1046 18.5 56ZM16.5 32.5H2C0.89543 32.5 0 31.6046 0 30.5V2C0 0.89543 0.89543 0 2 0H16.5C17.6046 0 18.5 0.89543 18.5 2V30.5C18.5 31.6046 17.6046 32.5 16.5 32.5Z" fill="#E9E9E9"/>
<path fill-rule="evenodd" clip-rule="evenodd" d="M40 43.5C40 42.3954 39.1046 41.5 38 41.5H23.5C22.3954 41.5 21.5 42.3954 21.5 43.5C21.5 44.6046 22.3954 45.5 23.5 45.5H38C39.1046 45.5 40 44.6046 40 43.5ZM38 40.5H23.5C22.3954 40.5 21.5 39.6046 21.5 38.5V14.5C21.5 13.3954 22.3954 12.5 23.5 12.5H38C39.1046 12.5 40 13.3954 40 14.5V38.5C40 39.6046 39.1046 40.5 38 40.5Z" fill="#111111"/>
</svg>
