<svg fill="none" height="44" width="44" xmlns="http://www.w3.org/2000/svg"><g stroke="#000" stroke-linecap="round" stroke-miterlimit="10"><path d="m11.0858 21.9111c.0901-.081.2522.0811.1801.1801m2.956-7.3651c.0901-.0811.2522.081.1801.1801m-10.28417 8.7217c.09006-.081.25216.0811.18012.1801m9.53535-6.452v.2341m-8.37789 1.4924v.2342m14.79459-3.5339c.036-.0541.063-.0991.0991-.1441m14.2345 3.958c.0361-.045.0631-.099.0991-.1441m-16.3487-5.7484c.036-.0451.063-.0991.099-.1441m-.1442-2.5942c.036-.0451.0631-.0991.0991-.1441m-8.2781 1.9878c.027-.045.063-.099.09-.1441m23.5162 3.1715c.0361-.0451.0631-.0991.0991-.1441m-5.7657.7505h.0901m-1.8614-2.8833h.09m7.7275-.4336h.0901m-5.0066 1.292h.0901m-9.453-5.44047h.0901m14.3068 15.18307c.018.009.027.018.045.0271m2.603 8.7576c.018.009.027.018.045.027m-10.14-23.88637c.018.009.027.01801.045.02701m-21.04844 15.62626.04503.2162m-1.64467 1.0309.05404.2162m10.67364-6.3256c.054.009.108.0451.135.0901m-8.82019-2.6745c.05403.009.10807.045.13508.09m3.64263-.9396c.05408.009.10808.045.13508.09m-6.39812 11.6048c.05404.009.10808.045.13509.09m37.00953.4881c.054.009.1081.045.1351.0901m-21.1206-9.3171c-.018.045-.027.09-.045.1441m-8.2877-.1988c-.018.045-.027.09-.045.1441m14.2973-3.94c-.018.045-.027.09-.045.1441m-2.7566.5971c-.018.045-.027.09-.0451.1441m-11.0712-.3609c-.018.045-.027.09-.045.1441m14.4873 3.2538v.0451m2.8558-.8405v.0451m3.118-7.3024v.045m-1.0935 4.5102v.045m-22.44948-1.2833v.045m22.91938 7.0946v.0451m3.4976-.424v.0451m-18.4277-6.6969v.045m-3.1089-2.1148v.045m-1.7714-1.6085v.045m25.9199 16.7924v.045m-.9038-2.2325v.045m-1.1749 3.4345v.045m3.6241-3.8316v.045m-.5423 5.3773v.045m-14.2252-22.3316v.04503m-15.80678 14.95737v.0451m-1.33756 9.1278v.045m14.19814-22.503v.045m-12.44484 9.1732v.0451m-1.7533.452v.045m-3.37106 11.9838v.0451m4.15735-2.4757v.045m14.02635-21.10315v.04503m1.3195 9.96862v.0451m.5061-6.6964v.045m-.5061-1.8614v.045m-6.1365 7.5643v.0451m-9.99564-1.9157v.045m.78629 1.7988v.045m32.66195 8.495v.045m-23.0821-17.3697v.04503m14.5956 9.28167c-.018.018-.027.036-.045.054m8.6217 13.5207c-.018.018-.027.036-.045.054m-5.1607-14.9935c-.018.018-.027.036-.045.0541m1.4368-1.3012c-.018.0181-.027.0361-.045.0541m-9.0016-4.2025c-.018.018-.0271.036-.0451.054m2.3949-1.3914c-.018.018-.027.036-.045.054m-14.3789 1.5456v.2792m10.2574-1.3095c-.0451-.036-.1171.0361-.0811.0811m2.5664-1.23829c-.045-.03603-.1171.03602-.081.08105m3.5608 3.64254c.0991.0451.1441.1081.0991.1712m-12.1102-2.1682c-.072.054-.009.1981.0721.1711m-13.95388 10.2854c-.07205.0451-.00901.1982.08105.1711m-3.01828 8.0711c-.07205.045-.00901.1981.08105.1711m7.79076-16.2575c.0721.018.1171.1171.0811.1891m25.5129 4.5282c-.0631.036-.1171.072-.1801.117m.9754 1.6999c-.063.036-.1171.072-.1801.117m1.9244-1.202c-.0631.036-.1171.072-.1802.1171m-23.6611-9.92276c-.0631.03602-.1171.07205-.1801.11707m20.5148 5.00699c-.0631.036-.1171.072-.1802.117m1.8977 7.9359c-.09.045-.036.2342.0631.2162.0991-.0091.1171-.1982.018-.2252m2.7116 1.1653c-.0901.045-.036.2341.063.2161.0991-.009.1171-.1981.018-.2251m-2.476-6.5521c-.09.0451-.036.2342.0631.2162.099-.009.117-.1982.018-.2252m-15.8337-4.0305c-.09.045-.036.2341.0631.2161.099-.018.117-.1981.018-.2251m7.9895-1.1297c-.09.045-.036.2342.0631.2161.0991-.009.1171-.1981.018-.2251m-16.7464-1.8894c-.0901.045-.0361.2341.063.2161.0991-.009.1171-.1981.018-.2251m26.1371 11.3698c-.09.045-.036.2342.0631.2161.099-.009.117-.1981.018-.2251m-33.70091 6.0278c-.02702.0721.01801.1621.09006.1802m-.551 2.73c-.02701.072.01802.1621.09006.1801m3.27194-4.6537c-.02701.072.01802.1621.09006.1801m-4.55462-5.1328c-.02702.0721.01801.1621.09005.1801" stroke-width="1.4"/><path d="m3.18695 30.2526c-1.18393-7.7904 3.37104-16.819 10.38425-20.3256 9.1732-4.58207 20.6781-.65975 25.5493 8.2423 1.9793 3.6151 2.7746 7.8899 2.2233 11.9929"/></g></svg>
