<svg width="201" height="200" viewBox="0 0 201 200" fill="none" xmlns="http://www.w3.org/2000/svg">
<g clip-path="url(#clip0_1455_118544)">
<path d="M84.7642 76.924L83.5265 77.0991L83.7017 78.3368L90.0055 122.882L90.1807 124.119L91.4183 123.944L130.538 118.408C136.952 117.5 141.416 111.565 140.508 105.151L135.672 70.982L135.497 69.7444L134.26 69.9195L84.7642 76.924Z" fill="white" stroke="#111111" stroke-width="2.5"/>
<path d="M79.3494 38.6617L78.1118 38.8369L78.2869 40.0746L84.5908 84.6193L84.7659 85.857L86.0036 85.6818L135.499 78.6774L136.737 78.5022L136.562 77.2646L131.726 43.096C130.818 36.6819 124.883 32.218 118.469 33.1257L79.3494 38.6617Z" fill="white" stroke="#111111" stroke-width="2.5"/>
<path d="M91.9953 38.1346L91.8201 36.897L90.5825 37.0721L19.4267 47.1419L19.3705 47.1498C16.5124 47.5543 14.2915 47.8686 12.5314 48.2661C10.7455 48.6694 9.32614 49.1799 8.10749 50.0349C6.07977 51.4576 4.55451 53.4858 3.7503 55.8286C3.26697 57.2367 3.17036 58.742 3.27844 60.5697C3.38495 62.371 3.69925 64.5919 4.10373 67.45L4.11167 67.5061L11.1314 117.109L11.1393 117.165C11.5438 120.024 11.8581 122.244 12.2556 124.005C12.6589 125.79 13.1694 127.21 14.0244 128.428L14.0244 128.428C15.4471 130.456 17.4753 131.981 19.8181 132.786C21.2262 133.269 22.7315 133.366 24.5591 133.258C26.3605 133.151 28.5814 132.837 31.4396 132.432L31.4956 132.424L102.651 122.355L103.889 122.179L103.714 120.942L91.9953 38.1346Z" fill="white" stroke="#111111" stroke-width="2.5"/>
<path d="M145.984 116.647L144.738 116.55L144.64 117.796L141.119 162.646L141.021 163.892L142.267 163.99L181.655 167.083C188.113 167.59 193.759 162.766 194.267 156.308L196.968 121.905L197.066 120.658L195.82 120.56L145.984 116.647Z" fill="white" stroke="#111111" stroke-width="2.5"/>
<path d="M149.01 78.1225L147.763 78.0246L147.666 79.2708L144.144 124.121L144.046 125.368L145.292 125.465L195.127 129.378L196.373 129.476L196.471 128.23L199.173 93.8271C199.68 87.3689 194.855 81.7224 188.397 81.2153L149.01 78.1225Z" fill="white" stroke="#111111" stroke-width="2.5"/>
<path d="M161.468 80.3543L161.566 79.1082L160.32 79.0103L88.6755 73.3847L88.6189 73.3803C85.7412 73.1543 83.5051 72.9787 81.7006 72.9845C79.8698 72.9902 78.3734 73.1803 76.9981 73.7502C74.7098 74.6986 72.7804 76.347 71.4866 78.4592C70.709 79.7287 70.2877 81.1771 69.9962 82.9846C69.709 84.766 69.5334 87.0022 69.3074 89.8799L69.303 89.9365L65.3814 139.88L65.3769 139.937C65.151 142.814 64.9754 145.051 64.9811 146.855C64.9869 148.686 65.1769 150.182 65.7468 151.557L65.7468 151.557C66.6952 153.846 68.3436 155.775 70.4559 157.069C71.7253 157.847 73.1737 158.268 74.9812 158.559C76.7627 158.847 78.9989 159.022 81.8767 159.248L81.9331 159.253L153.577 164.878L154.823 164.976L154.921 163.73L161.468 80.3543Z" fill="white" stroke="#111111" stroke-width="2.5"/>
<path d="M9.41347 64.3419C14.8478 63.0286 24.6062 56.2245 20.7021 39.4902C20.6504 39.2843 20.6017 39.0825 20.556 38.8853C20.6067 39.0884 20.6554 39.29 20.7021 39.4902C22.5611 46.8967 28.3072 59.6216 38.193 58.8757C38.4447 58.8568 38.4481 58.8469 38.2072 58.9221C33.3527 60.4378 26.8971 66.3408 28.6609 81.8039C28.669 81.8716 28.6768 81.9387 28.6842 82.0053C28.6763 81.938 28.6685 81.8708 28.6609 81.8039C27.815 74.8 22.843 61.8104 9.41347 64.3419Z" fill="white" stroke="#111111" stroke-width="2.5" stroke-linejoin="round"/>
<path d="M174.66 86.5476C178.159 87.0437 185.478 85.323 187.088 74.5821C187.106 74.4491 187.124 74.3192 187.144 74.1927C187.126 74.3238 187.107 74.4536 187.088 74.5821C186.48 79.158 186.827 87.4211 192.091 89.7666C192.321 89.8693 192.291 90.0565 192.038 90.0668C188.827 90.1981 184.26 92.5557 181.894 101.295C181.883 101.336 181.872 101.378 181.861 101.418C181.872 101.377 181.883 101.336 181.894 101.295C183.031 96.9832 183.14 88.193 174.66 86.5476Z" fill="white" stroke="#111111" stroke-width="2.5" stroke-linejoin="round"/>
</g>
<defs>
<clipPath id="clip0_1455_118544">
<rect width="200" height="200" fill="white" transform="translate(0.5)"/>
</clipPath>
</defs>
</svg>
