<svg width="18" height="18" viewBox="0 0 18 18" fill="none" xmlns="http://www.w3.org/2000/svg">
<rect x="0.5" y="0.5" width="17" height="17" rx="8.5" fill="#CFFFCA"/>
<path fill-rule="evenodd" clip-rule="evenodd" d="M12.75 9.625C12.75 10.085 12.3767 10.4583 11.9167 10.4583C12.3767 10.4583 12.75 10.8317 12.75 11.2917C12.75 11.7517 12.3767 12.125 11.9167 12.125H10.9792C11.3821 12.125 11.7083 12.4517 11.7083 12.8542C11.7083 13.2567 11.3821 13.5833 10.9792 13.5833H8.375C6.64875 13.5833 5.25 12.1842 5.25 10.4583C5.25 9.5775 5.61583 8.78292 6.2025 8.215C7.06542 7.29458 7.5425 6.0975 7.5425 4.83333C7.5425 4.37333 7.915 4 8.37583 4C8.83542 4 9.20917 4.37333 9.20917 4.83333C9.20917 5.6275 9.06125 6.39917 8.79333 7.125H11.9167C12.3767 7.125 12.75 7.49833 12.75 7.95833C12.75 8.41833 12.3767 8.79167 11.9167 8.79167C12.3767 8.79167 12.75 9.165 12.75 9.625Z" fill="#FF5B45"/>
<rect x="0.5" y="0.5" width="17" height="17" rx="8.5" stroke="white"/>
</svg>
