<svg width="18" height="18" viewBox="0 0 18 18" fill="none" xmlns="http://www.w3.org/2000/svg">
<rect x="0.5" y="0.5" width="17" height="17" rx="8.5" fill="#FFE2EB"/>
<g clip-path="url(#clip0_891_8823)">
<path d="M13.2417 5.89583C14.2542 6.925 14.2542 8.6 13.2417 9.62917L9 13.875L4.75833 9.62917C4.25417 9.1125 4 8.4375 4 7.7625C4 7.0875 4.25417 6.4125 4.75833 5.89583C5.775 4.87083 7.425 4.87083 8.4375 5.89583L9 6.46667L9.55833 5.89583C10.0667 5.38333 10.7333 5.125 11.4 5.125C12.0667 5.125 12.7333 5.38333 13.2417 5.89583Z" fill="#FF5246"/>
<path d="M10.7661 9.86654C10.7661 9.87487 10.7703 9.8832 10.7703 9.89154C10.7703 10.854 9.97865 11.6374 8.99948 11.6374C8.02031 11.6374 7.22865 10.8582 7.22865 9.89154C7.22865 9.8832 7.23281 9.87487 7.23281 9.86654C7.75781 10.1457 8.36198 10.304 8.99948 10.304C9.63698 10.304 10.2411 10.1415 10.7661 9.86654ZM6.91615 7.4707C6.48281 7.4707 6.13281 7.8207 6.13281 8.25404C6.13281 8.68737 6.48281 9.0332 6.91615 9.0332C7.34948 9.0332 7.69531 8.6832 7.69531 8.24987C7.69531 7.81654 7.34948 7.4707 6.91615 7.4707ZM11.0828 7.4707C10.6495 7.4707 10.2995 7.8207 10.2995 8.25404C10.2995 8.68737 10.6495 9.0332 11.0828 9.0332C11.5161 9.0332 11.8661 8.6832 11.8661 8.24987C11.8661 7.81654 11.5161 7.4707 11.0828 7.4707Z" fill="#720906"/>
</g>
<rect x="0.5" y="0.5" width="17" height="17" rx="8.5" stroke="white"/>
<defs>
<clipPath id="clip0_891_8823">
<rect width="10" height="8.75" fill="white" transform="translate(4 5.125)"/>
</clipPath>
</defs>
</svg>
