<svg width="24" height="24" viewBox="0 0 24 24" fill="none" xmlns="http://www.w3.org/2000/svg">
<path fill-rule="evenodd" clip-rule="evenodd" d="M7.80476 13.05C8.94471 12.6975 10.2156 12.2526 11.4339 11.7354C12.5105 11.2784 13.529 10.7721 14.374 10.2327C15.2299 9.68638 15.8523 9.14077 16.197 8.625C17.3794 6.85626 16.9102 5.25941 16.3307 4.36366L7.72458 12.9698L7.80476 13.05ZM6.6142 11.8594L15.2376 3.23602C14.3405 2.65484 12.7317 2.17818 10.9495 3.36314C10.432 3.70716 9.885 4.32784 9.33735 5.18115C8.79664 6.02363 8.28903 7.03922 7.83084 8.11275C7.30926 9.33481 6.86099 10.6099 6.50656 11.7518L6.6142 11.8594ZM5.02484 11.2284C5.39068 10.0554 5.85072 8.75181 6.38656 7.49633C6.86549 6.3742 7.41214 5.27352 8.0158 4.33297C8.61251 3.40324 9.29994 2.57413 10.0801 2.05546C13.0889 0.0550392 15.829 1.5084 16.8361 2.51281C16.8895 2.56611 16.9337 2.62518 16.9686 2.68804C16.9947 2.70821 17.0198 2.73025 17.0438 2.75417C18.0508 3.75848 19.5103 6.49417 17.5025 9.4977C16.9823 10.276 16.1509 10.9615 15.2189 11.5564C14.276 12.1583 13.1725 12.7033 12.0475 13.1809C10.8255 13.6997 9.55798 14.1471 8.40896 14.5066L4.39362 18.5219C3.47375 19.4418 1.98234 19.4418 1.06247 18.5219C0.1426 17.6021 0.1426 16.1107 1.06247 15.1908L5.02484 11.2284Z" fill="black"/>
</svg>
