<svg width="252" height="168" viewBox="0 0 252 168" fill="none" xmlns="http://www.w3.org/2000/svg">
<path d="M87.8891 42C92.7332 46.0734 96.6139 53.0643 96.6965 59.6423C96.8066 68.0093 91.4396 75.8259 83.2652 77.2571C74.7331 78.7433 65.5128 71.202 68.0725 61.624C69.8064 55.1285 77.5129 52.8991 83.1826 54.468C90.2286 56.4221 94.2744 63.5231 96.3112 70.3213C100.715 84.9635 94.6322 104.78 77.7055 106.459C73.4119 106.899 68.8156 105.496 65.8981 102.221C62.9807 98.9453 62.0174 93.6884 64.1642 89.7801C66.0633 86.3397 70.0266 84.4406 73.8523 84.6333C77.6505 84.8259 81.2285 86.9177 83.7881 89.8351C93.3111 100.624 87.1184 117.496 76.8523 125.175" stroke="black" stroke-width="3" stroke-miterlimit="10" stroke-linecap="round"/>
<path d="M128.568 124.845C123.669 119.34 119.155 113.45 118.054 106.625C117.201 101.313 119.21 95.3953 124.412 92.7806C128.981 90.4962 134.348 90.1659 139.055 92.2301C143.651 94.2393 145.55 99.7439 143.238 104.258C141.724 107.175 138.779 109.184 135.614 109.817C131.678 110.616 127.385 109.322 124.165 107.038C120.477 104.423 118.853 100.707 116.926 96.6063C113.596 89.4778 112.082 80.8906 114.449 73.2392C116.458 66.8263 122.678 60.6887 129.339 59.4777C133.908 58.652 138.972 60.1657 141.807 63.8538C144.642 67.5419 144.614 73.3493 141.284 76.5695C138.697 79.0741 134.706 79.6796 131.183 78.964C128.348 78.4136 125.651 77.0924 123.587 75.0833C120.669 72.2759 119.128 68.23 118.798 64.1841C118.357 58.9547 119.623 53.34 121.99 48.6611C123.229 46.2391 124.77 44.0372 126.669 42.1106" stroke="black" stroke-width="3" stroke-miterlimit="10" stroke-linecap="round"/>
<path d="M161.844 43.8435C160.605 49.4032 160.688 56.0362 162.917 60.6326C165.064 65.1189 169.77 69.4675 174.835 69.7978C181.137 70.2106 187.082 63.4675 181.826 56.394C177.835 51.027 170.403 52.9812 166.082 56.1739C158.458 61.761 153.064 73.2932 156.862 83.119C159.146 89.0089 164.624 93.275 170.376 94.5135C175.385 95.5869 183.174 93.0548 183.559 87.2199C183.862 82.4584 180.092 78.5776 175.77 77.8896C170.238 77.0088 165.229 80.9171 162.862 86.0639C159.449 93.3851 161.156 102.165 166.192 108.33C171.229 114.495 181.358 119.092 187.826 112.238C189.504 110.449 190.495 107.917 190.11 105.495C188.679 96.9631 178.027 100.651 174.284 104.972C170.348 109.486 169.22 119.477 171.78 126" stroke="black" stroke-width="3" stroke-miterlimit="10" stroke-linecap="round"/>
</svg>
