<svg width="252" height="168" viewBox="0 0 252 168" fill="none" xmlns="http://www.w3.org/2000/svg">
<path d="M93.2578 83.7334C93.528 83.4902 94.0143 83.9765 93.7982 84.2737" stroke="black" stroke-width="4.2" stroke-miterlimit="10" stroke-linecap="round"/>
<path d="M102.666 62.1782C102.936 61.935 103.422 62.4214 103.206 62.7186" stroke="black" stroke-width="4.2" stroke-miterlimit="10" stroke-linecap="round"/>
<path d="M72.3538 88.8838C72.6239 88.6406 73.1103 89.1269 72.8941 89.4241" stroke="black" stroke-width="4.2" stroke-miterlimit="10" stroke-linecap="round"/>
<path d="M101.5 70.0686C101.5 70.3118 101.5 70.5279 101.5 70.7711" stroke="black" stroke-width="4.2" stroke-miterlimit="10" stroke-linecap="round"/>
<path d="M76.366 75.2468C76.366 75.49 76.366 75.7061 76.366 75.9493" stroke="black" stroke-width="4.2" stroke-miterlimit="10" stroke-linecap="round"/>
<path d="M120.75 65.3483C120.858 65.1862 120.939 65.0511 121.047 64.916" stroke="black" stroke-width="4.2" stroke-miterlimit="10" stroke-linecap="round"/>
<path d="M163.751 76.7909C163.859 76.6558 163.94 76.4937 164.048 76.3586" stroke="black" stroke-width="4.2" stroke-miterlimit="10" stroke-linecap="round"/>
<path d="M115.002 59.1125C115.11 58.9774 115.191 58.8153 115.299 58.6802" stroke="black" stroke-width="4.2" stroke-miterlimit="10" stroke-linecap="round"/>
<path d="M114.866 50.8983C114.975 50.7633 115.056 50.6012 115.164 50.4661" stroke="black" stroke-width="4.2" stroke-miterlimit="10" stroke-linecap="round"/>
<path d="M90.3296 56.4281C90.4106 56.293 90.5187 56.1309 90.5998 55.9958" stroke="black" stroke-width="4.2" stroke-miterlimit="10" stroke-linecap="round"/>
<path d="M161.148 65.5116C161.256 65.3765 161.337 65.2144 161.445 65.0793" stroke="black" stroke-width="4.2" stroke-miterlimit="10" stroke-linecap="round"/>
<path d="M144.149 67.3293C144.23 67.3293 144.338 67.3293 144.419 67.3293" stroke="black" stroke-width="4.2" stroke-miterlimit="10" stroke-linecap="round"/>
<path d="M138.834 58.6802C138.915 58.6802 139.023 58.6802 139.104 58.6802" stroke="black" stroke-width="4.2" stroke-miterlimit="10" stroke-linecap="round"/>
<path d="M162.287 57.3794C162.368 57.3794 162.476 57.3794 162.557 57.3794" stroke="black" stroke-width="4.2" stroke-miterlimit="10" stroke-linecap="round"/>
<path d="M147.538 61.2554C147.619 61.2554 147.727 61.2554 147.808 61.2554" stroke="black" stroke-width="4.2" stroke-miterlimit="10" stroke-linecap="round"/>
<path d="M119.448 44.9341C119.53 44.9341 119.638 44.9341 119.719 44.9341" stroke="black" stroke-width="4.2" stroke-miterlimit="10" stroke-linecap="round"/>
<path d="M162.639 90.4834C162.693 90.5104 162.72 90.5374 162.774 90.5645" stroke="black" stroke-width="4.2" stroke-miterlimit="10" stroke-linecap="round"/>
<path d="M170.583 116.838C170.637 116.865 170.664 116.892 170.718 116.919" stroke="black" stroke-width="4.2" stroke-miterlimit="10" stroke-linecap="round"/>
<path d="M140.298 45.2593C140.352 45.2863 140.379 45.3133 140.433 45.3403" stroke="black" stroke-width="4.2" stroke-miterlimit="10" stroke-linecap="round"/>
<path d="M77.2881 92.22L77.4232 92.8684" stroke="black" stroke-width="4.2" stroke-miterlimit="10" stroke-linecap="round"/>
<path d="M72.4893 95.9612L72.6514 96.6096" stroke="black" stroke-width="4.2" stroke-miterlimit="10" stroke-linecap="round"/>
<path d="M104.672 77.6331C104.834 77.6601 104.996 77.7681 105.077 77.9032" stroke="black" stroke-width="4.2" stroke-miterlimit="10" stroke-linecap="round"/>
<path d="M78.6167 69.8789C78.7788 69.9059 78.9409 70.014 79.022 70.1491" stroke="black" stroke-width="4.2" stroke-miterlimit="10" stroke-linecap="round"/>
<path d="M89.9495 67.3293C90.1116 67.3564 90.2737 67.4644 90.3547 67.5995" stroke="black" stroke-width="4.2" stroke-miterlimit="10" stroke-linecap="round"/>
<path d="M71.1606 102.415C71.3228 102.442 71.4849 102.55 71.5659 102.685" stroke="black" stroke-width="4.2" stroke-miterlimit="10" stroke-linecap="round"/>
<path d="M182.594 104.149C182.756 104.176 182.918 104.284 182.999 104.419" stroke="black" stroke-width="4.2" stroke-miterlimit="10" stroke-linecap="round"/>
<path d="M119.638 76.467C119.584 76.6021 119.557 76.7372 119.503 76.8993" stroke="black" stroke-width="4.2" stroke-miterlimit="10" stroke-linecap="round"/>
<path d="M94.6395 76.3037C94.5854 76.4388 94.5584 76.5739 94.5044 76.736" stroke="black" stroke-width="4.2" stroke-miterlimit="10" stroke-linecap="round"/>
<path d="M137.397 64.916C137.343 65.0511 137.316 65.1862 137.262 65.3483" stroke="black" stroke-width="4.2" stroke-miterlimit="10" stroke-linecap="round"/>
<path d="M128.992 67.1404C128.938 67.2755 128.91 67.4106 128.856 67.5727" stroke="black" stroke-width="4.2" stroke-miterlimit="10" stroke-linecap="round"/>
<path d="M95.6429 66.4885C95.5889 66.6236 95.5618 66.7587 95.5078 66.9208" stroke="black" stroke-width="4.2" stroke-miterlimit="10" stroke-linecap="round"/>
<path d="M138.97 76.6831C138.97 76.7371 138.97 76.7642 138.97 76.8182" stroke="black" stroke-width="4.2" stroke-miterlimit="10" stroke-linecap="round"/>
<path d="M147.538 74.2976C147.538 74.3516 147.538 74.3787 147.538 74.4327" stroke="black" stroke-width="4.2" stroke-miterlimit="10" stroke-linecap="round"/>
<path d="M156.891 52.5249C156.891 52.5789 156.891 52.606 156.891 52.66" stroke="black" stroke-width="4.2" stroke-miterlimit="10" stroke-linecap="round"/>
<path d="M153.611 66.1904C153.611 66.2445 153.611 66.2715 153.611 66.3255" stroke="black" stroke-width="4.2" stroke-miterlimit="10" stroke-linecap="round"/>
<path d="M86.2625 62.4756C86.2625 62.5296 86.2625 62.5566 86.2625 62.6107" stroke="black" stroke-width="4.2" stroke-miterlimit="10" stroke-linecap="round"/>
<path d="M155.021 83.8953C155.021 83.9493 155.021 83.9763 155.021 84.0303" stroke="black" stroke-width="4.2" stroke-miterlimit="10" stroke-linecap="round"/>
<path d="M165.513 82.7571C165.513 82.8111 165.513 82.8381 165.513 82.8922" stroke="black" stroke-width="4.2" stroke-miterlimit="10" stroke-linecap="round"/>
<path d="M110.23 62.8022C110.23 62.8563 110.23 62.8833 110.23 62.9373" stroke="black" stroke-width="4.2" stroke-miterlimit="10" stroke-linecap="round"/>
<path d="M100.904 56.5928C100.904 56.6468 100.904 56.6738 100.904 56.7279" stroke="black" stroke-width="4.2" stroke-miterlimit="10" stroke-linecap="round"/>
<path d="M95.5891 51.9016C95.5891 51.9556 95.5891 51.9827 95.5891 52.0367" stroke="black" stroke-width="4.2" stroke-miterlimit="10" stroke-linecap="round"/>
<path d="M173.349 102.415C173.349 102.469 173.349 102.496 173.349 102.55" stroke="black" stroke-width="4.2" stroke-miterlimit="10" stroke-linecap="round"/>
<path d="M170.637 95.8521C170.637 95.9061 170.637 95.9331 170.637 95.9871" stroke="black" stroke-width="4.2" stroke-miterlimit="10" stroke-linecap="round"/>
<path d="M167.113 106.291C167.113 106.345 167.113 106.372 167.113 106.426" stroke="black" stroke-width="4.2" stroke-miterlimit="10" stroke-linecap="round"/>
<path d="M177.985 94.9307C177.985 94.9847 177.985 95.0117 177.985 95.0658" stroke="black" stroke-width="4.2" stroke-miterlimit="10" stroke-linecap="round"/>
<path d="M176.358 111.198C176.358 111.252 176.358 111.279 176.358 111.333" stroke="black" stroke-width="4.2" stroke-miterlimit="10" stroke-linecap="round"/>
<path d="M133.683 44.3372C133.683 44.3912 133.683 44.4182 133.683 44.4722" stroke="black" stroke-width="4.2" stroke-miterlimit="10" stroke-linecap="round"/>
<path d="M86.2625 89.3459C86.2625 89.4 86.2625 89.427 86.2625 89.481" stroke="black" stroke-width="4.2" stroke-miterlimit="10" stroke-linecap="round"/>
<path d="M82.2495 116.865C82.2495 116.919 82.2495 116.946 82.2495 117" stroke="black" stroke-width="4.2" stroke-miterlimit="10" stroke-linecap="round"/>
<path d="M124.844 49.4897C124.844 49.5438 124.844 49.5708 124.844 49.6248" stroke="black" stroke-width="4.2" stroke-miterlimit="10" stroke-linecap="round"/>
<path d="M87.5098 77.1445C87.5098 77.1986 87.5098 77.2256 87.5098 77.2796" stroke="black" stroke-width="4.2" stroke-miterlimit="10" stroke-linecap="round"/>
<path d="M82.2495 78.6357C82.2495 78.6898 82.2495 78.7168 82.2495 78.7708" stroke="black" stroke-width="4.2" stroke-miterlimit="10" stroke-linecap="round"/>
<path d="M72.1362 114.723C72.1362 114.777 72.1362 114.804 72.1362 114.858" stroke="black" stroke-width="4.2" stroke-miterlimit="10" stroke-linecap="round"/>
<path d="M84.6086 107.43C84.6086 107.484 84.6086 107.511 84.6086 107.565" stroke="black" stroke-width="4.2" stroke-miterlimit="10" stroke-linecap="round"/>
<path d="M126.688 44.2566C126.688 44.3106 126.688 44.3376 126.688 44.3917" stroke="black" stroke-width="4.2" stroke-miterlimit="10" stroke-linecap="round"/>
<path d="M130.646 74.2976C130.646 74.3516 130.646 74.3787 130.646 74.4327" stroke="black" stroke-width="4.2" stroke-miterlimit="10" stroke-linecap="round"/>
<path d="M132.165 54.342C132.165 54.3961 132.165 54.4231 132.165 54.4771" stroke="black" stroke-width="4.2" stroke-miterlimit="10" stroke-linecap="round"/>
<path d="M130.646 48.8928C130.646 48.9469 130.646 48.9739 130.646 49.0279" stroke="black" stroke-width="4.2" stroke-miterlimit="10" stroke-linecap="round"/>
<path d="M112.236 71.7217C112.236 71.7757 112.236 71.8027 112.236 71.8568" stroke="black" stroke-width="4.2" stroke-miterlimit="10" stroke-linecap="round"/>
<path d="M82.2495 66.1099C82.2495 66.1639 82.2495 66.1909 82.2495 66.2449" stroke="black" stroke-width="4.2" stroke-miterlimit="10" stroke-linecap="round"/>
<path d="M84.6086 71.6411C84.6086 71.6951 84.6086 71.7222 84.6086 71.7762" stroke="black" stroke-width="4.2" stroke-miterlimit="10" stroke-linecap="round"/>
<path d="M182.594 97.262C182.594 97.316 182.594 97.343 182.594 97.3971" stroke="black" stroke-width="4.2" stroke-miterlimit="10" stroke-linecap="round"/>
<path d="M113.348 45.2871C113.348 45.3411 113.348 45.3682 113.348 45.4222" stroke="black" stroke-width="4.2" stroke-miterlimit="10" stroke-linecap="round"/>
<path d="M157.135 73.2671C157.081 73.3211 157.054 73.3752 157 73.4292" stroke="black" stroke-width="4.2" stroke-miterlimit="10" stroke-linecap="round"/>
<path d="M182.865 113.99C182.811 114.045 182.784 114.099 182.73 114.153" stroke="black" stroke-width="4.2" stroke-miterlimit="10" stroke-linecap="round"/>
<path d="M167.248 69.1729C167.194 69.2269 167.167 69.2809 167.113 69.335" stroke="black" stroke-width="4.2" stroke-miterlimit="10" stroke-linecap="round"/>
<path d="M171.424 65.4316C171.37 65.4857 171.343 65.5397 171.289 65.5937" stroke="black" stroke-width="4.2" stroke-miterlimit="10" stroke-linecap="round"/>
<path d="M144.284 52.9871C144.23 53.0411 144.203 53.0951 144.149 53.1492" stroke="black" stroke-width="4.2" stroke-miterlimit="10" stroke-linecap="round"/>
<path d="M151.333 48.9734C151.279 49.0274 151.252 49.0815 151.198 49.1355" stroke="black" stroke-width="4.2" stroke-miterlimit="10" stroke-linecap="round"/>
<path d="M108.061 53.7729C108.061 54.0431 108.061 54.3403 108.061 54.6105" stroke="black" stroke-width="4.2" stroke-miterlimit="10" stroke-linecap="round"/>
<path d="M138.833 50.6814C138.698 50.5733 138.482 50.7894 138.59 50.9245" stroke="black" stroke-width="4.2" stroke-miterlimit="10" stroke-linecap="round"/>
<path d="M146.29 47.2112C146.154 47.1031 145.938 47.3192 146.046 47.4543" stroke="black" stroke-width="4.2" stroke-miterlimit="10" stroke-linecap="round"/>
<path d="M156.729 58.3821C157.026 58.5172 157.161 58.7063 157.026 58.8954" stroke="black" stroke-width="4.2" stroke-miterlimit="10" stroke-linecap="round"/>
<path d="M120.695 52.3901C120.479 52.5522 120.668 52.9845 120.911 52.9035" stroke="black" stroke-width="4.2" stroke-miterlimit="10" stroke-linecap="round"/>
<path d="M79.0497 83.7598C78.8335 83.8949 79.0227 84.3542 79.2928 84.2731" stroke="black" stroke-width="4.2" stroke-miterlimit="10" stroke-linecap="round"/>
<path d="M70.2386 108.487C70.0225 108.622 70.2116 109.081 70.4818 109" stroke="black" stroke-width="4.2" stroke-miterlimit="10" stroke-linecap="round"/>
<path d="M93.854 60.2263C94.0701 60.2804 94.2052 60.5775 94.0972 60.7937" stroke="black" stroke-width="4.2" stroke-miterlimit="10" stroke-linecap="round"/>
<path d="M170.636 74.3782C170.447 74.4862 170.285 74.5943 170.095 74.7294" stroke="black" stroke-width="4.2" stroke-miterlimit="10" stroke-linecap="round"/>
<path d="M173.021 79.8289C172.832 79.9369 172.67 80.045 172.481 80.1801" stroke="black" stroke-width="4.2" stroke-miterlimit="10" stroke-linecap="round"/>
<path d="M178.254 76.5747C178.065 76.6828 177.903 76.7908 177.714 76.9259" stroke="black" stroke-width="4.2" stroke-miterlimit="10" stroke-linecap="round"/>
<path d="M106.731 47.1584C106.541 47.2665 106.379 47.3746 106.19 47.5097" stroke="black" stroke-width="4.2" stroke-miterlimit="10" stroke-linecap="round"/>
<path d="M167.735 62.5298C167.546 62.6379 167.383 62.7459 167.194 62.881" stroke="black" stroke-width="4.2" stroke-miterlimit="10" stroke-linecap="round"/>
<path d="M172.887 86.6886C172.617 86.8237 172.779 87.3911 173.076 87.3371C173.374 87.31 173.428 86.7427 173.131 86.6616" stroke="black" stroke-width="4.2" stroke-miterlimit="10" stroke-linecap="round"/>
<path d="M181.266 90.1581C180.995 90.2932 181.157 90.8606 181.455 90.8065C181.752 90.7795 181.806 90.2122 181.509 90.1311" stroke="black" stroke-width="4.2" stroke-miterlimit="10" stroke-linecap="round"/>
<path d="M174.08 70.4743C173.81 70.6094 173.972 71.1767 174.27 71.1227C174.567 71.0957 174.621 70.5283 174.324 70.4473" stroke="black" stroke-width="4.2" stroke-miterlimit="10" stroke-linecap="round"/>
<path d="M126.822 58.3556C126.552 58.4907 126.714 59.0581 127.012 59.0041C127.309 58.95 127.363 58.4097 127.066 58.3286" stroke="black" stroke-width="4.2" stroke-miterlimit="10" stroke-linecap="round"/>
<path d="M151.035 54.9396C150.765 55.0747 150.927 55.6421 151.224 55.588C151.521 55.561 151.575 54.9937 151.278 54.9126" stroke="black" stroke-width="4.2" stroke-miterlimit="10" stroke-linecap="round"/>
<path d="M101.038 49.245C100.768 49.3801 100.93 49.9475 101.227 49.8935C101.525 49.8664 101.579 49.2991 101.281 49.218" stroke="black" stroke-width="4.2" stroke-miterlimit="10" stroke-linecap="round"/>
<path d="M179.693 83.3268C179.423 83.4619 179.585 84.0293 179.882 83.9752C180.179 83.9482 180.233 83.3809 179.936 83.2998" stroke="black" stroke-width="4.2" stroke-miterlimit="10" stroke-linecap="round"/>
<path d="M78.8331 101.384C78.752 101.6 78.8871 101.87 79.1033 101.924" stroke="black" stroke-width="4.2" stroke-miterlimit="10" stroke-linecap="round"/>
<path d="M77.4503 110.115C77.3692 110.331 77.5043 110.601 77.7205 110.655" stroke="black" stroke-width="4.2" stroke-miterlimit="10" stroke-linecap="round"/>
<path d="M87.5365 96.6929C87.4554 96.909 87.5905 97.1792 87.8066 97.2332" stroke="black" stroke-width="4.2" stroke-miterlimit="10" stroke-linecap="round"/>
<path d="M74.1427 81.8357C74.0616 82.0518 74.1967 82.322 74.4128 82.376" stroke="black" stroke-width="4.2" stroke-miterlimit="10" stroke-linecap="round"/>
<path d="M69.5609 108.758C66.0091 85.3865 79.674 58.3008 100.714 47.781C128.233 34.0348 162.748 45.8018 177.362 72.5079C183.299 83.3531 185.685 96.1775 184.031 108.487" stroke="black" stroke-width="3" stroke-miterlimit="10" stroke-linecap="round"/>
</svg>
