<svg width="252" height="168" viewBox="0 0 252 168" fill="none" xmlns="http://www.w3.org/2000/svg">
<path d="M121.235 126C125.306 122.59 132.182 116.016 131.495 110.24C130.532 102.181 120.658 102.319 120.273 94.8373C119.888 87.2185 131.412 84.5781 131.495 76.3542C131.577 68.7628 122.941 66.6725 122.363 58.8336C121.868 52.15 125.609 45.9889 128.744 42.2483" stroke="black" stroke-width="3" stroke-miterlimit="10" stroke-linecap="round"/>
<path d="M75 122.616C79.6758 120.113 90.1001 115.025 90.9252 109.277C92.218 100.31 80.6935 97.8621 81.8487 90.4633C83.0314 82.927 94.1158 81.2768 95.9036 73.2454C97.5264 65.8466 90.0176 64.7189 91.0353 56.9351C91.8879 50.2789 96.8112 44.998 100.662 42" stroke="black" stroke-width="3" stroke-miterlimit="10" stroke-linecap="round"/>
<path d="M172.092 122.561C174.952 118.161 176.988 111.504 174.595 106.416C171.267 99.3198 163.263 100.943 160.65 94.2039C158.009 87.3278 166.426 82.0193 164.06 74.4555C161.86 67.4969 154.544 68.267 151.628 61.2808C149.153 55.3398 150.886 48.4911 152.783 44.0903" stroke="black" stroke-width="3" stroke-miterlimit="10" stroke-linecap="round"/>
</svg>
