<svg width="252" height="168" viewBox="0 0 252 168" fill="none" xmlns="http://www.w3.org/2000/svg">
<path d="M68.2012 129.818C69.6264 128.963 70.7095 127.738 71.4506 126.341C72.8757 123.576 71.4791 119.187 70.3104 116.507C69.7119 115.111 68.0017 114.313 66.263 114.626L63.6693 115.054C61.4176 115.453 59.9354 117.505 60.7905 119.301C61.1611 120.127 61.7881 120.897 62.7287 121.41C67.9162 124.289 73.2462 121.011 75.897 118.873C76.9516 118.018 77.3791 116.764 77.0086 115.595L73.7023 105.99C73.1892 104.508 71.4791 103.596 69.6549 103.881L68.9423 103.995C66.5766 104.365 65.1514 106.531 66.035 108.384C66.5766 109.496 67.3462 110.579 68.5148 111.177C72.1061 113.03 84.8468 110.778 85.7019 106.446C86.386 103.054 87.6116 97.1826 82.9657 95.9855C81.512 95.6149 80.1439 95.6719 78.9468 95.9285C76.6951 96.413 75.5835 98.6362 76.5525 100.375L77.0086 101.173C77.7497 102.513 79.5453 103.168 81.284 102.741L88.8372 100.774C91.1175 100.175 91.9725 94.5033 90.8609 92.7362L85.5309 84.2138C84.7043 82.9027 82.9087 82.3327 81.227 82.8172L79.0038 83.4728C76.6381 84.1568 75.5835 86.6366 77.0086 88.3182C77.7497 89.2018 78.7188 90.0284 80.0014 90.5129C83.9063 91.9951 89.1508 87.2921 92.7136 85.0974C98.0721 81.7626 86.3575 70.9031 82.5951 69.4209C80.6284 68.6513 78.1202 69.3639 76.2675 70.1335C74.6999 70.789 73.8163 72.2427 74.1298 73.6678C74.5288 75.378 76.4955 76.4326 78.4907 76.005L87.9251 73.9528C90.0629 73.4968 91.317 71.5871 90.6614 69.8484C88.7802 64.832 84.5903 55.8821 79.0038 56.8227C72.8757 57.8773 77.3221 63.5778 81.0275 64.2904C81.4265 64.3759 81.7115 64.4329 81.8826 64.4614C84.1343 64.832 88.8942 65.3165 91.545 63.5778C98.4997 59.0174 92.9986 53.6589 89.8348 49.2125C88.7517 47.7018 86.614 47.5878 84.7328 48.1293C82.3386 48.6139 81.0275 50.9226 82.1391 52.7468C83.4217 54.8275 85.7304 56.7942 89.8348 55.6256C93.3407 54.628 95.8774 48.7564 96.647 46.7327C96.818 46.2767 96.875 45.8206 96.7895 45.3361C96.533 43.8824 95.8204 40.5191 94.3668 38.1819" stroke="#111111" stroke-width="3" stroke-miterlimit="10" stroke-linecap="round"/>
<path d="M167.676 41.1453C169.757 51.0642 160.721 51.6628 160.693 54.9121C160.664 60.0426 174.659 52.4039 176.683 56.0522C179.362 60.8977 161.605 63.862 163.828 68.2514C165.795 72.1563 176.056 65.9142 177.481 69.5055C179.476 74.579 161.662 75.2346 162.887 80.308C163.97 84.84 177.88 76.3462 179.39 80.8496C181.072 85.8661 163.799 88.0323 165.595 92.1937C167.362 96.2696 180.616 89.6855 181.3 93.8469C181.956 97.8087 170.384 100.032 171.495 103.908C172.692 108.184 186.431 100.003 187.542 103.908C188.54 107.386 174.545 110.464 176.369 114.397C178.649 119.3 189.936 108.925 190.45 113.913C190.849 117.789 182.839 121.267 186.402 128.107" stroke="#111111" stroke-width="3" stroke-miterlimit="10" stroke-linecap="round"/>
<path d="M126.261 39.5222C124.238 41.2324 122.157 43.4841 121.758 46.3629C121.188 50.1822 123.098 52.4625 126.375 53.2035C128.428 53.6596 131.192 54.1441 133.216 53.2605C134.499 52.6905 136.779 50.5243 134.185 50.0112C131.392 49.4697 125.463 53.0325 122.984 54.3721C122.984 54.3721 118.281 57.8495 119.791 60.3292C120.532 61.4123 121.957 61.6689 123.24 61.8399C126.432 62.2674 127.829 64.7186 131.05 64.9467C132.361 65.0607 139.401 63.8921 135.525 61.6118C134.1 60.7568 128.314 61.1843 125.207 62.2959C122.499 63.265 118.765 67.1984 118.765 68.5665C119.079 70.5617 121.273 71.5593 123.155 72.1294C127.487 73.4405 131.249 76.6328 135.838 76.4618C137.491 76.4048 139.8 73.4405 137.947 72.7279C137.149 72.4144 135.895 71.1033 135.04 71.1603C132.589 71.3313 129.739 72.6424 127.943 74.3526C124.58 77.5164 118.081 78.4285 123.554 83.0459C123.668 83.1599 123.81 83.2454 123.924 83.3594C127.202 85.3261 131.164 86.1242 134.812 86.0957C135.924 86.0957 137.235 86.0957 138.261 85.6112C139.287 85.1551 140.057 83.73 138.575 83.2454C137.548 82.9319 134.898 82.7609 133.843 82.9319C131.648 83.2739 130.594 84.2715 128.485 85.0126C124.95 86.2667 119.706 88.5755 119.136 93.1074C118.737 96.1857 122.841 97.7533 125.834 97.9529C127.801 98.0954 132.76 100.404 134.356 98.6939C135.61 97.3543 133.501 95.3591 132.19 95.4161C130.052 95.5016 127.801 97.8388 125.976 98.8364C123.326 100.29 119.706 105.592 125.72 107.473C130.594 109.639 130.109 110.152 135.354 110.494C136.095 110.466 139.43 108.67 139.145 107.416C138.546 104.794 129.226 108.128 127.316 110.152C120.504 117.392 125.549 117.99 129.853 119.102C132.589 119.615 135.297 120.356 138.09 120.556C139.772 120.67 138.546 120.527 140.199 120.299C141.938 120.042 143.106 118.532 140.94 117.734C137.064 116.309 135.439 119.814 132.161 121.781C130.052 123.007 127.145 128.422 132.19 129.733" stroke="#111111" stroke-width="3" stroke-miterlimit="10" stroke-linecap="round"/>
</svg>
