<svg width="252" height="168" viewBox="0 0 252 168" fill="none" xmlns="http://www.w3.org/2000/svg">
<path d="M77.1412 83.3146C76.3959 81.3173 73.5938 78.9921 72.8187 78.4555C71.0897 77.2631 69.2713 76.1005 67.1846 75.6832C66.4394 75.5342 65.6345 75.5043 64.919 75.713C63.8161 76.0111 62.892 76.8458 62.3256 77.7997C61.2226 79.5883 61.0437 81.7943 61.4909 83.8214C61.9082 85.8485 62.415 86.8918 63.4285 88.7102" stroke="black" stroke-width="3" stroke-miterlimit="10" stroke-linecap="round"/>
<path d="M88.648 88.8303C89.8106 87.161 90.6155 85.9686 91.2117 84.0309C91.8079 82.1231 91.8675 79.9767 90.9434 78.1881C90.4664 77.2342 89.6914 76.3697 88.648 75.9822C87.9624 75.7437 87.2171 75.7139 86.4719 75.7735C84.4448 75.9822 82.5668 76.9361 80.808 77.9496C80.0031 78.3968 79.1982 78.8738 78.6318 79.5892C78.1847 80.1854 77.9164 80.871 77.6779 81.5865C77.0221 83.4943 76.724 85.4618 76.6047 87.4591C76.5451 88.4428 76.5749 89.4265 76.6047 90.4103C76.6345 91.3344 76.6047 92.3479 76.9028 93.272C76.9028 93.3019 76.9326 93.3317 76.9625 93.3615C76.9923 93.3615 77.0221 93.3615 77.0519 93.3615C78.0654 92.9739 78.8405 92.02 79.7348 91.4536C81.7023 90.1122 83.9976 88.9198 86.4421 88.6813C87.2171 88.5621 87.9624 88.5919 88.648 88.8303ZM88.648 88.8303C89.6914 89.2179 90.4664 90.0824 90.9434 91.0363C91.8377 92.8249 91.8079 95.5078 91.2117 97.4157C90.6155 99.3235 90.3174 99.8601 89.1548 101.529" stroke="black" stroke-width="3" stroke-miterlimit="10" stroke-linecap="round"/>
<path d="M76.3364 106.955C76.6345 105.434 76.4258 101.142 76.3364 99.6215C76.247 98.3694 75.9787 96.5808 75.6806 95.3586C75.5017 94.6134 75.3229 93.8681 74.9055 93.2123C74.3987 92.4372 73.6237 91.841 72.8188 91.3044C71.0898 90.112 69.2714 88.9494 67.1847 88.5321C66.4394 88.383 65.6346 88.3532 64.9191 88.5619C63.8161 88.86 63.2796 89.6351 62.6834 90.589C61.5804 92.3776 61.4015 95.1201 61.8487 97.1472C62.2958 99.1743 62.9218 99.7109 63.9652 101.529" stroke="black" stroke-width="3" stroke-miterlimit="10" stroke-linecap="round"/>
<path d="M77.6779 128.15C77.6779 128.15 79.7348 124.036 76.5153 120.519C74.6969 118.551 68.9435 114.646 65.724 116.465C63.4882 117.717 63.1305 121.115 63.6373 123.172C64.0546 124.931 64.9191 126.541 65.9625 128.12" stroke="black" stroke-width="3" stroke-miterlimit="10" stroke-linecap="round"/>
<path d="M77.1412 109.698C76.3959 107.7 73.5938 105.375 72.8187 104.838C71.0897 103.646 70.1656 102.603 68.0789 102.215C67.3336 102.066 66.5288 102.036 65.8133 102.245C64.7103 102.543 64.2632 102.752 63.667 103.706C62.564 105.494 62.3852 107.7 62.8323 109.727C63.2795 111.754 63.7564 112.798 64.7998 114.616" stroke="black" stroke-width="3" stroke-miterlimit="10" stroke-linecap="round"/>
<path d="M88.6779 115.212C89.8405 113.543 90.6453 112.35 91.2415 110.413C91.8378 108.505 91.8676 106.359 90.9434 104.57C90.4665 103.616 89.6914 102.752 88.6481 102.364C87.9624 102.126 87.2172 102.096 86.4719 102.155C84.4448 102.364 82.5668 103.318 80.808 104.331C80.0031 104.779 79.1983 105.256 78.6319 105.971C78.1847 106.567 77.9164 107.253 77.6779 107.968C77.0221 109.876 76.724 111.844 76.6346 113.841C76.575 114.825 76.6048 115.808 76.6346 116.792C76.6644 117.716 76.6346 118.73 76.9327 119.654C76.9327 119.684 76.9625 119.714 76.9923 119.743C77.0221 119.743 77.0519 119.743 77.0817 119.743C78.0953 119.356 78.8703 118.402 79.7646 117.835C81.7321 116.494 84.0275 115.302 86.4719 115.063C87.247 114.914 87.9922 114.944 88.6779 115.212ZM88.6779 115.212C89.7212 115.6 90.4963 116.464 90.9733 117.418C91.8676 119.207 91.8378 121.353 91.2415 123.261C90.6453 125.169 89.8405 126.48 88.6779 128.15" stroke="black" stroke-width="3" stroke-miterlimit="10" stroke-linecap="round"/>
<path d="M61.8784 38.1819C61.8784 38.1819 60.5966 40.835 61.0139 42.8621C61.4313 44.8892 61.938 45.9325 62.9516 47.7509" stroke="black" stroke-width="3" stroke-miterlimit="10" stroke-linecap="round"/>
<path d="M76.7239 56.3657C75.9786 54.3684 73.1765 52.0432 72.4014 51.5066C70.6724 50.3142 68.854 49.1516 66.7375 48.7641C65.9922 48.615 65.2172 48.5852 64.4719 48.7641C63.3689 49.0622 62.4448 49.8969 61.8784 50.8508C60.7754 52.6394 60.5966 55.9781 61.0437 58.0052C61.4909 60.0323 61.9679 61.0757 62.9814 62.8941" stroke="black" stroke-width="3" stroke-miterlimit="10" stroke-linecap="round"/>
<path d="M88.2604 63.0137C89.423 61.3443 90.2279 60.1519 90.8241 58.2142C91.4203 56.3064 91.4799 53.0571 90.5558 51.2387C90.0788 50.2847 89.3038 49.4202 88.2604 49.0327C87.5748 48.7942 86.7997 48.7644 86.0843 48.824C84.0572 49.0327 82.1792 49.9866 80.4204 51.0002C79.6155 51.4473 78.8106 51.9243 78.2442 52.6397C77.7971 53.2359 77.5288 53.9216 77.2903 54.637C76.6345 56.5151 76.3364 59.6153 76.2469 61.6126C76.1873 62.5963 76.2171 63.5801 76.2469 64.5638C76.2768 65.4879 76.2469 66.5014 76.545 67.4256C76.545 67.4554 76.5749 67.4852 76.6047 67.515C76.6345 67.515 76.6643 67.515 76.6941 67.515C77.7076 67.1275 78.4827 66.1735 79.377 65.6071C81.3445 64.2657 83.6399 63.0733 86.0843 62.8348C86.7997 62.7156 87.5748 62.7454 88.2604 63.0137ZM88.2604 63.0137C89.3038 63.4012 90.4366 64.4445 90.9135 65.3985C91.8078 67.1871 92.1656 69.3334 91.5694 71.2413C90.9732 73.1491 90.3471 73.5068 89.1845 75.1762" stroke="black" stroke-width="3" stroke-miterlimit="10" stroke-linecap="round"/>
<path d="M76.3364 80.7814C76.6345 79.2611 76.4258 74.7896 76.3364 73.2693C76.247 72.0172 75.5613 70.7652 75.2632 69.543C75.0844 68.7977 74.9055 68.0525 74.4882 67.3967C73.9814 66.6216 73.2063 66.0254 72.4015 65.4888C70.6725 64.2964 68.8541 63.1338 66.7375 62.7165C65.9923 62.5972 65.2172 62.5376 64.472 62.7463C63.369 63.0444 61.9381 63.6704 61.3419 64.6243C60.2389 66.4129 60.4774 68.6189 60.8947 70.646C61.3121 72.6731 61.9679 73.2096 63.0113 75.0281" stroke="black" stroke-width="3" stroke-miterlimit="10" stroke-linecap="round"/>
<path d="M184.16 105.762C187.379 102.84 189.526 98.339 188.035 94.3742C186.932 91.4826 184.249 89.4854 181.864 87.5477C180.344 86.3255 178.734 85.1331 177.512 83.6128C176.916 82.8675 176.379 82.003 176.2 81.0789C176.022 80.0952 176.439 79.3797 176.707 78.4556C177.214 76.7863 176.379 74.9678 175.127 73.686C173.875 72.4042 172.265 71.48 170.775 70.4665C167.913 68.499 165.379 65.8161 164.694 62.5668C164.187 60.2118 164.545 54.8758 168.927 52.4612" stroke="black" stroke-width="3" stroke-miterlimit="10" stroke-linecap="round"/>
<path d="M184.16 88.5312C187.379 85.6098 189.525 81.1085 188.035 77.1437C186.932 74.2522 184.249 72.2549 181.864 70.3172C180.344 69.095 178.734 67.9026 177.512 66.3823C176.916 65.637 176.379 64.7725 176.2 63.8484C176.021 62.8647 176.439 62.1492 176.707 61.2251C177.214 59.5558 176.379 57.7373 175.127 56.4555C173.875 55.1737 172.265 54.2496 170.775 53.236C167.913 51.2685 165.379 48.5856 164.694 45.3363C164.336 43.5775 164.425 40.8052 166.363 38.1819" stroke="black" stroke-width="3" stroke-miterlimit="10" stroke-linecap="round"/>
<path d="M184.16 122.872C187.379 119.95 189.526 115.449 188.035 111.484C186.932 108.593 184.249 106.595 181.864 104.658C180.344 103.436 178.734 102.243 177.512 100.723C176.916 99.9776 176.379 99.1131 176.2 98.189C176.022 97.2053 176.439 96.4898 176.707 95.5657C177.214 93.8964 176.379 92.0779 175.127 90.7961C173.875 89.5143 172.265 88.5902 170.775 87.5766C167.913 85.6091 165.379 82.9262 164.694 79.6769C164.187 77.3219 164.545 71.9859 168.927 69.5713" stroke="black" stroke-width="3" stroke-miterlimit="10" stroke-linecap="round"/>
<path d="M188.512 129.818C187.856 125.824 183.027 122.694 181.835 121.799C180.284 120.607 178.704 119.385 177.482 117.864C176.886 117.119 176.349 116.255 176.171 115.331C175.992 114.347 176.409 113.631 176.677 112.707C177.184 111.038 176.349 109.22 175.097 107.938C173.845 106.656 172.236 105.732 170.745 104.718C167.883 102.751 165.35 100.068 164.664 96.8185C164.157 94.4635 164.515 89.1275 168.897 86.7129" stroke="black" stroke-width="3" stroke-miterlimit="10" stroke-linecap="round"/>
<path d="M176.707 129.818C177.214 128.149 176.379 126.33 175.127 125.049C173.875 123.767 172.265 122.843 170.775 121.829C167.913 119.862 165.379 117.179 164.694 113.929C164.187 111.574 164.545 106.238 168.927 103.824" stroke="black" stroke-width="3" stroke-miterlimit="10" stroke-linecap="round"/>
<path d="M184.16 70.7348C187.379 67.8134 189.526 63.3121 188.035 59.3474C185.889 53.6238 175.097 50.1956 175.097 43.1008" stroke="black" stroke-width="3" stroke-miterlimit="10" stroke-linecap="round"/>
<path d="M187.975 38.1819C189.853 42.4149 188.78 50.4935 185.322 53.7428" stroke="black" stroke-width="3" stroke-miterlimit="10" stroke-linecap="round"/>
<path d="M167.108 119.654C165.32 122.575 164.217 126.361 164.217 129.044" stroke="black" stroke-width="3" stroke-miterlimit="10" stroke-linecap="round"/>
<path d="M125.046 62.4778C127.342 65.0415 131.724 70.4073 130.323 74.4913" stroke="black" stroke-width="3" stroke-miterlimit="10" stroke-linecap="round"/>
<path d="M119.501 56.8445C111.274 63.3431 115.805 68.9772 120.485 74.2834L125.046 78.9636C125.046 78.9636 126.298 77.5625 128.921 75.5354C130.948 73.9853 133.065 72.3756 135.182 70.9447C137.954 69.0368 139.653 65.9664 140.07 62.7171C140.368 60.1534 139.862 56.5762 136.851 53.9231" stroke="black" stroke-width="3" stroke-miterlimit="10" stroke-linecap="round"/>
<path d="M125.046 78.9338C127.342 81.4975 131.724 86.8633 130.323 90.9473" stroke="black" stroke-width="3" stroke-miterlimit="10" stroke-linecap="round"/>
<path d="M119.501 73.2683C111.274 79.7669 115.805 85.401 120.485 90.7073L125.046 95.3874C125.046 95.3874 126.298 93.9864 128.921 91.9593C130.948 90.4092 133.065 88.7994 135.182 87.3685C137.954 85.4607 139.653 82.3902 140.07 79.1409C140.368 76.5772 139.862 73 136.851 70.3469" stroke="black" stroke-width="3" stroke-miterlimit="10" stroke-linecap="round"/>
<path d="M119.501 38.1819C120.664 39.4637 129.041 45.694 130.591 51.8945C131.187 54.3092 131.038 56.0083 130.323 58.0652" stroke="black" stroke-width="3" stroke-miterlimit="10" stroke-linecap="round"/>
<path d="M119.501 38.1819C111.274 44.6805 115.805 52.5206 120.485 57.8268L125.046 62.507C125.046 62.507 126.298 61.1059 128.921 59.0788C130.948 57.5287 133.065 55.9189 135.182 54.488C136.165 53.8024 137.03 52.9677 137.745 52.0436C139.027 50.3742 139.802 48.3471 140.07 46.2604C140.368 43.6968 139.862 40.8052 136.851 38.1819" stroke="black" stroke-width="3" stroke-miterlimit="10" stroke-linecap="round"/>
<path d="M125.046 95.3577C127.342 97.9213 131.724 103.287 130.323 107.371" stroke="black" stroke-width="3" stroke-miterlimit="10" stroke-linecap="round"/>
<path d="M119.501 89.7236C111.274 96.2223 115.805 101.856 120.485 107.163L125.046 111.843C125.046 111.843 126.298 110.442 128.921 108.415C130.948 106.864 133.065 105.255 135.182 103.824C137.954 101.916 139.653 98.8455 140.07 95.5962C140.368 93.0326 139.862 89.4553 136.851 86.8022" stroke="black" stroke-width="3" stroke-miterlimit="10" stroke-linecap="round"/>
<path d="M125.046 111.813C127.342 114.377 131.724 119.742 130.323 123.826" stroke="black" stroke-width="3" stroke-miterlimit="10" stroke-linecap="round"/>
<path d="M119.501 106.15C111.274 112.648 115.805 118.282 120.485 123.589L124.241 127.434C124.688 127.881 125.374 127.911 125.851 127.464C126.477 126.868 127.491 125.944 128.921 124.841C130.948 123.29 133.065 121.681 135.182 120.25C137.954 118.342 139.653 115.272 140.07 112.022C140.368 109.459 139.862 105.881 136.851 103.228" stroke="black" stroke-width="3" stroke-miterlimit="10" stroke-linecap="round"/>
<path d="M140.071 128.478C140.16 127.852 140.16 127.136 140.13 126.391C139.981 124.185 139.117 121.681 136.851 119.684" stroke="black" stroke-width="3" stroke-miterlimit="10" stroke-linecap="round"/>
<path d="M119.501 122.574C117.653 124.035 115.745 125.794 114.94 129.013" stroke="black" stroke-width="3" stroke-miterlimit="10" stroke-linecap="round"/>
<path d="M89.3634 38.1819C89.3634 38.1819 91.2415 40.2388 90.2876 44.6805C89.8702 46.6182 89.3932 47.1249 88.2307 48.7943" stroke="black" stroke-width="3" stroke-miterlimit="10" stroke-linecap="round"/>
<path d="M75.5316 53.6245C76.6643 50.6435 78.0356 43.1015 76.6345 40.21" stroke="black" stroke-width="3" stroke-miterlimit="10" stroke-linecap="round"/>
</svg>
