<svg width="201" height="200" viewBox="0 0 201 200" fill="none" xmlns="http://www.w3.org/2000/svg">
<g clip-path="url(#clip0_20_7698)">
<path d="M84.7642 76.9242L83.5265 77.0994L83.7017 78.337L90.0055 122.882L90.1807 124.119L91.4183 123.944L130.538 118.408C136.952 117.501 141.416 111.565 140.508 105.151L135.672 70.9823L135.497 69.7446L134.26 69.9198L84.7642 76.9242Z" fill="white" stroke="#111111" stroke-width="2.5"/>
<path d="M79.3494 38.6619L78.1118 38.837L78.2869 40.0747L84.5908 84.6195L84.7659 85.8571L86.0036 85.682L135.499 78.6775L136.737 78.5024L136.562 77.2647L131.726 43.0962C130.818 36.682 124.883 32.2181 118.469 33.1259L79.3494 38.6619Z" fill="white" stroke="#111111" stroke-width="2.5"/>
<path d="M91.9953 38.1348L91.8201 36.8971L90.5825 37.0722L19.4267 47.142L19.3705 47.1499C16.5124 47.5544 14.2915 47.8687 12.5314 48.2662C10.7455 48.6695 9.32614 49.18 8.10749 50.035C6.07977 51.4578 4.55451 53.4859 3.7503 55.8288C3.26697 57.2368 3.17036 58.7421 3.27844 60.5698C3.38495 62.3711 3.69925 64.592 4.10373 67.4501L4.11167 67.5063L11.1314 117.109L11.1393 117.166C11.5438 120.024 11.8581 122.245 12.2556 124.005C12.6589 125.791 13.1694 127.21 14.0244 128.429L14.0244 128.429C15.4471 130.456 17.4753 131.982 19.8181 132.786C21.2262 133.269 22.7315 133.366 24.5591 133.258C26.3605 133.151 28.5814 132.837 31.4396 132.432L31.4956 132.424L102.651 122.355L103.889 122.179L103.714 120.942L91.9953 38.1348Z" fill="white" stroke="#111111" stroke-width="2.5"/>
<path d="M145.984 116.647L144.738 116.549L144.64 117.796L141.119 162.646L141.021 163.892L142.267 163.99L181.655 167.083C188.113 167.59 193.759 162.766 194.267 156.307L196.968 121.904L197.066 120.658L195.82 120.56L145.984 116.647Z" fill="white" stroke="#111111" stroke-width="2.5"/>
<path d="M149.01 78.1223L147.763 78.0244L147.666 79.2706L144.144 124.121L144.046 125.367L145.292 125.465L195.127 129.378L196.373 129.476L196.471 128.23L199.173 93.8268C199.68 87.3686 194.856 81.7221 188.397 81.215L149.01 78.1223Z" fill="white" stroke="#111111" stroke-width="2.5"/>
<path d="M161.468 80.3544L161.566 79.1082L160.32 79.0103L88.6755 73.3848L88.6189 73.3803C85.7412 73.1544 83.5051 72.9788 81.7006 72.9845C79.8698 72.9903 78.3734 73.1803 76.9981 73.7502C74.7098 74.6986 72.7804 76.347 71.4866 78.4593C70.709 79.7287 70.2877 81.1771 69.9962 82.9846C69.709 84.7661 69.5334 87.0022 69.3074 89.8799L69.303 89.9365L65.3814 139.88L65.3769 139.937C65.151 142.814 64.9754 145.051 64.9811 146.855C64.9869 148.686 65.1769 150.182 65.7468 151.557L65.7468 151.557C66.6952 153.846 68.3436 155.775 70.4559 157.069C71.7253 157.847 73.1737 158.268 74.9812 158.559C76.7627 158.847 78.9989 159.022 81.8767 159.248L81.9331 159.253L153.577 164.878L154.823 164.976L154.921 163.73L161.468 80.3544Z" fill="white" stroke="#111111" stroke-width="2.5"/>
<path d="M9.41345 64.3419C14.8477 63.0286 24.6062 56.2246 20.7021 39.4903C20.6504 39.2844 20.6017 39.0826 20.556 38.8853C20.6067 39.0884 20.6554 39.2901 20.7021 39.4903C22.5611 46.8967 28.3071 59.6217 38.193 58.8758C38.4446 58.8568 38.4481 58.8469 38.2072 58.9222C33.3527 60.4379 26.8971 66.3408 28.6608 81.804C28.669 81.8716 28.6768 81.9388 28.6842 82.0053C28.6763 81.938 28.6685 81.8709 28.6608 81.804C27.815 74.8 22.843 61.8104 9.41345 64.3419Z" fill="white" stroke="#111111" stroke-width="2.5" stroke-linejoin="round"/>
<path d="M174.66 86.5475C178.159 87.0436 185.478 85.3229 187.088 74.582C187.106 74.449 187.124 74.3191 187.144 74.1926C187.126 74.3237 187.107 74.4535 187.088 74.582C186.48 79.1579 186.827 87.4211 192.091 89.7665C192.321 89.8693 192.291 90.0564 192.038 90.0667C188.827 90.198 184.26 92.5556 181.894 101.295C181.883 101.336 181.872 101.378 181.861 101.418C181.872 101.377 181.883 101.336 181.894 101.295C183.031 96.9831 183.14 88.1929 174.66 86.5475Z" fill="white" stroke="#111111" stroke-width="2.5" stroke-linejoin="round"/>
<circle cx="43.75" cy="142" r="20.75" fill="white" stroke="black" stroke-width="2.5"/>
<path d="M48.3333 136.583C48.3333 139.115 46.2817 141.167 43.75 141.167C41.2183 141.167 39.1667 139.115 39.1667 136.583C39.1667 134.052 41.2183 132 43.75 132C46.2817 132 48.3333 134.052 48.3333 136.583Z" fill="#111111"/>
<path d="M35.4167 150.333C35.4167 145.731 39.1475 142 43.75 142C48.3525 142 52.0833 145.731 52.0833 150.333V152H35.4167V150.333Z" fill="#111111"/>
<circle cx="77.25" cy="142" r="20.75" fill="white" stroke="black" stroke-width="2.5"/>
<path fill-rule="evenodd" clip-rule="evenodd" d="M85.5833 140.333H78.9167V133.667C78.9167 132.747 78.17 132 77.25 132C76.33 132 75.5833 132.747 75.5833 133.667V140.333H68.9167C67.9967 140.333 67.25 141.08 67.25 142C67.25 142.92 67.9967 143.667 68.9167 143.667H75.5833V150.333C75.5833 151.253 76.33 152 77.25 152C78.17 152 78.9167 151.253 78.9167 150.333V143.667H85.5833C86.5033 143.667 87.25 142.92 87.25 142C87.25 141.08 86.5033 140.333 85.5833 140.333Z" fill="#111111"/>
</g>
<defs>
<clipPath id="clip0_20_7698">
<rect width="200" height="200" fill="white" transform="translate(0.5)"/>
</clipPath>
</defs>
</svg>
