<svg xmlns="http://www.w3.org/2000/svg" width="48" height="48" fill="none"><rect width="48" height="48" fill="#E9E9E9" rx="8"/><path fill="#111" fill-rule="evenodd" d="M14.5 30.5a1.5 1.5 0 1 0 .001 3.001A1.5 1.5 0 0 0 14.5 30.5Zm19 0h-14a1.5 1.5 0 1 0 0 3h14a1.5 1.5 0 1 0 0-3Zm-19-5a1.5 1.5 0 1 0 .001 3.001A1.5 1.5 0 0 0 14.5 25.5Zm19 0h-14a1.5 1.5 0 1 0 0 3h14a1.5 1.5 0 1 0 0-3Zm-11.5-3h4a1 1 0 0 0 1-1v-7a1 1 0 0 0-1-1h-4a1 1 0 0 0-1 1v7a1 1 0 0 0 1 1Zm12-9h-4a1 1 0 0 0-1 1v7a1 1 0 0 0 1 1h4a1 1 0 0 0 1-1v-7a1 1 0 0 0-1-1Zm-21 8v-7a1 1 0 0 1 1-1h4a1 1 0 0 1 1 1v7a1 1 0 0 1-1 1h-4a1 1 0 0 1-1-1Z" clip-rule="evenodd"/></svg>