<svg width="201" height="200" viewBox="0 0 201 200" fill="none" xmlns="http://www.w3.org/2000/svg">
<mask id="path-1-inside-1_53_79952" fill="white">
<path fill-rule="evenodd" clip-rule="evenodd" d="M149 79C149 93.4024 142.786 106.353 132.894 115.319C129.987 117.953 128 121.555 128 125.478V142C128 144.209 126.209 146 124 146V146C121.791 146 120 147.791 120 150V158C120 164.627 114.627 170 108 170H92C85.3726 170 80 164.627 80 158V150C80 147.791 78.2091 146 76 146V146C73.7909 146 72 144.209 72 142V125.478C72 121.555 70.0132 117.953 67.1064 115.319C57.2137 106.353 51 93.4024 51 79C51 51.938 72.938 30 100 30C127.062 30 149 51.938 149 79ZM117.15 158C117.15 151.373 111.777 146 105.15 146H94.85C88.2226 146 82.85 151.373 82.85 158V158C82.85 163.053 86.9466 167.15 92 167.15H108C113.053 167.15 117.15 163.053 117.15 158V158Z"/>
</mask>
<path fill-rule="evenodd" clip-rule="evenodd" d="M149 79C149 93.4024 142.786 106.353 132.894 115.319C129.987 117.953 128 121.555 128 125.478V142C128 144.209 126.209 146 124 146V146C121.791 146 120 147.791 120 150V158C120 164.627 114.627 170 108 170H92C85.3726 170 80 164.627 80 158V150C80 147.791 78.2091 146 76 146V146C73.7909 146 72 144.209 72 142V125.478C72 121.555 70.0132 117.953 67.1064 115.319C57.2137 106.353 51 93.4024 51 79C51 51.938 72.938 30 100 30C127.062 30 149 51.938 149 79ZM117.15 158C117.15 151.373 111.777 146 105.15 146H94.85C88.2226 146 82.85 151.373 82.85 158V158C82.85 163.053 86.9466 167.15 92 167.15H108C113.053 167.15 117.15 163.053 117.15 158V158Z" fill="white"/>
<path d="M67.1064 115.319L65.1948 117.428L67.1064 115.319ZM132.894 115.319L130.982 113.209L132.894 115.319ZM134.805 117.428C145.268 107.946 151.847 94.2392 151.847 79H146.153C146.153 92.5655 140.304 104.761 130.982 113.209L134.805 117.428ZM130.847 142V125.478H125.153V142H130.847ZM122.847 158V150H117.153V158H122.847ZM108 172.847C116.2 172.847 122.847 166.2 122.847 158H117.153C117.153 163.055 113.055 167.153 108 167.153V172.847ZM92 172.847H108V167.153H92V172.847ZM77.1533 158C77.1533 166.2 83.8004 172.847 92 172.847V167.153C86.9448 167.153 82.8467 163.055 82.8467 158H77.1533ZM77.1533 150V158H82.8467V150H77.1533ZM69.1533 125.478V142H74.8467V125.478H69.1533ZM48.1533 79C48.1533 94.2392 54.7317 107.946 65.1948 117.428L69.018 113.209C59.6956 104.761 53.8467 92.5655 53.8467 79H48.1533ZM100 27.1533C71.3659 27.1533 48.1533 50.3659 48.1533 79H53.8467C53.8467 53.5102 74.5102 32.8467 100 32.8467V27.1533ZM151.847 79C151.847 50.3658 128.634 27.1533 100 27.1533V32.8467C125.49 32.8467 146.153 53.5102 146.153 79H151.847ZM94.85 148.847H105.15V143.153H94.85V148.847ZM80.0033 158C80.0033 164.626 85.3744 169.997 92 169.997V164.303C88.5188 164.303 85.6967 161.481 85.6967 158H80.0033ZM92 169.997H108V164.303H92V169.997ZM108 169.997C114.626 169.997 119.997 164.626 119.997 158H114.303C114.303 161.481 111.481 164.303 108 164.303V169.997ZM74.8467 125.478C74.8467 120.569 72.3702 116.247 69.018 113.209L65.1948 117.428C67.6562 119.659 69.1533 122.541 69.1533 125.478H74.8467ZM76 143.153C75.3631 143.153 74.8467 142.637 74.8467 142H69.1533C69.1533 145.781 72.2187 148.847 76 148.847V143.153ZM82.8467 150C82.8467 146.219 79.7813 143.153 76 143.153V148.847C76.6369 148.847 77.1533 149.363 77.1533 150H82.8467ZM105.15 148.847C110.205 148.847 114.303 152.945 114.303 158H119.997C119.997 149.8 113.35 143.153 105.15 143.153V148.847ZM124 143.153C120.219 143.153 117.153 146.219 117.153 150H122.847C122.847 149.363 123.363 148.847 124 148.847V143.153ZM94.85 143.153C86.6504 143.153 80.0033 149.8 80.0033 158H85.6967C85.6967 152.945 89.7948 148.847 94.85 148.847V143.153ZM125.153 142C125.153 142.637 124.637 143.153 124 143.153V148.847C127.781 148.847 130.847 145.781 130.847 142H125.153ZM130.982 113.209C127.63 116.247 125.153 120.569 125.153 125.478H130.847C130.847 122.541 132.344 119.659 134.805 117.428L130.982 113.209Z" fill="#111111" mask="url(#path-1-inside-1_53_79952)"/>
<rect x="71" y="131" width="59" height="9" rx="4.5" fill="white" stroke="#111111" stroke-width="2.85"/>
<rect x="72" y="140" width="56" height="9" rx="4.5" fill="white" stroke="#111111" stroke-width="2.85"/>
<rect x="75" y="149" width="50" height="9" rx="4.5" fill="white" stroke="#111111" stroke-width="2.85"/>
<path d="M138.779 92.8144C136.85 97.4364 134.065 101.687 130.565 105.326" stroke="#111111" stroke-width="2.85" stroke-linecap="round"/>
<path d="M77.5965 45.0721C78.6944 44.3276 79.8301 43.6358 81 43M72.5982 49.0645C70.0853 51.4144 67.8654 54.0804 66 57" stroke="#111111" stroke-width="2.85" stroke-linecap="round"/>
<path d="M93 120C90.7909 120 89 118.209 89 116C89 113.791 90.7909 112 93 112C95.2091 112 97 113.791 97 116V132.5" stroke="black" stroke-width="2.85"/>
<path d="M103 132.5V116C103 113.791 104.791 112 107 112C109.209 112 111 113.791 111 116C111 118.209 109.209 120 107 120H93" stroke="black" stroke-width="2.85"/>
<circle cx="86" cy="61" r="3" fill="#111111"/>
<circle cx="115" cy="61" r="3" fill="#111111"/>
<path d="M119 72C112.376 75.7731 95.7031 81.0555 82 72" stroke="#111111" stroke-width="2.5" stroke-linecap="round"/>
</svg>
