<svg width="56" height="56" viewBox="0 0 56 56" fill="none" xmlns="http://www.w3.org/2000/svg">
<g clip-path="url(#clip0_252_3531)">
<path d="M36 13H8C4.13401 13 1 16.134 1 20V48C1 51.866 4.13401 55 8 55H36C39.866 55 43 51.866 43 48V20C43 16.134 39.866 13 36 13Z" fill="white" stroke="#767676" stroke-width="2"/>
<path d="M18 33C20.485 33 22.5 30.985 22.5 28.5C22.5 26.015 20.485 24 18 24C15.515 24 13.5 26.015 13.5 28.5C13.5 30.985 15.515 33 18 33Z" fill="#111111"/>
<path d="M28 36C26.642 36 25.393 36.461 24.387 37.23C22.927 35.272 20.614 34 18 34C13.582 34 10 37.618 10 42.081V44H34V42.061C34 38.713 31.314 36 28 36Z" fill="#111111"/>
<path d="M31.25 31.75C31.25 33.545 29.795 35 28 35C26.205 35 24.75 33.545 24.75 31.75C24.75 29.955 26.205 28.5 28 28.5C29.795 28.5 31.25 29.955 31.25 31.75Z" fill="#111111"/>
<path d="M42 27C49.1797 27 55 21.1797 55 14C55 6.8203 49.1797 1 42 1C34.8203 1 29 6.8203 29 14C29 21.1797 34.8203 27 42 27Z" fill="#E60023" stroke="white" stroke-width="2"/>
<path fill-rule="evenodd" clip-rule="evenodd" d="M37.0713 17.1401L39.6705 16.234L44.83 11.0736C45.2796 10.6245 45.2796 9.89571 44.83 9.44654L44.1791 8.79525C43.73 8.34608 43.0012 8.34608 42.552 8.79525L37.3917 13.9547L36.4851 16.5539C36.3586 16.9174 36.7078 17.2671 37.0713 17.1401ZM46.5418 18.0834C46.5418 18.3355 46.3356 18.5417 46.0835 18.5417H36.9168C36.6647 18.5417 36.4585 18.3355 36.4585 18.0834C36.4585 17.8313 36.6647 17.625 36.9168 17.625H46.0835C46.3356 17.625 46.5418 17.8313 46.5418 18.0834Z" fill="white"/>
</g>
<defs>
<clipPath id="clip0_252_3531">
<rect width="56" height="56" fill="white"/>
</clipPath>
</defs>
</svg>
