<svg width="56" height="56" viewBox="0 0 56 56" fill="none" xmlns="http://www.w3.org/2000/svg">
<rect x="1" y="13" width="42" height="42" rx="7" fill="white" stroke="#767676" stroke-width="2"/>
<path d="M18 33C20.485 33 22.5 30.985 22.5 28.5C22.5 26.015 20.485 24 18 24C15.515 24 13.5 26.015 13.5 28.5C13.5 30.985 15.515 33 18 33Z" fill="#111111"/>
<path d="M28 36C26.642 36 25.393 36.461 24.387 37.23C22.927 35.272 20.614 34 18 34C13.582 34 10 37.618 10 42.081V44H34V42.061C34 38.713 31.314 36 28 36Z" fill="#111111"/>
<path d="M31.25 31.75C31.25 33.545 29.795 35 28 35C26.205 35 24.75 33.545 24.75 31.75C24.75 29.955 26.205 28.5 28 28.5C29.795 28.5 31.25 29.955 31.25 31.75Z" fill="#111111"/>
<circle cx="42" cy="14" r="13" fill="#E60023" stroke="white" stroke-width="2"/>
<path fill-rule="evenodd" clip-rule="evenodd" d="M42 8.5C40.4665 8.5 39.0245 9.1495 38 10.2325V9.25C38 8.8355 37.664 8.5 37.25 8.5C36.836 8.5 36.5 8.8355 36.5 9.25V12.75H40.25C40.664 12.75 41 12.4145 41 12C41 11.5855 40.664 11.25 40.25 11.25H39.108C39.8525 10.4705 40.8915 10 42 10C44.2055 10 46 11.7945 46 14C46 16.2055 44.2055 18 42 18C40.717 18 39.502 17.377 38.7505 16.3335C38.509 15.9975 38.04 15.922 37.7035 16.1635C37.3675 16.4055 37.2915 16.8745 37.5335 17.21C38.566 18.644 40.236 19.5 42 19.5C45.0325 19.5 47.5 17.0325 47.5 14C47.5 10.9675 45.0325 8.5 42 8.5Z" fill="white"/>
</svg>
