<svg width="56" height="56" viewBox="0 0 56 56" fill="none" xmlns="http://www.w3.org/2000/svg">
<rect x="1" y="13" width="42" height="42" rx="7" fill="white" stroke="#767676" stroke-width="2"/>
<path d="M18 33C20.485 33 22.5 30.985 22.5 28.5C22.5 26.015 20.485 24 18 24C15.515 24 13.5 26.015 13.5 28.5C13.5 30.985 15.515 33 18 33Z" fill="#111111"/>
<path d="M28 36C26.642 36 25.393 36.461 24.387 37.23C22.927 35.272 20.614 34 18 34C13.582 34 10 37.618 10 42.081V44H34V42.061C34 38.713 31.314 36 28 36Z" fill="#111111"/>
<path d="M31.25 31.75C31.25 33.545 29.795 35 28 35C26.205 35 24.75 33.545 24.75 31.75C24.75 29.955 26.205 28.5 28 28.5C29.795 28.5 31.25 29.955 31.25 31.75Z" fill="#111111"/>
<circle cx="42" cy="14" r="13" fill="#E60023" stroke="white" stroke-width="2"/>
<path fill-rule="evenodd" clip-rule="evenodd" d="M47 13H43V9C43 8.448 42.552 8 42 8C41.448 8 41 8.448 41 9V13H37C36.448 13 36 13.448 36 14C36 14.552 36.448 15 37 15H41V19C41 19.552 41.448 20 42 20C42.552 20 43 19.552 43 19V15H47C47.552 15 48 14.552 48 14C48 13.448 47.552 13 47 13Z" fill="white"/>
</svg>
