<svg width="40" height="58" viewBox="0 0 40 58" fill="none" xmlns="http://www.w3.org/2000/svg">
<path fill-rule="evenodd" clip-rule="evenodd" d="M40 56V49.5C40 48.3955 39.1045 47.5 38 47.5H23.5C22.3955 47.5 21.5 48.3955 21.5 49.5V56C21.5 57.1045 22.3955 58 23.5 58H38C39.1045 58 40 57.1045 40 56ZM40 8.5V2C40 0.8955 39.1045 0 38 0H23.5C22.3955 0 21.5 0.8955 21.5 2V8.5C21.5 9.6045 22.3955 10.5 23.5 10.5H38C39.1045 10.5 40 9.6045 40 8.5ZM18.5 56V36.5C18.5 35.3955 17.6045 34.5 16.5 34.5H2C0.8955 34.5 0 35.3955 0 36.5V56C0 57.1045 0.8955 58 2 58H16.5C17.6045 58 18.5 57.1045 18.5 56ZM16.5 32.5H2C0.8955 32.5 0 31.6045 0 30.5V2C0 0.8955 0.8955 0 2 0H16.5C17.6045 0 18.5 0.8955 18.5 2V30.5C18.5 31.6045 17.6045 32.5 16.5 32.5Z" fill="#E9E9E9"/>
<path fill-rule="evenodd" clip-rule="evenodd" d="M40 39.0115V43.5C40 44.571 39.158 45.4455 38.0998 45.4976L38 45.5H34V39.0115H40ZM33.5 39.0115V45.5H28V39.0115H33.5ZM27.5 39.0115V45.5H23.5C22.3955 45.5 21.5 44.6045 21.5 43.5V39.0115H27.5ZM38 12.5C39.071 12.5 39.9455 13.342 39.9976 14.4002L40 14.5V38.5H21.5V14.5C21.5 13.429 22.3421 12.5545 23.4002 12.5024L23.5 12.5H38Z" fill="#111111"/>
<path fill-rule="evenodd" clip-rule="evenodd" d="M31.0835 22.0833C29.979 22.0833 29.0835 22.9788 29.0835 24.0833V24.3333H27.8335L27.3371 27.709C27.1595 28.9165 28.0954 30 29.3158 30H32.6846C33.905 30 34.8409 28.9165 34.6633 27.709L34.1669 24.3333H33.0835V24.0833C33.0835 22.9788 32.1881 22.0833 31.0835 22.0833ZM31.9169 24.3333V24.0833C31.9169 23.6231 31.5438 23.25 31.0835 23.25C30.6233 23.25 30.2502 23.6231 30.2502 24.0833V24.3333H31.9169Z" fill="#E9E9E9"/>
</svg>
