<svg width="40" height="58" viewBox="0 0 40 58" fill="none" xmlns="http://www.w3.org/2000/svg">
<path fill-rule="evenodd" clip-rule="evenodd" d="M40 56V49.5C40 48.3955 39.1045 47.5 38 47.5H23.5C22.3955 47.5 21.5 48.3955 21.5 49.5V56C21.5 57.1045 22.3955 58 23.5 58H38C39.1045 58 40 57.1045 40 56ZM40 8.5V2C40 0.8955 39.1045 0 38 0H23.5C22.3955 0 21.5 0.8955 21.5 2V8.5C21.5 9.6045 22.3955 10.5 23.5 10.5H38C39.1045 10.5 40 9.6045 40 8.5ZM18.5 56V36.5C18.5 35.3955 17.6045 34.5 16.5 34.5H2C0.8955 34.5 0 35.3955 0 36.5V56C0 57.1045 0.8955 58 2 58H16.5C17.6045 58 18.5 57.1045 18.5 56ZM16.5 32.5H2C0.8955 32.5 0 31.6045 0 30.5V2C0 0.8955 0.8955 0 2 0H16.5C17.6045 0 18.5 0.8955 18.5 2V30.5C18.5 31.6045 17.6045 32.5 16.5 32.5Z" fill="#E9E9E9"/>
<rect x="21.5" y="13" width="18.5" height="24" rx="4" fill="#111111"/>
<rect x="22" y="37.5" width="4" height="8" rx="2" fill="#111111"/>
<rect x="26.5" y="37.5" width="4" height="8" rx="2" fill="#111111"/>
<rect x="31" y="37.5" width="4" height="8" rx="2" fill="#111111"/>
<rect x="35.5" y="37.5" width="4" height="8" rx="2" fill="#111111"/>
</svg>
