<svg width="201" height="200" viewBox="0 0 201 200" fill="none" xmlns="http://www.w3.org/2000/svg">
<path d="M96.4387 34.3455C98.3321 30.3514 103.748 30.3514 105.642 34.3455L112.42 48.6434C112.42 48.6435 112.42 48.6435 112.42 48.6435C112.643 49.1142 113.086 49.4431 113.601 49.5211L128.753 51.8133C132.914 52.4428 134.723 57.8808 131.592 61.0584L120.622 72.1904C120.27 72.547 120.111 73.0501 120.192 73.5442L122.782 89.2648C123.529 93.8016 119.008 96.9913 115.343 94.9855L101.792 87.5688C101.324 87.3124 100.757 87.3124 100.288 87.5688L86.7372 94.9855C83.0724 96.9913 78.5508 93.8016 79.2983 89.2648L81.8882 73.5441C81.9696 73.0501 81.8099 72.547 81.4585 72.1904L70.4887 61.0584C67.3573 57.8808 69.1658 52.4428 73.3268 51.8133L88.4797 49.5211C88.9947 49.4431 89.4374 49.1142 89.6605 48.6435L96.4387 34.3455Z" fill="white" stroke="#111111" stroke-width="2.70005"/>
<circle cx="93.4799" cy="61.3207" r="2.16004" fill="#111111"/>
<circle cx="109.68" cy="61.3207" r="2.16004" fill="#111111"/>
<path d="M110.76 67.8006C107.473 69.4306 99.1998 71.7126 92.3999 67.8006" stroke="#111111" stroke-width="2.70005" stroke-linecap="round"/>
<path d="M133.279 118.663L133.279 118.663C133.797 118.632 134.265 118.346 134.53 117.9L142.638 104.256C144.909 100.435 150.428 100.918 152 105.075L157.616 119.92C157.616 119.92 157.616 119.92 157.616 119.92C157.799 120.405 158.211 120.768 158.716 120.889L158.716 120.889L173.857 124.515C178.054 125.52 179.367 131.099 175.942 133.969L163.868 144.087C163.868 144.087 163.868 144.087 163.868 144.087C163.479 144.412 163.272 144.905 163.312 145.41L164.564 161.299C164.921 165.836 160.087 168.688 156.495 166.328L143.422 157.738C142.982 157.448 142.426 157.4 141.942 157.608L127.575 163.798C123.628 165.499 119.363 161.851 120.503 157.444L124.494 142.014C124.621 141.524 124.503 141.002 124.177 140.615L114.043 128.554C111.168 125.132 113.43 119.866 117.738 119.605L133.279 118.663Z" fill="white" stroke="#111111" stroke-width="2.70005"/>
<path d="M155.513 139.345C152.557 141.519 144.803 145.198 137.429 142.521" stroke="#111111" stroke-width="2.70005" stroke-linecap="round"/>
<circle cx="136.805" cy="131.9" r="2.16004" transform="rotate(5 136.805 131.9)" fill="#111111"/>
<circle cx="152.944" cy="133.312" r="2.16004" transform="rotate(5 152.944 133.312)" fill="#111111"/>
<path d="M42.2841 120.889L42.2842 120.889C42.7886 120.768 43.2006 120.405 43.3841 119.92L48.9996 105.075C50.5721 100.918 56.0913 100.435 58.3618 104.256L66.4696 117.9C66.4696 117.9 66.4696 117.9 66.4697 117.9C66.7347 118.346 67.2034 118.632 67.7212 118.663L67.7212 118.663L83.262 119.605C87.5696 119.866 89.8319 125.132 86.9567 128.554L76.823 140.615C76.8229 140.615 76.8229 140.615 76.8229 140.615C76.4971 141.002 76.3789 141.524 76.5058 142.014L80.4973 157.444C81.6371 161.851 77.3722 165.499 73.4247 163.798L59.058 157.608C58.5744 157.4 58.0185 157.448 57.5784 157.738L44.5048 166.328C40.9126 168.688 36.079 165.836 36.4364 161.299L37.6879 145.41C37.7276 144.905 37.5207 144.412 37.1325 144.087L25.0584 133.969C21.6326 131.099 22.9461 125.52 27.143 124.515L42.2841 120.889Z" fill="white" stroke="#111111" stroke-width="2.70005"/>
<circle cx="48.0559" cy="133.312" r="2.16004" transform="rotate(-5 48.0559 133.312)" fill="#111111"/>
<circle cx="64.1946" cy="131.9" r="2.16004" transform="rotate(-5 64.1946 131.9)" fill="#111111"/>
<path d="M63.8979 141.745C60.4781 143.074 52.0331 144.604 45.6117 140.098" stroke="#111111" stroke-width="2.70005" stroke-linecap="round"/>
</svg>
