<svg width="40" height="58" viewBox="0 0 40 58" fill="none" xmlns="http://www.w3.org/2000/svg">
<path fill-rule="evenodd" clip-rule="evenodd" d="M38 45.5002H23.5C22.3955 45.5002 21.5 44.6047 21.5 43.5002V14.5002C21.5 13.3957 22.3955 12.5002 23.5 12.5002H38C39.1045 12.5002 40 13.3957 40 14.5002V43.5002C40 44.6047 39.1045 45.5002 38 45.5002Z" fill="#111111"/>
<path fill-rule="evenodd" clip-rule="evenodd" d="M33.1555 28.37L29.6585 26.121C29.1585 25.7995 28.5 26.158 28.5 26.751V31.249C28.5 31.8425 29.1585 32.201 29.6585 31.8795L33.1555 29.6305C33.615 29.335 33.615 28.665 33.1555 28.37ZM40 56V49.5C40 48.3955 39.1045 47.5 38 47.5H23.5C22.3955 47.5 21.5 48.3955 21.5 49.5V56C21.5 57.105 22.3955 58 23.5 58H38C39.1045 58 40 57.105 40 56ZM40 8.5V2C40 0.8955 39.1045 0 38 0H23.5C22.3955 0 21.5 0.8955 21.5 2V8.5C21.5 9.605 22.3955 10.5 23.5 10.5H38C39.1045 10.5 40 9.605 40 8.5ZM18.5 56V36.5C18.5 35.3955 17.6045 34.5 16.5 34.5H2C0.8955 34.5 0 35.3955 0 36.5V56C0 57.105 0.8955 58 2 58H16.5C17.6045 58 18.5 57.105 18.5 56ZM16.5 32.5H2C0.8955 32.5 0 31.605 0 30.5V2C0 0.8955 0.8955 0 2 0H16.5C17.6045 0 18.5 0.8955 18.5 2V30.5C18.5 31.605 17.6045 32.5 16.5 32.5Z" fill="#E9E9E9"/>
</svg>
