<svg width="40" height="58" viewBox="0 0 40 58" fill="none" xmlns="http://www.w3.org/2000/svg">
<path fill-rule="evenodd" clip-rule="evenodd" d="M38 45.5H2C0.89543 45.5 0 44.6046 0 43.5V14.5C0 13.3954 0.89543 12.5 2 12.5H38C39.1046 12.5 40 13.3954 40 14.5V43.5C40 44.6046 39.1046 45.5 38 45.5Z" fill="#111111"/>
<path fill-rule="evenodd" clip-rule="evenodd" d="M22.6555 28.37L19.1585 26.1205C18.6585 25.7995 18 26.158 18 26.7505V31.2485C18 31.8425 18.6585 32.201 19.1585 31.8795L22.6555 29.6305C22.8703 29.4929 23.0002 29.2554 23.0002 29.0002C23.0002 28.7451 22.8703 28.5076 22.6555 28.37ZM40 56V49.5C40 48.3954 39.1046 47.5 38 47.5H23.5C22.3954 47.5 21.5 48.3954 21.5 49.5V56C21.5 57.1046 22.3954 58 23.5 58H38C39.1046 58 40 57.1046 40 56ZM40 8.5V2C40 0.89543 39.1046 0 38 0H23.5C22.3954 0 21.5 0.89543 21.5 2V8.5C21.5 9.60457 22.3954 10.5 23.5 10.5H38C39.1046 10.5 40 9.60457 40 8.5ZM18.5 56V49.5C18.5 48.3954 17.6046 47.5 16.5 47.5H2C0.89543 47.5 0 48.3954 0 49.5V56C0 57.1046 0.89543 58 2 58H16.5C17.6046 58 18.5 57.1046 18.5 56ZM16.5 10.5H2C0.89543 10.5 0 9.60457 0 8.5V2C0 0.89543 0.89543 0 2 0H16.5C17.6046 0 18.5 0.89543 18.5 2V8.5C18.5 9.60457 17.6046 10.5 16.5 10.5Z" fill="#E9E9E9"/>
</svg>
