<svg width="220" height="220" viewBox="0 0 220 220" fill="none" xmlns="http://www.w3.org/2000/svg">
<circle cx="110" cy="110" r="95" fill="#1A5866"/>
<path d="M183.956 169.632C182.146 171.874 180.236 174.031 178.233 176.098H172.862V165.004H183.956V169.632Z" fill="#13434E"/>
<path d="M178.409 97.5195C190.961 97.5197 200.599 105.046 204.874 114.915C204.233 127.502 201.14 139.442 196.067 150.268L183.955 165.005H172.862L156.137 144.655C140.675 125.843 154.058 97.5195 178.409 97.5195Z" fill="url(#paint0_linear_2579_234707)"/>
<path d="M41.5908 57.7686C65.9422 57.7686 79.3255 86.0918 63.8633 104.904L47.1377 125.254H36.0449L19.3193 104.904C17.815 103.074 16.5841 101.153 15.6094 99.1777C17.1937 85.2062 21.809 72.1537 28.7812 60.6934C32.5507 58.8359 36.8642 57.7686 41.5908 57.7686Z" fill="url(#paint1_linear_2579_234707)"/>
<path d="M116.471 160.382C115.45 160.382 114.622 161.21 114.622 162.231C114.622 167.94 116.811 173.248 119.628 178.024C121.854 181.798 124.56 185.376 127.009 188.614C127.646 189.455 128.265 190.274 128.853 191.067C129.462 191.886 130.62 192.058 131.44 191.449C132.26 190.84 132.431 189.682 131.822 188.862C131.193 188.015 130.546 187.159 129.892 186.294C127.457 183.073 124.92 179.717 122.813 176.145C120.152 171.634 118.32 166.997 118.32 162.231C118.32 161.21 117.492 160.382 116.471 160.382Z" fill="#75982A"/>
<path d="M103.529 160.382C102.508 160.382 101.68 161.21 101.68 162.231C101.68 166.997 99.8475 171.634 97.1867 176.145C95.08 179.717 92.5427 183.073 90.1082 186.294C89.4538 187.159 88.8069 188.015 88.1777 188.862C87.5691 189.682 87.7403 190.84 88.5601 191.449C89.38 192.058 90.5381 191.886 91.1467 191.067C91.7354 190.274 92.3545 189.455 92.9909 188.614C95.4395 185.376 98.1459 181.798 100.372 178.024C103.189 173.248 105.378 167.94 105.378 162.231C105.378 161.21 104.55 160.382 103.529 160.382Z" fill="#75982A"/>
<path d="M36.0445 125.253H47.1378V136.347H36.0445V125.253Z" fill="#354517"/>
<path d="M152.431 127.072C154.242 125.04 156.266 123.212 158.325 121.431C172.382 109.273 181.182 91.8773 181.182 72.56C181.182 35.7999 149.313 6 110 6C70.6872 6 38.8178 35.7999 38.8178 72.56C38.8178 91.8773 47.6184 109.273 61.6751 121.431C63.7337 123.212 65.7578 125.04 67.5688 127.072L97.8038 160.994C98.5054 161.781 99.5098 162.231 100.564 162.231H119.436C120.49 162.231 121.495 161.781 122.196 160.994L152.431 127.072Z" fill="url(#paint2_linear_2579_234707)"/>
<path d="M133.225 113.789C137.206 102.452 139.582 88.1301 139.582 72.56C139.582 35.7999 126.338 6 110 6C93.6623 6 80.4179 35.7999 80.4179 72.56C80.4179 88.1293 82.7937 102.45 86.7742 113.787L101.68 162.231H118.32L133.225 113.789Z" fill="#E9DE63"/>
<path d="M87.8134 188.116H132.187V193.662H131.262C129.22 193.662 127.564 195.318 127.564 197.36V202.907C127.564 209.033 122.598 214 116.471 214H103.529C97.4022 214 92.4356 209.033 92.4356 202.907V197.36C92.4356 195.318 90.78 193.662 88.7378 193.662H87.8134V188.116Z" fill="#E68800"/>
<path d="M117.396 179.227C117.396 183.115 114.085 186.267 110 186.267C105.916 186.267 102.604 183.115 102.604 179.227C102.604 175.339 110 165.929 110 165.929C110 165.929 117.396 175.339 117.396 179.227Z" fill="#FD865E"/>
<circle cx="110" cy="181.644" r="4.62222" fill="#E60023"/>
<path d="M92.4355 197.36H127.564V201.058H92.4355V197.36Z" fill="#E60023"/>
<path d="M63.8631 104.904L55.3718 115.235C45.0378 103.682 38.8178 88.8 38.8178 72.56C38.8178 67.4822 39.4259 62.5373 40.5777 57.7853C40.9133 57.7744 41.2512 57.7689 41.5911 57.7689C65.9426 57.7689 79.3255 86.0917 63.8631 104.904Z" fill="#F9F3B9"/>
<path d="M152.431 127.072C154.242 125.04 156.266 123.212 158.325 121.431C165.932 114.852 172 106.738 175.966 97.6166C158.81 98.9844 147.778 114.658 149.752 130.077L152.431 127.072Z" fill="#F9F3B9"/>
<defs>
<linearGradient id="paint0_linear_2579_234707" x1="178.409" y1="97.52" x2="178.409" y2="165.004" gradientUnits="userSpaceOnUse">
<stop stop-color="#187486"/>
<stop offset="1" stop-color="#38A845"/>
</linearGradient>
<linearGradient id="paint1_linear_2579_234707" x1="41.5912" y1="57.769" x2="41.5912" y2="125.253" gradientUnits="userSpaceOnUse">
<stop stop-color="#9FC157"/>
<stop offset="1" stop-color="#187486"/>
</linearGradient>
<linearGradient id="paint2_linear_2579_234707" x1="110" y1="17.0933" x2="110" y2="161.412" gradientUnits="userSpaceOnUse">
<stop stop-color="#EEF7DE"/>
<stop offset="1" stop-color="white"/>
</linearGradient>
</defs>
</svg>
