<svg fill="none" height="220" viewBox="0 0 220 220" width="220" xmlns="http://www.w3.org/2000/svg" xmlns:xlink="http://www.w3.org/1999/xlink"><linearGradient id="a" gradientUnits="userSpaceOnUse" x1="145.277" x2="145.277" y1="41.0024" y2="187.574"><stop offset="0" stop-color="#fa5f2e"/><stop offset="1" stop-color="#e68800"/></linearGradient><linearGradient id="b" gradientUnits="userSpaceOnUse" x1="93.6057" x2="93.6057" y1="33.4644" y2="203.487"><stop offset="0" stop-color="#fde2fd"/><stop offset="1" stop-color="#ed96ed"/></linearGradient><circle cx="110" cy="110" fill="#6b246b" r="95"/><g fill="url(#a)"><path d="m150.559 45.1902c0 2.3128 1.875 4.1878 4.188 4.1878s4.188-1.875 4.188-4.1878-1.875-4.1878-4.188-4.1878-4.188 1.875-4.188 4.1878z"/><path d="m114.087 53.5326c20.563-11.0833 46.217-3.3986 57.301 17.1642l30.797 57.1392c5.268 9.772 1.615 21.964-8.157 27.232l-29.539 15.921c-1.281.69-2.331 1.726-3.23 2.87-3.757 4.781-9.592 7.852-16.144 7.852-8.594 0-15.954-5.283-19.01-12.779-.94-2.306-3.207-3.972-5.698-3.972-11.394 0-21.2695-6.501-26.1205-15.995-.654-1.281-1.5362-2.434-2.6027-3.398-6.0206-5.441-9.8038-13.312-9.8038-22.066 0-7.462 2.7493-14.283 7.2901-19.504 2.1092-2.424 3.2418-5.6266 2.9081-8.823-1.7273-16.5444 6.4582-33.2596 22.0088-41.6414z"/><path d="m107.007 183.386c0 3.701 2.999 6.7 6.7 6.7 3.7 0 6.7-2.999 6.7-6.7 0-3.7-3-6.7-6.7-6.7-3.701 0-6.7 3-6.7 6.7z"/><path d="m86.0678 189.249c-2.3129 0-4.1878-1.875-4.1878-4.188s1.8749-4.188 4.1878-4.188c2.3128 0 4.1877 1.875 4.1877 4.188s-1.8749 4.188-4.1877 4.188z"/><path d="m167.31 54.4033c-3.238 0-5.863-2.6249-5.863-5.8629s2.625-5.8629 5.863-5.8629 5.863 2.6249 5.863 5.8629-2.625 5.8629-5.863 5.8629z"/></g><path d="m62.001 50.1486c14.3069-18.4657 40.874-21.8371 59.34-7.5302s21.837 40.8744 7.53 59.3406l-14.575 18.811c-1.88 2.427-2.184 5.667-1.446 8.646.56 2.264.857 4.631.857 7.067 0 16.19-13.125 29.314-29.3143 29.314-1.6929 0-3.3523-.143-4.9667-.419-2.9475-.503-6.011.125-8.6681 1.496-2.8157 1.453-6.0109 2.274-9.3979 2.274-11.3329 0-20.52-9.187-20.52-20.52 0-4.376 1.3696-8.432 3.7035-11.762.2953-.422.2222-1.006-.1847-1.321-.2244-.174-.5152-.234-.7932-.177-.8801.182-1.7917.278-2.7256.278-5.636 0-10.4594-3.48-12.4395-8.407-.904-2.25-2.1049-4.44-3.7789-6.194-3.4434-3.608-5.5579-8.495-5.5579-13.876 0-7.8983 4.5552-14.7325 11.1818-18.019 1.4487-.7185 2.8094-1.641 3.7999-2.9194z" fill="url(#b)"/><path d="m78.5298 187.574c5.5508 0 10.0506-4.5 10.0506-10.051s-4.4998-10.05-10.0506-10.05-10.0506 4.499-10.0506 10.05 4.4998 10.051 10.0506 10.051z" fill="url(#b)"/><path d="m57.5911 186.736c0 3.701-2.9999 6.701-6.7004 6.701-3.7006 0-6.7005-3-6.7005-6.701 0-3.7 2.9999-6.7 6.7005-6.7 3.7005 0 6.7004 3 6.7004 6.7z" fill="url(#b)"/><path d="m127.896 48.9228c12.495 14.9194 13.381 37.0236.975 53.0362l-14.575 18.812c-1.88 2.426-2.184 5.666-1.447 8.646.561 2.263.858 4.63.858 7.066 0 9.155-4.196 17.329-10.77 22.705-3.613-2.686-6.5865-6.184-8.6505-10.223-.654-1.28-1.5362-2.434-2.6027-3.398-6.0206-5.441-9.8038-13.312-9.8038-22.066 0-7.462 2.7492-14.283 7.2901-19.503 2.1092-2.425 3.2418-5.6275 2.9081-8.8239-1.7273-16.5444 6.4582-33.2596 22.0088-41.6414 4.432-2.3889 9.101-3.9059 13.809-4.6099z" fill="#fdbf81"/><path d="m87.8572 181.274c-.5426-.257-1.1492-.4-1.7894-.4-2.3129 0-4.1878 1.874-4.1878 4.187 0 .64.1437 1.247.4005 1.79 2.5341-1.02 4.5568-3.043 5.5767-5.577z" fill="#fdbf81"/><path clip-rule="evenodd" d="m86.8438 90.6079c3.133 2.7414 3.4505 7.5036.7091 10.6371l-58.6286 67.004c-2.7414 3.133-7.5036 3.45-10.6366.709-3.1331-2.742-3.4506-7.504-.7092-10.637l58.6286-67.004c2.7414-3.133 7.5036-3.4505 10.6367-.7091z" fill="#bd5f00" fill-rule="evenodd"/><path d="m41.5134 153.861c-.4394-1.67-.6734-3.424-.6734-5.233 0-4.376 1.3696-8.432 3.7034-11.762.2954-.422.2222-1.006-.1846-1.321-.2244-.174-.5153-.234-.7932-.177-.8801.182-1.7917.278-2.7256.278-1.0686 0-2.108-.125-3.1043-.362l38.4714-43.9669c2.7414-3.133 7.5036-3.4505 10.6367-.7091 3.133 2.7414 3.4505 7.5036.7091 10.637z" fill="#ef7bb5"/><path clip-rule="evenodd" d="m138.482 102.252c-3.654 1.996-4.999 6.575-3.003 10.229l47.074 86.196c1.996 3.654 6.575 4.998 10.229 3.002 3.654-1.995 4.998-6.574 3.002-10.228l-47.074-86.196c-1.995-3.654-6.575-4.998-10.228-3.003z" fill="#bd5f00" fill-rule="evenodd"/><path d="m180.034 162.61-31.324-57.355c-1.995-3.654-6.575-4.998-10.229-3.003-3.653 1.996-4.998 6.575-3.002 10.229l31.284 57.283z" fill="#e60023"/></svg>