<svg width="375" height="375" viewBox="0 0 375 375" fill="none" xmlns="http://www.w3.org/2000/svg">
<g clip-path="url(#clip0_2583_241159)">
<rect width="375" height="375" fill="#6B246B"/>
<path fill-rule="evenodd" clip-rule="evenodd" d="M156.464 26.4747C182.328 38.9683 167.864 59.9412 153.127 81.3092C149.581 86.4505 146.019 91.6148 143 96.6893C128.007 121.886 131.3 146.124 157 139.255C300.903 100.79 353 177.725 353 231.858C353 347.917 258.98 442 143 442C27.0202 442 -67 347.917 -67 231.858C-67 120.61 19.4123 29.5517 128.703 22.1962C138.172 21.559 147.917 22.3462 156.464 26.4747ZM73.448 92.6606C86.2522 92.6606 96.632 103.047 96.632 115.86C96.632 128.673 86.2522 139.06 73.448 139.06C60.6438 139.06 50.264 128.673 50.264 115.86C50.264 103.047 60.6438 92.6606 73.448 92.6606Z" fill="url(#paint0_linear_2583_241159)"/>
<circle cx="295" cy="218" r="32" transform="rotate(180 295 218)" fill="#E60023"/>
<circle cx="263" cy="226" r="32" transform="rotate(180 263 226)" fill="#FDBF81"/>
<circle cx="32" cy="32" r="32" transform="matrix(1 0 0 -1 -21 350)" fill="#EF7BB5"/>
<circle cx="32" cy="32" r="32" transform="matrix(1 0 0 -1 59 380)" fill="#FDA64F"/>
<circle cx="32" cy="32" r="32" transform="matrix(1 0 0 -1 73 334)" fill="#BD5F00"/>
<circle cx="32" cy="32" r="32" transform="matrix(1 0 0 -1 91 412)" fill="#ED96ED"/>
<circle cx="32" cy="32" r="32" transform="matrix(1 0 0 -1 179 390)" fill="#FA5F2E"/>
<circle cx="32" cy="32" r="32" transform="matrix(1 0 0 -1 211 358)" fill="#5E1741"/>
<circle cx="-5" cy="212" r="32" transform="rotate(180 -5 212)" fill="#C856C8"/>
<circle cx="35" cy="238" r="32" transform="rotate(180 35 238)" fill="#8F2459"/>
<path d="M3.37185 242.894C3.127 241.298 3 239.664 3 238C3 223.224 13.0154 210.786 26.6282 207.106C26.873 208.702 27 210.336 27 212C27 226.777 16.9846 239.214 3.37185 242.894Z" fill="#4C1A4C"/>
<path d="M118.212 331.154C112.569 322.058 102.492 316 91 316C86.2889 316 81.8156 317.018 77.7881 318.846C83.4313 327.942 93.5082 334 105 334C109.711 334 114.184 332.982 118.212 331.154Z" fill="#804000"/>
<path d="M123 348C105.327 348 91 362.327 91 380C108.673 380 123 365.673 123 348Z" fill="#C82376"/>
<path d="M243 358C243 340.327 228.673 326 211 326C211 343.673 225.327 358 243 358Z" fill="#E60023"/>
<path d="M272.356 195.39C266.575 201.179 263 209.172 263 218C263 232.418 272.536 244.609 285.644 248.611C291.425 242.821 295 234.828 295 226C295 211.582 285.464 199.391 272.356 195.39Z" fill="#FA5F2E"/>
<path d="M175.684 219.749L328.57 34.8713L315.938 24.2036L165.88 212.191C168.158 212.586 170.367 213.59 172.26 215.227C173.748 216.513 174.893 218.061 175.684 219.749Z" fill="url(#paint1_linear_2583_241159)"/>
<path d="M166.307 212.273C168.434 212.714 170.486 213.693 172.261 215.227C173.749 216.514 174.894 218.062 175.685 219.75L216.741 170.102L207.184 160.448L165.881 212.192C166.023 212.216 166.165 212.243 166.307 212.273Z" fill="#C856C8"/>
<path d="M173.848 234.497C178.607 228.727 177.897 220.099 172.26 215.227C166.624 210.355 158.197 211.082 153.437 216.852C149.904 221.136 139 243.152 139 243.152L145.679 250C157.081 249.608 166.666 243.203 173.848 234.497Z" fill="#5C2E00"/>
</g>
<defs>
<linearGradient id="paint0_linear_2583_241159" x1="162" y1="442" x2="162" y2="22.0001" gradientUnits="userSpaceOnUse">
<stop stop-color="white" stop-opacity="0.8"/>
<stop offset="1" stop-color="#F8BEF8"/>
</linearGradient>
<linearGradient id="paint1_linear_2583_241159" x1="362.254" y1="-10.4626" x2="148.013" y2="243.239" gradientUnits="userSpaceOnUse">
<stop offset="0.158053" stop-color="#BD5F00"/>
<stop offset="1" stop-color="#E68800"/>
</linearGradient>
<clipPath id="clip0_2583_241159">
<rect width="375" height="375" fill="white"/>
</clipPath>
</defs>
</svg>
