<svg xmlns="http://www.w3.org/2000/svg" width="375" height="375" fill="none" viewBox="0 0 375 375"><g clip-path="url(#a)"><path fill="#fedded" d="M0 0h375v375H0z"/><path fill="url(#b)" d="m355.863 239.737-45.25 32.223 26.364 11.871 1.913.86-.895 2.684q-1.023-.23-2.045-.46l-35.245-7.899L107.01 416.951l-6.561-9.213 68.819-49.009 5.324-47.396.306-2.725q1.413.047 2.827.096.059 1.37.116 2.741l1.716 39.956 169.744-120.876z"/><path fill="url(#c)" d="M225.643 197.99 180.951-29.337c-1.491-7.582-8.845-12.52-16.427-11.03a14 14 0 0 0-9.45 6.79l-2.859 5.006a110.82 110.82 0 0 0-12.506 76.335l5.116 26.018a58.2 58.2 0 0 0 7.692 19.527l65.981 106.086z"/><path fill="url(#d)" d="M225.643 197.99 180.951-29.337c-1.491-7.582-8.845-12.52-16.427-11.03a14 14 0 0 0-9.45 6.79l-2.859 5.006a110.82 110.82 0 0 0-12.506 76.335l5.116 26.018a58.2 58.2 0 0 0 7.692 19.527l65.981 106.086z"/><path fill="url(#e)" d="M225.643 197.99 180.951-29.337c-1.491-7.582-8.845-12.52-16.427-11.03a14 14 0 0 0-9.45 6.79l-2.859 5.006a110.82 110.82 0 0 0-12.506 76.335l5.116 26.018a58.2 58.2 0 0 0 7.692 19.527l65.981 106.086z"/><path fill="url(#f)" d="M187.302 118.115c-4.016-9.499-14.695-14.12-24.277-10.765l-.035-21.038a136.7 136.7 0 0 0-13.549-59.108l-10-20.756a113 113 0 0 0-.539 3.227l8.84 18.347a134.8 134.8 0 0 1 13.363 58.293l.034 20.856 1.465 2.356c8.905-3.76 19.19.4 22.962 9.321l33.969 80.343 1.89-.371z"/><path fill="url(#g)" d="M179.66 39.608a69.54 69.54 0 0 0-37.538-44.432q-.27.916-.525 1.837a67.65 67.65 0 0 1 36.246 43.099l43.896 158.646 1.855-.365z"/><path fill="url(#h)" d="M181.461 24.919a113.35 113.35 0 0 1-15.506-65.491q-.713.066-1.43.206c-.162.032-.322.072-.482.11a115.23 115.23 0 0 0 15.794 66.134l9.905 16.748 1.622-.96z"/><path fill="url(#i)" d="M180.951-29.337c-1.181-6.006-6.041-10.35-11.779-11.156l53.002 239.165 3.469-.682z"/><path fill="url(#j)" d="M228.518 193.897 124.399-32.915c-3.379-7.36-11.739-11.017-19.437-8.502a15.94 15.94 0 0 0-10.97 15.95l3.267 65.19a188.52 188.52 0 0 0 47.178 115.58l2.085 2.354a60.33 60.33 0 0 0 25.735 17.111z"/><path fill="url(#k)" d="M228.518 193.897 124.399-32.915c-3.379-7.36-11.739-11.017-19.437-8.502a15.94 15.94 0 0 0-10.97 15.95l3.267 65.19a188.52 188.52 0 0 0 47.178 115.58l2.085 2.354a60.33 60.33 0 0 0 25.735 17.111z"/><path fill="url(#l)" d="M228.518 193.897 124.399-32.915c-3.379-7.36-11.739-11.017-19.437-8.502a15.94 15.94 0 0 0-10.97 15.95l3.267 65.19a188.52 188.52 0 0 0 47.178 115.58l2.085 2.354a60.33 60.33 0 0 0 25.735 17.111z"/><path fill="url(#m)" d="M197.699 151.884a44.3 44.3 0 0 1-40.073-19.019l-2.787-4.046c-9.301-13.497-24.829-20.802-40.637-19.909q.424.926.86 1.849c14.901-.586 29.451 6.399 38.224 19.131l2.788 4.044a46.19 46.19 0 0 0 41.776 19.83l6.253-.509-.153-1.879z"/><path fill="url(#n)" d="M197.531 137.622a35.23 35.23 0 0 1-32.099-19.211l-21.251-41.638c-9.027-17.686-27.654-26.838-45.925-24.957q.108.936.226 1.872c17.515-1.79 35.367 6.987 44.02 23.941l21.25 41.639a37.12 37.12 0 0 0 33.818 20.239z"/><path fill="url(#o)" d="M207.159 162.206a41.46 41.46 0 0 1-33.829-.159l-7.461-3.377a46.2 46.2 0 0 0-21.995-4.009q.281.322.562.643l1.037 1.17a44.3 44.3 0 0 1 19.619 3.915l7.461 3.376a43.34 43.34 0 0 0 35.366.164z"/><path fill="url(#p)" d="M176.409 85.031a22.41 22.41 0 0 1-20.249-13.094L123.809 1.154c-5.38-11.77-19.457-14.516-28.895-8.236l.112 2.241c8.512-6.523 22.022-4.264 27.069 6.778l32.352 70.785a24.3 24.3 0 0 0 21.951 14.196z"/><path fill="url(#q)" d="M124.4-32.913a15.9 15.9 0 0 0-7.835-7.832l3.724 8.593 94.417 217.877 1.768 4.079 12.044 4.093z"/><path fill="#9270d7" d="M156.13 230.973c2.051-1.432 4.561-1.963 7.005-1.43 2.441.53 4.619 2.079 6.022 4.262s1.909 4.808 1.377 7.25c-.531 2.443-2.055 4.505-4.209 5.777l-6.758 3.993L37.93 322.719l-6.759 3.993a3.56 3.56 0 0 1-2.62.377 3.52 3.52 0 0 1-2.155-1.509 3.52 3.52 0 0 1-.477-2.589 3.56 3.56 0 0 1 1.43-2.226l6.438-4.49 115.904-80.812z"/><path fill="#5c3ba0" d="M198.601 164.007a60.34 60.34 0 0 1 60.12 29.649l-40.279 23.252 25.233 43.709c.172.297.422.541.722.707l43.845 24.208-3.467 2.393-42.201-23.3a5.67 5.67 0 0 1-2.163-2.123l-25.235-43.707-8.13 4.693 11.361 43.169c.085.323.256.617.491.853l38.979 38.981-3.155 2.176-38.491-38.49a5.65 5.65 0 0 1-1.469-2.56l-11.1-42.175-6.985 4.033 6.738 24.358a5.7 5.7 0 0 1 .197 1.804l-2.725 51.763c-.023.438.109.87.37 1.222l18.127 24.435-3.104 2.141-18.051-24.329a5.66 5.66 0 0 1-1.107-3.668l2.725-51.761a1.9 1.9 0 0 0-.066-.602l-6.477-23.415-39.075 22.56a60.32 60.32 0 0 1-6.025-45.777 60.3 60.3 0 0 1 10.411-21.112 60.3 60.3 0 0 1 39.986-23.087M45.695 318.13l-3.498 2.065-4.35-6.749 3.33-2.323zM70.174 303.661l-3.498 2.067-5.509-8.544 3.333-2.323zM94.65 289.194l-3.495 2.065-6.665-10.335 3.33-2.324zM119.13 274.725l-3.499 2.067-7.819-12.129 3.333-2.323zM143.608 260.258l-3.496 2.065-8.977-13.922 3.332-2.323z"/><path fill="#5c3ba0" d="M276.063 167.52c6.486-.854 10.372 5.893 8.679 12.212l-1.325 4.947c-1.887 7.039-9.123 11.218-16.163 9.332l-4.949-1.326c-6.319-1.693-10.218-8.432-6.236-13.622a30.18 30.18 0 0 1 19.994-11.543"/><path fill="#e60023" d="m221.263 335.587-3.071 2.187-6.74-9.086 3.069-2.187zM259.643 308.256l-3.115 2.217-8.11-8.11 3.116-2.219zM290.106 286.563l-3.406 2.425-10.982-6.065 3.406-2.423z"/><path fill="url(#r)" d="m200.973 183.668-246.451-39.319a15.94 15.94 0 0 0-10.686 29.426L-.13 207.248a188.52 188.52 0 0 0 122.324 24.927l3.115-.427a60.3 60.3 0 0 0 28.519-11.906z"/><path fill="url(#s)" d="m200.973 183.668-246.451-39.319a15.94 15.94 0 0 0-10.686 29.426L-.13 207.248a188.52 188.52 0 0 0 122.324 24.927l3.115-.427a60.3 60.3 0 0 0 28.519-11.906z"/><path fill="url(#t)" d="m200.973 183.668-246.451-39.319a15.94 15.94 0 0 0-10.686 29.426L-.13 207.248a188.52 188.52 0 0 0 122.324 24.927l3.115-.427a60.3 60.3 0 0 0 28.519-11.906z"/><path fill="url(#u)" d="M148.92 185.977a44.3 44.3 0 0 1-38.067 22.771l-4.912.073c-16.39.242-31.087 9.101-39.12 22.746q1.007.16 2.016.311c7.785-12.72 21.672-20.943 37.133-21.172l4.91-.073a46.19 46.19 0 0 0 39.687-23.738l3.048-5.483-1.648-.916z"/><path fill="url(#v)" d="M136.964 178.199a35.24 35.24 0 0 1-33.799 16.033l-46.43-5.441c-19.722-2.311-37.674 8.101-46.254 24.342q.84.43 1.683.851c8.235-15.562 25.446-25.537 44.351-23.322l46.43 5.443a37.12 37.12 0 0 0 35.609-16.892z"/><path fill="url(#w)" d="M162.756 183.84a41.46 41.46 0 0 1-18.912 28.047l-6.951 4.332a46.2 46.2 0 0 0-15.546 16.068q.423-.054.848-.111l1.548-.213a44.3 44.3 0 0 1 14.147-14.144l6.951-4.331a43.35 43.35 0 0 0 19.771-29.324z"/><path fill="url(#x)" d="M81.496 166.57a22.41 22.41 0 0 1-22.132 9.572l-76.834-12.389c-12.777-2.06-22.876 8.124-22.891 19.461l1.926 1.151c-.7-10.701 8.68-20.684 20.665-18.752l76.835 12.39a24.3 24.3 0 0 0 23.994-10.377z"/><path fill="url(#y)" d="M-45.477 144.348a15.9 15.9 0 0 0-10.863 2.169q4.608.836 9.215 1.674l233.633 42.428 4.374.794 10.091-7.745z"/><path fill="#bd5f00" d="M251.721 165.377c8.33 0 15.082 6.752 15.082 15.082s-6.752 15.082-15.082 15.082c-8.329 0-15.082-6.752-15.082-15.082s6.753-15.082 15.082-15.082M281.885 150.295c8.33 0 15.082 6.753 15.082 15.082s-6.752 15.082-15.082 15.082c-8.329 0-15.082-6.752-15.082-15.082 0-8.329 6.753-15.082 15.082-15.082"/><path fill="#2f1e52" d="M254.549 172.918a8.483 8.483 0 1 1 .001 16.967 8.483 8.483 0 0 1-.001-16.967M280.943 159.721a8.484 8.484 0 0 1 8.483 8.484 8.484 8.484 0 1 1-8.483-8.484"/><path fill="url(#z)" d="M206.258 175.572-22.71 28.946c-9.157-5.864-21.334-3.195-27.198 5.962a19.7 19.7 0 0 0-2.643 14.874l1.078 4.868A132.04 132.04 0 0 0 6.24 137.306l21.887 14.016a60.3 60.3 0 0 0 23.04 8.772l149.723 23.86z"/><path fill="url(#A)" d="M206.258 175.572-22.71 28.946c-9.157-5.864-21.334-3.195-27.198 5.962a19.7 19.7 0 0 0-2.643 14.874l1.078 4.868A132.04 132.04 0 0 0 6.24 137.306l21.887 14.016a60.3 60.3 0 0 0 23.04 8.772l149.723 23.86z"/><path fill="url(#B)" d="M206.258 175.572-22.71 28.946c-9.157-5.864-21.334-3.195-27.198 5.962a19.7 19.7 0 0 0-2.643 14.874l1.078 4.868A132.04 132.04 0 0 0 6.24 137.306l21.887 14.016a60.3 60.3 0 0 0 23.04 8.772l149.723 23.86z"/><path fill="url(#C)" d="M106.87 147.535c-13.426-4.652-28.099 1.681-34.004 14.437l-18.77-18.959a136.7 136.7 0 0 0-59.612-35.264l-26.304-7.51q.837 1.232 1.702 2.445l24.087 6.877a134.8 134.8 0 0 1 58.786 34.779l18.82 19.007 2.571.409c5.185-12.542 19.258-18.891 32.107-14.438l95.604 33.127 1.045-1.632z"/><path fill="url(#D)" d="M35.37 89.697a86.5 86.5 0 0 0-74.992-2.524q.436.838.885 1.669a84.61 84.61 0 0 1 73.231 2.527l169.019 88.49 1.021-1.594z"/><path fill="url(#E)" d="M20.587 73.208a119.2 119.2 0 0 1-69.207-40.08q-.603.747-1.142 1.565a121.1 121.1 0 0 0 70.007 40.37l23.016 4.255.342-1.853z"/><path fill="url(#F)" d="M-22.71 28.945c-5.969-3.822-13.219-4.016-19.169-1.154L204.352 178.55l1.906-2.977z"/></g><defs><radialGradient id="c" cx="0" cy="0" r="1" gradientTransform="rotate(258.878 159.492 .8)scale(198.913 182.768)" gradientUnits="userSpaceOnUse"><stop offset=".399" stop-color="#d4c4f7"/><stop offset="1" stop-color="#fff" stop-opacity=".5"/></radialGradient><radialGradient id="d" cx="0" cy="0" r="1" gradientTransform="matrix(-43.8158 -3.93777 -3.69537 78.1039 197.195 98.588)" gradientUnits="userSpaceOnUse"><stop stop-color="#83c3fc"/><stop offset="1" stop-color="#fde2fd" stop-opacity="0"/></radialGradient><radialGradient id="e" cx="0" cy="0" r="1" gradientTransform="matrix(-48.0376 -119.781 -109.272 48.1351 226.719 180.818)" gradientUnits="userSpaceOnUse"><stop offset=".1" stop-color="#79d8ec"/><stop offset=".25" stop-color="#70e6c8"/><stop offset=".35" stop-color="#e9de63"/><stop offset=".55" stop-color="#83c3fc" stop-opacity=".5"/><stop offset="1" stop-color="#fde2fd" stop-opacity="0"/></radialGradient><radialGradient id="j" cx="0" cy="0" r="1" gradientTransform="rotate(241.977 160.88 24.087)scale(245.94)" gradientUnits="userSpaceOnUse"><stop offset=".1" stop-color="#b497ed"/><stop offset=".7" stop-color="#fde2fd"/><stop offset="1" stop-color="#fff" stop-opacity=".75"/></radialGradient><radialGradient id="k" cx="0" cy="0" r="1" gradientTransform="rotate(-95.03 166.098 4.482)scale(120.957)" gradientUnits="userSpaceOnUse"><stop offset=".15" stop-color="#ef7bb5"/><stop offset=".5" stop-color="#fda64f"/><stop offset="1" stop-color="#d4c4f7" stop-opacity="0"/></radialGradient><radialGradient id="l" cx="0" cy="0" r="1" gradientTransform="rotate(191.179 102.756 52.053)scale(67.4773)" gradientUnits="userSpaceOnUse"><stop offset=".1" stop-color="#70e6c8"/><stop offset=".45" stop-color="#fed872"/><stop offset="1" stop-color="#fde2fd" stop-opacity="0"/></radialGradient><radialGradient id="m" cx="0" cy="0" r="1" gradientTransform="matrix(-81.8688 37.5506 37.5819 82.0219 197.242 131.129)" gradientUnits="userSpaceOnUse"><stop stop-color="#dd73dd"/><stop offset="1" stop-color="#b497ed" stop-opacity=".25"/></radialGradient><radialGradient id="n" cx="0" cy="0" r="1" gradientTransform="matrix(-81.8688 37.5506 37.5819 82.0219 197.242 131.129)" gradientUnits="userSpaceOnUse"><stop stop-color="#dd73dd"/><stop offset="1" stop-color="#b497ed" stop-opacity=".25"/></radialGradient><radialGradient id="o" cx="0" cy="0" r="1" gradientTransform="matrix(-81.8688 37.5506 37.5819 82.0219 197.242 131.129)" gradientUnits="userSpaceOnUse"><stop stop-color="#dd73dd"/><stop offset="1" stop-color="#b497ed" stop-opacity=".25"/></radialGradient><radialGradient id="p" cx="0" cy="0" r="1" gradientTransform="matrix(-81.8688 37.5506 37.5819 82.0219 197.242 131.129)" gradientUnits="userSpaceOnUse"><stop stop-color="#dd73dd"/><stop offset="1" stop-color="#b497ed" stop-opacity=".25"/></radialGradient><radialGradient id="r" cx="0" cy="0" r="1" gradientTransform="rotate(185.699 94.558 88.321)scale(245.94)" gradientUnits="userSpaceOnUse"><stop offset=".1" stop-color="#b497ed"/><stop offset=".7" stop-color="#fde2fd"/><stop offset="1" stop-color="#fff" stop-opacity=".75"/></radialGradient><radialGradient id="s" cx="0" cy="0" r="1" gradientTransform="rotate(208.692 103.542 87.573)scale(120.957)" gradientUnits="userSpaceOnUse"><stop offset=".15" stop-color="#ef7bb5"/><stop offset=".5" stop-color="#fda64f"/><stop offset="1" stop-color="#d4c4f7" stop-opacity="0"/></radialGradient><radialGradient id="t" cx="0" cy="0" r="1" gradientTransform="rotate(134.901 25.274 112.19)scale(67.4773)" gradientUnits="userSpaceOnUse"><stop offset=".1" stop-color="#70e6c8"/><stop offset=".45" stop-color="#fed872"/><stop offset="1" stop-color="#fde2fd" stop-opacity="0"/></radialGradient><radialGradient id="u" cx="0" cy="0" r="1" gradientTransform="matrix(-14.2189 88.9403 89.085 14.2779 131.403 174.835)" gradientUnits="userSpaceOnUse"><stop stop-color="#dd73dd"/><stop offset="1" stop-color="#b497ed" stop-opacity=".25"/></radialGradient><radialGradient id="v" cx="0" cy="0" r="1" gradientTransform="matrix(-14.2189 88.9403 89.085 14.2779 131.403 174.835)" gradientUnits="userSpaceOnUse"><stop stop-color="#dd73dd"/><stop offset="1" stop-color="#b497ed" stop-opacity=".25"/></radialGradient><radialGradient id="w" cx="0" cy="0" r="1" gradientTransform="matrix(-14.2189 88.9403 89.085 14.2779 131.403 174.835)" gradientUnits="userSpaceOnUse"><stop stop-color="#dd73dd"/><stop offset="1" stop-color="#b497ed" stop-opacity=".25"/></radialGradient><radialGradient id="x" cx="0" cy="0" r="1" gradientTransform="matrix(-14.2189 88.9403 89.085 14.2779 131.403 174.835)" gradientUnits="userSpaceOnUse"><stop stop-color="#dd73dd"/><stop offset="1" stop-color="#b497ed" stop-opacity=".25"/></radialGradient><radialGradient id="z" cx="0" cy="0" r="1" gradientTransform="rotate(212.635 95.546 68.382)scale(236.087 249.813)" gradientUnits="userSpaceOnUse"><stop offset=".399" stop-color="#d4c4f7"/><stop offset="1" stop-color="#fff" stop-opacity=".5"/></radialGradient><radialGradient id="A" cx="0" cy="0" r="1" gradientTransform="matrix(-43.4403 40.7293 62.1081 70.1122 96.846 119.689)" gradientUnits="userSpaceOnUse"><stop stop-color="#83c3fc"/><stop offset="1" stop-color="#fde2fd" stop-opacity="0"/></radialGradient><radialGradient id="B" cx="0" cy="0" r="1" gradientTransform="matrix(-144.447 -53.4997 -59.7379 150.842 192.845 159.891)" gradientUnits="userSpaceOnUse"><stop offset=".1" stop-color="#79d8ec"/><stop offset=".25" stop-color="#70e6c8"/><stop offset=".35" stop-color="#e9de63"/><stop offset=".55" stop-color="#83c3fc" stop-opacity=".5"/><stop offset="1" stop-color="#fde2fd" stop-opacity="0"/></radialGradient><linearGradient id="b" x1="280.943" x2="161.229" y1="297.344" y2="386.893" gradientUnits="userSpaceOnUse"><stop stop-color="#fda64f"/><stop offset="1" stop-color="#bd5f00"/></linearGradient><linearGradient id="f" x1="222.991" x2="143.151" y1="198.512" y2="-35.545" gradientUnits="userSpaceOnUse"><stop stop-color="#9270d7"/><stop offset="1" stop-color="#b497ed" stop-opacity=".25"/></linearGradient><linearGradient id="g" x1="222.991" x2="143.151" y1="198.512" y2="-35.545" gradientUnits="userSpaceOnUse"><stop stop-color="#9270d7"/><stop offset="1" stop-color="#b497ed" stop-opacity=".25"/></linearGradient><linearGradient id="h" x1="222.991" x2="143.151" y1="198.512" y2="-35.545" gradientUnits="userSpaceOnUse"><stop stop-color="#9270d7"/><stop offset="1" stop-color="#b497ed" stop-opacity=".25"/></linearGradient><linearGradient id="i" x1="221.028" x2="173.786" y1="198.898" y2="-41.401" gradientUnits="userSpaceOnUse"><stop stop-color="#2086df"/><stop offset="1" stop-color="#f8bef8"/></linearGradient><linearGradient id="q" x1="212.571" x2="132.513" y1="199.107" y2="-45.955" gradientUnits="userSpaceOnUse"><stop stop-color="#5c3ba0"/><stop offset="1" stop-color="#b497ed"/></linearGradient><linearGradient id="y" x1="196.453" x2="-51.819" y1="199.824" y2="130.36" gradientUnits="userSpaceOnUse"><stop stop-color="#5c3ba0"/><stop offset="1" stop-color="#b497ed"/></linearGradient><linearGradient id="C" x1="204.087" x2="-60.634" y1="178.963" y2="50.827" gradientUnits="userSpaceOnUse"><stop stop-color="#9270d7"/><stop offset="1" stop-color="#b497ed" stop-opacity=".25"/></linearGradient><linearGradient id="D" x1="204.087" x2="-60.634" y1="178.963" y2="50.827" gradientUnits="userSpaceOnUse"><stop stop-color="#9270d7"/><stop offset="1" stop-color="#b497ed" stop-opacity=".25"/></linearGradient><linearGradient id="E" x1="204.087" x2="-60.634" y1="178.963" y2="50.827" gradientUnits="userSpaceOnUse"><stop stop-color="#9270d7"/><stop offset="1" stop-color="#b497ed" stop-opacity=".25"/></linearGradient><linearGradient id="F" x1="203.733" x2="-39.353" y1="179.516" y2="23.848" gradientUnits="userSpaceOnUse"><stop stop-color="#2086df"/><stop offset="1" stop-color="#f8bef8"/></linearGradient><clipPath id="a"><path fill="#fff" d="M0 0h375v375H0z"/></clipPath></defs></svg>