<svg xmlns="http://www.w3.org/2000/svg" width="375" height="375" fill="none" viewBox="0 0 375 375"><g clip-path="url(#a)"><path fill="#bfe4ea" d="M0 0h375v375H0z"/><path fill="url(#b)" d="M354.291 84.013a69 69 0 0 1 5.843 1.846 68 68 0 0 1 9.348 4.238 67.6 67.6 0 0 1 11.667 8.085q.628.54 1.242 1.096a68 68 0 0 1 4.115 4.051 68.6 68.6 0 0 1 12.922 19.832 69 69 0 0 1 2.291 6.157 68 68 0 0 1 2.174 8.813 68 68 0 0 1 1.036 11.641 68 68 0 0 1-.623 9.343 69 69 0 0 1-1.721 8.544l-1.449 5.407a61 61 0 0 1-.47 1.666 66 66 0 0 1-2.638 7.298 69 69 0 0 1-1.061 2.364 73 73 0 0 1-1.55 3.096 78 78 0 0 1-1.698 3.036 83 83 0 0 1-3.313 5.164q-.503.724-1.022 1.441c-4.813 6.646-10.671 12.804-17.238 18.496-4.059 3.518-8.388 6.861-12.913 10.027-7.369 5.155-15.253 9.849-23.311 14.099q-1.275.671-2.555 1.327c-7.783 3.999-15.694 7.591-23.435 10.79q-1.284.529-2.561 1.045a400 400 0 0 1-23.397 8.592q-1.622.54-3.205 1.053c-21.639 7.019-37.433 10.261-37.511 10.277-.043-.038-2.918-2.592-7.612-7.149a362 362 0 0 1-6.429-6.384l-.483-.49q-.4-.408-.808-.827-.48-.49-.971-.994l-.45-.466a447 447 0 0 1-3.331-3.479 447 447 0 0 1-3.358-3.589l-.597-.644a438 438 0 0 1-3.415-3.75q-.382-.424-.767-.852-1.047-1.168-2.11-2.373l-.036-.041a410 410 0 0 1-8.647-10.122l-.233-.28a409 409 0 0 1-2.111-2.583l-.167-.207a296 296 0 0 1-1.142-1.419 358.31 358.31 0 0 1-5.68-7.271 331 331 0 0 1-7.836-10.739 286 286 0 0 1-2.885-4.207 276 276 0 0 1-4.969-7.645 270 270 0 0 1-1.743-2.821l-.345-.571q-.838-1.385-1.657-2.78-.66-1.129-1.308-2.263a215.088 215.088 0 0 1-3.434-6.233 197 197 0 0 1-2.651-5.189q-.21-.428-.417-.857a184 184 0 0 1-2.058-4.374q-.59-1.303-1.155-2.609-.577-1.329-1.129-2.659a152 152 0 0 1-3.333-8.847 131 131 0 0 1-1.387-4.336 118 118 0 0 1-1.822-6.736 114 114 0 0 1-.982-4.541q-.208-1.076-.392-2.148a93.834 93.834 0 0 1-.751-5.27 89 89 0 0 1-.33-3.541 79 79 0 0 1-.086-10.437q.054-.913.13-1.824.215-2.537.613-5.047a67 67 0 0 1 1.433-6.749l1.449-5.407q.15-.558.309-1.111l.099-.345a68 68 0 0 1 2.516-7.15l.093-.222q.464-1.11.966-2.193l.072-.157q.491-1.055 1.015-2.087l.147-.29q.252-.49.509-.974l.087-.162a58 58 0 0 1 .602-1.098q.565-1.005 1.16-1.987l.133-.218.194-.313a25.2 25.2 0 0 0 12.427 7.694c13.516 3.62 27.408-4.4 31.029-17.915a25.3 25.3 0 0 0 .86-7.191 16.9 16.9 0 0 0 4.859 2.166c9.01 2.414 18.271-2.933 20.686-11.943.357-1.335.543-2.675.574-3.998q.352.065.703.135l.24.046q.279.056.558.115l.207.042.504.11a52 52 0 0 1 .718.161l.421.099.392.093.396.099q.215.052.428.107.372.096.742.194l.915.252a68.3 68.3 0 0 1 31.2 18.973 68.3 68.3 0 0 1 12.204 18.091l3.874 8.383 7.547-5.322a68.3 68.3 0 0 1 22.853-10.459 68.3 68.3 0 0 1 34.186.301"/><path fill="url(#c)" d="m402.539 167.648-1.448 5.407c-19.126 71.377-157.878 99.77-157.878 99.77L289.66 99.483l7.547-5.323a68.3 68.3 0 0 1 57.039-10.157c36.434 9.762 58.056 47.212 48.293 83.645"/><path fill="url(#d)" d="M289.51 34.963c4.895.343 9.917 2.912 13.283 7.093 4.016 4.85 5.625 11.936 3.942 18.286q-.25.999-.517 1.995c-4.626 17.263-12.6 33.63-17.858 50.723 26.774 6.155 53.77-6.024 67.333-28.654a70 70 0 0 1 1.97.604l.104.034a64 64 0 0 1-8.356 11.197c3.241 2.295 8.35 2.464 14.498.414 2.951-.983 6.078-2.462 9.246-4.393q.986.622 1.946 1.278c-3.58 2.264-7.145 3.992-10.525 5.12-6.501 2.166-12.598 2.184-16.644-.883-12.292 12.332-29.325 19.406-47.19 18.967a194.9 194.9 0 0 1 54.002 27.7c13.114-12.228 30.673-16.98 47.242-14.259q.34 1.121.643 2.254c-16.11-2.954-33.307 1.474-46.157 13.282a193.8 193.8 0 0 1 39.83 40.044l-.091.185a72 72 0 0 1-.793 1.542l-.198.366a191.6 191.6 0 0 0-40.295-40.657l-.121.12-.81-.81c-20.006-14.704-42.55-25.286-66.258-31.374q-.305 1.037-.595 2.081a22917 22917 0 0 0-12.356 44.723c21.618 6.17 41.404 18.871 57.558 37.583 6.957-3.277 15.948-1.03 24.836 4.838 4.669 3.083 9.385 7.209 13.885 12.196q-.804.682-1.622 1.355c-4.375-4.839-8.938-8.825-13.427-11.788-8.433-5.568-16.341-7.383-22.249-4.923 7.068 8.456 13.41 18.092 18.871 28.86q-.892.57-1.791 1.132c-17.901-35.408-45.369-58.291-76.622-67.217q-2.787 10.124-5.568 20.247l-6.173 22.51c22.794 6.66 39.401 24.542 45.395 45.976q-.988.402-1.971.793c-5.747-20.842-21.85-38.252-43.983-44.732l-15.272 55.686-2.23 8.129c-.748.164-1.149.249-1.164.252l-.881-.803 2.134-8.151 6.59-25.187c-6.454-1.096-13.805 2.702-20.67 10.443a62 62 0 0 0-4.912 6.362q-.737-.766-1.493-1.561a64 64 0 0 1 4.825-6.202c7.082-7.985 15.204-12.485 22.786-11.092l13.43-51.327q2.903-11.121 5.802-22.244c-31.535-7.934-66.78-1.878-100.005 19.823q-.498-.937-.985-1.878c33.613-21.895 69.394-28.078 101.523-19.988 3.9-14.966 7.791-29.934 11.661-44.908q.258-1.002.502-2.009c-26.567-6.199-54.478-6.793-81.829-1.27l.167.045c-5.842 21.799-22.196 37.972-42.147 44.531q-.335-1.004-.651-2.009c19.003-6.25 34.632-21.521 40.495-42.125a192.3 192.3 0 0 0-45.409 15.878 82 82 0 0 1-.071-2.319c38.139-18.723 79.805-23.862 119.159-16.982-21.578-10.852-35.213-33.004-35.412-56.94l.154.031.236.051.534.118.312.07q.441.103.882.212c.434 26.415 17.773 50.49 44.098 58.511 3.995-17.433 5.274-35.595 9.9-52.86q.266-.995.549-1.986c.852-2.884.759-6.063-.557-9.158-1.117-2.615-3.122-5.1-6.104-6.833z"/><path fill="url(#e)" d="M104.926 237.852a8.446 8.446 0 0 1 9.554 7.167l6.334 44.336a8.446 8.446 0 0 1-9.33 9.583l4.759 14.276a8.446 8.446 0 0 1-16.024 5.342l-17.262-51.789a8.445 8.445 0 0 0-8.012-5.775h-.988a8.445 8.445 0 0 0-8.012 5.775l-17.263 51.789a8.446 8.446 0 0 1-16.023-5.342l17.263-51.788a25.335 25.335 0 0 1 24.035-17.324h.988a25.335 25.335 0 0 1 24.035 17.324l1.368 4.105-2.588-18.124a8.446 8.446 0 0 1 7.166-9.555"/><path fill="#526ae0" d="M201.126 193.431q1.214 0 2.404.097c1.047.085 1.819.985 1.819 2.035v12.494c0 1.457-1.457 2.481-2.906 2.331a13 13 0 0 0-1.317-.067c-6.996 0-12.668 5.672-12.668 12.668s5.672 12.668 12.668 12.668 12.668-5.672 12.668-12.668q0-.667-.067-1.317c-.15-1.449.874-2.905 2.331-2.906h12.494c1.05 0 1.949.773 2.034 1.82q.098 1.189.098 2.403c0 16.324-13.234 29.557-29.558 29.557a25.26 25.26 0 0 1-7.42 17.916c-8.123 8.123-20.39 9.575-29.997 4.359a29.5 29.5 0 0 1 1.526 9.394c0 2.165-.236 4.275-.678 6.308l10.355-2.405c13.276-3.084 26.615 4.888 30.185 18.042l8.691 32.022 6.382 22.664a4.224 4.224 0 0 0 4.707 3.03l1.268-.196c4.607-.708 8.761 2.856 8.761 7.517 0 2.1-1.702 3.803-3.802 3.803h-18.21a8.45 8.45 0 0 1-8.305-6.233l-15.793-58.183a8.445 8.445 0 0 0-10.06-6.014l-21.131 4.909 10.134 51.589a3.49 3.49 0 0 0 4.047 2.761c4.284-.779 8.228 2.511 8.228 6.865v.576a3.73 3.73 0 0 1-3.73 3.73h-15.717a8.446 8.446 0 0 1-8.286-6.813l-10.831-54.98a29.8 29.8 0 0 1-5.773.566c-3.629 0-7.105-.656-10.317-1.852l9.654 49.147a3.49 3.49 0 0 0 4.048 2.761c4.283-.779 8.227 2.511 8.227 6.865v.576a3.73 3.73 0 0 1-3.729 3.73h-15.718a8.445 8.445 0 0 1-8.285-6.813l-12.134-61.599a1.055 1.055 0 0 1 1.036-1.259h6.536c-5.476-5.365-8.876-12.842-8.876-21.114.001-16.324 13.234-29.557 29.558-29.557 4.344 0 8.469.937 12.185 2.62-3.403-9.026-1.473-19.605 5.792-26.869a25.26 25.26 0 0 1 17.915-7.42l.009-.763c.405-15.971 13.479-28.795 29.548-28.795M49.779 306.998c.83-.554 1.893.247 1.59 1.198l-19.382 60.92a8.445 8.445 0 0 1-8.048 5.883H11.42a3.473 3.473 0 0 1-3.474-3.473v-.524a6.346 6.346 0 0 1 5.448-6.281 3.17 3.17 0 0 0 2.562-2.138l14.158-42.476zm53.837 0c.83-.554 1.894.247 1.592 1.198l-19.384 60.92a8.445 8.445 0 0 1-8.048 5.883H65.257a3.473 3.473 0 0 1-3.474-3.473v-.524a6.346 6.346 0 0 1 5.448-6.281 3.17 3.17 0 0 0 2.562-2.138l14.159-42.476z"/><path fill="url(#f)" d="M12.834 309.685c8.937-21.226 31.066-33.755 53.865-30.498l22.806 3.258c15.591 2.228 27.171 15.58 27.171 31.328 0 15.749-11.58 29.101-27.17 31.328l-22.807 3.258c-22.8 3.257-44.928-9.271-53.865-30.498l-1.031-2.449a4.22 4.22 0 0 1 0-3.277z"/><path fill="url(#g)" d="M121.884 197.056c-.262-9.961 3.696-20.205 10.872-27.752q.595-.63 1.218-1.237c.798-.79 1.858-1.206 2.975-1.124s2.198.656 2.98 1.561c.782.906 1.192 2.06 1.109 3.175-.081 1.118-.648 2.106-1.546 2.78q-.558.412-1.099.849c-6.523 5.211-11.106 13.166-12.08 21.938q-.084.728-.136 1.463a2.14 2.14 0 0 1-.685 1.396c-.396.37-.903.577-1.427.577a2.1 2.1 0 0 1-1.426-.577 2.13 2.13 0 0 1-.685-1.396q-.052-.825-.07-1.653"/><path fill="url(#h)" d="M118.787 200.821c.035 1.026.111 2.036.225 3.053 1.788 18.542 18.271 33.492 35.926 33.886.97.04 1.927.042 2.895.008.004 0 .009-.704.012-1.056.003-.284.007-.755.009-1.146.002-.401.002-.689.002-.965s0-.564-.002-.965c-.002-.391-.006-.862-.009-1.146-.003-.352-.006-1.056-.01-1.056a31 31 0 0 1-2.389-.198c-14.491-1.53-25.986-14.56-26.121-28.164a29 29 0 0 1 .018-2.251 4.95 4.95 0 0 0-1.441-3.732c-.989-.99-2.38-1.547-3.837-1.547-1.456 0-2.848.557-3.837 1.547a4.96 4.96 0 0 0-1.441 3.732"/><path fill="url(#i)" d="M227.06 302.232c9.961.262 20.204-3.697 27.751-10.872a41 41 0 0 0 1.237-1.219c.79-.797 1.207-1.857 1.124-2.975-.081-1.116-.655-2.197-1.561-2.979s-2.059-1.192-3.175-1.109c-1.118.081-2.106.648-2.779 1.546q-.413.558-.85 1.099c-5.21 6.523-13.166 11.106-21.937 12.08q-.729.084-1.464.136a2.14 2.14 0 0 0-1.396.685 2.1 2.1 0 0 0-.577 1.426c0 .524.207 1.031.577 1.427.37.395.873.649 1.396.685.552.035 1.1.058 1.654.07"/><path fill="url(#j)" d="M223.295 305.328a39 39 0 0 1-3.054-.225c-18.541-1.788-33.491-18.271-33.885-35.926a37 37 0 0 1-.008-2.895c0-.004.703-.008 1.055-.012l1.147-.009c.4-.002.689-.002.965-.002s.564 0 .965.002l1.146.009c.352.003 1.055.007 1.055.01.036.805.102 1.595.198 2.39 1.53 14.49 14.561 25.985 28.164 26.12a29 29 0 0 0 2.252-.018c1.4-.057 2.742.45 3.732 1.441.99.989 1.546 2.381 1.546 3.837s-.556 2.848-1.546 3.837a4.95 4.95 0 0 1-3.732 1.441"/><path fill="#1c2554" d="M194.793 250.435c5.83 0 10.556 4.727 10.556 10.557s-4.726 10.555-10.556 10.556-10.557-4.726-10.557-10.556 4.727-10.557 10.557-10.557m-31.669-31.669c5.83.001 10.556 4.727 10.556 10.557s-4.726 10.555-10.556 10.556-10.556-4.726-10.557-10.556c0-5.83 4.727-10.557 10.557-10.557"/><path fill="#13434e" d="M201.126 193.431q1.369 0 2.706.122c1.047.096 1.811 1.005 1.798 2.057l-.152 12.493c-.018 1.453-1.479 2.459-2.923 2.297a13 13 0 0 0-1.429-.079 12.64 12.64 0 0 0-9.858 4.717q-.428-.583-.855-1.169a300 300 0 0 1-8.919-12.974 29.45 29.45 0 0 1 19.632-7.464"/></g><defs><linearGradient id="b" x1="168.712" x2="259.779" y1="61.608" y2="219.339" gradientUnits="userSpaceOnUse"><stop stop-color="#e68800"/><stop offset="1" stop-color="#d7cb42"/></linearGradient><linearGradient id="e" x1="80.785" x2="112.454" y1="255.714" y2="334.886" gradientUnits="userSpaceOnUse"><stop stop-color="#526ae0"/><stop offset="1" stop-color="#2a3fa7"/></linearGradient><linearGradient id="f" x1="106.12" x2="11.113" y1="317.996" y2="317.996" gradientUnits="userSpaceOnUse"><stop stop-color="#526ae0"/><stop offset="1" stop-color="#9baaf3"/></linearGradient><linearGradient id="g" x1="120.899" x2="138.844" y1="205.043" y2="169.152" gradientUnits="userSpaceOnUse"><stop stop-color="#768aea"/><stop offset="1" stop-color="#e60023"/></linearGradient><linearGradient id="h" x1="151.512" x2="124.065" y1="235.657" y2="200.821" gradientUnits="userSpaceOnUse"><stop stop-color="#526ae0"/><stop offset="1" stop-color="#768aea"/></linearGradient><linearGradient id="i" x1="219.072" x2="254.964" y1="303.217" y2="285.271" gradientUnits="userSpaceOnUse"><stop stop-color="#768aea"/><stop offset="1" stop-color="#e60023"/></linearGradient><linearGradient id="j" x1="188.459" x2="223.295" y1="272.604" y2="300.05" gradientUnits="userSpaceOnUse"><stop stop-color="#526ae0"/><stop offset="1" stop-color="#768aea"/></linearGradient><radialGradient id="c" cx="0" cy="0" r="1" gradientTransform="rotate(45 16.548 400.532)scale(136.521)" gradientUnits="userSpaceOnUse"><stop stop-color="#e68800"/><stop offset="1" stop-color="#d7cb42"/></radialGradient><radialGradient id="d" cx="0" cy="0" r="1" gradientTransform="rotate(105 98.755 166.961)scale(205.85 481.088)" gradientUnits="userSpaceOnUse"><stop stop-color="#bd5f00"/><stop offset="1" stop-color="#d7cb42"/></radialGradient><clipPath id="a"><path fill="#fff" d="M0 0h375v375H0z"/></clipPath></defs></svg>