<svg width="375" height="375" viewBox="0 0 375 375" fill="none" xmlns="http://www.w3.org/2000/svg">
<rect width="375" height="375" fill="#D5E5B5"/>
<path d="M85.0598 84.0311C85.0598 104.332 91.3797 115.984 100.785 131.158C113.144 151.097 147.101 173.753 164.348 184.426C168.865 187.221 168.865 193.998 164.348 196.794C147.101 207.467 113.144 230.122 100.785 250.062C91.3797 265.235 85.0598 276.888 85.0598 297.188L85.0596 309.203C85.0593 325.444 85.059 341.685 85.059 357.927H66.2793V363.049C66.2793 369.649 71.63 375 78.2305 375H296.767C303.368 375 308.718 369.649 308.718 363.049V357.927H289.939C289.939 341.685 289.938 325.444 289.938 309.203L289.938 297.188C289.938 276.888 283.618 265.235 274.213 250.062C261.854 230.122 227.897 207.467 210.65 196.794C206.133 193.998 206.133 187.221 210.65 184.426C227.897 173.753 261.854 151.097 274.213 131.158C283.618 115.984 289.938 104.332 289.938 84.0311L289.939 42.0732H308.718V36.9512C308.718 30.3507 303.368 25 296.767 25H78.2305C71.63 25 66.2793 30.3507 66.2793 36.9512V42.0732H85.059L85.0598 84.0311Z" fill="url(#paint0_radial_2583_240069)"/>
<path d="M155.06 149.634C155.06 157.178 148.945 163.293 141.401 163.293C133.858 163.293 127.743 157.178 127.743 149.634C127.743 142.091 133.858 135.976 141.401 135.976C148.945 135.976 155.06 142.091 155.06 149.634Z" fill="#8DE296"/>
<path d="M177.255 166.707C177.255 174.251 171.14 180.366 163.596 180.366C156.053 180.366 149.938 174.251 149.938 166.707C149.938 159.164 156.053 153.049 163.596 153.049C171.14 153.049 177.255 159.164 177.255 166.707Z" fill="#9FC157"/>
<path d="M201.157 188.902C201.157 196.446 195.042 202.561 187.499 202.561C179.955 202.561 173.84 196.446 173.84 188.902C173.84 181.359 179.955 175.244 187.499 175.244C195.042 175.244 201.157 181.359 201.157 188.902Z" fill="#187486"/>
<path d="M202.865 175.244C202.865 182.787 196.75 188.902 189.206 188.902C181.663 188.902 175.548 182.787 175.548 175.244C175.548 167.7 181.663 161.585 189.206 161.585C196.75 161.585 202.865 167.7 202.865 175.244Z" fill="#4D6813"/>
<path d="M176.643 180.612C179.139 177.349 183.073 175.244 187.499 175.244C193.136 175.244 197.976 178.659 200.062 183.534C197.566 186.797 193.632 188.902 189.206 188.902C183.568 188.902 178.729 185.487 176.643 180.612Z" fill="#1C2554"/>
<path d="M228.474 165C228.474 172.543 222.359 178.659 214.816 178.659C207.272 178.659 201.157 172.543 201.157 165C201.157 157.457 207.272 151.341 214.816 151.341C222.359 151.341 228.474 157.457 228.474 165Z" fill="#66CC71"/>
<path d="M201.157 257.195C201.157 264.739 195.042 270.854 187.499 270.854C179.955 270.854 173.84 264.739 173.84 257.195C173.84 249.652 179.955 243.537 187.499 243.537C195.042 243.537 201.157 249.652 201.157 257.195Z" fill="#E60023"/>
<path d="M134.572 131.707C134.572 139.251 128.457 145.366 120.913 145.366C113.37 145.366 107.255 139.251 107.255 131.707C107.255 124.164 113.37 118.049 120.913 118.049C128.457 118.049 134.572 124.164 134.572 131.707Z" fill="#FD865E"/>
<path d="M168.718 141.098C168.718 148.641 162.603 154.756 155.06 154.756C147.516 154.756 141.401 148.641 141.401 141.098C141.401 133.554 147.516 127.439 155.06 127.439C162.603 127.439 168.718 133.554 168.718 141.098Z" fill="#45C5DE"/>
<path d="M154.081 154.722C146.994 154.22 141.401 148.312 141.401 141.098C141.401 139.3 141.749 137.583 142.38 136.01C149.467 136.512 155.06 142.42 155.06 149.634C155.06 151.432 154.712 153.149 154.081 154.722Z" fill="#2AA788"/>
<path d="M204.572 147.927C204.572 155.47 198.457 161.585 190.913 161.585C183.37 161.585 177.255 155.47 177.255 147.927C177.255 140.383 183.37 134.268 190.913 134.268C198.457 134.268 204.572 140.383 204.572 147.927Z" fill="#E60023"/>
<path d="M194.328 132.561C194.328 140.104 188.213 146.22 180.67 146.22C173.126 146.22 167.011 140.104 167.011 132.561C167.011 125.018 173.126 118.902 180.67 118.902C188.213 118.902 194.328 125.018 194.328 132.561Z" fill="#F7C545"/>
<path d="M194.168 134.658C193.159 141.206 187.5 146.22 180.669 146.22C179.548 146.22 178.458 146.084 177.415 145.829C178.424 139.282 184.083 134.268 190.913 134.268C192.035 134.268 193.125 134.403 194.168 134.658Z" fill="#FA5F2E"/>
<path d="M231.889 144.512C231.889 152.056 225.774 158.171 218.23 158.171C210.687 158.171 204.572 152.056 204.572 144.512C204.572 136.969 210.687 130.854 218.23 130.854C225.774 130.854 231.889 136.969 231.889 144.512Z" fill="#D7CB42"/>
<path d="M225.275 156.216C223.218 157.457 220.808 158.171 218.23 158.171C214.032 158.171 210.276 156.277 207.771 153.296C209.827 152.055 212.238 151.341 214.816 151.341C219.014 151.341 222.77 153.236 225.275 156.216Z" fill="#9FC157"/>
<path d="M254.084 142.805C254.084 150.348 247.969 156.463 240.426 156.463C232.882 156.463 226.767 150.348 226.767 142.805C226.767 135.261 232.882 129.146 240.426 129.146C247.969 129.146 254.084 135.261 254.084 142.805Z" fill="#988C1B"/>
<path d="M229.936 151.554C227.958 149.184 226.767 146.134 226.767 142.805C226.767 140.229 227.48 137.82 228.72 135.763C230.698 138.133 231.889 141.184 231.889 144.512C231.889 147.088 231.176 149.498 229.936 151.554Z" fill="#4D6813"/>
<path d="M264.328 129.146C264.328 136.69 258.213 142.805 250.67 142.805C243.126 142.805 237.011 136.69 237.011 129.146C237.011 121.603 243.126 115.488 250.67 115.488C258.213 115.488 264.328 121.603 264.328 129.146Z" fill="#FDA64F"/>
<path d="M237.018 129.575C238.107 129.295 239.249 129.146 240.426 129.146C247.826 129.146 253.851 135.031 254.078 142.376C252.988 142.656 251.846 142.805 250.67 142.805C243.27 142.805 237.244 136.92 237.018 129.575Z" fill="#7E5207"/>
<path d="M238.718 303.293C238.718 310.836 232.603 316.951 225.06 316.951C217.516 316.951 211.401 310.836 211.401 303.293C211.401 295.749 217.516 289.634 225.06 289.634C232.603 289.634 238.718 295.749 238.718 303.293Z" fill="#83C3FC"/>
<path d="M279.694 308.415C279.694 315.958 273.579 322.073 266.035 322.073C258.492 322.073 252.377 315.958 252.377 308.415C252.377 300.871 258.492 294.756 266.035 294.756C273.579 294.756 279.694 300.871 279.694 308.415Z" fill="#70E6C8"/>
<path d="M262.621 316.951C262.621 324.495 256.506 330.61 248.962 330.61C241.419 330.61 235.304 324.495 235.304 316.951C235.304 309.408 241.419 303.293 248.962 303.293C256.506 303.293 262.621 309.408 262.621 316.951Z" fill="#1A5866"/>
<path d="M261.871 321.427C256.364 319.665 252.377 314.506 252.377 308.415C252.377 306.847 252.641 305.341 253.127 303.939C258.633 305.7 262.621 310.86 262.621 316.951C262.621 318.519 262.357 320.024 261.871 321.427Z" fill="#38A845"/>
<path d="M197.743 327.195C197.743 334.739 191.627 340.854 184.084 340.854C176.541 340.854 170.426 334.739 170.426 327.195C170.426 319.652 176.541 313.537 184.084 313.537C191.627 313.537 197.743 319.652 197.743 327.195Z" fill="#F7C545"/>
<path d="M211.401 351.098C211.401 358.641 205.286 364.756 197.743 364.756C190.199 364.756 184.084 358.641 184.084 351.098C184.084 343.554 190.199 337.439 197.743 337.439C205.286 337.439 211.401 343.554 211.401 351.098Z" fill="#66CC71"/>
<path d="M225.06 327.195C225.06 334.739 218.945 340.854 211.401 340.854C203.858 340.854 197.743 334.739 197.743 327.195C197.743 319.652 203.858 313.537 211.401 313.537C218.945 313.537 225.06 319.652 225.06 327.195Z" fill="#187486"/>
<path d="M228.474 361.341C228.474 368.885 222.359 375 214.816 375C207.272 375 201.157 368.885 201.157 361.341C201.157 353.798 207.272 347.683 214.816 347.683C222.359 347.683 228.474 353.798 228.474 361.341Z" fill="#45C5DE"/>
<path d="M201.466 364.242C207.2 362.621 211.401 357.35 211.401 351.098C211.401 350.102 211.295 349.131 211.092 348.197C205.359 349.817 201.157 355.089 201.157 361.341C201.157 362.337 201.264 363.307 201.466 364.242Z" fill="#187486"/>
<path d="M242.133 337.439C242.133 344.982 236.018 351.098 228.474 351.098C220.931 351.098 214.816 344.982 214.816 337.439C214.816 329.896 220.931 323.781 228.474 323.781C236.018 323.781 242.133 329.896 242.133 337.439Z" fill="#79D8EC"/>
<path d="M215.125 340.34C220.858 338.719 225.06 333.448 225.06 327.195C225.06 326.2 224.953 325.229 224.751 324.294C219.017 325.915 214.816 331.186 214.816 337.439C214.816 338.434 214.922 339.405 215.125 340.34Z" fill="#1A5866"/>
<path d="M283.109 335.732C283.109 343.275 276.993 349.39 269.45 349.39C261.907 349.39 255.792 343.275 255.792 335.732C255.792 328.188 261.907 322.073 269.45 322.073C276.993 322.073 283.109 328.188 283.109 335.732Z" fill="#59AAF3"/>
<path d="M255.791 361.341C255.791 368.885 249.676 375 242.133 375C234.59 375 228.474 368.885 228.474 361.341C228.474 353.798 234.59 347.683 242.133 347.683C249.676 347.683 255.791 353.798 255.791 361.341Z" fill="#526AE0"/>
<path d="M272.865 361.341C272.865 368.885 266.75 375 259.206 375C251.663 375 245.548 368.885 245.548 361.341C245.548 353.798 251.663 347.683 259.206 347.683C266.75 347.683 272.865 353.798 272.865 361.341Z" fill="#1C2554"/>
<path d="M250.67 372.004C253.792 369.501 255.792 365.655 255.792 361.342C255.792 357.028 253.792 353.182 250.67 350.679C247.547 353.182 245.548 357.028 245.548 361.342C245.548 365.655 247.547 369.501 250.67 372.004Z" fill="#2A3FA7"/>
<path d="M185.791 361.341C185.791 368.885 179.676 375 172.133 375C164.59 375 158.474 368.885 158.474 361.341C158.474 353.798 164.59 347.683 172.133 347.683C179.676 347.683 185.791 353.798 185.791 361.341Z" fill="#4D6813"/>
<path d="M177.255 334.024C177.255 341.568 171.14 347.683 163.596 347.683C156.053 347.683 149.938 341.568 149.938 334.024C149.938 326.481 156.053 320.366 163.596 320.366C171.14 320.366 177.255 326.481 177.255 334.024Z" fill="#D7CB42"/>
<path d="M176.488 338.548C172.832 336.097 170.426 331.927 170.426 327.195C170.426 325.61 170.696 324.087 171.192 322.671C174.848 325.122 177.255 329.292 177.255 334.024C177.255 335.61 176.985 337.132 176.488 338.548Z" fill="#E68800"/>
<path d="M146.523 361.341C146.523 368.885 140.408 375 132.865 375C125.321 375 119.206 368.885 119.206 361.341C119.206 353.798 125.321 347.683 132.865 347.683C140.408 347.683 146.523 353.798 146.523 361.341Z" fill="#988C1B"/>
<path d="M119.206 361.341C119.206 368.885 113.091 375 105.547 375C98.0041 375 91.8889 368.885 91.8889 361.341C91.8889 353.798 98.0041 347.683 105.547 347.683C113.091 347.683 119.206 353.798 119.206 361.341Z" fill="#DA3C0B"/>
<path d="M158.474 354.512C158.474 362.056 152.359 368.171 144.816 368.171C137.272 368.171 131.157 362.056 131.157 354.512C131.157 346.969 137.272 340.854 144.816 340.854C152.359 340.854 158.474 346.969 158.474 354.512Z" fill="#9FC157"/>
<path d="M144.696 368.17C137.208 368.106 131.157 362.016 131.157 354.512C131.157 352.025 131.822 349.692 132.984 347.683C140.473 347.748 146.523 353.838 146.523 361.341C146.523 363.829 145.858 366.161 144.696 368.17Z" fill="#573905"/>
<path d="M132.865 337.439C132.865 344.982 126.75 351.098 119.206 351.098C111.663 351.098 105.548 344.982 105.548 337.439C105.548 329.896 111.663 323.781 119.206 323.781C126.75 323.781 132.865 329.896 132.865 337.439Z" fill="#FDA64F"/>
<path d="M143.109 332.317C143.109 339.861 136.993 345.976 129.45 345.976C121.907 345.976 115.792 339.861 115.792 332.317C115.792 324.774 121.907 318.659 129.45 318.659C136.993 318.659 143.109 324.774 143.109 332.317Z" fill="#FDD9B4"/>
<path d="M118.782 323.787C118.923 323.783 119.064 323.781 119.206 323.781C126.75 323.781 132.865 329.896 132.865 337.439C132.865 340.666 131.746 343.632 129.874 345.969C129.733 345.973 129.592 345.976 129.45 345.976C121.907 345.976 115.792 339.861 115.792 332.317C115.792 329.09 116.911 326.124 118.782 323.787Z" fill="#FD865E"/>
<path d="M66.2793 357.927H308.718V363.209C308.718 369.721 303.439 375 296.927 375H78.0708C71.5586 375 66.2793 369.721 66.2793 363.209V357.927Z" fill="url(#paint1_linear_2583_240069)"/>
<path d="M66.2793 42.0732H308.718V36.7915C308.718 30.2793 303.439 25 296.927 25H78.0708C71.5586 25 66.2793 30.2793 66.2793 36.7915V42.0732Z" fill="url(#paint2_linear_2583_240069)"/>
<defs>
<radialGradient id="paint0_radial_2583_240069" cx="0" cy="0" r="1" gradientUnits="userSpaceOnUse" gradientTransform="translate(187.499 191.463) rotate(90) scale(183.537 194.494)">
<stop stop-color="white"/>
<stop offset="1" stop-color="#E7F9E9"/>
</radialGradient>
<linearGradient id="paint1_linear_2583_240069" x1="187.499" y1="357.927" x2="187.499" y2="375" gradientUnits="userSpaceOnUse">
<stop stop-color="white" stop-opacity="0.75"/>
<stop offset="1" stop-color="white"/>
</linearGradient>
<linearGradient id="paint2_linear_2583_240069" x1="187.499" y1="42.0732" x2="187.499" y2="25" gradientUnits="userSpaceOnUse">
<stop stop-color="white" stop-opacity="0.75"/>
<stop offset="1" stop-color="white"/>
</linearGradient>
</defs>
</svg>
