<svg fill="none" height="220" viewBox="0 0 220 220" width="220" xmlns="http://www.w3.org/2000/svg" xmlns:xlink="http://www.w3.org/1999/xlink"><clipPath id="a"><path d="m0 0h220v220h-220z"/></clipPath><g clip-path="url(#a)"><circle cx="110" cy="110" fill="#f0e7db" r="95"/><g clip-rule="evenodd" fill-rule="evenodd"><path d="m24.8687 152.21 22.7458 9.419c5.0549-17.179 17.2089-32.214 34.3976-37.399 36.2979-10.95 75.5579 17.022 103.1579 43.867-17.376 22.45-44.585 36.903-75.17 36.903-6.659 0-13.1586-.685-19.4312-1.989 2.785-2.494 4.5375-6.118 4.5375-10.151 0-7.524-6.0993-13.623-13.6232-13.623s-13.6232 6.099-13.6232 13.623c0 .823.073 1.628.2127 2.411-8.4812-4.178-16.2488-9.584-23.0705-15.987.0219-4.888.6343-9.808 1.794-14.601l-15.9272-2.098c-2.2091-3.317-4.2151-6.782-6.0002-10.375zm62.2908 2.051c0 7.524-6.0993 13.623-13.6232 13.623s-13.6232-6.099-13.6232-13.623 6.0993-13.623 13.6232-13.623 13.6232 6.099 13.6232 13.623z" fill="#d7cb42"/><path d="m125.967 19.1567c-2.355 4.0761-6.76 6.8191-11.805 6.8191-7.524 0-13.623-6.0993-13.623-13.6232 0-2.2075.525-4.29231 1.457-6.13647-18.1203 3.51757-34.3388 11.09767-45.0667 25.16627-10.8865 14.2767-11.9206 33.5816-5.9457 50.4633l-39.0062 9.2857 4.8569 12.7276 35.2765-19.0593c6.7901 16.5703 20.4218 30.2793 38.0518 33.6743 66.6834 12.842 130.0124-99.4978 130.0124-99.4978s-22.117-7.5362-50.698-12.0282c-2.484 2.62877-6.003 4.2692-9.904 4.2692-5.059 0-9.474-2.75712-11.824-6.85056-2.886-.22409-5.795-.39891-8.715-.51573.068.55372.104 1.11774.104 1.69 0 7.37249-5.857 13.37719-13.171 13.61579zm-59.4862 61.3117c7.5239 0 13.6232-6.0993 13.6232-13.6232s-6.0993-13.6232-13.6232-13.6232-13.6232 6.0993-13.6232 13.6232 6.0993 13.6232 13.6232 13.6232zm116.9322-43.1401c0 7.5239-6.099 13.6232-13.623 13.6232s-13.623-6.0993-13.623-13.6232 6.099-13.6232 13.623-13.6232 13.623 6.0993 13.623 13.6232z" fill="#fa5f2e"/><path d="m146.757 191.781c-63.0579 25.204-146.464458-73.153-146.464458-73.153s112.016458-63.8993 162.651458-18.6479c4.015 3.5879 7.245 7.7879 9.727 12.3869-.571-.073-1.154-.111-1.745-.111-7.524 0-13.624 6.099-13.624 13.623s6.1 13.623 13.624 13.623c3.025 0 5.82-.986 8.081-2.655.122 3.852-.114 7.733-.694 11.566l40.058 1.751-2.366 13.417-38.241-12.055c-3.538 17.555-14.336 33.591-31.007 40.255zm-13.296-5.733c7.524 0 13.624-6.099 13.624-13.623s-6.1-13.623-13.624-13.623-13.623 6.099-13.623 13.623 6.099 13.623 13.623 13.623zm18.165-79.468c0 7.523-6.1 13.623-13.623 13.623-7.524 0-13.624-6.1-13.624-13.623 0-7.5243 6.1-13.6236 13.624-13.6236 7.523 0 13.623 6.0993 13.623 13.6236z" fill="#e68800"/><path d="m94.5675 190.027c17.5435 6.458 35.5725 8.396 52.1895 1.754 14.121-5.644 24.028-18.013 28.879-32.334-26.72-23.761-61.473-44.989-93.8678-35.217-17.1888 5.185-29.3427 20.22-34.3976 37.399l-3.1355-1.298c9.3443 7.352 19.6896 14.556 30.5338 20.537 1.9248-1.04 4.1285-1.631 6.4703-1.631 6.5525 0 12.0246 4.626 13.3283 10.79zm52.5175-17.602c0 7.524-6.1 13.623-13.624 13.623s-13.623-6.099-13.623-13.623 6.099-13.623 13.623-13.623 13.624 6.099 13.624 13.623zm-60.1695-18.164c0 7.524-6.0993 13.623-13.6231 13.623-7.5239 0-13.6232-6.099-13.6232-13.623s6.0993-13.623 13.6232-13.623c7.5238 0 13.6231 6.099 13.6231 13.623z" fill="#988c1b"/></g><path d="m157.196 95.4759c-26.994-18.4786-67.3247-12.053-100.3369-1.3366 7.5274 12.1997 19.1218 21.6037 33.3033 24.3347 12.4176 2.392 24.7196.442 36.5176-4.315-1.453-2.167-2.301-4.774-2.301-7.579 0-7.5242 6.1-13.6235 13.623-13.6235 5.441 0 10.137 3.1897 12.32 7.8015 2.328-1.6866 4.62-3.4521 6.874-5.2821z" fill="#a13012"/><path d="m114.903 25.9561c3.683-.1975 6.977-1.8574 9.312-4.4093-1.72-4.2947-2.807-8.7961-3.003-13.2237-.165-3.75829-3.347-6.67059-7.105-6.50482s-6.67 3.34685-6.505 7.10513c.251 5.68899 1.54 11.35249 3.589 16.72749l.002.0005c.431.0959.87.1714 1.316.2253.48.058.968.0911 1.462.0979.064.0009.127.0013.191.0013.249 0 .496-.0066.741-.0198z" fill="#ed96ed"/><path d="m111.193 25.6514c.004.0105.008.021.012.0316 4.484 11.7487 12.679 22.3242 21.828 28.6464 3.095 2.1385 7.338 1.3632 9.476-1.7318 2.139-3.095 1.364-7.3376-1.731-9.4761-6.529-4.511-12.922-12.4784-16.563-21.5742-2.491 2.7217-6.073 4.4286-10.053 4.4286-1.02 0-2.013-.112-2.969-.3245z" fill="#da3c0b"/><path d="m109.053 14.6232c-1.567 0-2.838-2.0331-2.838-4.5411 0-2.50793 1.271-4.54104 2.838-4.54104 1.568 0 2.838 2.0331 2.838 4.54104 0 2.508-1.27 4.5411-2.838 4.5411z" fill="#fff"/><path d="m120.406 4.4058c1.567 0 2.838 2.0331 2.838 4.54106 0 2.50794-1.271 4.54104-2.838 4.54104-1.568 0-2.838-2.0331-2.838-4.54104 0-2.50796 1.27-4.54106 2.838-4.54106z" fill="#fff"/><path d="m123.244 8.94686c0-1.25398-.763-2.27053-1.703-2.27053s-1.703 1.01655-1.703 2.27053c0 1.25394.763 2.27054 1.703 2.27054s1.703-1.0166 1.703-2.27054z" fill="#2f1e52"/><path d="m106.215 10.0821c0 1.254.762 2.2706 1.703 2.2706.94 0 1.703-1.0166 1.703-2.2706 0-1.25395-.763-2.27051-1.703-2.27051-.941 0-1.703 1.01656-1.703 2.27051z" fill="#2f1e52"/><path d="m115.012 13.5173c1.874-.2 3.521.6412 3.679 1.879.157 1.2377-1.234 2.4032-3.109 2.6033-1.874.2-3.521-.6412-3.678-1.879-.158-1.2377 1.234-2.4032 3.108-2.6033z" fill="#e60023"/></g></svg>