<svg xmlns="http://www.w3.org/2000/svg" width="375" height="375" fill="none" viewBox="0 0 375 375"><g clip-path="url(#a)"><path fill="#c4e0f8" d="M0 0h375v375H0z"/><g clip-path="url(#b)"><path fill="#526ae0" d="M242.462 188.013c53.255 0 96.71 21.976 99.119 49.56.002.03.027.052.056.052.032 0 .057.026.057.057v66.093c0 54.8-44.424 99.225-99.224 99.225-36.593 0-68.557-19.809-85.76-49.287-.681-1.167-2.185-1.557-3.392-.951a28.2 28.2 0 0 1-12.69 2.988h-.484a28.35 28.35 0 0 1-26.214-17.553L97.606 298.56c-9.18-22.288 7.207-46.76 31.311-46.76 3.794 0 7.457.629 10.885 1.793 1.637.556 3.442-.599 3.442-2.328v-10.69a29 29 0 0 1 0-1.175v-1.725a.05.05 0 0 1 .05-.05.05.05 0 0 0 .05-.045c2.402-27.588 45.859-49.567 99.118-49.567m-113.545 87.412c-7.288 0-12.242 7.399-9.467 14.138l16.325 39.636a4.72 4.72 0 0 0 4.369 2.926h.484a4.726 4.726 0 0 0 4.674-5.413l-6.255-42.538a10.24 10.24 0 0 0-10.13-8.749"/><path fill="url(#c)" d="M155.05 239.987c0-7.755 6.224-17.641 22.73-26.287 15.947-8.353 38.797-13.875 64.682-13.875s48.736 5.522 64.683 13.875c16.506 8.646 22.73 18.532 22.73 26.287 0 7.756-6.224 17.642-22.73 26.288-15.947 8.353-38.797 13.875-64.683 13.875v11.812c54.801 0 99.225-23.27 99.225-51.975s-44.424-51.975-99.225-51.975-99.225 23.27-99.225 51.975 44.425 51.975 99.225 51.975V280.15c-25.885 0-48.735-5.522-64.682-13.875-16.506-8.646-22.73-18.532-22.73-26.288"/><path fill="#c856c8" d="M242.462 188.012c37.78.001 70.627 11.062 87.387 27.337-1.105 30.692-39.805 55.351-87.387 55.351s-86.281-24.659-87.386-55.351c16.759-16.275 49.606-27.336 87.386-27.337"/><ellipse cx="242.462" cy="239.987" fill="url(#d)" rx="87.412" ry="40.163"/><g filter="url(#e)"><path fill="url(#f)" d="M195.212 234.435c0 15.711 47.25 29.177 47.25 29.177s47.25-13.466 47.25-29.177v-1.19c0-8.019-11.405-14.52-25.474-14.52-7.561 0-14.73 1.914-19.57 5.225l-2.206 1.508-2.205-1.508c-4.84-3.311-12.01-5.225-19.57-5.225-14.069 0-25.475 6.501-25.475 14.52z"/></g><path fill="#fa5f2e" d="M-7.962 188.013c-53.256 0-96.711 21.976-99.119 49.56a.056.056 0 0 1-.057.052.06.06 0 0 0-.057.057v66.093c0 54.8 44.425 99.225 99.225 99.225 36.593 0 68.557-19.809 85.76-49.287.68-1.167 2.185-1.557 3.392-.951a28.2 28.2 0 0 0 12.69 2.988h.484a28.35 28.35 0 0 0 26.214-17.553l16.324-39.637c9.18-22.288-7.207-46.76-31.311-46.76a33.8 33.8 0 0 0-10.885 1.793c-1.637.556-3.442-.599-3.442-2.328v-10.69a27 27 0 0 0 0-1.175v-1.725a.05.05 0 0 0-.05-.05.05.05 0 0 1-.05-.045c-2.402-27.588-45.859-49.567-99.118-49.567m113.545 87.412c7.288 0 12.242 7.399 9.467 14.138l-16.325 39.636a4.72 4.72 0 0 1-4.369 2.926h-.484a4.725 4.725 0 0 1-4.674-5.413l6.255-42.538a10.24 10.24 0 0 1 10.13-8.749"/><path fill="url(#g)" d="M79.45 239.987c0-7.755-6.224-17.641-22.73-26.287-15.947-8.353-38.797-13.875-64.683-13.875-25.885 0-48.735 5.522-64.682 13.875-16.506 8.646-22.73 18.532-22.73 26.287 0 7.756 6.224 17.642 22.73 26.288 15.947 8.353 38.797 13.875 64.682 13.875v11.812c-54.8 0-99.225-23.27-99.225-51.975s44.425-51.975 99.225-51.975 99.226 23.27 99.226 51.975-44.425 51.975-99.226 51.975V280.15c25.886 0 48.736-5.522 64.683-13.875 16.506-8.646 22.73-18.532 22.73-26.288"/><path fill="#fda64f" d="M-7.962 188.012c-37.78 0-70.628 11.061-87.388 27.337C-94.244 246.04-55.544 270.7-7.963 270.7s86.282-24.659 87.387-55.351c-16.76-16.275-49.606-27.336-87.386-27.337"/><ellipse cx="87.412" cy="40.163" fill="url(#h)" rx="87.412" ry="40.163" transform="matrix(-1 0 0 1 79.45 199.825)"/><g filter="url(#i)"><path fill="url(#j)" d="M39.288 234.435c0 15.711-47.25 29.177-47.25 29.177s-47.25-13.466-47.25-29.177v-1.19c0-8.019 11.405-14.52 25.474-14.52 7.56 0 14.73 1.914 19.57 5.225l2.205 1.508 2.206-1.508c4.84-3.311 12.01-5.225 19.57-5.225 14.07 0 25.475 6.501 25.475 14.52z"/></g><path fill="#e60023" d="M117.25 253.837c13.704 5 22.777 18.534 22.204 33.107l-.406-2.77a10.24 10.24 0 0 0-10.131-8.749c-7.288 0-12.241 7.399-9.466 14.138l10.574 25.676-9.455 22.956a28.3 28.3 0 0 1-3.32 5.918 28.3 28.3 0 0 1-3.32-5.918l-9.457-22.956 10.576-25.676c2.775-6.739-2.178-14.138-9.466-14.138a10.24 10.24 0 0 0-10.13 8.749l-.407 2.757c-.567-14.569 8.504-28.095 22.204-33.094"/><ellipse cx="-7.963" cy="214" fill="url(#k)" opacity=".8" rx="87.412" ry="56.7"/><ellipse cx="242.462" cy="214" fill="url(#l)" opacity=".8" rx="87.412" ry="56.7"/><ellipse cx="-7.963" cy="104.144" fill="url(#m)" opacity=".8" rx="75.6" ry="53.156"/><ellipse cx="242.462" cy="104.144" fill="url(#n)" opacity=".8" rx="75.6" ry="53.156"/><ellipse cx="-7.962" cy="55.712" fill="url(#o)" opacity=".8" rx="44.888" ry="30.712"/><ellipse cx="242.462" cy="55.712" fill="url(#p)" opacity=".8" rx="44.888" ry="30.712"/><ellipse cx="-7.963" cy="162.025" fill="url(#q)" opacity=".8" rx="99.225" ry="75.6"/><ellipse cx="242.462" cy="162.025" fill="url(#r)" opacity=".8" rx="99.225" ry="75.6"/></g></g><defs><radialGradient id="c" cx="0" cy="0" r="1" gradientTransform="rotate(-90 263.669 21.206)scale(96.8625)" gradientUnits="userSpaceOnUse"><stop stop-color="#59aaf3"/><stop offset="1" stop-color="#526ae0"/></radialGradient><radialGradient id="d" cx="0" cy="0" r="1" gradientTransform="matrix(0 40.1625 -87.4125 0 242.462 239.987)" gradientUnits="userSpaceOnUse"><stop stop-color="#a69377"/><stop offset=".75" stop-color="#804000"/><stop offset="1" stop-color="#5c2e00"/></radialGradient><radialGradient id="g" cx="0" cy="0" r="1" gradientTransform="rotate(-90 142 149.962)scale(95.6812)" gradientUnits="userSpaceOnUse"><stop stop-color="#fca58d"/><stop offset="1" stop-color="#fa5f2e"/></radialGradient><radialGradient id="h" cx="0" cy="0" r="1" gradientTransform="matrix(0 40.1625 -87.4125 0 87.412 40.163)" gradientUnits="userSpaceOnUse"><stop stop-color="#a69377"/><stop offset=".75" stop-color="#804000"/><stop offset="1" stop-color="#5c2e00"/></radialGradient><radialGradient id="k" cx="0" cy="0" r="1" gradientTransform="matrix(-105.815 0 0 -235.614 -7.963 214)" gradientUnits="userSpaceOnUse"><stop offset=".2" stop-color="#fff" stop-opacity="0"/><stop offset=".9" stop-color="#fdebd8"/></radialGradient><radialGradient id="l" cx="0" cy="0" r="1" gradientTransform="matrix(-105.815 0 0 -235.614 242.462 214)" gradientUnits="userSpaceOnUse"><stop offset=".2" stop-color="#fff" stop-opacity="0"/><stop offset=".9" stop-color="#fdebd8"/></radialGradient><radialGradient id="m" cx="0" cy="0" r="1" gradientTransform="matrix(-91.5158 0 0 -220.888 -7.963 104.144)" gradientUnits="userSpaceOnUse"><stop offset=".2" stop-color="#fff" stop-opacity="0"/><stop offset=".9" stop-color="#fdebd8"/></radialGradient><radialGradient id="n" cx="0" cy="0" r="1" gradientTransform="matrix(-91.5158 0 0 -220.888 242.462 104.144)" gradientUnits="userSpaceOnUse"><stop offset=".2" stop-color="#fff" stop-opacity="0"/><stop offset=".9" stop-color="#fdebd8"/></radialGradient><radialGradient id="o" cx="0" cy="0" r="1" gradientTransform="matrix(-54.3375 0 0 -127.624 -7.962 55.712)" gradientUnits="userSpaceOnUse"><stop offset=".2" stop-color="#fff" stop-opacity="0"/><stop offset=".9" stop-color="#fdebd8"/></radialGradient><radialGradient id="p" cx="0" cy="0" r="1" gradientTransform="matrix(-54.3375 0 0 -127.624 242.462 55.712)" gradientUnits="userSpaceOnUse"><stop offset=".2" stop-color="#fff" stop-opacity="0"/><stop offset=".9" stop-color="#fdebd8"/></radialGradient><radialGradient id="q" cx="0" cy="0" r="1" gradientTransform="matrix(-120.114 0 0 -314.152 -7.963 162.025)" gradientUnits="userSpaceOnUse"><stop offset=".2" stop-color="#fff" stop-opacity="0"/><stop offset=".9" stop-color="#fdebd8"/></radialGradient><radialGradient id="r" cx="0" cy="0" r="1" gradientTransform="matrix(-120.114 0 0 -314.152 242.462 162.025)" gradientUnits="userSpaceOnUse"><stop offset=".2" stop-color="#fff" stop-opacity="0"/><stop offset=".9" stop-color="#fdebd8"/></radialGradient><linearGradient id="f" x1="242.462" x2="242.462" y1="218.725" y2="263.612" gradientUnits="userSpaceOnUse"><stop stop-color="#fff"/><stop offset="1" stop-color="#fdd9b4"/></linearGradient><linearGradient id="j" x1="-7.963" x2="-7.963" y1="218.725" y2="263.612" gradientUnits="userSpaceOnUse"><stop stop-color="#fff"/><stop offset="1" stop-color="#fdd9b4"/></linearGradient><clipPath id="a"><path fill="#fff" d="M0 0h375v375H0z"/></clipPath><clipPath id="b"><path fill="#fff" d="M-119 25h472.5v378H-119z"/></clipPath><filter id="e" width="99.225" height="49.612" x="192.85" y="216.362" color-interpolation-filters="sRGB" filterUnits="userSpaceOnUse"><feFlood flood-opacity="0" result="BackgroundImageFix"/><feBlend in="SourceGraphic" in2="BackgroundImageFix" result="shape"/><feGaussianBlur result="effect1_foregroundBlur_2779_9883" stdDeviation="1.181"/></filter><filter id="i" width="99.225" height="49.612" x="-57.575" y="216.362" color-interpolation-filters="sRGB" filterUnits="userSpaceOnUse"><feFlood flood-opacity="0" result="BackgroundImageFix"/><feBlend in="SourceGraphic" in2="BackgroundImageFix" result="shape"/><feGaussianBlur result="effect1_foregroundBlur_2779_9883" stdDeviation="1.181"/></filter></defs></svg>