<svg width="375" height="250" viewBox="0 0 375 250" fill="none" xmlns="http://www.w3.org/2000/svg">
<g clip-path="url(#clip0_2583_241182)">
<rect width="375" height="250" fill="#6B246B"/>
<path fill-rule="evenodd" clip-rule="evenodd" d="M191.598 25.356C210.996 34.7263 200.148 50.4559 189.095 66.4819C186.436 70.3379 183.765 74.2111 181.5 78.017C170.255 96.9145 172.725 115.093 192 109.941C299.928 81.0922 339 138.794 339 179.394C339 266.437 268.485 337 181.5 337C94.5152 337 24 266.437 24 179.394C24 95.9572 88.8093 27.6638 170.777 22.1472C177.879 21.6693 185.188 22.2597 191.598 25.356ZM129.336 74.9955C138.939 74.9955 146.724 82.7856 146.724 92.3952C146.724 102.005 138.939 109.795 129.336 109.795C119.733 109.795 111.948 102.005 111.948 92.3952C111.948 82.7856 119.733 74.9955 129.336 74.9955Z" fill="url(#paint0_linear_2583_241182)"/>
<circle cx="295.5" cy="169" r="24" transform="rotate(180 295.5 169)" fill="#E60023"/>
<circle cx="271.5" cy="175" r="24" transform="rotate(180 271.5 175)" fill="#FDBF81"/>
<circle cx="24" cy="24" r="24" transform="matrix(1 0 0 -1 58.5 268)" fill="#EF7BB5"/>
<circle cx="24" cy="24" r="24" transform="matrix(1 0 0 -1 118.5 290.5)" fill="#FDA64F"/>
<circle cx="24" cy="24" r="24" transform="matrix(1 0 0 -1 129 256)" fill="#BD5F00"/>
<circle cx="24" cy="24" r="24" transform="matrix(1 0 0 -1 232.5 274)" fill="#5E1741"/>
<circle cx="70.5" cy="164.5" r="24" transform="rotate(180 70.5 164.5)" fill="#C856C8"/>
<circle cx="100.5" cy="184" r="24" transform="rotate(180 100.5 184)" fill="#8F2459"/>
<path d="M76.7789 187.67C76.5953 186.474 76.5 185.248 76.5 184C76.5 172.918 84.0116 163.59 94.2211 160.83C94.4047 162.026 94.5 163.252 94.5 164.5C94.5 175.583 86.9884 184.91 76.7789 187.67Z" fill="#4C1A4C"/>
<path d="M162.909 253.865C158.676 247.043 151.119 242.5 142.5 242.5C138.966 242.5 135.611 243.264 132.591 244.635C136.823 251.457 144.381 256 153 256C156.533 256 159.888 255.236 162.909 253.865Z" fill="#804000"/>
<path d="M278.517 152.042C274.181 156.384 271.5 162.379 271.5 169C271.5 179.814 278.652 188.957 288.483 191.958C292.819 187.616 295.5 181.621 295.5 175C295.5 164.187 288.348 155.043 278.517 152.042Z" fill="#FA5F2E"/>
<path d="M206.013 170.312L320.678 31.6538L311.203 23.6531L198.66 164.644C200.369 164.94 202.025 165.693 203.445 166.921C204.561 167.885 205.42 169.046 206.013 170.312Z" fill="url(#paint1_linear_2583_241182)"/>
<path d="M198.98 164.704C200.575 165.035 202.114 165.769 203.445 166.92C204.561 167.885 205.42 169.046 206.013 170.312L236.805 133.076L229.638 125.835L198.66 164.643C198.767 164.662 198.874 164.682 198.98 164.704Z" fill="#C856C8"/>
<path d="M204.636 181.372C208.205 177.045 207.672 170.575 203.445 166.92C199.218 163.266 192.898 163.812 189.328 168.139C186.678 171.352 178.5 187.864 178.5 187.864L183.509 193C192.061 192.706 199.25 187.902 204.636 181.372Z" fill="#5C2E00"/>
</g>
<defs>
<linearGradient id="paint0_linear_2583_241182" x1="195.75" y1="337" x2="195.75" y2="22.0001" gradientUnits="userSpaceOnUse">
<stop stop-color="white" stop-opacity="0.8"/>
<stop offset="1" stop-color="#F8BEF8"/>
</linearGradient>
<linearGradient id="paint1_linear_2583_241182" x1="345.941" y1="-2.3466" x2="185.26" y2="187.929" gradientUnits="userSpaceOnUse">
<stop offset="0.158053" stop-color="#BD5F00"/>
<stop offset="1" stop-color="#E68800"/>
</linearGradient>
<clipPath id="clip0_2583_241182">
<rect width="375" height="250" fill="white"/>
</clipPath>
</defs>
</svg>
