<svg xmlns="http://www.w3.org/2000/svg" width="375" height="250" fill="none" viewBox="0 0 375 250"><path fill="#776f0d" d="M0 0h375v250H0z"/><g clip-path="url(#a)"><path fill="url(#b)" fill-rule="evenodd" d="M187.5 250c67.103 0 121.5-54.397 121.5-121.5S254.603 7 187.5 7 66 61.397 66 128.5 120.397 250 187.5 250m0-11.933c60.512 0 109.567-49.055 109.567-109.567S248.012 18.933 187.5 18.933 77.933 67.988 77.933 128.5 126.988 238.067 187.5 238.067" clip-rule="evenodd"/><path fill="url(#c)" fill-rule="evenodd" d="M187.5 238.067c60.512 0 109.567-49.055 109.567-109.567S248.012 18.933 187.5 18.933 77.933 67.988 77.933 128.5 126.988 238.067 187.5 238.067m0-13.018c53.323 0 96.549-43.226 96.549-96.549S240.823 31.95 187.5 31.95 90.951 75.178 90.951 128.5s43.226 96.549 96.549 96.549" clip-rule="evenodd"/><path fill="url(#d)" d="M109.393 241.321h156.214l-18.442-36.883h-119.33z"/><path fill="#e60023" d="M109.393 241.321h156.214a8.68 8.68 0 0 1-8.678 8.679H118.071a8.68 8.68 0 0 1-8.678-8.679"/><path fill="url(#e)" d="M284.049 128.5c0 53.323-43.226 96.549-96.549 96.549S90.95 181.823 90.95 128.5s43.227-96.55 96.55-96.55 96.549 43.227 96.549 96.55"/><path fill="url(#f)" d="M150.266 182.951c7.875 15.982 27.813 21.324 42.623 11.42l2.533-1.694a29.44 29.44 0 0 1 18.005-4.943l3.02.169c17.658.99 32.32-13.853 31.343-31.729l-.167-3.057a30.35 30.35 0 0 1 4.884-18.227l1.674-2.565c9.783-14.993 4.507-35.177-11.28-43.15l-2.7-1.363a29.43 29.43 0 0 1-13.121-13.284l-1.347-2.733c-7.874-15.983-27.812-21.325-42.622-11.42l-2.533 1.693a29.43 29.43 0 0 1-18.005 4.944l-3.02-.17c-17.658-.99-32.32 13.853-31.343 31.73l.167 3.057a30.35 30.35 0 0 1-4.884 18.227l-1.674 2.564c-9.783 14.993-4.507 35.178 11.28 43.15l2.7 1.364a29.43 29.43 0 0 1 13.121 13.283z"/><path fill="#fa5f2e" d="M247.132 204.438c-16.418 12.91-37.125 20.611-59.632 20.611s-43.214-7.701-59.632-20.611z"/><path fill="url(#g)" d="M246.46 99.147c1.108-17.199-13.036-31.342-30.235-30.234l-2.941.19a28.54 28.54 0 0 1-17.485-4.595l-2.451-1.607c-14.331-9.393-33.788-4.079-41.594 11.36l-1.335 2.64a29.23 29.23 0 0 1-12.89 12.89l-2.641 1.336c-15.439 7.806-20.753 27.263-11.36 41.594l1.607 2.451a28.53 28.53 0 0 1 4.594 17.485l-.189 2.941c-1.108 17.199 13.035 31.343 30.234 30.235l2.942-.19a28.53 28.53 0 0 1 17.485 4.595l2.451 1.606c14.331 9.393 33.788 4.079 41.594-11.36l1.335-2.64a29.23 29.23 0 0 1 12.89-12.89l2.641-1.335c15.438-7.806 20.752-27.263 11.359-41.594l-1.606-2.452a28.54 28.54 0 0 1-4.595-17.484z"/><path fill="#fff" fill-opacity=".8" d="M222.28 78.013h3.038l.79 2.765a14.73 14.73 0 0 0 10.114 10.114l2.765.79v3.038l-2.765.79a14.73 14.73 0 0 0-10.114 10.114l-.79 2.764h-3.038l-.789-2.764a14.73 14.73 0 0 0-10.115-10.115l-2.764-.79v-3.037l2.764-.79a14.73 14.73 0 0 0 10.115-10.114z"/><path fill="#fff" fill-opacity=".15" d="M197.763 155.036h2.17l.564 1.974a10.52 10.52 0 0 0 7.225 7.225l1.974.564v2.17l-1.974.564a10.52 10.52 0 0 0-7.225 7.225l-.564 1.974h-2.17l-.564-1.974a10.52 10.52 0 0 0-7.225-7.225l-1.974-.564v-2.17l1.974-.564a10.52 10.52 0 0 0 7.225-7.225z"/><path fill="#fff" fill-opacity=".3" d="M197.004 57.402h1.519l.395 1.382a7.36 7.36 0 0 0 5.057 5.057l1.382.395v1.519l-1.382.395a7.36 7.36 0 0 0-5.057 5.057l-.395 1.382h-1.519l-.395-1.382a7.36 7.36 0 0 0-5.057-5.057l-1.382-.395v-1.519l1.382-.395a7.36 7.36 0 0 0 5.057-5.057z"/><path fill="#fff" fill-opacity=".65" d="M189.41 101.879h1.519l.395 1.383a7.36 7.36 0 0 0 5.057 5.057l1.382.395v1.519l-1.382.394a7.37 7.37 0 0 0-5.057 5.058l-.395 1.382h-1.519l-.395-1.382a7.37 7.37 0 0 0-5.057-5.058l-1.382-.394v-1.519l1.382-.395a7.36 7.36 0 0 0 5.057-5.057z"/><path fill="#fff" fill-opacity=".15" d="M148.187 109.473h1.519l.395 1.382a7.36 7.36 0 0 0 5.057 5.058l1.382.395v1.518l-1.382.395a7.36 7.36 0 0 0-5.057 5.058l-.395 1.382h-1.519l-.395-1.382a7.36 7.36 0 0 0-5.057-5.058l-1.382-.395v-1.518l1.382-.395a7.36 7.36 0 0 0 5.057-5.058zM252.547 174.562h1.085l.282.988a5.26 5.26 0 0 0 3.612 3.612l.987.282v1.085l-.987.282a5.26 5.26 0 0 0-3.612 3.612l-.282.988h-1.085l-.282-.988a5.26 5.26 0 0 0-3.612-3.612l-.988-.282v-1.085l.988-.282a5.26 5.26 0 0 0 3.612-3.612z"/><path fill="#fff" fill-opacity=".3" d="M119.114 145.272h1.085l.282.988a5.26 5.26 0 0 0 3.612 3.612l.987.282v1.085l-.987.282a5.26 5.26 0 0 0-3.612 3.612l-.282.988h-1.085l-.282-.988a5.26 5.26 0 0 0-3.613-3.612l-.987-.282v-1.085l.987-.282a5.26 5.26 0 0 0 3.613-3.612zM233.02 136.594h1.085l.282.987a5.26 5.26 0 0 0 3.612 3.612l.988.282v1.085l-.988.282a5.26 5.26 0 0 0-3.612 3.613l-.282.987h-1.085l-.282-.987a5.26 5.26 0 0 0-3.612-3.613l-.988-.282v-1.085l.988-.282a5.26 5.26 0 0 0 3.612-3.612zM249.292 113.812h1.085l.282.988a5.26 5.26 0 0 0 3.613 3.612l.987.282v1.085l-.987.282a5.26 5.26 0 0 0-3.613 3.612l-.282.988h-1.085l-.282-.988a5.26 5.26 0 0 0-3.612-3.612l-.987-.282v-1.085l.987-.282a5.26 5.26 0 0 0 3.612-3.612zM133.325 75.844h.868l.226.79a4.21 4.21 0 0 0 2.889 2.89l.79.225v.868l-.79.226a4.21 4.21 0 0 0-2.889 2.89l-.226.79h-.868l-.226-.79a4.21 4.21 0 0 0-2.89-2.89l-.789-.226v-.868l.789-.225a4.21 4.21 0 0 0 2.89-2.89z"/><path fill="#fff" fill-opacity=".15" d="M232.044 53.063h.868l.225.79a4.21 4.21 0 0 0 2.89 2.89l.79.225v.868l-.79.225a4.21 4.21 0 0 0-2.89 2.89l-.225.79h-.868l-.226-.79a4.21 4.21 0 0 0-2.89-2.89l-.79-.225v-.868l.79-.226a4.21 4.21 0 0 0 2.89-2.89z"/></g><defs><linearGradient id="b" x1="187.5" x2="187.5" y1="7" y2="230.473" gradientUnits="userSpaceOnUse"><stop stop-color="#fff" stop-opacity=".3"/><stop offset=".316" stop-color="#fdc4e1"/><stop offset="1" stop-color="#fff" stop-opacity=".15"/></linearGradient><linearGradient id="c" x1="187.5" x2="187.5" y1="18.933" y2="187.08" gradientUnits="userSpaceOnUse"><stop stop-color="#fff" stop-opacity=".8"/><stop offset=".45" stop-color="#fdebd8"/><stop offset="1" stop-color="#fff" stop-opacity=".65"/></linearGradient><linearGradient id="d" x1="187.5" x2="187.5" y1="204.437" y2="251.085" gradientUnits="userSpaceOnUse"><stop stop-color="#fa5f2e"/><stop offset="1" stop-color="#f9a4cf"/></linearGradient><linearGradient id="e" x1="187.5" x2="187.5" y1="31.951" y2="225.049" gradientUnits="userSpaceOnUse"><stop stop-color="#ef7bb5"/><stop offset=".5" stop-color="#fda64f"/><stop offset="1" stop-color="#e9de63"/></linearGradient><radialGradient id="f" cx="0" cy="0" r="1" gradientTransform="rotate(135 74.38 97.27)scale(83.1048)" gradientUnits="userSpaceOnUse"><stop stop-color="#fdebd8"/><stop offset="1" stop-color="#fff" stop-opacity=".15"/></radialGradient><radialGradient id="g" cx="0" cy="0" r="1" gradientTransform="rotate(135 81.656 99.675)scale(111.23)" gradientUnits="userSpaceOnUse"><stop stop-color="#fedded"/><stop offset="1" stop-color="#fff" stop-opacity="0"/></radialGradient><clipPath id="a"><path fill="#fff" d="M66 7h243v243H66z"/></clipPath></defs></svg>