<svg fill="none" height="220" viewBox="0 0 220 220" width="220" xmlns="http://www.w3.org/2000/svg" xmlns:xlink="http://www.w3.org/1999/xlink"><radialGradient id="a" cx="0" cy="0" gradientTransform="matrix(0 113 -113 0 110 115)" gradientUnits="userSpaceOnUse" r="1"><stop offset="0" stop-color="#fda64f"/><stop offset="1" stop-color="#fdd9b4"/></radialGradient><linearGradient id="b" gradientUnits="userSpaceOnUse" x1="110" x2="110" y1="42" y2="188"><stop offset="0" stop-color="#fd865e"/><stop offset="1" stop-color="#fa5f2e"/></linearGradient><linearGradient id="c"><stop offset="0" stop-color="#fff"/><stop offset="1" stop-color="#fde2fd"/></linearGradient><linearGradient id="d" gradientUnits="userSpaceOnUse" x1="197.295" x2="185.736" xlink:href="#c" y1="64.6345" y2="130.63"/><linearGradient id="e" gradientUnits="userSpaceOnUse" x1="200.346" x2="195.946" y1="74.8137" y2="99.975"><stop offset="0" stop-color="#fff"/><stop offset="1" stop-color="#fedded"/></linearGradient><linearGradient id="f" gradientUnits="userSpaceOnUse" x1="135.5" x2="135.5" y1="132" y2="174"><stop offset="0" stop-color="#8de296"/><stop offset="1" stop-color="#5cd6b7"/></linearGradient><linearGradient id="g" gradientUnits="userSpaceOnUse" x1="85" x2="85" xlink:href="#c" y1="123" y2="198.5"/><circle cx="110" cy="110" fill="#efcdf4" r="95"/><path clip-rule="evenodd" d="m110 24.9842 101.175 18.0313-.35 1.969-100.825-17.9687-100.82457 17.9687-.35091-1.969z" fill="#ed96ed" fill-rule="evenodd"/><path d="m6 42h208v146h-208z" fill="url(#a)"/><path d="m6 42v146l8-8v-130z" fill="url(#b)"/><path d="m214 42v146l-8-8v-130z" fill="url(#b)"/><path d="m6 188h208l-8-8h-192z" fill="#fd865e"/><path d="m6 42h208l-8 8h-192z" fill="#fa5f2e"/><path d="m124.871 63 40.568 10.8704-10.87 40.5686-40.569-10.87z" fill="#ffe286"/><path d="m16.2932 104 41.3619 7.293-7.2932 41.362-41.3619-7.293z" fill="#f5ec89"/><path d="m28 64.8704 40.5689-10.8704 10.8704 40.5689-40.5689 10.8701z" fill="#fa5f2e"/><path d="m66 69h42v18.917c0 7.963 1.705 15.834 5 23.083h-42c-3.2951-7.249-5-15.12-5-23.083z" fill="#e9de63"/><path d="m139 105h42v18.917c0 7.963 1.705 15.834 5 23.083h-42c-3.295-7.249-5-15.12-5-23.083z" fill="#dd73dd"/><path d="m217.907 68.269-8.682 49.24-41.225-7.269 8.683-49.24z" fill="url(#d)"/><path d="m0 0h36v36h-36z" fill="#fca58d" transform="matrix(.98480775 .17364818 -.17364818 .98480775 179.116 64.4754)"/><path d="m204.956 96.4483c.228-1.2933.123-2.6323-.31-3.9406-.432-1.3082-1.184-2.5602-2.211-3.6843-1.028-1.124-2.311-2.0983-3.777-2.8671s-3.086-1.3171-4.768-1.6135c-1.681-.2965-3.391-.3353-5.031-.1143-1.641.2211-3.18.6976-4.53 1.4025-1.35.7048-2.484 1.6242-3.339 2.7056-.854 1.0813-1.411 2.3036-1.639 3.5968z" fill="#804000"/><path d="m179.351 91.9334 25.605 4.5149-3.706 9.5007-21.665-3.82z" fill="#fa5f2e"/><path d="m190.05 74.2636c-1.303-.6556-2.891-.2079-3.66 1.0319-.175.2834-.266.5886-.284.8909-.02.3554-.289.717-.641.7734-1.479.2375-2.7 1.4163-2.913 2.9879-.047.3527-.041.7007.014 1.0352.05.3057-.136.6179-.428.7194-1.11.3844-1.996 1.3173-2.271 2.5398-.439 1.9486.84 3.8685 2.807 4.2154l20.35 3.5883c1.967.3468 3.825-1.0201 4.079-3.0012.165-1.2849-.39-2.5025-1.359-3.237-.251-.1901-.33-.5532-.181-.8305.151-.2806.266-.5865.337-.9127.423-1.9425-.854-3.8472-2.812-4.1925-.175-.0307-.24-.2551-.128-.3919.632-.7669.853-1.873.359-2.9074-.738-1.5439-2.946-2.1774-4.631-2.4781-.289-.0516-.595-.1286-.918-.2373-1.2-.4041-1.95-1.0989-2.597-1.6982-.746-.691-1.356-1.2552-2.359-1.101-.002.0003-.003.0022-.002.0036.89 1.4002.218 2.5238-.463 3.1988-.513.5087-1.297.5073-1.942.1827z" fill="url(#e)"/><path d="m204.461 92.0002c-.448-1.1243-1.133-2.1989-2.027-3.1768-1.027-1.1241-2.311-2.0983-3.777-2.8671s-3.086-1.3171-4.767-1.6136c-1.681-.2964-3.391-.3352-5.031-.1142-1.641.221-3.18.6976-4.53 1.4024-1.175.6132-2.186 1.3887-2.991 2.2919.391.2611.841.4475 1.335.5346l20.351 3.5883c.494.0871.981.0662 1.437-.0455z" fill="#fdd9b4"/><circle cx="197" cy="66" fill="#e60023" r="3"/><path d="m112 132h42v18.917c0 7.963 1.705 15.834 5 23.083h-42c-3.295-7.249-5-15.12-5-23.083z" fill="url(#f)"/><path d="m36.8706 144 40.5689 10.87-10.8704 40.569-40.5689-10.87z" fill="#c856c8"/><path d="m64 123h42v42h-42z" fill="url(#g)"/><path d="m72.5881 69 6.8512 25.5688-12.5338 3.3585c-.6008-3.2937-.9055-6.6438-.9055-10.0103v-18.917z" fill="#fda64f"/><path d="m157.098 105-2.529 9.439-15.569-4.171v-5.268z" fill="#f9a4cf"/><path d="m154 147h-10c-2.173-4.78-3.654-9.831-4.411-15h14.411z" fill="#5cd6b7"/><path d="m51.2102 147.843-.8485 4.812-15.0985-2.662 1.6058-5.993z" fill="#f9a4cf"/><path d="m74.7253 165h-10.7253v-13.731l13.4395 3.601z" fill="#ebe2fd"/><circle cx="35" cy="114" fill="#e68800" r="3"/><circle cx="50" cy="66" fill="#e60023" r="3"/><circle cx="87" cy="75" fill="#66cc71" r="3"/><circle cx="144" cy="75.0001" fill="#e68800" r="3"/><circle cx="161" cy="111" fill="#5c3ba0" r="3"/><circle cx="133" cy="138" fill="#207e67" r="3"/><circle cx="85" cy="129" fill="#e60023" r="3"/><g fill="#8f2459"><circle cx="56" cy="155" r="3"/><circle cx="110" cy="25" r="3"/></g></svg>