<svg width="375" height="375" viewBox="0 0 375 375" fill="none" xmlns="http://www.w3.org/2000/svg">
<g clip-path="url(#clip0_2583_240066)">
<rect width="375" height="375" fill="#C4E0F8"/>
<path d="M259.628 54.9787V37H-10.0532V54.9787C-1.30338 54.9787 3.59793 65.063 -1.8079 71.9431L-28.0319 105.319H-28.2085C-46.7432 133.595 -57.0244 166.3 -54.6664 200.029C-51.8243 240.905 -38.4674 281.679 -11.9884 313.595C2.42398 330.964 20.7299 344.987 41.1973 355.223H207.123C311.812 303.428 326.913 189.535 277.351 105.319H277.606L251.382 71.9431C245.977 65.063 250.878 54.9787 259.628 54.9787Z" fill="url(#paint0_linear_2583_240066)"/>
<path d="M-54.6664 200.029C-56.7785 169.818 -48.7506 140.429 -33.7344 114.308H282.338C325.74 197.467 308.131 305.249 207.123 355.223H41.1974C20.7299 344.987 2.42399 330.964 -11.9884 313.595C-38.4674 281.679 -51.8243 240.905 -54.6664 200.029Z" fill="url(#paint1_linear_2583_240066)"/>
<path d="M230.66 322.987C262.251 246.016 267.397 204.323 245.872 160.077L241.022 162.437C261.49 204.512 257.125 244.3 225.67 320.939L230.66 322.987Z" fill="#C4E0F8"/>
<path d="M182.875 324.04L193.662 183.806L199.04 184.22L189.7 305.642C190.101 304.756 190.524 303.851 190.97 302.929C196.735 291.026 206.425 276.23 222.094 264.94L222.871 266.019C226.582 249.461 232.772 232.131 243.086 218.354L247.403 221.587C233.648 239.96 227.459 265.462 224.759 286.655C223.415 297.205 222.947 306.589 222.815 313.334C222.75 316.704 222.768 319.411 222.802 321.27C222.82 322.199 222.841 322.916 222.858 323.398C222.866 323.639 222.873 323.821 222.879 323.941L222.884 324.074L222.886 324.105L222.886 324.112C222.886 324.112 222.886 324.113 220.193 324.247C217.499 324.381 217.499 324.379 217.499 324.379L217.499 324.376L217.499 324.364L217.497 324.323L217.49 324.17C217.487 324.092 217.482 323.992 217.478 323.871L217.467 323.586C217.45 323.077 217.428 322.33 217.41 321.37C217.374 319.45 217.355 316.674 217.423 313.228C217.557 306.34 218.034 296.758 219.408 285.974C219.974 281.531 220.694 276.867 221.61 272.091C208.992 282.279 200.872 294.86 195.825 305.28C193.071 310.966 191.246 315.981 190.112 319.563C189.546 321.353 189.153 322.782 188.903 323.755C188.778 324.242 188.69 324.614 188.633 324.86C188.617 324.93 188.603 324.989 188.592 325.039L188.572 325.132L188.558 325.194L188.556 325.206C188.556 325.206 188.556 325.206 185.915 324.659C183.274 324.113 183.274 324.111 183.274 324.111L183.277 324.1L183.282 324.073L182.875 324.04Z" fill="#C4E0F8"/>
<path d="M163.799 299.619C166.294 309.981 169.51 318.085 173.241 322.508L169.119 325.986C164.529 320.544 161.083 311.382 158.555 300.882C156 290.271 154.29 277.889 153.398 265.661C152.506 253.43 152.426 241.276 153.158 231.11C153.524 226.028 154.095 221.404 154.882 217.493C155.66 213.628 156.684 210.277 158.042 207.861L162.743 210.505C161.797 212.188 160.908 214.89 160.17 218.557C159.441 222.179 158.893 226.565 158.538 231.498C157.827 241.36 157.9 253.249 158.777 265.269C159.654 277.291 161.33 289.368 163.799 299.619Z" fill="#C4E0F8"/>
<path d="M153.071 324.247C155.759 324.469 155.759 324.467 155.759 324.467L155.759 324.464L155.76 324.457L155.761 324.436L155.766 324.371C155.77 324.316 155.775 324.239 155.781 324.142C155.792 323.949 155.805 323.672 155.816 323.321C155.838 322.618 155.849 321.616 155.809 320.378C155.729 317.907 155.445 314.475 154.629 310.61C153.004 302.909 149.21 293.252 140.448 286.19L137.063 290.389C144.508 296.39 147.872 304.712 149.352 311.724C150.089 315.215 150.346 318.323 150.418 320.553C150.454 321.665 150.444 322.554 150.425 323.155C150.416 323.455 150.405 323.683 150.396 323.831C150.392 323.905 150.388 323.958 150.386 323.991L150.383 324.024L150.383 324.027C150.383 324.027 150.383 324.025 153.071 324.247Z" fill="#C4E0F8"/>
<path d="M160.979 223.784C139.707 221.452 123.251 212.36 124.225 203.477C125.199 194.594 143.233 189.283 164.506 191.615C185.778 193.947 202.233 203.038 201.26 211.921C200.869 215.482 197.737 218.469 192.754 220.62L167.584 207.385L174.776 224.239C170.45 224.448 165.798 224.312 160.979 223.784Z" fill="url(#paint2_linear_2583_240066)"/>
<path d="M196.481 255.263C200.949 247.523 214.999 247.27 227.863 254.697C240.726 262.124 247.532 274.418 243.064 282.157C238.941 289.299 226.657 290.066 214.677 284.305L216.712 271.279L204.304 277.376C196.421 270.24 192.97 261.345 196.481 255.263Z" fill="url(#paint3_linear_2583_240066)"/>
<path d="M275.159 144.406C279.182 155.596 267.313 170.107 248.649 176.816C229.985 183.525 211.594 179.892 207.571 168.702C203.949 158.627 213.209 145.86 228.712 138.519L235.904 148.393L235.904 135.669C253.928 129.827 271.268 133.58 275.159 144.406Z" fill="url(#paint4_linear_2583_240066)"/>
<path d="M264.569 235.7C259.654 240.614 247.702 236.63 237.872 226.8C236.239 225.168 234.768 223.476 233.471 221.768L245.244 212.779L229.98 216.375C226.36 209.642 225.733 203.343 228.973 200.103C233.888 195.189 245.84 199.173 255.67 209.002C265.5 218.832 269.484 230.785 264.569 235.7Z" fill="url(#paint5_linear_2583_240066)"/>
<path d="M223.967 185.13C223.392 189.901 210.947 192.324 196.17 190.543C190.883 189.906 186.014 188.817 181.967 187.463L189.159 182.215L174.367 184.013C171.695 182.3 170.24 180.453 170.454 178.68C171.029 173.91 183.474 171.486 198.252 173.267C213.029 175.048 224.542 180.359 223.967 185.13Z" fill="url(#paint6_linear_2583_240066)"/>
<path d="M177.678 280.674C175.492 272.515 159.546 269.699 142.062 274.383C124.577 279.068 112.176 289.48 114.362 297.639C115.727 302.732 122.451 305.743 131.564 306.148L138.755 293.684L142.062 305.568C144.634 305.194 147.288 304.651 149.979 303.93C167.463 299.245 179.864 288.833 177.678 280.674Z" fill="url(#paint7_linear_2583_240066)"/>
<path d="M20.5106 375H229.064C229.064 364.078 220.21 355.223 209.287 355.223H40.2872C29.3649 355.223 20.5106 364.078 20.5106 375Z" fill="white"/>
<path d="M41.1973 355.223C23.7498 346.498 7.87304 335.02 -5.36011 321.064H255.798C242.478 334.159 226.304 345.733 207.123 355.223H41.1973Z" fill="url(#paint8_linear_2583_240066)"/>
<path fill-rule="evenodd" clip-rule="evenodd" d="M74.4467 241.957L88.2128 228.191C90.9101 225.494 92.4255 221.836 92.4255 218.021V191.617H78.0425V206H63.6595V191.617H49.2765V206H34.8936L34.8935 191.617H20.6583V206H5.8813V191.617H-8.25537V217.616C-8.25537 221.668 -6.54592 225.533 -3.54744 228.259L11.5212 241.957V278.524C11.5212 292.45 9.83592 306.324 6.50207 319.845L6.20147 321.064H80.924C76.6289 306.757 74.4467 291.901 74.4467 276.963V241.957ZM42.085 238.362C36.1274 238.362 31.2978 243.191 31.2978 249.149V267.128H52.8723V249.149C52.8723 243.191 48.0427 238.362 42.085 238.362Z" fill="url(#paint9_linear_2583_240066)"/>
<path d="M42.4594 306.017L32.3605 301.304C31.1213 300.725 29.6859 300.745 28.4628 301.356C27.4002 301.888 26.5921 302.819 26.2164 303.946L22.834 314.094C22.5202 315.035 21.6392 315.67 20.6469 315.67C19.5283 315.67 18.571 314.867 18.3766 313.766L16.1997 301.429C16.0785 300.743 15.8148 300.087 15.4281 299.506C14.6581 298.352 13.4413 297.562 12.0721 297.334L10.8848 297.136C9.6337 296.927 8.6255 295.997 8.31788 294.766C8.0713 293.78 8.31029 292.735 8.96115 291.954L11.2424 289.217C12.0176 288.286 12.5728 287.193 12.8664 286.018C13.1643 284.827 13.1854 283.583 12.9281 282.382L10.7628 272.278C10.6719 271.854 10.7281 271.411 10.9221 271.023C11.584 269.699 13.4344 269.598 14.237 270.841L21.223 281.662C22.1665 283.124 24.0394 283.672 25.6217 282.949C26.384 282.601 26.9963 281.991 27.3475 281.23L31.2826 272.704C31.7628 271.664 33.0586 271.298 34.0121 271.934C34.5588 272.298 34.8735 272.923 34.8407 273.579L34.0567 289.259C34.0161 290.073 34.1861 290.883 34.5503 291.611C34.7777 292.066 35.0769 292.481 35.4365 292.841L44.9938 302.398C45.8697 303.274 45.8697 304.694 44.9938 305.57C44.3269 306.237 43.3141 306.415 42.4594 306.017Z" fill="#E60023"/>
<path d="M197.532 203.823C196.155 202.488 194.433 201.203 192.416 199.996L190.905 219.647L192.755 220.62C194.108 220.036 195.325 219.39 196.388 218.688L197.532 203.823Z" fill="#75982A"/>
<path d="M238.94 286.12C240.689 285.149 242.099 283.828 243.064 282.157C244.757 279.224 244.831 275.636 243.57 271.907C242.175 276.485 240.632 281.218 238.94 286.12Z" fill="#9FC157"/>
<path d="M224.639 287.615C224.678 287.296 224.718 286.977 224.759 286.656C225.969 277.156 227.881 266.79 230.86 256.588C229.903 255.929 228.902 255.297 227.863 254.697C227.272 254.356 226.679 254.031 226.085 253.723C222.754 264.764 220.688 275.934 219.408 285.974C219.397 286.06 219.387 286.146 219.376 286.232C221.157 286.838 222.921 287.299 224.639 287.615Z" fill="#9FC157"/>
<path d="M257.125 237.71C258.067 231.437 258.638 225.421 258.836 219.599C258.917 217.215 258.936 214.865 258.893 212.545C257.903 211.345 256.827 210.159 255.671 209.002C254.874 208.206 254.064 207.448 253.244 206.729C253.526 210.861 253.593 215.079 253.446 219.416C253.26 224.848 252.738 230.473 251.875 236.35C253.718 237.064 255.488 237.524 257.125 237.71Z" fill="#BD5F00"/>
<path d="M159.365 272.13C160.285 281.453 161.688 290.592 163.571 298.66C162.006 299.492 160.339 300.279 158.586 301.01C158.576 300.968 158.565 300.925 158.555 300.882C156.462 292.189 154.936 282.308 153.962 272.297C155.829 272.148 157.636 272.093 159.365 272.13Z" fill="#4D6813"/>
</g>
<defs>
<linearGradient id="paint0_linear_2583_240066" x1="54.9616" y1="37" x2="54.9616" y2="256.34" gradientUnits="userSpaceOnUse">
<stop stop-color="white" stop-opacity="0.5"/>
<stop offset="1" stop-color="#C4E0F8"/>
</linearGradient>
<linearGradient id="paint1_linear_2583_240066" x1="124.787" y1="321.963" x2="124.787" y2="114.308" gradientUnits="userSpaceOnUse">
<stop stop-color="white" stop-opacity="0.5"/>
<stop offset="1" stop-color="white" stop-opacity="0.75"/>
</linearGradient>
<linearGradient id="paint2_linear_2583_240066" x1="184.31" y1="191.066" x2="184.31" y2="288.131" gradientUnits="userSpaceOnUse">
<stop stop-color="#9FC157"/>
<stop offset="1" stop-color="#8DE296"/>
</linearGradient>
<linearGradient id="paint3_linear_2583_240066" x1="184.31" y1="191.066" x2="184.31" y2="288.131" gradientUnits="userSpaceOnUse">
<stop stop-color="#9FC157"/>
<stop offset="1" stop-color="#8DE296"/>
</linearGradient>
<linearGradient id="paint4_linear_2583_240066" x1="232.376" y1="237.805" x2="232.376" y2="121.801" gradientUnits="userSpaceOnUse">
<stop stop-color="#BA8221"/>
<stop offset="1" stop-color="#D7CB42"/>
</linearGradient>
<linearGradient id="paint5_linear_2583_240066" x1="232.376" y1="237.805" x2="232.376" y2="121.801" gradientUnits="userSpaceOnUse">
<stop stop-color="#BA8221"/>
<stop offset="1" stop-color="#D7CB42"/>
</linearGradient>
<linearGradient id="paint6_linear_2583_240066" x1="169.05" y1="172.682" x2="169.05" y2="306.148" gradientUnits="userSpaceOnUse">
<stop stop-color="#D7CB42"/>
<stop offset="1" stop-color="#776F0D"/>
</linearGradient>
<linearGradient id="paint7_linear_2583_240066" x1="169.05" y1="172.682" x2="169.05" y2="306.148" gradientUnits="userSpaceOnUse">
<stop stop-color="#D7CB42"/>
<stop offset="1" stop-color="#776F0D"/>
</linearGradient>
<linearGradient id="paint8_linear_2583_240066" x1="123.961" y1="321.064" x2="123.961" y2="355.223" gradientUnits="userSpaceOnUse">
<stop stop-color="#FDC9B9"/>
<stop offset="1" stop-color="#FEE4DC"/>
</linearGradient>
<linearGradient id="paint9_linear_2583_240066" x1="41.0369" y1="191.617" x2="41.0369" y2="321.064" gradientUnits="userSpaceOnUse">
<stop stop-color="#FA5F2E"/>
<stop offset="1" stop-color="#FCA58D"/>
</linearGradient>
<clipPath id="clip0_2583_240066">
<rect width="375" height="375" fill="white"/>
</clipPath>
</defs>
</svg>
