<svg width="375" height="250" viewBox="0 0 375 250" fill="none" xmlns="http://www.w3.org/2000/svg">
<g clip-path="url(#clip0_2583_240083)">
<rect width="375" height="250" fill="#F0E7DB"/>
<path fill-rule="evenodd" clip-rule="evenodd" d="M211.517 46.7881C207.784 53.2509 200.8 57.5999 192.8 57.5999C180.871 57.5999 171.2 47.9293 171.2 35.9999C171.2 32.4999 172.032 29.1943 173.51 26.2703C144.78 31.8476 119.065 43.866 102.056 66.1723C84.7949 88.8084 83.1554 119.417 92.6287 146.183L30.7832 160.906L38.4839 181.087L94.4159 150.867C105.182 177.14 126.795 198.876 154.748 204.259C260.476 224.62 360.888 46.5019 360.888 46.5019C360.888 46.5019 325.82 34.553 280.504 27.4307C276.566 31.5987 270.987 34.1996 264.8 34.1996C256.779 34.1996 249.78 29.8282 246.054 23.3379C241.478 22.9826 236.865 22.7054 232.235 22.5202C232.344 23.3982 232.4 24.2924 232.4 25.1998C232.4 36.8892 223.114 46.4098 211.517 46.7881ZM117.2 144C129.129 144 138.8 134.329 138.8 122.4C138.8 110.47 129.129 100.8 117.2 100.8C105.271 100.8 95.6001 110.47 95.6001 122.4C95.6001 134.329 105.271 144 117.2 144ZM302.6 75.5997C302.6 87.529 292.929 97.1997 281 97.1997C269.071 97.1997 259.4 87.529 259.4 75.5997C259.4 63.6703 269.071 53.9997 281 53.9997C292.929 53.9997 302.6 63.6703 302.6 75.5997Z" fill="#FA5F2E"/>
<path fill-rule="evenodd" clip-rule="evenodd" d="M141.439 213.385C244.521 182.289 362.67 349.17 362.67 349.17C362.67 349.17 347.457 356.168 324.01 364.32C322.602 353.752 313.553 345.6 302.6 345.6C299.388 345.6 296.339 346.301 293.599 347.559L293.6 347.468L293.6 347.4C293.6 335.471 283.929 325.8 272 325.8C260.071 325.8 250.4 335.471 250.4 347.4C250.4 359.329 260.071 369 272 369C275.212 369 278.261 368.299 281.001 367.041C281 367.094 281 367.147 281 367.2C281 370.633 281.801 373.88 283.227 376.763C259.028 383.087 231.752 388.244 205.073 389.158C206.436 386.327 207.2 383.153 207.2 379.8C207.2 367.871 197.53 358.2 185.6 358.2C173.671 358.2 164 367.871 164 379.8C164 382.262 164.412 384.627 165.171 386.832C141.186 382.801 119.457 373.467 103.186 356.148C83.6942 335.401 78.9243 305.122 85.6028 277.525L22.5735 269.222L28.164 248.358L86.9003 272.683C94.915 245.444 114.186 221.606 141.439 213.385ZM140.6 343.8C152.529 343.8 162.2 334.129 162.2 322.2C162.2 310.271 152.529 300.6 140.6 300.6C128.671 300.6 119 310.271 119 322.2C119 334.129 128.671 343.8 140.6 343.8ZM128 282.6C139.929 282.6 149.6 272.929 149.6 261C149.6 249.071 139.929 239.4 128 239.4C116.071 239.4 106.4 249.071 106.4 261C106.4 272.929 116.071 282.6 128 282.6Z" fill="#D7CB42"/>
<path fill-rule="evenodd" clip-rule="evenodd" d="M244.48 320.49C144.5 360.452 12.2566 204.503 12.2566 204.503C12.2566 204.503 189.863 103.189 270.145 174.936C276.511 180.625 281.632 187.284 285.569 194.576C284.662 194.46 283.738 194.4 282.801 194.4C270.871 194.4 261.201 204.071 261.201 216C261.201 227.929 270.871 237.6 282.801 237.6C287.598 237.6 292.029 236.036 295.614 233.391C295.807 239.497 295.433 245.652 294.514 251.728L358.027 254.505L354.276 275.777L293.643 256.664C288.033 284.498 270.913 309.924 244.48 320.49ZM223.4 311.4C235.329 311.4 245 301.729 245 289.8C245 277.871 235.329 268.2 223.4 268.2C211.471 268.2 201.8 277.871 201.8 289.8C201.8 301.729 211.471 311.4 223.4 311.4ZM252.2 185.4C252.2 197.329 242.53 207 230.6 207C218.671 207 209 197.329 209 185.4C209 173.471 218.671 163.8 230.6 163.8C242.53 163.8 252.2 173.471 252.2 185.4Z" fill="#E68800"/>
<path fill-rule="evenodd" clip-rule="evenodd" d="M161.733 317.708C189.549 327.947 218.135 331.02 244.48 320.49C266.87 311.54 282.578 291.929 290.269 269.223C247.905 231.548 192.801 197.891 141.439 213.385C114.186 221.606 94.915 245.444 86.9003 272.683L81.929 270.624C96.7447 282.281 113.147 293.703 130.341 303.187C133.393 301.537 136.887 300.6 140.6 300.6C150.989 300.6 159.665 307.935 161.733 317.708ZM245 289.8C245 301.729 235.329 311.4 223.4 311.4C211.471 311.4 201.8 301.729 201.8 289.8C201.8 277.871 211.471 268.2 223.4 268.2C235.329 268.2 245 277.871 245 289.8ZM149.6 261C149.6 272.929 139.93 282.6 128 282.6C116.071 282.6 106.4 272.929 106.4 261C106.4 249.071 116.071 239.4 128 239.4C139.93 239.4 149.6 249.071 149.6 261Z" fill="#988C1B"/>
<path d="M261.032 167.795C218.232 138.496 154.287 148.684 101.945 165.675C113.88 185.018 132.263 199.929 154.748 204.259C174.437 208.051 193.942 204.959 212.649 197.417C210.344 193.981 209 189.848 209 185.4C209 173.471 218.671 163.8 230.6 163.8C239.227 163.8 246.672 168.857 250.134 176.169C253.824 173.495 257.459 170.696 261.032 167.795Z" fill="#A13012"/>
<path d="M193.976 57.5687C199.814 57.2555 205.037 54.6237 208.739 50.5776C206.013 43.7682 204.288 36.6311 203.979 29.611C203.716 23.6521 198.672 19.0346 192.713 19.2974C186.754 19.5602 182.137 24.6039 182.4 30.5628C182.797 39.5829 184.841 48.5625 188.089 57.0849L188.092 57.0856C188.776 57.2377 189.473 57.3573 190.18 57.4428C190.941 57.5348 191.714 57.5873 192.498 57.5981C192.598 57.5994 192.699 57.6001 192.8 57.6001C193.194 57.6001 193.587 57.5896 193.976 57.5687Z" fill="#ED96ED"/>
<path d="M188.092 57.0855C188.098 57.1022 188.105 57.1189 188.111 57.1357C195.222 75.7637 208.214 92.5315 222.721 102.556C227.628 105.946 234.355 104.717 237.746 99.8096C241.137 94.9024 239.907 88.1757 235 84.785C224.649 77.6327 214.512 65.0001 208.739 50.5784C204.79 54.8938 199.111 57.6001 192.8 57.6001C191.183 57.6001 189.608 57.4224 188.092 57.0855Z" fill="#DA3C0B"/>
<path d="M184.7 39.6C182.215 39.6 180.2 36.3765 180.2 32.4C180.2 28.4236 182.215 25.2 184.7 25.2C187.185 25.2 189.2 28.4236 189.2 32.4C189.2 36.3765 187.185 39.6 184.7 39.6Z" fill="white"/>
<path d="M202.7 23.4C205.185 23.4 207.2 26.6236 207.2 30.6C207.2 34.5765 205.185 37.8 202.7 37.8C200.215 37.8 198.2 34.5765 198.2 30.6C198.2 26.6236 200.215 23.4 202.7 23.4Z" fill="white"/>
<path d="M207.2 30.6C207.2 28.6118 205.991 27 204.5 27C203.009 27 201.8 28.6118 201.8 30.6C201.8 32.5882 203.009 34.2 204.5 34.2C205.991 34.2 207.2 32.5882 207.2 30.6Z" fill="#2F1E52"/>
<path d="M180.2 32.4C180.2 34.3882 181.409 36 182.9 36C184.391 36 185.6 34.3882 185.6 32.4C185.6 30.4118 184.391 28.8 182.9 28.8C181.409 28.8 180.2 30.4118 180.2 32.4Z" fill="#2F1E52"/>
<path d="M194.148 37.8466C197.12 37.5295 199.731 38.8633 199.981 40.8257C200.23 42.7882 198.024 44.6362 195.052 44.9534C192.08 45.2705 189.469 43.9367 189.219 41.9743C188.97 40.0118 191.176 38.1638 194.148 37.8466Z" fill="#E60023"/>
</g>
<defs>
<clipPath id="clip0_2583_240083">
<rect width="375" height="250" fill="white"/>
</clipPath>
</defs>
</svg>
