<svg width="375" height="250" viewBox="0 0 375 250" fill="none" xmlns="http://www.w3.org/2000/svg">
<g clip-path="url(#clip0_2583_241180)">
<rect width="375" height="250" fill="#8F2459"/>
<path d="M47.2468 13.2268C43.8384 15.1947 42.7124 19.579 44.7508 22.9456L85.6112 90.4315L85.4099 90.5477C78.0455 94.7996 75.9776 104.489 80.9647 111.377L102.289 140.829L130.233 124.696L115.389 91.5025C111.917 83.7396 102.492 80.6856 95.1272 84.9374L94.9257 85.0537L56.9115 15.9247C55.0151 12.476 50.6552 11.259 47.2468 13.2268Z" fill="url(#paint0_linear_2583_241180)"/>
<path d="M185.935 42.5394C185.819 32.7828 184.811 22.7651 177.377 16.57C176.056 15.4691 174.492 16.4405 172.658 17.5803C171.068 18.5689 169.273 19.6842 167.256 19.6842V10.3417C185.099 7.03733 188.357 28.4393 188.934 42.5841C190.916 41.8717 193.054 41.4833 195.283 41.4833C205.602 41.4833 213.968 49.8074 213.968 60.0757C214.1 95.5003 161.16 95.4853 161.027 60.0757C161.027 49.8074 169.393 41.4833 179.712 41.4833C181.894 41.4833 183.989 41.8554 185.935 42.5394Z" fill="#E60023"/>
<path d="M152.292 72.2336C146.73 71.0619 141.005 73.3224 137.744 77.9782C136.176 80.216 135.363 82.6532 135.188 85.0682C135.129 85.8746 134.54 86.5641 133.742 86.6962C119.387 89.0739 108.574 101.777 109.047 116.812C109.549 132.781 122.64 145.466 138.617 145.466H236.379C252.356 145.466 265.447 132.781 265.949 116.812C266.448 100.946 254.379 87.6779 238.844 86.3981C237.944 86.324 237.257 85.5428 237.246 84.6402C237.199 80.7146 235.638 76.7354 232.214 73.6085C228.151 69.8993 222.423 68.6727 217.07 69.9401C210.396 71.5202 201.179 73.1733 194.505 72.2834C188.823 71.5259 185.722 69.1101 183.138 67.0976C180.414 64.9761 178.266 63.3028 174.278 64.4935C174.27 64.4959 174.264 64.5046 174.266 64.5127C174.317 64.7009 174.36 64.8893 174.398 65.0777C175.827 72.1872 166.81 75.2919 159.714 73.797L152.292 72.2336Z" fill="url(#paint1_linear_2583_241180)"/>
<path d="M117.175 95.4971C111.923 101.021 108.787 108.566 109.047 116.811C109.244 123.091 111.388 128.863 114.889 133.555L130.233 124.697L117.175 95.4971Z" fill="#FDBF81"/>
<path d="M212.014 71.0314C204.157 90.758 174.811 91.7818 164.576 74.1199C170.291 73.7207 175.511 70.613 174.398 65.0777C174.361 64.8893 174.317 64.7009 174.267 64.5127C174.264 64.5046 174.27 64.4959 174.278 64.4935C178.266 63.3028 180.414 64.9761 183.138 67.0976C185.722 69.1101 188.823 71.5259 194.505 72.2834C199.612 72.9643 206.208 72.1563 212.014 71.0314Z" fill="#FEDDED"/>
<path d="M173.484 173.493C173.484 156.562 180.21 140.324 192.182 128.351C204.155 116.379 220.393 109.653 237.324 109.653C254.256 109.653 270.494 116.379 282.466 128.351C294.438 140.324 301.164 156.562 301.164 173.493L173.484 173.493Z" fill="#70E6C8"/>
<path d="M73.8311 173.493H301.164L282.479 291.831H92.516L73.8311 173.493Z" fill="url(#paint2_linear_2583_241180)"/>
<path d="M108.865 204.635C104.135 204.635 100.301 200.8 100.301 196.071C100.301 194.778 100.514 193.463 100.925 192.219C102.564 187.252 106.53 182.484 106.53 177.254V176.607C106.53 174.887 105.135 173.493 103.415 173.493H114.962C112.885 173.493 111.201 175.177 111.201 177.254C111.201 182.484 115.167 187.252 116.806 192.219C117.217 193.463 117.429 194.778 117.429 196.071C117.429 200.8 113.595 204.635 108.865 204.635Z" fill="#FDC4E1"/>
<path d="M232.653 179.721V291.831H243.552V179.721C243.552 176.282 246.341 173.493 249.78 173.493H226.424C229.864 173.493 232.653 176.282 232.653 179.721Z" fill="#70E6C8"/>
<path d="M226.377 173.493H221.541L220.196 168.474L224.708 167.265L226.377 173.493Z" fill="#13493C"/>
<path d="M254.813 173.493H249.419L252.116 168.822L256.162 171.158L254.813 173.493Z" fill="#13493C"/>
<path d="M300.319 163.138C300.573 164.685 300.771 166.246 300.911 167.815L293.031 169.927L291.822 165.415L300.319 163.138Z" fill="#13493C"/>
<path d="M289.084 136.124C290.177 137.638 291.202 139.197 292.154 140.795H284.036V136.124H289.084Z" fill="#13493C"/>
<path d="M269.08 118.111C270.43 118.886 271.753 119.71 273.047 120.583L269.873 126.08L265.827 123.745L269.08 118.111Z" fill="#13493C"/>
<path d="M218.925 112.362L216.923 119.833L212.411 118.624L213.588 114.23C215.338 113.529 217.118 112.906 218.925 112.362Z" fill="#13493C"/>
<path d="M245.033 121.672L249.078 124.008L243.629 133.447L239.583 131.111L245.033 121.672Z" fill="#13493C"/>
<path d="M254.452 153.251H259.123V142.352H254.452V153.251Z" fill="#13493C"/>
<path d="M273.003 148.525L276.306 151.828L268.599 159.535L265.296 156.232L273.003 148.525Z" fill="#13493C"/>
<path d="M204.547 147.023L207.85 150.326L200.143 158.033L196.84 154.73L204.547 147.023Z" fill="#13493C"/>
<path d="M199.175 125.224L196.84 129.269L206.279 134.719L208.615 130.674L199.175 125.224Z" fill="#13493C"/>
<path d="M224.867 151.535L226.076 147.023L236.605 149.844L235.396 154.356L224.867 151.535Z" fill="#13493C"/>
<path d="M182.813 128.351C188.09 133.629 192.348 139.735 195.46 146.364C197.457 150.616 201.415 153.639 205.475 156.004C206.967 156.873 208.354 157.938 209.596 159.18C213.392 162.976 215.525 168.125 215.525 173.493L73.8311 173.493C73.8311 156.562 80.5571 140.324 92.5294 128.351C104.502 116.379 120.74 109.653 137.671 109.653C154.603 109.653 170.841 116.379 182.813 128.351Z" fill="#FDC4E1"/>
<path d="M120.543 225.565C120.543 229.484 123.681 232.662 127.55 232.662C131.42 232.662 134.557 229.484 134.557 225.565C134.557 221.645 127.55 210.863 127.55 210.863C127.55 210.863 120.543 221.645 120.543 225.565Z" fill="#FDC4E1"/>
</g>
<defs>
<linearGradient id="paint0_linear_2583_241180" x1="47.247" y1="13.2267" x2="116.261" y2="132.763" gradientUnits="userSpaceOnUse">
<stop stop-color="#FA5F2E"/>
<stop offset="1" stop-color="#FDA64F"/>
</linearGradient>
<linearGradient id="paint1_linear_2583_241180" x1="184.739" y1="44.6573" x2="184.739" y2="142.378" gradientUnits="userSpaceOnUse">
<stop stop-color="white"/>
<stop offset="1" stop-color="#F9F1E7"/>
</linearGradient>
<linearGradient id="paint2_linear_2583_241180" x1="187.498" y1="173.493" x2="187.498" y2="291.831" gradientUnits="userSpaceOnUse">
<stop stop-color="#59AAF3"/>
<stop offset="1" stop-color="#2086DF"/>
</linearGradient>
<clipPath id="clip0_2583_241180">
<rect width="375" height="250" fill="white"/>
</clipPath>
</defs>
</svg>
