<svg width="375" height="375" viewBox="0 0 375 375" fill="none" xmlns="http://www.w3.org/2000/svg">
<g clip-path="url(#clip0_2583_240074)">
<rect width="375" height="375" fill="#C7E1DA"/>
<g opacity="0.5">
<path d="M-25.6131 29C-31.7187 29 -36.6683 33.9496 -36.6683 40.0553V84.2764C-36.6683 89.7412 -32.7032 94.2799 -27.4929 95.1725L-80.4365 134.042C-94.6213 144.457 -103 161.002 -103 178.6V523.724C-103 554.252 -78.2519 579 -47.7236 579H278.407C308.935 579 333.683 554.252 333.683 523.724V178.6C333.683 161.002 325.305 144.457 311.12 134.042L258.176 95.1725C263.387 94.2799 267.352 89.7412 267.352 84.2764V40.0553C267.352 33.9496 262.402 29 256.297 29H-25.6131Z" fill="url(#paint0_linear_2583_240074)"/>
<path d="M-25.6131 29C-31.7187 29 -36.6683 33.9496 -36.6683 40.0553V84.2764C-36.6683 89.7412 -32.7032 94.2799 -27.4929 95.1725L-80.4365 134.042C-94.6213 144.457 -103 161.002 -103 178.6V523.724C-103 554.252 -78.2519 579 -47.7236 579H278.407C308.935 579 333.683 554.252 333.683 523.724V178.6C333.683 161.002 325.305 144.457 311.12 134.042L258.176 95.1725C263.387 94.2799 267.352 89.7412 267.352 84.2764V40.0553C267.352 33.9496 262.402 29 256.297 29H-25.6131Z" fill="url(#paint1_linear_2583_240074)" fill-opacity="0.2"/>
</g>
<path opacity="0.25" d="M333.683 523.723V178.599C333.683 161.002 325.305 144.456 311.12 134.042L257.678 94.8066H-26.995L-80.4365 134.042C-94.6213 144.456 -103 161.002 -103 178.599V523.723C-103 554.252 -78.2519 579 -47.7236 579H278.407C308.935 579 333.683 554.252 333.683 523.723Z" fill="url(#paint2_linear_2583_240074)"/>
<path d="M15.577 267.217C8.02166 259.661 -4.22801 259.661 -11.7834 267.217L-19.5783 275.012L-11.0198 283.57C-3.46442 291.126 -3.46442 303.375 -11.0198 310.931L-31.4585 331.369L-101.348 261.48L-80.9095 241.041C-73.3541 233.486 -61.1044 233.486 -53.5491 241.041L-44.9928 249.597L-37.1978 241.802C-29.6425 234.247 -29.6424 221.997 -37.1978 214.442L-38.6074 213.032L-31.4596 205.885L24.1345 261.479L16.9866 268.626L15.577 267.217Z" fill="#70E6C8"/>
<path d="M37.1606 198.735L30.807 205.088L67.7445 242.026C73.1218 247.403 78.9339 252.327 85.1214 256.749L91.2967 261.161L93.2319 259.226L88.8236 253.055C84.4007 246.864 79.474 241.048 74.0937 235.668L37.1606 198.735Z" fill="#C4CDF8"/>
<path d="M-22.582 198.121C-15.0266 190.566 -2.77694 190.566 4.77843 198.121L12.5734 205.916L4.01485 214.475C-3.54053 222.03 -3.54053 234.28 4.01484 241.835L24.4535 262.274L94.3432 192.384L73.9045 171.946C66.3492 164.39 54.0995 164.39 46.5441 171.946L37.9878 180.502L30.1929 172.707C22.6375 165.152 22.6375 152.902 30.1929 145.346L31.6025 143.937L24.4547 136.789L-31.1394 192.383L-23.9916 199.531L-22.582 198.121Z" fill="#2B8235"/>
<path d="M56.2221 230.503L25.28 199.561L31.6336 193.207L62.5757 224.149L56.2221 230.503Z" fill="#354517"/>
<path d="M51.7827 341.66L51.7827 332.675L104.02 332.675C111.625 332.675 119.217 333.303 126.718 334.552L134.205 335.798L134.205 338.535L126.724 339.781C119.219 341.032 111.623 341.66 104.014 341.66L51.7827 341.66Z" fill="#C4CDF8"/>
<path d="M9.10401 299.85C9.10401 310.535 17.7658 319.197 28.4507 319.197L39.4745 319.197V307.093C39.4745 296.408 48.1363 287.747 58.8212 287.747L87.7258 287.747L87.7259 386.586L58.8212 386.586C48.1363 386.586 39.4745 377.924 39.4745 367.239L39.4745 355.138L28.4508 355.138C17.7659 355.138 9.10401 363.8 9.10402 374.485L9.10402 376.479H-1.00451L-1.00452 297.857L9.10401 297.857L9.10401 299.85Z" fill="#FDA64F"/>
<path d="M87.7243 332.676L43.9656 332.676L43.9656 341.661L87.7243 341.661V332.676Z" fill="#FA5F2E"/>
<path d="M278.943 273.109L287.928 273.109L287.928 325.346C287.928 332.951 287.3 340.543 286.051 348.044L284.805 355.531L282.068 355.531L280.822 348.05C279.571 340.545 278.943 332.949 278.943 325.34L278.943 273.109Z" fill="#C4CDF8"/>
<path d="M320.753 230.431C310.068 230.431 301.407 239.093 301.407 249.778V260.801L313.51 260.801C324.195 260.801 332.857 269.463 332.857 280.148L332.857 309.053H234.018L234.018 280.148C234.018 269.463 242.68 260.801 253.365 260.801H265.465V249.778C265.465 239.093 256.803 230.431 246.118 230.431L244.125 230.431L244.125 220.322L322.747 220.322L322.747 230.431L320.753 230.431Z" fill="#D7CB42"/>
<path d="M287.927 309.051V265.292L278.942 265.292L278.942 309.051H287.927Z" fill="#776F0D"/>
<path d="M132.719 218.082L139.073 224.435L102.135 261.373C96.7577 266.75 90.9456 271.674 84.7581 276.095L78.5828 280.508L76.6476 278.572L81.0559 272.402C85.4788 266.21 90.4056 260.395 95.7858 255.015L132.719 218.082Z" fill="#C4CDF8"/>
<path d="M192.461 217.468C184.906 209.913 172.656 209.913 165.101 217.468L157.306 225.263L165.865 233.822C173.42 241.377 173.42 253.627 165.865 261.182L145.426 281.621L75.5363 211.731L95.9749 191.292C103.53 183.737 115.78 183.737 123.335 191.292L131.892 199.849L139.687 192.054C147.242 184.498 147.242 172.249 139.687 164.693L138.277 163.284L145.425 156.136L201.019 211.73L193.871 218.878L192.461 217.468Z" fill="#F9A4CF"/>
<path d="M113.658 249.85L144.6 218.907L138.246 212.554L107.304 243.496L113.658 249.85Z" fill="#C82376"/>
<path d="M302.699 450.398C305.464 440.077 299.339 429.468 289.019 426.703L278.37 423.85L275.238 435.541C272.472 445.862 261.864 451.987 251.543 449.221L223.623 441.74L249.205 346.269L277.124 353.75C287.445 356.516 293.57 367.124 290.805 377.445L287.673 389.133L298.321 391.986C308.642 394.752 319.25 388.627 322.016 378.306L322.532 376.38L332.296 378.997L311.947 454.94L302.183 452.323L302.699 450.398Z" fill="#70E6C8"/>
<path d="M221.161 168.399L227.515 162.045L190.577 125.108C185.2 119.731 179.388 114.806 173.2 110.385L167.025 105.973L165.09 107.908L169.498 114.079C173.921 120.27 178.848 126.086 184.228 131.466L221.161 168.399Z" fill="#C4CDF8"/>
<path d="M280.904 169.013C273.348 176.568 261.099 176.568 253.543 169.013L245.748 161.218L254.307 152.659C261.862 145.104 261.862 132.854 254.307 125.299L233.868 104.86L163.979 174.75L184.417 195.188C191.973 202.744 204.222 202.744 211.778 195.188L220.334 186.632L228.129 194.427C235.684 201.982 235.684 214.232 228.129 221.788L226.719 223.197L233.867 230.345L289.461 174.751L282.313 167.603L280.904 169.013Z" fill="#E60023"/>
<path d="M202.1 136.631L233.042 167.573L226.688 173.927L195.746 142.985L202.1 136.631Z" fill="#402970"/>
<path d="M178.073 328.12L172.277 334.986L212.194 368.682C218.005 373.587 224.211 378.005 230.749 381.889L237.274 385.766L239.039 383.674L234.127 377.897C229.199 372.1 223.8 366.72 217.985 361.812L178.073 328.12Z" fill="#C4CDF8"/>
<path d="M118.492 332.54C125.384 324.375 137.59 323.344 145.755 330.236L154.179 337.347L146.371 346.596C139.479 354.76 140.51 366.967 148.675 373.859L170.762 392.504L234.518 316.977L212.431 298.332C204.266 291.44 192.06 292.471 185.168 300.636L177.363 309.882L168.939 302.772C160.774 295.879 159.743 283.673 166.635 275.508L167.921 273.985L160.196 267.465L109.481 327.543L117.206 334.063L118.492 332.54Z" fill="#BBDA81"/>
<path d="M199.742 358.17L166.304 329.944L172.1 323.078L205.538 351.304L199.742 358.17Z" fill="#38A845"/>
<path d="M-36.6683 45.5829C-39.7211 45.5829 -42.1959 48.0577 -42.1959 51.1105C-42.1959 54.1634 -39.7211 56.6382 -36.6683 56.6382H267.352C270.405 56.6382 272.879 54.1634 272.879 51.1105C272.879 48.0577 270.405 45.5829 267.352 45.5829H-36.6683Z" fill="#F3F9F9"/>
<path d="M-36.6683 67.6934C-39.7211 67.6934 -42.1959 70.1682 -42.1959 73.2211C-42.1959 76.2739 -39.7211 78.7487 -36.6683 78.7487H267.352C270.405 78.7487 272.879 76.2739 272.879 73.2211C272.879 70.1682 270.405 67.6934 267.352 67.6934H-36.6683Z" fill="#F3F9F9"/>
</g>
<defs>
<linearGradient id="paint0_linear_2583_240074" x1="46.2461" y1="28.9998" x2="46.2461" y2="579" gradientUnits="userSpaceOnUse">
<stop stop-color="white"/>
<stop offset="1" stop-color="#E7F9E9"/>
</linearGradient>
<linearGradient id="paint1_linear_2583_240074" x1="46.2461" y1="28.9998" x2="46.2461" y2="579" gradientUnits="userSpaceOnUse">
<stop stop-color="#FDE2FD"/>
<stop offset="1" stop-color="white"/>
</linearGradient>
<linearGradient id="paint2_linear_2583_240074" x1="46.2461" y1="94.8065" x2="46.2461" y2="579" gradientUnits="userSpaceOnUse">
<stop stop-color="#F8BEF8"/>
<stop offset="1" stop-color="white" stop-opacity="0.75"/>
</linearGradient>
<clipPath id="clip0_2583_240074">
<rect width="375" height="375" fill="white"/>
</clipPath>
</defs>
</svg>
