<svg xmlns="http://www.w3.org/2000/svg" width="375" height="375" fill="none" viewBox="0 0 375 375"><g clip-path="url(#a)"><path fill="#1e4a71" d="M0 0h375v375H0z"/><path fill="url(#b)" d="M337 68.74V85.94a7.305 7.305 0 0 1-5.299 7.024 10.96 10.96 0 0 0-7.948 10.537v4.981H51.247V103.5c0-4.892-3.244-9.193-7.948-10.537A7.306 7.306 0 0 1 38 85.94V68.74z"/><path fill="url(#c)" d="M38 102.804a7.57 7.57 0 0 1 7.57-7.57h283.86a7.57 7.57 0 0 1 7.57 7.57v342.525a7.57 7.57 0 0 1-7.57 7.57H45.57a7.57 7.57 0 0 1-7.57-7.57z"/><path fill="#fff" fill-opacity=".8" d="M327.518 95.234a10.96 10.96 0 0 0-3.765 8.267v4.98H51.247v-4.98c0-3.247-1.429-6.233-3.765-8.267z"/><path fill="url(#d)" d="M172.361 57.386c0-8.361-6.778-15.14-15.139-15.14h-9.462V29h79.481v13.247h-9.462c-8.362 0-15.14 6.778-15.14 15.14 0 6.27 5.084 11.353 11.355 11.353h3.785-60.557 3.784c6.271 0 11.355-5.083 11.355-11.354"/><circle cx="225.348" cy="182.285" r="73.804" fill="url(#e)"/><circle cx="255.627" cy="356.386" r="73.804" fill="url(#f)"/><circle cx="263.196" cy="261.766" r="73.804" fill="url(#g)"/><circle cx="132.62" cy="322.323" r="73.804" fill="url(#h)"/><circle cx="111.804" cy="240.949" r="73.804" fill="url(#i)"/><path fill="#e68800" d="M255.627 282.582c24.8 0 46.74 12.234 60.122 30.994-13.384 13.575-31.983 21.994-52.553 21.994-23.756 0-44.888-11.227-58.387-28.662a74 74 0 0 1 1.615 15.415c0 20.678-8.509 39.364-22.21 52.764a74 74 0 0 1-2.391-18.701c0-20.191 8.113-38.483 21.251-51.808l-.002-.004q.295-.297.595-.591.18-.182.364-.362c13.307-13.015 31.512-21.039 51.596-21.039M132.62 248.519c18.519 0 35.443 6.821 48.401 18.087-10.424 28.112-37.479 48.147-69.217 48.147-18.52 0-35.445-6.822-48.402-18.089 10.424-28.111 37.48-48.145 69.218-48.145M263.196 187.962c12.493 0 24.258 3.108 34.572 8.586-6.645 33.935-36.539 59.541-72.42 59.541-12.493 0-24.259-3.109-34.573-8.588 6.646-33.934 36.541-59.539 72.421-59.539M151.627 178.803c20.439 13.124 33.981 36.053 33.981 62.146 0 1.167-.032 2.327-.085 3.48-20.437-13.124-33.979-36.052-33.979-62.144q.002-1.75.083-3.482"/><path fill="#9270d7" d="M263.196 401.804a9.46 9.46 0 0 1 9.462 9.462 9.462 9.462 0 1 1-9.462-9.462M111.804 360.171a9.46 9.46 0 0 1 9.462 9.462 9.46 9.46 0 0 1-9.462 9.462 9.46 9.46 0 0 1-9.462-9.462 9.46 9.46 0 0 1 9.462-9.462M75.848 269.335a9.462 9.462 0 1 1 0 18.925 9.462 9.462 0 0 1 0-18.925M215.886 244.734a9.46 9.46 0 0 1 9.462 9.462 9.46 9.46 0 0 1-9.462 9.462 9.46 9.46 0 0 1-9.462-9.462 9.46 9.46 0 0 1 9.462-9.462"/><path fill="#fa5f2e" d="M240.487 322.323a9.46 9.46 0 0 1 9.462 9.462 9.462 9.462 0 1 1-9.462-9.462M126.943 240.949a9.462 9.462 0 1 1 0 18.925 9.462 9.462 0 0 1 0-18.925M232.918 125.513a9.462 9.462 0 1 1 0 18.925 9.462 9.462 0 0 1 0-18.925"/><path fill="#2aa788" d="M306.721 350.709c5.226 0 9.463 4.236 9.463 9.462s-4.237 9.462-9.463 9.462a9.462 9.462 0 0 1 0-18.924M164.791 278.797c5.226 0 9.462 4.237 9.462 9.463a9.462 9.462 0 0 1-18.924 0c0-5.226 4.236-9.463 9.462-9.463"/><path fill="#bd5f00" d="M181.823 341.247a9.462 9.462 0 1 1 0 18.925 9.462 9.462 0 0 1 0-18.925M249.949 259.873a9.462 9.462 0 1 1 0 18.925 9.462 9.462 0 0 1 0-18.925M261.304 178.5a9.462 9.462 0 1 1 0 18.925 9.462 9.462 0 0 1 0-18.925"/><path fill="#776f0d" d="M164.791 278.797a9.45 9.45 0 0 1 7.766 4.057 74.2 74.2 0 0 1-12.266 13.729 9.46 9.46 0 0 1-4.962-8.323c0-5.226 4.236-9.463 9.462-9.463"/><path fill="#c82376" d="M240.487 322.323a9.462 9.462 0 0 1 9.115 11.995 73.3 73.3 0 0 1-17.987-5.828 9.465 9.465 0 0 1 8.872-6.167M132.62 248.519q1.816 0 3.609.087a9.462 9.462 0 0 1-9.286 11.267 9.46 9.46 0 0 1-9.455-9.8 74 74 0 0 1 15.132-1.554"/><path fill="#dd73dd" d="M213.994 379.095a9.462 9.462 0 1 1 0 18.925 9.462 9.462 0 0 1 0-18.925M117.481 187.962a9.46 9.46 0 0 1 9.462 9.462 9.46 9.46 0 0 1-9.462 9.462 9.46 9.46 0 0 1-9.462-9.462 9.46 9.46 0 0 1 9.462-9.462"/><path fill="#e60023" d="M299.152 227.703a9.462 9.462 0 1 1 0 18.923 9.462 9.462 0 0 1 0-18.923M66.386 212.563a9.462 9.462 0 1 1 0 18.925 9.462 9.462 0 0 1 0-18.925"/><path fill="#526ae0" d="M121.266 320.43a9.462 9.462 0 1 1 0 18.925 9.462 9.462 0 0 1 0-18.925M212.101 199.316a9.46 9.46 0 0 1 9.462 9.462c0 5.226-4.236 9.463-9.462 9.463-5.225 0-9.462-4.237-9.462-9.463s4.237-9.462 9.462-9.462"/><path fill="#5c3ba0" d="M280.228 295.829a9.46 9.46 0 0 1 9.462 9.462 9.46 9.46 0 0 1-9.462 9.462 9.46 9.46 0 0 1-9.462-9.462 9.46 9.46 0 0 1 9.462-9.462M219.192 202.515a9.43 9.43 0 0 1 2.371 6.263c0 5.226-4.236 9.463-9.462 9.463a9.42 9.42 0 0 1-6.512-2.603 74.3 74.3 0 0 1 13.603-13.123"/><path fill="#573905" d="M183.351 341.371c4.499.73 7.934 4.633 7.934 9.338 0 5.194-4.185 9.407-9.366 9.458a75 75 0 0 1-.096-3.781c0-5.145.526-10.167 1.528-15.015M263.196 187.962c2.552 0 5.074.131 7.559.384-.202 5.048-4.354 9.078-9.451 9.078a9.46 9.46 0 0 1-9.423-8.599 74 74 0 0 1 11.315-.863"/><path fill="#939" d="M80.186 270.389a9.46 9.46 0 0 1 5.124 8.408c0 5.226-4.236 9.463-9.462 9.463a9.44 9.44 0 0 1-7.004-3.1 74 74 0 0 1 11.342-14.771M215.886 244.734a9.462 9.462 0 0 1 9.272 11.353 73.8 73.8 0 0 1-18.717-2.447c.288-4.967 4.406-8.906 9.445-8.906"/></g><defs><radialGradient id="e" cx="0" cy="0" r="1" gradientTransform="rotate(90 21.531 203.817)scale(73.8038)" gradientUnits="userSpaceOnUse"><stop stop-color="#fdbf81"/><stop offset="1" stop-color="#fda64f"/></radialGradient><radialGradient id="f" cx="0" cy="0" r="1" gradientTransform="rotate(90 -50.38 306.007)scale(73.8038)" gradientUnits="userSpaceOnUse"><stop stop-color="#fdbf81"/><stop offset="1" stop-color="#fda64f"/></radialGradient><radialGradient id="g" cx="0" cy="0" r="1" gradientTransform="rotate(90 .715 262.481)scale(73.8038)" gradientUnits="userSpaceOnUse"><stop stop-color="#fdbf81"/><stop offset="1" stop-color="#fda64f"/></radialGradient><radialGradient id="h" cx="0" cy="0" r="1" gradientTransform="rotate(90 -94.852 227.471)scale(73.8038)" gradientUnits="userSpaceOnUse"><stop stop-color="#fdbf81"/><stop offset="1" stop-color="#fda64f"/></radialGradient><radialGradient id="i" cx="0" cy="0" r="1" gradientTransform="rotate(90 -64.573 176.377)scale(73.8038)" gradientUnits="userSpaceOnUse"><stop stop-color="#fdbf81"/><stop offset="1" stop-color="#fda64f"/></radialGradient><linearGradient id="b" x1="187.5" x2="187.5" y1="68.74" y2="104.696" gradientUnits="userSpaceOnUse"><stop stop-color="#fff" stop-opacity=".8"/><stop offset="1" stop-color="#fff" stop-opacity=".65"/></linearGradient><linearGradient id="c" x1="140.19" x2="140.19" y1="95.234" y2="452.899" gradientUnits="userSpaceOnUse"><stop stop-color="#fff" stop-opacity=".8"/><stop offset="1" stop-color="#fedded"/></linearGradient><linearGradient id="d" x1="187.5" x2="187.5" y1="29" y2="68.74" gradientUnits="userSpaceOnUse"><stop stop-color="#fff" stop-opacity=".8"/><stop offset="1" stop-color="#fff" stop-opacity=".65"/></linearGradient><clipPath id="a"><path fill="#fff" d="M0 0h375v375H0z"/></clipPath></defs></svg>