<svg width="220" height="220" viewBox="0 0 220 220" fill="none" xmlns="http://www.w3.org/2000/svg">
<path d="M20 110C20 60.2944 60.2944 20 110 20C159.706 20 200 60.2944 200 110V192C200 196.418 196.418 200 192 200H28C23.5817 200 20 196.418 20 192V110Z" fill="#C4E0F8"/>
<path d="M147.819 42V50.4043C143.729 50.4043 141.438 55.1178 143.965 58.334L156.224 73.9365H156.104C179.272 113.303 172.213 166.543 123.275 190.755H45.7129C36.1453 185.97 27.5877 179.415 20.8506 171.296C20.5634 170.95 20.2806 170.601 20 170.25V110C20 82.8465 32.0249 58.5015 51.04 42H147.819Z" fill="url(#paint0_linear_2579_234698)"/>
<path d="M158.566 78.3926C159.599 80.3863 160.557 82.4095 161.439 84.458C161.656 84.9623 161.868 85.4683 162.076 85.9756C162.401 86.7705 162.716 87.5685 163.019 88.3701C163.173 88.7777 163.323 89.1865 163.471 89.5957C166.66 98.415 168.466 107.6 168.78 116.762C168.826 118.105 168.84 119.448 168.822 120.789C168.816 121.247 168.803 121.705 168.79 122.162C168.773 122.705 168.752 123.248 168.725 123.791C167.888 140.497 161.962 156.784 150.292 170.249C149.987 170.6 149.679 170.949 149.367 171.296C142.568 178.859 133.911 185.493 123.276 190.755H45.7125C36.145 185.97 27.5882 179.415 20.8511 171.296C20.5637 170.949 20.2804 170.6 19.9996 170.249V110C19.9996 103.572 20.6757 97.3021 21.9566 91.2559C22.2686 89.7837 22.6156 88.3245 22.9986 86.8799C23.3771 85.4519 23.7899 84.0379 24.2359 82.6387C24.7199 81.1205 25.2431 79.6197 25.8043 78.1377H158.433C158.478 78.2226 158.522 78.3075 158.566 78.3926Z" fill="url(#paint1_linear_2579_234698)"/>
<path d="M134.278 175.686C149.045 139.706 151.451 120.216 141.389 99.533L139.122 100.636C148.69 120.304 146.649 138.904 131.945 174.729L134.278 175.686Z" fill="#C4E0F8"/>
<path d="M111.941 176.178L116.983 110.625L119.497 110.819L115.131 167.578C115.318 167.164 115.516 166.741 115.725 166.31C118.42 160.746 122.949 153.829 130.274 148.552L130.637 149.056C132.372 141.316 135.265 133.215 140.087 126.775L142.105 128.286C135.675 136.875 132.782 148.796 131.519 158.703C130.891 163.634 130.673 168.021 130.611 171.174C130.58 172.749 130.589 174.015 130.605 174.884C130.613 175.318 130.623 175.653 130.631 175.878C130.635 175.991 130.638 176.076 130.641 176.132L130.643 176.194L130.644 176.209L130.644 176.212C130.644 176.212 130.644 176.212 129.385 176.275C128.126 176.338 128.126 176.337 128.126 176.337L128.126 176.335L128.126 176.33L128.125 176.311L128.122 176.239C128.12 176.203 128.118 176.156 128.116 176.099L128.111 175.966C128.103 175.728 128.093 175.379 128.084 174.93C128.068 174.033 128.059 172.735 128.09 171.125C128.153 167.904 128.376 163.425 129.018 158.384C129.283 156.307 129.62 154.127 130.048 151.895C124.149 156.657 120.353 162.538 117.994 167.409C116.707 170.067 115.854 172.411 115.324 174.086C115.059 174.922 114.875 175.591 114.759 176.045C114.7 176.273 114.659 176.447 114.632 176.562C114.625 176.594 114.618 176.622 114.613 176.645L114.604 176.689L114.597 176.718L114.596 176.724C114.596 176.724 114.596 176.723 113.362 176.468C112.127 176.213 112.127 176.212 112.127 176.212L112.129 176.206L112.131 176.194L111.941 176.178Z" fill="#C4E0F8"/>
<path d="M103.023 164.763C104.19 169.607 105.693 173.395 107.437 175.462L105.51 177.088C103.365 174.544 101.754 170.262 100.572 165.353C99.3778 160.393 98.5785 154.605 98.1615 148.889C97.7444 143.171 97.7072 137.49 98.0494 132.738C98.2204 130.362 98.4876 128.2 98.8555 126.372C99.219 124.566 99.6974 122.999 100.332 121.87L102.53 123.106C102.088 123.893 101.672 125.156 101.327 126.87C100.986 128.563 100.73 130.613 100.564 132.919C100.232 137.529 100.266 143.087 100.676 148.705C101.086 154.325 101.869 159.971 103.023 164.763Z" fill="#C4E0F8"/>
<path d="M98.0087 176.275C99.2651 176.379 99.2652 176.378 99.2652 176.378L99.2653 176.377L99.2655 176.373L99.2663 176.364L99.2685 176.333C99.2703 176.307 99.2727 176.272 99.2753 176.226C99.2806 176.136 99.2869 176.006 99.2919 175.842C99.302 175.514 99.3071 175.045 99.2884 174.467C99.2511 173.312 99.1187 171.707 98.7372 169.9C97.9772 166.301 96.2037 161.786 92.1081 158.485L90.5258 160.448C94.0059 163.253 95.5783 167.143 96.2703 170.421C96.6148 172.053 96.7348 173.506 96.7685 174.548C96.7853 175.068 96.7805 175.484 96.7719 175.765C96.7675 175.905 96.7623 176.012 96.7583 176.081C96.7563 176.115 96.7546 176.14 96.7535 176.156L96.7524 176.171L96.7523 176.172C96.7523 176.172 96.7524 176.171 98.0087 176.275Z" fill="#C4E0F8"/>
<path d="M101.705 129.313C91.7615 128.223 84.0693 123.973 84.5245 119.821C84.9797 115.668 93.4099 113.185 103.354 114.276C113.298 115.366 120.99 119.616 120.535 123.768C120.352 125.433 118.888 126.829 116.559 127.834L104.793 121.648L108.155 129.526C106.133 129.624 103.958 129.56 101.705 129.313Z" fill="url(#paint2_linear_2579_234698)"/>
<path d="M118.301 144.028C120.39 140.41 126.957 140.292 132.971 143.764C138.984 147.235 142.165 152.982 140.076 156.6C138.149 159.939 132.407 160.297 126.807 157.604L127.758 151.515L121.958 154.365C118.273 151.03 116.659 146.871 118.301 144.028Z" fill="url(#paint3_linear_2579_234698)"/>
<path d="M155.08 92.2074C156.96 97.4385 151.412 104.222 142.687 107.358C133.963 110.494 125.366 108.796 123.485 103.565C121.792 98.8551 126.121 92.8874 133.368 89.4558L136.729 94.0712L136.729 88.1234C145.155 85.3925 153.26 87.1467 155.08 92.2074Z" fill="url(#paint4_linear_2579_234698)"/>
<path d="M150.129 134.883C147.832 137.181 142.244 135.318 137.649 130.723C136.886 129.96 136.198 129.169 135.592 128.371L141.096 124.169L133.96 125.85C132.268 122.703 131.975 119.758 133.489 118.244C135.787 115.946 141.374 117.809 145.969 122.404C150.564 126.998 152.427 132.586 150.129 134.883Z" fill="url(#paint5_linear_2579_234698)"/>
<path d="M131.15 111.244C130.881 113.474 125.063 114.607 118.155 113.775C115.684 113.477 113.408 112.968 111.516 112.335L114.878 109.882L107.964 110.722C106.715 109.921 106.034 109.058 106.134 108.229C106.403 105.999 112.221 104.866 119.129 105.699C126.036 106.531 131.418 109.014 131.15 111.244Z" fill="url(#paint6_linear_2579_234698)"/>
<path d="M109.511 155.907C108.489 152.093 101.035 150.776 92.8622 152.966C84.6892 155.156 78.8921 160.023 79.914 163.837C80.5518 166.218 83.6951 167.625 87.9549 167.815L91.3166 161.988L92.8622 167.544C94.0649 167.369 95.3055 167.115 96.5631 166.778C104.736 164.588 110.533 159.721 109.511 155.907Z" fill="url(#paint7_linear_2579_234698)"/>
<path d="M36.0426 200H133.532C133.532 194.894 129.393 190.755 124.287 190.755H45.2873C40.1816 190.755 36.0426 194.894 36.0426 200Z" fill="white"/>
<path d="M45.7126 190.755C37.5567 186.676 30.135 181.311 23.9491 174.787H146.029C139.802 180.908 132.242 186.319 123.276 190.755H45.7126Z" fill="url(#paint8_linear_2579_234698)"/>
<path fill-rule="evenodd" clip-rule="evenodd" d="M61.2554 137.809L67.6905 131.373C68.9513 130.113 69.6597 128.402 69.6597 126.619V114.277H62.9363V121H56.2129V114.277H49.4895V121H42.7661L42.7661 114.277H36.1117V121H29.2041V114.277H22.5959V126.43C22.5959 128.324 23.3949 130.131 24.7966 131.405L31.8405 137.809V154.902C31.8405 161.411 31.0527 167.897 29.4943 174.217L29.3538 174.787H64.2833C62.2755 168.1 61.2554 161.155 61.2554 154.172V137.809ZM46.1278 136.128C43.3428 136.128 41.0852 138.385 41.0852 141.17V149.574H51.1703V141.17C51.1703 138.385 48.9127 136.128 46.1278 136.128Z" fill="url(#paint9_linear_2579_234698)"/>
<path d="M46.3026 167.753L41.5818 165.55C41.0026 165.28 40.3316 165.289 39.7598 165.575C39.2631 165.823 38.8854 166.259 38.7098 166.786L37.1286 171.529C36.9819 171.969 36.5701 172.266 36.1063 172.266C35.5833 172.266 35.1359 171.891 35.045 171.376L34.0274 165.609C33.9707 165.288 33.8474 164.981 33.6667 164.71C33.3068 164.17 32.7379 163.801 32.0979 163.695L31.5429 163.602C30.9581 163.505 30.4868 163.069 30.343 162.494C30.2277 162.033 30.3394 161.545 30.6437 161.18L31.7101 159.9C32.0724 159.465 32.3319 158.954 32.4692 158.405C32.6085 157.848 32.6183 157.267 32.498 156.705L31.4859 151.982C31.4434 151.784 31.4696 151.577 31.5604 151.395C31.8697 150.776 32.7347 150.729 33.1099 151.31L36.3756 156.369C36.8166 157.052 37.6921 157.308 38.4318 156.97C38.7881 156.808 39.0743 156.523 39.2385 156.167L41.078 152.181C41.3024 151.695 41.9082 151.524 42.3539 151.821C42.6094 151.991 42.7566 152.284 42.7412 152.59L42.3748 159.92C42.3557 160.3 42.4352 160.679 42.6055 161.019C42.7118 161.232 42.8517 161.426 43.0197 161.594L47.4874 166.062C47.8968 166.471 47.8968 167.135 47.4874 167.545C47.1756 167.856 46.7021 167.94 46.3026 167.753Z" fill="#E60023"/>
<path d="M118.792 119.982C118.149 119.358 117.344 118.758 116.401 118.194L115.694 127.38L116.559 127.834C117.192 127.561 117.761 127.259 118.257 126.931L118.792 119.982Z" fill="#75982A"/>
<path d="M138.148 158.453C138.966 157.999 139.625 157.381 140.076 156.6C140.868 155.229 140.903 153.552 140.313 151.809C139.661 153.949 138.94 156.161 138.148 158.453Z" fill="#9FC157"/>
<path d="M131.463 159.151C131.482 159.002 131.5 158.853 131.519 158.703C132.085 154.262 132.979 149.416 134.372 144.648C133.924 144.34 133.456 144.044 132.97 143.764C132.694 143.604 132.417 143.452 132.139 143.308C130.582 148.47 129.616 153.691 129.018 158.384C129.013 158.425 129.008 158.465 129.003 158.505C129.836 158.788 130.66 159.004 131.463 159.151Z" fill="#9FC157"/>
<path d="M146.649 135.823C147.09 132.891 147.356 130.078 147.449 127.357C147.487 126.243 147.496 125.144 147.476 124.06C147.013 123.498 146.51 122.944 145.969 122.403C145.597 122.031 145.218 121.677 144.835 121.341C144.967 123.272 144.998 125.244 144.929 127.271C144.843 129.81 144.599 132.44 144.195 135.187C145.057 135.521 145.884 135.736 146.649 135.823Z" fill="#BD5F00"/>
<path d="M100.951 151.913C101.381 156.271 102.037 160.543 102.917 164.315C102.185 164.703 101.406 165.071 100.587 165.413C100.582 165.393 100.577 165.373 100.572 165.353C99.5937 161.29 98.8805 156.671 98.4253 151.991C99.2979 151.921 100.143 151.896 100.951 151.913Z" fill="#4D6813"/>
<defs>
<linearGradient id="paint0_linear_2579_234698" x1="52.1469" y1="80.5" x2="52.1469" y2="191" gradientUnits="userSpaceOnUse">
<stop stop-color="white" stop-opacity="0.5"/>
<stop offset="1" stop-color="#C4E0F8"/>
</linearGradient>
<linearGradient id="paint1_linear_2579_234698" x1="52.1469" y1="78" x2="52.1469" y2="175" gradientUnits="userSpaceOnUse">
<stop stop-color="white" stop-opacity="0.5"/>
<stop offset="1" stop-color="#E2F0FD"/>
</linearGradient>
<linearGradient id="paint2_linear_2579_234698" x1="112.611" y1="114.019" x2="112.611" y2="159.393" gradientUnits="userSpaceOnUse">
<stop stop-color="#9FC157"/>
<stop offset="1" stop-color="#8DE296"/>
</linearGradient>
<linearGradient id="paint3_linear_2579_234698" x1="112.611" y1="114.019" x2="112.611" y2="159.393" gradientUnits="userSpaceOnUse">
<stop stop-color="#9FC157"/>
<stop offset="1" stop-color="#8DE296"/>
</linearGradient>
<linearGradient id="paint4_linear_2579_234698" x1="135.08" y1="135.867" x2="135.08" y2="81.6408" gradientUnits="userSpaceOnUse">
<stop stop-color="#BA8221"/>
<stop offset="1" stop-color="#D7CB42"/>
</linearGradient>
<linearGradient id="paint5_linear_2579_234698" x1="135.08" y1="135.867" x2="135.08" y2="81.6408" gradientUnits="userSpaceOnUse">
<stop stop-color="#BA8221"/>
<stop offset="1" stop-color="#D7CB42"/>
</linearGradient>
<linearGradient id="paint6_linear_2579_234698" x1="105.478" y1="105.425" x2="105.478" y2="167.815" gradientUnits="userSpaceOnUse">
<stop stop-color="#D7CB42"/>
<stop offset="1" stop-color="#776F0D"/>
</linearGradient>
<linearGradient id="paint7_linear_2579_234698" x1="105.478" y1="105.425" x2="105.478" y2="167.815" gradientUnits="userSpaceOnUse">
<stop stop-color="#D7CB42"/>
<stop offset="1" stop-color="#776F0D"/>
</linearGradient>
<linearGradient id="paint8_linear_2579_234698" x1="84.4012" y1="174.787" x2="84.4012" y2="190.755" gradientUnits="userSpaceOnUse">
<stop stop-color="#FDC9B9"/>
<stop offset="1" stop-color="#FEE4DC"/>
</linearGradient>
<linearGradient id="paint9_linear_2579_234698" x1="45.6378" y1="114.277" x2="45.6378" y2="174.787" gradientUnits="userSpaceOnUse">
<stop stop-color="#FA5F2E"/>
<stop offset="1" stop-color="#FCA58D"/>
</linearGradient>
</defs>
</svg>
