<svg width="375" height="250" viewBox="0 0 375 250" fill="none" xmlns="http://www.w3.org/2000/svg">
<rect width="375" height="250" fill="#A13012"/>
<path d="M150.668 138.583C160.917 138.583 168.834 146.613 168.834 156.862V164.015C152.486 165.091 139.769 179.187 139.769 195.808V241.523H234.231V195.798C234.231 179.178 221.513 165.091 205.166 164.015V156.862C205.166 146.613 213.082 138.583 223.331 138.583V127.683H150.668V138.583Z" fill="url(#paint0_linear_2583_241167)"/>
<path d="M108.881 153.009C112.624 157.221 119.204 157.221 122.947 153.009L123.587 152.289C124.935 150.773 126.736 149.733 128.723 149.324L129.667 149.13C135.185 147.994 138.476 142.295 136.7 136.948L136.396 136.033C135.757 134.108 135.757 132.028 136.396 130.103L136.7 129.188C138.476 123.841 135.185 118.142 129.667 117.007L128.723 116.812C126.736 116.403 124.935 115.363 123.587 113.847L122.947 113.127C119.204 108.915 112.624 108.915 108.881 113.127L108.24 113.847C106.893 115.363 105.091 116.403 103.104 116.812L102.16 117.007C96.6418 118.142 93.3518 123.841 95.1273 129.188L95.431 130.103C96.0703 132.028 96.0703 134.108 95.431 136.033L95.1273 136.948C93.3518 142.295 96.6418 147.994 102.16 149.13L103.104 149.324C105.091 149.733 106.893 150.773 108.24 152.289L108.881 153.009Z" fill="#E60023"/>
<path d="M116.159 133.566C117.123 134.65 118.816 134.65 119.78 133.566L120.826 132.389C121.173 131.999 121.637 131.731 122.148 131.626L123.691 131.308C125.111 131.016 125.958 129.549 125.501 128.172L125.005 126.678C124.84 126.182 124.84 125.647 125.005 125.151L125.501 123.656C125.958 122.28 125.111 120.813 123.691 120.521L122.148 120.203C121.637 120.098 121.173 119.83 120.826 119.44L119.78 118.263C118.816 117.179 117.123 117.179 116.159 118.263L115.113 119.44C114.766 119.83 114.302 120.098 113.791 120.203L112.248 120.521C110.828 120.813 109.981 122.28 110.438 123.656L110.934 125.151C111.099 125.647 111.099 126.182 110.934 126.678L110.438 128.172C109.981 129.549 110.828 131.016 112.248 131.308L113.791 131.626C114.302 131.731 114.766 131.999 115.113 132.389L116.159 133.566Z" fill="#8F2459"/>
<path fill-rule="evenodd" clip-rule="evenodd" d="M234.978 85.0703C237.921 79.4352 245.09 77.5796 250.396 81.0794L275.618 97.7127C276.455 98.265 277.582 98.0338 278.134 97.1963C278.687 96.3588 278.456 95.232 277.618 94.6797L252.397 78.0464C245.293 73.3615 235.696 75.8455 231.758 83.3887L151.933 236.265L155.154 237.946L234.978 85.0703Z" fill="#9FC157"/>
<path d="M270.604 117.296C274.347 121.508 280.927 121.508 284.67 117.296L285.311 116.576C286.658 115.06 288.46 114.02 290.447 113.611L291.39 113.416C296.909 112.281 300.199 106.582 298.424 101.235L298.12 100.32C297.481 98.3951 297.481 96.3148 298.12 94.3897L298.424 93.4751C300.199 88.1278 296.909 82.4294 291.39 81.2934L290.447 81.0991C288.46 80.6901 286.658 79.65 285.311 78.1338L284.67 77.4136C280.927 73.2022 274.347 73.2022 270.604 77.4136L269.964 78.1338C268.616 79.65 266.815 80.6901 264.828 81.0991L263.884 81.2934C258.365 82.4294 255.075 88.1278 256.851 93.4751L257.155 94.3897C257.794 96.3148 257.794 98.3951 257.155 100.32L256.851 101.235C255.075 106.582 258.365 112.281 263.884 113.416L264.828 113.611C266.815 114.02 268.616 115.06 269.964 116.576L270.604 117.296Z" fill="#5C3BA0"/>
<path d="M250.025 143.6C253.768 147.811 260.348 147.811 264.091 143.6L264.731 142.879C266.079 141.363 267.881 140.323 269.867 139.914L270.811 139.72C276.33 138.584 279.62 132.885 277.844 127.538L277.541 126.623C276.902 124.698 276.902 122.618 277.541 120.693L277.844 119.778C279.62 114.431 276.33 108.733 270.811 107.597L269.867 107.402C267.881 106.993 266.079 105.953 264.731 104.437L264.091 103.717C260.348 99.5054 253.768 99.5054 250.025 103.717L249.385 104.437C248.037 105.953 246.236 106.993 244.249 107.402L243.305 107.597C237.786 108.733 234.496 114.431 236.272 119.778L236.576 120.693C237.215 122.618 237.215 124.698 236.576 126.623L236.272 127.538C234.496 132.885 237.786 138.584 243.305 139.72L244.249 139.914C246.236 140.323 248.037 141.363 249.385 142.879L250.025 143.6Z" fill="#DD73DD"/>
<path d="M277.62 120.455C275.045 120.45 272.471 119.397 270.604 117.296L269.964 116.576C268.616 115.06 266.815 114.02 264.828 113.611L263.884 113.416C258.365 112.28 255.075 106.582 256.851 101.235L257.076 100.558C259.65 100.563 262.224 101.616 264.091 103.717L264.731 104.437C266.079 105.953 267.88 106.993 269.867 107.402L270.811 107.597C276.33 108.733 279.62 114.431 277.844 119.778L277.62 120.455Z" fill="#6B246B"/>
<path d="M250.586 126.3C251.55 127.384 253.244 127.384 254.207 126.3L255.253 125.123C255.6 124.732 256.064 124.464 256.576 124.359L258.118 124.042C259.539 123.749 260.386 122.282 259.928 120.906L259.432 119.411C259.268 118.916 259.268 118.38 259.432 117.885L259.928 116.39C260.386 115.014 259.539 113.547 258.118 113.254L256.576 112.937C256.064 112.832 255.6 112.564 255.253 112.174L254.207 110.996C253.244 109.912 251.55 109.912 250.586 110.996L249.54 112.174C249.193 112.564 248.73 112.832 248.218 112.937L246.675 113.254C245.255 113.547 244.408 115.014 244.865 116.39L245.361 117.885C245.526 118.38 245.526 118.916 245.361 119.411L244.865 120.906C244.408 122.282 245.255 123.749 246.675 124.042L248.218 124.359C248.73 124.464 249.193 124.732 249.54 125.123L250.586 126.3Z" fill="#E60023"/>
<path fill-rule="evenodd" clip-rule="evenodd" d="M149.322 110.561C145.435 103.745 135.786 103.27 131.248 109.671L119.452 126.312C118.872 127.13 117.738 127.323 116.919 126.743C116.101 126.163 115.908 125.029 116.488 124.211L128.284 107.57C134.359 99.0013 147.275 99.6374 152.478 108.761L224.91 235.778L221.754 237.578L149.322 110.561Z" fill="#9FC157"/>
<path fill-rule="evenodd" clip-rule="evenodd" d="M228.532 109.791C233.179 102.947 243.497 103.715 247.08 111.172L250.154 117.571C250.588 118.475 251.674 118.856 252.578 118.421C253.482 117.987 253.863 116.902 253.429 115.997L250.355 109.599C245.559 99.6161 231.747 98.588 225.526 107.75L141.585 231.38L144.591 233.421L228.532 109.791Z" fill="#354517"/>
<path d="M174.748 52.6397C178.491 56.8511 185.071 56.8511 188.814 52.6397L189.454 51.9195C190.802 50.4033 192.603 49.3632 194.59 48.9542L195.534 48.7599C201.053 47.6239 204.343 41.9255 202.567 36.5782L202.264 35.6636C201.624 33.7385 201.624 31.6583 202.264 29.7331L202.567 28.8185C204.343 23.4712 201.053 17.7728 195.534 16.6368L194.59 16.4425C192.603 16.0336 190.802 14.9935 189.454 13.4773L188.814 12.757C185.071 8.54565 178.491 8.54565 174.748 12.757L174.108 13.4773C172.76 14.9935 170.959 16.0336 168.972 16.4425L168.028 16.6368C162.509 17.7728 159.219 23.4712 160.995 28.8185L161.298 29.7331C161.938 31.6583 161.938 33.7385 161.298 35.6636L160.995 36.5782C159.219 41.9255 162.509 47.6239 168.028 48.7599L168.972 48.9542C170.959 49.3632 172.76 50.4033 174.108 51.9195L174.748 52.6397Z" fill="#5C3BA0"/>
<path d="M213.181 43.8939C212.719 43.0034 211.623 42.6561 210.732 43.1182C209.842 43.5804 209.495 44.6769 209.957 45.5674L217.75 60.5852C222.378 69.5036 223.166 79.9245 219.931 89.4371L189.416 179.167L161.855 111.062C161.638 110.526 161.414 109.994 161.184 109.465L150.584 83.2845L128.018 44.4195C127.514 43.5519 126.402 43.2569 125.535 43.7607C124.667 44.2645 124.372 45.3762 124.876 46.2438L147.313 84.8864L150.293 92.2469C142.743 83.5946 132.999 76.9425 121.912 73.0986L113.72 70.2584C112.772 69.9298 111.737 70.4318 111.409 71.3797C111.08 72.3276 111.582 73.3625 112.53 73.6911L120.722 76.5313C137.368 82.3027 150.812 94.7698 157.834 110.873L187.621 184.443L169.022 239.134L172.462 240.304L189.707 189.594L209.537 238.571L212.905 237.208L191.501 184.319L223.371 90.6069C226.924 80.1568 226.059 68.7089 220.975 58.9117L213.181 43.8939Z" fill="#988C1B"/>
<path d="M163.268 127.683L186.947 169.207L208.629 127.683L212.728 127.683L189.087 172.959L224.91 235.779L221.753 237.578L187.088 176.788L155.154 237.946L151.933 236.265L184.948 173.036L159.086 127.683L163.268 127.683Z" fill="#D7CB42"/>
<path d="M201.931 66.2309C205.674 70.4423 212.254 70.4423 215.998 66.2309L216.638 65.5107C217.985 63.9945 219.787 62.9544 221.774 62.5454L222.718 62.3511C228.236 61.2152 231.526 55.5167 229.751 50.1694L229.447 49.2549C228.808 47.3297 228.808 45.2495 229.447 43.3243L229.751 42.4097C231.526 37.0624 228.236 31.364 222.718 30.228L221.774 30.0337C219.787 29.6248 217.985 28.5847 216.638 27.0685L215.998 26.3482C212.254 22.1369 205.674 22.1369 201.931 26.3482L201.291 27.0685C199.943 28.5847 198.142 29.6248 196.155 30.0337L195.211 30.228C189.693 31.364 186.403 37.0624 188.178 42.4097L188.482 43.3243C189.121 45.2495 189.121 47.3297 188.482 49.2549L188.178 50.1694C186.403 55.5167 189.693 61.2152 195.211 62.3511L196.155 62.5454C198.142 62.9544 199.943 63.9945 201.291 65.5107L201.931 66.2309Z" fill="#E60023"/>
<path d="M203.034 25.2913C202.645 25.6079 202.276 25.9602 201.931 26.3482L201.291 27.0685C199.943 28.5847 198.142 29.6248 196.155 30.0338L195.211 30.2281C189.693 31.364 186.403 37.0625 188.178 42.4098L188.482 43.3243C189.121 45.2495 189.121 47.3297 188.482 49.2549L188.178 50.1695C187.788 51.3455 187.642 52.5385 187.711 53.6963C188.1 53.3797 188.469 53.0274 188.814 52.6393L189.454 51.919C190.802 50.4028 192.603 49.3627 194.59 48.9537L195.534 48.7595C201.053 47.6235 204.343 41.9251 202.567 36.5778L202.264 35.6632C201.624 33.738 201.624 31.6578 202.264 29.7326L202.567 28.8181C202.958 27.6421 203.103 26.449 203.034 25.2913Z" fill="#6B246B"/>
<path d="M117.244 64.14C120.987 68.3513 127.567 68.3513 131.311 64.14L131.951 63.4197C133.298 61.9035 135.1 60.8634 137.087 60.4544L138.031 60.2601C143.549 59.1242 146.839 53.4257 145.064 48.0784L144.76 47.1639C144.121 45.2387 144.121 43.1585 144.76 41.2333L145.064 40.3188C146.839 34.9715 143.549 29.273 138.031 28.1371L137.087 27.9428C135.1 27.5338 133.298 26.4937 131.951 24.9775L131.311 24.2572C127.567 20.0459 120.987 20.0459 117.244 24.2572L116.604 24.9775C115.256 26.4937 113.455 27.5338 111.468 27.9428L110.524 28.1371C105.006 29.273 101.716 34.9715 103.491 40.3188L103.795 41.2333C104.434 43.1585 104.434 45.2387 103.795 47.1639L103.491 48.0784C101.716 53.4257 105.006 59.1242 110.524 60.2601L111.468 60.4544C113.455 60.8634 115.256 61.9035 116.604 63.4197L117.244 64.14Z" fill="#774FC4"/>
<path d="M104.698 93.4146C108.441 97.626 115.022 97.626 118.765 93.4146L119.405 92.6944C120.752 91.1782 122.554 90.1381 124.541 89.7291L125.485 89.5348C131.003 88.3989 134.293 82.7004 132.518 77.3531L132.214 76.4386C131.575 74.5134 131.575 72.4332 132.214 70.508L132.518 69.5934C134.293 64.2461 131.003 58.5477 125.485 57.4117L124.541 57.2174C122.554 56.8085 120.752 55.7684 119.405 54.2522L118.765 53.5319C115.022 49.3206 108.442 49.3205 104.698 53.5319L104.058 54.2522C102.711 55.7684 100.909 56.8085 98.9222 57.2174L97.9783 57.4117C92.4596 58.5477 89.1696 64.2461 90.9452 69.5934L91.2489 70.508C91.8881 72.4332 91.8881 74.5134 91.2489 76.4385L90.9452 77.3531C89.1696 82.7004 92.4596 88.3989 97.9783 89.5348L98.9222 89.7291C100.909 90.1381 102.711 91.1782 104.058 92.6944L104.698 93.4146Z" fill="#ED96ED"/>
<path d="M131.311 64.1402C127.568 68.3515 120.988 68.3515 117.245 64.1402L116.605 63.4199C115.257 61.9037 113.455 60.8636 111.469 60.4547L110.525 60.2604C107.316 59.5999 104.86 57.3968 103.716 54.6171C103.833 54.4988 103.947 54.3771 104.058 54.2522L104.699 53.5319C108.442 49.3205 115.022 49.3206 118.765 53.5319L119.405 54.2522C120.753 55.7684 122.554 56.8085 124.541 57.2174L125.485 57.4117C128.694 58.0722 131.149 60.2753 132.293 63.055C132.176 63.1733 132.062 63.295 131.951 63.4199L131.311 64.1402Z" fill="#C856C8"/>
<path d="M189.664 91.4893C193.407 95.7006 199.987 95.7006 203.73 91.4893L204.37 90.769C205.718 89.2528 207.519 88.2127 209.506 87.8037L210.45 87.6094C215.969 86.4735 219.259 80.775 217.483 75.4277L217.179 74.5132C216.54 72.588 216.54 70.5078 217.179 68.5826L217.483 67.668C219.259 62.3207 215.969 56.6223 210.45 55.4863L209.506 55.2921C207.519 54.8831 205.718 53.843 204.37 52.3268L203.73 51.6065C199.987 47.3952 193.407 47.3952 189.664 51.6065L189.024 52.3268C187.676 53.843 185.874 54.8831 183.888 55.2921L182.944 55.4863C177.425 56.6223 174.135 62.3208 175.911 67.668L176.214 68.5826C176.853 70.5078 176.853 72.588 176.214 74.5132L175.911 75.4277C174.135 80.775 177.425 86.4735 182.944 87.6094L183.888 87.8037C185.874 88.2127 187.676 89.2528 189.024 90.769L189.664 91.4893Z" fill="#DD73DD"/>
<path d="M215.997 66.2314C212.254 70.4427 205.674 70.4427 201.931 66.2314L201.291 65.5111C199.943 63.9949 198.142 62.9548 196.155 62.5458L195.211 62.3516C190.856 61.4551 187.888 57.7168 187.704 53.5522C188.179 53.1888 188.621 52.779 189.023 52.3268L189.664 51.6065C193.407 47.3952 199.987 47.3952 203.73 51.6065L204.37 52.3268C205.718 53.843 207.519 54.8831 209.506 55.2921L210.45 55.4863C214.805 56.3828 217.772 60.1211 217.957 64.2857C217.482 64.6491 217.039 65.0589 216.637 65.5111L215.997 66.2314Z" fill="#993399"/>
<path d="M186.4 79.0685C187.364 80.1525 189.058 80.1525 190.021 79.0685L191.067 77.8913C191.414 77.5011 191.878 77.2333 192.389 77.1281L193.932 76.8105C195.353 76.5181 196.199 75.0513 195.742 73.6749L195.246 72.1802C195.082 71.6846 195.082 71.1492 195.246 70.6536L195.742 69.1589C196.199 67.7825 195.353 66.3157 193.932 66.0233L192.389 65.7057C191.878 65.6005 191.414 65.3327 191.067 64.9425L190.021 63.7653C189.058 62.6813 187.364 62.6813 186.4 63.7653L185.354 64.9425C185.007 65.3327 184.543 65.6005 184.032 65.7057L182.489 66.0233C181.069 66.3157 180.222 67.7825 180.679 69.1589L181.175 70.6536C181.34 71.1492 181.34 71.6846 181.175 72.1802L180.679 73.6749C180.222 75.0513 181.069 76.5181 182.489 76.8105L184.032 77.1281C184.543 77.2333 185.007 77.5011 185.354 77.8913L186.4 79.0685Z" fill="#E60023"/>
<path d="M173.968 40.0794C174.931 41.1634 176.625 41.1634 177.589 40.0794L178.635 38.9022C178.982 38.5119 179.445 38.2442 179.957 38.1389L181.499 37.8214C182.92 37.529 183.767 36.0622 183.31 34.6858L182.814 33.1911C182.649 32.6955 182.649 32.1601 182.814 31.6645L183.31 30.1698C183.767 28.7934 182.92 27.3266 181.499 27.0342L179.957 26.7166C179.445 26.6114 178.982 26.3436 178.635 25.9533L177.589 24.7762C176.625 23.6922 174.931 23.6922 173.968 24.7762L172.921 25.9533C172.575 26.3436 172.111 26.6114 171.599 26.7166L170.057 27.0342C168.636 27.3266 167.789 28.7934 168.246 30.1698L168.743 31.6645C168.907 32.1601 168.907 32.6955 168.743 33.1911L168.246 34.6858C167.789 36.0622 168.636 37.529 170.057 37.8214L171.599 38.1389C172.111 38.2442 172.575 38.5119 172.921 38.9022L173.968 40.0794Z" fill="#DA3C0B"/>
<path d="M210.761 127.683H206.924L189.416 179.166L168.581 127.683H164.662L187.626 184.429L169.022 239.134L172.462 240.304L189.711 189.582L209.537 238.571L212.904 237.208L191.501 184.319L210.761 127.683Z" fill="#66CC71"/>
<path d="M174.143 127.701H170.399L181.567 172.494L141.585 231.38L144.591 233.421L182.747 177.224L198.439 240.159L201.965 239.28L185.486 173.191L196.819 156.498L220.837 223.603L224.258 222.379L199.346 152.777L216.372 127.701H211.98L197.83 148.542L190.371 127.701H186.512L195.303 152.263L184.306 168.46L174.143 127.701Z" fill="#75982A"/>
<path d="M139.769 241.523H234.231V241.636C234.231 246.255 230.486 250 225.867 250H148.133C143.513 250 139.769 246.255 139.769 241.636V241.523Z" fill="white" fill-opacity="0.8"/>
<path d="M139.769 241.523H234.231V197.925H139.769V241.523Z" fill="url(#paint1_linear_2583_241167)"/>
<path d="M176.078 31.8946C176.527 32.792 176.163 33.8832 175.266 34.3318C162.586 40.6719 156.007 54.9649 159.437 68.7205L174.139 127.684H170.394L155.911 69.5995C152.07 54.1924 159.439 38.1834 173.641 31.0822C174.539 30.6336 175.63 30.9973 176.078 31.8946Z" fill="#354517"/>
<path d="M171.144 84.7631C167.502 74.5863 177.843 65.0118 187.709 69.4258L188.347 69.7112C189.263 70.1209 189.673 71.1954 189.264 72.1112C188.854 73.027 187.779 73.4373 186.864 73.0276L186.226 72.7423C179.28 69.6351 172.001 76.3749 174.565 83.5387L190.365 127.683H186.506L171.144 84.7631Z" fill="#354517"/>
<defs>
<linearGradient id="paint0_linear_2583_241167" x1="139.952" y1="127.683" x2="139.952" y2="249.139" gradientUnits="userSpaceOnUse">
<stop stop-color="white" stop-opacity="0.3"/>
<stop offset="1" stop-color="#BA8221"/>
</linearGradient>
<linearGradient id="paint1_linear_2583_241167" x1="187" y1="241.523" x2="187" y2="197.925" gradientUnits="userSpaceOnUse">
<stop stop-color="white" stop-opacity="0"/>
<stop offset="1" stop-color="white" stop-opacity="0.65"/>
</linearGradient>
</defs>
</svg>
