<svg xmlns="http://www.w3.org/2000/svg" width="375" height="250" fill="none" viewBox="0 0 375 250"><g clip-path="url(#a)"><path fill="#dbd2ef" d="M0 0h375v250H0z"/><path fill="url(#b)" d="M303 46.703v13.286a5.645 5.645 0 0 1-4.094 5.428 8.47 8.47 0 0 0-6.14 8.14v3.848H82.234v-3.848a8.466 8.466 0 0 0-6.14-8.14A5.644 5.644 0 0 1 72 59.989V46.703z"/><path fill="url(#c)" d="M72 73.019a5.85 5.85 0 0 1 5.848-5.848h219.304A5.85 5.85 0 0 1 303 73.019v264.627a5.85 5.85 0 0 1-5.848 5.848H77.848A5.85 5.85 0 0 1 72 337.646z"/><path fill="#fff" d="M295.674 67.17a8.47 8.47 0 0 0-2.908 6.387v3.848H82.234v-3.848a8.46 8.46 0 0 0-2.908-6.386z"/><path fill="url(#d)" d="M175.804 37.93c0-6.46-5.237-11.696-11.696-11.696h-7.311V16h61.406v10.234h-7.311c-6.459 0-11.696 5.237-11.696 11.696a8.77 8.77 0 0 0 8.772 8.773h2.924-46.784 2.924a8.77 8.77 0 0 0 8.772-8.773"/><circle cx="216.74" cy="134.424" r="57.019" fill="url(#e)"/><circle cx="240.133" cy="268.93" r="57.019" fill="url(#f)"/><circle cx="245.981" cy="195.829" r="57.019" fill="url(#g)"/><circle cx="145.101" cy="242.614" r="57.019" fill="url(#h)"/><circle cx="129.019" cy="179.747" r="57.019" fill="url(#i)"/><path fill="#e68800" d="M240.133 211.911c19.16 0 36.111 9.452 46.449 23.945-10.34 10.488-24.71 16.992-40.601 16.992-18.354 0-34.679-8.673-45.109-22.143a57.2 57.2 0 0 1 1.248 11.909c0 15.975-6.573 30.412-17.159 40.764a57.2 57.2 0 0 1-1.847-14.448c0-15.599 6.268-29.731 16.418-40.025l-.002-.003q.23-.23.46-.457.14-.14.281-.28c10.281-10.055 24.346-16.254 39.862-16.254M145.101 185.595c14.307 0 27.383 5.27 37.393 13.973-8.053 21.719-28.955 37.198-53.475 37.198-14.308 0-27.384-5.271-37.394-13.975 8.053-21.718 28.956-37.196 53.476-37.196M245.981 138.81c9.651 0 18.741 2.401 26.709 6.634-5.134 26.216-28.229 45.999-55.949 45.999a56.76 56.76 0 0 1-26.711-6.635c5.134-26.216 28.231-45.998 55.951-45.998M159.786 131.734c15.79 10.14 26.252 27.854 26.252 48.013q-.001 1.352-.066 2.688c-15.789-10.139-26.25-27.853-26.25-48.011q0-1.352.064-2.69"/><path fill="#9270d7" d="M245.981 304.019a7.31 7.31 0 1 1 0 14.62 7.31 7.31 0 0 1 0-14.62M129.019 271.854a7.31 7.31 0 1 1 0 14.62 7.31 7.31 0 0 1 0-14.62M101.24 201.677a7.31 7.31 0 1 1 .001 14.62 7.31 7.31 0 0 1-.001-14.62M209.43 182.671a7.31 7.31 0 0 1 7.31 7.31 7.31 7.31 0 1 1-14.62 0 7.31 7.31 0 0 1 7.31-7.31"/><path fill="#fa5f2e" d="M228.437 242.614a7.31 7.31 0 1 1 0 14.62 7.31 7.31 0 0 1 0-14.62M140.715 179.747a7.31 7.31 0 1 1 0 14.62 7.31 7.31 0 0 1 0-14.62M222.589 90.563a7.31 7.31 0 1 1 0 14.62 7.31 7.31 0 0 1 0-14.62"/><path fill="#2aa788" d="M279.608 264.544a7.31 7.31 0 1 1 0 14.62 7.31 7.31 0 0 1 0-14.62M169.956 208.987a7.31 7.31 0 1 1 0 14.62 7.31 7.31 0 0 1 0-14.62"/><path fill="#bd5f00" d="M183.114 257.234a7.31 7.31 0 1 1 0 14.62 7.31 7.31 0 0 1 0-14.62M235.747 194.367a7.31 7.31 0 1 1 0 14.62 7.31 7.31 0 0 1 0-14.62M244.519 131.5a7.31 7.31 0 1 1 0 14.62 7.31 7.31 0 0 1 0-14.62"/><path fill="#776f0d" d="M169.956 208.987a7.3 7.3 0 0 1 5.999 3.134 57.3 57.3 0 0 1-9.476 10.607 7.31 7.31 0 0 1 3.477-13.741"/><path fill="#c82376" d="M228.437 242.614a7.31 7.31 0 0 1 7.041 9.268 56.6 56.6 0 0 1-13.896-4.504 7.31 7.31 0 0 1 6.855-4.764M145.101 185.595q1.403 0 2.789.067a7.31 7.31 0 1 1-14.479 1.134 57.2 57.2 0 0 1 11.69-1.201"/><path fill="#dd73dd" d="M207.968 286.475a7.31 7.31 0 0 1 7.31 7.31 7.31 7.31 0 1 1-14.62 0 7.31 7.31 0 0 1 7.31-7.31M133.405 138.81a7.31 7.31 0 1 1 0 14.62 7.31 7.31 0 0 1 0-14.62"/><path fill="#e60023" d="M273.759 169.513a7.31 7.31 0 1 1 .001 14.62 7.31 7.31 0 0 1-.001-14.62M93.93 157.816a7.31 7.31 0 0 1 7.31 7.311 7.31 7.31 0 1 1-14.62 0 7.31 7.31 0 0 1 7.31-7.311"/><path fill="#526ae0" d="M136.329 241.152a7.31 7.31 0 1 1 0 14.62 7.31 7.31 0 0 1 0-14.62M206.506 147.582a7.31 7.31 0 0 1 7.31 7.31 7.31 7.31 0 1 1-14.62 0 7.31 7.31 0 0 1 7.31-7.31"/><path fill="#5c3ba0" d="M259.139 222.146a7.31 7.31 0 0 1 7.31 7.31 7.31 7.31 0 1 1-14.62 0 7.31 7.31 0 0 1 7.31-7.31M211.985 150.054a7.31 7.31 0 0 1-5.479 12.149c-1.95 0-3.72-.766-5.031-2.011a57.3 57.3 0 0 1 10.51-10.138"/><path fill="#573905" d="M184.295 257.33a7.309 7.309 0 0 1-1.107 14.522 58 58 0 0 1-.074-2.922c0-3.975.406-7.855 1.181-11.6M245.981 138.81c1.972 0 3.92.102 5.84.297a7.31 7.31 0 0 1-14.582.37 57.4 57.4 0 0 1 8.742-.667"/><path fill="#939" d="M104.591 202.491a7.31 7.31 0 1 1-8.762 11.412 57.3 57.3 0 0 1 8.762-11.412M209.43 182.671a7.31 7.31 0 0 1 7.163 8.771 57 57 0 0 1-14.46-1.891 7.31 7.31 0 0 1 7.297-6.88"/></g><defs><radialGradient id="e" cx="0" cy="0" r="1" gradientTransform="rotate(90 41.158 175.582)scale(57.019)" gradientUnits="userSpaceOnUse"><stop stop-color="#fdbf81"/><stop offset="1" stop-color="#fda64f"/></radialGradient><radialGradient id="f" cx="0" cy="0" r="1" gradientTransform="rotate(90 -14.399 254.532)scale(57.019)" gradientUnits="userSpaceOnUse"><stop stop-color="#fdbf81"/><stop offset="1" stop-color="#fda64f"/></radialGradient><radialGradient id="g" cx="0" cy="0" r="1" gradientTransform="rotate(90 25.076 220.905)scale(57.019)" gradientUnits="userSpaceOnUse"><stop stop-color="#fdbf81"/><stop offset="1" stop-color="#fda64f"/></radialGradient><radialGradient id="h" cx="0" cy="0" r="1" gradientTransform="rotate(90 -48.757 193.858)scale(57.019)" gradientUnits="userSpaceOnUse"><stop stop-color="#fdbf81"/><stop offset="1" stop-color="#fda64f"/></radialGradient><radialGradient id="i" cx="0" cy="0" r="1" gradientTransform="rotate(90 -25.364 154.383)scale(57.019)" gradientUnits="userSpaceOnUse"><stop stop-color="#fdbf81"/><stop offset="1" stop-color="#fda64f"/></radialGradient><linearGradient id="b" x1="187.5" x2="187.5" y1="46.703" y2="74.481" gradientUnits="userSpaceOnUse"><stop stop-color="#fff"/><stop offset="1" stop-color="#fff" stop-opacity=".5"/></linearGradient><linearGradient id="c" x1="150.949" x2="150.949" y1="67.171" y2="343.494" gradientUnits="userSpaceOnUse"><stop stop-color="#fff" stop-opacity=".75"/><stop offset="1" stop-color="#fedded"/></linearGradient><linearGradient id="d" x1="187.5" x2="187.5" y1="16" y2="46.703" gradientUnits="userSpaceOnUse"><stop stop-color="#fff" stop-opacity=".75"/><stop offset="1" stop-color="#fff" stop-opacity=".5"/></linearGradient><clipPath id="a"><path fill="#fff" d="M0 0h375v250H0z"/></clipPath></defs></svg>