<svg width="375" height="375" viewBox="0 0 375 375" fill="none" xmlns="http://www.w3.org/2000/svg">
<g clip-path="url(#clip0_2583_241154)">
<rect width="375" height="375" fill="#186250"/>
<path d="M174.878 184.609C180.026 177.447 189.765 175.351 197.404 179.761L259.709 215.733C267.348 220.144 270.403 229.625 266.774 237.666L261.336 249.716L167.161 195.344L174.878 184.609Z" fill="url(#paint0_linear_2583_241154)"/>
<path d="M360.7 174.908C332.251 224.182 269.245 241.065 219.971 212.617C170.697 184.168 153.814 121.162 182.263 71.8878C210.711 22.6137 273.718 5.73121 322.992 34.1796C372.266 62.628 389.148 125.634 360.7 174.908Z" fill="url(#paint1_linear_2583_241154)"/>
<path d="M75.8941 284.741C78.2648 280.635 83.5154 279.228 87.6215 281.598L226.406 361.726C230.512 364.096 231.919 369.347 229.548 373.453L228.833 374.692L75.1787 285.98L75.8941 284.741Z" fill="#223077"/>
<path d="M149.618 199.812C154.758 192.624 164.515 190.512 172.168 194.931L259.191 245.173C266.844 249.591 269.893 259.097 266.239 267.143L223.929 360.294L90.1011 283.029L149.618 199.812Z" fill="url(#paint2_linear_2583_241154)"/>
<path d="M188.979 237.68L164.196 223.372L138.441 267.981L212.79 310.906L238.545 266.297L213.762 251.989L210.9 256.945C207.739 262.42 200.739 264.296 195.264 261.135L190.307 258.273C184.832 255.112 182.956 248.112 186.117 242.637L188.979 237.68Z" fill="#1F6BAD"/>
<path d="M188.98 237.68L213.763 251.989L210.901 256.945C207.74 262.42 200.739 264.296 195.264 261.135L190.308 258.273C184.833 255.112 182.957 248.112 186.118 242.637L188.98 237.68Z" fill="#223077"/>
<path d="M161.793 284.768C164.953 279.293 171.954 277.418 177.429 280.578L182.386 283.44C187.861 286.601 189.736 293.602 186.575 299.077L180.852 308.99C177.691 314.465 170.69 316.341 165.216 313.18L160.259 310.318C154.784 307.157 152.908 300.156 156.069 294.681L161.793 284.768Z" fill="#1C2554"/>
<path d="M151.113 291.82L106.504 266.065C102.398 263.694 97.147 265.101 94.7763 269.207L87.6221 281.598L226.406 361.726L233.561 349.334C235.931 345.228 234.524 339.977 230.418 337.607L185.809 311.852C181.068 320.064 170.567 322.878 162.354 318.136L157.398 315.275C149.185 310.533 146.372 300.032 151.113 291.82Z" fill="url(#paint3_linear_2583_241154)"/>
<path d="M174.445 279.374C175.468 279.626 176.472 280.025 177.43 280.578L182.387 283.44C187.862 286.601 189.738 293.601 186.577 299.076L182.284 306.512C179.314 306.872 176.208 306.308 173.418 304.697C166.575 300.746 164.23 291.995 168.181 285.151C169.692 282.534 171.905 280.575 174.445 279.374Z" fill="#A13012"/>
<path d="M267.765 226.373C251.471 225.799 235.076 221.338 219.971 212.617C204.867 203.897 192.806 191.929 184.162 178.105C188.48 176.889 193.253 177.365 197.405 179.762L259.709 215.733C263.861 218.131 266.659 222.026 267.765 226.373Z" fill="#79D8EC"/>
<path d="M290.232 216.835C286.281 223.678 277.53 226.023 270.686 222.072C263.843 218.121 261.498 209.37 265.449 202.526C269.4 195.682 278.151 193.338 284.995 197.289C291.838 201.24 294.183 209.991 290.232 216.835Z" fill="#E68800"/>
<path d="M318.119 211.457C314.168 218.301 305.417 220.646 298.574 216.695C291.73 212.743 289.385 203.993 293.336 197.149C297.288 190.305 306.038 187.961 312.882 191.912C319.726 195.863 322.07 204.614 318.119 211.457Z" fill="#13434E"/>
<path d="M265.451 202.526C261.5 209.369 252.749 211.714 245.905 207.763C239.062 203.812 236.717 195.061 240.668 188.217C244.619 181.374 253.37 179.029 260.214 182.98C267.057 186.931 269.402 195.682 265.451 202.526Z" fill="#2086DF"/>
<path d="M295.14 201.382C291.189 208.226 282.438 210.571 275.595 206.62C268.751 202.668 266.406 193.918 270.357 187.074C274.309 180.23 283.059 177.886 289.903 181.837C296.747 185.788 299.091 194.539 295.14 201.382Z" fill="#E9DE63"/>
<path d="M326.619 184.212C322.668 191.056 313.917 193.401 307.074 189.449C300.23 185.498 297.885 176.747 301.836 169.904C305.788 163.06 314.538 160.715 321.382 164.666C328.226 168.618 330.57 177.368 326.619 184.212Z" fill="#83C3FC"/>
<path d="M320.037 179.519C323.988 172.676 332.739 170.331 339.583 174.282C346.426 178.233 348.771 186.984 344.82 193.828C340.869 200.671 332.118 203.016 325.274 199.065C318.431 195.114 316.086 186.363 320.037 179.519Z" fill="#FDBF81"/>
<path d="M340.158 165.774C336.207 172.618 327.456 174.963 320.612 171.012C313.769 167.061 311.424 158.31 315.375 151.466C319.326 144.622 328.077 142.278 334.921 146.229C341.764 150.18 344.109 158.931 340.158 165.774Z" fill="#6B246B"/>
<path d="M342.56 142.393C346.512 135.549 355.263 133.205 362.106 137.156C368.95 141.107 371.295 149.858 367.343 156.701C363.392 163.545 354.641 165.89 347.798 161.939C340.954 157.988 338.609 149.237 342.56 142.393Z" fill="#FA5F2E"/>
<path d="M240.668 188.217C236.717 195.061 227.966 197.406 221.122 193.455C214.279 189.504 211.934 180.753 215.885 173.909C219.836 167.065 228.587 164.721 235.431 168.672C242.274 172.623 244.619 181.374 240.668 188.217Z" fill="#1A5866"/>
<path d="M271.889 174.554C267.938 181.398 259.187 183.742 252.344 179.791C245.5 175.84 243.155 167.089 247.106 160.246C251.058 153.402 259.808 151.057 266.652 155.008C273.496 158.96 275.84 167.71 271.889 174.554Z" fill="#C856C8"/>
<path d="M300.506 172.765C296.555 179.609 287.804 181.954 280.96 178.003C274.117 174.051 271.772 165.301 275.723 158.457C279.674 151.613 288.425 149.268 295.269 153.22C302.112 157.171 304.457 165.922 300.506 172.765Z" fill="#45C5DE"/>
<path d="M215.884 173.909C211.933 180.753 203.182 183.098 196.338 179.146C189.495 175.195 187.15 166.444 191.101 159.601C195.052 152.757 203.803 150.412 210.647 154.363C217.49 158.315 219.835 167.066 215.884 173.909Z" fill="#DA3C0B"/>
<path d="M240.795 159.474C236.844 166.318 228.093 168.662 221.249 164.711C214.406 160.76 212.061 152.009 216.012 145.166C219.963 138.322 228.714 135.977 235.558 139.928C242.401 143.88 244.746 152.63 240.795 159.474Z" fill="#FDA64F"/>
<path d="M202.136 162.749C198.185 169.593 189.434 171.938 182.59 167.987C175.747 164.035 173.402 155.285 177.353 148.441C181.304 141.597 190.055 139.252 196.899 143.204C203.742 147.155 206.087 155.906 202.136 162.749Z" fill="#988C1B"/>
<path d="M316.807 148.988C312.856 155.831 304.105 158.176 297.262 154.225C290.418 150.274 288.073 141.523 292.024 134.679C295.975 127.836 304.726 125.491 311.57 129.442C318.414 133.393 320.758 142.144 316.807 148.988Z" fill="#776F0D"/>
<path d="M345.805 137.794C341.854 144.638 333.103 146.983 326.26 143.032C319.416 139.08 317.071 130.33 321.022 123.486C324.974 116.642 333.724 114.298 340.568 118.249C347.412 122.2 349.756 130.951 345.805 137.794Z" fill="#E60023"/>
<path d="M269.385 157.026C265.434 163.87 256.683 166.215 249.84 162.263C242.996 158.312 240.651 149.561 244.602 142.718C248.554 135.874 257.305 133.529 264.148 137.481C270.992 141.432 273.337 150.183 269.385 157.026Z" fill="#DD73DD"/>
<path d="M104.38 360.692C104.38 368.594 97.9739 375 90.0716 375C82.1693 375 75.7632 368.594 75.7632 360.692C75.7632 352.79 82.1693 346.383 90.0716 346.383C97.9739 346.383 104.38 352.79 104.38 360.692Z" fill="#988C1B"/>
<path d="M132.997 360.692C132.997 368.594 126.591 375 118.688 375C110.786 375 104.38 368.594 104.38 360.692C104.38 352.79 110.786 346.383 118.688 346.383C126.591 346.383 132.997 352.79 132.997 360.692Z" fill="#DD73DD"/>
<path d="M313.76 360.692C313.76 368.594 307.354 375 299.451 375C291.549 375 285.143 368.594 285.143 360.692C285.143 352.79 291.549 346.383 299.451 346.383C307.354 346.383 313.76 352.79 313.76 360.692Z" fill="#FA5F2E"/>
<path d="M269.057 198.38C273.516 194.917 279.804 194.291 284.995 197.288C288.271 199.18 290.517 202.172 291.534 205.527C287.075 208.991 280.787 209.616 275.596 206.619C272.319 204.728 270.074 201.736 269.057 198.38Z" fill="#DA3C0B"/>
<path d="M318.685 190.654C321.917 189.596 324.785 187.389 326.619 184.212C328.646 180.701 329.016 176.687 327.971 173.077C324.739 174.136 321.871 176.343 320.037 179.52C318.01 183.031 317.64 187.045 318.685 190.654Z" fill="#BA8221"/>
<path d="M327.928 172.93C325.444 172.96 322.919 172.344 320.612 171.012C317.328 169.116 315.079 166.114 314.066 162.748C316.55 162.718 319.074 163.334 321.382 164.666C324.666 166.563 326.914 169.564 327.928 172.93Z" fill="#C856C8"/>
<path d="M189.535 169.904C194.549 169.973 199.451 167.4 202.136 162.749C204.009 159.505 204.467 155.832 203.702 152.445C198.688 152.376 193.786 154.949 191.101 159.6C189.228 162.844 188.77 166.517 189.535 169.904Z" fill="#5E1741"/>
<path d="M247.116 160.228C251.072 153.398 259.814 151.06 266.652 155.008C267.659 155.589 268.569 156.275 269.375 157.043C265.42 163.873 256.678 166.211 249.84 162.263C248.832 161.682 247.923 160.996 247.116 160.228Z" fill="#6B246B"/>
<path d="M291.475 205.573C292.919 204.463 294.173 203.057 295.141 201.382C296.672 198.73 297.257 195.792 297.002 192.958C295.558 194.068 294.304 195.473 293.336 197.149C291.805 199.8 291.22 202.738 291.475 205.573Z" fill="#9FC157"/>
</g>
<defs>
<linearGradient id="paint0_linear_2583_241154" x1="198.1" y1="177.544" x2="167.432" y2="237.162" gradientUnits="userSpaceOnUse">
<stop stop-color="#2086DF"/>
<stop offset="0.65" stop-color="#1A5866"/>
</linearGradient>
<linearGradient id="paint1_linear_2583_241154" x1="287.842" y1="29.8572" x2="198.414" y2="184.75" gradientUnits="userSpaceOnUse">
<stop stop-color="white" stop-opacity="0.65"/>
<stop offset="1" stop-color="#E5F7FA"/>
</linearGradient>
<linearGradient id="paint2_linear_2583_241154" x1="215.68" y1="220.052" x2="157.015" y2="321.662" gradientUnits="userSpaceOnUse">
<stop stop-color="#59AAF3"/>
<stop offset="1" stop-color="#ED96ED"/>
</linearGradient>
<linearGradient id="paint3_linear_2583_241154" x1="177.162" y1="300.406" x2="162.568" y2="324.73" gradientUnits="userSpaceOnUse">
<stop stop-color="#9270D7"/>
<stop offset="1" stop-color="#2A3FA7"/>
</linearGradient>
<clipPath id="clip0_2583_241154">
<rect width="375" height="375" fill="white"/>
</clipPath>
</defs>
</svg>
