<svg xmlns="http://www.w3.org/2000/svg" width="220" height="220" fill="none" viewBox="0 0 220 220"><path fill="#eae4aa" d="M20 110c0-49.706 40.294-90 90-90s90 40.294 90 90v82a8 8 0 0 1-8 8H28a8 8 0 0 1-8-8z"/><g clip-path="url(#a)"><path fill="url(#b)" fill-rule="evenodd" d="M110 200c45.84 0 83-37.16 83-83s-37.16-83-83-83-83 37.16-83 83 37.16 83 83 83m0-8.152c41.338 0 74.848-33.51 74.848-74.848S151.338 42.152 110 42.152 35.152 75.662 35.152 117s33.51 74.848 74.848 74.848" clip-rule="evenodd"/><path fill="url(#c)" fill-rule="evenodd" d="M110 191.848c41.338 0 74.848-33.51 74.848-74.848S151.338 42.152 110 42.152 35.152 75.662 35.152 117s33.51 74.848 74.848 74.848m0-8.893c36.426 0 65.955-29.529 65.955-65.955S146.426 51.045 110 51.045 44.045 80.574 44.045 117 73.574 182.955 110 182.955" clip-rule="evenodd"/><path fill="url(#d)" d="M56.643 194.071h106.714l-12.598-25.196H69.241z"/><path fill="#e60023" d="M56.643 194.071h106.714a5.93 5.93 0 0 1-5.928 5.929H62.572a5.93 5.93 0 0 1-5.93-5.929"/><path fill="url(#e)" d="M175.955 117c0 36.426-29.529 65.955-65.955 65.955S44.045 153.426 44.045 117 73.574 51.045 110 51.045 175.955 80.574 175.955 117"/><path fill="url(#f)" d="M84.223 153.855a19.977 19.977 0 0 0 29.117 7.802l1.73-1.157a20.1 20.1 0 0 1 12.3-3.377l2.063.115c12.063.676 22.079-9.463 21.411-21.675l-.114-2.088c-.24-4.397.93-8.764 3.337-12.452l1.143-1.751c6.683-10.242 3.079-24.031-7.706-29.477l-1.844-.932a20.1 20.1 0 0 1-8.963-9.074l-.92-1.867a19.977 19.977 0 0 0-29.117-7.802l-1.73 1.157a20.1 20.1 0 0 1-12.3 3.377l-2.063-.116c-12.063-.676-22.079 9.464-21.412 21.675l.115 2.089c.24 4.397-.93 8.764-3.337 12.451l-1.143 1.752c-6.684 10.242-3.08 24.031 7.705 29.477l1.845.931a20.1 20.1 0 0 1 8.963 9.075z"/><path fill="#fd865e" d="M150.737 168.875c-11.216 8.82-25.362 14.08-40.737 14.08s-29.52-5.26-40.737-14.08z"/><path fill="url(#g)" d="M149.936 96.607c.756-11.75-8.905-21.41-20.654-20.654l-2.01.13a19.5 19.5 0 0 1-11.944-3.14l-1.675-1.097c-9.789-6.416-23.081-2.786-28.414 7.76l-.912 1.804a19.97 19.97 0 0 1-8.805 8.806l-1.804.912c-10.547 5.332-14.177 18.624-7.76 28.414l1.097 1.674a19.5 19.5 0 0 1 3.139 11.945l-.13 2.009c-.756 11.749 8.905 21.411 20.654 20.654l2.01-.129a19.5 19.5 0 0 1 11.944 3.138l1.674 1.098c9.79 6.416 23.082 2.786 28.415-7.761l.912-1.803a19.97 19.97 0 0 1 8.805-8.806l1.804-.912c10.547-5.332 14.177-18.624 7.76-28.414l-1.097-1.675a19.5 19.5 0 0 1-3.139-11.944z"/><path fill="#fff" d="M133.418 82.17h2.075l.539 1.888a10.06 10.06 0 0 0 6.91 6.91l1.888.54v2.074l-1.888.54a10.06 10.06 0 0 0-6.91 6.909l-.539 1.889h-2.075l-.54-1.889a10.06 10.06 0 0 0-6.909-6.91l-1.889-.539v-2.075l1.889-.54a10.06 10.06 0 0 0 6.909-6.909z"/><path fill="#fff" fill-opacity=".25" d="M116.67 134.786h1.482l.385 1.349a7.19 7.19 0 0 0 4.936 4.935l1.348.385v1.482l-1.348.386a7.19 7.19 0 0 0-4.936 4.935l-.385 1.349h-1.482l-.386-1.349a7.19 7.19 0 0 0-4.935-4.935l-1.349-.386v-1.482l1.349-.385a7.19 7.19 0 0 0 4.935-4.935z"/><path fill="#fff" fill-opacity=".5" d="M116.151 68.09h1.037l.27.943a5.03 5.03 0 0 0 3.455 3.455l.944.27v1.038l-.944.27a5.03 5.03 0 0 0-3.455 3.454l-.27.944h-1.037l-.27-.944a5.03 5.03 0 0 0-3.455-3.455l-.944-.27v-1.037l.944-.27a5.03 5.03 0 0 0 3.455-3.455z"/><path fill="#fff" fill-opacity=".75" d="M110.963 98.473h1.038l.27.944a5.03 5.03 0 0 0 3.454 3.455l.945.27v1.037l-.945.27a5.03 5.03 0 0 0-3.454 3.455l-.27.944h-1.038l-.269-.944a5.03 5.03 0 0 0-3.455-3.455l-.944-.27v-1.037l.944-.27a5.03 5.03 0 0 0 3.455-3.455z"/><path fill="#fff" fill-opacity=".25" d="M82.803 103.661h1.037l.27.944a5.03 5.03 0 0 0 3.455 3.455l.944.269v1.038l-.944.27a5.03 5.03 0 0 0-3.455 3.455l-.27.944h-1.037l-.27-.944a5.03 5.03 0 0 0-3.455-3.455l-.944-.27v-1.038l.944-.269a5.03 5.03 0 0 0 3.455-3.455zM154.094 148.125h.741l.192.674a3.6 3.6 0 0 0 2.468 2.468l.675.193v.741l-.675.193a3.6 3.6 0 0 0-2.468 2.467l-.192.675h-.741l-.193-.675a3.59 3.59 0 0 0-2.468-2.467l-.674-.193v-.741l.674-.193a3.59 3.59 0 0 0 2.468-2.468z"/><path fill="#fff" fill-opacity=".5" d="M62.942 128.116h.741l.193.674a3.59 3.59 0 0 0 2.467 2.468l.675.193v.741l-.675.193a3.59 3.59 0 0 0-2.467 2.467l-.193.675h-.741l-.193-.675a3.59 3.59 0 0 0-2.468-2.467l-.674-.193v-.741l.675-.193a3.59 3.59 0 0 0 2.467-2.468zM140.754 122.188h.742l.192.674a3.59 3.59 0 0 0 2.468 2.468l.674.192v.741l-.674.193a3.59 3.59 0 0 0-2.468 2.468l-.192.674h-.742l-.192-.674a3.59 3.59 0 0 0-2.468-2.468l-.674-.193v-.741l.674-.192a3.59 3.59 0 0 0 2.468-2.468zM151.871 106.625h.741l.192.674a3.59 3.59 0 0 0 2.468 2.468l.674.193v.741l-.674.193a3.59 3.59 0 0 0-2.468 2.467l-.192.675h-.741l-.193-.675a3.59 3.59 0 0 0-2.468-2.467l-.674-.193v-.741l.674-.193a3.59 3.59 0 0 0 2.468-2.468zM72.65 80.688h.593l.154.539a2.87 2.87 0 0 0 1.974 1.974l.54.154v.593l-.54.154a2.87 2.87 0 0 0-1.974 1.975l-.154.54h-.593l-.154-.54a2.87 2.87 0 0 0-1.974-1.975l-.54-.154v-.593l.54-.154a2.87 2.87 0 0 0 1.974-1.974z"/><path fill="#fff" fill-opacity=".25" d="M140.087 65.125h.593l.154.54a2.88 2.88 0 0 0 1.975 1.974l.539.154v.593l-.539.154a2.88 2.88 0 0 0-1.975 1.974l-.154.54h-.593l-.154-.54a2.87 2.87 0 0 0-1.974-1.974l-.539-.154v-.593l.539-.154a2.87 2.87 0 0 0 1.974-1.974z"/></g><defs><linearGradient id="b" x1="110" x2="110" y1="34" y2="186.661" gradientUnits="userSpaceOnUse"><stop stop-color="#fff" stop-opacity=".5"/><stop offset=".316" stop-color="#fedded"/><stop offset="1" stop-color="#fff" stop-opacity=".25"/></linearGradient><linearGradient id="c" x1="110" x2="110" y1="42.152" y2="157.018" gradientUnits="userSpaceOnUse"><stop stop-color="#fff"/><stop offset=".45" stop-color="#fdebd8"/><stop offset="1" stop-color="#fff" stop-opacity=".75"/></linearGradient><linearGradient id="d" x1="110" x2="110" y1="168.875" y2="200.741" gradientUnits="userSpaceOnUse"><stop stop-color="#fd865e"/><stop offset="1" stop-color="#fdc4e1"/></linearGradient><linearGradient id="e" x1="110" x2="110" y1="51.045" y2="182.955" gradientUnits="userSpaceOnUse"><stop stop-color="#f9a4cf"/><stop offset=".5" stop-color="#fda64f"/><stop offset="1" stop-color="#e9de63"/></linearGradient><radialGradient id="f" cx="0" cy="0" r="1" gradientTransform="rotate(135 35.616 77.07)scale(56.7712)" gradientUnits="userSpaceOnUse"><stop stop-color="#fdebd8"/><stop offset="1" stop-color="#fff" stop-opacity=".25"/></radialGradient><radialGradient id="g" cx="0" cy="0" r="1" gradientTransform="rotate(135 40.587 78.712)scale(75.9841)" gradientUnits="userSpaceOnUse"><stop stop-color="#fedded"/><stop offset="1" stop-color="#fff" stop-opacity="0"/></radialGradient><clipPath id="a"><path fill="#fff" d="M27 34h166v166H27z"/></clipPath></defs></svg>