<svg fill="none" height="220" viewBox="0 0 220 220" width="220" xmlns="http://www.w3.org/2000/svg" xmlns:xlink="http://www.w3.org/1999/xlink"><linearGradient id="a"><stop offset="0" stop-color="#e2e6fd"/><stop offset="1" stop-color="#fff" stop-opacity=".8"/></linearGradient><linearGradient id="b" gradientUnits="userSpaceOnUse" x1="166" x2="166" xlink:href="#a" y1="165.5" y2="-40"/><linearGradient id="c" gradientUnits="userSpaceOnUse" x1="163.246" x2="163.246" y1="16.3416" y2="81"><stop offset="0" stop-color="#fda64f"/><stop offset="1" stop-color="#fa5f2e"/></linearGradient><linearGradient id="d" gradientUnits="userSpaceOnUse" x1="80" x2="216" xlink:href="#a" y1="146" y2="56"/><linearGradient id="e" gradientUnits="userSpaceOnUse" x1="40" x2="40" y1="0" y2="80"><stop offset="0" stop-color="#d4c4f7"/><stop offset="1" stop-color="#9baaf3"/></linearGradient><linearGradient id="f" gradientUnits="userSpaceOnUse" x1="60" x2="60" y1="124" y2="151"><stop offset="0" stop-color="#5c3ba0"/><stop offset="1" stop-color="#1a3d5b"/></linearGradient><linearGradient id="g" gradientUnits="userSpaceOnUse" x1="59.053" x2="59.053" y1="75.0513" y2="103.756"><stop offset="0" stop-color="#fff" stop-opacity=".8"/><stop offset="1" stop-color="#f9f1e7"/></linearGradient><linearGradient id="h" gradientUnits="userSpaceOnUse" x1="49.1463" x2="49.1463" y1="118" y2="141"><stop offset="0" stop-color="#774fc4"/><stop offset="1" stop-color="#2a3fa7"/></linearGradient><linearGradient id="i" gradientUnits="userSpaceOnUse" x1="380.5" x2="175" xlink:href="#a" y1="161" y2="161"/><linearGradient id="j" gradientUnits="userSpaceOnUse" x1="166" x2="166" y1="121" y2="190.5"><stop offset="0" stop-color="#1f6bad"/><stop offset="1" stop-color="#526ae0"/></linearGradient><linearGradient id="k" gradientUnits="userSpaceOnUse" x1="166" x2="166" y1="162" y2="186.5"><stop offset="0" stop-color="#fca58d"/><stop offset="1" stop-color="#9baaf3"/></linearGradient><linearGradient id="l" gradientUnits="userSpaceOnUse" x1="166" x2="166" y1="130" y2="163"><stop offset="0" stop-color="#fff"/><stop offset="1" stop-color="#c4cdf8"/></linearGradient><linearGradient id="m" gradientUnits="userSpaceOnUse" x1="80" x2="216" y1="146" y2="56"><stop offset="0" stop-color="#e2e6fd"/><stop offset="1" stop-color="#fff"/></linearGradient><linearGradient id="n" gradientUnits="userSpaceOnUse" x1="40" x2="40" y1="0" y2="80"><stop offset="0" stop-color="#9270d7"/><stop offset="1" stop-color="#768aea"/></linearGradient><clipPath id="o"><path d="m0 0h220v220h-220z"/></clipPath><clipPath id="p"><rect height="190" rx="95" width="190" x="15" y="15"/></clipPath><clipPath id="q"><path d="m126 1h80v80h-80z"/></clipPath><clipPath id="r"><path d="m20 61h80v80h-80z"/></clipPath><clipPath id="s"><path d="m126 121h80v80h-80z"/></clipPath><clipPath id="t"><path d="m126 1h80v80h-80z"/></clipPath><clipPath id="u"><path d="m20 61h80v80h-80z"/></clipPath><g clip-path="url(#o)"><circle cx="110" cy="110" fill="#402970" r="95"/><path d="m121 15.63c45.33 5.2267 80.946 42.3613 83.814 88.37h-83.814z" fill="url(#b)"/><path d="m200.492 81h-74.492v-64.6584c35.201 5.9702 63.812 31.3032 74.492 64.6584z" fill="url(#c)"/><g clip-path="url(#p)"><g clip-path="url(#q)"><path d="m151.883 40.0345c3.091 3.4774 8.524 3.4774 11.615 0l.529-.5948c1.112-1.2519 2.6-2.1108 4.241-2.4485l.779-.1604c4.557-.938 7.274-5.6433 5.807-10.0587l-.25-.7552c-.528-1.5897-.528-3.3074 0-4.897l.25-.7552c1.467-4.4154-1.25-9.1208-5.807-10.0588l-.779-.1604c-1.641-.33769-3.129-1.19654-4.241-2.4485l-.529-.59475c-3.091-3.47741-8.524-3.47741-11.615 0l-.528.59475c-1.113 1.25196-2.601 2.11081-4.241 2.4485l-.78.1604c-4.557.938-7.273 5.6434-5.807 10.0588l.251.7552c.527 1.5896.527 3.3073 0 4.897l-.251.7551c-1.466 4.4154 1.25 9.1208 5.807 10.0588l.78.1604c1.64.3377 3.128 1.1966 4.241 2.4485z" fill="#fca58d"/><path d="m188.763 81h-3.169l3.598-10.5809c2.671-7.8549 2.021-16.4597-1.8-23.8238l-6.436-12.4006c-.381-.7353-.095-1.6408.641-2.0224.735-.3815 1.64-.0948 2.022.6405l6.435 12.4006c4.198 8.0898 4.913 17.5426 1.978 26.1716z" fill="#fca58d"/><path d="m174.329 51.2574c3.091 3.4774 8.524 3.4774 11.615 0l.529-.5948c1.113-1.2519 2.6-2.1108 4.241-2.4485l.779-.1604c4.557-.938 7.274-5.6433 5.807-10.0587l-.25-.7552c-.528-1.5897-.528-3.3074 0-4.897l.25-.7552c1.467-4.4154-1.25-9.1208-5.807-10.0588l-.779-.1604c-1.641-.3377-3.128-1.1965-4.241-2.4485l-.529-.5947c-3.091-3.4775-8.524-3.4775-11.615-.0001l-.528.5948c-1.113 1.252-2.601 2.1108-4.241 2.4485l-.78.1604c-4.557.938-7.273 5.6434-5.807 10.0588l.251.7552c.528 1.5896.528 3.3073 0 4.897l-.251.7551c-1.466 4.4154 1.25 9.1208 5.807 10.0588l.78.1604c1.64.3377 3.128 1.1966 4.241 2.4485z" fill="#f9a4cf"/><path d="m175.24 17.4524c-.321.2614-.626.5523-.911.8727l-.528.5948c-1.113 1.252-2.601 2.1108-4.241 2.4485l-.78.1604c-4.557.938-7.273 5.6434-5.807 10.0588l.251.7552c.527 1.5896.527 3.3073 0 4.897l-.251.7552c-.323.971-.443 1.9561-.386 2.9121.321-.2614.626-.5523.911-.8727l.529-.5948c1.112-1.2519 2.6-2.1108 4.241-2.4485l.779-.1604c4.557-.938 7.273-5.6434 5.807-10.0588l-.25-.7551c-.528-1.5897-.528-3.3074 0-4.8971l.25-.7551c.323-.9711.443-1.9562.386-2.9122z" fill="#fa5f2e"/><path d="m164.2 72.1136c3.091 3.4774 8.524 3.4774 11.615 0l.528-.5948c1.113-1.2519 2.601-2.1108 4.241-2.4485l.78-.1604c4.557-.938 7.273-5.6433 5.807-10.0587l-.251-.7552c-.528-1.5897-.528-3.3074 0-4.897l.251-.7552c1.466-4.4154-1.25-9.1208-5.807-10.0588l-.78-.1604c-1.64-.3377-3.128-1.1965-4.241-2.4485l-.528-.5947c-3.091-3.4775-8.524-3.4775-11.615-.0001l-.529.5948c-1.112 1.252-2.6 2.1108-4.241 2.4485l-.779.1604c-4.557.938-7.274 5.6434-5.807 10.0588l.25.7552c.528 1.5896.528 3.3073 0 4.897l-.25.7551c-1.467 4.4154 1.25 9.1208 5.807 10.0588l.779.1604c1.641.3377 3.129 1.1966 4.241 2.4485z" fill="#b497ed"/><path d="m185.944 51.2575c-3.091 3.4774-8.524 3.4774-11.615 0l-.529-.5948c-1.112-1.2519-2.6-2.1108-4.241-2.4485l-.779-.1604c-3.596-.7403-6.046-3.827-6.199-7.2659.393-.3.758-.6385 1.09-1.0118l.528-.5948c3.091-3.4774 8.524-3.4774 11.615 0l.529.5948c1.113 1.2519 2.6 2.1108 4.241 2.4485l.779.1604c3.597.7403 6.047 3.827 6.199 7.2659-.393.3-.758.6384-1.09 1.0118z" fill="#c856c8"/><path d="m161.505 61.8577c.796.8951 2.194.8951 2.99 0l.864-.972c.286-.3223.669-.5434 1.092-.6303l1.273-.2622c1.173-.2414 1.873-1.4526 1.495-2.5892l-.41-1.2342c-.136-.4092-.136-.8513 0-1.2605l.41-1.2342c.378-1.1366-.322-2.3478-1.495-2.5892l-1.273-.2622c-.423-.0869-.806-.308-1.092-.6303l-.864-.972c-.796-.8951-2.194-.8951-2.99 0l-.864.972c-.286.3223-.669.5434-1.091.6303l-1.274.2622c-1.173.2414-1.872 1.4526-1.495 2.5892l.41 1.2342c.136.4092.136.8513 0 1.2605l-.41 1.2342c-.377 1.1366.322 2.3478 1.495 2.5892l1.274.2622c.422.0869.805.308 1.091.6303z" fill="#774fc4"/><path d="m151.239 30.6634c.796.8951 2.194.8951 2.99 0l.864-.9721c.286-.3222.669-.5433 1.091-.6302l1.274-.2622c1.173-.2415 1.872-1.4527 1.495-2.5892l-.41-1.2342c-.136-.4092-.136-.8514 0-1.2605l.41-1.2342c.377-1.1366-.322-2.3478-1.495-2.5892l-1.274-.2622c-.422-.087-.805-.308-1.091-.6303l-.864-.972c-.796-.8951-2.194-.8951-2.99 0l-.864.972c-.286.3223-.669.5433-1.092.6303l-1.273.2622c-1.173.2414-1.873 1.4526-1.495 2.5892l.41 1.2342c.136.4091.136.8513 0 1.2605l-.41 1.2342c-.378 1.1365.322 2.3477 1.495 2.5892l1.273.2622c.423.0869.806.308 1.092.6302z" fill="#e68800"/><path d="m157.262 81h-3.186l-5.168-14.4405c-3.008-8.4032 5.531-16.3091 13.678-12.6643l.527.2356c.756.3383 1.095 1.2256.756 1.9818-.338.7562-1.225 1.095-1.981.7567l-.527-.2356c-5.735-2.5657-11.746 2.9995-9.629 8.9149z" fill="#e68800"/><path d="m145.895 81h-3.092l-6.473-25.9615c-3.173-12.722 2.912-25.9411 14.64-31.8047.741-.3705 1.642-.0702 2.012.6708.371.741.07 1.642-.671 2.0125-10.47 5.2351-15.903 17.0372-13.071 28.3956z" fill="#bd5f00"/></g><path d="m105 56h108v90h-108z" fill="url(#d)" transform="matrix(0 1 -1 0 161 -49)"/><g clip-path="url(#r)"><path d="m0 0h80v80h-80z" fill="url(#e)" transform="translate(20 61)"/><path d="m94 118c0-3.02-.8794-6.011-2.5881-8.802-1.7087-2.79-4.2131-5.326-7.3703-7.461-3.1572-2.1362-6.9053-3.8304-11.0304-4.9862-4.125-1.1559-8.5463-1.7508-13.0112-1.7508s-8.8862.5949-13.0112 1.7508c-4.1251 1.1558-7.8732 2.85-11.0304 4.9862-3.1572 2.135-5.6616 4.671-7.3703 7.461-1.7087 2.791-2.5881 5.782-2.5881 8.802z" fill="#bd5f00"/><path d="m26 118h68l-5.5 23h-57z" fill="url(#f)"/><path d="m48.2695 73.0145c-2.5806-.9637-5.4476.392-6.3404 2.9979l-.6294 1.8376c-.4188 1.2224-.3747 2.462.0177 3.558.1077.3009-.0853.6441-.4.6999-3.3834.6001-5.9108 3.6277-5.7619 7.1848.0449 1.072.3292 2.0793.8 2.9713.1697.3217-.0502.736-.4139.736h-.1565c-4.0131 0-7.2047 3.3671-6.99 7.374.1991 3.716 3.2695 6.626 6.99 6.626h49.2299c3.7205 0 6.7909-2.91 6.99-6.626.2147-4.0069-2.9769-7.374-6.99-7.374h-.456c-.3637 0-.5836-.4143-.4139-.736.4708-.892.7551-1.8993.8-2.9713.1479-3.5335-2.3451-6.5445-5.6947-7.1725-.3119-.0585-.5012-.3991-.3933-.6975.607-1.6792.4052-3.6595-.9234-5.2652l-1.9237-2.325c-1.8447-2.2294-5.1794-2.5693-7.9791-1.838-1.4613.3818-3.1782.5799-5.0221.3006-2.6239-.3975-4.0565-1.665-5.2498-2.7208-1.2587-1.1137-2.2512-1.9919-4.0951-1.3653-.0022.0007-.0036.0031-.0031.0054.205.871.1822 1.7481.0451 2.5563-.3806 2.2442-2.904 3.0401-5.0364 2.2438z" fill="url(#g)"/><path d="m88.7092 105.678c-1.3342-1.422-2.8984-2.745-4.6677-3.941-3.1572-2.1362-6.9053-3.8304-11.0304-4.9862-4.1251-1.1559-8.5463-1.7508-13.0113-1.7508-4.4649 0-8.8861.5949-13.0112 1.7508-4.1251 1.1558-7.8732 2.85-11.0304 4.9862-1.7692 1.196-3.3334 2.519-4.6674 3.941 1.1536.833 2.5694 1.322 4.0944 1.322h49.2299c1.5249 0 2.9405-.489 4.0941-1.322z" fill="#fdd9b4"/><path clip-rule="evenodd" d="m62.7071 81.2929c.3905.3905.3905 1.0237 0 1.4142l-3 3c-.3905.3905-1.0237.3905-1.4142 0s-.3905-1.0237 0-1.4142l3-3c.3905-.3905 1.0237-.3905 1.4142 0z" fill="#fda64f" fill-rule="evenodd"/><path clip-rule="evenodd" d="m52.7071 84.7071c-.3905.3905-1.0237.3905-1.4142 0l-3-3c-.3905-.3905-.3905-1.0237 0-1.4142s1.0237-.3905 1.4142 0l3 3c.3905.3905.3905 1.0237 0 1.4142z" fill="#e60023" fill-rule="evenodd"/><path clip-rule="evenodd" d="m64.2412 76.064c-.5335-.1429-.8501-.6913-.7071-1.2247l1.0981-4.0981c.1429-.5335.6912-.8501 1.2247-.7071.5335.1429.8501.6913.7071 1.2247l-1.0981 4.0981c-.1429.5335-.6912.85-1.2247.7071z" fill="#fa5f2e" fill-rule="evenodd"/><path clip-rule="evenodd" d="m54.0341 76.2412c-.143.5335.1736 1.0818.7071 1.2247l4.0981 1.0981c.5334.1429 1.0818-.1736 1.2247-.7071.143-.5335-.1736-1.0818-.7071-1.2247l-4.0981-1.0981c-.5334-.143-1.0818.1736-1.2247.7071z" fill="#b497ed" fill-rule="evenodd"/><path clip-rule="evenodd" d="m70.2929 79.2929c-.3905.3905-.3905 1.0237 0 1.4142l3 3c.3905.3905 1.0237.3905 1.4142 0s.3905-1.0237 0-1.4142l-3-3c-.3905-.3905-1.0237-.3905-1.4142 0z" fill="#9baaf3" fill-rule="evenodd"/><path clip-rule="evenodd" d="m67.2412 83.0341c-.5335.1429-.8501.6913-.7071 1.2247l1.0981 4.0981c.1429.5335.6912.85 1.2247.7071s.8501-.6913.7071-1.2247l-1.0981-4.0981c-.1429-.5335-.6912-.8501-1.2247-.7071z" fill="#e60023" fill-rule="evenodd"/><path clip-rule="evenodd" d="m46.7071 85.2929c.3905.3905.3905 1.0237 0 1.4142l-3 3c-.3905.3905-1.0237.3905-1.4142 0s-.3905-1.0237 0-1.4142l3-3c.3905-.3905 1.0237-.3905 1.4142 0z" fill="#fca58d" fill-rule="evenodd"/><path clip-rule="evenodd" d="m37.2765 80.1339c-.4783.2761-.6421.8877-.366 1.366l2.1213 3.6742c.2762.4783.8878.6422 1.366.3661.4783-.2762.6422-.8878.3661-1.3661l-2.1213-3.6742c-.2762-.4783-.8878-.6422-1.3661-.366z" fill="#59aaf3" fill-rule="evenodd"/><path clip-rule="evenodd" d="m76.3978 72.134c.4783.2761.6422.8877.366 1.366l-2.1213 3.6742c-.2761.4783-.8877.6422-1.366.3661-.4783-.2762-.6422-.8878-.3661-1.3661l2.1214-3.6742c.2761-.4783.8877-.6422 1.366-.366z" fill="#59aaf3" fill-rule="evenodd"/><path clip-rule="evenodd" d="m46.0293 71.8222c.5335-.1429 1.0818.1737 1.2248.7071l1.098 4.0981c.143.5335-.1736 1.0818-.7071 1.2248-.5334.1429-1.0818-.1737-1.2247-.7071l-1.0981-4.0981c-.1429-.5335.1737-1.0818.7071-1.2248z" fill="#fda64f" fill-rule="evenodd"/><g fill="url(#h)"><path d="m29 118h2l2.5 23h-2z"/><path d="m36.5 141-1-23h2l1 23z"/><path d="m41 118h2l.5 23h-2z"/><path d="m49 118h-2v23h2z"/><path d="m53 118h2v23h-2z"/><path d="m59 118h2v23h-2z"/><path d="m65 118h2v23h-2z"/><path d="m73 118h-2v23h2z"/><path d="m77 118h2l-.5 23h-2z"/><path d="m84.5 118-1 23h-2l1-23z"/><path d="m89 118h2l-2.5 23h-2z"/></g></g><path d="m211 116h108v90h-108z" fill="url(#i)" transform="matrix(0 1 -1 0 327 -95)"/><g clip-path="url(#s)"><path d="m126 121h80v80h-80z" fill="url(#j)"/><path d="m126 191h80v10h-80z" fill="#2a3fa7"/><path d="m164 127c0-1.105.895-2 2-2s2 .895 2 2v4c0 1.105-.895 2-2 2s-2-.895-2-2z" fill="#2086df"/><path d="m164 175.215c0 6.762-4.972 12.495-11.667 13.452l-.353.05c-1.136.162-1.98 1.135-1.98 2.283h32c0-1.148-.844-2.121-1.98-2.283l-.353-.05c-6.695-.957-11.667-6.69-11.667-13.452v-12.215h-4z" fill="url(#k)"/><path d="m164 128h4v4h-4z" fill="#c4cdf8"/><path d="m199 163c0-8.752-3.477-17.146-9.665-23.335-6.189-6.188-14.583-9.665-23.335-9.665s-17.146 3.477-23.335 9.665c-6.188 6.189-9.665 14.583-9.665 23.335z" fill="url(#l)"/></g><path clip-rule="evenodd" d="m28.4054 42.7821-5.921-7.6932c-2.5835-3.3567-7.9351-1.9227-8.4941 2.276l-1.2812 9.623-9.14629 3.2539c-3.990766 1.4197-4.280716 6.9525-.46022 8.7816l8.75611 4.1922.2682 9.7041c.1171 4.2342 5.2895 6.2197 8.2097 3.1514l6.6927-7.0321 9.3121 2.7436c4.0631 1.1971 7.5498-3.1085 5.5341-6.834l-4.6198-8.5382 5.4869-8.0085c2.3941-3.4943-.6234-8.1408-4.7893-7.375zm5.3398 13.4444 6.5226-9.5202c.8858-1.2929-.2307-3.0122-1.7721-2.7288l-11.3501 2.0864-7.0386-9.1452c-.956-1.242-2.9361-.7115-3.1429.8421l-1.523 11.4394-10.87274 3.868c-1.47663.5254-1.58392 2.5726-.17029 3.2494l10.40883 4.9834.3189 11.5358c.0433 1.5667 1.9572 2.3014 3.0377 1.1661l7.956-8.3595 11.0698 3.2615c1.5034.443 2.7935-1.1502 2.0476-2.5286z" fill="#fff" fill-opacity=".8" fill-rule="evenodd"/><path d="m16.9642 37.7608c.2068-1.5536 2.1869-2.0841 3.1429-.8421l7.0386 9.1452 11.3501-2.0864c1.5414-.2834 2.6579 1.4359 1.7721 2.7288l-6.5226 9.5202 5.4917 10.1498c.7459 1.3784-.5442 2.9716-2.0476 2.5286l-11.0698-3.2614-7.956 8.3594c-1.0805 1.1353-2.9944.4006-3.0377-1.1661l-.3189-11.5358-10.40883-4.9834c-1.41363-.6768-1.30634-2.724.17029-3.2494l10.87274-3.868z" fill="#e60023"/></g><g clip-path="url(#t)"><path d="m151.883 40.0345c3.091 3.4774 8.524 3.4774 11.615 0l.529-.5948c1.112-1.2519 2.6-2.1108 4.241-2.4485l.779-.1604c4.557-.938 7.274-5.6433 5.807-10.0587l-.25-.7552c-.528-1.5897-.528-3.3074 0-4.897l.25-.7552c1.467-4.4154-1.25-9.1208-5.807-10.0588l-.779-.1604c-1.641-.33769-3.129-1.19654-4.241-2.4485l-.529-.59475c-3.091-3.47741-8.524-3.47741-11.615 0l-.528.59475c-1.113 1.25196-2.601 2.11081-4.241 2.4485l-.78.1604c-4.557.938-7.273 5.6434-5.807 10.0588l.251.7552c.527 1.5896.527 3.3073 0 4.897l-.251.7551c-1.466 4.4154 1.25 9.1208 5.807 10.0588l.78.1604c1.64.3377 3.128 1.1966 4.241 2.4485z" fill="#fa5f2e"/><path d="m188.763 81h-3.169l3.598-10.5809c2.671-7.8549 2.021-16.4597-1.8-23.8238l-6.436-12.4006c-.381-.7353-.095-1.6408.641-2.0224.735-.3815 1.64-.0948 2.022.6405l6.435 12.4006c4.198 8.0898 4.913 17.5426 1.978 26.1716z" fill="#da3c0b"/><path d="m174.329 51.2574c3.091 3.4774 8.524 3.4774 11.615 0l.529-.5948c1.113-1.2519 2.6-2.1108 4.241-2.4485l.779-.1604c4.557-.938 7.274-5.6433 5.807-10.0587l-.25-.7552c-.528-1.5897-.528-3.3074 0-4.897l.25-.7552c1.467-4.4154-1.25-9.1208-5.807-10.0588l-.779-.1604c-1.641-.3377-3.128-1.1965-4.241-2.4485l-.529-.5947c-3.091-3.4775-8.524-3.4775-11.615-.0001l-.528.5948c-1.113 1.252-2.601 2.1108-4.241 2.4485l-.78.1604c-4.557.938-7.273 5.6434-5.807 10.0588l.251.7552c.528 1.5896.528 3.3073 0 4.897l-.251.7551c-1.466 4.4154 1.25 9.1208 5.807 10.0588l.78.1604c1.64.3377 3.128 1.1966 4.241 2.4485z" fill="#e7559e"/><path d="m175.24 17.4524c-.321.2614-.626.5523-.911.8727l-.528.5948c-1.113 1.252-2.601 2.1108-4.241 2.4485l-.78.1604c-4.557.938-7.273 5.6434-5.807 10.0588l.251.7552c.527 1.5896.527 3.3073 0 4.897l-.251.7552c-.323.971-.443 1.9561-.386 2.9121.321-.2614.626-.5523.911-.8727l.529-.5948c1.112-1.2519 2.6-2.1108 4.241-2.4485l.779-.1604c4.557-.938 7.273-5.6434 5.807-10.0588l-.25-.7551c-.528-1.5897-.528-3.3074 0-4.8971l.25-.7551c.323-.9711.443-1.9562.386-2.9122z" fill="#da3c0b"/><path d="m164.2 72.1136c3.091 3.4774 8.524 3.4774 11.615 0l.528-.5948c1.113-1.2519 2.601-2.1108 4.241-2.4485l.78-.1604c4.557-.938 7.273-5.6433 5.807-10.0587l-.251-.7552c-.528-1.5897-.528-3.3074 0-4.897l.251-.7552c1.466-4.4154-1.25-9.1208-5.807-10.0588l-.78-.1604c-1.64-.3377-3.128-1.1965-4.241-2.4485l-.528-.5947c-3.091-3.4775-8.524-3.4775-11.615-.0001l-.529.5948c-1.112 1.252-2.6 2.1108-4.241 2.4485l-.779.1604c-4.557.938-7.274 5.6434-5.807 10.0588l.25.7552c.528 1.5896.528 3.3073 0 4.897l-.25.7551c-1.467 4.4154 1.25 9.1208 5.807 10.0588l.779.1604c1.641.3377 3.129 1.1966 4.241 2.4485z" fill="#774fc4"/><path d="m185.944 51.2575c-3.091 3.4774-8.524 3.4774-11.615 0l-.529-.5948c-1.112-1.2519-2.6-2.1108-4.241-2.4485l-.779-.1604c-3.596-.7403-6.046-3.827-6.199-7.2659.393-.3.758-.6385 1.09-1.0118l.528-.5948c3.091-3.4774 8.524-3.4774 11.615 0l.529.5948c1.113 1.2519 2.6 2.1108 4.241 2.4485l.779.1604c3.597.7403 6.047 3.827 6.199 7.2659-.393.3-.758.6384-1.09 1.0118z" fill="#939"/><path d="m161.505 61.8577c.796.8951 2.194.8951 2.99 0l.864-.972c.286-.3223.669-.5434 1.092-.6303l1.273-.2622c1.173-.2414 1.873-1.4526 1.495-2.5892l-.41-1.2342c-.136-.4092-.136-.8513 0-1.2605l.41-1.2342c.378-1.1366-.322-2.3478-1.495-2.5892l-1.273-.2622c-.423-.0869-.806-.308-1.092-.6303l-.864-.972c-.796-.8951-2.194-.8951-2.99 0l-.864.972c-.286.3223-.669.5434-1.091.6303l-1.274.2622c-1.173.2414-1.872 1.4526-1.495 2.5892l.41 1.2342c.136.4092.136.8513 0 1.2605l-.41 1.2342c-.377 1.1366.322 2.3478 1.495 2.5892l1.274.2622c.422.0869.805.308 1.091.6303z" fill="#5c3ba0"/><path d="m151.239 30.6634c.796.8951 2.194.8951 2.99 0l.864-.9721c.286-.3222.669-.5433 1.091-.6302l1.274-.2622c1.173-.2415 1.872-1.4527 1.495-2.5892l-.41-1.2342c-.136-.4092-.136-.8514 0-1.2605l.41-1.2342c.377-1.1366-.322-2.3478-1.495-2.5892l-1.274-.2622c-.422-.087-.805-.308-1.091-.6303l-.864-.972c-.796-.8951-2.194-.8951-2.99 0l-.864.972c-.286.3223-.669.5433-1.092.6303l-1.273.2622c-1.173.2414-1.873 1.4526-1.495 2.5892l.41 1.2342c.136.4091.136.8513 0 1.2605l-.41 1.2342c-.378 1.1365.322 2.3477 1.495 2.5892l1.273.2622c.423.0869.806.308 1.092.6302z" fill="#bd5f00"/><path d="m157.262 81h-3.186l-5.168-14.4405c-3.008-8.4032 5.531-16.3091 13.678-12.6643l.527.2356c.756.3383 1.095 1.2256.756 1.9818-.338.7562-1.225 1.095-1.981.7567l-.527-.2356c-5.735-2.5657-11.746 2.9995-9.629 8.9149z" fill="#bd5f00"/><path d="m145.895 81h-3.092l-6.473-25.9615c-3.173-12.722 2.912-25.9411 14.64-31.8047.741-.3705 1.642-.0702 2.012.6708.371.741.07 1.642-.671 2.0125-10.47 5.2351-15.903 17.0372-13.071 28.3956z" fill="#804000"/></g><path d="m105 56h108v90h-108z" fill="url(#m)" transform="matrix(0 1 -1 0 161 -49)"/><g clip-path="url(#u)"><path d="m0 0h80v80h-80z" fill="url(#n)" transform="translate(20 61)"/><path d="m94 118c0-3.02-.8794-6.011-2.5881-8.802-1.7087-2.79-4.2131-5.326-7.3703-7.461-3.1572-2.1362-6.9053-3.8304-11.0304-4.9862-4.125-1.1559-8.5463-1.7508-13.0112-1.7508s-8.8862.5949-13.0112 1.7508c-4.1251 1.1558-7.8732 2.85-11.0304 4.9862-3.1572 2.135-5.6616 4.671-7.3703 7.461-1.7087 2.791-2.5881 5.782-2.5881 8.802z" fill="#bd5f00"/><path d="m26 118h68l-5.5 23h-57z" fill="url(#f)"/><path d="m48.2695 73.0145c-2.5806-.9637-5.4476.392-6.3404 2.9979l-.6294 1.8376c-.4188 1.2224-.3747 2.462.0177 3.558.1077.3009-.0853.6441-.4.6999-3.3834.6001-5.9108 3.6277-5.7619 7.1848.0449 1.072.3292 2.0793.8 2.9713.1697.3217-.0502.736-.4139.736h-.1565c-4.0131 0-7.2047 3.3671-6.99 7.374.1991 3.716 3.2695 6.626 6.99 6.626h49.2299c3.7205 0 6.7909-2.91 6.99-6.626.2147-4.0069-2.9769-7.374-6.99-7.374h-.456c-.3637 0-.5836-.4143-.4139-.736.4708-.892.7551-1.8993.8-2.9713.1479-3.5335-2.3451-6.5445-5.6947-7.1725-.3119-.0585-.5012-.3991-.3933-.6975.607-1.6792.4052-3.6595-.9234-5.2652l-1.9237-2.325c-1.8447-2.2294-5.1794-2.5693-7.9791-1.838-1.4613.3818-3.1782.5799-5.0221.3006-2.6239-.3975-4.0565-1.665-5.2498-2.7208-1.2587-1.1137-2.2512-1.9919-4.0951-1.3653-.0022.0007-.0036.0031-.0031.0054.205.871.1822 1.7481.0451 2.5563-.3806 2.2442-2.904 3.0401-5.0364 2.2438z" fill="url(#g)"/><path d="m88.7092 105.678c-1.3342-1.422-2.8984-2.745-4.6677-3.941-3.1572-2.1362-6.9053-3.8304-11.0304-4.9862-4.1251-1.1559-8.5463-1.7508-13.0113-1.7508-4.4649 0-8.8861.5949-13.0112 1.7508-4.1251 1.1558-7.8732 2.85-11.0304 4.9862-1.7692 1.196-3.3334 2.519-4.6674 3.941 1.1536.833 2.5694 1.322 4.0944 1.322h49.2299c1.5249 0 2.9405-.489 4.0941-1.322z" fill="#fdd9b4"/><path clip-rule="evenodd" d="m62.7071 81.2929c.3905.3905.3905 1.0237 0 1.4142l-3 3c-.3905.3905-1.0237.3905-1.4142 0s-.3905-1.0237 0-1.4142l3-3c.3905-.3905 1.0237-.3905 1.4142 0z" fill="#fda64f" fill-rule="evenodd"/><path clip-rule="evenodd" d="m52.7071 84.7071c-.3905.3905-1.0237.3905-1.4142 0l-3-3c-.3905-.3905-.3905-1.0237 0-1.4142s1.0237-.3905 1.4142 0l3 3c.3905.3905.3905 1.0237 0 1.4142z" fill="#e60023" fill-rule="evenodd"/><path clip-rule="evenodd" d="m64.2412 76.064c-.5335-.1429-.8501-.6913-.7071-1.2247l1.0981-4.0981c.1429-.5335.6912-.8501 1.2247-.7071.5335.1429.8501.6913.7071 1.2247l-1.0981 4.0981c-.1429.5335-.6912.85-1.2247.7071z" fill="#fa5f2e" fill-rule="evenodd"/><path clip-rule="evenodd" d="m54.0341 76.2412c-.143.5335.1736 1.0818.7071 1.2247l4.0981 1.0981c.5334.1429 1.0818-.1736 1.2247-.7071.143-.5335-.1736-1.0818-.7071-1.2247l-4.0981-1.0981c-.5334-.143-1.0818.1736-1.2247.7071z" fill="#b497ed" fill-rule="evenodd"/><path clip-rule="evenodd" d="m70.2929 79.2929c-.3905.3905-.3905 1.0237 0 1.4142l3 3c.3905.3905 1.0237.3905 1.4142 0s.3905-1.0237 0-1.4142l-3-3c-.3905-.3905-1.0237-.3905-1.4142 0z" fill="#9baaf3" fill-rule="evenodd"/><path clip-rule="evenodd" d="m67.2412 83.0341c-.5335.1429-.8501.6913-.7071 1.2247l1.0981 4.0981c.1429.5335.6912.85 1.2247.7071s.8501-.6913.7071-1.2247l-1.0981-4.0981c-.1429-.5335-.6912-.8501-1.2247-.7071z" fill="#e60023" fill-rule="evenodd"/><path clip-rule="evenodd" d="m46.7071 85.2929c.3905.3905.3905 1.0237 0 1.4142l-3 3c-.3905.3905-1.0237.3905-1.4142 0s-.3905-1.0237 0-1.4142l3-3c.3905-.3905 1.0237-.3905 1.4142 0z" fill="#fca58d" fill-rule="evenodd"/><path clip-rule="evenodd" d="m37.2765 80.1339c-.4783.2761-.6421.8877-.366 1.366l2.1213 3.6742c.2762.4783.8878.6422 1.366.3661.4783-.2762.6422-.8878.3661-1.3661l-2.1213-3.6742c-.2762-.4783-.8878-.6422-1.3661-.366z" fill="#59aaf3" fill-rule="evenodd"/><path clip-rule="evenodd" d="m76.3978 72.134c.4783.2761.6422.8877.366 1.366l-2.1213 3.6742c-.2761.4783-.8877.6422-1.366.3661-.4783-.2762-.6422-.8878-.3661-1.3661l2.1214-3.6742c.2761-.4783.8877-.6422 1.366-.366z" fill="#59aaf3" fill-rule="evenodd"/><path clip-rule="evenodd" d="m46.0293 71.8222c.5335-.1429 1.0818.1737 1.2248.7071l1.098 4.0981c.143.5335-.1736 1.0818-.7071 1.2248-.5334.1429-1.0818-.1737-1.2247-.7071l-1.0981-4.0981c-.1429-.5335.1737-1.0818.7071-1.2248z" fill="#fda64f" fill-rule="evenodd"/><g fill="url(#h)"><path d="m29 118h2l2.5 23h-2z"/><path d="m36.5 141-1-23h2l1 23z"/><path d="m41 118h2l.5 23h-2z"/><path d="m49 118h-2v23h2z"/><path d="m53 118h2v23h-2z"/><path d="m59 118h2v23h-2z"/><path d="m65 118h2v23h-2z"/><path d="m73 118h-2v23h2z"/><path d="m77 118h2l-.5 23h-2z"/><path d="m84.5 118-1 23h-2l1-23z"/><path d="m89 118h2l-2.5 23h-2z"/></g></g><path clip-rule="evenodd" d="m28.4054 42.7821-5.921-7.6932c-2.5835-3.3567-7.9351-1.9227-8.4941 2.276l-1.2812 9.623-9.14629 3.2539c-3.990766 1.4197-4.280716 6.9525-.46022 8.7816l8.75611 4.1922.2682 9.7041c.1171 4.2342 5.2895 6.2197 8.2097 3.1514l6.6927-7.0321 9.3121 2.7436c4.0631 1.1971 7.5498-3.1085 5.5341-6.834l-4.6198-8.5382 5.4869-8.0085c2.3941-3.4943-.6234-8.1408-4.7893-7.375zm5.3398 13.4444 6.5226-9.5202c.8858-1.2929-.2307-3.0122-1.7721-2.7288l-11.3501 2.0864-7.0386-9.1452c-.956-1.242-2.9361-.7115-3.1429.8421l-1.523 11.4394-10.87274 3.868c-1.47663.5254-1.58392 2.5726-.17029 3.2494l10.40883 4.9834.3189 11.5358c.0433 1.5667 1.9572 2.3014 3.0377 1.1661l7.956-8.3595 11.0698 3.2615c1.5034.443 2.7935-1.1502 2.0476-2.5286z" fill="#fff" fill-rule="evenodd"/><path d="m16.9642 37.7608c.2068-1.5536 2.1869-2.0841 3.1429-.8421l7.0386 9.1452 11.3501-2.0864c1.5414-.2834 2.6579 1.4359 1.7721 2.7288l-6.5226 9.5202 5.4917 10.1498c.7459 1.3784-.5442 2.9716-2.0476 2.5286l-11.0698-3.2614-7.956 8.3594c-1.0805 1.1353-2.9944.4006-3.0377-1.1661l-.3189-11.5358-10.40883-4.9834c-1.41363-.6768-1.30634-2.724.17029-3.2494l10.87274-3.868z" fill="#e60023"/><path clip-rule="evenodd" d="m126.976 189.216-1.282-9.623c-.559-4.198-5.91-5.632-8.494-2.276l-5.921 7.693-9.548-1.755c-4.1655-.766-7.183 3.881-4.7889 7.375l5.4869 8.009-4.6197 8.538c-2.0157 3.725 1.4709 8.031 5.5337 6.834l9.312-2.744 6.693 7.032c2.92 3.069 8.093 1.083 8.21-3.151l.268-9.704 8.756-4.192c3.821-1.829 3.531-7.362-.46-8.782zm-2.098 14.313 10.409-4.983c1.413-.677 1.306-2.724-.171-3.249l-10.872-3.868-1.523-11.44c-.207-1.553-2.187-2.084-3.143-.842l-7.039 9.145-11.35-2.086c-1.5414-.284-2.6579 1.436-1.7721 2.729l6.5231 9.52-5.492 10.15c-.746 1.378.544 2.971 2.047 2.528l11.07-3.261 7.956 8.359c1.081 1.136 2.995.401 3.038-1.166z" fill="#fff" fill-rule="evenodd"/><path d="m119.578 179.147c.956-1.242 2.936-.711 3.143.842l1.523 11.44 10.872 3.868c1.477.525 1.584 2.572.171 3.249l-10.409 4.983-.319 11.536c-.043 1.567-1.957 2.302-3.038 1.166l-7.956-8.359-11.07 3.261c-1.503.443-2.7931-1.15-2.047-2.528l5.491-10.15-6.5221-9.52c-.8859-1.293.2306-3.013 1.7721-2.729l11.35 2.086z" fill="#fda64f"/></g></svg>