<svg width="220" height="220" viewBox="0 0 220 220" fill="none" xmlns="http://www.w3.org/2000/svg">
<path d="M169.877 169.877C129.145 210.608 69.3183 216.82 36.2492 183.751C3.18014 150.682 9.39171 90.8546 50.1231 50.1231C90.8546 9.39171 150.682 3.18014 183.751 36.2492C216.82 69.3183 210.608 129.145 169.877 169.877Z" fill="#C7E1DA"/>
<path d="M177.048 181.821H42.4671V13.5956H177.048V181.821Z" fill="url(#paint0_linear_2579_234699)"/>
<path fill-rule="evenodd" clip-rule="evenodd" d="M133.309 74.9979C133.309 90.7924 120.505 103.596 104.711 103.596C88.9162 103.596 76.1123 90.7924 76.1123 74.9979C76.1123 59.2035 88.9162 46.3996 104.711 46.3996V43.0351C87.058 43.0351 72.7477 57.3454 72.7477 74.9979C72.7477 92.6505 87.058 106.961 104.711 106.961C122.363 106.961 136.673 92.6505 136.673 74.9979H133.309Z" fill="#9BAAF3"/>
<path fill-rule="evenodd" clip-rule="evenodd" d="M121.537 162.511C105.62 171.7 85.2667 166.247 76.0771 150.33C66.8874 134.413 72.3409 114.06 88.2579 104.87C104.175 95.6805 124.528 101.134 133.717 117.051L136.631 115.369C126.512 97.8426 104.102 91.8376 86.5757 101.956C69.0495 112.075 63.0446 134.486 73.1633 152.012C83.2821 169.538 105.693 175.543 123.219 165.424L121.537 162.511Z" fill="#5CD6B7"/>
<path fill-rule="evenodd" clip-rule="evenodd" d="M86.0558 72.4426C97.7699 72.4426 107.266 81.9387 107.266 93.6528C107.266 105.367 97.7699 114.863 86.0558 114.863C74.3418 114.863 64.8456 105.367 64.8456 93.6528H61.4811C61.4811 107.225 72.4836 118.227 86.0558 118.227C99.6281 118.227 110.631 107.225 110.631 93.6528C110.631 80.0805 99.6281 69.0781 86.0558 69.0781V72.4426Z" fill="#59AAF3"/>
<path d="M119.054 103.569C120.251 102.967 121.404 102.293 122.509 101.551C121.338 100.911 120.136 100.336 118.908 99.8289C117.531 100.618 116.083 101.295 114.575 101.849C116.105 102.314 117.602 102.888 119.054 103.569Z" fill="#1F6BAD"/>
<path d="M87.0861 101.667C88.1944 102.4 89.3512 103.067 90.5505 103.661C92.0099 102.962 93.4989 102.378 95.0063 101.908C93.4977 101.363 92.048 100.696 90.6694 99.9175C89.4574 100.43 88.2613 101.012 87.0861 101.667Z" fill="#1F6BAD"/>
<path d="M102.626 106.894C103.315 106.938 104.01 106.961 104.711 106.961C105.399 106.961 106.083 106.939 106.76 106.896C107.485 105.766 108.119 104.573 108.653 103.326C107.392 103.5 106.104 103.592 104.796 103.596C104.174 104.764 103.447 105.868 102.626 106.894Z" fill="#774FC4"/>
<path d="M109.592 100.743C109.914 99.6749 110.164 98.576 110.339 97.452C109.229 97.2847 108.11 97.1679 106.987 97.1027C106.8 98.2455 106.522 99.3576 106.16 100.431C107.31 100.476 108.456 100.58 109.592 100.743Z" fill="#1A5866"/>
<path d="M73.5009 114.783C74.4642 115.357 75.4701 115.866 76.5127 116.306C77.1101 115.329 77.7598 114.379 78.4606 113.463C77.3849 113.05 76.3513 112.552 75.3682 111.978C74.7008 112.886 74.078 113.823 73.5009 114.783Z" fill="#1A5866"/>
<path d="M184.498 14.024L194.113 23.4399L149.388 69.1142L139.772 59.6983L184.498 14.024Z" fill="#9BAAF3"/>
<path d="M133.106 73.8532C132.426 75.2959 133.948 76.7861 135.376 76.0765L149.388 69.1142L139.772 59.6983L133.106 73.8532Z" fill="#FDD9B4"/>
<path d="M135.376 76.0766C133.948 76.7862 132.426 75.2959 133.106 73.8533L135.82 68.0907C136.816 68.7462 137.783 69.523 138.695 70.4161C139.607 71.3091 140.404 72.2604 141.081 73.2421L135.376 76.0766Z" fill="#768AEA"/>
<path d="M186.852 11.6201C188.802 9.6286 191.997 9.59506 193.989 11.5452L196.392 13.8991C198.384 15.8492 198.417 19.0445 196.467 21.0359L194.113 23.4398L184.498 14.024L186.852 11.6201Z" fill="#E60023"/>
<path d="M194.113 23.4399L184.498 14.024L182.144 16.428L191.759 25.8438L194.113 23.4399Z" fill="#E2E6FD"/>
<path d="M36.2713 38.123L24.6163 44.8521L56.5791 100.213L68.2341 93.4843L36.2713 38.123Z" fill="#59AAF3"/>
<path d="M71.1716 108.852C71.471 110.419 69.6263 111.484 68.4196 110.441L56.5791 100.213L68.2341 93.4843L71.1716 108.852Z" fill="#FDD9B4"/>
<path d="M68.4196 110.442C69.6263 111.484 71.471 110.419 71.1716 108.853L69.9757 102.596C68.8483 102.984 67.7177 103.495 66.6122 104.134C65.5068 104.772 64.4984 105.495 63.5992 106.278L68.4196 110.442Z" fill="#1F6BAD"/>
<path d="M34.5891 35.2094C33.1954 32.7955 30.1089 31.9685 27.6951 33.3621L24.7813 35.0444C22.3675 36.438 21.5404 39.5246 22.9341 41.9384L24.6163 44.8521L36.2713 38.1231L34.5891 35.2094Z" fill="#E60023"/>
<rect x="24.6163" y="44.8521" width="13.458" height="3.36451" transform="rotate(-30 24.6163 44.8521)" fill="#E2F0FD"/>
<path d="M188.607 150.694L195.453 139.107L140.414 106.591L133.569 118.178L188.607 150.694Z" fill="#5CD6B7"/>
<path d="M123.46 106.235C122.43 105.018 123.513 103.184 125.077 103.5L140.415 106.591L133.569 118.178L123.46 106.235Z" fill="#FDD9B4"/>
<path d="M125.077 103.5C123.513 103.184 122.43 105.018 123.46 106.235L127.576 111.097C128.367 110.206 129.101 109.205 129.75 108.106C130.399 107.007 130.922 105.881 131.321 104.758L125.077 103.5Z" fill="#207E67"/>
<path d="M191.504 152.405C193.904 153.823 196.999 153.027 198.416 150.627L200.128 147.73C201.545 145.33 200.749 142.236 198.35 140.818L195.453 139.107L188.607 150.694L191.504 152.405Z" fill="#E60023"/>
<rect x="195.453" y="139.107" width="13.458" height="3.36451" transform="rotate(120.574 195.453 139.107)" fill="#E2FDF6"/>
<defs>
<linearGradient id="paint0_linear_2579_234699" x1="109.757" y1="181.821" x2="109.757" y2="13.5956" gradientUnits="userSpaceOnUse">
<stop stop-color="#E2FDF6"/>
<stop offset="1" stop-color="white"/>
</linearGradient>
</defs>
</svg>
