<svg width="375" height="375" viewBox="0 0 375 375" fill="none" xmlns="http://www.w3.org/2000/svg">
<rect width="375" height="375" fill="#8F2459"/>
<g clip-path="url(#clip0_2583_241148)">
<path fill-rule="evenodd" clip-rule="evenodd" d="M187.5 375C285.531 375 365 295.531 365 197.5C365 99.4695 285.531 20 187.5 20C89.4695 20 10 99.4695 10 197.5C10 295.531 89.4695 375 187.5 375ZM187.5 357.567C275.903 357.567 347.567 285.903 347.567 197.5C347.567 109.097 275.903 37.433 187.5 37.433C99.0975 37.433 27.433 109.097 27.433 197.5C27.433 285.903 99.0975 357.567 187.5 357.567Z" fill="url(#paint0_linear_2583_241148)"/>
<path fill-rule="evenodd" clip-rule="evenodd" d="M187.5 357.567C275.903 357.567 347.567 285.903 347.567 197.5C347.567 109.097 275.903 37.433 187.5 37.433C99.0975 37.433 27.4331 109.097 27.4331 197.5C27.4331 285.903 99.0975 357.567 187.5 357.567ZM187.5 338.549C265.399 338.549 328.549 275.399 328.549 197.5C328.549 119.601 265.399 56.4509 187.5 56.4509C109.601 56.4509 46.451 119.601 46.451 197.5C46.451 275.399 109.601 338.549 187.5 338.549Z" fill="url(#paint1_linear_2583_241148)"/>
<path d="M73.3931 362.321H301.607L274.665 308.438H100.335L73.3931 362.321Z" fill="url(#paint2_linear_2583_241148)"/>
<path d="M73.3931 362.321H301.607C301.607 369.324 295.931 375 288.929 375H86.0716C79.0695 375 73.3931 369.324 73.3931 362.321Z" fill="#E60023"/>
<path d="M328.549 197.5C328.549 275.399 265.399 338.549 187.5 338.549C109.601 338.549 46.4507 275.399 46.4507 197.5C46.4507 119.601 109.601 56.4509 187.5 56.4509C265.399 56.4509 328.549 119.601 328.549 197.5Z" fill="url(#paint3_linear_2583_241148)"/>
<g opacity="0.8">
<path d="M284.134 152.082L282.318 150.437C278.496 146.972 275.873 142.341 274.842 137.234L274.352 134.807C271.488 120.621 257.12 112.164 243.638 116.728L241.332 117.509C236.478 119.152 231.233 119.152 226.379 117.509L224.074 116.728C210.591 112.164 196.224 120.621 193.36 134.807L192.87 137.234C191.839 142.341 189.216 146.972 185.393 150.437L183.577 152.082C178.268 156.893 175.614 163.528 175.614 170.162H292.098C292.098 163.528 289.443 156.893 284.134 152.082Z" fill="#C4E0F8"/>
<path d="M46.4507 197.5C46.4507 219.512 51.4931 240.347 60.4859 258.912H194.631C194.632 248.239 190.352 237.567 181.792 229.827L178.864 227.18C172.701 221.607 168.473 214.157 166.811 205.941L166.021 202.037C161.403 179.216 138.239 165.61 116.502 172.953L112.785 174.209C104.959 176.852 96.5028 176.852 88.677 174.209L84.9593 172.953C71.3812 168.366 57.246 171.954 47.4224 180.855C46.7807 186.314 46.4507 191.869 46.4507 197.5Z" fill="#C4E0F8"/>
</g>
<path d="M325.902 170.162H234.395C234.395 166.967 233.877 163.773 232.841 160.702L231.857 157.784C226.101 140.725 236.765 122.546 254.652 118.922L257.712 118.302C264.152 116.997 269.991 113.679 274.359 108.842L276.434 106.544C279.739 102.884 283.725 100.222 288.023 98.5558C307.004 117.838 320.48 142.556 325.902 170.162Z" fill="#E2F0FD"/>
<path d="M217.297 258.448L216.601 260.519C215.869 262.698 215.502 264.965 215.502 267.232H123.839C123.839 264.965 123.473 262.698 122.741 260.519L122.045 258.448C117.977 246.342 125.515 233.44 138.159 230.868L140.322 230.428C144.874 229.502 149.002 227.148 152.09 223.715L153.556 222.084C162.133 212.549 177.209 212.549 185.785 222.084L187.252 223.715C190.34 227.148 194.467 229.502 199.02 230.428L201.182 230.868C213.827 233.44 221.365 246.342 217.297 258.448Z" fill="url(#paint4_linear_2583_241148)"/>
<path d="M205.832 186.495L206.428 188.29C207.056 190.179 207.369 192.145 207.369 194.111H285.899C285.899 192.145 286.213 190.179 286.84 188.29L287.437 186.495C290.922 175.998 284.464 164.812 273.631 162.583L271.778 162.201C267.878 161.398 264.342 159.357 261.697 156.381L260.44 154.967C253.092 146.7 240.176 146.7 232.829 154.967L231.572 156.381C228.927 159.357 225.39 161.398 221.49 162.201L219.638 162.583C208.805 164.812 202.347 175.998 205.832 186.495Z" fill="url(#paint5_linear_2583_241148)"/>
<path d="M266.99 193.934H328.505C328.114 178.171 325.137 163.05 319.982 148.979C316.819 149.479 313.57 149.202 310.503 148.149L308.527 147.47C296.971 143.501 284.656 150.855 282.201 163.191L281.781 165.301C280.897 169.742 278.649 173.769 275.372 176.782L273.816 178.213C269.265 182.396 266.99 188.165 266.99 193.934Z" fill="white"/>
<path d="M152.533 257.799L151.606 256.941C149.656 255.133 148.318 252.717 147.792 250.052L147.542 248.786C146.081 241.385 138.75 236.972 131.871 239.354L130.695 239.761C128.218 240.618 125.542 240.618 123.066 239.761L121.889 239.354C115.011 236.972 107.68 241.385 106.219 248.786L105.969 250.052C105.443 252.717 104.105 255.133 102.155 256.941L101.228 257.799C98.5194 260.309 97.165 263.771 97.165 267.232H156.596C156.596 263.771 155.242 260.309 152.533 257.799Z" fill="white"/>
<path d="M274.617 308.438C250.632 327.299 220.38 338.549 187.5 338.549C154.62 338.549 124.368 327.299 100.383 308.438H274.617Z" fill="#FA5F2E"/>
</g>
<defs>
<linearGradient id="paint0_linear_2583_241148" x1="187.5" y1="20" x2="187.5" y2="346.473" gradientUnits="userSpaceOnUse">
<stop stop-color="white" stop-opacity="0.3"/>
<stop offset="0.315583" stop-color="#C4E0F8"/>
<stop offset="1" stop-color="white" stop-opacity="0.15"/>
</linearGradient>
<linearGradient id="paint1_linear_2583_241148" x1="187.5" y1="37.433" x2="187.5" y2="283.08" gradientUnits="userSpaceOnUse">
<stop stop-color="white" stop-opacity="0.8"/>
<stop offset="0.45" stop-color="#E5F7FA"/>
<stop offset="1" stop-color="white" stop-opacity="0.65"/>
</linearGradient>
<linearGradient id="paint2_linear_2583_241148" x1="187.5" y1="308.437" x2="187.5" y2="362.321" gradientUnits="userSpaceOnUse">
<stop stop-color="#FA5F2E"/>
<stop offset="1" stop-color="#FCA58D"/>
</linearGradient>
<linearGradient id="paint3_linear_2583_241148" x1="187.5" y1="56.4509" x2="187.5" y2="311.607" gradientUnits="userSpaceOnUse">
<stop stop-color="#45C5DE"/>
<stop offset="0.35" stop-color="#59AAF3"/>
<stop offset="1" stop-color="#774FC4"/>
</linearGradient>
<linearGradient id="paint4_linear_2583_241148" x1="203.348" y1="222.065" x2="144.973" y2="248.79" gradientUnits="userSpaceOnUse">
<stop stop-color="white"/>
<stop offset="1" stop-color="#E2F0FD"/>
</linearGradient>
<linearGradient id="paint5_linear_2583_241148" x1="217.782" y1="154.95" x2="276.25" y2="179.275" gradientUnits="userSpaceOnUse">
<stop stop-color="white"/>
<stop offset="1" stop-color="#E2F0FD"/>
</linearGradient>
<clipPath id="clip0_2583_241148">
<rect width="355" height="355" fill="white" transform="translate(10 20)"/>
</clipPath>
</defs>
</svg>
