<svg width="375" height="250" viewBox="0 0 375 250" fill="none" xmlns="http://www.w3.org/2000/svg">
<rect width="375" height="250" fill="#FEDDED"/>
<g clip-path="url(#clip0_2583_240085)">
<path fill-rule="evenodd" clip-rule="evenodd" d="M187 250C254.103 250 308.5 195.603 308.5 128.5C308.5 61.3974 254.103 7 187 7C119.897 7 65.5 61.3974 65.5 128.5C65.5 195.603 119.897 250 187 250ZM187 238.067C247.512 238.067 296.567 189.012 296.567 128.5C296.567 67.9878 247.512 18.933 187 18.933C126.488 18.933 77.433 67.9878 77.433 128.5C77.433 189.012 126.488 238.067 187 238.067Z" fill="url(#paint0_linear_2583_240085)"/>
<path fill-rule="evenodd" clip-rule="evenodd" d="M187 238.067C247.512 238.067 296.567 189.012 296.567 128.5C296.567 67.9878 247.512 18.933 187 18.933C126.488 18.933 77.4331 67.9878 77.4331 128.5C77.4331 189.012 126.488 238.067 187 238.067ZM187 225.049C240.323 225.049 283.549 181.823 283.549 128.5C283.549 75.1774 240.323 31.9509 187 31.9509C133.677 31.9509 90.451 75.1774 90.451 128.5C90.451 181.823 133.677 225.049 187 225.049Z" fill="url(#paint1_linear_2583_240085)"/>
<path d="M108.893 241.321H265.107L246.665 204.438H127.335L108.893 241.321Z" fill="url(#paint2_linear_2583_240085)"/>
<path d="M108.893 241.321H265.107C265.107 246.114 261.222 250 256.429 250H117.571C112.778 250 108.893 246.114 108.893 241.321Z" fill="#E60023"/>
<path d="M283.549 128.5C283.549 181.823 240.323 225.049 187 225.049C133.677 225.049 90.4509 181.823 90.4509 128.5C90.4509 75.1774 133.677 31.9509 187 31.9509C240.323 31.9509 283.549 75.1774 283.549 128.5Z" fill="url(#paint3_linear_2583_240085)"/>
<g opacity="0.8">
<path d="M253.147 97.4113L251.904 96.2848C249.287 93.9135 247.492 90.7435 246.786 87.2473L246.451 85.5865C244.491 75.8757 234.656 70.0866 225.427 73.2109L223.849 73.7453C220.526 74.8701 216.936 74.8701 213.613 73.7453L212.035 73.2109C202.806 70.0866 192.972 75.8757 191.011 85.5865L190.676 87.2473C189.97 90.7435 188.175 93.9135 185.558 96.2848L184.315 97.4112C180.681 100.704 178.864 105.246 178.864 109.787H258.598C258.598 105.246 256.781 100.704 253.147 97.4113Z" fill="#C4E0F8"/>
<path d="M90.4509 128.5C90.4509 143.568 93.9025 157.829 100.058 170.537H191.882C191.882 163.231 188.952 155.926 183.093 150.628L181.089 148.816C176.87 145.001 173.976 139.902 172.838 134.278L172.297 131.606C169.137 115.984 153.281 106.671 138.402 111.697L135.857 112.557C130.5 114.366 124.712 114.366 119.355 112.557L116.81 111.697C107.516 108.558 97.8404 111.013 91.1161 117.107C90.6768 120.843 90.4509 124.645 90.4509 128.5Z" fill="#C4E0F8"/>
</g>
<path d="M281.737 109.787H219.1C219.1 107.6 218.745 105.413 218.036 103.311L217.363 101.314C213.423 89.6369 220.723 77.1929 232.967 74.7123L235.061 74.2881C239.469 73.395 243.466 71.1236 246.456 67.8127L247.876 66.2398C250.138 63.7348 252.867 61.9121 255.809 60.7718C268.802 73.9706 278.026 90.8902 281.737 109.787Z" fill="#E2F0FD"/>
<path d="M207.396 170.219L206.92 171.637C206.418 173.128 206.168 174.68 206.168 176.232H143.424C143.424 174.68 143.173 173.128 142.672 171.637L142.195 170.219C139.411 161.932 144.571 153.101 153.226 151.341L154.706 151.04C157.822 150.406 160.648 148.794 162.761 146.444L163.765 145.328C169.636 138.801 179.956 138.801 185.826 145.328L186.83 146.444C188.944 148.794 191.769 150.406 194.885 151.04L196.366 151.341C205.021 153.101 210.181 161.932 207.396 170.219Z" fill="url(#paint4_linear_2583_240085)"/>
<path d="M199.548 120.967L199.956 122.196C200.386 123.489 200.601 124.834 200.601 126.18H254.355C254.355 124.834 254.57 123.489 254.999 122.196L255.407 120.967C257.793 113.782 253.372 106.125 245.957 104.599L244.689 104.338C242.019 103.788 239.599 102.391 237.788 100.353L236.928 99.3857C231.898 93.7271 223.057 93.7271 218.028 99.3857L217.168 100.353C215.357 102.391 212.936 103.788 210.267 104.338L208.998 104.599C201.583 106.125 197.163 113.782 199.548 120.967Z" fill="url(#paint5_linear_2583_240085)"/>
<path d="M241.412 126.059H283.519C283.251 115.269 281.213 104.919 277.685 95.2873C275.52 95.6292 273.296 95.4397 271.197 94.7187L269.844 94.254C261.934 91.5372 253.504 96.5712 251.823 105.015L251.536 106.46C250.931 109.5 249.392 112.256 247.15 114.318L246.084 115.298C242.969 118.161 241.412 122.11 241.412 126.059Z" fill="white"/>
<path d="M163.065 169.775L162.431 169.188C161.096 167.95 160.18 166.296 159.82 164.472L159.649 163.606C158.648 158.539 153.631 155.519 148.922 157.149L148.117 157.428C146.422 158.015 144.59 158.015 142.895 157.428L142.089 157.149C137.381 155.519 132.363 158.539 131.363 163.606L131.192 164.472C130.832 166.296 129.916 167.95 128.581 169.188L127.946 169.775C126.092 171.494 125.165 173.863 125.165 176.232H165.846C165.846 173.863 164.919 171.494 163.065 169.775Z" fill="white"/>
<path d="M246.632 204.438C230.214 217.348 209.507 225.049 187 225.049C164.494 225.049 143.786 217.348 127.368 204.438H246.632Z" fill="#FCA58D"/>
</g>
<defs>
<linearGradient id="paint0_linear_2583_240085" x1="187" y1="7" x2="187" y2="230.473" gradientUnits="userSpaceOnUse">
<stop stop-color="white" stop-opacity="0.5"/>
<stop offset="0.315583" stop-color="#E2E6FD"/>
<stop offset="1" stop-color="white" stop-opacity="0.25"/>
</linearGradient>
<linearGradient id="paint1_linear_2583_240085" x1="187" y1="18.933" x2="187" y2="187.08" gradientUnits="userSpaceOnUse">
<stop stop-color="white"/>
<stop offset="0.45" stop-color="#E5F7FA"/>
<stop offset="1" stop-color="white" stop-opacity="0.75"/>
</linearGradient>
<linearGradient id="paint2_linear_2583_240085" x1="187" y1="204.437" x2="187" y2="241.321" gradientUnits="userSpaceOnUse">
<stop stop-color="#FCA58D"/>
<stop offset="1" stop-color="#FDC9B9"/>
</linearGradient>
<linearGradient id="paint3_linear_2583_240085" x1="187" y1="31.9509" x2="187" y2="206.607" gradientUnits="userSpaceOnUse">
<stop stop-color="#79D8EC"/>
<stop offset="0.35" stop-color="#83C3FC"/>
<stop offset="1" stop-color="#B497ED"/>
</linearGradient>
<linearGradient id="paint4_linear_2583_240085" x1="197.848" y1="145.315" x2="157.89" y2="163.608" gradientUnits="userSpaceOnUse">
<stop stop-color="white"/>
<stop offset="1" stop-color="#E2F0FD"/>
</linearGradient>
<linearGradient id="paint5_linear_2583_240085" x1="207.728" y1="99.3742" x2="247.75" y2="116.025" gradientUnits="userSpaceOnUse">
<stop stop-color="white"/>
<stop offset="1" stop-color="#E2F0FD"/>
</linearGradient>
<clipPath id="clip0_2583_240085">
<rect width="243" height="243" fill="white" transform="translate(65.5 7)"/>
</clipPath>
</defs>
</svg>
