<svg width="220" height="220" viewBox="0 0 220 220" fill="none" xmlns="http://www.w3.org/2000/svg">
<path d="M20 110C20 60.2944 60.2944 20 110 20C159.706 20 200 60.2944 200 110V192C200 196.418 196.418 200 192 200H28C23.5817 200 20 196.418 20 192V110Z" fill="#FEDDED"/>
<g clip-path="url(#clip0_2579_234692)">
<path fill-rule="evenodd" clip-rule="evenodd" d="M110 200C165.228 200 210 155.228 210 100C210 44.7715 165.228 0 110 0C54.7715 0 10 44.7715 10 100C10 155.228 54.7715 200 110 200ZM110 190.179C159.804 190.179 200.179 149.804 200.179 100C200.179 50.1958 159.804 9.82143 110 9.82143C60.1958 9.82143 19.8214 50.1958 19.8214 100C19.8214 149.804 60.1958 190.179 110 190.179Z" fill="url(#paint0_linear_2579_234692)"/>
<path fill-rule="evenodd" clip-rule="evenodd" d="M110 190.179C159.804 190.179 200.179 149.804 200.179 100C200.179 50.1957 159.804 9.82141 110 9.82141C60.1958 9.82141 19.8214 50.1957 19.8214 100C19.8214 149.804 60.1958 190.179 110 190.179ZM110 179.464C153.887 179.464 189.464 143.887 189.464 100C189.464 56.1131 153.887 20.5357 110 20.5357C66.1131 20.5357 30.5357 56.1131 30.5357 100C30.5357 143.887 66.1131 179.464 110 179.464Z" fill="url(#paint1_linear_2579_234692)"/>
<path d="M45.7143 192.857H174.286L159.107 162.5H60.8929L45.7143 192.857Z" fill="url(#paint2_linear_2579_234692)"/>
<path d="M45.7143 192.857H174.286C174.286 196.802 171.088 200 167.143 200H52.8571C48.9123 200 45.7143 196.802 45.7143 192.857Z" fill="#E60023"/>
<path d="M189.464 100C189.464 143.887 153.887 179.464 110 179.464C66.1131 179.464 30.5357 143.887 30.5357 100C30.5357 56.1131 66.1131 20.5357 110 20.5357C153.887 20.5357 189.464 56.1131 189.464 100Z" fill="url(#paint3_linear_2579_234692)"/>
<g opacity="0.8">
<path d="M164.442 74.4126L163.419 73.4854C161.265 71.5337 159.788 68.9247 159.207 66.0472L158.931 64.6803C157.317 56.6879 149.223 51.9231 141.627 54.4946L140.328 54.9344C137.593 55.8602 134.639 55.8602 131.904 54.9344L130.605 54.4946C123.009 51.9232 114.915 56.6879 113.301 64.6803L113.025 66.0472C112.444 68.9247 110.967 71.5337 108.813 73.4854L107.79 74.4126C104.799 77.123 103.304 80.8606 103.304 84.5983H168.929C168.929 80.8606 167.433 77.123 164.442 74.4126Z" fill="#C4E0F8"/>
<path d="M30.5357 100C30.5357 112.401 33.3765 124.139 38.4429 134.598H114.018C114.018 128.586 111.607 122.573 106.784 118.213L105.135 116.721C101.663 113.581 99.2807 109.384 98.3441 104.755L97.8991 102.556C95.2976 89.699 82.2474 82.034 70.0014 86.1707L67.907 86.8782C63.4981 88.3675 58.7341 88.3675 54.3252 86.8782L52.2307 86.1707C44.5811 83.5866 36.6176 85.6077 31.0832 90.6228C30.7216 93.6983 30.5357 96.8274 30.5357 100Z" fill="#C4E0F8"/>
</g>
<path d="M187.973 84.598H136.42C136.42 82.7983 136.128 80.9985 135.544 79.2684L134.99 77.6247C131.747 68.0139 137.755 57.772 147.832 55.7303L149.556 55.3811C153.184 54.6461 156.474 52.7767 158.935 50.0516L160.104 48.757C161.965 46.6953 164.212 45.1951 166.633 44.2566C177.326 55.1198 184.918 69.0454 187.973 84.598Z" fill="#E2F0FD"/>
<path d="M126.787 134.337L126.395 135.503C125.982 136.731 125.776 138.008 125.776 139.286H74.1347C74.1347 138.008 73.9284 136.731 73.5158 135.503L73.1239 134.337C70.8319 127.516 75.0787 120.248 82.2024 118.799L83.4208 118.551C85.9855 118.029 88.3109 116.703 90.0505 114.769L90.8768 113.85C95.7085 108.479 104.202 108.479 109.034 113.85L109.86 114.769C111.6 116.703 113.925 118.029 116.49 118.551L117.708 118.799C124.832 120.248 129.079 127.516 126.787 134.337Z" fill="url(#paint4_linear_2579_234692)"/>
<path d="M120.328 93.7998L120.664 94.8112C121.017 95.8757 121.194 96.9831 121.194 98.0905H165.436C165.436 96.9831 165.613 95.8757 165.966 94.8112L166.302 93.7998C168.266 87.8863 164.627 81.5845 158.524 80.3283L157.481 80.1134C155.283 79.6611 153.291 78.5109 151.801 76.8341L151.093 76.0376C146.953 71.3804 139.677 71.3804 135.537 76.0376L134.829 76.8341C133.339 78.5109 131.347 79.6611 129.149 80.1134L128.106 80.3283C122.003 81.5845 118.364 87.8863 120.328 93.7998Z" fill="url(#paint5_linear_2579_234692)"/>
<path d="M154.783 97.991H189.439C189.219 89.1105 187.542 80.5917 184.638 72.6644C182.856 72.9458 181.026 72.7898 179.298 72.1964L178.184 71.814C171.674 69.5779 164.736 73.7212 163.353 80.6711L163.116 81.8597C162.618 84.3619 161.352 86.6306 159.506 88.3277L158.629 89.1339C156.065 91.4909 154.783 94.7409 154.783 97.991Z" fill="white"/>
<path d="M90.3002 133.971L89.7782 133.488C88.6794 132.469 87.9256 131.108 87.6292 129.607L87.4884 128.894C86.6652 124.724 82.5354 122.238 78.66 123.579L77.9972 123.809C76.602 124.292 75.0944 124.292 73.6992 123.809L73.0364 123.579C69.1611 122.238 65.0313 124.724 64.208 128.894L64.0672 129.607C63.7708 131.108 63.017 132.469 61.9182 133.488L61.3962 133.971C59.8702 135.386 59.1071 137.336 59.1071 139.286H92.5893C92.5893 137.336 91.8263 135.386 90.3002 133.971Z" fill="white"/>
<path d="M159.08 162.5C145.567 173.126 128.524 179.464 110 179.464C91.4761 179.464 74.4326 173.126 60.9199 162.5H159.08Z" fill="#FCA58D"/>
</g>
<defs>
<linearGradient id="paint0_linear_2579_234692" x1="110" y1="0" x2="110" y2="183.929" gradientUnits="userSpaceOnUse">
<stop stop-color="white" stop-opacity="0.5"/>
<stop offset="0.315583" stop-color="#BDEEF6"/>
<stop offset="1" stop-color="white" stop-opacity="0.25"/>
</linearGradient>
<linearGradient id="paint1_linear_2579_234692" x1="110" y1="9.82141" x2="110" y2="148.214" gradientUnits="userSpaceOnUse">
<stop stop-color="white"/>
<stop offset="0.45" stop-color="#E5F7FA"/>
<stop offset="1" stop-color="white" stop-opacity="0.75"/>
</linearGradient>
<linearGradient id="paint2_linear_2579_234692" x1="110" y1="162.5" x2="110" y2="192.857" gradientUnits="userSpaceOnUse">
<stop stop-color="#FCA58D"/>
<stop offset="1" stop-color="#FDC9B9"/>
</linearGradient>
<linearGradient id="paint3_linear_2579_234692" x1="110" y1="20.5357" x2="110" y2="164.286" gradientUnits="userSpaceOnUse">
<stop stop-color="#79D8EC"/>
<stop offset="0.35" stop-color="#83C3FC"/>
<stop offset="1" stop-color="#B497ED"/>
</linearGradient>
<linearGradient id="paint4_linear_2579_234692" x1="118.929" y1="113.839" x2="86.0412" y2="128.895" gradientUnits="userSpaceOnUse">
<stop stop-color="white"/>
<stop offset="1" stop-color="#E2F0FD"/>
</linearGradient>
<linearGradient id="paint5_linear_2579_234692" x1="127.06" y1="76.0282" x2="160" y2="89.7322" gradientUnits="userSpaceOnUse">
<stop stop-color="white"/>
<stop offset="1" stop-color="#E2F0FD"/>
</linearGradient>
<clipPath id="clip0_2579_234692">
<rect width="200" height="200" fill="white" transform="translate(10)"/>
</clipPath>
</defs>
</svg>
