<svg width="375" height="250" viewBox="0 0 375 250" fill="none" xmlns="http://www.w3.org/2000/svg">
<rect width="375" height="250" fill="#544A3B"/>
<path d="M129.762 40.6943C128.155 41.979 126.272 42.8663 124.336 43.5285V43.5418C115.512 46.5349 102.106 41.4095 107.242 29.9005C108.612 26.8411 111.865 25.3976 114.446 23.5699C118.699 20.5503 122.058 16.6036 127.049 14.6964C130.104 13.531 133.396 13.1336 136.649 12.7496C154.639 10.6173 177.237 7.20034 193.989 14.1269C200.177 16.6953 315.356 72.6889 351.269 99.7506L356.808 138.774C334.565 126.881 247.891 64.2421 222.751 62.5999C220.828 62.4807 218.787 62.3482 217.219 61.2225C216.224 60.5041 215.526 59.4627 214.837 58.4352L214.77 58.3353C208.554 49.0513 201.179 40.5619 192.882 33.1188C184.875 25.9273 175.433 19.504 164.74 18.5637C154.191 17.6233 143.313 22.5766 137.058 31.1719C134.687 34.4167 132.896 38.1912 129.762 40.6943Z" fill="#5D7E1B"/>
<path d="M248.831 73.1429C250.248 74.6338 251.993 75.7686 253.821 76.6875L253.82 76.7006C262.155 80.864 276.133 77.6062 272.607 65.5064C271.666 62.2894 268.639 60.4176 266.33 58.2564C262.525 54.6872 259.734 50.3212 255.048 47.754C252.179 46.1846 248.971 45.3439 245.801 44.5218C228.268 39.9669 206.342 33.5135 188.805 38.1017C182.4 39.7867 63.3721 78.7404 22.731 100.822L22.731 134.326C57.0965 118.782 131.793 80.6618 153.729 82.2209C155.65 82.3638 157.69 82.5097 159.396 81.6072C160.479 81.0305 161.312 80.0936 162.135 79.1692L162.215 79.0793C169.633 70.7251 178.093 63.3156 187.323 57.0678C196.232 51.03 206.459 45.9481 217.181 46.4683C227.76 46.9689 237.865 53.3531 242.895 62.7181C244.803 66.2547 246.065 70.2374 248.831 73.1429Z" fill="#FA5F2E"/>
<path d="M260.098 78.3721C267.6 78.9292 275.333 74.8594 272.608 65.5064C271.877 63.0096 269.89 61.323 267.957 59.6826C267.4 59.2095 266.847 58.7402 266.33 58.2564C265.075 57.079 263.93 55.8148 262.791 54.5572C260.478 52.0024 258.189 49.4743 255.048 47.754C252.18 46.1846 248.972 45.3439 245.801 44.5218C244.574 44.2029 243.324 43.8747 242.057 43.5416C227.874 39.815 211.374 35.4794 196.776 36.7547C200.306 40.1842 203.649 43.8098 206.784 47.6098C210.177 46.7328 213.652 46.2971 217.182 46.4683C227.76 46.9689 237.865 53.3531 242.896 62.7181C243.465 63.7743 243.978 64.8702 244.489 65.9654C245.422 67.9611 246.353 69.9541 247.63 71.6991C251.573 73.6879 255.754 75.935 260.098 78.3721Z" fill="#E60023"/>
<path d="M132.086 71.0849C140.791 71.0849 148.857 75.6556 153.33 83.1236L164.036 100.996C168.872 109.069 177.59 114.009 187 114.009C196.41 114.009 205.129 109.069 209.964 100.996L220.67 83.1236C225.143 75.6556 233.209 71.0849 241.914 71.0849H317.989C325.524 71.0849 332.648 74.5148 337.347 80.4041L356.594 104.526C360.094 108.913 362 114.359 362 119.971V170.783C362 176.396 360.094 181.841 356.594 186.228L337.347 210.351C332.648 216.24 325.524 219.67 317.989 219.67H244.074C234.237 219.67 225.332 213.848 221.388 204.836L198.713 153.036C196.677 148.384 192.079 145.377 187 145.377C181.921 145.377 177.324 148.384 175.287 153.036L152.612 204.836C148.668 213.848 139.763 219.67 129.926 219.67H56.0108C48.4766 219.67 41.3521 216.24 36.6532 210.351L17.4066 186.228C13.9063 181.841 12 176.396 12 170.783V119.971C12 114.359 13.9063 108.913 17.4066 104.526L36.6532 80.4041C41.3521 74.5148 48.4766 71.0849 56.0108 71.0849H132.086Z" fill="url(#paint0_linear_2583_241187)"/>
<path d="M304.919 71.0849H246.403C246.81 71.2869 247.219 71.4917 247.63 71.6994C247.999 72.2032 248.396 72.6864 248.831 73.1429C250.248 74.6338 251.994 75.7686 253.822 76.6875L253.82 76.7006C255.712 77.6457 257.895 78.2083 260.098 78.372C280.289 89.7003 303.982 105.133 323.443 117.809C338.026 127.307 350.232 135.258 356.807 138.774L351.269 99.7506C340.909 91.944 323.952 81.7297 304.919 71.0849Z" fill="#13434E"/>
<path d="M152.734 82.1777C148.163 75.2715 140.417 71.0849 132.086 71.0849H93.1443C66.2894 81.0876 40.1546 91.6165 24.3818 99.9385L24.3818 133.577C30.6963 130.697 38.2329 127.139 46.4725 123.248C83.2909 105.864 134.147 81.8506 152.734 82.1777Z" fill="#13434E"/>
<path fill-rule="evenodd" clip-rule="evenodd" d="M153.33 83.1236C148.857 75.6556 140.791 71.0849 132.086 71.0849H56.0108C48.4766 71.0849 41.3521 74.5148 36.6532 80.4041L17.4066 104.526C13.9063 108.913 12 114.359 12 119.971V170.783C12 176.396 13.9063 181.841 17.4066 186.228L36.6532 210.351C41.3521 216.24 48.4766 219.67 56.0108 219.67H129.926C139.763 219.67 148.668 213.848 152.612 204.836L175.287 153.036C177.324 148.384 181.921 145.377 187 145.377C192.079 145.377 196.677 148.384 198.713 153.036L221.388 204.836C225.332 213.848 234.237 219.67 244.074 219.67H317.989C325.524 219.67 332.648 216.24 337.347 210.351L356.594 186.228C360.094 181.841 362 176.396 362 170.783V119.971C362 114.359 360.094 108.913 356.594 104.526L337.347 80.4041C332.648 74.5148 325.524 71.0849 317.989 71.0849H241.914C233.209 71.0849 225.143 75.6556 220.67 83.1236L209.964 100.996C205.129 109.069 196.41 114.009 187 114.009C177.59 114.009 168.872 109.069 164.036 100.996L153.33 83.1236ZM124.201 85.9434C129.978 85.9434 135.334 88.9622 138.325 93.9036L154.976 121.412C160.56 130.637 161.288 142.007 156.926 151.868L137.855 194.981C135.211 200.957 129.292 204.811 122.757 204.811H60.6964C55.7032 204.811 50.9783 202.552 47.8442 198.665L30.5158 177.173C28.1491 174.238 26.8585 170.581 26.8585 166.811V123.944C26.8585 120.174 28.1491 116.517 30.5158 113.582L47.8442 92.0902C50.9783 88.2032 55.7032 85.9434 60.6964 85.9434H124.201ZM249.799 85.9434C244.023 85.9434 238.666 88.9622 235.675 93.9036L219.024 121.412C213.44 130.637 212.712 142.007 217.074 151.868L236.145 194.981C238.789 200.957 244.709 204.811 251.243 204.811H313.304C318.297 204.811 323.022 202.552 326.156 198.665L343.484 177.173C345.851 174.238 347.142 170.581 347.142 166.811V123.944C347.142 120.174 345.851 116.517 343.484 113.582L326.156 92.0902C323.022 88.2032 318.297 85.9434 313.304 85.9434H249.799Z" fill="url(#paint1_linear_2583_241187)"/>
<path d="M197.862 196.77L198.463 198.665C199.096 200.66 199.412 202.736 199.412 204.811H278.597C278.597 202.736 278.914 200.66 279.546 198.665L280.147 196.77C283.662 185.687 277.15 173.876 266.227 171.522L264.358 171.119C260.426 170.271 256.86 168.116 254.193 164.973L252.926 163.48C245.517 154.752 232.493 154.752 225.084 163.48L223.817 164.973C221.15 168.116 217.584 170.271 213.651 171.119L211.783 171.522C200.86 173.876 194.348 185.687 197.862 196.77Z" fill="url(#paint2_linear_2583_241187)"/>
<path d="M353.761 174.148L351.882 172.409C347.927 168.748 345.213 163.853 344.147 158.456L343.64 155.892C340.676 140.899 325.811 131.961 311.862 136.785L309.476 137.61C304.454 139.346 299.028 139.346 294.006 137.61L291.62 136.785C277.671 131.961 262.805 140.899 259.842 155.892L259.335 158.456C258.268 163.853 255.555 168.748 251.6 172.409L249.721 174.148C244.228 179.232 241.481 186.244 241.481 193.255H362C362 186.244 359.254 179.232 353.761 174.148Z" fill="white"/>
<path d="M140.943 221.231L140.012 223.976C139.032 226.866 138.542 229.872 138.542 232.877H15.8828C15.8828 229.872 15.3929 226.866 14.4129 223.976L13.4818 221.231C8.0379 205.18 18.125 188.075 35.0452 184.665L37.9391 184.082C44.0308 182.854 49.5543 179.732 53.6861 175.181L55.6489 173.019C67.1252 160.377 87.2994 160.377 98.7757 173.019L100.739 175.181C104.87 179.732 110.394 182.854 116.485 184.082L119.379 184.665C136.3 188.075 146.387 205.18 140.943 221.231Z" fill="url(#paint3_linear_2583_241187)"/>
<path d="M181.131 225.833L179.792 224.591C176.975 221.976 175.042 218.48 174.282 214.625L173.921 212.793C171.81 202.084 161.221 195.7 151.285 199.145L149.586 199.735C146.008 200.975 142.143 200.975 138.565 199.735L136.866 199.145C126.929 195.7 116.34 202.084 114.23 212.793L113.869 214.625C113.109 218.48 111.176 221.976 108.358 224.591L107.02 225.833C103.107 229.465 101.151 234.473 101.151 239.481H187C187 234.473 185.044 229.465 181.131 225.833Z" fill="white"/>
<defs>
<linearGradient id="paint0_linear_2583_241187" x1="187" y1="94.1981" x2="187" y2="181.698" gradientUnits="userSpaceOnUse">
<stop stop-color="#A13012"/>
<stop offset="1" stop-color="#4E490E"/>
</linearGradient>
<linearGradient id="paint1_linear_2583_241187" x1="187" y1="71.0849" x2="187" y2="219.67" gradientUnits="userSpaceOnUse">
<stop stop-color="#E68800"/>
<stop offset="1" stop-color="#9FC157"/>
</linearGradient>
<linearGradient id="paint2_linear_2583_241187" x1="209.912" y1="163.463" x2="269.643" y2="187.194" gradientUnits="userSpaceOnUse">
<stop stop-color="white"/>
<stop offset="1" stop-color="#C4E0F8"/>
</linearGradient>
<linearGradient id="paint3_linear_2583_241187" x1="50.7972" y1="176.428" x2="124.264" y2="218.844" gradientUnits="userSpaceOnUse">
<stop stop-color="white"/>
<stop offset="1" stop-color="#C4E0F8"/>
</linearGradient>
</defs>
</svg>
