<svg width="375" height="375" viewBox="0 0 375 375" fill="none" xmlns="http://www.w3.org/2000/svg">
<g clip-path="url(#clip0_2583_240077)">
<rect width="375" height="375" fill="#F0E7DB"/>
<path d="M100.324 59.73C97.8915 61.6753 95.0398 63.019 92.1083 64.0218V64.0418C78.7471 68.5743 58.446 60.813 66.2234 43.385C68.2974 38.7523 73.2231 36.5663 77.1317 33.7987C83.5731 29.2261 88.6583 23.2497 96.2164 20.3617C100.843 18.5969 105.829 17.9952 110.754 17.4136C137.995 14.1847 172.216 9.01052 197.582 19.4994C206.953 23.3887 381.366 108.179 435.75 149.158L444.137 208.25C410.455 190.24 279.206 95.388 241.136 92.9012C238.225 92.7207 235.134 92.5201 232.76 90.8155C231.254 89.7276 230.196 88.1506 229.153 86.5947L229.051 86.4434C219.638 72.3848 208.471 59.5294 195.907 48.2584C183.782 37.3685 169.484 27.6418 153.291 26.2178C137.317 24.7939 120.845 32.2945 111.372 45.3103C107.783 50.2238 105.071 55.9396 100.324 59.73Z" fill="#9FC157"/>
<path d="M280.63 108.866C282.776 111.124 285.419 112.842 288.187 114.234L288.184 114.254C300.806 120.558 321.973 115.625 316.634 97.3026C315.208 92.4311 310.625 89.5966 307.128 86.324C301.367 80.9192 297.14 74.3077 290.044 70.4204C285.7 68.0437 280.843 66.7708 276.041 65.5258C249.491 58.6284 216.29 48.8561 189.734 55.8039C180.034 58.3556 -0.207718 117.343 -61.75 150.78L-61.75 201.516C-9.71073 177.977 103.401 120.252 136.618 122.613C139.527 122.829 142.617 123.05 145.199 121.684C146.84 120.811 148.102 119.392 149.347 117.992L149.468 117.856C160.702 105.205 173.512 93.9851 187.489 84.5241C200.98 75.3812 216.467 67.6857 232.703 68.4735C248.722 69.2314 264.024 78.899 271.642 93.0803C274.531 98.4357 276.442 104.467 280.63 108.866Z" fill="#FA5F2E"/>
<path d="M297.691 116.785C309.051 117.629 320.761 111.466 316.634 97.3026C315.528 93.5216 312.519 90.9677 309.592 88.4836C308.748 87.7672 307.911 87.0566 307.128 86.324C305.228 84.541 303.494 82.6267 301.77 80.7223C298.267 76.8536 294.8 73.0253 290.045 70.4204C285.701 68.0437 280.843 66.7708 276.042 65.5258C274.183 65.0429 272.291 64.5459 270.372 64.0415C248.895 58.3984 223.909 51.8331 201.804 53.7642C207.149 58.9575 212.211 64.4477 216.959 70.2019C222.096 68.874 227.359 68.2142 232.704 68.4735C248.723 69.2314 264.024 78.899 271.642 93.0803C272.505 94.6796 273.28 96.3392 274.055 97.9976C275.468 101.02 276.878 104.038 278.811 106.68C284.782 109.692 291.114 113.094 297.691 116.785Z" fill="#E60023"/>
<path d="M103.844 105.75C117.026 105.75 129.241 112.671 136.014 123.98L152.226 151.045C159.548 163.268 172.751 170.75 187 170.75C201.249 170.75 214.452 163.268 221.774 151.045L237.986 123.98C244.759 112.671 256.974 105.75 270.156 105.75H385.355C396.764 105.75 407.552 110.944 414.668 119.862L443.813 156.39C449.113 163.033 452 171.279 452 179.778V256.722C452 265.221 449.113 273.467 443.813 280.11L414.668 316.638C407.552 325.556 396.764 330.75 385.355 330.75H273.426C258.53 330.75 245.046 321.933 239.073 308.287L204.737 229.848C201.653 222.802 194.691 218.25 187 218.25C179.309 218.25 172.347 222.802 169.263 229.848L134.927 308.287C128.954 321.933 115.47 330.75 100.574 330.75H-11.3552C-22.7641 330.75 -33.5525 325.556 -40.6681 316.638L-69.8129 280.11C-75.1133 273.467 -78 265.221 -78 256.722V179.778C-78 171.279 -75.1133 163.033 -69.8129 156.39L-40.668 119.862C-33.5525 110.944 -22.7641 105.75 -11.3551 105.75H103.844Z" fill="url(#paint0_linear_2583_240077)"/>
<path d="M365.563 105.75H276.954C277.569 106.056 278.189 106.366 278.812 106.68C279.37 107.443 279.972 108.175 280.63 108.866C282.776 111.124 285.419 112.842 288.188 114.234L288.185 114.254C291.05 115.685 294.355 116.537 297.691 116.785C328.266 133.939 364.145 157.309 393.615 176.504C415.697 190.887 434.18 202.926 444.137 208.25L435.75 149.158C420.062 137.337 394.385 121.869 365.563 105.75Z" fill="#1A5866"/>
<path d="M135.112 122.548C128.19 112.09 116.46 105.75 103.844 105.75H44.876C4.21001 120.897 -35.3655 136.841 -59.25 149.443L-59.25 200.38C-49.6881 196.02 -38.2756 190.631 -25.7984 184.74C29.9552 158.415 106.966 122.052 135.112 122.548Z" fill="#1A5866"/>
<path fill-rule="evenodd" clip-rule="evenodd" d="M136.014 123.98C129.241 112.671 117.026 105.75 103.844 105.75H-11.3551C-22.7641 105.75 -33.5525 110.944 -40.668 119.862L-69.8129 156.39C-75.1133 163.033 -78 171.279 -78 179.778V256.722C-78 265.221 -75.1133 273.467 -69.8129 280.11L-40.6681 316.638C-33.5525 325.556 -22.7641 330.75 -11.3552 330.75H100.574C115.47 330.75 128.954 321.933 134.927 308.287L169.263 229.848C172.347 222.802 179.309 218.25 187 218.25C194.691 218.25 201.653 222.802 204.737 229.848L239.073 308.287C245.046 321.933 258.53 330.75 273.426 330.75H385.355C396.764 330.75 407.552 325.556 414.668 316.638L443.813 280.11C449.113 273.467 452 265.221 452 256.722V179.778C452 171.279 449.113 163.033 443.813 156.39L414.668 119.862C407.552 110.944 396.764 105.75 385.355 105.75H270.156C256.974 105.75 244.759 112.671 237.986 123.98L221.774 151.045C214.452 163.268 201.249 170.75 187 170.75C172.751 170.75 159.548 163.268 152.226 151.045L136.014 123.98ZM91.9049 128.25C100.652 128.25 108.762 132.821 113.292 140.304L138.507 181.96C146.963 195.928 148.065 213.146 141.459 228.079L112.58 293.364C108.577 302.413 99.6129 308.25 89.7174 308.25H-4.25983C-11.8209 308.25 -18.9757 304.828 -23.7216 298.942L-49.9618 266.398C-53.5456 261.953 -55.5 256.416 -55.5 250.706V185.794C-55.5 180.084 -53.5456 174.547 -49.9618 170.102L-23.7216 137.558C-18.9757 131.672 -11.8209 128.25 -4.25983 128.25H91.9049ZM282.095 128.25C273.348 128.25 265.238 132.821 260.708 140.304L235.493 181.96C227.037 195.928 225.935 213.146 232.541 228.079L261.42 293.364C265.423 302.413 274.387 308.25 284.283 308.25H378.26C385.821 308.25 392.976 304.828 397.722 298.942L423.962 266.398C427.546 261.953 429.5 256.416 429.5 250.706V185.794C429.5 180.084 427.546 174.547 423.962 170.102L397.722 137.558C392.976 131.672 385.821 128.25 378.26 128.25H282.095Z" fill="url(#paint1_linear_2583_240077)"/>
<path d="M203.449 296.073L204.359 298.943C205.317 301.964 205.796 305.107 205.796 308.25H325.704C325.704 305.107 326.183 301.964 327.141 298.943L328.051 296.073C333.373 279.29 323.512 261.405 306.972 257.84L304.143 257.23C298.187 255.947 292.788 252.682 288.749 247.924L286.83 245.663C275.611 232.446 255.889 232.446 244.67 245.663L242.751 247.924C238.712 252.682 233.313 255.947 227.357 257.23L224.528 257.84C207.988 261.405 198.127 279.29 203.449 296.073Z" fill="url(#paint2_linear_2583_240077)"/>
<path d="M439.523 261.817L436.678 259.183C430.689 253.639 426.58 246.228 424.964 238.054L424.197 234.171C419.71 211.468 397.199 197.934 376.076 205.238L372.464 206.488C364.859 209.117 356.641 209.117 349.036 206.488L345.424 205.238C324.301 197.934 301.79 211.468 297.303 234.171L296.536 238.054C294.92 246.228 290.811 253.639 284.822 259.183L281.977 261.817C273.659 269.516 269.5 280.133 269.5 290.75H452C452 280.133 447.841 269.516 439.523 261.817Z" fill="white"/>
<path d="M117.256 333.114L115.846 337.271C114.362 341.647 113.62 346.198 113.62 350.75H-72.1203C-72.1203 346.198 -72.8623 341.647 -74.3462 337.271L-75.7562 333.114C-83.9997 308.808 -68.725 282.906 -43.103 277.743L-38.7208 276.859C-29.4962 275 -21.1321 270.273 -14.8754 263.381L-11.9032 260.107C5.47523 240.964 36.0248 240.964 53.4032 260.107L56.3754 263.381C62.6321 270.273 70.9962 275 80.2208 276.859L84.603 277.743C110.225 282.906 125.5 308.808 117.256 333.114Z" fill="url(#paint3_linear_2583_240077)"/>
<path d="M178.112 340.083L176.086 338.202C171.819 334.242 168.893 328.949 167.742 323.11L167.195 320.337C163.999 304.12 147.964 294.453 132.917 299.67L130.344 300.563C124.927 302.441 119.073 302.441 113.656 300.563L111.083 299.67C96.0361 294.453 80.0014 304.12 76.805 320.337L76.2583 323.11C75.1075 328.949 72.1807 334.242 67.9144 338.202L65.8876 340.083C59.9625 345.583 57 353.166 57 360.75H187C187 353.166 184.037 345.583 178.112 340.083Z" fill="white"/>
</g>
<defs>
<linearGradient id="paint0_linear_2583_240077" x1="187" y1="140.75" x2="187" y2="273.25" gradientUnits="userSpaceOnUse">
<stop stop-color="#FA5F2E"/>
<stop offset="1" stop-color="#988C1B"/>
</linearGradient>
<linearGradient id="paint1_linear_2583_240077" x1="187" y1="105.75" x2="187" y2="330.75" gradientUnits="userSpaceOnUse">
<stop stop-color="#FDA64F"/>
<stop offset="1" stop-color="#BBDA81"/>
</linearGradient>
<linearGradient id="paint2_linear_2583_240077" x1="221.695" y1="245.636" x2="312.145" y2="281.572" gradientUnits="userSpaceOnUse">
<stop stop-color="white"/>
<stop offset="1" stop-color="#E2F0FD"/>
</linearGradient>
<linearGradient id="paint3_linear_2583_240077" x1="-19.25" y1="265.27" x2="92" y2="329.5" gradientUnits="userSpaceOnUse">
<stop stop-color="white"/>
<stop offset="1" stop-color="#E2F0FD"/>
</linearGradient>
<clipPath id="clip0_2583_240077">
<rect width="375" height="375" fill="white"/>
</clipPath>
</defs>
</svg>
