<svg width="375" height="375" viewBox="0 0 375 375" fill="none" xmlns="http://www.w3.org/2000/svg">
<g clip-path="url(#clip0_2583_241146)">
<rect width="375" height="375" fill="#1B6523"/>
<path fill-rule="evenodd" clip-rule="evenodd" d="M181.797 49.9867C177.649 57.1676 169.889 61.9999 161 61.9999C147.745 61.9999 137 51.2547 137 37.9999C137 34.111 137.925 30.4381 139.567 27.1893C107.645 33.3862 79.0726 46.74 60.1733 71.5247C40.9945 96.676 39.1727 130.686 49.6987 160.426L-19.0186 176.785L-10.4622 199.208L51.6845 165.63C63.6466 194.823 87.6617 218.973 118.72 224.955C236.196 247.578 347.764 49.6688 347.764 49.6688C347.764 49.6688 308.8 36.3922 258.448 28.4786C254.073 33.1097 247.874 35.9996 241 35.9996C232.088 35.9996 224.311 31.1424 220.171 23.931C215.087 23.5362 209.961 23.2283 204.817 23.0225C204.938 23.998 205 24.9916 205 25.9997C205 38.9879 194.683 49.5664 181.797 49.9867ZM77.0002 158C90.255 158 101 147.254 101 134C101 120.745 90.255 110 77.0002 110C63.7453 110 53.0002 120.745 53.0002 134C53.0002 147.254 63.7453 158 77.0002 158ZM283 81.9996C283 95.2544 272.255 106 259 106C245.745 106 235 95.2544 235 81.9996C235 68.7448 245.745 57.9996 259 57.9996C272.255 57.9996 283 68.7448 283 81.9996Z" fill="#FA5F2E"/>
<path fill-rule="evenodd" clip-rule="evenodd" d="M103.932 235.094C218.468 200.543 349.744 385.967 349.744 385.967C349.744 385.967 332.841 393.742 306.789 402.8C305.224 391.058 295.17 382 283 382C279.431 382 276.044 382.779 272.999 384.176L273 384.075L273 384C273 370.745 262.255 360 249 360C235.745 360 225 370.745 225 384C225 397.255 235.745 408 249 408C252.569 408 255.956 407.221 259.001 405.823C259 405.882 259 405.941 259 406C259 409.815 259.89 413.422 261.474 416.625C234.587 423.652 204.28 429.382 174.637 430.398C176.151 427.252 177 423.725 177 420C177 406.745 166.255 396 153 396C139.745 396 129 406.745 129 420C129 422.735 129.458 425.364 130.301 427.813C103.651 423.335 79.5078 412.963 61.4285 393.72C39.7713 370.668 34.4714 337.024 41.892 306.361L-28.1406 297.136L-21.929 273.954L43.3336 300.981C52.2389 270.715 73.6505 244.229 103.932 235.094ZM103 380C116.255 380 127 369.255 127 356C127 342.745 116.255 332 103 332C89.7452 332 79.0001 342.745 79.0001 356C79.0001 369.255 89.7452 380 103 380ZM89.0001 312C102.255 312 113 301.255 113 288C113 274.745 102.255 264 89.0001 264C75.7453 264 65.0001 274.745 65.0001 288C65.0001 301.255 75.7453 312 89.0001 312Z" fill="#5D7E1B"/>
<path fill-rule="evenodd" clip-rule="evenodd" d="M218.423 354.1C107.334 398.502 -39.6035 225.226 -39.6035 225.226C-39.6035 225.226 157.737 112.654 246.94 192.374C254.013 198.695 259.703 206.093 264.076 214.195C263.069 214.066 262.043 214 261.001 214C247.746 214 237.001 224.745 237.001 238C237.001 251.255 247.746 262 261.001 262C266.331 262 271.255 260.262 275.238 257.323C275.453 264.108 275.037 270.946 274.016 277.697L344.586 280.784L340.418 304.419L273.048 283.183C266.815 314.109 247.793 342.36 218.423 354.1ZM195 344C208.255 344 219 333.255 219 320C219 306.745 208.255 296 195 296C181.745 296 171 306.745 171 320C171 333.255 181.745 344 195 344ZM227 204C227 217.255 216.255 228 203 228C189.746 228 179 217.255 179 204C179 190.745 189.746 180 203 180C216.255 180 227 190.745 227 204Z" fill="#E68800"/>
<path fill-rule="evenodd" clip-rule="evenodd" d="M126.481 351.009C157.388 362.385 189.15 365.8 218.423 354.1C243.3 344.156 260.753 322.365 269.299 297.137C222.227 255.276 161.002 217.879 103.932 235.094C73.6507 244.229 52.239 270.715 43.3338 300.981L37.8101 298.693C54.272 311.646 72.4972 324.337 91.6014 334.874C94.9924 333.041 98.8748 332 103 332C114.544 332 124.184 340.15 126.481 351.009ZM219 320C219 333.255 208.255 344 195 344C181.745 344 171 333.255 171 320C171 306.745 181.745 296 195 296C208.255 296 219 306.745 219 320ZM113 288C113 301.255 102.255 312 89.0003 312C75.7454 312 65.0003 301.255 65.0003 288C65.0003 274.745 75.7454 264 89.0003 264C102.255 264 113 274.745 113 288Z" fill="#75982A"/>
<path d="M236.813 184.438C189.258 151.885 118.207 163.205 60.0498 182.084C73.3108 203.575 93.7367 220.143 118.72 224.955C140.597 229.168 162.269 225.733 183.054 217.352C180.494 213.535 179 208.942 179 204C179 190.745 189.745 180 203 180C212.585 180 220.858 185.619 224.704 193.743C228.805 190.773 232.843 187.662 236.813 184.438Z" fill="#A13012"/>
<path d="M162.307 61.9652C168.794 61.6172 174.597 58.693 178.71 54.1974C175.681 46.6314 173.765 38.7012 173.421 30.9011C173.129 24.2801 167.525 19.1495 160.904 19.4416C154.283 19.7336 149.152 25.3377 149.444 31.9587C149.886 41.981 152.157 51.9583 155.765 61.4276L155.769 61.4284C156.529 61.5974 157.303 61.7303 158.089 61.8253C158.934 61.9276 159.794 61.9859 160.664 61.9978C160.776 61.9994 160.888 62.0001 161 62.0001C161.438 62.0001 161.874 61.9884 162.307 61.9652Z" fill="#ED96ED"/>
<path d="M155.769 61.4284C155.776 61.4469 155.783 61.4655 155.79 61.4841C163.691 82.1818 178.127 100.813 194.246 111.951C199.698 115.718 207.173 114.352 210.94 108.9C214.707 103.447 213.341 95.973 207.889 92.2055C196.388 84.2585 185.125 70.2223 178.71 54.1982C174.322 58.9931 168.012 62.0001 161 62.0001C159.204 62.0001 157.453 61.8027 155.769 61.4284Z" fill="#DA3C0B"/>
<path d="M152 42C149.239 42 147 38.4183 147 34C147 29.5817 149.239 26 152 26C154.761 26 157 29.5817 157 34C157 38.4183 154.761 42 152 42Z" fill="white"/>
<path d="M172 24C174.761 24 177 27.5817 177 32C177 36.4183 174.761 40 172 40C169.239 40 167 36.4183 167 32C167 27.5817 169.239 24 172 24Z" fill="white"/>
<path d="M177 32C177 29.7909 175.657 28 174 28C172.343 28 171 29.7909 171 32C171 34.2091 172.343 36 174 36C175.657 36 177 34.2091 177 32Z" fill="#2F1E52"/>
<path d="M147 34C147 36.2091 148.343 38 150 38C151.657 38 153 36.2091 153 34C153 31.7909 151.657 30 150 30C148.343 30 147 31.7909 147 34Z" fill="#2F1E52"/>
<path d="M162.498 40.0518C165.8 39.6994 168.701 41.1814 168.979 43.3619C169.256 45.5425 166.804 47.5958 163.502 47.9482C160.2 48.3006 157.299 46.8186 157.021 44.6381C156.744 42.4575 159.196 40.4042 162.498 40.0518Z" fill="#E60023"/>
</g>
<defs>
<clipPath id="clip0_2583_241146">
<rect width="375" height="375" fill="white"/>
</clipPath>
</defs>
</svg>
