<svg xmlns="http://www.w3.org/2000/svg" width="375" height="250" fill="none" viewBox="0 0 375 250"><path fill="#c4cdf8" d="M0 0h375v250H0z"/><g clip-path="url(#a)"><path fill="url(#b)" fill-rule="evenodd" d="M187.5 250c67.103 0 121.5-54.397 121.5-121.5S254.603 7 187.5 7 66 61.397 66 128.5 120.397 250 187.5 250m0-11.933c60.512 0 109.567-49.055 109.567-109.567S248.012 18.933 187.5 18.933 77.933 67.988 77.933 128.5 126.988 238.067 187.5 238.067" clip-rule="evenodd"/><path fill="url(#c)" fill-rule="evenodd" d="M187.5 238.067c60.512 0 109.567-49.055 109.567-109.567S248.012 18.933 187.5 18.933 77.933 67.988 77.933 128.5 126.988 238.067 187.5 238.067m0-13.018c53.323 0 96.549-43.226 96.549-96.549S240.823 31.95 187.5 31.95 90.95 75.178 90.95 128.5s43.227 96.549 96.55 96.549" clip-rule="evenodd"/><path fill="url(#d)" d="M109.393 241.321h156.214l-18.442-36.883h-119.33z"/><path fill="#e60023" d="M109.393 241.321h156.214a8.68 8.68 0 0 1-8.678 8.679H118.071a8.68 8.68 0 0 1-8.678-8.679"/><path fill="url(#e)" d="M284.049 128.5c0 53.323-43.226 96.549-96.549 96.549S90.95 181.823 90.95 128.5s43.227-96.55 96.55-96.55 96.549 43.227 96.549 96.55"/><path fill="url(#f)" d="M247.304 108.307c5.874-2.946 7.86-10.36 4.247-15.848l-.618-.939a10.97 10.97 0 0 1-1.789-6.681l.066-1.122c.386-6.56-5.039-11.987-11.598-11.6l-1.121.065a10.97 10.97 0 0 1-6.68-1.79l-.939-.618c-5.486-3.614-12.898-1.627-15.843 4.248l-.504 1.005a10.98 10.98 0 0 1-4.891 4.891l-1.004.504c-5.873 2.947-7.86 10.36-4.247 15.849l.618.938a10.98 10.98 0 0 1 1.79 6.682l-.066 1.122c-.387 6.56 5.038 11.987 11.597 11.6l1.122-.066a10.98 10.98 0 0 1 6.68 1.79l.938.618c5.487 3.614 12.898 1.627 15.844-4.248l.504-1.004a10.97 10.97 0 0 1 4.89-4.892z"/><path fill="#dd73dd" d="M247.132 204.438c-16.418 12.91-37.125 20.611-59.632 20.611s-43.214-7.701-59.632-20.611z"/><path fill="url(#g)" d="M244.996 92.7c0 9.587-7.772 17.358-17.358 17.358s-17.357-7.771-17.357-17.357 7.771-17.357 17.357-17.357 17.358 7.77 17.358 17.357"/><path fill="url(#h)" d="M218.05 83.112c5.295-5.296 13.882-5.296 19.177 0 5.296 5.296 5.296 13.882 0 19.178l-83.531 83.531-19.178-19.178z" opacity=".75"/><path fill="#e2f0fd" d="M148.446 57.987a1.084 1.084 0 1 0 .001-2.17 1.084 1.084 0 0 0-.001 2.17M194.009 67.75a1.085 1.085 0 1 1-2.17 0 1.085 1.085 0 0 1 2.17 0M176.652 74.259a2.17 2.17 0 1 0 0-4.339 2.17 2.17 0 0 0 0 4.339M130.004 106.804a1.085 1.085 0 1 0 0-2.17 1.085 1.085 0 0 0 0 2.17M136.513 110.058a1.085 1.085 0 1 0 0-2.17 1.085 1.085 0 0 0 0 2.17M258.013 162.129a1.084 1.084 0 1 1-2.168.002 1.084 1.084 0 0 1 2.168-.002M239.571 179.487a1.085 1.085 0 1 0 0-2.17 1.085 1.085 0 0 0 0 2.17M234.147 174.062a3.254 3.254 0 1 1-6.509.001 3.254 3.254 0 0 1 6.509-.001M240.656 151.281a2.17 2.17 0 1 0 .002-4.338 2.17 2.17 0 0 0-.002 4.338M123.496 111.143a2.17 2.17 0 1 1-4.34-.001 2.17 2.17 0 0 1 4.34.001"/><path fill="#fed872" d="M237.402 92.159a9.22 9.22 0 0 1-9.221 9.22 9.22 9.22 0 0 1-9.221-9.22 9.221 9.221 0 0 1 18.442 0"/><path fill="#fff" d="M234.147 91.074a4.881 4.881 0 1 1-9.762 0 4.881 4.881 0 0 1 9.762 0"/></g><defs><linearGradient id="b" x1="187.5" x2="187.5" y1="7" y2="230.473" gradientUnits="userSpaceOnUse"><stop stop-color="#fff" stop-opacity=".5"/><stop offset=".316" stop-color="#ebe2fd"/><stop offset="1" stop-color="#fff" stop-opacity=".25"/></linearGradient><linearGradient id="c" x1="187.5" x2="187.5" y1="18.933" y2="187.08" gradientUnits="userSpaceOnUse"><stop stop-color="#fff"/><stop offset=".45" stop-color="#e2e6fd"/><stop offset="1" stop-color="#fff" stop-opacity=".75"/></linearGradient><linearGradient id="d" x1="187.5" x2="187.5" y1="204.437" y2="241.321" gradientUnits="userSpaceOnUse"><stop stop-color="#c856c8"/><stop offset="1" stop-color="#774fc4"/></linearGradient><linearGradient id="e" x1="187.5" x2="187.5" y1="31.951" y2="225.049" gradientUnits="userSpaceOnUse"><stop stop-color="#5c3ba0"/><stop offset="1" stop-color="#526ae0"/></linearGradient><linearGradient id="g" x1="239.956" x2="214.761" y1="79.823" y2="105.019" gradientUnits="userSpaceOnUse"><stop stop-color="#d4c4f7"/><stop offset="1" stop-color="#fff" stop-opacity=".25"/></linearGradient><linearGradient id="h" x1="141.923" x2="235.282" y1="174.594" y2="81.236" gradientUnits="userSpaceOnUse"><stop stop-color="#fff" stop-opacity="0"/><stop offset="1" stop-color="#fde2fd"/></linearGradient><radialGradient id="f" cx="0" cy="0" r="1" gradientTransform="rotate(255 149.747 -40.174)scale(28.5763 28.5764)" gradientUnits="userSpaceOnUse"><stop offset=".2" stop-color="#e2e6fd"/><stop offset="1" stop-color="#fff" stop-opacity="0"/></radialGradient><clipPath id="a"><path fill="#fff" d="M66 7h243v243H66z"/></clipPath></defs></svg>