<svg xmlns="http://www.w3.org/2000/svg" width="220" height="220" fill="none" viewBox="0 0 220 220"><circle cx="110" cy="110" r="95" fill="#c4e0f8"/><g clip-path="url(#a)"><path fill="#526ae0" d="M168.3 81.9c24.796 0 45.026 10.232 46.148 23.075a.03.03 0 0 0 .028.025c.015 0 .027.013.027.028V135.8c0 25.516-20.684 46.2-46.2 46.2-17.038 0-31.92-9.224-39.93-22.95-.317-.543-1.017-.725-1.579-.442a13.1 13.1 0 0 1-5.909 1.392h-.225a13.2 13.2 0 0 1-12.206-8.174l-7.601-18.455c-4.274-10.377 3.356-21.771 14.579-21.771 1.766 0 3.472.293 5.068.835.762.259 1.603-.279 1.603-1.084v-5.017a9 9 0 0 1 0-.469v-.84c0-.014.011-.025.024-.025s.024-.01.025-.022C123.271 92.134 143.503 81.9 168.3 81.9m-52.868 40.7c-3.393 0-5.699 3.445-4.407 6.583l7.6 18.455A2.2 2.2 0 0 0 120.66 149h.225a2.2 2.2 0 0 0 2.176-2.52l-2.912-19.807a4.77 4.77 0 0 0-4.717-4.073"/><path fill="url(#b)" d="M127.6 106.1c0-3.611 2.898-8.214 10.583-12.24 7.425-3.89 18.064-6.46 30.117-6.46s22.692 2.57 30.117 6.46C206.102 97.886 209 102.49 209 106.1s-2.898 8.214-10.583 12.24c-7.425 3.889-18.064 6.46-30.117 6.46v5.5c25.516 0 46.2-10.835 46.2-24.2s-20.684-24.2-46.2-24.2-46.2 10.835-46.2 24.2 20.684 24.2 46.2 24.2v-5.5c-12.053 0-22.692-2.571-30.117-6.46-7.685-4.026-10.583-8.629-10.583-12.24"/><path fill="#c856c8" d="M168.3 81.9c17.593 0 32.885 5.153 40.687 12.732-.518 14.288-18.535 25.768-40.687 25.768s-40.169-11.48-40.687-25.768c7.802-7.58 23.095-12.732 40.687-12.732"/><ellipse cx="168.3" cy="106.1" fill="url(#c)" rx="40.7" ry="18.7"/><g filter="url(#d)"><path fill="url(#e)" d="M146.3 103.515c0 7.315 22 13.585 22 13.585s22-6.27 22-13.585v-.554c0-3.734-5.31-6.761-11.861-6.761-3.52 0-6.859.891-9.112 2.433l-1.027.702-1.027-.702c-2.253-1.542-5.592-2.433-9.112-2.433-6.551 0-11.861 3.027-11.861 6.761z"/></g><path fill="#fa5f2e" d="M51.7 81.9c-24.796 0-45.026 10.232-46.148 23.075a.03.03 0 0 1-.028.025.03.03 0 0 0-.027.028V135.8c0 25.516 20.684 46.2 46.2 46.2 17.038 0 31.92-9.224 39.93-22.95.317-.543 1.017-.725 1.58-.442A13.1 13.1 0 0 0 99.114 160h.225a13.2 13.2 0 0 0 12.205-8.174l7.602-18.455c4.274-10.377-3.356-21.771-14.579-21.771a15.7 15.7 0 0 0-5.068.835c-.762.259-1.603-.279-1.603-1.084v-5.017l.003-.234-.003-.235v-.84a.025.025 0 0 0-.024-.025.025.025 0 0 1-.025-.022C96.728 92.134 76.498 81.9 51.7 81.9m52.868 40.7c3.393 0 5.699 3.445 4.407 6.583l-7.6 18.455A2.2 2.2 0 0 1 99.34 149h-.225a2.2 2.2 0 0 1-2.176-2.52l2.912-19.807a4.77 4.77 0 0 1 4.717-4.073"/><path fill="url(#f)" d="M92.4 106.1c0-3.611-2.898-8.214-10.583-12.24-7.425-3.89-18.064-6.46-30.117-6.46s-22.692 2.57-30.117 6.46C13.898 97.886 11 102.49 11 106.1s2.898 8.214 10.583 12.24c7.425 3.889 18.065 6.46 30.117 6.46v5.5c-25.516 0-46.2-10.835-46.2-24.2s20.684-24.2 46.2-24.2 46.2 10.835 46.2 24.2-20.684 24.2-46.2 24.2v-5.5c12.052 0 22.692-2.571 30.117-6.46 7.685-4.026 10.583-8.629 10.583-12.24"/><path fill="#fda64f" d="M51.7 81.9c-17.593 0-32.885 5.153-40.687 12.732.518 14.288 18.535 25.768 40.688 25.768 22.151 0 40.17-11.48 40.687-25.768C84.586 87.052 69.292 81.9 51.699 81.9"/><ellipse cx="40.7" cy="18.7" fill="url(#g)" rx="40.7" ry="18.7" transform="matrix(-1 0 0 1 92.4 87.4)"/><g filter="url(#h)"><path fill="url(#i)" d="M73.7 103.515c0 7.315-22 13.585-22 13.585s-22-6.27-22-13.585v-.554c0-3.734 5.31-6.761 11.861-6.761 3.52 0 6.859.891 9.112 2.433l1.027.702 1.027-.702c2.253-1.542 5.592-2.433 9.112-2.433 6.55 0 11.861 3.027 11.861 6.761z"/></g><path fill="#e60023" d="M110 112.549c6.381 2.328 10.605 8.629 10.338 15.415l-.189-1.291a4.77 4.77 0 0 0-4.717-4.073c-3.393 0-5.699 3.445-4.407 6.583l4.923 11.955-4.402 10.688a13.3 13.3 0 0 1-1.546 2.756 13.3 13.3 0 0 1-1.546-2.756l-4.403-10.688 4.924-11.955c1.292-3.138-1.014-6.583-4.407-6.583a4.77 4.77 0 0 0-4.717 4.073l-.19 1.284c-.263-6.783 3.96-13.081 10.339-15.408"/><ellipse cx="51.7" cy="94" fill="url(#j)" opacity=".8" rx="40.7" ry="26.4"/><ellipse cx="168.3" cy="94" fill="url(#k)" opacity=".8" rx="40.7" ry="26.4"/><ellipse cx="51.7" cy="42.85" fill="url(#l)" opacity=".8" rx="35.2" ry="24.75"/><ellipse cx="168.3" cy="42.85" fill="url(#m)" opacity=".8" rx="35.2" ry="24.75"/><ellipse cx="51.7" cy="20.3" fill="url(#n)" opacity=".8" rx="20.9" ry="14.3"/><ellipse cx="168.3" cy="20.3" fill="url(#o)" opacity=".8" rx="20.9" ry="14.3"/><ellipse cx="51.7" cy="69.8" fill="url(#p)" opacity=".8" rx="46.2" ry="35.2"/><ellipse cx="168.3" cy="69.8" fill="url(#q)" opacity=".8" rx="46.2" ry="35.2"/></g><defs><radialGradient id="b" cx="0" cy="0" r="1" gradientTransform="matrix(0 -45.1 45.1 0 168.3 127)" gradientUnits="userSpaceOnUse"><stop stop-color="#59aaf3"/><stop offset="1" stop-color="#526ae0"/></radialGradient><radialGradient id="c" cx="0" cy="0" r="1" gradientTransform="matrix(0 18.7 -40.7 0 168.3 106.1)" gradientUnits="userSpaceOnUse"><stop stop-color="#a69377"/><stop offset=".75" stop-color="#804000"/><stop offset="1" stop-color="#5c2e00"/></radialGradient><radialGradient id="f" cx="0" cy="0" r="1" gradientTransform="rotate(-90 91 39.3)scale(44.55)" gradientUnits="userSpaceOnUse"><stop stop-color="#fca58d"/><stop offset="1" stop-color="#fa5f2e"/></radialGradient><radialGradient id="g" cx="0" cy="0" r="1" gradientTransform="matrix(0 18.7 -40.7 0 40.7 18.7)" gradientUnits="userSpaceOnUse"><stop stop-color="#a69377"/><stop offset=".75" stop-color="#804000"/><stop offset="1" stop-color="#5c2e00"/></radialGradient><radialGradient id="j" cx="0" cy="0" r="1" gradientTransform="matrix(-49.2684 0 0 -109.704 51.7 94)" gradientUnits="userSpaceOnUse"><stop offset=".2" stop-color="#fff" stop-opacity="0"/><stop offset=".9" stop-color="#fdebd8"/></radialGradient><radialGradient id="k" cx="0" cy="0" r="1" gradientTransform="matrix(-49.2684 0 0 -109.704 168.3 94)" gradientUnits="userSpaceOnUse"><stop offset=".2" stop-color="#fff" stop-opacity="0"/><stop offset=".9" stop-color="#fdebd8"/></radialGradient><radialGradient id="l" cx="0" cy="0" r="1" gradientTransform="matrix(-42.6105 0 0 -102.847 51.7 42.85)" gradientUnits="userSpaceOnUse"><stop offset=".2" stop-color="#fff" stop-opacity="0"/><stop offset=".9" stop-color="#fdebd8"/></radialGradient><radialGradient id="m" cx="0" cy="0" r="1" gradientTransform="matrix(-42.6105 0 0 -102.847 168.3 42.85)" gradientUnits="userSpaceOnUse"><stop offset=".2" stop-color="#fff" stop-opacity="0"/><stop offset=".9" stop-color="#fdebd8"/></radialGradient><radialGradient id="n" cx="0" cy="0" r="1" gradientTransform="matrix(-25.3 0 0 -59.423 51.7 20.3)" gradientUnits="userSpaceOnUse"><stop offset=".2" stop-color="#fff" stop-opacity="0"/><stop offset=".9" stop-color="#fdebd8"/></radialGradient><radialGradient id="o" cx="0" cy="0" r="1" gradientTransform="matrix(-25.3 0 0 -59.423 168.3 20.3)" gradientUnits="userSpaceOnUse"><stop offset=".2" stop-color="#fff" stop-opacity="0"/><stop offset=".9" stop-color="#fdebd8"/></radialGradient><radialGradient id="p" cx="0" cy="0" r="1" gradientTransform="matrix(-55.9263 0 0 -146.272 51.7 69.8)" gradientUnits="userSpaceOnUse"><stop offset=".2" stop-color="#fff" stop-opacity="0"/><stop offset=".9" stop-color="#fdebd8"/></radialGradient><radialGradient id="q" cx="0" cy="0" r="1" gradientTransform="matrix(-55.9263 0 0 -146.272 168.3 69.8)" gradientUnits="userSpaceOnUse"><stop offset=".2" stop-color="#fff" stop-opacity="0"/><stop offset=".9" stop-color="#fdebd8"/></radialGradient><linearGradient id="e" x1="168.3" x2="168.3" y1="96.2" y2="117.1" gradientUnits="userSpaceOnUse"><stop stop-color="#fff"/><stop offset="1" stop-color="#fdd9b4"/></linearGradient><linearGradient id="i" x1="51.7" x2="51.7" y1="96.2" y2="117.1" gradientUnits="userSpaceOnUse"><stop stop-color="#fff"/><stop offset="1" stop-color="#fdd9b4"/></linearGradient><filter id="d" width="46.2" height="23.1" x="145.2" y="95.1" color-interpolation-filters="sRGB" filterUnits="userSpaceOnUse"><feFlood flood-opacity="0" result="BackgroundImageFix"/><feBlend in="SourceGraphic" in2="BackgroundImageFix" result="shape"/><feGaussianBlur result="effect1_foregroundBlur_2779_9885" stdDeviation=".55"/></filter><filter id="h" width="46.2" height="23.1" x="28.6" y="95.1" color-interpolation-filters="sRGB" filterUnits="userSpaceOnUse"><feFlood flood-opacity="0" result="BackgroundImageFix"/><feBlend in="SourceGraphic" in2="BackgroundImageFix" result="shape"/><feGaussianBlur result="effect1_foregroundBlur_2779_9885" stdDeviation=".55"/></filter><clipPath id="a"><path fill="#fff" d="M0 6h220v176H0z"/></clipPath></defs></svg>