<svg width="375" height="250" viewBox="0 0 375 250" fill="none" xmlns="http://www.w3.org/2000/svg">
<g clip-path="url(#clip0_2583_241185)">
<rect width="375" height="250" fill="#6B246B"/>
<path d="M200.388 36.0772C200.388 39.8401 203.438 42.8905 207.201 42.8905C210.964 42.8905 214.014 39.8401 214.014 36.0772C214.014 32.3143 210.964 29.2639 207.201 29.2639C203.438 29.2639 200.388 32.3143 200.388 36.0772Z" fill="url(#paint0_linear_2583_241185)"/>
<path d="M141.049 49.6499C174.504 31.6179 216.243 44.1205 234.275 77.5753L284.381 170.537C292.951 186.437 287.009 206.273 271.109 214.842L223.051 240.746C220.967 241.869 219.259 243.554 217.796 245.416C211.683 253.194 202.19 258.19 191.53 258.19C177.548 258.19 165.574 249.595 160.603 237.399C159.073 233.647 155.384 230.937 151.332 230.937C132.795 230.937 116.727 220.361 108.835 204.913C107.771 202.83 106.335 200.954 104.6 199.385C94.805 190.533 88.6499 177.728 88.6499 163.486C88.6499 151.344 93.1228 140.248 100.511 131.754C103.942 127.809 105.785 122.599 105.242 117.398C102.432 90.4816 115.749 63.2867 141.049 49.6499Z" fill="url(#paint1_linear_2583_241185)"/>
<path d="M129.53 260.915C129.53 266.936 134.41 271.817 140.431 271.817C146.451 271.817 151.332 266.936 151.332 260.915C151.332 254.895 146.451 250.014 140.431 250.014C134.41 250.014 129.53 254.895 129.53 260.915Z" fill="url(#paint2_linear_2583_241185)"/>
<path d="M95.4632 270.454C91.7003 270.454 88.6499 267.404 88.6499 263.641C88.6499 259.878 91.7003 256.827 95.4632 256.827C99.2261 256.827 102.276 259.878 102.276 263.641C102.276 267.404 99.2261 270.454 95.4632 270.454Z" fill="url(#paint3_linear_2583_241185)"/>
<path d="M227.641 51.0664C222.373 51.0664 218.102 46.7958 218.102 41.5278C218.102 36.2598 222.373 31.9892 227.641 31.9892C232.909 31.9892 237.179 36.2598 237.179 41.5278C237.179 46.7958 232.909 51.0664 227.641 51.0664Z" fill="url(#paint4_linear_2583_241185)"/>
<path d="M56.3076 44.1443C79.5843 14.1014 122.808 8.6163 152.851 31.893C182.894 55.1696 188.379 98.3937 165.103 128.437L141.39 159.043C138.331 162.99 137.836 168.262 139.036 173.109C139.947 176.792 140.431 180.643 140.431 184.607C140.431 210.947 119.078 232.3 92.7378 232.3C89.9835 232.3 87.2838 232.066 84.6572 231.618C79.8618 230.799 74.8777 231.82 70.5547 234.051C65.9738 236.415 60.7752 237.75 55.2648 237.75C36.8267 237.75 21.8797 222.803 21.8797 204.365C21.8797 197.246 24.1079 190.648 27.905 185.229C28.3856 184.543 28.2665 183.593 27.6046 183.08C27.2396 182.798 26.7663 182.699 26.3141 182.793C24.8823 183.089 23.3991 183.244 21.8797 183.244C12.7102 183.244 4.86275 177.583 1.64127 169.566C0.170487 165.906 -1.78339 162.343 -4.50698 159.49C-10.1092 153.62 -13.5493 145.668 -13.5493 136.914C-13.5493 124.064 -6.13823 112.945 4.64285 107.598C6.99992 106.429 9.21375 104.928 10.8252 102.848L56.3076 44.1443Z" fill="url(#paint5_linear_2583_241185)"/>
<path d="M83.1993 267.729C92.2302 267.729 99.5511 260.408 99.5511 251.377C99.5511 242.346 92.2302 235.025 83.1993 235.025C74.1684 235.025 66.8474 242.346 66.8474 251.377C66.8474 260.408 74.1684 267.729 83.1993 267.729Z" fill="url(#paint6_linear_2583_241185)"/>
<path d="M49.1329 266.366C49.1329 272.387 44.2522 277.267 38.2316 277.267C32.211 277.267 27.3304 272.387 27.3304 266.366C27.3304 260.345 32.211 255.465 38.2316 255.465C44.2522 255.465 49.1329 260.345 49.1329 266.366Z" fill="url(#paint7_linear_2583_241185)"/>
<path d="M163.516 42.1499C183.844 66.4231 185.287 102.386 165.103 128.437L141.39 159.043C138.331 162.991 137.836 168.262 139.036 173.11C139.947 176.792 140.431 180.643 140.431 184.607C140.431 199.5 133.604 212.8 122.909 221.546C117.03 217.176 112.193 211.486 108.835 204.913C107.771 202.831 106.335 200.954 104.6 199.385C94.805 190.533 88.6499 177.728 88.6499 163.486C88.6499 151.344 93.1228 140.248 100.511 131.754C103.942 127.809 105.785 122.599 105.242 117.399C102.432 90.4817 115.749 63.2868 141.049 49.65C148.26 45.7634 155.856 43.2954 163.516 42.1499Z" fill="#FDBF81"/>
<path d="M98.3745 257.479C97.4917 257.061 96.5048 256.828 95.4632 256.828C91.7003 256.828 88.6499 259.878 88.6499 263.641C88.6499 264.682 88.8836 265.669 89.3015 266.552C93.4243 264.893 96.7151 261.602 98.3745 257.479Z" fill="#FDBF81"/>
<path fill-rule="evenodd" clip-rule="evenodd" d="M96.7258 109.97C101.823 114.43 102.34 122.178 97.8795 127.275L2.4936 236.288C-1.96656 241.385 -9.71444 241.902 -14.8118 237.441C-19.9091 232.981 -20.4256 225.233 -15.9655 220.136L79.4205 111.124C83.8806 106.026 91.6285 105.51 96.7258 109.97Z" fill="#BD5F00"/>
<path d="M22.9752 212.88C22.2603 210.162 21.8796 207.308 21.8796 204.365C21.8796 197.246 24.1079 190.648 27.905 185.229C28.3855 184.543 28.2664 183.593 27.6045 183.081C27.2395 182.798 26.7662 182.7 26.314 182.793C24.8822 183.089 23.399 183.244 21.8796 183.244C20.1411 183.244 18.4501 183.041 16.8291 182.656L79.4203 111.124C83.8804 106.026 91.6283 105.51 96.7256 109.97C101.823 114.43 102.34 122.178 97.8793 127.275L22.9752 212.88Z" fill="#EF7BB5"/>
<path fill-rule="evenodd" clip-rule="evenodd" d="M180.738 128.915C174.793 132.161 172.606 139.612 175.852 145.556L252.44 285.793C255.687 291.737 263.137 293.925 269.082 290.678C275.026 287.432 277.213 279.981 273.967 274.036L197.379 133.8C194.133 127.855 186.682 125.668 180.738 128.915Z" fill="#BD5F00"/>
<path d="M248.341 227.114L197.379 133.8C194.133 127.855 186.682 125.668 180.738 128.915C174.793 132.161 172.606 139.612 175.852 145.556L226.75 238.752L248.341 227.114Z" fill="#E60023"/>
</g>
<defs>
<linearGradient id="paint0_linear_2583_241185" x1="191.793" y1="29.2639" x2="191.793" y2="267.729" gradientUnits="userSpaceOnUse">
<stop stop-color="#FA5F2E"/>
<stop offset="1" stop-color="#E68800"/>
</linearGradient>
<linearGradient id="paint1_linear_2583_241185" x1="191.793" y1="29.2639" x2="191.793" y2="267.729" gradientUnits="userSpaceOnUse">
<stop stop-color="#FA5F2E"/>
<stop offset="1" stop-color="#E68800"/>
</linearGradient>
<linearGradient id="paint2_linear_2583_241185" x1="191.793" y1="29.2639" x2="191.793" y2="267.729" gradientUnits="userSpaceOnUse">
<stop stop-color="#FA5F2E"/>
<stop offset="1" stop-color="#E68800"/>
</linearGradient>
<linearGradient id="paint3_linear_2583_241185" x1="191.793" y1="29.2639" x2="191.793" y2="267.729" gradientUnits="userSpaceOnUse">
<stop stop-color="#FA5F2E"/>
<stop offset="1" stop-color="#E68800"/>
</linearGradient>
<linearGradient id="paint4_linear_2583_241185" x1="191.793" y1="29.2639" x2="191.793" y2="267.729" gradientUnits="userSpaceOnUse">
<stop stop-color="#FA5F2E"/>
<stop offset="1" stop-color="#E68800"/>
</linearGradient>
<linearGradient id="paint5_linear_2583_241185" x1="107.727" y1="16.9999" x2="107.727" y2="293.619" gradientUnits="userSpaceOnUse">
<stop stop-color="#FDE2FD"/>
<stop offset="1" stop-color="#ED96ED"/>
</linearGradient>
<linearGradient id="paint6_linear_2583_241185" x1="107.727" y1="16.9999" x2="107.727" y2="293.619" gradientUnits="userSpaceOnUse">
<stop stop-color="#FDE2FD"/>
<stop offset="1" stop-color="#ED96ED"/>
</linearGradient>
<linearGradient id="paint7_linear_2583_241185" x1="107.727" y1="16.9999" x2="107.727" y2="293.619" gradientUnits="userSpaceOnUse">
<stop stop-color="#FDE2FD"/>
<stop offset="1" stop-color="#ED96ED"/>
</linearGradient>
<clipPath id="clip0_2583_241185">
<rect width="375" height="250" fill="white"/>
</clipPath>
</defs>
</svg>
