<svg width="375" height="375" viewBox="0 0 375 375" fill="none" xmlns="http://www.w3.org/2000/svg">
<g clip-path="url(#clip0_2583_240070)">
<rect width="375" height="375" fill="#FEDDED"/>
<path d="M25.3687 33.6302C21.4286 35.905 20.127 40.9733 22.4834 44.8652L69.7185 122.88L69.4858 123.014C60.9724 127.929 58.5819 139.131 64.347 147.093L88.9984 181.14L121.301 162.49L104.142 124.118C100.129 115.144 89.2325 111.613 80.719 116.528L80.4862 116.663L36.5412 36.7489C34.349 32.7622 29.3089 31.3553 25.3687 33.6302Z" fill="url(#paint0_linear_2583_240070)"/>
<path d="M185.694 67.5158C185.56 56.2371 184.394 44.6565 175.8 37.4949C174.273 36.2222 172.466 37.3452 170.346 38.6629C168.507 39.8057 166.432 41.0949 164.1 41.0949V30.2949C184.728 26.475 188.494 51.2159 189.161 67.5675C191.452 66.7439 193.923 66.295 196.5 66.295C208.429 66.295 218.1 75.9177 218.1 87.788C218.253 128.739 157.054 128.722 156.9 87.788C156.9 75.9177 166.571 66.295 178.5 66.295C181.022 66.295 183.444 66.7252 185.694 67.5158Z" fill="#E60023"/>
<path d="M146.802 101.843C140.372 100.488 133.754 103.101 129.984 108.483C128.172 111.07 127.231 113.888 127.029 116.68C126.961 117.612 126.28 118.409 125.358 118.562C108.764 121.31 96.263 135.995 96.8097 153.375C97.3905 171.836 112.523 186.5 130.993 186.5H244.007C262.477 186.5 277.61 171.836 278.19 153.375C278.767 135.035 264.816 119.697 246.857 118.217C245.817 118.131 245.023 117.228 245.01 116.185C244.955 111.647 243.151 107.047 239.192 103.432C234.496 99.1443 227.874 97.7263 221.685 99.1914C213.971 101.018 203.316 102.929 195.6 101.9C189.032 101.025 185.447 98.2319 182.46 95.9055C179.311 93.4529 176.828 91.5186 172.217 92.8951C172.208 92.8979 172.202 92.9079 172.205 92.9173C172.263 93.1349 172.313 93.3527 172.357 93.5704C174.009 101.789 163.584 105.378 155.381 103.65L146.802 101.843Z" fill="url(#paint1_linear_2583_240070)"/>
<path d="M106.207 128.736C100.134 135.122 96.5099 143.843 96.8097 153.375C97.0381 160.635 99.5168 167.307 103.564 172.731L121.301 162.49L106.207 128.736Z" fill="#FDBF81"/>
<path d="M215.841 100.453C206.759 123.257 172.834 124.441 161.002 104.023C167.609 103.562 173.643 99.9693 172.357 93.5704C172.313 93.3527 172.263 93.1349 172.205 92.9173C172.202 92.9079 172.208 92.8979 172.218 92.8951C176.828 91.5186 179.311 93.4529 182.46 95.9055C185.447 98.2319 189.033 101.025 195.6 101.9C201.504 102.687 209.129 101.753 215.841 100.453Z" fill="#FEDDED"/>
<path d="M51.6001 355.7C39.1737 355.7 29.1001 365.774 29.1001 378.2C29.1001 390.626 39.1737 400.7 51.6001 400.7H76.4536C80.2334 400.7 83.2649 403.686 84.5174 407.253C87.9634 417.065 97.3102 424.1 108.3 424.1H290.1C301.09 424.1 310.437 417.065 313.883 407.253C315.135 403.686 318.167 400.7 321.947 400.7H323.4C335.827 400.7 345.9 390.626 345.9 378.2C345.9 365.774 335.826 355.7 323.4 355.7H51.6001Z" fill="url(#paint2_radial_2583_240070)"/>
<path d="M171.3 218.9C171.3 199.327 179.075 180.556 192.916 166.715C206.756 152.875 225.527 145.1 245.1 145.1C264.673 145.1 283.444 152.875 297.285 166.715C311.125 180.556 318.9 199.327 318.9 218.9L171.3 218.9Z" fill="#70E6C8"/>
<path d="M56.1001 218.9H318.9L297.3 355.7H77.7001L56.1001 218.9Z" fill="url(#paint3_linear_2583_240070)"/>
<path d="M96.6 254.9C91.1323 254.9 86.7 250.468 86.7 245C86.7 243.505 86.9457 241.985 87.4205 240.547C89.3152 234.806 93.9 229.293 93.9 223.247V222.5C93.9 220.512 92.2882 218.9 90.3 218.9H103.647C101.246 218.9 99.3 220.846 99.3 223.247C99.3 229.293 103.885 234.806 105.779 240.547C106.254 241.985 106.5 243.505 106.5 245C106.5 250.468 102.068 254.9 96.6 254.9Z" fill="#FDC4E1"/>
<path d="M239.7 226.1V355.7H252.3V226.1C252.3 222.123 255.524 218.9 259.5 218.9H232.5C236.476 218.9 239.7 222.123 239.7 226.1Z" fill="#70E6C8"/>
<path d="M232.445 218.9H226.855L225.3 213.098L230.516 211.7L232.445 218.9Z" fill="#13493C"/>
<path d="M265.318 218.9H259.082L262.2 213.5L266.877 216.2L265.318 218.9Z" fill="#13493C"/>
<path d="M317.923 206.929C318.217 208.718 318.446 210.522 318.608 212.336L309.497 214.777L308.1 209.561L317.923 206.929Z" fill="#13493C"/>
<path d="M304.935 175.7C306.199 177.451 307.383 179.253 308.485 181.1H299.1V175.7H304.935Z" fill="#13493C"/>
<path d="M281.81 154.878C283.371 155.773 284.9 156.726 286.396 157.735L282.727 164.09L278.05 161.39L281.81 154.878Z" fill="#13493C"/>
<path d="M223.83 148.231L221.516 156.868L216.3 155.471L217.661 150.391C219.684 149.581 221.742 148.86 223.83 148.231Z" fill="#13493C"/>
<path d="M254.012 158.994L258.688 161.694L252.388 172.606L247.712 169.906L254.012 158.994Z" fill="#13493C"/>
<path d="M264.9 195.5H270.3V182.9H264.9V195.5Z" fill="#13493C"/>
<path d="M286.345 190.036L290.164 193.855L281.254 202.764L277.436 198.946L286.345 190.036Z" fill="#13493C"/>
<path d="M207.21 188.3L211.028 192.118L202.118 201.028L198.3 197.21L207.21 188.3Z" fill="#13493C"/>
<path d="M201 163.1L198.3 167.777L209.212 174.077L211.912 169.4L201 163.1Z" fill="#13493C"/>
<path d="M230.7 193.516L232.098 188.3L244.268 191.561L242.871 196.777L230.7 193.516Z" fill="#13493C"/>
<path d="M182.085 166.715C188.185 172.816 193.107 179.875 196.705 187.538C199.013 192.454 203.589 195.948 208.282 198.682C210.007 199.687 211.61 200.917 213.046 202.354C217.435 206.742 219.9 212.694 219.9 218.9L56.1001 218.9C56.1001 199.327 63.8754 180.556 77.7156 166.715C91.5558 152.875 110.327 145.1 129.9 145.1C149.473 145.1 168.244 152.875 182.085 166.715Z" fill="#FDC4E1"/>
<path d="M110.1 279.095C110.1 283.627 113.727 287.3 118.2 287.3C122.674 287.3 126.3 283.627 126.3 279.095C126.3 274.564 118.2 262.1 118.2 262.1C118.2 262.1 110.1 274.564 110.1 279.095Z" fill="#FDC4E1"/>
</g>
<defs>
<linearGradient id="paint0_linear_2583_240070" x1="25.369" y1="33.63" x2="105.15" y2="171.815" gradientUnits="userSpaceOnUse">
<stop stop-color="#FA5F2E"/>
<stop offset="1" stop-color="#FDA64F"/>
</linearGradient>
<linearGradient id="paint1_linear_2583_240070" x1="184.311" y1="69.9642" x2="184.311" y2="182.93" gradientUnits="userSpaceOnUse">
<stop stop-color="white"/>
<stop offset="1" stop-color="#F9F1E7"/>
</linearGradient>
<radialGradient id="paint2_radial_2583_240070" cx="0" cy="0" r="1" gradientUnits="userSpaceOnUse" gradientTransform="translate(67.8001 370.225) scale(274.5 260.604)">
<stop offset="0.101382" stop-color="#FDC4E1"/>
<stop offset="0.266496" stop-color="#D4C4F7"/>
<stop offset="0.422228" stop-color="#C4CDF8"/>
<stop offset="0.626745" stop-color="#70E6C8"/>
</radialGradient>
<linearGradient id="paint3_linear_2583_240070" x1="187.5" y1="218.9" x2="187.5" y2="355.7" gradientUnits="userSpaceOnUse">
<stop stop-color="#59AAF3"/>
<stop offset="1" stop-color="#2086DF"/>
</linearGradient>
<clipPath id="clip0_2583_240070">
<rect width="375" height="375" fill="white"/>
</clipPath>
</defs>
</svg>
