<svg fill="none" height="220" viewBox="0 0 220 220" width="220" xmlns="http://www.w3.org/2000/svg" xmlns:xlink="http://www.w3.org/1999/xlink"><linearGradient id="a" gradientUnits="userSpaceOnUse" x1="139.639" x2="67.3182" y1="196.359" y2="37.7549"><stop offset="0" stop-color="#b497ed"/><stop offset="1" stop-color="#ebe2fd"/></linearGradient><clipPath id="b"><path d="m0 0h220v220h-220z"/></clipPath><clipPath id="c"><rect height="190" rx="95" width="190" x="15" y="15"/></clipPath><g clip-path="url(#b)"><circle cx="110" cy="110" fill="#402970" r="95"/><path clip-rule="evenodd" d="m197.57 42.4746c-6.004-7.1558-16.673-8.0892-23.829-2.0848-2.439 2.0469-4.155 4.6358-5.12 7.4428-.787 2.2907-1.857 4.5453-3.713 6.1023l-21.248 17.8296c-.906.7599-2.131 1.0169-3.266.6849-2.917-.8535-6.068-.1487-8.343 1.8663l-41.8323 37.0463c-4.5714 4.048-6.8909 10.065-6.2198 16.134l.0468.424 80.1543-68.4296c1.66-1.4166 4.32-.4847 5.303 1.4632.577 1.1443 1.294 2.2406 2.154 3.2649 6.004 7.1558 16.673 8.0892 23.828 2.0848 7.156-6.0045 8.09-16.6729 2.085-23.8287zm-3.599 3.02c-4.336-5.1681-12.041-5.8422-17.21-1.5057-5.168 4.3366-5.842 12.0416-1.505 17.2096 4.336 5.1681 12.041 5.8422 17.209 1.5057 5.169-4.3365 5.843-12.0415 1.506-17.2096z" fill="#526ae0" fill-rule="evenodd"/><g clip-path="url(#c)"><path clip-rule="evenodd" d="m197.57 42.4746c-6.004-7.1558-16.673-8.0892-23.829-2.0848-2.439 2.0469-4.155 4.6358-5.12 7.4428-.787 2.2907-1.857 4.5453-3.713 6.1023l-21.248 17.8296c-.906.7599-2.131 1.0169-3.266.6849-2.917-.8535-6.068-.1487-8.343 1.8663l-41.8323 37.0463c-4.5714 4.048-6.8909 10.065-6.2198 16.134l.0468.424 80.1543-68.4296c1.66-1.4166 4.32-.4847 5.303 1.4632.577 1.1443 1.294 2.2406 2.154 3.2649 6.004 7.1558 16.673 8.0892 23.828 2.0848 7.156-6.0045 8.09-16.6729 2.085-23.8287zm-3.599 3.02c-4.336-5.1681-12.041-5.8422-17.21-1.5057-5.168 4.3366-5.842 12.0416-1.505 17.2096 4.336 5.1681 12.041 5.8422 17.209 1.5057 5.169-4.3365 5.843-12.0415 1.506-17.2096z" fill="#526ae0" fill-rule="evenodd"/><path d="m9.63794 61.8361 74.71586-20.0201 4.4301 16.5334c3.6464 13.6087 11.0439 25.9188 21.3491 35.5264l35.179 32.7992c10.305 9.608 17.703 21.918 21.349 35.527l4.43 16.533-74.7156 20.02-4.4301-16.533c-3.6464-13.609-11.0438-25.919-21.3486-35.527l-35.18-32.799c-10.3048-9.608-17.7022-21.9178-21.3487-35.5265z" fill="url(#a)"/><path clip-rule="evenodd" d="m160.88 10.9803c8.089 4.6706 10.861 15.0149 6.191 23.1046-1.593 2.7578-3.844 4.8975-6.441 6.3351-2.119 1.1732-4.154 2.6182-5.365 4.7159l-13.869 24.0218c-.591 1.0238-.631 2.2754-.107 3.3352 1.347 2.7244 1.2 5.9498-.389 8.5404l-29.219 47.6297c-3.193 5.205-8.716 8.534-14.8099 8.927l-.4253.027 53.4712-90.819c1.107-1.8801-.273-4.3382-2.362-4.9677-1.227-.3698-2.431-.8859-3.589-1.5545-8.09-4.6706-10.862-15.0149-6.191-23.1047 4.671-8.0897 15.015-10.86144 23.105-6.1908zm-2.35 4.0688c5.843 3.3732 7.845 10.8441 4.472 16.6867-3.374 5.8426-10.844 7.8444-16.687 4.4712s-7.844-10.8441-4.471-16.6867 10.844-7.8444 16.686-4.4712z" fill="#768aea" fill-rule="evenodd"/><path d="m138.508 75.1002c1.123.6486 1.508 2.0854.859 3.2089-.648 1.1236-2.085 1.5086-3.209.8599-1.123-.6487-1.508-2.0854-.859-3.209.648-1.1236 2.085-1.5085 3.209-.8598z" fill="#223077"/><path d="m130.853 189.982 36.176 9.694 1.359-5.073c2.279-8.505 6.902-16.199 13.343-22.204l12.592-11.74c6.44-6.005 11.064-13.698 13.343-22.204l1.359-5.072-36.176-9.693-1.359 5.072c-2.279 8.505-6.902 16.199-13.343 22.204l-12.592 11.74c-6.44 6.005-11.063 13.698-13.342 22.204z" fill="#da3c0b"/><path d="m20.5045 201.521 29.0444-7.782-.4037-1.507c-2.2791-8.505-2.122-17.48.4533-25.9l2.4888-8.138c2.5752-8.421 2.7323-17.395.4533-25.901l-.4038-1.507-29.0444 7.783.4038 1.507c2.279 8.505 2.1219 17.48-.4533 25.9l-2.4888 8.138c-2.5753 8.42-2.7324 17.395-.4533 25.901z" fill="#a13012"/><path d="m4.9397 128.907 41.0638-23.708 1.2432 2.153c7.0169 12.153 17.2719 22.111 29.5956 28.738l11.9098 6.404c12.3239 6.626 22.5789 16.584 29.5959 28.738l1.243 2.153-41.064 23.708-1.2431-2.153c-7.0169-12.153-17.2719-22.111-29.5956-28.738l-11.9099-6.404c-12.3237-6.626-22.5787-16.584-29.59557-28.738z" fill="#fa5f2e"/><path d="m114.67 22.0636-10.005 37.3395-1.937-.5191c-10.935-2.9299-22.4729-2.728-33.2983.5828l-10.4618 3.1996c-10.8254 3.3107-22.3633 3.5127-33.2979.5827l-1.9372-.519 10.0051-37.3395 1.9372.5191c10.9346 2.9299 22.4725 2.728 33.2978-.5828l10.4619-3.1996c10.8254-3.3107 22.3632-3.5127 33.2982-.5827z" fill="#2086df"/><path d="m88.3793 56.8396c-6.3856-.1358-12.7832.7414-18.9496 2.6273l-10.4618 3.1996c-10.8254 3.3107-22.3633 3.5127-33.2979.5828l-1.9372-.5191 1.3483-5.032 59.2727-15.882z" fill="#83c3fc"/><path d="m49.362 167.13c-.5536-.316-1.1115-.625-1.6738-.928l-11.9098-6.404c-3.766-2.025-7.3388-4.361-10.685-6.976.0535-4.281-.4782-8.57-1.5972-12.746l-.4038-1.507 29.0444-7.783.4038 1.507c2.279 8.506 2.1219 17.48-.4534 25.901l-2.4887 8.138c-.0813.265-.1601.531-.2365.798z" fill="#e60023"/><path d="m93.5985 188.392-1.6532-6.17c-3.6465-13.609-11.0439-25.919-21.3487-35.527l-35.1799-32.799c-.5688-.53-1.1286-1.069-1.6795-1.615l12.2662-7.082 1.2432 2.153c7.0168 12.153 17.2719 22.111 29.5956 28.738l11.9098 6.404c12.324 6.627 22.579 16.584 29.596 28.738l1.243 2.153z" fill="#fdc9b9"/><path d="m161.192 147.851c2.298 4.564 4.135 9.37 5.469 14.351l4.43 16.533-40.103 10.746 1.225-4.571c2.279-8.506 6.902-16.2 13.343-22.204l12.592-11.74c1.065-.994 2.08-2.033 3.044-3.115z" fill="#f8bef8"/></g><path clip-rule="evenodd" d="m160.88 10.9803c8.089 4.6706 10.861 15.0149 6.191 23.1046-1.593 2.7578-3.844 4.8975-6.441 6.3351-2.119 1.1732-4.154 2.6182-5.365 4.7159l-13.869 24.0218c-.591 1.0238-.631 2.2754-.107 3.3352 1.347 2.7244 1.2 5.9498-.389 8.5404l-29.219 47.6297c-3.193 5.205-8.716 8.534-14.8099 8.927l-.4253.027 53.4712-90.819c1.107-1.8801-.273-4.3382-2.362-4.9677-1.227-.3698-2.431-.8859-3.589-1.5545-8.09-4.6706-10.862-15.0149-6.191-23.1047 4.671-8.0897 15.015-10.86144 23.105-6.1908zm-2.35 4.0688c5.843 3.3732 7.845 10.8441 4.472 16.6867-3.374 5.8426-10.844 7.8444-16.687 4.4712s-7.844-10.8441-4.471-16.6867 10.844-7.8444 16.686-4.4712z" fill="#768aea" fill-rule="evenodd"/><path d="m138.508 75.1002c1.123.6486 1.508 2.0854.859 3.2089-.648 1.1236-2.085 1.5086-3.209.8599-1.123-.6487-1.508-2.0854-.859-3.209.648-1.1236 2.085-1.5085 3.209-.8598z" fill="#223077"/><path d="m49.362 167.13c-.5536-.316-1.1115-.625-1.6738-.928l-11.9098-6.404c-3.766-2.025-7.3388-4.361-10.685-6.976.0535-4.281-.4782-8.57-1.5972-12.746l-.4038-1.507 29.0444-7.783.4038 1.507c2.279 8.506 2.1219 17.48-.4534 25.901l-2.4887 8.138c-.0813.265-.1601.531-.2365.798z" fill="#e60023"/><path d="m93.5985 188.392-1.6532-6.17c-3.6465-13.609-11.0439-25.919-21.3487-35.527l-35.1799-32.799c-.5688-.53-1.1286-1.069-1.6795-1.615l12.2662-7.082 1.2432 2.153c7.0168 12.153 17.2719 22.111 29.5956 28.738l11.9098 6.404c12.324 6.627 22.579 16.584 29.596 28.738l1.243 2.153z" fill="#fdc9b9"/><path d="m161.192 147.851c2.298 4.564 4.135 9.37 5.469 14.351l4.43 16.533-40.103 10.746 1.225-4.571c2.279-8.506 6.902-16.2 13.343-22.204l12.592-11.74c1.065-.994 2.08-2.033 3.044-3.115z" fill="#ed96ed"/></g></svg>