<svg width="375" height="250" viewBox="0 0 375 250" fill="none" xmlns="http://www.w3.org/2000/svg">
<g clip-path="url(#clip0_2583_240098)">
<rect width="375" height="250" fill="#C7E1DA"/>
<g opacity="0.5">
<path d="M26.2624 25.8623C21.9638 25.8623 18.479 29.347 18.479 33.6456V64.779C18.479 68.6264 21.2707 71.8219 24.9389 72.4502L-12.3354 99.8162C-22.322 107.148 -28.2209 118.797 -28.2209 131.186V374.166C-28.2209 395.66 -10.7974 413.083 10.6957 413.083H240.304C261.797 413.083 279.221 395.66 279.221 374.166V131.186C279.221 118.797 273.322 107.148 263.335 99.8162L226.061 72.4502C229.729 71.8219 232.521 68.6264 232.521 64.779V33.6456C232.521 29.347 229.036 25.8623 224.737 25.8623H26.2624Z" fill="url(#paint0_linear_2583_240098)"/>
<path d="M26.2624 25.8623C21.9638 25.8623 18.479 29.347 18.479 33.6456V64.779C18.479 68.6264 21.2707 71.8219 24.9389 72.4502L-12.3354 99.8162C-22.322 107.148 -28.2209 118.797 -28.2209 131.186V374.166C-28.2209 395.66 -10.7974 413.083 10.6957 413.083H240.304C261.797 413.083 279.221 395.66 279.221 374.166V131.186C279.221 118.797 273.322 107.148 263.335 99.8162L226.061 72.4502C229.729 71.8219 232.521 68.6264 232.521 64.779V33.6456C232.521 29.347 229.036 25.8623 224.737 25.8623H26.2624Z" fill="url(#paint1_linear_2583_240098)" fill-opacity="0.2"/>
</g>
<path opacity="0.25" d="M279.221 374.166V131.186C279.221 118.797 273.322 107.148 263.335 99.816L225.71 72.1927H25.2895L-12.3354 99.816C-22.322 107.148 -28.2209 118.797 -28.2209 131.186V374.166C-28.2209 395.659 -10.7974 413.083 10.6957 413.083H240.304C261.797 413.083 279.221 395.659 279.221 374.166Z" fill="url(#paint2_linear_2583_240098)"/>
<path d="M13.2008 194.008L17.674 198.481L-8.33137 224.486C-12.1172 228.272 -16.2091 231.739 -20.5654 234.852L-24.913 237.958L-26.2755 236.596L-23.1719 232.251C-20.058 227.892 -16.5894 223.798 -12.8014 220.01L13.2008 194.008Z" fill="#C4CDF8"/>
<path d="M55.2619 193.576C49.9426 188.257 41.3184 188.257 35.9991 193.576L30.5112 199.064L36.5367 205.089C41.856 210.409 41.856 219.033 36.5367 224.352L22.1471 238.742L-27.0579 189.537L-12.6683 175.147C-7.349 169.828 1.27523 169.828 6.5945 175.147L12.6185 181.171L18.1064 175.683C23.4257 170.364 23.4257 161.74 18.1064 156.42L17.114 155.428L22.1463 150.396L61.2866 189.536L56.2543 194.568L55.2619 193.576Z" fill="#70E6C8"/>
<path d="M-0.21908 216.374L21.5653 194.589L17.0921 190.116L-4.69226 211.901L-0.21908 216.374Z" fill="#2B8235"/>
<path d="M70.4576 145.362L65.9844 149.835L91.9897 175.841C95.7756 179.626 99.8675 183.093 104.224 186.206L108.571 189.312L109.934 187.95L106.83 183.605C103.716 179.246 100.248 175.152 96.4598 171.364L70.4576 145.362Z" fill="#C4CDF8"/>
<path d="M28.3966 144.93C33.7158 139.611 42.3401 139.611 47.6593 144.93L53.1473 150.418L47.1218 156.444C41.8025 161.763 41.8025 170.387 47.1217 175.706L61.5113 190.096L110.716 140.891L96.3267 126.501C91.0075 121.182 82.3832 121.182 77.064 126.501L71.04 132.525L65.5521 127.037C60.2328 121.718 60.2328 113.094 65.5521 107.775L66.5445 106.782L61.5121 101.75L22.3718 140.89L27.4042 145.923L28.3966 144.93Z" fill="#2B8235"/>
<path d="M83.8776 167.728L62.0933 145.944L66.5664 141.47L88.3508 163.255L83.8776 167.728Z" fill="#354517"/>
<path d="M80.752 245.987L80.752 239.661L117.529 239.661C122.883 239.661 128.228 240.103 133.509 240.982L138.78 241.86L138.78 243.787L133.514 244.664C128.229 245.544 122.882 245.987 117.525 245.987L80.752 245.987Z" fill="#C4CDF8"/>
<path d="M50.7047 216.55C50.7047 224.073 56.8029 230.171 64.3255 230.171L72.0866 230.171L72.0866 221.65C72.0866 214.127 78.1849 208.029 85.7075 208.029L106.057 208.029L106.057 277.615L85.7075 277.615C78.1849 277.615 72.0866 271.517 72.0866 263.994L72.0866 255.475L64.3255 255.475C56.8029 255.475 50.7047 261.573 50.7047 269.096L50.7047 270.499H43.5879L43.5879 215.147L50.7047 215.147L50.7047 216.55Z" fill="#FDA64F"/>
<path d="M106.056 239.661L75.2485 239.661L75.2485 245.987L106.056 245.987V239.661Z" fill="#FA5F2E"/>
<path d="M240.681 197.724L247.007 197.724L247.007 234.501C247.007 239.855 246.565 245.2 245.686 250.481L244.808 255.752L242.882 255.752L242.004 250.485C241.124 245.201 240.681 239.853 240.681 234.497L240.681 197.724Z" fill="#C4CDF8"/>
<path d="M270.117 167.677C262.595 167.677 256.497 173.775 256.497 181.298V189.059L265.018 189.059C272.541 189.059 278.639 195.157 278.639 202.68L278.639 223.03H209.052L209.052 202.68C209.052 195.157 215.151 189.059 222.673 189.059H231.192V181.298C231.192 173.775 225.094 167.677 217.572 167.677L216.168 167.677L216.168 160.56L271.521 160.56L271.521 167.677L270.117 167.677Z" fill="#D7CB42"/>
<path d="M247.007 223.028V192.221L240.681 192.221L240.681 223.028H247.007Z" fill="#776F0D"/>
<path d="M5.2356 283.328H11.5616L11.5616 246.551C11.5616 241.197 11.1197 235.852 10.2403 230.571L9.36262 225.3L7.43582 225.3L6.55838 230.566C5.67802 235.851 5.2356 241.198 5.2356 246.555L5.2356 283.328Z" fill="#C4CDF8"/>
<path d="M137.734 158.983L142.207 163.456L116.202 189.461C112.416 193.247 108.324 196.714 103.968 199.827L99.6203 202.933L98.2578 201.571L101.361 197.226C104.475 192.867 107.944 188.773 111.732 184.985L137.734 158.983Z" fill="#C4CDF8"/>
<path d="M179.795 158.551C174.476 153.232 165.852 153.232 160.532 158.551L155.045 164.039L161.07 170.064C166.389 175.384 166.389 184.008 161.07 189.327L146.68 203.717L97.4755 154.512L111.865 140.122C117.184 134.803 125.809 134.803 131.128 140.122L137.152 146.146L142.64 140.658C147.959 135.339 147.959 126.715 142.64 121.395L141.647 120.403L146.68 115.371L185.82 154.511L180.788 159.543L179.795 158.551Z" fill="#F9A4CF"/>
<path d="M124.314 181.349L146.099 159.564L141.625 155.091L119.841 176.876L124.314 181.349Z" fill="#C82376"/>
<path d="M257.406 322.542C259.353 315.276 255.041 307.807 247.775 305.86L240.278 303.851L238.073 312.082C236.126 319.348 228.657 323.661 221.391 321.714L201.734 316.447L219.745 249.231L239.401 254.498C246.667 256.445 250.979 263.914 249.032 271.18L246.828 279.409L254.324 281.418C261.59 283.365 269.059 279.053 271.006 271.787L271.369 270.431L278.244 272.273L263.917 325.74L257.043 323.898L257.406 322.542Z" fill="#70E6C8"/>
<path d="M200.001 124.004L204.474 119.531L178.469 93.5258C174.683 89.74 170.591 86.2731 166.235 83.1605L161.887 80.054L160.525 81.4165L163.628 85.761C166.742 90.1199 170.211 94.2142 173.999 98.0021L200.001 124.004Z" fill="#C4CDF8"/>
<path d="M242.062 124.436C236.743 129.755 228.118 129.755 222.799 124.436L217.311 118.948L223.337 112.923C228.656 107.603 228.656 98.979 223.337 93.6597L208.947 79.2701L159.742 128.475L174.132 142.865C179.451 148.184 188.075 148.184 193.394 142.865L199.418 136.841L204.906 142.329C210.226 147.648 210.226 156.272 204.906 161.591L203.914 162.584L208.946 167.616L248.087 128.476L243.054 123.444L242.062 124.436Z" fill="#E60023"/>
<path d="M186.581 101.638L208.365 123.422L203.892 127.895L182.108 106.111L186.581 101.638Z" fill="#402970"/>
<path d="M169.665 236.453L165.585 241.287L193.688 265.01C197.779 268.464 202.148 271.574 206.751 274.309L211.345 277.038L212.588 275.566L209.129 271.498C205.66 267.417 201.858 263.629 197.765 260.174L169.665 236.453Z" fill="#C4CDF8"/>
<path d="M127.718 239.565C132.57 233.817 141.164 233.09 146.912 237.943L152.843 242.949L147.346 249.461C142.493 255.209 143.22 263.803 148.968 268.655L164.518 281.782L209.405 228.608L193.855 215.481C188.106 210.629 179.513 211.355 174.66 217.103L169.165 223.613L163.234 218.607C157.486 213.754 156.76 205.161 161.612 199.413L162.518 198.34L157.079 193.749L121.374 236.047L126.812 240.637L127.718 239.565Z" fill="#BBDA81"/>
<path d="M184.921 257.61L161.38 237.738L165.46 232.904L189.002 252.776L184.921 257.61Z" fill="#38A845"/>
<path d="M18.4791 37.5373C16.3298 37.5373 14.5874 39.2797 14.5874 41.429C14.5874 43.5783 16.3298 45.3206 18.4791 45.3206H232.521C234.67 45.3206 236.412 43.5783 236.412 41.429C236.412 39.2797 234.67 37.5373 232.521 37.5373H18.4791Z" fill="#F3F9F9"/>
<path d="M18.4791 53.104C16.3298 53.104 14.5874 54.8463 14.5874 56.9956C14.5874 59.1449 16.3298 60.8873 18.4791 60.8873H232.521C234.67 60.8873 236.412 59.1449 236.412 56.9956C236.412 54.8463 234.67 53.104 232.521 53.104H18.4791Z" fill="#F3F9F9"/>
</g>
<defs>
<linearGradient id="paint0_linear_2583_240098" x1="76.8539" y1="25.8622" x2="76.8539" y2="413.083" gradientUnits="userSpaceOnUse">
<stop stop-color="white"/>
<stop offset="1" stop-color="#E7F9E9"/>
</linearGradient>
<linearGradient id="paint1_linear_2583_240098" x1="76.8539" y1="25.8622" x2="76.8539" y2="413.083" gradientUnits="userSpaceOnUse">
<stop stop-color="#FDE2FD"/>
<stop offset="1" stop-color="white"/>
</linearGradient>
<linearGradient id="paint2_linear_2583_240098" x1="76.8539" y1="72.1926" x2="76.8539" y2="413.083" gradientUnits="userSpaceOnUse">
<stop stop-color="#F8BEF8"/>
<stop offset="1" stop-color="white" stop-opacity="0.75"/>
</linearGradient>
<clipPath id="clip0_2583_240098">
<rect width="375" height="250" fill="white"/>
</clipPath>
</defs>
</svg>
