<svg width="375" height="250" viewBox="0 0 375 250" fill="none" xmlns="http://www.w3.org/2000/svg">
<g clip-path="url(#clip0_2583_240093)">
<rect width="375" height="250" fill="#D5E5B5"/>
<path d="M102.256 8.99579C102.256 25.8454 107.502 35.517 115.308 48.1109C125.566 64.6606 153.75 83.4646 168.065 92.3236C171.814 94.6438 171.814 100.268 168.065 102.589C153.75 111.448 125.566 130.252 115.308 146.801C107.502 159.395 102.256 169.067 102.256 185.916L102.256 195.888C102.256 209.369 102.255 222.849 102.255 236.329H86.6682V240.58C86.6682 246.059 91.1093 250.5 96.5877 250.5H277.973C283.451 250.5 287.893 246.059 287.893 240.58V236.329H272.305C272.305 222.849 272.305 209.369 272.305 195.888L272.305 185.916C272.305 169.067 267.059 159.395 259.253 146.801C248.995 130.252 220.811 111.448 206.496 102.589C202.747 100.268 202.747 94.6438 206.496 92.3236C220.811 83.4646 248.995 64.6606 259.253 48.1109C267.059 35.517 272.305 25.8454 272.305 8.99579L272.305 -25.8293H287.893V-30.0805C287.893 -35.5589 283.451 -40 277.973 -40H96.5877C91.1093 -40 86.6682 -35.5589 86.6682 -30.0805V-25.8293H102.255L102.256 8.99579Z" fill="url(#paint0_radial_2583_240093)"/>
<path d="M160.356 63.4463C160.356 69.7073 155.28 74.7829 149.019 74.7829C142.758 74.7829 137.683 69.7073 137.683 63.4463C137.683 57.1853 142.758 52.1097 149.019 52.1097C155.28 52.1097 160.356 57.1853 160.356 63.4463Z" fill="#8DE296"/>
<path d="M178.778 77.6171C178.778 83.8781 173.703 88.9537 167.442 88.9537C161.181 88.9537 156.105 83.8781 156.105 77.6171C156.105 71.356 161.181 66.2805 167.442 66.2805C173.703 66.2805 178.778 71.356 178.778 77.6171Z" fill="#9FC157"/>
<path d="M198.617 96.039C198.617 102.3 193.541 107.376 187.28 107.376C181.019 107.376 175.944 102.3 175.944 96.039C175.944 89.778 181.019 84.7025 187.28 84.7025C193.541 84.7025 198.617 89.778 198.617 96.039Z" fill="#187486"/>
<path d="M200.034 84.7024C200.034 90.9635 194.959 96.039 188.698 96.039C182.437 96.039 177.361 90.9635 177.361 84.7024C177.361 78.4414 182.437 73.3658 188.698 73.3658C194.959 73.3658 200.034 78.4414 200.034 84.7024Z" fill="#4D6813"/>
<path d="M178.27 89.1582C180.342 86.4496 183.607 84.7025 187.281 84.7025C191.96 84.7025 195.977 87.5373 197.708 91.5833C195.636 94.2919 192.371 96.039 188.698 96.039C184.018 96.039 180.001 93.2042 178.27 89.1582Z" fill="#1C2554"/>
<path d="M221.29 76.2C221.29 82.461 216.215 87.5366 209.954 87.5366C203.693 87.5366 198.617 82.461 198.617 76.2C198.617 69.939 203.693 64.8634 209.954 64.8634C216.215 64.8634 221.29 69.939 221.29 76.2Z" fill="#66CC71"/>
<path d="M198.617 152.722C198.617 158.983 193.541 164.059 187.28 164.059C181.019 164.059 175.944 158.983 175.944 152.722C175.944 146.461 181.019 141.385 187.28 141.385C193.541 141.385 198.617 146.461 198.617 152.722Z" fill="#E60023"/>
<path d="M143.351 48.5671C143.351 54.8281 138.276 59.9037 132.015 59.9037C125.754 59.9037 120.678 54.8281 120.678 48.5671C120.678 42.306 125.754 37.2305 132.015 37.2305C138.276 37.2305 143.351 42.306 143.351 48.5671Z" fill="#FD865E"/>
<path d="M171.693 56.361C171.693 62.622 166.617 67.6976 160.356 67.6976C154.095 67.6976 149.02 62.622 149.02 56.361C149.02 50.0999 154.095 45.0244 160.356 45.0244C166.617 45.0244 171.693 50.0999 171.693 56.361Z" fill="#45C5DE"/>
<path d="M159.544 67.6693C153.662 67.2528 149.02 62.3492 149.02 56.3614C149.02 54.8689 149.308 53.4439 149.832 52.1388C155.714 52.5554 160.356 57.4589 160.356 63.4467C160.356 64.9392 160.068 66.3643 159.544 67.6693Z" fill="#2AA788"/>
<path d="M201.451 62.0293C201.451 68.2903 196.376 73.3659 190.115 73.3659C183.854 73.3659 178.778 68.2903 178.778 62.0293C178.778 55.7683 183.854 50.6927 190.115 50.6927C196.376 50.6927 201.451 55.7683 201.451 62.0293Z" fill="#E60023"/>
<path d="M192.949 49.2756C192.949 55.5366 187.873 60.6122 181.612 60.6122C175.351 60.6122 170.276 55.5366 170.276 49.2756C170.276 43.0146 175.351 37.939 181.612 37.939C187.873 37.939 192.949 43.0146 192.949 49.2756Z" fill="#F7C545"/>
<path d="M192.816 51.0165C191.978 56.4511 187.281 60.6122 181.612 60.6122C180.681 60.6122 179.777 60.5 178.911 60.2884C179.748 54.8538 184.446 50.6927 190.115 50.6927C191.046 50.6927 191.95 50.8049 192.816 51.0165Z" fill="#FA5F2E"/>
<path d="M224.124 59.1951C224.124 65.4561 219.049 70.5317 212.788 70.5317C206.527 70.5317 201.451 65.4561 201.451 59.1951C201.451 52.9341 206.527 47.8585 212.788 47.8585C219.049 47.8585 224.124 52.9341 224.124 59.1951Z" fill="#D7CB42"/>
<path d="M218.635 68.9093C216.928 69.9392 214.927 70.5317 212.788 70.5317C209.303 70.5317 206.186 68.9595 204.106 66.4858C205.813 65.4559 207.814 64.8634 209.954 64.8634C213.438 64.8634 216.556 66.4356 218.635 68.9093Z" fill="#9FC157"/>
<path d="M242.546 57.7781C242.546 64.0391 237.471 69.1146 231.21 69.1146C224.949 69.1146 219.873 64.0391 219.873 57.7781C219.873 51.517 224.949 46.4415 231.21 46.4415C237.471 46.4415 242.546 51.517 242.546 57.7781Z" fill="#988C1B"/>
<path d="M222.504 65.04C220.861 63.0731 219.873 60.5412 219.873 57.7785C219.873 55.6404 220.465 53.6407 221.494 51.934C223.136 53.9009 224.124 56.4328 224.124 59.1955C224.124 61.3335 223.532 63.3333 222.504 65.04Z" fill="#4D6813"/>
<path d="M251.049 46.4415C251.049 52.7025 245.973 57.778 239.712 57.778C233.451 57.778 228.375 52.7025 228.375 46.4415C228.375 40.1804 233.451 35.1049 239.712 35.1049C245.973 35.1049 251.049 40.1804 251.049 46.4415Z" fill="#FDA64F"/>
<path d="M228.381 46.7972C229.285 46.565 230.233 46.4415 231.21 46.4415C237.352 46.4415 242.353 51.3259 242.541 57.4223C241.637 57.6545 240.689 57.7781 239.712 57.7781C233.57 57.7781 228.569 52.8936 228.381 46.7972Z" fill="#7E5207"/>
<path d="M229.793 190.983C229.793 197.244 224.717 202.32 218.456 202.32C212.195 202.32 207.12 197.244 207.12 190.983C207.12 184.722 212.195 179.646 218.456 179.646C224.717 179.646 229.793 184.722 229.793 190.983Z" fill="#83C3FC"/>
<path d="M263.802 195.234C263.802 201.495 258.727 206.571 252.466 206.571C246.205 206.571 241.129 201.495 241.129 195.234C241.129 188.973 246.205 183.898 252.466 183.898C258.727 183.898 263.802 188.973 263.802 195.234Z" fill="#70E6C8"/>
<path d="M249.632 202.319C249.632 208.581 244.556 213.656 238.295 213.656C232.034 213.656 226.958 208.581 226.958 202.319C226.958 196.058 232.034 190.983 238.295 190.983C244.556 190.983 249.632 196.058 249.632 202.319Z" fill="#1A5866"/>
<path d="M249.009 206.034C244.438 204.573 241.129 200.29 241.129 195.234C241.129 193.933 241.348 192.684 241.752 191.52C246.322 192.982 249.632 197.264 249.632 202.32C249.632 203.621 249.412 204.871 249.009 206.034Z" fill="#38A845"/>
<path d="M195.783 210.822C195.783 217.083 190.707 222.159 184.446 222.159C178.185 222.159 173.11 217.083 173.11 210.822C173.11 204.561 178.185 199.485 184.446 199.485C190.707 199.485 195.783 204.561 195.783 210.822Z" fill="#F7C545"/>
<path d="M207.119 230.661C207.119 236.922 202.044 241.998 195.783 241.998C189.522 241.998 184.446 236.922 184.446 230.661C184.446 224.4 189.522 219.324 195.783 219.324C202.044 219.324 207.119 224.4 207.119 230.661Z" fill="#66CC71"/>
<path d="M218.456 210.822C218.456 217.083 213.381 222.159 207.12 222.159C200.859 222.159 195.783 217.083 195.783 210.822C195.783 204.561 200.859 199.485 207.12 199.485C213.381 199.485 218.456 204.561 218.456 210.822Z" fill="#187486"/>
<path d="M221.29 239.163C221.29 245.424 216.215 250.5 209.954 250.5C203.693 250.5 198.617 245.424 198.617 239.163C198.617 232.902 203.693 227.827 209.954 227.827C216.215 227.827 221.29 232.902 221.29 239.163Z" fill="#45C5DE"/>
<path d="M198.873 241.571C203.632 240.226 207.12 235.851 207.12 230.661C207.12 229.835 207.031 229.029 206.863 228.253C202.104 229.598 198.617 233.974 198.617 239.163C198.617 239.99 198.706 240.795 198.873 241.571Z" fill="#187486"/>
<path d="M232.627 219.324C232.627 225.585 227.551 230.661 221.29 230.661C215.029 230.661 209.954 225.585 209.954 219.324C209.954 213.063 215.029 207.988 221.29 207.988C227.551 207.988 232.627 213.063 232.627 219.324Z" fill="#79D8EC"/>
<path d="M210.21 221.732C214.969 220.387 218.456 216.012 218.456 210.822C218.456 209.996 218.368 209.19 218.2 208.414C213.441 209.759 209.954 214.135 209.954 219.324C209.954 220.151 210.042 220.956 210.21 221.732Z" fill="#1A5866"/>
<path d="M266.637 217.907C266.637 224.168 261.561 229.244 255.3 229.244C249.039 229.244 243.963 224.168 243.963 217.907C243.963 211.646 249.039 206.571 255.3 206.571C261.561 206.571 266.637 211.646 266.637 217.907Z" fill="#59AAF3"/>
<path d="M243.963 239.163C243.963 245.424 238.888 250.5 232.627 250.5C226.366 250.5 221.29 245.424 221.29 239.163C221.29 232.902 226.366 227.827 232.627 227.827C238.888 227.827 243.963 232.902 243.963 239.163Z" fill="#526AE0"/>
<path d="M258.134 239.163C258.134 245.424 253.059 250.5 246.798 250.5C240.536 250.5 235.461 245.424 235.461 239.163C235.461 232.902 240.536 227.827 246.798 227.827C253.059 227.827 258.134 232.902 258.134 239.163Z" fill="#1C2554"/>
<path d="M239.712 248.014C242.304 245.936 243.963 242.744 243.963 239.164C243.963 235.584 242.304 232.391 239.712 230.314C237.12 232.391 235.461 235.584 235.461 239.164C235.461 242.744 237.12 245.936 239.712 248.014Z" fill="#2A3FA7"/>
<path d="M185.863 239.163C185.863 245.424 180.788 250.5 174.527 250.5C168.266 250.5 163.19 245.424 163.19 239.163C163.19 232.902 168.266 227.827 174.527 227.827C180.788 227.827 185.863 232.902 185.863 239.163Z" fill="#4D6813"/>
<path d="M178.778 216.49C178.778 222.751 173.703 227.827 167.442 227.827C161.181 227.827 156.105 222.751 156.105 216.49C156.105 210.229 161.181 205.154 167.442 205.154C173.703 205.154 178.778 210.229 178.778 216.49Z" fill="#D7CB42"/>
<path d="M178.142 220.245C175.107 218.211 173.11 214.75 173.11 210.822C173.11 209.506 173.334 208.243 173.746 207.068C176.781 209.102 178.778 212.563 178.778 216.491C178.778 217.807 178.554 219.07 178.142 220.245Z" fill="#E68800"/>
<path d="M153.271 239.163C153.271 245.424 148.195 250.5 141.934 250.5C135.673 250.5 130.598 245.424 130.598 239.163C130.598 232.902 135.673 227.827 141.934 227.827C148.195 227.827 153.271 232.902 153.271 239.163Z" fill="#988C1B"/>
<path d="M130.597 239.163C130.597 245.424 125.522 250.5 119.261 250.5C113 250.5 107.924 245.424 107.924 239.163C107.924 232.902 113 227.827 119.261 227.827C125.522 227.827 130.597 232.902 130.597 239.163Z" fill="#DA3C0B"/>
<path d="M163.19 233.495C163.19 239.756 158.115 244.832 151.854 244.832C145.593 244.832 140.517 239.756 140.517 233.495C140.517 227.234 145.593 222.159 151.854 222.159C158.115 222.159 163.19 227.234 163.19 233.495Z" fill="#9FC157"/>
<path d="M151.754 244.832C145.539 244.778 140.517 239.723 140.517 233.495C140.517 231.431 141.069 229.495 142.033 227.828C148.249 227.881 153.271 232.936 153.271 239.164C153.271 241.228 152.719 243.164 151.754 244.832Z" fill="#573905"/>
<path d="M141.934 219.324C141.934 225.585 136.859 230.661 130.598 230.661C124.337 230.661 119.261 225.585 119.261 219.324C119.261 213.063 124.337 207.988 130.598 207.988C136.859 207.988 141.934 213.063 141.934 219.324Z" fill="#FDA64F"/>
<path d="M150.437 215.073C150.437 221.334 145.361 226.41 139.1 226.41C132.839 226.41 127.763 221.334 127.763 215.073C127.763 208.812 132.839 203.737 139.1 203.737C145.361 203.737 150.437 208.812 150.437 215.073Z" fill="#FDD9B4"/>
<path d="M130.246 207.993C130.362 207.99 130.48 207.988 130.598 207.988C136.859 207.988 141.934 213.063 141.934 219.324C141.934 222.003 141.005 224.464 139.452 226.404C139.335 226.408 139.218 226.41 139.1 226.41C132.839 226.41 127.763 221.334 127.763 215.073C127.763 212.395 128.692 209.933 130.246 207.993Z" fill="#FD865E"/>
<path d="M86.6682 236.329H287.893V240.713C287.893 246.118 283.511 250.5 278.106 250.5H96.4552C91.05 250.5 86.6682 246.118 86.6682 240.713V236.329Z" fill="url(#paint1_linear_2583_240093)"/>
</g>
<defs>
<radialGradient id="paint0_radial_2583_240093" cx="0" cy="0" r="1" gradientUnits="userSpaceOnUse" gradientTransform="translate(187.28 98.1646) rotate(90) scale(152.335 161.43)">
<stop stop-color="white"/>
<stop offset="1" stop-color="#E7F9E9"/>
</radialGradient>
<linearGradient id="paint1_linear_2583_240093" x1="187.28" y1="236.329" x2="187.28" y2="250.5" gradientUnits="userSpaceOnUse">
<stop stop-color="white" stop-opacity="0.75"/>
<stop offset="1" stop-color="white"/>
</linearGradient>
<clipPath id="clip0_2583_240093">
<rect width="375" height="250" fill="white"/>
</clipPath>
</defs>
</svg>
