<svg xmlns="http://www.w3.org/2000/svg" width="375" height="250" fill="none" viewBox="0 0 375 250"><g clip-path="url(#a)"><path fill="#1e4a71" d="M0 0h375v250H0z"/><g clip-path="url(#b)"><path fill="#768aea" fill-rule="evenodd" d="M254.94 93.62c44.631 0 81.046 18.417 83.067 41.534a.05.05 0 0 0 .049.046.05.05 0 0 1 .049.049v55.391c0 45.928-37.232 83.16-83.16 83.16-30.667 0-57.454-16.603-71.871-41.308-.571-.978-1.832-1.305-2.844-.797a23.6 23.6 0 0 1-10.637 2.505h-.406a23.76 23.76 0 0 1-21.97-14.713l-13.682-33.219c-7.692-18.68 6.041-39.188 26.243-39.188 3.18 0 6.25.529 9.122 1.507 1.372.466 2.885-.501 2.885-1.951v-9.217c0-.079-.005-.16-.005-.239 0-.081.005-.162.005-.242v-1.695c0-.024.02-.043.044-.043a.044.044 0 0 0 .043-.04c2.015-23.12 38.433-41.54 83.068-41.54m-95.162 73.26c-6.108 0-10.259 6.201-7.934 11.849l13.68 33.219a3.96 3.96 0 0 0 3.663 2.452h.406a3.96 3.96 0 0 0 3.917-4.537l-5.242-35.651a8.58 8.58 0 0 0-8.49-7.332" clip-rule="evenodd"/><path fill="url(#c)" d="M181.68 137.18c0-6.5 5.216-14.785 19.05-22.031 13.365-7.001 32.516-11.629 54.21-11.629s40.845 4.628 54.21 11.629c13.834 7.246 19.05 15.531 19.05 22.031s-5.216 14.785-19.05 22.031c-13.365 7.001-32.515 11.629-54.21 11.629v9.9c45.928 0 83.16-19.502 83.16-43.56 0-24.057-37.232-43.56-83.16-43.56s-83.16 19.503-83.16 43.56 37.232 43.56 83.16 43.56v-9.9c-21.694 0-40.845-4.628-54.21-11.629-13.834-7.246-19.05-15.531-19.05-22.031"/><path fill="#c856c8" d="M254.94 93.62c31.666 0 59.193 9.276 73.237 22.919-.933 25.718-33.364 46.381-73.237 46.381-39.875 0-72.306-20.664-73.237-46.383 14.044-13.643 41.571-22.917 73.237-22.917"/><ellipse cx="254.94" cy="137.18" fill="url(#d)" rx="73.26" ry="33.66"/><g filter="url(#e)"><path fill="url(#f)" d="M215.34 132.527c0 13.167 39.6 24.453 39.6 24.453s39.6-11.286 39.6-24.453v-.997c0-6.721-9.559-12.17-21.35-12.17-6.336 0-12.345 1.604-16.402 4.379l-1.848 1.264-1.848-1.264c-4.057-2.775-10.065-4.379-16.402-4.379-11.791 0-21.35 5.449-21.35 12.17z"/></g><path fill="#fa5f2e" fill-rule="evenodd" d="M45.06 93.62c-44.631 0-81.046 18.417-83.067 41.534a.05.05 0 0 1-.05.046.05.05 0 0 0-.049.049v55.391c0 45.928 37.232 83.16 83.16 83.16 30.668 0 57.455-16.603 71.872-41.308.571-.978 1.832-1.305 2.844-.797a23.6 23.6 0 0 0 10.637 2.505h.406a23.76 23.76 0 0 0 21.97-14.713l13.682-33.219c7.692-18.68-6.041-39.188-26.243-39.188-3.18 0-6.25.529-9.123 1.507-1.372.466-2.885-.501-2.885-1.951v-9.217c.001-.079.006-.16.006-.239 0-.081-.005-.162-.006-.242v-1.695a.043.043 0 0 0-.043-.043.044.044 0 0 1-.043-.04c-2.015-23.12-38.433-41.54-83.068-41.54m95.162 73.26c6.108 0 10.259 6.201 7.934 11.849l-13.681 33.219a3.96 3.96 0 0 1-3.662 2.452h-.406a3.96 3.96 0 0 1-3.917-4.537l5.242-35.651a8.58 8.58 0 0 1 8.49-7.332" clip-rule="evenodd"/><path fill="url(#g)" d="M118.32 137.18c0-6.5-5.216-14.785-19.05-22.031-13.365-7.001-32.515-11.629-54.21-11.629-21.694 0-40.845 4.628-54.21 11.629-13.834 7.246-19.05 15.531-19.05 22.031s5.216 14.785 19.05 22.031c13.365 7.001 32.516 11.629 54.21 11.629v9.9c-45.928 0-83.16-19.502-83.16-43.56 0-24.057 37.232-43.56 83.16-43.56s83.16 19.503 83.16 43.56-37.232 43.56-83.16 43.56v-9.9c21.695 0 40.845-4.628 54.21-11.629 13.834-7.246 19.05-15.531 19.05-22.031"/><path fill="#fda64f" d="M45.06 93.62c-31.665 0-59.19 9.275-73.235 22.917.93 25.719 33.36 46.383 73.235 46.383s72.307-20.664 73.238-46.383C104.254 102.894 76.726 93.62 45.06 93.62"/><ellipse cx="73.26" cy="33.66" fill="url(#h)" rx="73.26" ry="33.66" transform="matrix(-1 0 0 1 118.32 103.52)"/><g filter="url(#i)"><path fill="url(#j)" d="M84.66 132.527c0 13.167-39.6 24.453-39.6 24.453s-39.6-11.286-39.6-24.453v-.997c0-6.721 9.559-12.17 21.35-12.17 6.336 0 12.345 1.604 16.402 4.379l1.848 1.264 1.848-1.264c4.057-2.775 10.066-4.379 16.402-4.379 11.791 0 21.35 5.449 21.35 12.17z"/></g><path fill="#e60023" d="M150 148.787c11.486 4.191 19.089 15.533 18.609 27.747l-.341-2.322a8.58 8.58 0 0 0-8.49-7.332c-6.108 0-10.259 6.201-7.933 11.849l8.861 21.519-7.924 19.239a23.7 23.7 0 0 1-2.782 4.96 23.8 23.8 0 0 1-2.783-4.96l-7.925-19.239 8.863-21.519c2.326-5.648-1.825-11.849-7.933-11.849a8.58 8.58 0 0 0-8.491 7.332l-.34 2.311c-.475-12.21 7.127-23.546 18.609-27.736"/><ellipse cx="45.06" cy="115.4" fill="url(#k)" opacity=".5" rx="73.26" ry="47.52"/><ellipse cx="254.94" cy="115.4" fill="url(#l)" opacity=".5" rx="73.26" ry="47.52"/><ellipse cx="45.06" cy="23.33" fill="url(#m)" opacity=".5" rx="63.36" ry="44.55"/><ellipse cx="254.94" cy="23.33" fill="url(#n)" opacity=".5" rx="63.36" ry="44.55"/><ellipse cx="45.06" cy="-17.26" fill="url(#o)" opacity=".5" rx="37.62" ry="25.74"/><ellipse cx="254.94" cy="-17.26" fill="url(#p)" opacity=".5" rx="37.62" ry="25.74"/><ellipse cx="45.06" cy="71.84" fill="url(#q)" opacity=".5" rx="83.16" ry="63.36"/><ellipse cx="254.94" cy="71.84" fill="url(#r)" opacity=".5" rx="83.16" ry="63.36"/></g></g><defs><radialGradient id="c" cx="0" cy="0" r="1" gradientTransform="rotate(-90 214.87 -40.07)scale(81.18)" gradientUnits="userSpaceOnUse"><stop stop-color="#83c3fc"/><stop offset="1" stop-color="#768aea"/></radialGradient><radialGradient id="d" cx="0" cy="0" r="1" gradientTransform="matrix(0 33.66 -73.26 0 254.94 137.18)" gradientUnits="userSpaceOnUse"><stop stop-color="#a69377"/><stop offset=".75" stop-color="#804000"/><stop offset="1" stop-color="#5c2e00"/></radialGradient><radialGradient id="g" cx="0" cy="0" r="1" gradientTransform="rotate(-90 112.9 67.84)scale(80.19)" gradientUnits="userSpaceOnUse"><stop stop-color="#fca58d"/><stop offset="1" stop-color="#fa5f2e"/></radialGradient><radialGradient id="h" cx="0" cy="0" r="1" gradientTransform="matrix(0 33.66 -73.26 0 73.26 33.66)" gradientUnits="userSpaceOnUse"><stop stop-color="#a69377"/><stop offset=".75" stop-color="#804000"/><stop offset="1" stop-color="#5c2e00"/></radialGradient><radialGradient id="k" cx="0" cy="0" r="1" gradientTransform="matrix(-123.385 0 0 -162.4 45.06 115.4)" gradientUnits="userSpaceOnUse"><stop offset=".2" stop-color="#fff" stop-opacity="0"/><stop offset=".654" stop-color="#fdd9b4"/></radialGradient><radialGradient id="l" cx="0" cy="0" r="1" gradientTransform="matrix(-123.385 0 0 -162.4 254.94 115.4)" gradientUnits="userSpaceOnUse"><stop offset=".2" stop-color="#fff" stop-opacity="0"/><stop offset=".654" stop-color="#fdd9b4"/></radialGradient><radialGradient id="m" cx="0" cy="0" r="1" gradientTransform="matrix(-106.712 0 0 -152.25 45.06 23.33)" gradientUnits="userSpaceOnUse"><stop offset=".2" stop-color="#fff" stop-opacity="0"/><stop offset=".654" stop-color="#fdd9b4"/></radialGradient><radialGradient id="n" cx="0" cy="0" r="1" gradientTransform="matrix(-106.712 0 0 -152.25 254.94 23.33)" gradientUnits="userSpaceOnUse"><stop offset=".2" stop-color="#fff" stop-opacity="0"/><stop offset=".654" stop-color="#fdd9b4"/></radialGradient><radialGradient id="o" cx="0" cy="0" r="1" gradientTransform="matrix(-63.36 0 0 -87.9669 45.06 -17.26)" gradientUnits="userSpaceOnUse"><stop offset=".2" stop-color="#fff" stop-opacity="0"/><stop offset=".654" stop-color="#fdd9b4"/></radialGradient><radialGradient id="p" cx="0" cy="0" r="1" gradientTransform="matrix(-63.36 0 0 -87.9669 254.94 -17.26)" gradientUnits="userSpaceOnUse"><stop offset=".2" stop-color="#fff" stop-opacity="0"/><stop offset=".654" stop-color="#fdd9b4"/></radialGradient><radialGradient id="q" cx="0" cy="0" r="1" gradientTransform="matrix(-140.059 0 0 -216.534 45.06 71.84)" gradientUnits="userSpaceOnUse"><stop offset=".2" stop-color="#fff" stop-opacity="0"/><stop offset=".654" stop-color="#fdd9b4"/></radialGradient><radialGradient id="r" cx="0" cy="0" r="1" gradientTransform="matrix(-140.059 0 0 -216.534 254.94 71.84)" gradientUnits="userSpaceOnUse"><stop offset=".2" stop-color="#fff" stop-opacity="0"/><stop offset=".654" stop-color="#fdd9b4"/></radialGradient><linearGradient id="f" x1="254.94" x2="254.94" y1="119.36" y2="156.98" gradientUnits="userSpaceOnUse"><stop stop-color="#fff" stop-opacity=".8"/><stop offset="1" stop-color="#fdd9b4"/></linearGradient><linearGradient id="j" x1="45.06" x2="45.06" y1="119.36" y2="156.98" gradientUnits="userSpaceOnUse"><stop stop-color="#fff" stop-opacity=".8"/><stop offset="1" stop-color="#fdd9b4"/></linearGradient><clipPath id="a"><path fill="#fff" d="M0 0h375v250H0z"/></clipPath><clipPath id="b"><path fill="#fff" d="M-48-43h396v316.8H-48z"/></clipPath><filter id="e" width="83.16" height="41.58" x="213.36" y="117.38" color-interpolation-filters="sRGB" filterUnits="userSpaceOnUse"><feFlood flood-opacity="0" result="BackgroundImageFix"/><feBlend in="SourceGraphic" in2="BackgroundImageFix" result="shape"/><feGaussianBlur result="effect1_foregroundBlur_2779_9889" stdDeviation=".99"/></filter><filter id="i" width="83.16" height="41.58" x="3.48" y="117.38" color-interpolation-filters="sRGB" filterUnits="userSpaceOnUse"><feFlood flood-opacity="0" result="BackgroundImageFix"/><feBlend in="SourceGraphic" in2="BackgroundImageFix" result="shape"/><feGaussianBlur result="effect1_foregroundBlur_2779_9889" stdDeviation=".99"/></filter></defs></svg>