<svg width="375" height="375" viewBox="0 0 375 375" fill="none" xmlns="http://www.w3.org/2000/svg">
<g clip-path="url(#clip0_2583_241165)">
<rect width="375" height="375" fill="#8F2459"/>
<path d="M361 157C361 235.977 296.977 300 218 300C139.023 300 75 235.977 75 157C75 78.0233 139.023 14 218 14C296.977 14 361 78.0233 361 157Z" fill="url(#paint0_linear_2583_241165)"/>
<path d="M-96.4204 346.412L-89.4922 342.412L-88.1018 344.385C-86.9111 346.075 -84.6289 346.579 -82.8371 345.548L42.6169 273.368L54 294L-71.1922 366.03C-73.0904 367.122 -73.7574 369.537 -72.6887 371.449L-71.4922 373.589L-78.4204 377.589L-96.4204 346.412Z" fill="#EF7BB5"/>
<path d="M217.42 186C232.884 212.784 223.707 247.034 196.923 262.497C170.139 277.961 135.889 268.784 120.426 242C104.962 215.216 114.139 180.967 140.923 165.503C167.707 150.039 201.956 159.216 217.42 186Z" fill="#9BAAF3"/>
<path d="M-53.4326 312.868L116.478 191.163L162.478 270.837L-27.8771 357.132L-53.4326 312.868Z" fill="url(#paint1_linear_2583_241165)"/>
<path d="M-34.8216 345.104L-46.6016 324.7L42.6171 273.368L54.0003 294L-34.8216 345.104Z" fill="url(#paint2_linear_2583_241165)"/>
<path d="M23.1016 245.429L154.976 145.842L220.976 260.158L68.7939 324.571L23.1016 245.429Z" fill="url(#paint3_linear_2583_241165)"/>
<path d="M1.40815 343.856L-13.2346 350.494L-40.3628 303.506L-27.2927 294.145L1.40815 343.856Z" fill="url(#paint4_linear_2583_241165)"/>
<path d="M176.434 279.01L116.378 174.99L129.244 165.274L191.281 272.726L176.434 279.01Z" fill="url(#paint5_linear_2583_241165)"/>
<path fill-rule="evenodd" clip-rule="evenodd" d="M55 300.981L97.6595 455.368C99.0687 460.468 103.709 464 109 464V472C100.111 472 92.3158 466.067 89.9485 457.499L55 331.019L20.0515 457.499C17.6842 466.067 9.88876 472 1 472V464C6.29107 464 10.9313 460.468 12.3405 455.368L55 300.981Z" fill="#C856C8"/>
<circle cx="55" cy="316" r="16" fill="#E2E6FD"/>
<circle cx="55" cy="316" r="8" fill="#D4C4F7"/>
<path d="M179 46C180.105 46 181 45.1046 181 44C181 42.8954 180.105 42 179 42C177.895 42 177 42.8954 177 44C177 45.1046 177.895 46 179 46Z" fill="#526AE0"/>
<path d="M261 48C261 49.1046 260.105 50 259 50C257.895 50 257 49.1046 257 48C257 46.8954 257.895 46 259 46C260.105 46 261 46.8954 261 48Z" fill="#526AE0"/>
<path d="M229 60C231.209 60 233 58.2091 233 56C233 53.7909 231.209 52 229 52C226.791 52 225 53.7909 225 56C225 58.2091 226.791 60 229 60Z" fill="#526AE0"/>
<path d="M145 120C146.105 120 147 119.105 147 118C147 116.895 146.105 116 145 116C143.895 116 143 116.895 143 118C143 119.105 143.895 120 145 120Z" fill="#526AE0"/>
<path d="M157 126C158.105 126 159 125.105 159 124C159 122.895 158.105 122 157 122C155.895 122 155 122.895 155 124C155 125.105 155.895 126 157 126Z" fill="#526AE0"/>
<path d="M317 206C317 207.105 316.105 208 315 208C313.895 208 313 207.105 313 206C313 204.895 313.895 204 315 204C316.105 204 317 204.895 317 206Z" fill="#526AE0"/>
<path d="M283 238C284.105 238 285 237.105 285 236C285 234.895 284.105 234 283 234C281.895 234 281 234.895 281 236C281 237.105 281.895 238 283 238Z" fill="#526AE0"/>
<path d="M273 228C273 231.314 270.314 234 267 234C263.686 234 261 231.314 261 228C261 224.686 263.686 222 267 222C270.314 222 273 224.686 273 228Z" fill="#526AE0"/>
<path d="M285 186C287.209 186 289 184.209 289 182C289 179.791 287.209 178 285 178C282.791 178 281 179.791 281 182C281 184.209 282.791 186 285 186Z" fill="#526AE0"/>
<path d="M133 128C133 130.209 131.209 132 129 132C126.791 132 125 130.209 125 128C125 125.791 126.791 124 129 124C131.209 124 133 125.791 133 128Z" fill="#526AE0"/>
<circle cx="299" cy="120" r="28" fill="#E60023"/>
<path d="M319 120C319 131.046 310.046 140 299 140C287.954 140 279 131.046 279 120C279 108.954 287.954 100 299 100C310.046 100 319 108.954 319 120Z" fill="#FA5F2E"/>
<path d="M311 120C311 126.627 305.627 132 299 132C292.373 132 287 126.627 287 120C287 113.373 292.373 108 299 108C305.627 108 311 113.373 311 120Z" fill="#F7C545"/>
</g>
<defs>
<linearGradient id="paint0_linear_2583_241165" x1="218" y1="14" x2="218" y2="300" gradientUnits="userSpaceOnUse">
<stop stop-color="#2F1E52"/>
<stop offset="1" stop-color="#2A3FA7"/>
</linearGradient>
<linearGradient id="paint1_linear_2583_241165" x1="-40.6548" y1="335" x2="139.479" y2="231" gradientUnits="userSpaceOnUse">
<stop stop-color="#B497ED"/>
<stop offset="1" stop-color="#E7559E"/>
</linearGradient>
<linearGradient id="paint2_linear_2583_241165" x1="-84.9995" y1="362" x2="139.478" y2="231" gradientUnits="userSpaceOnUse">
<stop offset="0.115216" stop-color="#B497ED"/>
<stop offset="0.586721" stop-color="#E7559E"/>
</linearGradient>
<linearGradient id="paint3_linear_2583_241165" x1="45.9478" y1="285" x2="187.976" y2="203" gradientUnits="userSpaceOnUse">
<stop offset="0.4" stop-color="#B497ED"/>
<stop offset="1" stop-color="#F9A4CF"/>
</linearGradient>
<linearGradient id="paint4_linear_2583_241165" x1="-39.8703" y1="288.359" x2="1.04925" y2="359.234" gradientUnits="userSpaceOnUse">
<stop stop-color="white" stop-opacity="0.8"/>
<stop offset="1" stop-color="#FDE2FD"/>
</linearGradient>
<linearGradient id="paint5_linear_2583_241165" x1="119.334" y1="164.11" x2="188.897" y2="284.597" gradientUnits="userSpaceOnUse">
<stop stop-color="white" stop-opacity="0.8"/>
<stop offset="1" stop-color="#FDE2FD"/>
</linearGradient>
<clipPath id="clip0_2583_241165">
<rect width="375" height="375" fill="white"/>
</clipPath>
</defs>
</svg>
