<svg width="375" height="375" viewBox="0 0 375 375" fill="none" xmlns="http://www.w3.org/2000/svg">
<g clip-path="url(#clip0_2583_241163)">
<rect width="375" height="375" fill="#8F2459"/>
<path d="M48.2916 93.5263C46.2226 95.1806 43.7975 96.3233 41.3046 97.176V97.1931C29.9423 101.047 12.6783 94.4472 19.2922 79.6266C21.0559 75.687 25.2447 73.828 28.5686 71.4745C34.0463 67.586 38.3707 62.5037 44.7981 60.0478C48.7325 58.547 52.9722 58.0353 57.161 57.5407C80.3265 54.7949 109.428 50.3948 130.999 59.3144C138.967 62.6218 287.288 134.727 333.535 169.575L340.668 219.827C312.024 204.512 200.411 123.85 168.037 121.735C165.561 121.581 162.932 121.411 160.914 119.961C159.633 119.036 158.734 117.695 157.846 116.372L157.76 116.243C149.755 104.288 140.259 93.3557 129.575 83.771C119.264 74.5102 107.104 66.2387 93.3339 65.0278C79.75 63.8169 65.7421 70.1954 57.6867 81.2639C54.6341 85.4423 52.3278 90.3029 48.2916 93.5263Z" fill="#E7559E"/>
<path d="M201.622 135.312C203.447 137.231 205.694 138.693 208.048 139.876L208.046 139.893C218.78 145.254 236.78 141.059 232.24 125.478C231.027 121.335 227.13 118.925 224.156 116.142C219.257 111.545 215.663 105.923 209.628 102.617C205.934 100.596 201.803 99.5137 197.72 98.455C175.142 92.5895 146.908 84.2792 124.325 90.1876C116.076 92.3575 -37.2005 142.52 -89.5356 170.955L-89.5356 214.1C-45.2818 194.083 50.9074 144.994 79.1554 147.002C81.6292 147.186 84.2567 147.374 86.4529 146.211C87.8478 145.469 88.921 144.262 89.9798 143.072L90.0828 142.956C99.6363 132.198 110.529 122.657 122.416 114.611C133.888 106.836 147.058 100.292 160.866 100.962C174.488 101.606 187.5 109.827 193.978 121.887C196.435 126.441 198.061 131.57 201.622 135.312Z" fill="#DA3C0B"/>
<path d="M216.131 142.045C225.791 142.763 235.749 137.522 232.24 125.478C231.298 122.262 228.74 120.091 226.251 117.978C225.533 117.369 224.821 116.765 224.156 116.142C222.54 114.625 221.066 112.998 219.599 111.378C216.62 108.088 213.672 104.833 209.628 102.617C205.934 100.596 201.803 99.5137 197.72 98.455C196.139 98.0443 194.531 97.6217 192.898 97.1928C174.635 92.3939 153.387 86.8108 134.589 88.453C139.134 92.8694 143.439 97.5382 147.476 102.432C151.845 101.302 156.321 100.741 160.866 100.962C174.488 101.606 187.5 109.827 193.978 121.887C194.712 123.247 195.372 124.659 196.031 126.069C197.232 128.639 198.431 131.205 200.075 133.452C205.152 136.013 210.537 138.907 216.131 142.045Z" fill="#E60023"/>
<path d="M51.2847 132.661C62.4948 132.661 72.8815 138.547 78.642 148.164L92.4284 171.18C98.6551 181.575 109.883 187.937 122 187.937C134.117 187.937 145.345 181.575 151.571 171.18L165.358 148.164C171.118 138.547 181.505 132.661 192.715 132.661H290.68C300.382 132.661 309.556 137.078 315.607 144.662L340.392 175.725C344.899 181.374 347.354 188.387 347.354 195.614V261.047C347.354 268.274 344.899 275.287 340.392 280.936L315.607 311.999C309.556 319.583 300.382 324 290.68 324H195.496C182.828 324 171.362 316.502 166.282 304.898L137.083 238.193C134.461 232.202 128.54 228.331 122 228.331C115.459 228.331 109.539 232.202 106.916 238.193L77.7174 304.898C72.6378 316.502 61.1714 324 48.5039 324H-46.6802C-56.3822 324 -65.5566 319.583 -71.6076 311.999L-96.3922 280.936C-100.9 275.287 -103.354 268.274 -103.354 261.047V195.614C-103.354 188.387 -100.9 181.374 -96.3922 175.725L-71.6076 144.662C-65.5566 137.078 -56.3822 132.661 -46.6801 132.661H51.2847Z" fill="#8F2459"/>
<path d="M311.212 247.465H145.386V230.2C145.386 227.878 147.028 225.881 149.306 225.433C151.281 225.044 152.811 223.478 153.154 221.494L156.016 204.945H166.725C169.357 204.945 171.84 203.726 173.451 201.645L183.147 189.111C184.758 187.03 187.241 185.811 189.873 185.811H212.57C215.553 185.811 218.317 187.374 219.856 189.929L226.416 200.827C227.955 203.382 230.719 204.945 233.702 204.945H252.118C254.547 204.945 256.86 205.984 258.474 207.799L270.408 221.225C272.021 223.04 274.335 224.079 276.764 224.079H289.874C292.595 224.079 295.151 225.381 296.752 227.581L311.212 247.465Z" fill="#5E1741"/>
<path d="M-45.9531 247.465H98.6138L109.244 198.567H98.5345C95.9026 198.567 93.419 197.348 91.8085 195.267L82.112 182.733C80.5015 180.652 78.0179 179.433 75.386 179.433H50.6952C47.6416 179.433 44.8224 181.07 43.3091 183.722L32.4337 202.782C30.9203 205.434 28.1012 207.071 25.0476 207.071H5.63337C2.64625 207.071 -0.121838 208.638 -1.6587 211.2L-9.46016 224.202C-10.997 226.763 -13.7651 228.331 -16.7522 228.331H-30.3195C-33.4078 228.331 -36.2534 230.005 -37.7532 232.705L-45.9531 247.465Z" fill="#5E1741"/>
<path d="M273.848 132.661H198.496C199.019 132.921 199.546 133.185 200.076 133.453C200.551 134.101 201.063 134.724 201.622 135.312C203.447 137.231 205.695 138.693 208.049 139.876L208.047 139.893C210.483 141.11 213.294 141.835 216.131 142.045C242.132 156.633 272.643 176.507 297.703 192.83C316.482 205.061 332.2 215.299 340.668 219.827L333.535 169.575C320.194 159.522 298.358 146.369 273.848 132.661Z" fill="#186250"/>
<path d="M77.8746 146.946C71.9879 138.053 62.0134 132.661 51.2847 132.661H1.1384C-33.4437 145.542 -67.0985 159.101 -87.4097 169.817L-87.4097 213.134C-79.2783 209.426 -69.5731 204.844 -58.9627 199.834C-11.5502 177.447 53.9396 146.525 77.8746 146.946Z" fill="#186250"/>
<path d="M-46.6802 324H48.5039C61.1714 324 72.6378 316.502 77.7174 304.898L102.858 247.465H-103.354V261.047C-103.354 268.274 -100.9 275.287 -96.3922 280.936L-71.6076 311.999C-65.5566 319.583 -56.3822 324 -46.6802 324Z" fill="url(#paint0_linear_2583_241163)"/>
<path d="M141.142 247.465L166.282 304.898C171.362 316.502 182.828 324 195.496 324H290.68C300.382 324 309.556 319.583 315.607 311.999L340.392 280.936C344.899 275.287 347.354 268.274 347.354 261.047V247.465H141.142Z" fill="url(#paint1_linear_2583_241163)"/>
<path d="M306.961 191.126C306.961 198.758 300.774 204.945 293.142 204.945C285.51 204.945 279.323 198.758 279.323 191.126C279.323 183.494 285.51 177.307 293.142 177.307C300.774 177.307 306.961 183.494 306.961 191.126Z" fill="#F7C545"/>
<path fill-rule="evenodd" clip-rule="evenodd" d="M78.642 148.164C72.8815 138.547 62.4948 132.661 51.2847 132.661H-46.6801C-56.3822 132.661 -65.5566 137.078 -71.6076 144.662L-96.3922 175.725C-100.9 181.374 -103.354 188.387 -103.354 195.614V261.047C-103.354 268.274 -100.9 275.287 -96.3922 280.936L-71.6076 311.999C-65.5566 319.583 -56.3822 324 -46.6802 324H48.5039C61.1714 324 72.6378 316.502 77.7174 304.898L106.916 238.193C109.539 232.202 115.459 228.331 122 228.331C128.54 228.331 134.461 232.202 137.083 238.193L166.282 304.898C171.362 316.502 182.828 324 195.496 324H290.68C300.382 324 309.556 319.583 315.607 311.999L340.392 280.936C344.899 275.287 347.354 268.274 347.354 261.047V195.614C347.354 188.387 344.899 181.374 340.392 175.725L315.607 144.662C309.556 137.078 300.382 132.661 290.68 132.661H192.715C181.505 132.661 171.118 138.547 165.358 148.164L151.571 171.18C145.345 181.575 134.117 187.937 122 187.937C109.883 187.937 98.6551 181.575 92.4284 171.18L78.642 148.164ZM41.1316 151.795C48.5698 151.795 55.4671 155.683 59.3189 162.046L80.7618 197.47C87.9524 209.349 88.8896 223.99 83.2723 236.689L58.7138 292.207C55.3096 299.903 47.6864 304.866 39.2713 304.866H-40.6463C-47.0762 304.866 -53.1606 301.956 -57.1965 296.951L-79.511 269.275C-82.5586 265.496 -84.2206 260.786 -84.2206 255.931V200.73C-84.2206 195.875 -82.5586 191.166 -79.511 187.386L-57.1965 159.711C-53.1606 154.705 -47.0762 151.795 -40.6463 151.795H41.1316ZM202.868 151.795C195.43 151.795 188.533 155.683 184.681 162.046L163.238 197.47C156.047 209.349 155.11 223.99 160.727 236.689L185.286 292.207C188.69 299.903 196.313 304.866 204.728 304.866H284.646C291.076 304.866 297.16 301.956 301.196 296.951L323.511 269.275C326.558 265.496 328.22 260.786 328.22 255.931V200.73C328.22 195.875 326.558 191.166 323.511 187.386L301.196 159.711C297.16 154.705 291.076 151.795 284.646 151.795H202.868Z" fill="url(#paint2_linear_2583_241163)"/>
<path d="M59.3188 162.046C55.467 155.683 48.5697 151.795 41.1315 151.795H-40.6464C-47.0763 151.795 -53.1607 154.705 -57.1966 159.711L-79.5111 187.386C-82.5587 191.166 -84.2207 195.875 -84.2207 200.73V255.931C-84.2207 260.786 -82.5587 265.496 -79.5111 269.275L-57.1966 296.951C-53.1607 301.956 -47.0763 304.866 -40.6464 304.866H39.2712C47.6863 304.866 55.3095 299.903 58.7137 292.207L83.2722 236.689C88.8896 223.99 87.9523 209.349 80.7617 197.47L59.3188 162.046Z" fill="url(#paint3_linear_2583_241163)"/>
<path d="M184.681 162.046C188.533 155.683 195.43 151.795 202.868 151.795H284.646C291.076 151.795 297.16 154.705 301.196 159.711L323.511 187.386C326.558 191.166 328.22 195.875 328.22 200.73V255.931C328.22 260.786 326.558 265.496 323.511 269.275L301.196 296.951C297.16 301.956 291.076 304.866 284.646 304.866H204.728C196.313 304.866 188.69 299.903 185.286 292.207L160.727 236.689C155.11 223.99 156.047 209.349 163.238 197.47L184.681 162.046Z" fill="url(#paint4_linear_2583_241163)"/>
</g>
<defs>
<linearGradient id="paint0_linear_2583_241163" x1="122" y1="302.74" x2="122" y2="247.465" gradientUnits="userSpaceOnUse">
<stop stop-color="#FDBF81"/>
<stop offset="1" stop-color="#FDA64F"/>
</linearGradient>
<linearGradient id="paint1_linear_2583_241163" x1="122" y1="302.74" x2="122" y2="247.465" gradientUnits="userSpaceOnUse">
<stop stop-color="#FDBF81"/>
<stop offset="1" stop-color="#FDA64F"/>
</linearGradient>
<linearGradient id="paint2_linear_2583_241163" x1="122" y1="132.661" x2="122" y2="324" gradientUnits="userSpaceOnUse">
<stop stop-color="#FDA64F"/>
<stop offset="1" stop-color="#E60023"/>
</linearGradient>
<linearGradient id="paint3_linear_2583_241163" x1="122" y1="151.795" x2="122" y2="304.866" gradientUnits="userSpaceOnUse">
<stop stop-color="#E60023" stop-opacity="0"/>
<stop offset="1" stop-color="white" stop-opacity="0.3"/>
</linearGradient>
<linearGradient id="paint4_linear_2583_241163" x1="122" y1="151.795" x2="122" y2="304.866" gradientUnits="userSpaceOnUse">
<stop stop-color="#E60023" stop-opacity="0"/>
<stop offset="1" stop-color="white" stop-opacity="0.3"/>
</linearGradient>
<clipPath id="clip0_2583_241163">
<rect width="375" height="375" fill="white"/>
</clipPath>
</defs>
</svg>
