<svg fill="none" height="220" viewBox="0 0 220 220" width="220" xmlns="http://www.w3.org/2000/svg" xmlns:xlink="http://www.w3.org/1999/xlink"><linearGradient id="a" gradientUnits="userSpaceOnUse" x1="110" x2="110" y1="200" y2="52.2857"><stop offset="0" stop-color="#fff" stop-opacity=".3"/><stop offset="1" stop-color="#fff" stop-opacity=".15"/></linearGradient><linearGradient id="b" gradientUnits="userSpaceOnUse" x1="110" x2="110" y1="74.9464" y2="158.036"><stop offset="0" stop-color="#ed96ed"/><stop offset="1" stop-color="#fdc4e1"/></linearGradient><path d="m20 110c0-49.7056 40.2944-90 90-90 49.706 0 90 40.2944 90 90v82c0 4.418-3.582 8-8 8h-164c-4.4183 0-8-3.582-8-8z" fill="#1a5866"/><path clip-rule="evenodd" d="m100.322 22.3535-37.6463-3.655.6488-6.6828 37.6465 3.655c4.94.4796 8.492 4.9698 7.822 9.8882-.491 3.5962-3.151 6.5159-6.686 7.338l-10.697 2.4877c-.6635.1543-1.1331.7457-1.1331 1.4269 0 .724.5288 1.3394 1.2445 1.4483l5.5552.8453c7.1904 1.0943 12.5034 7.2771 12.5034 14.5506v90.5313h-6.714v-90.5313c0-3.9554-2.8892-7.3176-6.7996-7.9127l-5.5551-.8453c-3.9961-.6081-6.9487-4.0441-6.9487-8.0862 0-3.8035 2.6219-7.1051 6.3265-7.9667l10.6969-2.4876c.822-.1911 1.44-.8697 1.554-1.7055.156-1.1431-.67-2.1867-1.818-2.2982z" fill="#1ba1bb" fill-rule="evenodd"/><path d="m88.1782 193.286c9.2705 0 16.7858-7.516 16.7858-16.786v-18.655c-33.8018-2.572-60.4282-30.813-60.4282-65.2736v-40.2857h130.9282v40.2857c0 34.4606-26.626 62.7026-60.429 65.2736v18.655c0 9.27 7.516 16.786 16.786 16.786h11.75c2.781 0 5.036 2.254 5.036 5.035v1.679h-77.2145v-1.679c0-2.781 2.2546-5.035 5.0357-5.035z" fill="url(#a)"/><path d="m44.5358 92.5714c0 36.1546 29.3093 65.4646 65.4642 65.4646 36.155 0 65.464-29.31 65.464-65.4646v-17.625h-130.9282z" fill="url(#b)"/><path d="m71.3929 200h77.2141v-1.679c0-2.781-2.254-5.035-5.035-5.035h-67.1433c-2.7812 0-5.0358 2.254-5.0358 5.035z" fill="#fff" fill-opacity=".3"/><path clip-rule="evenodd" d="m47.9238 29.625c-.5712 0-1.0731.3791-1.2292.9286l-14.0366 49.4056-6.4587-1.835 14.0366-49.4055c.9764-3.4368 4.1152-5.808 7.6879-5.808 3.6351 0 6.8124 2.4531 7.7321 5.97l29.0564 111.1003-6.4958 1.699-29.0564-111.1005c-.147-.5623-.6551-.9545-1.2363-.9545z" fill="#e60023" fill-rule="evenodd"/><path d="m61.7772 52.2857 22.9351 87.6953-6.4958 1.699-23.3795-89.3943z" fill="#fd865e"/><path clip-rule="evenodd" d="m151.746 33.8214c1.119 0 2.207.365 3.1 1.0395l31.603 23.8801 4.048-5.357-31.603-23.88c-2.059-1.5553-4.568-2.3969-7.148-2.3969-3.717 0-7.218 1.7428-9.459 4.708l-74.8313 99.0179 5.3566 4.048 74.8307-99.0177c.972-1.286 2.491-2.0419 4.103-2.0419z" fill="#2aa788" fill-rule="evenodd"/><path d="m135.232 52.2857h-8.416l-59.3603 78.5473 5.3566 4.048z" fill="#5cd6b7"/><path d="m118.109 74.9464h-8.416l-42.2357 55.8866 5.3566 4.048z" fill="#2aa788"/><path clip-rule="evenodd" d="m161.255 41.355 39.695-20.9301-3.132-5.9392-39.695 20.93c-4.948 2.6091-8.588 7.1584-10.049 12.5583l-25.788 95.337 6.482 1.753 25.787-95.3368c.974-3.6 3.401-6.6328 6.7-8.3722z" fill="#9270d7" fill-rule="evenodd"/><path d="m153.863 52.2857h-6.955l-24.622 91.0253 6.482 1.753z" fill="#b497ed"/><path d="m147.734 74.9464h-6.956l-18.492 68.3646 6.482 1.753z" fill="#dd73dd"/><path d="m156.677 36.245 5.865 4.4313 6.56-3.4589-5.917-4.4707-5.169 2.7257c-.458.2412-.904.499-1.339.7726z" fill="#2a3fa7"/><path d="m109.517 52.2857c.042.4516.063.9086.063 1.37v90.5313h-6.714v-90.5313c0-.4661-.04-.9239-.117-1.37z" fill="#45c5de"/><path d="m109.58 74.9464v69.2416h-6.714v-69.2416z" fill="#187486"/><g fill="#fde2fd"><path d="m125.107 89.6339c0 2.0859-1.691 3.7768-3.777 3.7768-2.085 0-3.776-1.6909-3.776-3.7768 0-2.0858 1.691-3.7768 3.776-3.7768 2.086 0 3.777 1.691 3.777 3.7768z"/><path d="m157 92.9911c0 .042-.001.0839-.002.1256.492-.0826.997-.1256 1.513-.1256 5.006 0 9.064 4.0582 9.064 9.0639 0 5.006-4.058 9.065-9.064 9.065s-9.064-4.059-9.064-9.065c0-2.1665.76-4.1557 2.028-5.7152-1.206-.6307-2.028-1.8936-2.028-3.3487 0-2.0859 1.69-3.7768 3.776-3.7768s3.777 1.6909 3.777 3.7768z"/><path d="m120.911 115.727c2.92 0 5.287-2.367 5.287-5.288 0-.104-.003-.207-.009-.31 1.339-.581 2.275-1.914 2.275-3.466 0-2.086-1.691-3.777-3.777-3.777-1.552 0-2.885.936-3.466 2.275-.103-.006-.206-.009-.31-.009-2.921 0-5.288 2.367-5.288 5.287 0 2.921 2.367 5.288 5.288 5.288z"/><path d="m96.5715 121.107c0 1.854-1.503 3.357-3.3571 3.357s-3.3572-1.503-3.3572-3.357 1.5031-3.357 3.3572-3.357 3.3571 1.503 3.3571 3.357z"/><path d="m142.732 132.018c1.391 0 2.518-1.127 2.518-2.518s-1.127-2.518-2.518-2.518c-1.39 0-2.518 1.127-2.518 2.518s1.128 2.518 2.518 2.518z"/><path d="m91.5358 131.179c0 1.39-1.1273 2.517-2.5178 2.517-1.3906 0-2.5179-1.127-2.5179-2.517 0-1.391 1.1273-2.518 2.5179-2.518 1.3905 0 2.5178 1.127 2.5178 2.518z"/><path d="m60.734 112.379c2.9202 0 5.2875-2.368 5.2875-5.288s-2.3673-5.287-5.2875-5.287-5.2875 2.367-5.2875 5.287 2.3673 5.288 5.2875 5.288z"/><path d="m149.866 122.786c2.086 0 3.777-1.691 3.777-3.777s-1.691-3.777-3.777-3.777-3.777 1.691-3.777 3.777 1.691 3.777 3.777 3.777z"/></g><path d="m153.223 96.7678c2.044 0 3.709-1.6234 3.775-3.6511-2.218.3726-4.162 1.5507-5.523 3.2231.523.2734 1.118.428 1.748.428z" fill="#fff" fill-opacity=".8"/><path d="m126.189 110.129c-.155-2.673-2.295-4.814-4.968-4.968-.2.46-.31.968-.31 1.501 0 2.086 1.691 3.777 3.776 3.777.534 0 1.042-.11 1.502-.31z" fill="#fff" fill-opacity=".8"/><path d="m67.7037 74.9464 17.0086 65.0346-6.4958 1.699-17.453-66.7336z" fill="#ef7bb5"/><path d="m80.6622 124.496-2.1637-8.274-5.1558 6.823 2.1637 8.273z" fill="#6b246b"/><path d="m109.58 86.2304v-11.1362l-6.714 8.8845v11.1362z" fill="#13434e"/></svg>