<svg width="375" height="375" viewBox="0 0 375 375" fill="none" xmlns="http://www.w3.org/2000/svg">
<g clip-path="url(#clip0_2583_240079)">
<rect width="375" height="375" fill="#DBD2EF"/>
<path d="M314.958 261C319.768 261 323.667 257.101 323.667 252.292C323.667 247.482 319.768 243.583 314.958 243.583C311.821 243.583 309.071 245.242 307.538 247.731C306.795 248.937 305.599 249.917 304.182 249.917H288.042C286.73 249.917 285.667 250.98 285.667 252.292C285.667 253.603 286.73 254.667 288.042 254.667H304.182C305.599 254.667 306.795 255.646 307.538 256.853C309.071 259.341 311.821 261 314.958 261Z" fill="#768AEA"/>
<path d="M311 287.917C311 285.293 308.873 283.167 306.25 283.167H282.5V324.333H306.25C308.873 324.333 311 322.207 311 319.583C311 316.96 313.127 314.833 315.75 314.833H317.333V292.667H315.75C313.127 292.667 311 290.54 311 287.917Z" fill="#E60023"/>
<path d="M76.1355 284.024C77.8862 249.887 78.7615 232.818 89.7616 222.367C100.762 211.917 117.853 211.917 152.036 211.917H222.964C257.147 211.917 274.238 211.917 285.238 222.367C296.239 232.818 297.114 249.887 298.865 284.024L301.5 335.417H73.5L76.1355 284.024Z" fill="url(#paint0_linear_2583_240079)"/>
<path d="M68.75 335.417H306.25V357.583C304.389 357.583 303.458 357.583 302.674 357.788C300.678 358.307 299.06 359.765 298.337 361.697C298.053 362.456 297.957 363.382 297.765 365.233L296.75 375H268.25C267.039 368.337 266.433 365.006 264.604 362.595C263.443 361.065 261.951 359.82 260.239 358.952C257.539 357.583 254.153 357.583 247.381 357.583H127.619C120.847 357.583 117.461 357.583 114.761 358.952C113.049 359.82 111.557 361.065 110.396 362.595C108.567 365.006 107.961 368.337 106.75 375H78.25L77.2352 365.233C77.0429 363.382 76.9467 362.456 76.6627 361.697C75.9399 359.765 74.3218 358.307 72.3259 357.788C71.5415 357.583 70.611 357.583 68.75 357.583V335.417Z" fill="url(#paint1_linear_2583_240079)"/>
<path d="M203.452 46.6269C205.178 45.2505 205.975 42.9007 205.191 40.8427C202.642 34.1499 202.504 28.1092 205.256 23.3637C214.263 7.83735 250.809 12.0554 286.884 32.785C322.959 53.5147 344.902 82.906 335.896 98.4324C333.143 103.178 327.817 106.079 320.719 107.228C318.536 107.581 316.89 109.443 316.556 111.619C316.155 114.221 315.235 116.79 313.758 119.177L273.118 184.848C267.332 194.198 255.123 197.269 245.569 191.779L169.196 147.893C159.641 142.403 156.209 130.344 161.452 120.682L198.275 52.817C199.613 50.3507 201.388 48.2734 203.452 46.6269Z" fill="url(#paint2_radial_2583_240079)"/>
<path d="M169.168 46.3407C167.473 44.9763 166.689 42.6471 167.459 40.6072C169.964 33.9732 170.1 27.9855 167.396 23.2816C158.548 7.89141 122.649 12.0725 87.2126 32.6203C51.776 53.168 30.2211 82.3015 39.0684 97.6917C41.7725 102.396 47.0037 105.271 53.9765 106.41C56.1205 106.76 57.7373 108.606 58.0663 110.763C58.4598 113.342 59.3635 115.888 60.8143 118.254L100.735 183.35C106.418 192.617 118.412 195.662 127.797 190.22L202.818 146.719C212.203 141.277 215.575 129.323 210.425 119.746L174.254 52.4765C172.939 50.0318 171.195 47.9727 169.168 46.3407Z" fill="url(#paint3_radial_2583_240079)"/>
<path d="M186.302 74.8833L161.452 120.682C156.209 130.344 159.641 142.403 169.196 147.893L185.066 157.012L202.818 146.719C212.203 141.277 215.575 129.323 210.425 119.746L186.302 74.8833Z" fill="#F7C545"/>
<path d="M317.333 292.667H322.083V314.833H317.333V292.667Z" fill="#E68800"/>
<path d="M108.333 226.958C108.333 225.647 109.397 224.583 110.708 224.583H264.292C265.603 224.583 266.667 225.647 266.667 226.958C266.667 228.27 265.603 229.333 264.292 229.333H110.708C109.397 229.333 108.333 228.27 108.333 226.958Z" fill="#526AE0"/>
</g>
<defs>
<linearGradient id="paint0_linear_2583_240079" x1="187.5" y1="177.083" x2="187.5" y2="335.417" gradientUnits="userSpaceOnUse">
<stop stop-color="#9BAAF3"/>
<stop offset="1" stop-color="#B497ED"/>
</linearGradient>
<linearGradient id="paint1_linear_2583_240079" x1="264.783" y1="335.418" x2="264.783" y2="375" gradientUnits="userSpaceOnUse">
<stop stop-color="white"/>
<stop offset="1" stop-color="#E2E6FD"/>
</linearGradient>
<radialGradient id="paint2_radial_2583_240079" cx="0" cy="0" r="1" gradientUnits="userSpaceOnUse" gradientTransform="translate(252.393 100.799) rotate(76.0103) scale(81.3763 84.0121)">
<stop stop-color="#F7C545"/>
<stop offset="1" stop-color="#FFE286"/>
</radialGradient>
<radialGradient id="paint3_radial_2583_240079" cx="0" cy="0" r="1" gradientUnits="userSpaceOnUse" gradientTransform="translate(126.26 100.545) rotate(-119.676) scale(77.0207 76.852)">
<stop stop-color="#BD5F00"/>
<stop offset="1" stop-color="#E68800"/>
</radialGradient>
<clipPath id="clip0_2583_240079">
<rect width="375" height="375" fill="white"/>
</clipPath>
</defs>
</svg>
