<svg xmlns="http://www.w3.org/2000/svg" width="220" height="220" fill="none" viewBox="0 0 220 220"><g clip-path="url(#a)"><path fill="#1e4a71" d="M20 110c0-49.706 40.294-90 90-90s90 40.294 90 90v82a8 8 0 0 1-8 8H28a8 8 0 0 1-8-8z"/><path fill="url(#b)" d="M190.547 62.175a32.3 32.3 0 0 1 10.876 5.237 32.2 32.2 0 0 1 7.757 8.205 32.5 32.5 0 0 1 4.512 10.503 32.2 32.2 0 0 1-.271 15.674l-.686 2.561c-.991 3.698-2.66 7.152-4.846 10.372q-.325.475-.664.943-.151.212-.305.422a46 46 0 0 1-1.981 2.486c-2.076 2.432-4.443 4.716-7.019 6.855q-.458.381-.927.756a75 75 0 0 1-3.797 2.854q-.527.373-1.061.739a92 92 0 0 1-2.708 1.781c-1.41.894-2.85 1.756-4.309 2.585q-.233.131-.467.261-1.373.773-2.763 1.508-.314.164-.63.327-1.329.693-2.666 1.353c-.253.125-.507.245-.761.368-.298.144-.596.291-.895.433q-.318.15-.635.297-.51.241-1.023.478-1.264.581-2.523 1.134-.396.174-.79.345-1.333.575-2.655 1.119-.293.121-.585.241l-.849.341-.789.316-.509.199a188 188 0 0 1-7.971 2.916l-.865.294a209 209 0 0 1-9.335 2.891q-.499.14-.978.272-.657.184-1.277.354-.543.147-1.056.282-.504.135-.979.26l-.432.11c-1.078.278-2.027.514-2.826.705l-.489.115c-1.526.36-2.391.539-2.415.544 0 0-.441-.391-1.233-1.128a156 156 0 0 1-3.339-3.202 209.995 209.995 0 0 1-7.773-8.095 201 201 0 0 1-7.311-8.508 173 173 0 0 1-5.374-6.998c-4.603-6.342-8.949-13.345-12.12-20.548a75 75 0 0 1-.71-1.665c-1.263-3.06-2.303-6.148-3.051-9.23a52 52 0 0 1-.545-2.52 44 44 0 0 1-.665-5.015 39 39 0 0 1-.102-3.312 36 36 0 0 1 .196-3.275 32 32 0 0 1 .895-4.818l.686-2.561a33 33 0 0 1 .422-1.436l.086-.271a33 33 0 0 1 1.736-4.259l.151-.304.158-.305q.313-.603.648-1.187l.186-.32.35-.578.008-.013a11.94 11.94 0 0 0 5.885 3.645c6.401 1.715 12.981-2.084 14.697-8.485a12 12 0 0 0 .404-3.41 8 8 0 0 0 12.372-6.518 31 31 0 0 1 1.474.308l.285.066q.38.091.758.193a32.32 32.32 0 0 1 19.313 14.514 32 32 0 0 1 1.678 3.16l1.835 3.97 3.575-2.52a32.34 32.34 0 0 1 27.017-4.81"/><path fill="url(#c)" d="m213.399 101.788-.686 2.561c-9.059 33.807-74.779 47.256-74.779 47.256l22-82.104 3.574-2.52a32.35 32.35 0 0 1 27.017-4.812c17.257 4.624 27.498 22.362 22.874 39.619"/><path fill="url(#d)" d="M159.863 38.942c2.318.162 4.697 1.38 6.291 3.36 1.902 2.297 2.665 5.653 1.868 8.66q-.119.474-.245.945c-2.2 8.211-6 15.994-8.49 24.128 12.729 2.94 25.569-2.871 31.979-13.66q.493.145.978.303a30.4 30.4 0 0 1-4.011 5.398c1.534 1.088 3.955 1.169 6.868.198 1.425-.475 2.937-1.195 4.468-2.136q.462.296.914.606c-1.723 1.098-3.44 1.937-5.066 2.48-3.079 1.025-5.967 1.033-7.883-.42-5.823 5.843-13.893 9.192-22.357 8.982a92.3 92.3 0 0 1 25.584 13.124c6.221-5.8 14.554-8.05 22.412-6.75q.146.483.275.97l.026.098c-7.64-1.41-15.799.685-21.894 6.285a91.7 91.7 0 0 1 18.832 18.922q-.25.499-.516.99a90.8 90.8 0 0 0-19.051-19.21l-.056.057-.383-.383a91.4 91.4 0 0 0-31.414-14.87q-.129.44-.251.883-2.95 10.64-5.88 21.286c10.25 2.919 19.631 8.939 27.289 17.811 3.296-1.553 7.554-.489 11.764 2.29 2.191 1.447 4.405 3.379 6.52 5.712q-.383.322-.771.64c-2.054-2.262-4.195-4.127-6.3-5.517-3.994-2.637-7.74-3.496-10.538-2.331 3.329 3.982 6.316 8.518 8.893 13.584q-.422.268-.848.533c-8.484-16.731-21.486-27.543-36.275-31.758q-1.843 6.696-3.682 13.393l-1.881 6.86c10.775 3.137 18.637 11.567 21.503 21.682q-.468.19-.935.376c-2.749-9.836-10.37-18.043-20.832-21.094l-7.205 26.273-1.057 3.849-.549.12c-.008-.007-.151-.14-.418-.383l1.009-3.858 3.093-11.824c-3.05-.502-6.52 1.297-9.761 4.952a29 29 0 0 0-2.281 2.947q-.349-.362-.707-.738a30 30 0 0 1 2.239-2.872c3.345-3.773 7.181-5.901 10.764-5.258l6.514-24.896q1.3-4.977 2.596-9.955c-14.915-3.744-31.581-.881-47.295 9.367a94 94 0 0 1-.466-.889c15.897-10.34 32.816-13.263 48.013-9.446 1.856-7.123 3.71-14.247 5.552-21.374q.11-.422.213-.846a91.2 91.2 0 0 0-38.731-.595l.076.02c-2.763 10.312-10.494 17.965-19.927 21.078q-.157-.465-.305-.929l-.007-.02c8.985-2.967 16.372-10.192 19.146-19.939a91 91 0 0 0-21.5 7.517q-.016-.321-.027-.642l-.003-.174q-.002-.142-.003-.284c18.062-8.866 37.795-11.299 56.433-8.04-10.253-5.157-16.718-15.7-16.772-27.08l.308.066.172.039q.261.058.522.12c.157 12.548 8.372 24.001 20.865 27.82 1.911-8.29 2.512-16.93 4.712-25.14q.126-.472.26-.941a6.37 6.37 0 0 0-.263-4.338 6.86 6.86 0 0 0-2.891-3.237z"/><path fill="url(#e)" d="M72.435 135.04a4 4 0 0 1 4.525 3.394l3 21a4.002 4.002 0 0 1-4.419 4.539l2.254 6.762a4.001 4.001 0 0 1-7.59 2.529l-8.176-24.529A4 4 0 0 0 58.235 146h-.47a4 4 0 0 0-3.793 2.735l-8.177 24.529a4 4 0 0 1-7.59-2.529l8.177-24.53A12 12 0 0 1 57.766 138h.469a12 12 0 0 1 11.383 8.205l.648 1.944-1.226-8.584a4 4 0 0 1 3.395-4.525"/><path fill="#768aea" d="M118 114q.575 0 1.138.046c.496.04.862.466.862.964v5.918c0 .69-.69 1.175-1.377 1.104a6 6 0 1 0 5.345 5.344c-.071-.686.414-1.376 1.104-1.376h5.919c.497 0 .922.366.962.861q.047.564.047 1.139c0 7.732-6.268 14-14 14 0 3.071-1.171 6.142-3.514 8.485-3.848 3.849-9.659 4.534-14.209 2.062a14.071 14.071 0 0 1 .402 7.441l4.905-1.139c6.288-1.461 12.606 2.315 14.297 8.546l4.131 15.221 3.008 10.68a2 2 0 0 0 2.229 1.434l.601-.091a3.602 3.602 0 0 1 4.15 3.56c0 .995-.807 1.801-1.801 1.801h-8.644l-.003-.001a4 4 0 0 1-3.912-2.951l-7.479-27.558a4 4 0 0 0-4.766-2.848l-10.009 2.324 4.8 24.435a1.653 1.653 0 0 0 1.917 1.308 3.306 3.306 0 0 1 3.897 3.252v.272c0 .976-.791 1.767-1.766 1.767h-7.445a4 4 0 0 1-3.924-3.227l-5.13-26.042c-.885.176-1.799.269-2.735.269-1.719 0-3.365-.311-4.886-.878l4.572 23.279a1.653 1.653 0 0 0 1.917 1.308 3.306 3.306 0 0 1 3.897 3.252v.272c0 .976-.79 1.767-1.766 1.767h-7.445a4 4 0 0 1-3.924-3.227l-5.747-29.176a.5.5 0 0 1 .49-.597h3.096A13.96 13.96 0 0 1 73 157c0-7.732 6.268-14 14-14 2.06 0 4.015.444 5.776 1.242-1.613-4.275-.702-9.286 2.739-12.727A11.96 11.96 0 0 1 104 128l.004-.361C104.196 120.074 110.389 114 118 114M46.315 167.791a.5.5 0 0 1 .752.567l-9.18 28.855A4 4 0 0 1 34.075 200h-5.93a1.646 1.646 0 0 1-1.645-1.645v-.249c0-1.495 1.1-2.762 2.58-2.974a1.5 1.5 0 0 0 1.214-1.013L37 174zm25.5 0a.5.5 0 0 1 .752.567l-9.18 28.855A4 4 0 0 1 59.575 200h-5.93A1.646 1.646 0 0 1 52 198.355v-.249c0-1.495 1.1-2.762 2.58-2.974a1.5 1.5 0 0 0 1.214-1.013L62.5 174z"/><path fill="url(#f)" d="M28.815 169.064a24 24 0 0 1 25.514-14.446l10.802 1.544a14.99 14.99 0 0 1 0 29.677l-10.802 1.543a24 24 0 0 1-25.514-14.446l-.488-1.16a2 2 0 0 1 0-1.552z"/><path fill="url(#g)" d="M80.467 115.717c-.124-4.718 1.75-9.57 5.15-13.145a20 20 0 0 1 .576-.586c.378-.374.88-.571 1.41-.532.528.039 1.04.31 1.41.739s.565.976.526 1.504a1.8 1.8 0 0 1-.732 1.317q-.265.195-.52.402c-3.09 2.468-5.261 6.236-5.723 10.391q-.039.344-.064.693a1 1 0 0 1-.324.661 1 1 0 0 1-.676.274 1 1 0 0 1-.676-.274 1 1 0 0 1-.324-.661 18 18 0 0 1-.033-.783"/><path fill="url(#h)" d="M79 117.5c.017.486.052.964.106 1.446.847 8.783 8.655 15.864 17.017 16.05.46.019.913.02 1.371.004.002 0 .004-.333.006-.5l.004-.543v-.914l-.004-.543c-.002-.167-.003-.5-.005-.5a15 15 0 0 1-1.132-.094c-6.863-.724-12.308-6.896-12.372-13.34q-.016-.532.01-1.066a2.35 2.35 0 0 0-.684-1.768A2.57 2.57 0 0 0 81.5 115c-.69 0-1.349.264-1.817.732A2.35 2.35 0 0 0 79 117.5"/><path fill="url(#i)" d="M130.283 165.533c4.718.124 9.57-1.751 13.145-5.149q.298-.282.586-.577c.374-.378.571-.88.532-1.409s-.31-1.041-.739-1.412c-.429-.37-.976-.564-1.504-.525a1.8 1.8 0 0 0-1.317.732q-.195.265-.402.521c-2.468 3.089-6.236 5.26-10.391 5.722q-.344.039-.693.064a1 1 0 0 0-.661.324 1 1 0 0 0-.274.676c0 .248.099.488.274.676.175.187.413.307.661.324q.39.025.783.033"/><path fill="url(#j)" d="M128.5 167a18 18 0 0 1-1.446-.107c-8.783-.846-15.864-8.654-16.05-17.016a18 18 0 0 1-.004-1.371c0-.002.333-.004.5-.006l.543-.004.457-.001.457.001.543.004c.167.002.5.003.5.005.017.381.048.755.094 1.132.724 6.863 6.896 12.308 13.34 12.372q.532.016 1.066-.009a2.34 2.34 0 0 1 1.768.683A2.57 2.57 0 0 1 131 164.5a2.57 2.57 0 0 1-.732 1.817c-.469.47-1.105.71-1.768.683"/><path fill="#1c2554" d="M115 141a5 5 0 1 1-.001 10.001A5 5 0 0 1 115 141m-15-15a5 5 0 1 1-.001 10.001A5 5 0 0 1 100 126"/><path fill="#1a5866" d="M118 114q.648 0 1.281.058c.496.045.858.475.852.973l-.072 5.919c-.009.688-.7 1.165-1.384 1.088a5.99 5.99 0 0 0-5.346 2.194q-.203-.275-.405-.552a142 142 0 0 1-4.226-6.145A13.95 13.95 0 0 1 118 114"/></g><defs><linearGradient id="b" x1="102.647" x2="145.78" y1="51.563" y2="126.272" gradientUnits="userSpaceOnUse"><stop stop-color="#e68800"/><stop offset="1" stop-color="#d7cb42"/></linearGradient><linearGradient id="e" x1="61" x2="76" y1="143.5" y2="181" gradientUnits="userSpaceOnUse"><stop stop-color="#768aea"/><stop offset="1" stop-color="#526ae0"/></linearGradient><linearGradient id="f" x1="73" x2="28" y1="173" y2="173" gradientUnits="userSpaceOnUse"><stop stop-color="#768aea"/><stop offset="1" stop-color="#c4cdf8"/></linearGradient><linearGradient id="g" x1="80" x2="88.5" y1="119.5" y2="102.5" gradientUnits="userSpaceOnUse"><stop stop-color="#768aea"/><stop offset="1" stop-color="#e60023"/></linearGradient><linearGradient id="h" x1="94.5" x2="81.5" y1="134" y2="117.5" gradientUnits="userSpaceOnUse"><stop stop-color="#768aea"/><stop offset="1" stop-color="#9baaf3"/></linearGradient><linearGradient id="i" x1="126.5" x2="143.5" y1="166" y2="157.5" gradientUnits="userSpaceOnUse"><stop stop-color="#768aea"/><stop offset="1" stop-color="#e60023"/></linearGradient><linearGradient id="j" x1="112" x2="128.5" y1="151.5" y2="164.5" gradientUnits="userSpaceOnUse"><stop stop-color="#768aea"/><stop offset="1" stop-color="#9baaf3"/></linearGradient><radialGradient id="c" cx="0" cy="0" r="1" gradientTransform="rotate(45 -7.81 228.348)scale(64.6632)" gradientUnits="userSpaceOnUse"><stop stop-color="#e68800"/><stop offset="1" stop-color="#d7cb42"/></radialGradient><radialGradient id="d" cx="0" cy="0" r="1" gradientTransform="rotate(105 49.56 99)scale(97.5 227.777)" gradientUnits="userSpaceOnUse"><stop stop-color="#bd5f00"/><stop offset="1" stop-color="#d7cb42"/></radialGradient><clipPath id="a"><path fill="#fff" d="M0 0h220v220H0z"/></clipPath></defs></svg>