<svg width="375" height="250" viewBox="0 0 375 250" fill="none" xmlns="http://www.w3.org/2000/svg">
<g clip-path="url(#clip0_2583_240092)">
<rect width="375" height="250" fill="#BFE4EA"/>
<path d="M196.95 157.45C195.459 157.45 194.25 158.659 194.25 160.15C194.25 168.486 197.447 176.238 201.56 183.213C204.811 188.724 208.763 193.949 212.339 198.677C213.268 199.906 214.172 201.101 215.032 202.259C215.921 203.457 217.612 203.707 218.809 202.818C220.006 201.929 220.256 200.238 219.368 199.041C218.449 197.803 217.504 196.553 216.548 195.289C212.993 190.587 209.288 185.685 206.211 180.469C202.326 173.881 199.65 167.111 199.65 160.15C199.65 158.659 198.441 157.45 196.95 157.45Z" fill="#9FC157"/>
<path d="M178.05 157.45C176.559 157.45 175.35 158.659 175.35 160.15C175.35 167.111 172.674 173.881 168.788 180.469C165.711 185.685 162.006 190.587 158.451 195.289C157.495 196.553 156.551 197.803 155.632 199.041C154.743 200.238 154.993 201.929 156.19 202.818C157.388 203.707 159.079 203.457 159.968 202.259C160.827 201.101 161.731 199.906 162.661 198.677C166.237 193.949 170.189 188.724 173.439 183.213C177.553 176.238 180.75 168.486 180.75 160.15C180.75 158.659 179.541 157.45 178.05 157.45Z" fill="#9FC157"/>
<path d="M79.5 106.15H95.7V122.35H79.5V106.15Z" fill="#5D7E1B"/>
<path d="M55.0752 76.4334C32.495 48.9608 52.0385 7.59999 87.5998 7.59999C123.161 7.59999 142.705 48.9608 120.124 76.4334L95.6998 106.15H79.4998L55.0752 76.4334Z" fill="url(#paint0_linear_2583_240092)"/>
<path d="M249.464 108.805C252.108 105.838 255.064 103.169 258.07 100.569C278.598 82.8127 291.45 57.4097 291.45 29.2C291.45 -24.4821 244.91 -68 187.5 -68C130.09 -68 83.5498 -24.4821 83.5498 29.2C83.5498 57.4097 96.4017 82.8127 116.929 100.569C119.935 103.169 122.891 105.838 125.536 108.805L169.689 158.343C170.714 159.493 172.18 160.15 173.72 160.15H201.279C202.819 160.15 204.286 159.493 205.31 158.343L249.464 108.805Z" fill="url(#paint1_linear_2583_240092)"/>
<path d="M221.417 89.408C227.23 72.8518 230.7 51.9377 230.7 29.2C230.7 -24.4821 211.359 -68 187.5 -68C163.641 -68 144.3 -24.4821 144.3 29.2C144.3 51.9364 147.77 72.8495 153.582 89.4052L175.35 160.15H199.65L221.417 89.408Z" fill="#F5EC89"/>
<path d="M155.1 197.95H219.9V206.05H218.55C215.568 206.05 213.15 208.468 213.15 211.45V219.55C213.15 228.497 205.897 235.75 196.95 235.75H178.05C169.103 235.75 161.85 228.497 161.85 219.55V211.45C161.85 208.468 159.432 206.05 156.45 206.05H155.1V197.95Z" fill="#E68800"/>
<path d="M198.3 184.969C198.3 190.647 193.465 195.25 187.5 195.25C181.535 195.25 176.7 190.647 176.7 184.969C176.7 179.291 187.5 165.55 187.5 165.55C187.5 165.55 198.3 179.291 198.3 184.969Z" fill="#FD865E"/>
<circle cx="187.5" cy="188.5" r="6.75" fill="#E60023"/>
<path d="M161.85 211.45H213.15V216.85H161.85V211.45Z" fill="#E60023"/>
<path d="M254.875 134.483C232.295 107.011 251.839 65.65 287.4 65.65C322.961 65.65 342.505 107.011 319.924 134.483L295.5 164.2H279.3L254.875 134.483Z" fill="url(#paint2_linear_2583_240092)"/>
<path d="M279.3 164.2H295.5V180.4H279.3V164.2Z" fill="#1A5866"/>
<path d="M120.124 76.4334L107.724 91.5203C92.6331 74.6479 83.5498 52.9158 83.5498 29.2C83.5498 21.7848 84.4378 14.5635 86.1198 7.62403C86.61 7.60805 87.1033 7.59999 87.5998 7.59999C123.161 7.59999 142.705 48.9608 120.124 76.4334Z" fill="#F9F3B9"/>
<path d="M249.464 108.805C252.108 105.838 255.064 103.169 258.07 100.569C269.179 90.9599 278.04 79.1117 283.833 65.791C258.779 67.7885 242.669 90.6777 245.552 113.194L249.464 108.805Z" fill="#F9F3B9"/>
</g>
<defs>
<linearGradient id="paint0_linear_2583_240092" x1="87.5998" y1="7.59999" x2="87.5998" y2="106.15" gradientUnits="userSpaceOnUse">
<stop stop-color="#BBDA81"/>
<stop offset="1" stop-color="#79D8EC"/>
</linearGradient>
<linearGradient id="paint1_linear_2583_240092" x1="187.5" y1="-51.8" x2="187.5" y2="158.954" gradientUnits="userSpaceOnUse">
<stop stop-color="white"/>
<stop offset="1" stop-color="#E5F7FA"/>
</linearGradient>
<linearGradient id="paint2_linear_2583_240092" x1="287.4" y1="65.65" x2="287.4" y2="164.2" gradientUnits="userSpaceOnUse">
<stop stop-color="#45C5DE"/>
<stop offset="1" stop-color="#66CC71"/>
</linearGradient>
<clipPath id="clip0_2583_240092">
<rect width="375" height="250" fill="white"/>
</clipPath>
</defs>
</svg>
