<svg width="375" height="250" viewBox="0 0 375 250" fill="none" xmlns="http://www.w3.org/2000/svg">
<g clip-path="url(#clip0_2583_241172)">
<rect width="375" height="250" fill="#186250"/>
<path d="M315.542 344H59.5415V24H315.542V344Z" fill="url(#paint0_linear_2583_241172)"/>
<path fill-rule="evenodd" clip-rule="evenodd" d="M232.342 140.8C232.342 170.844 207.986 195.2 177.942 195.2C147.897 195.2 123.542 170.844 123.542 140.8C123.542 110.756 147.897 86.4 177.942 86.4V80C144.363 80 117.142 107.221 117.142 140.8C117.142 174.379 144.363 201.6 177.942 201.6C211.521 201.6 238.742 174.379 238.742 140.8H232.342Z" fill="#9BAAF3"/>
<path fill-rule="evenodd" clip-rule="evenodd" d="M209.948 307.267C179.671 324.748 140.955 314.374 123.475 284.097C105.994 253.819 116.368 215.104 146.645 197.623C176.923 180.142 215.638 190.516 233.119 220.794L238.661 217.594C219.413 184.255 176.784 172.833 143.445 192.081C110.107 211.329 98.6841 253.958 117.932 287.297C137.18 320.635 179.81 332.058 213.148 312.81L209.948 307.267Z" fill="#5CD6B7"/>
<path fill-rule="evenodd" clip-rule="evenodd" d="M142.456 135.939C164.739 135.939 182.802 154.003 182.802 176.285C182.802 198.568 164.739 216.631 142.456 216.631C120.174 216.631 102.11 198.568 102.11 176.285H95.71C95.71 202.102 116.639 223.031 142.456 223.031C168.273 223.031 189.202 202.102 189.202 176.285C189.202 150.468 168.273 129.539 142.456 129.539V135.939Z" fill="#59AAF3"/>
<path d="M205.226 195.149C207.502 194.004 209.696 192.721 211.798 191.309C209.571 190.092 207.284 188.999 204.947 188.034C202.329 189.535 199.574 190.824 196.705 191.878C199.615 192.762 202.464 193.854 205.226 195.149Z" fill="#1F6BAD"/>
<path d="M144.416 191.53C146.524 192.926 148.725 194.194 151.006 195.323C153.782 193.993 156.614 192.884 159.482 191.988C156.612 190.953 153.855 189.684 151.232 188.203C148.927 189.178 146.651 190.286 144.416 191.53Z" fill="#1F6BAD"/>
<path d="M173.977 201.473C175.287 201.557 176.609 201.6 177.942 201.6C179.251 201.6 180.551 201.559 181.841 201.477C183.218 199.328 184.425 197.058 185.441 194.688C183.042 195.018 180.592 195.193 178.103 195.2C176.921 197.423 175.538 199.522 173.977 201.473Z" fill="#774FC4"/>
<path d="M187.227 189.772C187.839 187.74 188.315 185.65 188.647 183.511C186.536 183.193 184.409 182.971 182.271 182.847C181.916 185.021 181.387 187.136 180.698 189.179C182.887 189.264 185.066 189.462 187.227 189.772Z" fill="#1A5866"/>
<path d="M118.574 216.479C120.407 217.57 122.32 218.539 124.303 219.376C125.44 217.517 126.676 215.711 128.009 213.967C125.962 213.182 123.996 212.235 122.126 211.142C120.857 212.871 119.672 214.652 118.574 216.479Z" fill="#1A5866"/>
<path d="M329.714 24.8148L348.005 42.7258L262.928 129.608L244.637 111.697L329.714 24.8148Z" fill="#9BAAF3"/>
<path d="M231.955 138.623C230.663 141.367 233.558 144.201 236.274 142.852L262.928 129.608L244.637 111.697L231.955 138.623Z" fill="#FDD9B4"/>
<path d="M236.274 142.852C233.558 144.202 230.663 141.367 231.955 138.623L237.118 127.661C239.012 128.908 240.853 130.385 242.588 132.084C244.323 133.783 245.839 135.593 247.125 137.46L236.274 142.852Z" fill="#768AEA"/>
<path d="M334.191 20.242C337.901 16.4538 343.979 16.39 347.767 20.0995L352.34 24.5772C356.128 28.2867 356.192 34.3647 352.482 38.1529L348.004 42.7257L329.713 24.8147L334.191 20.242Z" fill="#E60023"/>
<path d="M348.005 42.7258L329.714 24.8148L325.236 29.3876L343.527 47.2985L348.005 42.7258Z" fill="#E2E6FD"/>
<path d="M47.7557 70.6562L25.5854 83.4562L86.3854 188.765L108.556 175.965L47.7557 70.6562Z" fill="#59AAF3"/>
<path d="M114.144 205.198C114.713 208.178 111.204 210.203 108.909 208.221L86.3857 188.765L108.556 175.965L114.144 205.198Z" fill="#FDD9B4"/>
<path d="M108.909 208.221C111.204 210.204 114.713 208.178 114.143 205.199L111.869 193.298C109.724 194.034 107.573 195.008 105.471 196.222C103.368 197.436 101.45 198.812 99.7393 200.301L108.909 208.221Z" fill="#1F6BAD"/>
<path d="M44.5559 65.1138C41.9049 60.5222 36.0336 58.949 31.442 61.6L25.8995 64.8C21.3079 67.451 19.7346 73.3222 22.3856 77.9138L25.5856 83.4564L47.7559 70.6564L44.5559 65.1138Z" fill="#E60023"/>
<rect x="25.5854" y="83.4563" width="25.6" height="6.4" transform="rotate(-30 25.5854 83.4563)" fill="#E2F0FD"/>
<path d="M337.531 284.789L350.552 262.748L245.858 200.896L232.836 222.937L337.531 284.789Z" fill="#5CD6B7"/>
<path d="M213.607 200.22C211.647 197.905 213.708 194.416 216.682 195.016L245.858 200.896L232.836 222.937L213.607 200.22Z" fill="#FDD9B4"/>
<path d="M216.682 195.016C213.708 194.416 211.647 197.905 213.607 200.22L221.436 209.468C222.941 207.773 224.336 205.869 225.572 203.778C226.807 201.688 227.801 199.547 228.56 197.41L216.682 195.016Z" fill="#207E67"/>
</g>
<defs>
<linearGradient id="paint0_linear_2583_241172" x1="187.542" y1="344" x2="187.542" y2="24" gradientUnits="userSpaceOnUse">
<stop stop-color="#E2FDF6"/>
<stop offset="1" stop-color="white"/>
</linearGradient>
<clipPath id="clip0_2583_241172">
<rect width="375" height="250" fill="white"/>
</clipPath>
</defs>
</svg>
