<svg width="375" height="375" viewBox="0 0 375 375" fill="none" xmlns="http://www.w3.org/2000/svg">
<g clip-path="url(#clip0_2583_241155)">
<rect width="375" height="375" fill="#1A5866"/>
<path d="M176.4 253.6C174.412 253.6 172.8 255.212 172.8 257.2C172.8 268.315 177.062 278.651 182.547 287.95C186.881 295.298 192.151 302.266 196.918 308.57C198.158 310.208 199.363 311.802 200.509 313.346C201.694 314.942 203.949 315.276 205.546 314.09C207.142 312.905 207.475 310.65 206.29 309.054C205.065 307.404 203.806 305.738 202.531 304.052C197.791 297.782 192.851 291.247 188.749 284.292C183.568 275.508 180 266.481 180 257.2C180 255.212 178.388 253.6 176.4 253.6Z" fill="#75982A"/>
<path d="M151.2 253.6C149.212 253.6 147.6 255.212 147.6 257.2C147.6 266.481 144.032 275.508 138.851 284.292C134.749 291.247 129.808 297.782 125.068 304.052C123.794 305.738 122.534 307.404 121.309 309.054C120.124 310.65 120.458 312.905 122.054 314.09C123.65 315.276 125.905 314.942 127.09 313.346C128.237 311.802 129.442 310.208 130.681 308.57C135.449 302.266 140.719 295.298 145.053 287.95C150.537 278.651 154.8 268.315 154.8 257.2C154.8 255.212 153.188 253.6 151.2 253.6Z" fill="#75982A"/>
<path d="M19.7998 185.2H41.3998V206.8H19.7998V185.2Z" fill="#354517"/>
<path d="M-12.7662 145.578C-42.8731 108.948 -16.8151 53.8 30.6 53.8C78.0151 53.8 104.073 108.948 73.9662 145.578L41.4 185.2H19.8L-12.7662 145.578Z" fill="url(#paint0_linear_2583_241155)"/>
<path d="M246.419 188.74C249.945 184.784 253.886 181.225 257.894 177.758C285.264 154.084 302.4 120.213 302.4 82.6C302.4 11.0239 240.347 -47 163.8 -47C87.2535 -47 25.2002 11.0239 25.2002 82.6C25.2002 120.213 42.336 154.084 69.706 177.758C73.7143 181.225 77.6555 184.784 81.1817 188.74L140.053 254.791C141.419 256.323 143.374 257.2 145.428 257.2H182.173C184.226 257.2 186.181 256.323 187.548 254.791L246.419 188.74Z" fill="url(#paint1_linear_2583_241155)"/>
<path d="M209.022 162.877C216.774 140.802 221.4 112.917 221.4 82.6C221.4 11.0239 195.612 -47 163.8 -47C131.989 -47 106.2 11.0239 106.2 82.6C106.2 112.915 110.826 140.799 118.577 162.874L147.6 257.2H180L209.022 162.877Z" fill="#E9DE63"/>
<path d="M120.6 307.6H207V318.4H205.2C201.224 318.4 198 321.624 198 325.6V336.4C198 348.329 188.329 358 176.4 358H151.2C139.271 358 129.6 348.329 129.6 336.4V325.6C129.6 321.624 126.377 318.4 122.4 318.4H120.6V307.6Z" fill="#E68800"/>
<path d="M178.2 290.292C178.2 297.863 171.753 304 163.8 304C155.847 304 149.4 297.863 149.4 290.292C149.4 282.722 163.8 264.4 163.8 264.4C163.8 264.4 178.2 282.722 178.2 290.292Z" fill="#FD865E"/>
<circle cx="163.8" cy="295" r="9" fill="#E60023"/>
<path d="M129.6 325.6H198V332.8H129.6V325.6Z" fill="#E60023"/>
<path d="M253.634 222.978C223.527 186.348 249.585 131.2 297 131.2C344.415 131.2 370.473 186.348 340.366 222.978L307.8 262.6H286.2L253.634 222.978Z" fill="url(#paint2_linear_2583_241155)"/>
<path d="M286.2 262.6H307.8V284.2H286.2V262.6Z" fill="#13434E"/>
<path d="M73.9664 145.578L57.4327 165.694C37.3113 143.197 25.2002 114.221 25.2002 82.6C25.2002 72.7131 26.3842 63.0847 28.6269 53.8321C29.2804 53.8108 29.9382 53.8 30.6002 53.8C78.0152 53.8 104.073 108.948 73.9664 145.578Z" fill="#F9F3B9"/>
<path d="M246.419 188.74C249.945 184.784 253.886 181.226 257.894 177.758C272.706 164.947 284.52 149.149 292.244 131.388C258.839 134.051 237.359 164.57 241.203 194.593L246.419 188.74Z" fill="#F9F3B9"/>
</g>
<defs>
<linearGradient id="paint0_linear_2583_241155" x1="27.6248" y1="53.801" x2="27.6248" y2="185.199" gradientUnits="userSpaceOnUse">
<stop stop-color="#9FC157"/>
<stop offset="1" stop-color="#187486"/>
</linearGradient>
<linearGradient id="paint1_linear_2583_241155" x1="163.8" y1="-25.4" x2="163.8" y2="255.605" gradientUnits="userSpaceOnUse">
<stop stop-color="#EEF7DE"/>
<stop offset="1" stop-color="white"/>
</linearGradient>
<linearGradient id="paint2_linear_2583_241155" x1="299.458" y1="131.201" x2="299.458" y2="262.599" gradientUnits="userSpaceOnUse">
<stop stop-color="#187486"/>
<stop offset="1" stop-color="#38A845"/>
</linearGradient>
<clipPath id="clip0_2583_241155">
<rect width="375" height="375" fill="white"/>
</clipPath>
</defs>
</svg>
