<svg width="220" height="220" viewBox="0 0 220 220" fill="none" xmlns="http://www.w3.org/2000/svg">
<path d="M20 110C20 60.2944 60.2944 20 110 20C159.706 20 200 60.2944 200 110V192C200 196.418 196.418 200 192 200H28C23.5817 200 20 196.418 20 192V110Z" fill="#D5E5B5"/>
<path d="M65.8049 74.4677C65.8049 83.226 68.5315 88.2532 72.589 94.7995C77.9211 103.402 92.5713 113.176 100.012 117.781C101.961 118.987 101.961 121.911 100.012 123.117C92.5713 127.721 77.9211 137.496 72.589 146.098C68.5315 152.644 65.8049 157.672 65.8049 166.43L65.8048 171.613C65.8047 178.62 65.8045 185.627 65.8045 192.634H57.7024V194.844C57.7024 197.692 60.0109 200 62.8585 200H157.141C159.989 200 162.298 197.692 162.298 194.844V192.634H154.195C154.195 185.627 154.195 178.62 154.195 171.613L154.195 166.43C154.195 157.672 151.469 152.644 147.411 146.098C142.079 137.496 127.429 127.721 119.988 123.117C118.039 121.911 118.039 118.987 119.988 117.781C127.429 113.176 142.079 103.402 147.411 94.7995C151.469 88.2532 154.195 83.226 154.195 74.4677L154.195 56.3659H162.298V54.1561C162.298 51.3085 159.989 49 157.141 49H62.8585C60.0109 49 57.7024 51.3085 57.7024 54.1561V56.3659H65.8045L65.8049 74.4677Z" fill="url(#paint0_radial_2579_234696)"/>
<path d="M96.0049 102.771C96.0049 106.025 93.3666 108.663 90.1122 108.663C86.8578 108.663 84.2195 106.025 84.2195 102.771C84.2195 99.5163 86.8578 96.8781 90.1122 96.8781C93.3666 96.8781 96.0049 99.5163 96.0049 102.771Z" fill="#8DE296"/>
<path d="M105.581 110.137C105.581 113.391 102.942 116.029 99.6878 116.029C96.4334 116.029 93.7951 113.391 93.7951 110.137C93.7951 106.882 96.4334 104.244 99.6878 104.244C102.942 104.244 105.581 106.882 105.581 110.137Z" fill="#9FC157"/>
<path d="M115.893 119.712C115.893 122.967 113.254 125.605 110 125.605C106.746 125.605 104.107 122.967 104.107 119.712C104.107 116.458 106.746 113.82 110 113.82C113.254 113.82 115.893 116.458 115.893 119.712Z" fill="#187486"/>
<path d="M116.629 113.82C116.629 117.074 113.991 119.712 110.737 119.712C107.482 119.712 104.844 117.074 104.844 113.82C104.844 110.565 107.482 107.927 110.737 107.927C113.991 107.927 116.629 110.565 116.629 113.82Z" fill="#4D6813"/>
<path d="M105.317 116.136C106.393 114.728 108.091 113.82 110 113.82C112.432 113.82 114.52 115.293 115.42 117.396C114.343 118.804 112.646 119.712 110.737 119.712C108.304 119.712 106.216 118.239 105.317 116.136Z" fill="#1C2554"/>
<path d="M127.678 109.4C127.678 112.654 125.04 115.293 121.785 115.293C118.531 115.293 115.893 112.654 115.893 109.4C115.893 106.146 118.531 103.507 121.785 103.507C125.04 103.507 127.678 106.146 127.678 109.4Z" fill="#66CC71"/>
<path d="M115.893 149.176C115.893 152.43 113.254 155.068 110 155.068C106.746 155.068 104.107 152.43 104.107 149.176C104.107 145.921 106.746 143.283 110 143.283C113.254 143.283 115.893 145.921 115.893 149.176Z" fill="#E60023"/>
<path d="M87.1659 95.0366C87.1659 98.291 84.5276 100.929 81.2732 100.929C78.0187 100.929 75.3805 98.291 75.3805 95.0366C75.3805 91.7822 78.0187 89.1439 81.2732 89.1439C84.5276 89.1439 87.1659 91.7822 87.1659 95.0366Z" fill="#FD865E"/>
<path d="M101.898 99.0878C101.898 102.342 99.2593 104.98 96.0049 104.98C92.7504 104.98 90.1122 102.342 90.1122 99.0878C90.1122 95.8334 92.7504 93.1951 96.0049 93.1951C99.2593 93.1951 101.898 95.8334 101.898 99.0878Z" fill="#45C5DE"/>
<path d="M95.5826 104.966C92.5252 104.749 90.1122 102.2 90.1122 99.088C90.1122 98.3123 90.2621 97.5715 90.5345 96.8932C93.5919 97.1097 96.0049 99.6585 96.0049 102.771C96.0049 103.547 95.855 104.287 95.5826 104.966Z" fill="#2AA788"/>
<path d="M117.366 102.034C117.366 105.289 114.728 107.927 111.473 107.927C108.219 107.927 105.58 105.289 105.58 102.034C105.58 98.7797 108.219 96.1415 111.473 96.1415C114.728 96.1415 117.366 98.7797 117.366 102.034Z" fill="#E60023"/>
<path d="M112.946 95.4049C112.946 98.6593 110.308 101.298 107.054 101.298C103.799 101.298 101.161 98.6593 101.161 95.4049C101.161 92.1505 103.799 89.5122 107.054 89.5122C110.308 89.5122 112.946 92.1505 112.946 95.4049Z" fill="#F7C545"/>
<path d="M112.877 96.3098C112.442 99.1347 110 101.298 107.054 101.298C106.57 101.298 106.1 101.239 105.65 101.129C106.085 98.3044 108.526 96.1415 111.473 96.1415C111.957 96.1415 112.427 96.1998 112.877 96.3098Z" fill="#FA5F2E"/>
<path d="M129.151 100.561C129.151 103.815 126.513 106.454 123.259 106.454C120.004 106.454 117.366 103.815 117.366 100.561C117.366 97.3065 120.004 94.6683 123.259 94.6683C126.513 94.6683 129.151 97.3065 129.151 100.561Z" fill="#D7CB42"/>
<path d="M126.298 105.61C125.41 106.146 124.37 106.454 123.258 106.454C121.447 106.454 119.827 105.636 118.746 104.351C119.633 103.815 120.673 103.507 121.785 103.507C123.597 103.507 125.217 104.325 126.298 105.61Z" fill="#9FC157"/>
<path d="M138.727 99.8244C138.727 103.079 136.089 105.717 132.834 105.717C129.58 105.717 126.941 103.079 126.941 99.8244C126.941 96.5699 129.58 93.9317 132.834 93.9317C136.089 93.9317 138.727 96.5699 138.727 99.8244Z" fill="#988C1B"/>
<path d="M128.309 103.599C127.455 102.577 126.941 101.261 126.941 99.8246C126.941 98.7133 127.249 97.6738 127.784 96.7867C128.638 97.8091 129.151 99.1251 129.151 100.561C129.151 101.673 128.844 102.712 128.309 103.599Z" fill="#4D6813"/>
<path d="M143.146 93.9317C143.146 97.1862 140.508 99.8244 137.254 99.8244C133.999 99.8244 131.361 97.1862 131.361 93.9317C131.361 90.6773 133.999 88.039 137.254 88.039C140.508 88.039 143.146 90.6773 143.146 93.9317Z" fill="#FDA64F"/>
<path d="M131.364 94.1166C131.834 93.9959 132.327 93.9317 132.834 93.9317C136.027 93.9317 138.626 96.4706 138.724 99.6395C138.254 99.7602 137.761 99.8244 137.254 99.8244C134.061 99.8244 131.462 97.2855 131.364 94.1166Z" fill="#7E5207"/>
<path d="M132.098 169.063C132.098 172.318 129.459 174.956 126.205 174.956C122.95 174.956 120.312 172.318 120.312 169.063C120.312 165.809 122.95 163.171 126.205 163.171C129.459 163.171 132.098 165.809 132.098 169.063Z" fill="#83C3FC"/>
<path d="M149.776 171.273C149.776 174.528 147.137 177.166 143.883 177.166C140.629 177.166 137.99 174.528 137.99 171.273C137.99 168.019 140.629 165.38 143.883 165.38C147.137 165.38 149.776 168.019 149.776 171.273Z" fill="#70E6C8"/>
<path d="M142.41 174.956C142.41 178.211 139.772 180.849 136.517 180.849C133.263 180.849 130.624 178.211 130.624 174.956C130.624 171.702 133.263 169.063 136.517 169.063C139.772 169.063 142.41 171.702 142.41 174.956Z" fill="#1A5866"/>
<path d="M142.086 176.887C139.71 176.127 137.99 173.901 137.99 171.273C137.99 170.597 138.104 169.947 138.314 169.343C140.69 170.102 142.41 172.328 142.41 174.956C142.41 175.633 142.296 176.282 142.086 176.887Z" fill="#38A845"/>
<path d="M114.42 179.376C114.42 182.63 111.781 185.268 108.527 185.268C105.272 185.268 102.634 182.63 102.634 179.376C102.634 176.121 105.272 173.483 108.527 173.483C111.781 173.483 114.42 176.121 114.42 179.376Z" fill="#F7C545"/>
<path d="M120.312 189.688C120.312 192.942 117.674 195.581 114.42 195.581C111.165 195.581 108.527 192.942 108.527 189.688C108.527 186.433 111.165 183.795 114.42 183.795C117.674 183.795 120.312 186.433 120.312 189.688Z" fill="#66CC71"/>
<path d="M126.205 179.376C126.205 182.63 123.567 185.268 120.312 185.268C117.058 185.268 114.42 182.63 114.42 179.376C114.42 176.121 117.058 173.483 120.312 173.483C123.567 173.483 126.205 176.121 126.205 179.376Z" fill="#187486"/>
<path d="M127.678 194.107C127.678 197.362 125.04 200 121.785 200C118.531 200 115.893 197.362 115.893 194.107C115.893 190.853 118.531 188.215 121.785 188.215C125.04 188.215 127.678 190.853 127.678 194.107Z" fill="#45C5DE"/>
<path d="M116.026 195.359C118.5 194.66 120.312 192.385 120.312 189.688C120.312 189.258 120.266 188.84 120.179 188.436C117.705 189.136 115.893 191.41 115.893 194.107C115.893 194.537 115.939 194.956 116.026 195.359Z" fill="#187486"/>
<path d="M133.571 183.795C133.571 187.05 130.932 189.688 127.678 189.688C124.424 189.688 121.785 187.05 121.785 183.795C121.785 180.541 124.424 177.902 127.678 177.902C130.932 177.902 133.571 180.541 133.571 183.795Z" fill="#79D8EC"/>
<path d="M121.919 185.047C124.392 184.347 126.205 182.073 126.205 179.376C126.205 178.946 126.159 178.527 126.072 178.124C123.598 178.823 121.785 181.098 121.785 183.795C121.785 184.225 121.831 184.643 121.919 185.047Z" fill="#1A5866"/>
<path d="M151.249 183.059C151.249 186.313 148.611 188.951 145.356 188.951C142.102 188.951 139.463 186.313 139.463 183.059C139.463 179.804 142.102 177.166 145.356 177.166C148.611 177.166 151.249 179.804 151.249 183.059Z" fill="#59AAF3"/>
<path d="M139.463 194.107C139.463 197.362 136.825 200 133.571 200C130.316 200 127.678 197.362 127.678 194.107C127.678 190.853 130.316 188.215 133.571 188.215C136.825 188.215 139.463 190.853 139.463 194.107Z" fill="#526AE0"/>
<path d="M146.829 194.107C146.829 197.362 144.191 200 140.937 200C137.682 200 135.044 197.362 135.044 194.107C135.044 190.853 137.682 188.215 140.937 188.215C144.191 188.215 146.829 190.853 146.829 194.107Z" fill="#1C2554"/>
<path d="M137.254 198.708C138.601 197.628 139.463 195.968 139.463 194.108C139.463 192.247 138.601 190.587 137.254 189.507C135.907 190.587 135.044 192.247 135.044 194.108C135.044 195.968 135.907 197.628 137.254 198.708Z" fill="#2A3FA7"/>
<path d="M109.263 194.107C109.263 197.362 106.625 200 103.371 200C100.116 200 97.4781 197.362 97.4781 194.107C97.4781 190.853 100.116 188.215 103.371 188.215C106.625 188.215 109.263 190.853 109.263 194.107Z" fill="#4D6813"/>
<path d="M105.581 182.322C105.581 185.576 102.942 188.215 99.6878 188.215C96.4334 188.215 93.7951 185.576 93.7951 182.322C93.7951 179.068 96.4334 176.429 99.6878 176.429C102.942 176.429 105.581 179.068 105.581 182.322Z" fill="#D7CB42"/>
<path d="M105.25 184.274C103.672 183.216 102.634 181.417 102.634 179.376C102.634 178.692 102.751 178.035 102.965 177.424C104.542 178.482 105.58 180.281 105.58 182.322C105.58 183.006 105.464 183.663 105.25 184.274Z" fill="#E68800"/>
<path d="M92.322 194.107C92.322 197.362 89.6837 200 86.4293 200C83.1748 200 80.5366 197.362 80.5366 194.107C80.5366 190.853 83.1748 188.215 86.4293 188.215C89.6837 188.215 92.322 190.853 92.322 194.107Z" fill="#988C1B"/>
<path d="M80.5366 194.107C80.5366 197.362 77.8983 200 74.6439 200C71.3895 200 68.7512 197.362 68.7512 194.107C68.7512 190.853 71.3895 188.215 74.6439 188.215C77.8983 188.215 80.5366 190.853 80.5366 194.107Z" fill="#DA3C0B"/>
<path d="M97.4781 191.161C97.4781 194.415 94.8398 197.054 91.5854 197.054C88.3309 197.054 85.6927 194.415 85.6927 191.161C85.6927 187.907 88.3309 185.268 91.5854 185.268C94.8398 185.268 97.4781 187.907 97.4781 191.161Z" fill="#9FC157"/>
<path d="M91.5337 197.054C88.3031 197.026 85.6927 194.398 85.6927 191.161C85.6927 190.088 85.9796 189.082 86.4809 188.215C89.7116 188.243 92.322 190.87 92.322 194.107C92.322 195.181 92.035 196.187 91.5337 197.054Z" fill="#573905"/>
<path d="M86.4293 183.795C86.4293 187.05 83.791 189.688 80.5366 189.688C77.2822 189.688 74.6439 187.05 74.6439 183.795C74.6439 180.541 77.2822 177.902 80.5366 177.902C83.791 177.902 86.4293 180.541 86.4293 183.795Z" fill="#FDA64F"/>
<path d="M90.8488 181.585C90.8488 184.84 88.2105 187.478 84.9561 187.478C81.7017 187.478 79.0634 184.84 79.0634 181.585C79.0634 178.331 81.7017 175.693 84.9561 175.693C88.2105 175.693 90.8488 178.331 90.8488 181.585Z" fill="#FDD9B4"/>
<path d="M80.3536 177.905C80.4144 177.903 80.4754 177.902 80.5366 177.902C83.791 177.902 86.4293 180.541 86.4293 183.795C86.4293 185.187 85.9464 186.467 85.1391 187.475C85.0783 187.477 85.0173 187.478 84.9561 187.478C81.7017 187.478 79.0634 184.84 79.0634 181.585C79.0634 180.193 79.5463 178.914 80.3536 177.905Z" fill="#FD865E"/>
<path d="M57.7024 192.634H162.298V194.913C162.298 197.722 160.02 200 157.21 200H62.7896C59.9801 200 57.7024 197.722 57.7024 194.913V192.634Z" fill="url(#paint1_linear_2579_234696)"/>
<path d="M57.7024 56.3659H162.298V54.0872C162.298 51.2776 160.02 49 157.21 49H62.7896C59.9801 49 57.7024 51.2776 57.7024 54.0872V56.3659Z" fill="url(#paint2_linear_2579_234696)"/>
<defs>
<radialGradient id="paint0_radial_2579_234696" cx="0" cy="0" r="1" gradientUnits="userSpaceOnUse" gradientTransform="translate(110 120.817) rotate(90) scale(79.1829 83.9103)">
<stop stop-color="white"/>
<stop offset="1" stop-color="#E7F9E9"/>
</radialGradient>
<linearGradient id="paint1_linear_2579_234696" x1="110" y1="192.634" x2="110" y2="200" gradientUnits="userSpaceOnUse">
<stop stop-color="white" stop-opacity="0.75"/>
<stop offset="1" stop-color="white"/>
</linearGradient>
<linearGradient id="paint2_linear_2579_234696" x1="110" y1="56.3659" x2="110" y2="49" gradientUnits="userSpaceOnUse">
<stop stop-color="white" stop-opacity="0.75"/>
<stop offset="1" stop-color="white"/>
</linearGradient>
</defs>
</svg>
