<svg width="375" height="375" viewBox="0 0 375 375" fill="none" xmlns="http://www.w3.org/2000/svg">
<g clip-path="url(#clip0_2583_240064)">
<rect width="375" height="375" fill="#DBD2EF"/>
<rect width="216" height="180" transform="matrix(4.37114e-08 1 1 -4.37114e-08 -55 11)" fill="url(#paint0_linear_2583_240064)"/>
<g clip-path="url(#clip1_2583_240064)">
<path d="M115 21H-45V181H115V21Z" fill="url(#paint1_linear_2583_240064)"/>
<path d="M63.2333 99.0689C57.0517 106.024 46.1851 106.024 40.0036 99.0689L38.9463 97.8794C36.7208 95.3754 33.7457 93.6577 30.4645 92.9823L28.9057 92.6615C19.7919 90.7855 14.3586 81.3748 17.2908 72.544L17.7924 71.0337C18.8481 67.8543 18.8481 64.4189 17.7924 61.2396L17.2909 59.7293C14.3586 50.8985 19.7919 41.4877 28.9057 39.6118L30.4645 39.2909C33.7457 38.6155 36.7208 36.8978 38.9463 34.3939L40.0036 33.2044C46.1851 26.2496 57.0517 26.2496 63.2333 33.2044L64.2905 34.3939C66.516 36.8978 69.4912 38.6155 72.7724 39.2909L74.3312 39.6118C83.445 41.4877 88.8783 50.8985 85.946 59.7293L85.4445 61.2396C84.3888 64.4189 84.3888 67.8543 85.4445 71.0336L85.946 72.544C88.8783 81.3748 83.445 90.7855 74.3312 92.6615L72.7724 92.9823C69.4912 93.6577 66.516 95.3754 64.2905 97.8794L63.2333 99.0689Z" fill="#FCA58D"/>
<path d="M-10.5252 181H-4.18774L-11.3844 159.838C-16.727 144.128 -15.4262 126.919 -7.78303 112.191L5.08747 87.3893C5.85065 85.9187 5.27714 84.1078 3.80652 83.3447C2.3359 82.5815 0.525053 83.155 -0.238123 84.6256L-13.1086 109.427C-21.505 125.606 -22.9339 144.512 -17.0649 161.77L-10.5252 181Z" fill="#FCA58D"/>
<path d="M18.3417 121.515C12.1601 128.469 1.29354 128.469 -4.88802 121.515L-5.94526 120.325C-8.17079 117.821 -11.1459 116.104 -14.4271 115.428L-15.9859 115.107C-25.0997 113.231 -30.533 103.821 -27.6008 94.9898L-27.0992 93.4795C-26.0435 90.3001 -26.0435 86.8647 -27.0992 83.6854L-27.6007 82.1751C-30.533 73.3443 -25.0997 63.9335 -15.9859 62.0576L-14.4272 61.7367C-11.1459 61.0613 -8.1708 59.3436 -5.94526 56.8397L-4.88802 55.6502C1.29354 48.6954 12.1601 48.6954 18.3417 55.6502L19.3989 56.8397C21.6244 59.3436 24.5996 61.0613 27.8808 61.7367L29.4396 62.0576C38.5534 63.9335 43.9867 73.3443 41.0544 82.1751L40.5529 83.6854C39.4972 86.8647 39.4972 90.3001 40.5529 93.4795L41.0544 94.9898C43.9867 103.821 38.5534 113.231 29.4396 115.107L27.8808 115.428C24.5996 116.104 21.6244 117.821 19.3989 120.325L18.3417 121.515Z" fill="#F9A4CF"/>
<path d="M16.5207 53.9048C17.1626 54.4276 17.772 55.0094 18.3417 55.6503L19.3989 56.8398C21.6244 59.3437 24.5996 61.0614 27.8808 61.7368L29.4396 62.0577C38.5534 63.9336 43.9867 73.3444 41.0544 82.1752L40.5529 83.6855C39.4972 86.8648 39.4972 90.3002 40.5529 93.4795L41.0544 94.9899C41.6993 96.9321 41.9396 98.9023 41.825 100.814C41.1831 100.291 40.5737 99.7096 40.0041 99.0687L38.9468 97.8792C36.7213 95.3753 33.7462 93.6576 30.4649 92.9822L28.9062 92.6613C19.7924 90.7854 14.3591 81.3746 17.2913 72.5439L17.7929 71.0335C18.8486 67.8542 18.8486 64.4188 17.7929 61.2395L17.2913 59.7291C16.6464 57.7869 16.4062 55.8167 16.5207 53.9048Z" fill="#FA5F2E"/>
<path d="M38.6005 163.227C32.4189 170.182 21.5523 170.182 15.3708 163.227L14.3135 162.038C12.088 159.534 9.11288 157.816 5.83165 157.141L4.27288 156.82C-4.84094 154.944 -10.2742 145.533 -7.34196 136.702L-6.84045 135.192C-5.78474 132.013 -5.78474 128.577 -6.84045 125.398L-7.34196 123.887C-10.2742 115.057 -4.84094 105.646 4.27288 103.77L5.83164 103.449C9.11287 102.774 12.088 101.056 14.3135 98.5521L15.3708 97.3626C21.5523 90.4078 32.4189 90.4078 38.6004 97.3626L39.6577 98.5521C41.8832 101.056 44.8584 102.774 48.1396 103.449L49.6983 103.77C58.8122 105.646 64.2455 115.057 61.3132 123.887L60.8117 125.398C59.756 128.577 59.756 132.013 60.8117 135.192L61.3132 136.702C64.2455 145.533 58.8122 154.944 49.6983 156.82L48.1396 157.141C44.8584 157.816 41.8832 159.534 39.6577 162.038L38.6005 163.227Z" fill="#B497ED"/>
<path d="M-4.88757 121.515C1.29398 128.47 12.1606 128.47 18.3421 121.515L19.3994 120.325C21.6249 117.821 24.6 116.104 27.8812 115.428L29.44 115.108C36.6327 113.627 41.5329 107.454 41.8379 100.576C41.0526 99.9757 40.3221 99.2989 39.6584 98.5521L38.6012 97.3626C32.4196 90.4078 21.553 90.4078 15.3715 97.3626L14.3142 98.5521C12.0887 101.056 9.11357 102.774 5.83234 103.449L4.27358 103.77C-2.91909 105.25 -7.81936 111.424 -8.1243 118.302C-7.33897 118.902 -6.60856 119.579 -5.94481 120.325L-4.88757 121.515Z" fill="#C856C8"/>
<path d="M43.9897 142.715C42.3985 144.506 39.6013 144.506 38.0102 142.715L36.2823 140.771C35.7094 140.127 34.9436 139.685 34.099 139.511L31.5515 138.986C29.2055 138.503 27.8069 136.081 28.5617 133.808L29.3813 131.34C29.6531 130.521 29.6531 129.637 29.3813 128.818L28.5617 126.35C27.8069 124.077 29.2055 121.655 31.5515 121.172L34.099 120.647C34.9436 120.473 35.7094 120.031 36.2823 119.387L38.0102 117.443C39.6013 115.653 42.3985 115.653 43.9897 117.443L45.7175 119.387C46.2904 120.031 47.0562 120.473 47.9008 120.647L50.4484 121.172C52.7943 121.655 54.1929 124.077 53.4381 126.35L52.6185 128.818C52.3467 129.637 52.3467 130.521 52.6185 131.34L53.4381 133.808C54.1929 136.081 52.7943 138.503 50.4484 138.986L47.9008 139.511C47.0562 139.685 46.2904 140.127 45.7175 140.771L43.9897 142.715Z" fill="#774FC4"/>
<path d="M64.5219 80.3266C62.9307 82.1168 60.1336 82.1168 58.5424 80.3266L56.8145 78.3826C56.2416 77.7381 55.4758 77.2959 54.6312 77.1221L52.0837 76.5977C49.7377 76.1148 48.3392 73.6924 49.0939 71.4193L49.9136 68.9509C50.1853 68.1325 50.1853 67.2482 49.9136 66.4298L49.0939 63.9614C48.3392 61.6883 49.7377 59.2659 52.0837 58.783L54.6312 58.2586C55.4758 58.0848 56.2416 57.6427 56.8145 56.9981L58.5424 55.0541C60.1336 53.2639 62.9307 53.2639 64.5219 55.0541L66.2498 56.9981C66.8226 57.6427 67.5885 58.0848 68.4331 58.2586L70.9806 58.783C73.3266 59.2659 74.7251 61.6883 73.9703 63.9614L73.1507 66.4298C72.879 67.2482 72.879 68.1325 73.1507 68.9509L73.9703 71.4193C74.7251 73.6924 73.3266 76.1148 70.9806 76.5977L68.4331 77.1221C67.5885 77.2959 66.8226 77.7381 66.2498 78.3826L64.5219 80.3266Z" fill="#E68800"/>
<path d="M52.4752 181H58.8479L69.1849 152.119C75.2002 135.313 58.1223 119.501 41.828 126.79L40.7747 127.262C39.2623 127.938 38.5847 129.713 39.2613 131.225C39.9379 132.738 41.7125 133.415 43.2249 132.739L44.2782 132.267C55.7484 127.136 67.7702 138.266 63.5358 150.097L52.4752 181Z" fill="#E68800"/>
<path d="M75.2105 181H81.3942L94.3409 129.077C100.685 103.633 88.5155 77.1951 65.0609 65.4678C63.5789 64.7268 61.7769 65.3275 61.0359 66.8094C60.295 68.2913 60.8957 70.0934 62.3776 70.8343C83.3182 81.3046 94.1834 104.909 88.5192 127.626L75.2105 181Z" fill="#BD5F00"/>
</g>
<rect width="216" height="180" transform="matrix(4.37114e-08 1 1 -4.37114e-08 157 131)" fill="url(#paint2_linear_2583_240064)"/>
<rect width="160" height="160" transform="matrix(-1 0 0 1 327 141)" fill="url(#paint3_linear_2583_240064)"/>
<path d="M179 255C179 248.959 180.759 242.978 184.176 237.397C187.594 231.816 192.602 226.745 198.917 222.473C205.231 218.202 212.727 214.813 220.978 212.502C229.228 210.19 238.07 209 247 209C255.93 209 264.772 210.19 273.022 212.502C281.273 214.813 288.769 218.202 295.083 222.473C301.398 226.745 306.406 231.816 309.824 237.397C313.241 242.978 315 248.959 315 255L179 255Z" fill="#BD5F00"/>
<path d="M315 255H179L190 301H304L315 255Z" fill="url(#paint4_linear_2583_240064)"/>
<path d="M270.461 165.029C275.622 163.102 281.356 165.813 283.141 171.025L284.4 174.7C285.238 177.145 285.15 179.624 284.365 181.816C284.15 182.418 284.535 183.104 285.165 183.216C291.932 184.416 296.986 190.471 296.689 197.585C296.599 199.729 296.03 201.744 295.089 203.528C294.749 204.171 295.189 205 295.917 205H296.23C304.256 205 310.639 211.734 310.21 219.749C309.811 227.179 303.671 233 296.23 233H197.77C190.329 233 184.188 227.179 183.79 219.749C183.36 211.734 189.744 205 197.77 205H198.682C199.409 205 199.849 204.171 199.509 203.528C198.568 201.744 197.999 199.729 197.91 197.585C197.614 190.518 202.6 184.496 209.299 183.24C209.923 183.123 210.301 182.442 210.086 181.845C208.872 178.487 209.275 174.526 211.932 171.315L215.78 166.665C219.469 162.206 226.139 161.526 231.738 162.989C234.661 163.752 238.094 164.149 241.782 163.59C247.03 162.795 249.895 160.26 252.282 158.149C254.799 155.921 256.784 154.165 260.472 155.418C260.476 155.419 260.479 155.424 260.478 155.429C260.068 157.171 260.114 158.925 260.388 160.541C261.149 165.03 266.196 166.622 270.461 165.029Z" fill="url(#paint5_linear_2583_240064)"/>
<path d="M189.582 230.357C192.25 227.512 195.378 224.867 198.917 222.473C205.231 218.202 212.728 214.813 220.978 212.502C229.228 210.19 238.07 209 247 209C255.93 209 264.773 210.19 273.023 212.502C281.273 214.813 288.769 218.202 295.084 222.473C298.622 224.867 301.75 227.511 304.418 230.356C302.111 232.022 299.28 233 296.23 233H197.77C194.72 233 191.889 232.022 189.582 230.357Z" fill="#FDD9B4"/>
<path fill-rule="evenodd" clip-rule="evenodd" d="M241.586 181.586C240.805 182.367 240.805 183.633 241.586 184.414L247.586 190.414C248.367 191.195 249.633 191.195 250.414 190.414C251.195 189.633 251.195 188.367 250.414 187.586L244.414 181.586C243.633 180.805 242.367 180.805 241.586 181.586Z" fill="#FDA64F"/>
<path fill-rule="evenodd" clip-rule="evenodd" d="M261.586 188.414C262.367 189.195 263.633 189.195 264.414 188.414L270.414 182.414C271.195 181.633 271.195 180.367 270.414 179.586C269.633 178.805 268.367 178.805 267.586 179.586L261.586 185.586C260.805 186.367 260.805 187.633 261.586 188.414Z" fill="#E60023"/>
<path fill-rule="evenodd" clip-rule="evenodd" d="M238.518 171.128C239.585 170.842 240.218 169.745 239.932 168.679L237.736 160.482C237.45 159.415 236.353 158.782 235.286 159.068C234.219 159.354 233.586 160.451 233.872 161.518L236.068 169.714C236.354 170.781 237.451 171.414 238.518 171.128Z" fill="#FA5F2E"/>
<path fill-rule="evenodd" clip-rule="evenodd" d="M258.932 171.482C259.218 172.549 258.585 173.646 257.518 173.932L249.321 176.128C248.255 176.414 247.158 175.781 246.872 174.714C246.586 173.647 247.219 172.55 248.286 172.264L256.482 170.068C257.549 169.782 258.646 170.416 258.932 171.482Z" fill="#B497ED"/>
<path fill-rule="evenodd" clip-rule="evenodd" d="M226.414 177.586C227.195 178.367 227.195 179.633 226.414 180.414L220.414 186.414C219.633 187.195 218.367 187.195 217.586 186.414C216.805 185.633 216.805 184.367 217.586 183.586L223.586 177.586C224.367 176.805 225.633 176.805 226.414 177.586Z" fill="#9BAAF3"/>
<path fill-rule="evenodd" clip-rule="evenodd" d="M232.518 185.068C233.585 185.354 234.218 186.451 233.932 187.518L231.736 195.714C231.45 196.781 230.353 197.414 229.286 197.128C228.219 196.842 227.586 195.746 227.872 194.679L230.068 186.482C230.354 185.416 231.451 184.782 232.518 185.068Z" fill="#E60023"/>
<path fill-rule="evenodd" clip-rule="evenodd" d="M273.586 189.586C272.805 190.367 272.805 191.633 273.586 192.414L279.586 198.414C280.367 199.195 281.633 199.195 282.414 198.414C283.195 197.633 283.195 196.367 282.414 195.586L276.414 189.586C275.633 188.805 274.367 188.805 273.586 189.586Z" fill="#FCA58D"/>
<path fill-rule="evenodd" clip-rule="evenodd" d="M292.447 179.268C293.404 179.82 293.732 181.043 293.179 182L288.937 189.348C288.384 190.305 287.161 190.633 286.205 190.08C285.248 189.528 284.92 188.305 285.473 187.348L289.715 180C290.267 179.043 291.491 178.716 292.447 179.268Z" fill="#59AAF3"/>
<path fill-rule="evenodd" clip-rule="evenodd" d="M214.204 163.268C213.248 163.82 212.92 165.043 213.472 166L217.715 173.348C218.267 174.305 219.49 174.633 220.447 174.08C221.403 173.528 221.731 172.305 221.179 171.348L216.936 164C216.384 163.043 215.161 162.716 214.204 163.268Z" fill="#59AAF3"/>
<path fill-rule="evenodd" clip-rule="evenodd" d="M274.941 162.644C273.874 162.358 272.778 162.992 272.492 164.059L270.296 172.255C270.01 173.322 270.643 174.418 271.71 174.704C272.777 174.99 273.874 174.357 274.159 173.29L276.356 165.094C276.641 164.027 276.008 162.93 274.941 162.644Z" fill="#FDA64F"/>
<path d="M309 255H305L300 301H304L309 255Z" fill="url(#paint6_linear_2583_240064)"/>
<path d="M294 301L296 255H292L290 301H294Z" fill="url(#paint7_linear_2583_240064)"/>
<path d="M285 255H281L280 301H284L285 255Z" fill="url(#paint8_linear_2583_240064)"/>
<path d="M269 255H273V301H269V255Z" fill="url(#paint9_linear_2583_240064)"/>
<path d="M261 255H257V301H261V255Z" fill="url(#paint10_linear_2583_240064)"/>
<path d="M249 255H245V301H249V255Z" fill="url(#paint11_linear_2583_240064)"/>
<path d="M237 255H233V301H237V255Z" fill="url(#paint12_linear_2583_240064)"/>
<path d="M221 255H225V301H221V255Z" fill="url(#paint13_linear_2583_240064)"/>
<path d="M213 255H209L210 301H214L213 255Z" fill="url(#paint14_linear_2583_240064)"/>
<path d="M198 255L200 301H204L202 255H198Z" fill="url(#paint15_linear_2583_240064)"/>
<path d="M189 255H185L190 301H194L189 255Z" fill="url(#paint16_linear_2583_240064)"/>
<rect width="216" height="180" transform="matrix(4.37114e-08 1 1 -4.37114e-08 -55 251)" fill="url(#paint17_linear_2583_240064)"/>
<g clip-path="url(#clip2_2583_240064)">
<path d="M115 261H-45V421H115V261Z" fill="url(#paint18_linear_2583_240064)"/>
<path d="M39 273C39 270.791 37.2091 269 35 269C32.7909 269 31 270.791 31 273V281C31 283.209 32.7909 285 35 285C37.2091 285 39 283.209 39 281V273Z" fill="#2086DF"/>
<path d="M39 369.43C39 382.954 48.9448 394.421 62.3333 396.333L63.0402 396.434C65.3123 396.759 67 398.705 67 401H3C3 398.705 4.68768 396.759 6.95979 396.434L7.66666 396.333C21.0552 394.421 31 382.954 31 369.43V345H39V369.43Z" fill="url(#paint19_linear_2583_240064)"/>
<rect width="8" height="8" transform="matrix(-1 0 0 1 39 275)" fill="#C4CDF8"/>
<path d="M-31 345C-31 327.496 -24.0464 310.708 -11.6691 298.331C0.708344 285.954 17.4957 279 35 279C52.5043 279 69.2916 285.954 81.669 298.331C94.0464 310.708 101 327.496 101 345L-31 345Z" fill="url(#paint20_linear_2583_240064)"/>
</g>
<path fill-rule="evenodd" clip-rule="evenodd" d="M310.189 104.564L322.031 89.1777C327.198 82.4642 337.901 85.3321 339.019 93.7296L341.582 112.976L359.874 119.483C367.856 122.323 368.436 133.388 360.795 137.047L343.283 145.431L342.746 164.839C342.512 173.308 332.167 177.279 326.327 171.142L312.941 157.078L294.317 162.565C286.191 164.959 279.218 156.348 283.249 148.897L292.489 131.821L281.515 115.804C276.727 108.815 282.762 99.5219 291.093 101.054L310.189 104.564ZM299.51 131.453L286.464 112.412C284.693 109.826 286.926 106.388 290.009 106.955L312.709 111.128L326.786 92.8372C328.698 90.3531 332.658 91.4143 333.072 94.5215L336.118 117.4L357.863 125.136C360.817 126.187 361.031 130.281 358.204 131.635L337.386 141.602L336.748 164.673C336.662 167.807 332.834 169.276 330.673 167.006L314.761 150.287L292.621 156.81C289.615 157.696 287.034 154.509 288.526 151.752L299.51 131.453Z" fill="white"/>
<path d="M333.072 94.5216C332.658 91.4144 328.698 90.3532 326.786 92.8373L312.709 111.128L290.008 106.955C286.926 106.388 284.693 109.827 286.464 112.412L299.509 131.453L288.526 151.752C287.034 154.509 289.614 157.696 292.621 156.81L314.761 150.287L330.673 167.006C332.834 169.276 336.662 167.807 336.748 164.674L337.386 141.602L358.204 131.635C361.031 130.281 360.816 126.187 357.863 125.136L336.118 117.4L333.072 94.5216Z" fill="#E60023"/>
</g>
<defs>
<linearGradient id="paint0_linear_2583_240064" x1="339" y1="90" x2="-72" y2="90" gradientUnits="userSpaceOnUse">
<stop stop-color="#E2E6FD"/>
<stop offset="1" stop-color="white"/>
</linearGradient>
<linearGradient id="paint1_linear_2583_240064" x1="35" y1="21" x2="35" y2="181" gradientUnits="userSpaceOnUse">
<stop stop-color="#FDEBD8"/>
<stop offset="1" stop-color="#FDC9B9"/>
</linearGradient>
<linearGradient id="paint2_linear_2583_240064" x1="-50" y1="180" x2="222" y2="-2.38558e-05" gradientUnits="userSpaceOnUse">
<stop stop-color="#E2E6FD"/>
<stop offset="1" stop-color="white"/>
</linearGradient>
<linearGradient id="paint3_linear_2583_240064" x1="80" y1="0" x2="80" y2="160" gradientUnits="userSpaceOnUse">
<stop stop-color="#D4C4F7"/>
<stop offset="1" stop-color="#9BAAF3"/>
</linearGradient>
<linearGradient id="paint4_linear_2583_240064" x1="247" y1="267" x2="247" y2="321" gradientUnits="userSpaceOnUse">
<stop stop-color="#5C3BA0"/>
<stop offset="1" stop-color="#1A3D5B"/>
</linearGradient>
<linearGradient id="paint5_linear_2583_240064" x1="248.894" y1="169.103" x2="248.894" y2="226.512" gradientUnits="userSpaceOnUse">
<stop stop-color="white"/>
<stop offset="1" stop-color="#F9F1E7"/>
</linearGradient>
<linearGradient id="paint6_linear_2583_240064" x1="268.707" y1="255" x2="268.707" y2="301" gradientUnits="userSpaceOnUse">
<stop stop-color="#774FC4"/>
<stop offset="1" stop-color="#2A3FA7"/>
</linearGradient>
<linearGradient id="paint7_linear_2583_240064" x1="268.707" y1="255" x2="268.707" y2="301" gradientUnits="userSpaceOnUse">
<stop stop-color="#774FC4"/>
<stop offset="1" stop-color="#2A3FA7"/>
</linearGradient>
<linearGradient id="paint8_linear_2583_240064" x1="268.707" y1="255" x2="268.707" y2="301" gradientUnits="userSpaceOnUse">
<stop stop-color="#774FC4"/>
<stop offset="1" stop-color="#2A3FA7"/>
</linearGradient>
<linearGradient id="paint9_linear_2583_240064" x1="268.707" y1="255" x2="268.707" y2="301" gradientUnits="userSpaceOnUse">
<stop stop-color="#774FC4"/>
<stop offset="1" stop-color="#2A3FA7"/>
</linearGradient>
<linearGradient id="paint10_linear_2583_240064" x1="268.707" y1="255" x2="268.707" y2="301" gradientUnits="userSpaceOnUse">
<stop stop-color="#774FC4"/>
<stop offset="1" stop-color="#2A3FA7"/>
</linearGradient>
<linearGradient id="paint11_linear_2583_240064" x1="268.707" y1="255" x2="268.707" y2="301" gradientUnits="userSpaceOnUse">
<stop stop-color="#774FC4"/>
<stop offset="1" stop-color="#2A3FA7"/>
</linearGradient>
<linearGradient id="paint12_linear_2583_240064" x1="268.707" y1="255" x2="268.707" y2="301" gradientUnits="userSpaceOnUse">
<stop stop-color="#774FC4"/>
<stop offset="1" stop-color="#2A3FA7"/>
</linearGradient>
<linearGradient id="paint13_linear_2583_240064" x1="268.707" y1="255" x2="268.707" y2="301" gradientUnits="userSpaceOnUse">
<stop stop-color="#774FC4"/>
<stop offset="1" stop-color="#2A3FA7"/>
</linearGradient>
<linearGradient id="paint14_linear_2583_240064" x1="268.707" y1="255" x2="268.707" y2="301" gradientUnits="userSpaceOnUse">
<stop stop-color="#774FC4"/>
<stop offset="1" stop-color="#2A3FA7"/>
</linearGradient>
<linearGradient id="paint15_linear_2583_240064" x1="268.707" y1="255" x2="268.707" y2="301" gradientUnits="userSpaceOnUse">
<stop stop-color="#774FC4"/>
<stop offset="1" stop-color="#2A3FA7"/>
</linearGradient>
<linearGradient id="paint16_linear_2583_240064" x1="268.707" y1="255" x2="268.707" y2="301" gradientUnits="userSpaceOnUse">
<stop stop-color="#774FC4"/>
<stop offset="1" stop-color="#2A3FA7"/>
</linearGradient>
<linearGradient id="paint17_linear_2583_240064" x1="339" y1="90" x2="-72" y2="90" gradientUnits="userSpaceOnUse">
<stop stop-color="#E2E6FD"/>
<stop offset="1" stop-color="white"/>
</linearGradient>
<linearGradient id="paint18_linear_2583_240064" x1="35" y1="261" x2="35" y2="400" gradientUnits="userSpaceOnUse">
<stop stop-color="#59AAF3"/>
<stop offset="1" stop-color="#9BAAF3"/>
</linearGradient>
<linearGradient id="paint19_linear_2583_240064" x1="35" y1="343" x2="35" y2="392" gradientUnits="userSpaceOnUse">
<stop stop-color="#FCA58D"/>
<stop offset="1" stop-color="#E2E6FD"/>
</linearGradient>
<linearGradient id="paint20_linear_2583_240064" x1="35" y1="279" x2="35" y2="345" gradientUnits="userSpaceOnUse">
<stop stop-color="white"/>
<stop offset="1" stop-color="#E2E6FD"/>
</linearGradient>
<clipPath id="clip0_2583_240064">
<rect width="375" height="375" fill="white"/>
</clipPath>
<clipPath id="clip1_2583_240064">
<rect width="160" height="160" fill="white" transform="matrix(-1 0 0 1 115 21)"/>
</clipPath>
<clipPath id="clip2_2583_240064">
<rect width="160" height="160" fill="white" transform="matrix(-1 0 0 1 115 261)"/>
</clipPath>
</defs>
</svg>
