<svg fill="none" height="220" viewBox="0 0 220 220" width="220" xmlns="http://www.w3.org/2000/svg" xmlns:xlink="http://www.w3.org/1999/xlink"><linearGradient id="a" gradientUnits="userSpaceOnUse" x1="52.1119" x2="52.1119" y1="32.9999" y2="232.413"><stop offset="0" stop-color="#fff"/><stop offset="1" stop-color="#e7f9e9"/></linearGradient><linearGradient id="b" gradientUnits="userSpaceOnUse" x1="52.1119" x2="52.1119" y1="32.9999" y2="232.413"><stop offset="0" stop-color="#fde2fd"/><stop offset="1" stop-color="#fff"/></linearGradient><linearGradient id="c" gradientUnits="userSpaceOnUse" x1="52.1119" x2="52.1119" y1="56.8594" y2="232.412"><stop offset="0" stop-color="#f8bef8"/><stop offset="1" stop-color="#fff" stop-opacity=".75"/></linearGradient><clipPath id="d"><rect height="190" rx="95" width="190" x="15" y="15"/></clipPath><circle cx="110" cy="110" fill="#c7e1da" r="95"/><g clip-path="url(#d)"><g opacity=".5"><path d="m26.058 33c-2.2137 0-4.0082 1.7946-4.0082 4.0083v16.0332c0 1.9813 1.4376 3.6269 3.3267 3.9505l-19.19569 14.0931c-5.14296 3.7758-8.18081 9.7748-8.18081 16.155v125.1309c0 11.069 8.97287 20.042 20.0415 20.042h118.2445c11.069 0 20.042-8.973 20.042-20.042v-125.1309c0-6.3802-3.038-12.3792-8.181-16.155l-19.196-14.0931c1.889-.3236 3.327-1.9692 3.327-3.9505v-16.0332c0-2.2137-1.795-4.0083-4.008-4.0083z" fill="url(#a)"/><path d="m26.058 33c-2.2137 0-4.0082 1.7946-4.0082 4.0083v16.0332c0 1.9813 1.4376 3.6269 3.3267 3.9505l-19.19569 14.0931c-5.14296 3.7758-8.18081 9.7748-8.18081 16.155v125.1309c0 11.069 8.97287 20.042 20.0415 20.042h118.2445c11.069 0 20.042-8.973 20.042-20.042v-125.1309c0-6.3802-3.038-12.3792-8.181-16.155l-19.196-14.0931c1.889-.3236 3.327-1.9692 3.327-3.9505v-16.0332c0-2.2137-1.795-4.0083-4.008-4.0083z" fill="url(#b)" fill-opacity=".2"/></g><path d="m156.328 212.371v-125.131c0-6.3802-3.038-12.3791-8.181-16.155l-19.376-14.2256h-103.214l-19.37619 14.2256c-5.14296 3.7758-8.18081 9.7748-8.18081 16.155v125.131c0 11.069 8.97287 20.042 20.0415 20.042h118.2445c11.069 0 20.042-8.973 20.042-20.042z" fill="url(#c)" opacity=".25"/><path d="m19.3314 119.592 2.3036 2.304-13.39234 13.392c-1.94966 1.95-4.05693 3.735-6.30034 5.338l-2.238964 1.6-.701647-.702 1.598319-2.237c1.603622-2.245 3.389892-4.353 5.340612-6.304z" fill="#c4cdf8"/><path d="m40.9922 119.37c-2.7394-2.74-7.1807-2.74-9.92 0l-2.8262 2.826 3.103 3.103c2.7393 2.739 2.7393 7.181 0 9.92l-7.4104 7.411-25.33978-25.34 7.41041-7.411c2.73933-2.739 7.18067-2.739 9.91997 0l3.1023 3.103 2.8262-2.827c2.7393-2.739 2.7393-7.18 0-9.92l-.5111-.5107 2.5916-2.5916 20.1566 20.1563-2.5915 2.592z" fill="#70e6c8"/><path d="m12.4204 131.11 11.2186-11.218-2.3036-2.304-11.2186 11.219z" fill="#2b8235"/><path d="m48.8177 94.5404-2.3037 2.3036 13.3924 13.392c1.9496 1.95 4.0569 3.735 6.3003 5.338l2.239 1.6.7016-.701-1.5983-2.238c-1.6036-2.245-3.3899-4.353-5.3406-6.304z" fill="#c4cdf8"/><path d="m27.1569 94.318c2.7393-2.7393 7.1807-2.7393 9.92 0l2.8262 2.8262-3.103 3.1028c-2.7394 2.74-2.7394 7.181 0 9.92l7.4104 7.411 25.3398-25.3401-7.4104-7.4104c-2.7394-2.7393-7.1807-2.7393-9.9201 0l-3.1022 3.1022-2.8262-2.8262c-2.7393-2.7393-2.7393-7.1806 0-9.92l.5111-.5111-2.5916-2.5915-20.1566 20.1566 2.5915 2.5916z" fill="#2b8235"/><path d="m55.7287 106.058-11.2186-11.2181 2.3036-2.3036 11.2186 11.2187z" fill="#354517"/><path d="m54.1191 146.361v-3.258h18.9397c2.7572 0 5.5098.227 8.2295.68l2.7144.452v.993l-2.7122.451c-2.7212.454-5.4752.682-8.234.682z" fill="#c4cdf8"/><path d="m38.6454 131.201c0 3.874 3.1405 7.015 7.0145 7.015h3.9968v-4.388c0-3.875 3.1405-7.015 7.0146-7.015h10.4799v35.836h-10.4799c-3.874 0-7.0146-3.141-7.0146-7.015v-4.387h-3.9968c-3.874 0-7.0145 3.141-7.0145 7.015v.722h-3.6651v-28.505h3.6651z" fill="#fda64f"/><path d="m67.1505 143.103h-15.8655v3.258h15.8655z" fill="#fa5f2e"/><path d="m102.503 185.903 2.304-2.303-13.3923-13.393c-1.9496-1.949-4.0569-3.735-6.3003-5.338l-2.239-1.599-.7016.701 1.5983 2.238c1.6036 2.244 3.3899 4.353 5.3406 6.304z" fill="#c4cdf8"/><path d="m124.164 186.126c-2.739 2.739-7.18 2.739-9.92 0l-2.826-2.827 3.103-3.103c2.739-2.739 2.739-7.18 0-9.92l-7.41-7.41-25.3401 25.34 7.4104 7.41c2.7393 2.739 7.1807 2.739 9.92 0l3.1027-3.102 2.826 2.826c2.739 2.739 2.739 7.181 0 9.92l-.511.511 2.591 2.592 20.157-20.157-2.592-2.591z" fill="#2b8235"/><path d="m95.5924 174.385 11.2186 11.219-2.304 2.303-11.2182-11.218z" fill="#354517"/><path d="m136.48 121.506h3.258v18.94c0 2.757-.228 5.51-.681 8.229l-.451 2.715h-.993l-.452-2.713c-.453-2.721-.681-5.475-.681-8.234z" fill="#c4cdf8"/><path d="m151.639 106.032c-3.874 0-7.014 3.141-7.014 7.015v3.997h4.388c3.874 0 7.015 3.14 7.015 7.014v10.48h-35.836v-10.48c0-3.874 3.14-7.014 7.014-7.014h4.388v-3.997c0-3.874-3.141-7.015-7.015-7.015h-.723v-3.665h28.506v3.665z" fill="#d7cb42"/><path d="m139.738 134.537v-15.865h-3.258v15.865z" fill="#776f0d"/><path d="m15.2293 165.591h3.2578v-18.94c0-2.757-.2276-5.509-.6805-8.229l-.4519-2.715h-.9923l-.4519 2.713c-.4533 2.721-.6812 5.475-.6812 8.234z" fill="#c4cdf8"/><path d="m30.3885 181.065c-3.874 0-7.0145-3.141-7.0145-7.015v-3.997h4.3884c3.874 0 7.0145-3.14 7.0145-7.014v-10.48h-35.83586v10.48c0 3.874 3.1405 7.014 7.01451 7.014h4.38725v3.997c0 3.874-3.14052 7.015-7.01453 7.015h-.72277v3.665h28.5058v-3.665z" fill="#bbda81"/><path d="m18.4871 152.56v15.865h-3.2579v-15.865z" fill="#38a845"/><path d="m152.222 207.552c-2.739-2.739-7.18-2.739-9.92 0l-2.826 2.826 3.103 3.104c2.739 2.739 2.739 7.18 0 9.92l-7.41 7.41-25.34-25.34 7.41-7.41c2.74-2.74 7.181-2.74 9.92 0l3.103 3.102 2.826-2.826c2.739-2.74 2.739-7.181 0-9.92l-.511-.511 2.591-2.592 20.157 20.157-2.592 2.591z" fill="#f9a4cf"/><path d="m83.4641 101.555 2.3036 2.304-13.3924 13.392c-1.9496 1.95-4.0569 3.735-6.3003 5.338l-2.239 1.6-.7016-.702 1.5983-2.237c1.6036-2.245 3.3899-4.354 5.3406-6.304z" fill="#c4cdf8"/><path d="m105.125 101.332c-2.739-2.7389-7.1808-2.7389-9.9202 0l-2.8262 2.827 3.1031 3.103c2.7393 2.739 2.7393 7.18 0 9.92l-7.4104 7.41-25.3398-25.3396 7.4104-7.4104c2.7394-2.7394 7.1807-2.7394 9.92 0l3.1023 3.1022 2.8262-2.8262c2.7393-2.7393 2.7393-7.1807 0-9.92l-.5111-.5111 2.5916-2.5916 20.1571 20.1567-2.592 2.592z" fill="#f9a4cf"/><path d="m76.5531 113.073 11.2186-11.219-2.3036-2.3032-11.2186 11.2182z" fill="#c82376"/><path d="m134.07 167.138-.843 3.147-18.294-4.902c-2.663-.714-5.263-1.646-7.773-2.787l-2.505-1.14.257-.958 2.737.265c2.745.267 5.465.76 8.129 1.474z" fill="#c4cdf8"/><path d="m145.093 185.785c1.003-3.742-1.218-7.588-4.96-8.591l-3.86-1.034-1.136 4.239c-1.003 3.742-4.849 5.963-8.591 4.96l-10.123-2.713 9.275-34.614 10.123 2.712c3.742 1.003 5.963 4.849 4.96 8.591l-1.135 4.238 3.86 1.034c3.742 1.003 7.589-1.218 8.591-4.96l.187-.698 3.54.949-7.377 27.534-3.541-.948z" fill="#70e6c8"/><path d="m120.64 166.912 15.325 4.106.843-3.147-15.325-4.106z" fill="#2b8235"/><path d="m115.53 83.5416 2.304-2.3036-13.392-13.3924c-1.95-1.9496-4.057-3.735-6.3006-5.338l-2.239-1.5998-.7017.7017 1.5984 2.2373c1.6036 2.2448 3.3899 4.3533 5.3409 6.304z" fill="#c4cdf8"/><path d="m137.191 83.764c-2.739 2.7393-7.18 2.7393-9.92 0l-2.826-2.8262 3.103-3.1031c2.739-2.7393 2.739-7.1807 0-9.92l-7.41-7.4104-25.3401 25.3398 7.4101 7.4104c2.74 2.7393 7.181 2.7393 9.92 0l3.103-3.1023 2.826 2.8262c2.739 2.7394 2.739 7.1806 0 9.9196l-.511.512 2.591 2.591 20.157-20.1566-2.592-2.5915z" fill="#e60023"/><path d="m108.619 72.0235 11.219 11.2186-2.304 2.3036-11.218-11.2186z" fill="#402970"/><path d="m52.6908 181.348-3.2005-.608-3.5351 18.607c-.5146 2.708-.8047 5.455-.8675 8.212l-.0626 2.751.9749.185.9501-2.58c.9533-2.589 1.6912-5.252 2.2061-7.963z" fill="#c4cdf8"/><path d="m40.6861 163.317c3.8059.723 6.3051 4.394 5.582 8.2l-.746 3.927-4.3113-.819c-3.8059-.724-7.4774 1.776-8.2004 5.582l-1.9561 10.295 35.2061 6.689 1.9561-10.296c.7231-3.806-1.7761-7.477-5.582-8.2l-4.3102-.819.746-3.927c.7231-3.806 4.3946-6.305 8.2005-5.582l.7101.135.6841-3.6-28.0049-5.321-.6841 3.601z" fill="#d7cb42"/><path d="m47.0581 193.542 2.9613-15.587 3.2005.608-2.9612 15.587z" fill="#776f0d"/><path d="m76.6084 210.684h-3.2578v-18.94c0-2.757.2276-5.51.6805-8.229l.4519-2.715h.9923l.4519 2.712c.4534 2.722.6812 5.476.6812 8.234z" fill="#c4cdf8"/><path d="m61.4492 226.158c3.874 0 7.0145-3.141 7.0145-7.015v-3.997h-4.3883c-3.874 0-7.0146-3.14-7.0145-7.014v-10.48h35.8358v10.48c0 3.874-3.1405 7.014-7.0145 7.014h-4.3872v3.997c0 3.874 3.1405 7.015 7.0145 7.015h.7228v3.665h-28.5058v-3.665z" fill="#fda64f"/><path d="m73.3507 197.652v15.866h3.2578v-15.866z" fill="#fa5f2e"/><path d="m19.3314 207.949 2.3036-2.304-13.39234-13.392c-1.94966-1.95-4.05693-3.735-6.30034-5.338l-2.238964-1.6-.701647.702 1.59832 2.237c1.603621 2.245 3.389891 4.353 5.340611 6.304z" fill="#c4cdf8"/><path d="m40.9922 208.171c-2.7394 2.74-7.1807 2.74-9.92 0l-2.8262-2.826 3.103-3.103c2.7393-2.739 2.7393-7.181 0-9.92l-7.4104-7.41-25.33978 25.339 7.41041 7.411c2.73934 2.739 7.18067 2.739 9.91997 0l3.1023-3.102 2.8262 2.826c2.7393 2.739 2.7393 7.18 0 9.92l-.5111.511 2.5916 2.591 20.1566-20.156-2.5915-2.592z" fill="#f9a4cf"/><path d="m12.4204 196.431 11.2186 11.218-2.3036 2.304-11.2186-11.219z" fill="#8f2459"/><path d="m99.9083 141.451-2.1015 2.49 14.4722 12.217c2.107 1.778 4.357 3.38 6.728 4.788l2.366 1.406.64-.758-1.781-2.095c-1.787-2.102-3.745-4.053-5.853-5.832z" fill="#c4cdf8"/><path d="m78.3057 143.054c2.4989-2.961 6.9245-3.335 9.8848-.836l3.0541 2.578-2.8307 3.354c-2.4989 2.96-2.1249 7.386.8354 9.885l8.0081 6.76 23.1156-27.384-8.008-6.76c-2.96-2.499-7.386-2.125-9.885.835l-2.8296 3.353-3.0541-2.578c-2.9603-2.499-3.3343-6.925-.8354-9.885l.4662-.552-2.8006-2.365-18.3876 21.783 2.8006 2.364z" fill="#bbda81"/><path d="m107.765 152.347-12.1238-10.235 2.1014-2.489 12.1234 10.234z" fill="#38a845"/><g fill="#f3f9f9"><path d="m22.0497 39.0125c-1.1068 0-2.0041.8972-2.0041 2.0041s.8973 2.0041 2.0041 2.0041h110.2283c1.107 0 2.004-.8972 2.004-2.0041s-.897-2.0041-2.004-2.0041z"/><path d="m22.0497 47.029c-1.1068 0-2.0041.8973-2.0041 2.0042 0 1.1068.8973 2.0041 2.0041 2.0041h110.2283c1.107 0 2.004-.8973 2.004-2.0041 0-1.1069-.897-2.0042-2.004-2.0042z"/></g></g></svg>