<svg width="375" height="375" viewBox="0 0 375 375" fill="none" xmlns="http://www.w3.org/2000/svg">
<g clip-path="url(#clip0_2583_241158)">
<rect width="375" height="375" fill="#1E4A71"/>
<path d="M310.164 28.4961L345.943 64.2757L329.68 80.5392C333.273 84.132 333.273 89.9571 329.68 93.5499L323.175 100.055C319.582 103.648 313.757 103.648 310.164 100.055L264.508 145.712L262.051 252.713C261.616 271.643 253.902 289.677 240.513 303.067L101.991 441.588C84.0273 459.552 54.9017 459.552 36.9376 441.588L-67.1485 337.502C-85.1126 319.538 -85.1126 290.412 -67.1485 272.448L71.1264 134.173C84.6623 120.637 102.939 112.908 122.08 112.624L227.598 111.062L274.384 64.2757C270.791 60.6829 270.791 54.8578 274.384 51.2649L280.89 44.7596C284.482 41.1667 290.308 41.1667 293.9 44.7596L310.164 28.4961Z" fill="url(#paint0_linear_2583_241158)"/>
<path d="M38.6123 312.828C-24.7872 249.428 -49.0947 254.395 -49.0947 254.395L71.9128 133.387C71.9128 133.387 84.2955 118.139 158.798 192.642L38.6123 312.828Z" fill="#2086DF"/>
<path d="M331.307 10.6071L363.834 43.134L324.801 75.6609L298.78 49.6393L331.307 10.6071Z" fill="#E60023"/>
<path d="M342.543 60.8757L324.801 75.6607L298.78 49.6392L313.565 31.8972L342.543 60.8757Z" fill="#9BAAF3"/>
<path d="M32.3616 436.45C44.6483 414.097 38.5672 382.26 15.9483 359.641C-6.72016 336.973 -38.6465 330.915 -61.0068 343.309C-59.8709 344.666 -58.6652 345.985 -57.39 347.26L27.18 431.83C28.8376 433.488 30.5682 435.027 32.3616 436.45Z" fill="white" fill-opacity="0.8"/>
<path d="M222.571 244.561C238.664 241.39 254.004 252.727 255.697 269.042C257.419 285.636 244.281 300.019 227.599 299.801L101.03 298.154L-53.7738 340.124L-61.9727 267.87L100.08 268.698L222.571 244.561Z" fill="url(#paint1_linear_2583_241158)"/>
<path d="M96.0488 277.7L100.956 273.675L107.071 279.008L65.0912 336.07L48.9205 316.355L87.7035 284.545L44.3643 254.355L59.8861 235.475L96.0488 277.7Z" fill="#EF7BB5"/>
<path fill-rule="evenodd" clip-rule="evenodd" d="M97.9824 304.222L96.2291 263.881L106.654 263.428L108.407 303.769L97.9824 304.222Z" fill="#EF7BB5"/>
<path d="M100.08 268.698L96.4356 268.644L96.8024 277.082L96.0488 277.7L88.2876 268.637L64.6948 268.517L87.7035 284.545L56.3384 310.27L90.9812 300.878L97.4542 292.079L97.7545 298.99L101.03 298.154L108.166 298.246L106.824 267.369L100.08 268.698Z" fill="#E60023"/>
<path fill-rule="evenodd" clip-rule="evenodd" d="M216.688 271.826C215.699 260.903 223.71 251.195 234.555 249.885L235.107 254.451C226.687 255.468 220.508 263.009 221.269 271.412L221.842 277.746C222.545 285.504 230.754 290.196 237.795 286.864C241.655 285.038 244.141 281.177 244.207 276.907L244.323 269.321C244.36 266.886 242.34 264.922 239.908 265.028C237.572 265.129 235.762 267.105 235.863 269.44L236.164 276.361L231.568 276.561L231.267 269.639C231.056 264.766 234.835 260.644 239.708 260.432C244.785 260.211 249 264.31 248.922 269.391L248.806 276.978C248.714 283 245.207 288.446 239.763 291.022C229.83 295.722 218.252 289.104 217.261 278.16L216.688 271.826Z" fill="#EF7BB5"/>
<path d="M-25.2582 291.801C-42.2453 274.813 -48.9468 254.247 -48.9468 254.247L67.8383 137.461C67.8383 137.461 74.8154 157.449 91.9543 174.588L-25.2582 291.801Z" fill="#223077"/>
</g>
<defs>
<linearGradient id="paint0_linear_2583_241158" x1="141.548" y1="12.2261" x2="141.548" y2="455.318" gradientUnits="userSpaceOnUse">
<stop stop-color="#E2F0FD"/>
<stop offset="1" stop-color="white" stop-opacity="0.3"/>
</linearGradient>
<linearGradient id="paint1_linear_2583_241158" x1="-56.2204" y1="301.962" x2="265.673" y2="276.052" gradientUnits="userSpaceOnUse">
<stop stop-color="#FDC4E1"/>
<stop offset="1" stop-color="#E2E6FD"/>
</linearGradient>
<clipPath id="clip0_2583_241158">
<rect width="375" height="375" fill="white"/>
</clipPath>
</defs>
</svg>
