<svg fill="none" height="220" viewBox="0 0 220 220" width="220" xmlns="http://www.w3.org/2000/svg" xmlns:xlink="http://www.w3.org/1999/xlink"><linearGradient id="a"><stop offset="0" stop-color="#8f2459"/><stop offset="1" stop-color="#2a3fa7"/></linearGradient><linearGradient id="b" gradientUnits="userSpaceOnUse" x1="85.1" x2="-19.0403" xlink:href="#a" y1="71.4738" y2="99.3781"/><linearGradient id="c" gradientUnits="userSpaceOnUse" x1="175.604" x2="71.4641" xlink:href="#a" y1="178.14" y2="206.044"/><linearGradient id="d"><stop offset="0" stop-color="#83c3fc"/><stop offset="1" stop-color="#1f6bad"/></linearGradient><linearGradient id="e" gradientUnits="userSpaceOnUse" x1="130.352" x2="26.2119" xlink:href="#d" y1="29.4539" y2="57.3582"/><linearGradient id="f" gradientUnits="userSpaceOnUse" x1="216.547" x2="112.407" xlink:href="#d" y1="126.423" y2="154.327"/><linearGradient id="g" gradientUnits="userSpaceOnUse" x1="213.315" x2="109.174" y1="29.4539" y2="57.3582"><stop offset="0" stop-color="#fda64f"/><stop offset="1" stop-color="#e60023"/></linearGradient><linearGradient id="h" gradientUnits="userSpaceOnUse" x1="128.197" x2="24.057" xlink:href="#d" y1="85.4804" y2="113.385"/><linearGradient id="i"><stop offset="0" stop-color="#9baaf3"/><stop offset="1" stop-color="#768aea"/></linearGradient><linearGradient id="j" gradientUnits="userSpaceOnUse" x1="169.14" x2="64.9995" xlink:href="#i" y1="113.494" y2="141.398"/><linearGradient id="k" gradientUnits="userSpaceOnUse" x1="109.881" x2="5.74063" xlink:href="#i" y1="156.591" y2="184.495"/><clipPath id="l"><path d="m0 0h220v220h-220z"/></clipPath><g clip-path="url(#l)"><circle cx="110" cy="110" fill="#c4e0f8" r="95"/><path d="m15.4042 101.178c.9831-10.6761 3.7326-20.8406 7.9538-30.1987 4.1769-2.3056 8.8024-4.2829 13.8115-5.6251 23.8531-6.3914 44.3053-7.4098 47.9305 6.1196 2.6182 9.7711-14.5961 22.8735-38.4493 29.2652-11.29 3.025-22.5053 2.282-31.2465.439z" fill="url(#b)"/><path d="m175.714 178.606c-17.064 16.349-40.216 26.394-65.714 26.394-14.5574 0-28.3501-3.274-40.6817-9.127l-.209-.227c-.3317-.36-.5712-.795-.6979-1.268-.6554-2.446 1.8011-4.569 4.1264-3.566l16.1851 6.982c.975.42 2.1039.071 2.7238-.791 5.005-6.96 18.1053-20.127 36.2273-24.983 23.853-6.391 44.305-7.41 47.93 6.12.042.154.078.309.11.466z" fill="url(#c)"/><path d="m30.694 57.6784c2.4583-3.7186 5.1711-7.2543 8.1137-10.582l4.6631 2.0115c.975.4205 2.1038.0715 2.7237-.7906 5.005-6.9601 18.1057-20.1273 36.2272-24.983 23.8533-6.3914 44.3053-7.4098 47.9303 6.1196 2.618 9.7711-14.596 22.8735-38.4491 29.2649-18.1215 4.8557-36.0506.0029-43.8651-3.5223-.9679-.4366-2.12-.1745-2.7541.6773l-10.526 14.1388c-1.5122 2.0312-4.7011 1.421-5.3566-1.0251-.1267-.473-.1369-.9696-.0297-1.4474l1.1501-5.1258c.3537-1.5766.4043-3.1811.1725-4.7359z" fill="url(#e)"/><path d="m178.098 155.688c23.853-6.391 41.067-19.494 38.449-29.265-3.625-13.529-24.078-12.511-47.931-6.119-18.121 4.855-31.222 18.022-36.227 24.983-.62.862-1.749 1.211-2.724.79l-16.185-6.981c-2.325-1.004-4.782 1.119-4.126 3.566.127.473.366.908.698 1.268l3.559 3.864c2.873 3.12 4.034 7.451 3.105 11.59l-1.15 5.125c-.107.478-.097.975.03 1.448.655 2.446 3.844 3.056 5.356 1.025l10.526-14.139c.634-.852 1.787-1.114 2.754-.677 7.815 3.525 25.744 8.378 43.866 3.522z" fill="url(#f)"/><path d="m208.425 125.253c1.078 4.023-1.309 8.159-5.333 9.237-4.023 1.078-8.159-1.31-9.237-5.333s1.31-8.159 5.333-9.237c4.024-1.078 8.159 1.31 9.237 5.333z" fill="#fff"/><path d="m206.204 125.29c.693 2.587-.842 5.245-3.428 5.938-2.587.693-5.245-.841-5.938-3.428-.693-2.586.842-5.245 3.428-5.938 2.587-.693 5.245.842 5.938 3.428z" fill="#5e1741"/><path d="m122.231 28.2838c1.078 4.0234-1.31 8.159-5.333 9.237-4.024 1.0781-8.159-1.3096-9.238-5.333-1.078-4.0234 1.31-8.159 5.333-9.237 4.024-1.0781 8.159 1.3096 9.238 5.333z" fill="#fff"/><path d="m120.01 28.3211c.693 2.5865-.842 5.2451-3.429 5.9381-2.586.6931-5.245-.8419-5.938-3.4284-.693-2.5864.842-5.245 3.429-5.9381 2.586-.693 5.245.8419 5.938 3.4284z" fill="#5e1741"/><path d="m174.865 58.7188c23.853-6.3914 41.068-19.4938 38.45-29.2649-3.626-13.5294-24.078-12.511-47.931-6.1196-18.121 4.8557-31.222 18.0229-36.227 24.983-.62.8621-1.749 1.2111-2.724.7906l-16.185-6.9816c-2.325-1.0031-4.782 1.1199-4.126 3.566.126.473.366.9082.698 1.2684l3.558 3.864c2.874 3.1199 4.034 7.4509 3.106 11.5896l-1.15 5.1258c-.107.4778-.097.9744.03 1.4474.655 2.4461 3.844 3.0563 5.356 1.0251l10.526-14.1388c.634-.8518 1.786-1.1139 2.754-.6773 7.815 3.5252 25.744 8.378 43.865 3.5223z" fill="url(#g)"/><path d="m205.193 28.2838c1.078 4.0234-1.31 8.159-5.333 9.237-4.023 1.0781-8.159-1.3096-9.237-5.333s1.309-8.159 5.333-9.237c4.023-1.0781 8.159 1.3096 9.237 5.333z" fill="#fff"/><path d="m199.544 34.2592c2.586-.693 4.121-3.3516 3.428-5.9381s-3.351-4.1214-5.938-3.4284c-2.13.5709-3.547 2.4752-3.594 4.5744.296-.1116.617-.1727.952-.1727 1.487 0 2.693 1.206 2.693 2.6936 0 .7801-.332 1.4827-.861 1.9746 1 .4719 2.167.6054 3.32.2966z" fill="#5e1741"/><path d="m89.7481 114.745c23.8529-6.391 41.0679-19.4934 38.4489-29.2646-3.625-13.5293-24.077-12.5109-47.9302-6.1195-18.1215 4.8556-31.2222 18.0229-36.2271 24.9831-.6199.862-1.7488 1.211-2.7238.79l-16.1851-6.9812c-2.3253-1.003-4.7819 1.12-4.1265 3.5662.1268.473.3663.908.698 1.268l3.5589 3.864c2.8735 3.12 4.034 7.451 3.1054 11.59l-1.1501 5.126c-.1072.477-.097.974.0298 1.447.6554 2.446 3.8443 3.056 5.3566 1.025l10.5259-14.139c.6341-.851 1.7862-1.114 2.7541-.677 7.8145 3.525 25.7436 8.378 43.8652 3.522z" fill="url(#h)"/><path d="m120.076 84.3103c1.078 4.0234-1.31 8.159-5.333 9.2371-4.024 1.0781-8.159-1.3096-9.237-5.333s1.309-8.159 5.333-9.2371c4.023-1.0781 8.159 1.3096 9.237 5.333z" fill="#fff"/><path d="m117.855 84.3476c.693 2.5865-.842 5.2451-3.428 5.9381-2.587.693-5.246-.8419-5.939-3.4284s.842-5.245 3.429-5.9381c2.586-.693 5.245.8419 5.938 3.4284z" fill="#5e1741"/><path d="m130.691 142.759c23.853-6.392 41.067-19.494 38.449-29.265-3.625-13.5297-24.078-12.511-47.931-6.12-18.121 4.856-31.2219 18.023-36.2269 24.983-.6199.862-1.7488 1.211-2.7238.791l-16.1851-6.982c-2.3253-1.003-4.7818 1.12-4.1264 3.566.1267.473.3662.908.6979 1.268l3.5589 3.864c2.8736 3.12 4.034 7.451 3.1054 11.59l-1.15 5.126c-.1072.478-.097.974.0297 1.447.6554 2.446 3.8444 3.057 5.3566 1.025l10.526-14.138c.634-.852 1.7862-1.114 2.7541-.678 7.8145 3.525 25.7436 8.378 43.8656 3.523z" fill="url(#j)"/><path d="m161.018 112.324c1.078 4.023-1.309 8.159-5.333 9.237-4.023 1.078-8.159-1.31-9.237-5.333-1.078-4.024 1.31-8.159 5.333-9.237 4.024-1.079 8.159 1.309 9.237 5.333z" fill="#fff"/><path d="m158.797 112.361c.693 2.586-.842 5.245-3.428 5.938-2.587.693-5.245-.842-5.938-3.428-.693-2.587.842-5.245 3.428-5.938 2.587-.694 5.245.841 5.938 3.428z" fill="#5e1741"/><path d="m71.4317 185.856c23.8531-6.391 41.0673-19.494 38.4493-29.265-3.625-13.529-24.0775-12.511-47.9306-6.12-18.1215 4.856-31.2222 18.023-36.2271 24.983-.62.863-1.7488 1.212-2.7238.791l-16.18515-6.982c-2.32526-1.003-4.78185 1.12-4.12642 3.566.12673.473.36622.909.69795 1.269l3.55888 3.864c2.87356 3.12 4.03404 7.451 3.10544 11.589l-1.15007 5.126c-.1072.478-.097.975.02974 1.448.65542 2.446 3.84433 3.056 5.35663 1.025l10.5259-14.139c.6341-.852 1.7862-1.114 2.7541-.677 7.8145 3.525 25.7436 8.378 43.8652 3.522z" fill="url(#k)"/><path d="m101.759 155.421c1.078 4.023-1.309 8.159-5.3327 9.237-4.0234 1.078-8.1589-1.31-9.237-5.333s1.3096-8.159 5.333-9.237 8.1587 1.31 9.2367 5.333z" fill="#fff"/><path d="m99.5385 155.458c.6935 2.587-.8419 5.245-3.4284 5.938-2.5864.693-5.245-.842-5.9381-3.428-.693-2.587.8419-5.245 3.4284-5.938s5.2451.842 5.9381 3.428z" fill="#5e1741"/><path d="m167.483 176.97c1.078 4.023-1.31 8.159-5.333 9.237-4.024 1.078-8.159-1.31-9.237-5.333-1.078-4.024 1.309-8.159 5.333-9.237 4.023-1.079 8.159 1.309 9.237 5.333z" fill="#fff"/><path d="m165.262 177.007c.693 2.586-.842 5.245-3.428 5.938-2.587.693-5.246-.842-5.939-3.428-.693-2.587.842-5.245 3.429-5.938 2.586-.694 5.245.841 5.938 3.428z" fill="#5e1741"/><path d="m76.9784 70.3037c1.078 4.0234-1.3096 8.159-5.3331 9.237-4.0234 1.0781-8.159-1.3096-9.237-5.333-1.0781-4.0234 1.3096-8.159 5.333-9.237 4.0234-1.0781 8.159 1.3096 9.2371 5.333z" fill="#fff"/><g fill="#5e1741"><path d="m74.7575 70.341c.693 2.5865-.8419 5.2451-3.4284 5.9381-2.5865.6931-5.245-.8419-5.9381-3.4284-.693-2.5864.8419-5.245 3.4284-5.9381 2.5865-.693 5.2451.8419 5.9381 3.4284z"/><path d="m35.4586 102.608-10.3278-4.455c-2.3253-1.003-4.7819 1.12-4.1265 3.566.0407.152.093.3.1563.443 4.4284.581 9.2713.816 14.298.446z"/><path d="m84.0436 78.3878c-1.2479.3083-2.5075.6332-3.7768.9733-15.2636 4.0898-26.9651 14.0764-33.2671 21.2839 18.3735-4.9872 32.748-13.9487 37.0439-22.2572z"/></g><path d="m38.4847 65.0064c-.4372.1141-.8756.2301-1.3152.3478-2.7415.7346-5.368 1.6594-7.869 2.7241-.0126.3054.021.612.1006.9092.6555 2.4461 3.8444 3.0564 5.3566 1.0251z" fill="#1c2554"/><path d="m78.9148 146.84c-3.2356.478-6.6263 1.132-10.1252 1.93l-.6304 2.81c-.1072.478-.097.974.0297 1.447.6555 2.447 3.8444 3.057 5.3566 1.025z" fill="#526ae0"/><path d="m124.857 144.003-11.377-4.907c-2.325-1.003-4.782 1.12-4.126 3.566.127.473.366.908.698 1.268l.709.77c4.476.245 9.24.085 14.096-.697z" fill="#1f6bad"/><path d="m168.058 120.457c-14.809 4.13-26.205 13.774-32.48 20.871 16.142-5.139 28.517-13.274 32.48-20.871z" fill="#1f6bad"/><path d="m119.827 46.2589-9.579-4.132c-2.325-1.003-4.782 1.12-4.127 3.566.127.473.367.9082.698 1.2684l4.205 4.565c3.281-1.6595 6.238-3.4332 8.803-5.2674z" fill="#a13012"/></g></svg>