<svg width="220" height="220" viewBox="0 0 220 220" fill="none" xmlns="http://www.w3.org/2000/svg">
<circle cx="110" cy="110" r="95" fill="#544A3B"/>
<path d="M74.0215 49.6709C73.0116 50.4784 71.8278 51.0362 70.611 51.4524V51.4607C65.0648 53.3421 56.6379 50.1204 59.8663 42.8862C60.7272 40.9632 62.7718 40.0558 64.3943 38.907C67.0681 37.0089 69.1789 34.5281 72.3162 33.3294C74.2367 32.5968 76.3062 32.347 78.3508 32.1056C89.6584 30.7653 103.863 28.6175 114.393 32.9714C118.282 34.5858 190.68 69.7818 213.255 86.792L216.736 111.321C202.755 103.845 148.274 64.4724 132.472 63.4401C131.263 63.3652 129.98 63.2819 128.995 62.5743C128.369 62.1228 127.93 61.4681 127.497 60.8223L127.455 60.7595C123.548 54.9238 118.912 49.5876 113.697 44.9091C108.664 40.3888 102.729 36.3513 96.0075 35.7602C89.377 35.1691 82.5394 38.2826 78.6074 43.6854C77.1174 45.725 75.9916 48.0975 74.0215 49.6709Z" fill="#5D7E1B"/>
<path d="M148.865 70.0671C149.756 71.0043 150.853 71.7176 152.002 72.2952L152.001 72.3034C157.24 74.9204 166.027 72.8726 163.81 65.267C163.218 63.2449 161.316 62.0684 159.864 60.7099C157.473 58.4664 155.719 55.722 152.773 54.1084C150.97 53.1219 148.954 52.5935 146.961 52.0767C135.94 49.2136 122.158 45.1572 111.135 48.0412C107.109 49.1004 32.2911 73.5855 6.74527 87.4654L6.74527 108.525C28.3465 98.7545 75.2984 74.7932 89.0868 75.7733C90.2943 75.8631 91.5768 75.9548 92.6488 75.3875C93.3297 75.0251 93.8536 74.4361 94.3704 73.8551L94.4207 73.7986C99.0839 68.5474 104.401 63.89 110.203 59.9628C115.803 56.1676 122.232 52.9733 128.971 53.3003C135.621 53.6149 141.972 57.6278 145.134 63.5144C146.334 65.7374 147.127 68.2408 148.865 70.0671Z" fill="#FA5F2E"/>
<path d="M155.947 73.354C160.663 73.7042 165.524 71.1461 163.81 65.267C163.351 63.6976 162.102 62.6375 160.887 61.6064C160.537 61.309 160.189 61.014 159.865 60.7099C159.076 59.9698 158.356 59.1752 157.64 58.3847C156.186 56.7788 154.747 55.1897 152.773 54.1084C150.97 53.1219 148.954 52.5935 146.961 52.0767C146.189 51.8762 145.404 51.6699 144.607 51.4606C135.692 49.1182 125.321 46.3929 116.145 47.1945C118.364 49.3502 120.465 51.6292 122.436 54.0177C124.568 53.4665 126.753 53.1926 128.971 53.3003C135.621 53.6149 141.972 57.6278 145.134 63.5144C145.492 64.1783 145.814 64.8672 146.136 65.5555C146.722 66.81 147.308 68.0627 148.11 69.1596C150.588 70.4097 153.217 71.8221 155.947 73.354Z" fill="#E60023"/>
<path d="M75.4825 68.7736C80.9544 68.7736 86.0244 71.6466 88.8362 76.3407L95.5656 87.5751C98.605 92.6491 104.085 95.7547 110 95.7547C115.915 95.7547 121.395 92.6491 124.434 87.5751L131.164 76.3407C133.976 71.6466 139.046 68.7736 144.517 68.7736H192.336C197.072 68.7736 201.55 70.9295 204.504 74.6313L216.602 89.7939C218.802 92.5514 220 95.9745 220 99.5022V131.441C220 134.969 218.802 138.392 216.602 141.149L204.504 156.312C201.55 160.014 197.072 162.17 192.336 162.17H145.875C139.692 162.17 134.095 158.51 131.615 152.846L117.363 120.286C116.082 117.361 113.193 115.472 110 115.472C106.807 115.472 103.918 117.361 102.637 120.286L88.3849 152.846C85.9054 158.51 80.3084 162.17 74.1252 162.17H27.6639C22.9281 162.17 18.4499 160.014 15.4963 156.312L3.39842 141.149C1.19826 138.392 0 134.969 0 131.441V99.5022C0 95.9745 1.19826 92.5514 3.39842 89.7939L15.4963 74.6313C18.4499 70.9295 22.9281 68.7736 27.6639 68.7736H75.4825Z" fill="url(#paint0_linear_2579_234704)"/>
<path d="M184.12 68.7736H147.339C147.595 68.9005 147.852 69.0293 148.111 69.1598C148.342 69.4765 148.592 69.7802 148.865 70.0672C149.756 71.0043 150.853 71.7176 152.002 72.2952L152.001 72.3034C153.191 72.8975 154.563 73.2511 155.947 73.354C168.639 80.4747 183.532 90.1753 195.765 98.143C204.931 104.113 212.603 109.111 216.736 111.321L213.255 86.792C206.743 81.885 196.084 75.4646 184.12 68.7736Z" fill="#13434E"/>
<path d="M88.4616 75.7462C85.5882 71.4052 80.7194 68.7736 75.4825 68.7736H51.0051C34.1249 75.061 17.6973 81.6791 7.78303 86.9101L7.78302 108.054C11.7521 106.244 16.4894 104.007 21.6686 101.562C44.8116 90.6344 76.7785 75.5405 88.4616 75.7462Z" fill="#13434E"/>
<path fill-rule="evenodd" clip-rule="evenodd" d="M88.8362 76.3407C86.0244 71.6466 80.9544 68.7736 75.4825 68.7736H27.6639C22.9281 68.7736 18.4499 70.9295 15.4963 74.6313L3.39842 89.7939C1.19826 92.5514 0 95.9745 0 99.5022V131.441C0 134.969 1.19826 138.392 3.39842 141.149L15.4963 156.312C18.4499 160.014 22.9281 162.17 27.6639 162.17H74.1252C80.3084 162.17 85.9054 158.51 88.3849 152.846L102.637 120.286C103.918 117.361 106.807 115.472 110 115.472C113.193 115.472 116.082 117.361 117.363 120.286L131.615 152.846C134.095 158.51 139.692 162.17 145.875 162.17H192.336C197.072 162.17 201.55 160.014 204.504 156.312L216.602 141.149C218.802 138.392 220 134.969 220 131.441V99.5022C220 95.9745 218.802 92.5514 216.602 89.7939L204.504 74.6313C201.55 70.9295 197.072 68.7736 192.336 68.7736H144.517C139.046 68.7736 133.976 71.6466 131.164 76.3407L124.434 87.5751C121.395 92.6491 115.915 95.7547 110 95.7547C104.085 95.7547 98.605 92.6491 95.5656 87.5751L88.8362 76.3407ZM70.5266 78.1132C74.1573 78.1132 77.524 80.0107 79.4042 83.1167L89.8709 100.408C93.3808 106.206 93.8382 113.353 91.0963 119.552L79.1088 146.651C77.4471 150.407 73.7261 152.83 69.6185 152.83H30.6091C27.4706 152.83 24.5006 151.41 22.5306 148.966L11.6385 135.458C10.1509 133.613 9.33962 131.314 9.33962 128.944V101.999C9.33962 99.6294 10.1509 97.3308 11.6385 95.4858L22.5306 81.9769C24.5006 79.5336 27.4706 78.1132 30.6091 78.1132H70.5266ZM149.473 78.1132C145.843 78.1132 142.476 80.0107 140.596 83.1167L130.129 100.408C126.619 106.206 126.162 113.353 128.904 119.552L140.891 146.651C142.553 150.407 146.274 152.83 150.381 152.83H189.391C192.529 152.83 195.499 151.41 197.469 148.966L208.361 135.458C209.849 133.613 210.66 131.314 210.66 128.944V101.999C210.66 99.6294 209.849 97.3308 208.361 95.4858L197.469 81.9769C195.499 79.5336 192.529 78.1132 189.391 78.1132H149.473Z" fill="url(#paint1_linear_2579_234704)"/>
<path d="M116.828 147.776L117.206 148.967C117.603 150.221 117.802 151.526 117.802 152.83H167.575C167.575 151.526 167.774 150.221 168.172 148.967L168.55 147.775C170.759 140.809 166.666 133.385 159.8 131.905L158.625 131.652C156.153 131.119 153.912 129.764 152.235 127.789L151.439 126.851C146.782 121.364 138.595 121.364 133.939 126.851L133.142 127.789C131.465 129.764 129.224 131.119 126.752 131.652L125.578 131.905C118.712 133.385 114.619 140.809 116.828 147.776Z" fill="url(#paint2_linear_2579_234704)"/>
<path d="M214.821 133.556L213.64 132.463C211.154 130.162 209.448 127.085 208.778 123.692L208.459 122.081C206.596 112.657 197.253 107.039 188.485 110.071L186.985 110.589C183.828 111.681 180.417 111.681 177.26 110.589L175.761 110.071C166.993 107.039 157.649 112.657 155.786 122.081L155.468 123.692C154.797 127.085 153.092 130.162 150.605 132.463L149.424 133.556C145.972 136.752 144.245 141.159 144.245 145.566H220C220 141.159 218.274 136.752 214.821 133.556Z" fill="white"/>
<path d="M81.0497 163.151L80.4645 164.877C79.8485 166.693 79.5405 168.582 79.5405 170.472H2.44063C2.44064 168.582 2.13265 166.693 1.51665 164.877L0.931405 163.151C-2.49046 153.062 3.85001 142.31 14.4856 140.167L16.3046 139.8C20.1337 139.028 23.6055 137.066 26.2027 134.205L27.4364 132.846C34.6501 124.9 47.331 124.9 54.5447 132.846L55.7785 134.205C58.3756 137.066 61.8475 139.028 65.6766 139.8L67.4956 140.167C78.1311 142.31 84.4716 153.062 81.0497 163.151Z" fill="url(#paint3_linear_2579_234704)"/>
<path d="M106.311 166.044L105.469 165.263C103.699 163.619 102.484 161.422 102.006 158.999L101.779 157.847C100.452 151.116 93.7963 147.103 87.5506 149.269L86.4824 149.639C84.2337 150.419 81.804 150.419 79.5553 149.639L78.4871 149.269C72.2414 147.103 65.5855 151.116 64.2586 157.847L64.0317 158.999C63.554 161.422 62.3392 163.619 60.5682 165.263L59.7269 166.044C57.2674 168.327 56.0377 171.475 56.0377 174.623H110C110 171.475 108.77 168.327 106.311 166.044Z" fill="white"/>
<defs>
<linearGradient id="paint0_linear_2579_234704" x1="110" y1="83.3019" x2="110" y2="138.302" gradientUnits="userSpaceOnUse">
<stop stop-color="#A13012"/>
<stop offset="1" stop-color="#4E490E"/>
</linearGradient>
<linearGradient id="paint1_linear_2579_234704" x1="110" y1="68.7736" x2="110" y2="162.17" gradientUnits="userSpaceOnUse">
<stop stop-color="#E68800"/>
<stop offset="1" stop-color="#9FC157"/>
</linearGradient>
<linearGradient id="paint2_linear_2579_234704" x1="124.402" y1="126.84" x2="161.947" y2="141.756" gradientUnits="userSpaceOnUse">
<stop stop-color="white"/>
<stop offset="1" stop-color="#C4E0F8"/>
</linearGradient>
<linearGradient id="paint3_linear_2579_234704" x1="24.3868" y1="134.989" x2="70.566" y2="161.651" gradientUnits="userSpaceOnUse">
<stop stop-color="white"/>
<stop offset="1" stop-color="#C4E0F8"/>
</linearGradient>
</defs>
</svg>
