<svg width="375" height="250" viewBox="0 0 375 250" fill="none" xmlns="http://www.w3.org/2000/svg">
<g clip-path="url(#clip0_2583_240100)">
<rect width="375" height="250" fill="#FEDDED"/>
<path d="M69.1541 47.1096C67.4602 48.464 65.4748 49.3995 63.4338 50.0977V50.1116C54.1313 53.2673 39.9972 47.8636 45.412 35.7298C46.856 32.5044 50.2854 30.9824 53.0067 29.0556C57.4913 25.872 61.0318 21.7111 66.294 19.7004C69.5151 18.4717 72.9862 18.0528 76.4156 17.6478C95.3815 15.3998 119.207 11.7974 136.868 19.1C143.391 21.8078 264.823 80.841 302.686 109.372L308.526 150.513C285.075 137.974 193.696 71.9357 167.191 70.2043C165.164 70.0786 163.012 69.939 161.359 68.7521C160.311 67.9948 159.574 66.8968 158.848 65.8135L158.777 65.7082C152.224 55.9202 144.448 46.97 135.701 39.1228C127.26 31.541 117.305 24.7689 106.031 23.7776C94.9094 22.7862 83.441 28.0083 76.846 37.0703C74.3468 40.4912 72.4586 44.4706 69.1541 47.1096Z" fill="#EF7BB5"/>
<path d="M194.687 81.3196C196.182 82.8915 198.022 84.0879 199.949 85.0567L199.947 85.0705C208.735 89.4599 223.472 86.0252 219.755 73.2686C218.762 69.877 215.571 67.9035 213.136 65.625C209.126 61.8621 206.183 57.259 201.242 54.5525C198.218 52.8978 194.836 52.0116 191.493 51.1448C173.008 46.3427 149.892 39.5389 131.404 44.3762C124.65 46.1527 -0.838913 87.221 -43.6863 110.501L-43.6863 145.825C-7.45517 129.436 71.296 89.2466 94.4229 90.8904C96.4483 91.0411 98.5993 91.1949 100.397 90.2434C101.539 89.6355 102.418 88.6476 103.285 87.673L103.369 87.5783C111.191 78.7706 120.109 70.9589 129.841 64.3719C139.233 58.0063 150.016 52.6486 161.32 53.197C172.473 53.7247 183.126 60.4555 188.43 70.329C190.441 74.0575 191.772 78.2565 194.687 81.3196Z" fill="#FA5F2E"/>
<path d="M206.566 86.8327C214.475 87.4201 222.628 83.1293 219.755 73.2686C218.984 70.6362 216.89 68.8581 214.852 67.1286C214.264 66.6298 213.682 66.1351 213.137 65.625C211.813 64.3837 210.607 63.0509 209.406 61.725C206.967 59.0315 204.553 56.3662 201.242 54.5525C198.218 52.8978 194.836 52.0116 191.493 51.1448C190.199 50.8086 188.882 50.4625 187.546 50.1114C172.593 46.1825 155.197 41.6116 139.807 42.956C143.528 46.5718 147.053 50.3942 150.358 54.4004C153.935 53.4759 157.599 53.0165 161.32 53.197C172.473 53.7247 183.126 60.4555 188.43 70.329C189.031 71.4424 189.571 72.5979 190.11 73.7525C191.094 75.8565 192.076 77.9577 193.422 79.7974C197.578 81.8942 201.987 84.2633 206.566 86.8327Z" fill="#E60023"/>
<path d="M71.6048 79.15C80.7826 79.15 89.2863 83.9688 94.0025 91.8421L105.29 110.685C110.387 119.196 119.579 124.405 129.5 124.405C139.421 124.405 148.613 119.196 153.71 110.685L164.998 91.8421C169.714 83.9688 178.217 79.15 187.395 79.15H267.6C275.543 79.15 283.054 82.766 288.009 88.975L308.3 114.407C311.99 119.032 314 124.773 314 130.69V184.261C314 190.178 311.99 195.919 308.3 200.544L288.009 225.976C283.054 232.185 275.543 235.801 267.6 235.801H189.672C179.301 235.801 169.913 229.663 165.754 220.162L141.849 165.55C139.702 160.645 134.855 157.475 129.5 157.475C124.145 157.475 119.298 160.645 117.151 165.55L93.2455 220.162C89.0868 229.663 79.6991 235.801 69.3281 235.801H-8.6001C-16.5433 235.801 -24.0545 232.185 -29.0085 225.976L-49.2999 200.544C-52.9902 195.919 -55 190.178 -55 184.261V130.69C-55 124.773 -52.9902 119.032 -49.2999 114.407L-29.0085 88.975C-24.0545 82.766 -16.5433 79.15 -8.60009 79.15H71.6048Z" fill="#8F2459"/>
<path d="M284.41 173.141H148.646V159.006C148.646 157.105 149.991 155.47 151.855 155.103C153.472 154.785 154.726 153.502 155.006 151.878L157.349 138.329H166.117C168.272 138.329 170.305 137.332 171.623 135.627L179.562 125.366C180.881 123.662 182.914 122.664 185.069 122.664H203.651C206.093 122.664 208.356 123.943 209.616 126.036L214.987 134.958C216.246 137.05 218.51 138.329 220.952 138.329H236.029C238.018 138.329 239.912 139.18 241.233 140.666L251.003 151.658C252.324 153.144 254.218 153.994 256.207 153.994H266.941C269.168 153.994 271.261 155.06 272.571 156.862L284.41 173.141Z" fill="#5E1741"/>
<path d="M-8.00464 173.141H110.354L119.057 133.108H110.289C108.134 133.108 106.101 132.11 104.782 130.406L96.8437 120.144C95.5251 118.44 93.4918 117.442 91.337 117.442H71.1224C68.6224 117.442 66.3143 118.783 65.0753 120.954L56.1715 136.558C54.9325 138.729 52.6244 140.07 50.1244 140.07H34.2298C31.7842 140.07 29.5179 141.353 28.2597 143.45L21.8725 154.095C20.6143 156.192 18.348 157.475 15.9025 157.475H4.79481C2.26635 157.475 -0.0633721 158.846 -1.2913 161.057L-8.00464 173.141Z" fill="#5E1741"/>
<path d="M253.82 79.15H192.128C192.557 79.3629 192.988 79.5789 193.422 79.7978C193.811 80.329 194.23 80.8384 194.688 81.3197C196.182 82.8915 198.022 84.0879 199.949 85.0567L199.948 85.0705C201.942 86.0669 204.244 86.6601 206.566 86.8327C227.853 98.7759 252.833 115.046 273.351 128.411C288.725 138.425 301.593 146.807 308.526 150.513L302.686 109.372C291.764 101.141 273.887 90.3727 253.82 79.15Z" fill="#186250"/>
<path d="M93.3742 90.845C88.5548 83.5639 80.3885 79.15 71.6048 79.15H30.5495C2.23674 89.6957 -25.3168 100.796 -41.9458 109.57L-41.9458 145.034C-35.2885 141.998 -27.3428 138.247 -18.6559 134.145C20.1612 115.817 73.7784 90.5 93.3742 90.845Z" fill="#186250"/>
<path d="M-8.6001 235.801H69.3281C79.6991 235.801 89.0868 229.663 93.2455 220.162L113.828 173.141H-55V184.261C-55 190.178 -52.9902 195.919 -49.2999 200.544L-29.0085 225.976C-24.0545 232.185 -16.5433 235.801 -8.6001 235.801Z" fill="url(#paint0_linear_2583_240100)"/>
<path d="M145.172 173.141L165.754 220.162C169.913 229.663 179.301 235.801 189.672 235.801H267.6C275.543 235.801 283.054 232.185 288.009 225.976L308.3 200.544C311.99 195.919 314 190.178 314 184.261V173.141H145.172Z" fill="url(#paint1_linear_2583_240100)"/>
<path d="M280.929 127.016C280.929 133.264 275.864 138.329 269.616 138.329C263.367 138.329 258.302 133.264 258.302 127.016C258.302 120.767 263.367 115.702 269.616 115.702C275.864 115.702 280.929 120.767 280.929 127.016Z" fill="#F7C545"/>
<path fill-rule="evenodd" clip-rule="evenodd" d="M94.0025 91.8421C89.2863 83.9688 80.7826 79.15 71.6048 79.15H-8.60009C-16.5433 79.15 -24.0545 82.766 -29.0085 88.975L-49.2999 114.407C-52.9902 119.032 -55 124.773 -55 130.69V184.261C-55 190.178 -52.9902 195.919 -49.2999 200.544L-29.0085 225.976C-24.0545 232.185 -16.5433 235.801 -8.6001 235.801H69.3281C79.6991 235.801 89.0868 229.663 93.2455 220.162L117.151 165.55C119.298 160.645 124.145 157.475 129.5 157.475C134.855 157.475 139.702 160.645 141.849 165.55L165.754 220.162C169.913 229.663 179.301 235.801 189.672 235.801H267.6C275.543 235.801 283.054 232.185 288.009 225.976L308.3 200.544C311.99 195.919 314 190.178 314 184.261V130.69C314 124.773 311.99 119.032 308.3 114.407L288.009 88.975C283.054 82.766 275.543 79.15 267.6 79.15H187.395C178.217 79.15 169.714 83.9688 164.998 91.8421L153.71 110.685C148.613 119.196 139.421 124.405 129.5 124.405C119.579 124.405 110.387 119.196 105.29 110.685L94.0025 91.8421ZM63.2923 94.8151C69.382 94.8151 75.0289 97.9977 78.1824 103.207L95.738 132.209C101.625 141.935 102.392 153.922 97.7934 164.319L77.6871 209.771C74.9 216.072 68.6588 220.136 61.7693 220.136H-3.66014C-8.92434 220.136 -13.9057 217.753 -17.21 213.655L-35.4791 190.997C-37.9742 187.903 -39.3349 184.047 -39.3349 180.072V134.879C-39.3349 130.904 -37.9742 127.048 -35.4791 123.954L-17.21 101.296C-13.9057 97.1975 -8.92434 94.8151 -3.66014 94.8151H63.2923ZM195.708 94.8151C189.618 94.8151 183.971 97.9977 180.818 103.207L163.262 132.209C157.375 141.935 156.608 153.922 161.207 164.319L181.313 209.771C184.1 216.072 190.341 220.136 197.231 220.136H262.66C267.924 220.136 272.906 217.753 276.21 213.655L294.479 190.997C296.974 187.903 298.335 184.047 298.335 180.072V134.879C298.335 130.904 296.974 127.048 294.479 123.954L276.21 101.296C272.906 97.1975 267.924 94.8151 262.66 94.8151H195.708Z" fill="url(#paint2_linear_2583_240100)"/>
<path d="M78.1824 103.207C75.0289 97.9977 69.382 94.8151 63.2923 94.8151H-3.66019C-8.9244 94.8151 -13.9058 97.1975 -17.21 101.296L-35.4791 123.954C-37.9743 127.048 -39.335 130.904 -39.335 134.879V180.072C-39.335 184.047 -37.9743 187.903 -35.4791 190.997L-17.21 213.655C-13.9058 217.753 -8.9244 220.136 -3.6602 220.136H61.7692C68.6588 220.136 74.8999 216.072 77.687 209.771L97.7933 164.319C102.392 153.922 101.625 141.935 95.7379 132.209L78.1824 103.207Z" fill="url(#paint3_linear_2583_240100)"/>
<path d="M180.818 103.207C183.971 97.9977 189.618 94.8151 195.708 94.8151H262.66C267.924 94.8151 272.906 97.1975 276.21 101.296L294.479 123.954C296.974 127.048 298.335 130.904 298.335 134.879V180.072C298.335 184.047 296.974 187.903 294.479 190.997L276.21 213.655C272.906 217.753 267.924 220.136 262.66 220.136H197.231C190.341 220.136 184.1 216.072 181.313 209.771L161.207 164.319C156.608 153.922 157.375 141.935 163.262 132.209L180.818 103.207Z" fill="url(#paint4_linear_2583_240100)"/>
</g>
<defs>
<linearGradient id="paint0_linear_2583_240100" x1="129.5" y1="218.395" x2="129.5" y2="173.141" gradientUnits="userSpaceOnUse">
<stop stop-color="white"/>
<stop offset="1" stop-color="#FDEBD8"/>
</linearGradient>
<linearGradient id="paint1_linear_2583_240100" x1="129.5" y1="218.395" x2="129.5" y2="173.141" gradientUnits="userSpaceOnUse">
<stop stop-color="white"/>
<stop offset="1" stop-color="#FDEBD8"/>
</linearGradient>
<linearGradient id="paint2_linear_2583_240100" x1="129.5" y1="79.15" x2="129.5" y2="235.801" gradientUnits="userSpaceOnUse">
<stop stop-color="#FDA64F"/>
<stop offset="1" stop-color="#E60023"/>
</linearGradient>
<linearGradient id="paint3_linear_2583_240100" x1="129.5" y1="94.8151" x2="129.5" y2="220.136" gradientUnits="userSpaceOnUse">
<stop stop-color="#E60023" stop-opacity="0"/>
<stop offset="1" stop-color="white" stop-opacity="0.5"/>
</linearGradient>
<linearGradient id="paint4_linear_2583_240100" x1="129.5" y1="94.8151" x2="129.5" y2="220.136" gradientUnits="userSpaceOnUse">
<stop stop-color="#E60023" stop-opacity="0"/>
<stop offset="1" stop-color="white" stop-opacity="0.5"/>
</linearGradient>
<clipPath id="clip0_2583_240100">
<rect width="375" height="250" fill="white"/>
</clipPath>
</defs>
</svg>
