<svg width="375" height="250" viewBox="0 0 375 250" fill="none" xmlns="http://www.w3.org/2000/svg">
<rect width="375" height="250" fill="#1A5866"/>
<path fill-rule="evenodd" clip-rule="evenodd" d="M175.241 25.107L127.582 20.4799L128.403 12.0197L176.062 16.6468C182.317 17.254 186.813 22.9384 185.964 29.1648C185.343 33.7174 181.976 37.4137 177.5 38.4545L163.958 41.6038C163.118 41.7991 162.524 42.5477 162.524 43.4102C162.524 44.3267 163.193 45.1058 164.1 45.2437L171.132 46.3138C180.235 47.6991 186.961 55.5262 186.961 64.7342V179.344H178.461V64.7342C178.461 59.7269 174.804 55.4704 169.853 54.7171L162.821 53.6469C157.762 52.8771 154.024 48.5273 154.024 43.4102C154.024 38.595 157.343 34.4154 162.033 33.3247L175.575 30.1754C176.615 29.9335 177.398 29.0745 177.542 28.0164C177.739 26.5693 176.694 25.2481 175.241 25.107Z" fill="#1BA1BB"/>
<path d="M159.867 241.5C171.603 241.5 181.117 231.986 181.117 220.25V196.633C138.326 193.378 104.618 157.625 104.618 114L104.618 63L270.368 63V114C270.368 157.626 236.659 193.379 193.867 196.633V220.25C193.867 231.986 203.381 241.5 215.117 241.5H229.992C233.513 241.5 236.367 244.354 236.367 247.875V250H138.617V247.875C138.617 244.354 141.471 241.5 144.992 241.5H159.867Z" fill="url(#paint0_linear_2583_241173)"/>
<path d="M104.618 114C104.618 159.771 141.722 196.875 187.493 196.875C233.263 196.875 270.368 159.771 270.368 114V91.6875H104.618V114Z" fill="url(#paint1_linear_2583_241173)"/>
<path d="M138.618 250H236.368V247.875C236.368 244.354 233.513 241.5 229.993 241.5H144.993C141.472 241.5 138.618 244.354 138.618 247.875V250Z" fill="white" fill-opacity="0.3"/>
<path fill-rule="evenodd" clip-rule="evenodd" d="M108.907 34.3125C108.183 34.3125 107.548 34.7925 107.35 35.4881L89.5807 98.0334L81.4043 95.7104L99.174 33.1651C100.41 28.8144 104.384 25.8125 108.907 25.8125C113.508 25.8125 117.531 28.9181 118.695 33.3702L155.479 174.018L147.256 176.169L110.472 35.5209C110.285 34.809 109.642 34.3125 108.907 34.3125Z" fill="#E60023"/>
<path d="M126.445 63L155.48 174.018L147.256 176.169L117.659 63L126.445 63Z" fill="#FD865E"/>
<path fill-rule="evenodd" clip-rule="evenodd" d="M240.341 39.625C241.757 39.625 243.135 40.087 244.265 40.941L284.274 71.1721L289.398 64.3904L249.39 34.1593C246.784 32.1903 243.607 31.125 240.341 31.125C235.636 31.125 231.203 33.3313 228.366 37.0851L133.633 162.438L140.414 167.562L235.147 42.2099C236.378 40.5819 238.3 39.625 240.341 39.625Z" fill="#2AA788"/>
<path d="M219.436 63L208.781 63L133.633 162.438L140.415 167.562L219.436 63Z" fill="#5CD6B7"/>
<path d="M197.758 91.6875H187.103L133.635 162.438L140.417 167.562L197.758 91.6875Z" fill="#2AA788"/>
<path fill-rule="evenodd" clip-rule="evenodd" d="M252.379 49.1624L302.631 22.6659L298.667 15.147L248.415 41.6436C242.151 44.9465 237.542 50.7058 235.693 57.5418L203.047 178.234L211.252 180.454L243.898 59.7612C245.131 55.2039 248.203 51.3644 252.379 49.1624Z" fill="#9270D7"/>
<path d="M243.022 63L234.216 63L203.046 178.234L211.252 180.453L243.022 63Z" fill="#B497ED"/>
<path d="M235.262 91.6875H226.457L203.046 178.234L211.252 180.453L235.262 91.6875Z" fill="#DD73DD"/>
<path d="M246.584 42.6934L254.009 48.3032L262.313 43.9245L254.823 38.2647L248.279 41.7153C247.7 42.0207 247.134 42.347 246.584 42.6934Z" fill="#2A3FA7"/>
<path d="M186.881 63C186.934 63.5717 186.961 64.1503 186.961 64.7344V179.344H178.461V64.7344C178.461 64.1443 178.411 63.5647 178.313 63L186.881 63Z" fill="#45C5DE"/>
<path d="M186.961 91.6875V179.344H178.461V91.6875H186.961Z" fill="#187486"/>
<path d="M206.618 110.281C206.618 112.922 204.477 115.062 201.836 115.062C199.196 115.062 197.055 112.922 197.055 110.281C197.055 107.641 199.196 105.5 201.836 105.5C204.477 105.5 206.618 107.641 206.618 110.281Z" fill="#FDE2FD"/>
<path d="M246.993 114.531C246.993 114.584 246.992 114.638 246.99 114.69C247.613 114.586 248.253 114.531 248.905 114.531C255.243 114.531 260.38 119.669 260.38 126.006C260.38 132.344 255.243 137.481 248.905 137.481C242.568 137.481 237.43 132.344 237.43 126.006C237.43 123.263 238.393 120.745 239.998 118.771C238.472 117.972 237.43 116.373 237.43 114.531C237.43 111.891 239.571 109.75 242.211 109.75C244.852 109.75 246.993 111.891 246.993 114.531Z" fill="#FDE2FD"/>
<path d="M201.305 143.314C205.002 143.314 207.999 140.317 207.999 136.62C207.999 136.488 207.995 136.357 207.987 136.227C209.682 135.492 210.867 133.804 210.867 131.839C210.867 129.198 208.727 127.057 206.086 127.057C204.121 127.057 202.433 128.243 201.698 129.938C201.568 129.93 201.437 129.926 201.305 129.926C197.608 129.926 194.611 132.923 194.611 136.62C194.611 140.317 197.608 143.314 201.305 143.314Z" fill="#FDE2FD"/>
<path d="M170.493 150.125C170.493 152.472 168.59 154.375 166.243 154.375C163.895 154.375 161.993 152.472 161.993 150.125C161.993 147.778 163.895 145.875 166.243 145.875C168.59 145.875 170.493 147.778 170.493 150.125Z" fill="#FDE2FD"/>
<path d="M228.93 163.938C230.691 163.938 232.118 162.51 232.118 160.75C232.118 158.99 230.691 157.562 228.93 157.562C227.17 157.562 225.743 158.99 225.743 160.75C225.743 162.51 227.17 163.938 228.93 163.938Z" fill="#FDE2FD"/>
<path d="M164.118 162.875C164.118 164.635 162.691 166.062 160.93 166.062C159.17 166.062 157.743 164.635 157.743 162.875C157.743 161.115 159.17 159.688 160.93 159.688C162.691 159.688 164.118 161.115 164.118 162.875Z" fill="#FDE2FD"/>
<path d="M125.124 139.075C128.821 139.075 131.818 136.078 131.818 132.381C131.818 128.684 128.821 125.688 125.124 125.688C121.427 125.688 118.43 128.684 118.43 132.381C118.43 136.078 121.427 139.075 125.124 139.075Z" fill="#FDE2FD"/>
<path d="M237.961 152.25C240.602 152.25 242.743 150.109 242.743 147.469C242.743 144.828 240.602 142.688 237.961 142.688C235.321 142.688 233.18 144.828 233.18 147.469C233.18 150.109 235.321 152.25 237.961 152.25Z" fill="#FDE2FD"/>
<path d="M242.212 119.312C244.799 119.312 246.906 117.257 246.99 114.69C244.183 115.162 241.721 116.653 239.999 118.77C240.66 119.116 241.413 119.312 242.212 119.312Z" fill="white" fill-opacity="0.8"/>
<path d="M207.988 136.227C207.792 132.843 205.082 130.133 201.698 129.937C201.445 130.52 201.305 131.163 201.305 131.838C201.305 134.479 203.446 136.62 206.086 136.62C206.762 136.62 207.405 136.48 207.988 136.227Z" fill="white" fill-opacity="0.8"/>
<path d="M133.947 91.6875L155.479 174.018L147.256 176.169L125.161 91.6875H133.947Z" fill="#EF7BB5"/>
<path d="M150.352 154.414L147.613 143.941L141.086 152.578L143.825 163.051L150.352 154.414Z" fill="#6B246B"/>
<path d="M186.961 105.972V91.8743L178.461 103.122V117.22L186.961 105.972Z" fill="#13434E"/>
<defs>
<linearGradient id="paint0_linear_2583_241173" x1="187.493" y1="250" x2="187.493" y2="63" gradientUnits="userSpaceOnUse">
<stop stop-color="white" stop-opacity="0.3"/>
<stop offset="1" stop-color="white" stop-opacity="0.15"/>
</linearGradient>
<linearGradient id="paint1_linear_2583_241173" x1="187.493" y1="91.6875" x2="187.493" y2="196.875" gradientUnits="userSpaceOnUse">
<stop stop-color="#ED96ED"/>
<stop offset="1" stop-color="#FDC4E1"/>
</linearGradient>
</defs>
</svg>
