<svg width="375" height="250" viewBox="0 0 375 250" fill="none" xmlns="http://www.w3.org/2000/svg">
<rect width="375" height="250" fill="#354517"/>
<path d="M134.035 237H239.966L220.562 178.349C251.422 165.269 273.069 134.697 273.069 99.069C273.069 51.5344 234.535 13 187 13C139.466 13 100.931 51.5344 100.931 99.069C100.931 134.697 122.579 165.269 153.438 178.349L134.035 237Z" fill="url(#paint0_linear_2583_241168)"/>
<path d="M231.145 172.97C227.761 174.996 224.227 176.796 220.562 178.349L239.966 237H134.035L153.438 178.349C137.109 171.427 123.359 159.608 114.031 144.734C115.462 143.842 116.929 142.983 118.407 142.117C130.296 135.151 142.869 127.784 142.869 100.172V43.518C142.869 39.5857 147.624 37.6165 150.404 40.397L169.605 59.5977C174.945 57.3046 180.828 56.0346 187.007 56.0346C193.187 56.0346 199.07 57.3046 204.41 59.5977L223.61 40.397C226.391 37.6165 231.145 39.5857 231.145 43.518V172.97Z" fill="url(#paint1_linear_2583_241168)"/>
<path d="M226.724 49.2243C226.724 47.2581 224.347 46.2735 222.957 47.6637L211.127 59.494C210.093 60.5274 210.331 62.2616 211.605 62.978L223.435 69.6326C224.907 70.4601 226.724 69.397 226.724 67.7091V49.2243Z" fill="url(#paint2_linear_2583_241168)"/>
<path d="M148.379 49.2243C148.379 47.2581 150.757 46.2735 152.147 47.6637L163.977 59.494C165.01 60.5274 164.772 62.2616 163.499 62.978L151.668 69.6326C150.197 70.4601 148.379 69.397 148.379 67.7091V49.2243Z" fill="url(#paint3_linear_2583_241168)"/>
<path d="M195.575 107.492C196.019 105.463 194.476 103.483 192.338 103.483H181.662C179.525 103.483 177.982 105.463 178.426 107.492C181.818 108.559 184.358 110.755 185.113 113.414L185.151 113.414H188.849C188.862 113.414 188.874 113.414 188.887 113.414C189.643 110.755 192.182 108.559 195.575 107.492Z" fill="#FDC4E1"/>
<path d="M168.242 101.276C162.147 101.276 157.207 96.3356 157.207 90.2414C157.207 84.1472 162.147 79.2069 168.242 79.2069C174.336 79.2069 179.276 84.1472 179.276 90.2414C179.276 96.3356 174.336 101.276 168.242 101.276Z" fill="#79D8EC"/>
<path d="M205.759 101.276C199.665 101.276 194.724 96.3356 194.724 90.2414C194.724 84.1472 199.665 79.2069 205.759 79.2069C211.853 79.2069 216.793 84.1472 216.793 90.2414C216.793 96.3356 211.853 101.276 205.759 101.276Z" fill="#79D8EC"/>
<path d="M166.035 90.2414C166.035 93.2885 168.258 95.7586 171 95.7586C173.743 95.7586 175.966 93.2885 175.966 90.2414C175.966 87.1943 173.743 84.7241 171 84.7241C168.258 84.7241 166.035 87.1943 166.035 90.2414Z" fill="#13434E"/>
<path d="M198.035 90.2414C198.035 93.2885 200.258 95.7586 203 95.7586C205.743 95.7586 207.966 93.2885 207.966 90.2414C207.966 87.1943 205.743 84.7241 203 84.7241C200.258 84.7241 198.035 87.1943 198.035 90.2414Z" fill="#13434E"/>
<path d="M125.745 98.4176L157.881 110.103L125.745 121.789L126.876 124.9L167.567 110.103L126.876 95.3066L125.745 98.4176Z" fill="#2086DF"/>
<path d="M248.255 98.4176L216.119 110.103L248.255 121.789L247.124 124.9L206.432 110.103L247.124 95.3066L248.255 98.4176Z" fill="#2086DF"/>
<path d="M231.145 115.567V119.09L206.433 110.103L231.145 101.117V104.639L216.119 110.103L231.145 115.567Z" fill="#BDEEF6"/>
<path d="M142.754 104.603C142.814 103.48 142.851 102.319 142.864 101.12L167.568 110.103L139.791 120.204C140.255 118.956 140.674 117.633 141.042 116.227L157.881 110.103L142.754 104.603Z" fill="#BDEEF6"/>
<defs>
<linearGradient id="paint0_linear_2583_241168" x1="187" y1="-1.34483" x2="187" y2="242.479" gradientUnits="userSpaceOnUse">
<stop stop-color="#1A5866"/>
<stop offset="1" stop-color="#1BA1BB"/>
</linearGradient>
<linearGradient id="paint1_linear_2583_241168" x1="231.138" y1="45" x2="231.138" y2="225.414" gradientUnits="userSpaceOnUse">
<stop stop-color="#FDA64F"/>
<stop offset="0.1" stop-color="#FDD9B4"/>
<stop offset="0.3" stop-color="white"/>
</linearGradient>
<linearGradient id="paint2_linear_2583_241168" x1="225.069" y1="47.2066" x2="216.793" y2="65.9652" gradientUnits="userSpaceOnUse">
<stop offset="0.25" stop-color="#E60023"/>
<stop offset="1" stop-color="white" stop-opacity="0"/>
</linearGradient>
<linearGradient id="paint3_linear_2583_241168" x1="150.035" y1="47.2066" x2="158.31" y2="65.9652" gradientUnits="userSpaceOnUse">
<stop offset="0.25" stop-color="#E60023"/>
<stop offset="1" stop-color="white" stop-opacity="0"/>
</linearGradient>
</defs>
</svg>
