<svg width="375" height="250" viewBox="0 0 375 250" fill="none" xmlns="http://www.w3.org/2000/svg">
<g clip-path="url(#clip0_2583_240102)">
<rect width="375" height="250" fill="#C4E0F8"/>
<path d="M329.37 71.395C329.37 131.812 280.392 180.79 219.975 180.79C159.558 180.79 110.58 131.812 110.58 71.395C110.58 10.9778 159.558 -38 219.975 -38C280.392 -38 329.37 10.9778 329.37 71.395Z" fill="url(#paint0_linear_2583_240102)"/>
<path d="M-20.5566 216.295L-15.2566 213.235L-14.1929 214.745C-13.282 216.037 -11.5361 216.423 -10.1654 215.634L85.8069 160.417L94.515 176.2L-1.25703 231.303C-2.70915 232.138 -3.21946 233.986 -2.40189 235.448L-1.48656 237.085L-6.78664 240.145L-20.5566 216.295Z" fill="#EF7BB5"/>
<path d="M219.532 93.5797C231.362 114.07 224.341 140.27 203.851 152.1C183.361 163.93 157.161 156.91 145.331 136.42C133.501 115.93 140.521 89.7291 161.011 77.8992C181.501 66.0692 207.702 73.0896 219.532 93.5797Z" fill="#9BAAF3"/>
<path d="M12.3289 190.634L142.311 97.5298L177.501 158.481L31.8789 224.496L12.3289 190.634Z" fill="url(#paint1_linear_2583_240102)"/>
<path d="M26.5661 215.294L17.5544 199.686L85.8067 160.417L94.5148 176.2L26.5661 215.294Z" fill="url(#paint2_linear_2583_240102)"/>
<path d="M70.8774 139.044L171.761 62.8597L222.251 150.311L105.832 199.587L70.8774 139.044Z" fill="url(#paint3_linear_2583_240102)"/>
<path d="M54.2822 214.34L43.0805 219.418L22.3274 183.472L32.326 176.311L54.2822 214.34Z" fill="url(#paint4_linear_2583_240102)"/>
<path d="M47.7851 203.086L37.1757 209.19L28.1641 193.581L38.7734 187.477L47.7851 203.086Z" fill="url(#paint5_linear_2583_240102)"/>
<path d="M188.177 164.732L142.234 85.1568L152.077 77.7242L199.535 159.925L188.177 164.732Z" fill="url(#paint6_linear_2583_240102)"/>
<path fill-rule="evenodd" clip-rule="evenodd" d="M95.28 181.541L127.914 299.647C128.993 303.548 132.542 306.25 136.59 306.25V312.37C129.79 312.37 123.827 307.831 122.016 301.277L95.28 204.519L68.5444 301.277C66.7333 307.831 60.7699 312.37 53.97 312.37V306.25C58.0176 306.25 61.5674 303.548 62.6455 299.647L95.28 181.541Z" fill="#83C3FC"/>
<circle cx="95.28" cy="193.03" r="12.24" fill="#E2E6FD"/>
<circle cx="95.2799" cy="193.03" r="6.12" fill="#D4C4F7"/>
<path d="M190.14 -13.52C190.985 -13.52 191.67 -14.205 191.67 -15.05C191.67 -15.895 190.985 -16.58 190.14 -16.58C189.295 -16.58 188.61 -15.895 188.61 -15.05C188.61 -14.205 189.295 -13.52 190.14 -13.52Z" fill="#526AE0"/>
<path d="M252.87 -11.99C252.87 -11.145 252.185 -10.46 251.34 -10.46C250.495 -10.46 249.81 -11.145 249.81 -11.99C249.81 -12.835 250.495 -13.52 251.34 -13.52C252.185 -13.52 252.87 -12.835 252.87 -11.99Z" fill="#526AE0"/>
<path d="M228.39 -2.80999C230.08 -2.80999 231.45 -4.18 231.45 -5.86999C231.45 -7.55998 230.08 -8.92999 228.39 -8.92999C226.7 -8.92999 225.33 -7.55998 225.33 -5.86999C225.33 -4.18 226.7 -2.80999 228.39 -2.80999Z" fill="#526AE0"/>
<path d="M164.13 43.09C164.975 43.09 165.66 42.405 165.66 41.56C165.66 40.715 164.975 40.03 164.13 40.03C163.285 40.03 162.6 40.715 162.6 41.56C162.6 42.405 163.285 43.09 164.13 43.09Z" fill="#526AE0"/>
<path d="M173.31 47.68C174.155 47.68 174.84 46.995 174.84 46.15C174.84 45.305 174.155 44.62 173.31 44.62C172.465 44.62 171.78 45.305 171.78 46.15C171.78 46.995 172.465 47.68 173.31 47.68Z" fill="#526AE0"/>
<path d="M295.71 108.88C295.71 109.725 295.025 110.41 294.18 110.41C293.335 110.41 292.65 109.725 292.65 108.88C292.65 108.035 293.335 107.35 294.18 107.35C295.025 107.35 295.71 108.035 295.71 108.88Z" fill="#526AE0"/>
<path d="M269.7 133.36C270.545 133.36 271.23 132.675 271.23 131.83C271.23 130.985 270.545 130.3 269.7 130.3C268.855 130.3 268.17 130.985 268.17 131.83C268.17 132.675 268.855 133.36 269.7 133.36Z" fill="#526AE0"/>
<path d="M262.05 125.71C262.05 128.245 259.995 130.3 257.46 130.3C254.925 130.3 252.87 128.245 252.87 125.71C252.87 123.175 254.925 121.12 257.46 121.12C259.995 121.12 262.05 123.175 262.05 125.71Z" fill="#526AE0"/>
<path d="M271.23 93.58C272.92 93.58 274.29 92.21 274.29 90.52C274.29 88.83 272.92 87.46 271.23 87.46C269.54 87.46 268.17 88.83 268.17 90.52C268.17 92.21 269.54 93.58 271.23 93.58Z" fill="#526AE0"/>
<path d="M154.95 49.21C154.95 50.9 153.58 52.27 151.89 52.27C150.2 52.27 148.83 50.9 148.83 49.21C148.83 47.52 150.2 46.15 151.89 46.15C153.58 46.15 154.95 47.52 154.95 49.21Z" fill="#526AE0"/>
<circle cx="281.94" cy="43.09" r="21.42" fill="#E60023"/>
<path d="M297.24 43.09C297.24 51.5399 290.39 58.39 281.94 58.39C273.49 58.39 266.64 51.5399 266.64 43.09C266.64 34.64 273.49 27.79 281.94 27.79C290.39 27.79 297.24 34.64 297.24 43.09Z" fill="#FA5F2E"/>
<path d="M291.12 43.09C291.12 48.1599 287.01 52.27 281.94 52.27C276.87 52.27 272.76 48.1599 272.76 43.09C272.76 38.02 276.87 33.91 281.94 33.91C287.01 33.91 291.12 38.02 291.12 43.09Z" fill="#F7C545"/>
</g>
<defs>
<linearGradient id="paint0_linear_2583_240102" x1="219.975" y1="-38" x2="219.975" y2="180.79" gradientUnits="userSpaceOnUse">
<stop stop-color="#2F1E52"/>
<stop offset="1" stop-color="#2A3FA7"/>
</linearGradient>
<linearGradient id="paint1_linear_2583_240102" x1="22.1039" y1="207.565" x2="159.906" y2="128.005" gradientUnits="userSpaceOnUse">
<stop stop-color="#B497ED"/>
<stop offset="1" stop-color="#E7559E"/>
</linearGradient>
<linearGradient id="paint2_linear_2583_240102" x1="-11.82" y1="228.22" x2="159.906" y2="128.005" gradientUnits="userSpaceOnUse">
<stop offset="0.115216" stop-color="#B497ED"/>
<stop offset="0.586721" stop-color="#E7559E"/>
</linearGradient>
<linearGradient id="paint3_linear_2583_240102" x1="88.3548" y1="169.315" x2="197.006" y2="106.585" gradientUnits="userSpaceOnUse">
<stop offset="0.4" stop-color="#B497ED"/>
<stop offset="1" stop-color="#F9A4CF"/>
</linearGradient>
<linearGradient id="paint4_linear_2583_240102" x1="22.7042" y1="171.885" x2="54.0076" y2="226.104" gradientUnits="userSpaceOnUse">
<stop stop-color="white"/>
<stop offset="1" stop-color="#FDE2FD"/>
</linearGradient>
<linearGradient id="paint5_linear_2583_240102" x1="27.8036" y1="205.301" x2="54.5584" y2="189.828" gradientUnits="userSpaceOnUse">
<stop offset="0.199391" stop-color="#EBE2FD"/>
<stop offset="0.6" stop-color="#FEDDED"/>
</linearGradient>
<linearGradient id="paint6_linear_2583_240102" x1="144.496" y1="76.834" x2="197.712" y2="169.007" gradientUnits="userSpaceOnUse">
<stop stop-color="white"/>
<stop offset="1" stop-color="#FDE2FD"/>
</linearGradient>
<clipPath id="clip0_2583_240102">
<rect width="375" height="250" fill="white"/>
</clipPath>
</defs>
</svg>
