<svg width="375" height="375" viewBox="0 0 375 375" fill="none" xmlns="http://www.w3.org/2000/svg">
<rect width="375" height="375" fill="#BFE4EA"/>
<path fill-rule="evenodd" clip-rule="evenodd" d="M169.784 49.9449L100.899 43.2571L102.087 31.0289L170.971 37.7167C180.012 38.5944 186.511 46.8105 185.284 55.8101C184.386 62.3903 179.519 67.7328 173.05 69.2371L153.477 73.789C152.263 74.0714 151.404 75.1534 151.404 76.3999C151.404 77.7247 152.371 78.8507 153.681 79.05L163.846 80.5968C177.003 82.5991 186.725 93.9123 186.725 107.221V272.875H174.439V107.221C174.439 99.9837 169.153 93.8315 161.997 92.7427L151.833 91.1959C144.521 90.0832 139.118 83.7961 139.118 76.3999C139.118 69.4403 143.916 63.3991 150.694 61.8226L170.267 57.2708C171.771 56.9211 172.902 55.6794 173.111 54.1501C173.396 52.0585 171.885 50.1489 169.784 49.9449Z" fill="#13434E"/>
<path d="M147.564 362.714C164.527 362.714 178.278 348.963 178.278 332V297.865C116.428 293.16 67.7073 241.484 67.7073 178.429L67.7073 104.714L307.279 104.714V178.429C307.279 241.484 258.557 293.16 196.707 297.865V332C196.707 348.963 210.458 362.714 227.421 362.714H248.921C254.01 362.714 258.135 366.84 258.135 371.929V375H116.849V371.929C116.849 366.84 120.975 362.714 126.064 362.714H147.564Z" fill="url(#paint0_linear_2583_240063)"/>
<path d="M67.7073 178.429C67.7073 244.584 121.337 298.214 187.493 298.214C253.649 298.214 307.279 244.584 307.279 178.429V146.179H67.7073V178.429Z" fill="url(#paint1_linear_2583_240063)"/>
<path d="M116.85 375H258.136V371.929C258.136 366.84 254.01 362.714 248.922 362.714H126.064C120.975 362.714 116.85 366.84 116.85 371.929V375Z" fill="white"/>
<path fill-rule="evenodd" clip-rule="evenodd" d="M73.9065 63.25C72.8612 63.25 71.9429 63.9437 71.6573 64.9492L45.9733 155.351L34.1553 151.993L59.8393 61.5916C61.6259 55.3031 67.3691 50.9643 73.9065 50.9643C80.558 50.9643 86.3716 55.453 88.0545 61.888L141.222 265.178L129.336 268.286L76.1686 64.9966C75.8995 63.9677 74.97 63.25 73.9065 63.25Z" fill="#E60023"/>
<path d="M99.2551 104.714L141.222 265.178L129.336 268.286L86.5562 104.714L99.2551 104.714Z" fill="#FDC9B9"/>
<path fill-rule="evenodd" clip-rule="evenodd" d="M263.879 70.9286C265.926 70.9286 267.918 71.5964 269.551 72.8307L327.379 116.526L334.786 106.724L276.958 63.0286C273.191 60.1827 268.6 58.6429 263.879 58.6429C257.078 58.6429 250.671 61.8318 246.571 67.2574L109.646 248.439L119.447 255.847L256.372 74.6648C258.151 72.3117 260.929 70.9286 263.879 70.9286Z" fill="#5CD6B7"/>
<path d="M233.663 104.714L218.263 104.714L109.646 248.439L119.447 255.846L233.663 104.714Z" fill="#C0F2E5"/>
<path d="M202.33 146.179H186.93L109.649 248.439L119.45 255.847L202.33 146.179Z" fill="#2AA788"/>
<path fill-rule="evenodd" clip-rule="evenodd" d="M281.278 84.7134L353.912 46.4158L348.181 35.5483L275.548 73.8458C266.494 78.6198 259.833 86.9441 257.16 96.8248L209.974 271.271L221.833 274.479L269.02 100.033C270.801 93.4456 275.242 87.8961 281.278 84.7134Z" fill="#B497ED"/>
<path d="M267.753 104.714L255.026 104.714L209.974 271.271L221.833 274.479L267.753 104.714Z" fill="#D4C4F7"/>
<path d="M256.538 146.179H243.81L209.974 271.271L221.833 274.479L256.538 146.179Z" fill="#DD73DD"/>
<path d="M272.903 75.3631L283.634 83.4714L295.637 77.1425L284.81 68.962L275.352 73.9495C274.514 74.3908 273.698 74.8626 272.903 75.3631Z" fill="#2A3FA7"/>
<path d="M186.609 104.714C186.686 105.541 186.725 106.377 186.725 107.221V272.875H174.439V107.221C174.439 106.368 174.366 105.53 174.225 104.714L186.609 104.714Z" fill="#1BA1BB"/>
<path d="M186.725 146.179V272.875H174.439V146.179H186.725Z" fill="#187486"/>
<path d="M215.136 173.054C215.136 176.87 212.042 179.964 208.225 179.964C204.409 179.964 201.314 176.87 201.314 173.054C201.314 169.237 204.409 166.143 208.225 166.143C212.042 166.143 215.136 169.237 215.136 173.054Z" fill="#FDE2FD"/>
<path d="M273.493 179.196C273.493 179.273 273.492 179.35 273.489 179.426C274.389 179.275 275.314 179.196 276.257 179.196C285.417 179.196 292.843 186.622 292.843 195.782C292.843 204.942 285.417 212.368 276.257 212.368C267.097 212.368 259.672 204.942 259.672 195.782C259.672 191.817 261.063 188.177 263.384 185.324C261.177 184.17 259.672 181.859 259.672 179.196C259.672 175.38 262.766 172.286 266.582 172.286C270.399 172.286 273.493 175.38 273.493 179.196Z" fill="#FDE2FD"/>
<path d="M207.457 220.798C212.8 220.798 217.132 216.466 217.132 211.123C217.132 210.932 217.126 210.743 217.115 210.555C219.565 209.492 221.278 207.052 221.278 204.212C221.278 200.396 218.184 197.301 214.367 197.301C211.527 197.301 209.087 199.015 208.024 201.464C207.837 201.453 207.647 201.448 207.457 201.448C202.114 201.448 197.782 205.78 197.782 211.123C197.782 216.466 202.114 220.798 207.457 220.798Z" fill="#FDE2FD"/>
<path d="M162.922 230.643C162.922 234.035 160.171 236.786 156.779 236.786C153.386 236.786 150.636 234.035 150.636 230.643C150.636 227.25 153.386 224.5 156.779 224.5C160.171 224.5 162.922 227.25 162.922 230.643Z" fill="#FDE2FD"/>
<path d="M247.386 250.607C249.93 250.607 251.993 248.544 251.993 246C251.993 243.456 249.93 241.393 247.386 241.393C244.841 241.393 242.779 243.456 242.779 246C242.779 248.544 244.841 250.607 247.386 250.607Z" fill="#FDE2FD"/>
<path d="M153.707 249.071C153.707 251.616 151.645 253.679 149.1 253.679C146.556 253.679 144.493 251.616 144.493 249.071C144.493 246.527 146.556 244.464 149.1 244.464C151.645 244.464 153.707 246.527 153.707 249.071Z" fill="#FDE2FD"/>
<path d="M97.3466 214.671C102.69 214.671 107.022 210.34 107.022 204.996C107.022 199.653 102.69 195.321 97.3466 195.321C92.0033 195.321 87.6716 199.653 87.6716 204.996C87.6716 210.34 92.0033 214.671 97.3466 214.671Z" fill="#FDE2FD"/>
<path d="M260.439 233.714C264.256 233.714 267.35 230.62 267.35 226.804C267.35 222.987 264.256 219.893 260.439 219.893C256.623 219.893 253.529 222.987 253.529 226.804C253.529 230.62 256.623 233.714 260.439 233.714Z" fill="#FDE2FD"/>
<path d="M266.582 186.107C270.322 186.107 273.368 183.137 273.489 179.426C269.431 180.108 265.873 182.264 263.384 185.324C264.34 185.824 265.428 186.107 266.582 186.107Z" fill="white"/>
<path d="M217.116 210.555C216.833 205.664 212.916 201.747 208.025 201.464C207.66 202.306 207.457 203.236 207.457 204.212C207.457 208.029 210.551 211.123 214.368 211.123C215.344 211.123 216.273 210.92 217.116 210.555Z" fill="white"/>
<path d="M110.099 146.179L141.222 265.178L129.336 268.286L97.4004 146.179H110.099Z" fill="#EF7BB5"/>
<path d="M133.811 236.843L129.852 221.705L120.418 234.188L124.377 249.326L133.811 236.843Z" fill="#6B246B"/>
<path d="M186.725 166.826V146.449L174.439 162.706V183.082L186.725 166.826Z" fill="#13434E"/>
<defs>
<linearGradient id="paint0_linear_2583_240063" x1="187.493" y1="104.714" x2="187.493" y2="375" gradientUnits="userSpaceOnUse">
<stop stop-color="white" stop-opacity="0.75"/>
<stop offset="1" stop-color="white" stop-opacity="0.5"/>
</linearGradient>
<linearGradient id="paint1_linear_2583_240063" x1="187.493" y1="146.179" x2="187.493" y2="298.214" gradientUnits="userSpaceOnUse">
<stop stop-color="#ED96ED"/>
<stop offset="1" stop-color="#FDC4E1"/>
</linearGradient>
</defs>
</svg>
