<svg xmlns="http://www.w3.org/2000/svg" width="220" height="220" fill="none" viewBox="0 0 220 220"><g clip-path="url(#a)"><path fill="#402970" d="M169.877 169.877c-40.732 40.731-100.559 46.943-133.628 13.874S9.392 90.855 50.123 50.123 150.682 3.18 183.751 36.25c33.069 33.07 26.857 92.896-13.874 133.628"/><path fill="url(#b)" d="M194.495 135.179a120 120 0 0 1-5.858 10.867l-7.511 5.35 3.106 1.398a123 123 0 0 1-2.35 3.244l-5.534-1.239-68.143 48.525a99 99 0 0 1-11.453 1.459l16.215-11.546 2.567-22.855.148-1.315 1.364.047.056 1.322.827 19.267z"/><path fill="url(#c)" d="M140.152 115.727 118.601 6.107a6.746 6.746 0 0 0-12.478-2.045l-1.379 2.414a53.44 53.44 0 0 0-6.03 36.81l2.466 12.546a28.1 28.1 0 0 0 3.709 9.416l31.817 51.156z"/><path fill="url(#d)" d="M140.152 115.727 118.601 6.107a6.746 6.746 0 0 0-12.478-2.045l-1.379 2.414a53.44 53.44 0 0 0-6.03 36.81l2.466 12.546a28.1 28.1 0 0 0 3.709 9.416l31.817 51.156z"/><path fill="url(#e)" d="M140.152 115.727 118.601 6.107a6.746 6.746 0 0 0-12.478-2.045l-1.379 2.414a53.44 53.44 0 0 0-6.03 36.81l2.466 12.546a28.1 28.1 0 0 0 3.709 9.416l31.817 51.156z"/><path fill="url(#f)" d="M121.663 77.21c-1.936-4.58-7.086-6.81-11.706-5.191l-.017-10.145a65.9 65.9 0 0 0-6.534-28.503l-4.822-10.009q-.141.777-.26 1.556l4.263 8.848a65 65 0 0 1 6.444 28.11l.016 10.056.707 1.136a8.45 8.45 0 0 1 11.072 4.495l16.381 38.743.911-.18z"/><path fill="url(#g)" d="M117.978 39.353a33.53 33.53 0 0 0-18.101-21.426q-.131.442-.253.885a32.62 32.62 0 0 1 17.478 20.783l21.167 76.502.895-.176z"/><path fill="url(#h)" d="M118.847 32.27A54.65 54.65 0 0 1 111.37.688a7 7 0 0 0-.69.099q-.117.024-.232.053a55.56 55.56 0 0 0 7.616 31.89l4.776 8.077.782-.463z"/><path fill="url(#i)" d="M118.601 6.106a6.75 6.75 0 0 0-5.68-5.38l25.558 115.329 1.673-.328z"/><path fill="url(#j)" d="M141.539 113.753 91.331 4.381a7.687 7.687 0 0 0-14.663 3.592l1.575 31.435a90.9 90.9 0 0 0 22.75 55.734l1.006 1.135a29.1 29.1 0 0 0 12.41 8.251z"/><path fill="url(#k)" d="M141.539 113.753 91.331 4.381a7.687 7.687 0 0 0-14.663 3.592l1.575 31.435a90.9 90.9 0 0 0 22.75 55.734l1.006 1.135a29.1 29.1 0 0 0 12.41 8.251z"/><path fill="url(#l)" d="M141.539 113.753 91.331 4.381a7.687 7.687 0 0 0-14.663 3.592l1.575 31.435a90.9 90.9 0 0 0 22.75 55.734l1.006 1.135a29.1 29.1 0 0 0 12.41 8.251z"/><path fill="url(#m)" d="M126.677 93.494a21.37 21.37 0 0 1-19.324-9.172l-1.344-1.95a22.28 22.28 0 0 0-19.595-9.601q.204.447.414.891a21.37 21.37 0 0 1 18.433 9.226l1.344 1.95A22.27 22.27 0 0 0 126.75 94.4l3.015-.245-.074-.906z"/><path fill="url(#n)" d="M126.596 86.616a16.99 16.99 0 0 1-15.479-9.263l-10.247-20.08c-4.353-8.528-13.336-12.94-22.146-12.034q.053.452.11.903c8.445-.863 17.054 3.37 21.226 11.545l10.247 20.079a17.9 17.9 0 0 0 16.308 9.76z"/><path fill="url(#o)" d="M131.239 98.471a20 20 0 0 1-16.313-.077l-3.598-1.628a22.3 22.3 0 0 0-10.606-1.933l.271.31.5.564a21.36 21.36 0 0 1 9.46 1.888l3.598 1.628a20.9 20.9 0 0 0 17.054.079z"/><path fill="url(#p)" d="M116.411 61.256a10.81 10.81 0 0 1-9.764-6.314l-15.6-34.133c-2.595-5.676-9.383-7-13.934-3.971l.054 1.08c4.104-3.145 10.619-2.055 13.053 3.269l15.6 34.133a11.72 11.72 0 0 0 10.585 6.846z"/><path fill="url(#q)" d="M91.331 4.382A7.67 7.67 0 0 0 87.553.605L89.35 4.75l45.529 105.063.853 1.967 5.808 1.974z"/><path fill="#b497ed" d="M106.632 131.631c.989-.69 2.199-.946 3.378-.69 1.177.256 2.227 1.003 2.904 2.056.676 1.052.92 2.319.664 3.496a4.29 4.29 0 0 1-2.03 2.786l-3.259 1.925-58.655 34.668-3.259 1.926a1.72 1.72 0 0 1-1.263.182 1.7 1.7 0 0 1-1.04-.728 1.7 1.7 0 0 1-.23-1.248c.087-.435.333-.824.69-1.074l3.105-2.165 55.89-38.968z"/><path fill="#9270d7" d="M127.112 99.34a29.1 29.1 0 0 1 11.326.743 29.08 29.08 0 0 1 17.664 13.553l-19.423 11.213 12.168 21.077a.9.9 0 0 0 .348.341l21.143 11.673-1.672 1.154-20.349-11.235a2.73 2.73 0 0 1-1.044-1.024l-12.168-21.076-3.921 2.263 5.479 20.817a.9.9 0 0 0 .237.411l18.796 18.797-1.522 1.049-18.561-18.56a2.73 2.73 0 0 1-.708-1.235l-5.353-20.337-3.368 1.945 3.249 11.745c.079.283.111.577.095.87l-1.314 24.961a.9.9 0 0 0 .179.59l8.741 11.783-1.497 1.032-8.705-11.732a2.73 2.73 0 0 1-.533-1.768l1.314-24.961a1 1 0 0 0-.032-.29l-3.123-11.291-18.843 10.879a29.1 29.1 0 0 1-2.905-22.075 29.108 29.108 0 0 1 13.553-17.664 29.1 29.1 0 0 1 10.749-3.649M53.379 173.659q-.843.499-1.687.996l-2.098-3.254 1.606-1.121zM65.183 166.682l-1.687.997-2.656-4.12 1.606-1.12zM76.986 159.706l-1.686.996-3.214-4.984 1.606-1.12zM88.79 152.729l-1.687.997-3.77-5.849 1.606-1.12zM100.594 145.753l-1.686.996-4.329-6.714 1.607-1.12z"/><path fill="#9270d7" d="M164.465 101.033c3.128-.411 5.002 2.842 4.185 5.889l-.639 2.385a6.364 6.364 0 0 1-7.794 4.501l-2.386-.64c-3.047-.816-4.927-4.066-3.007-6.568a14.54 14.54 0 0 1 9.641-5.567"/><path fill="#e60023" d="m138.04 182.077-1.481 1.055-3.25-4.381 1.48-1.055zM156.547 168.898l-1.502 1.069-3.91-3.911 1.502-1.069zM171.237 158.438l-1.643 1.169-5.295-2.925 1.642-1.168z"/><path fill="url(#r)" d="M128.256 108.82 9.414 89.86a7.687 7.687 0 0 0-5.154 14.19l27.021 16.141a90.9 90.9 0 0 0 58.986 12.02l1.503-.206a29.1 29.1 0 0 0 13.752-5.741z"/><path fill="url(#s)" d="M128.256 108.82 9.414 89.86a7.687 7.687 0 0 0-5.154 14.19l27.021 16.141a90.9 90.9 0 0 0 58.986 12.02l1.503-.206a29.1 29.1 0 0 0 13.752-5.741z"/><path fill="url(#t)" d="M128.256 108.82 9.414 89.86a7.687 7.687 0 0 0-5.154 14.19l27.021 16.141a90.9 90.9 0 0 0 58.986 12.02l1.503-.206a29.1 29.1 0 0 0 13.752-5.741z"/><path fill="url(#u)" d="M103.155 109.934a21.36 21.36 0 0 1-18.356 10.98l-2.369.035a22.28 22.28 0 0 0-18.864 10.968q.484.079.972.151a21.37 21.37 0 0 1 17.906-10.21l2.368-.035a22.27 22.27 0 0 0 19.137-11.447l1.47-2.644-.795-.441z"/><path fill="url(#v)" d="M97.39 106.183a16.99 16.99 0 0 1-16.299 7.731l-22.389-2.624c-9.51-1.114-18.167 3.907-22.304 11.738q.405.208.811.411c3.972-7.504 12.27-12.315 21.387-11.246l22.39 2.624a17.9 17.9 0 0 0 17.17-8.145z"/><path fill="url(#w)" d="M109.827 108.903a20 20 0 0 1-9.12 13.525l-3.352 2.089a22.3 22.3 0 0 0-7.496 7.748q.204-.026.409-.054l.747-.102a21.4 21.4 0 0 1 6.822-6.821l3.351-2.088a20.9 20.9 0 0 0 9.534-14.141z"/><path fill="url(#x)" d="M70.642 100.575a10.81 10.81 0 0 1-10.672 4.616l-37.05-5.974c-6.162-.993-11.031 3.917-11.039 9.384l.929.555c-.338-5.16 4.185-9.974 9.965-9.042l37.05 5.974a11.72 11.72 0 0 0 11.57-5.003z"/><path fill="url(#y)" d="M9.414 89.86a7.67 7.67 0 0 0-5.238 1.045l4.443.808 112.662 20.459 2.109.383 4.866-3.735z"/><path fill="#e68800" d="M152.727 100a7.273 7.273 0 1 1 0 14.545 7.273 7.273 0 0 1 0-14.545M167.273 92.727a7.27 7.27 0 0 1 7.272 7.273 7.272 7.272 0 1 1-7.272-7.273"/><path fill="#2f1e52" d="M154.091 103.636a4.092 4.092 0 1 1-.001 8.183 4.092 4.092 0 0 1 .001-8.183M166.818 97.273a4.09 4.09 0 1 1 0 8.181 4.09 4.09 0 0 1 0-8.181"/><path fill="url(#z)" d="M130.804 104.916 20.393 34.211a9.494 9.494 0 0 0-14.39 10.047l.52 2.348a63.67 63.67 0 0 0 27.83 39.858l10.554 6.758a29.1 29.1 0 0 0 11.11 4.23l72.199 11.506z"/><path fill="url(#A)" d="M130.804 104.916 20.393 34.211a9.494 9.494 0 0 0-14.39 10.047l.52 2.348a63.67 63.67 0 0 0 27.83 39.858l10.554 6.758a29.1 29.1 0 0 0 11.11 4.23l72.199 11.506z"/><path fill="url(#B)" d="M130.804 104.916 20.393 34.211a9.494 9.494 0 0 0-14.39 10.047l.52 2.348a63.67 63.67 0 0 0 27.83 39.858l10.554 6.758a29.1 29.1 0 0 0 11.11 4.23l72.199 11.506z"/><path fill="url(#C)" d="M82.878 91.396c-6.474-2.243-13.55.81-16.397 6.962l-9.051-9.142A65.9 65.9 0 0 0 28.684 72.21L16 68.589q.404.595.82 1.18l11.616 3.316a65 65 0 0 1 28.347 16.77l9.075 9.166 1.24.197c2.5-6.048 9.287-9.11 15.483-6.962l46.101 15.975.504-.788z"/><path fill="url(#D)" d="M48.4 63.506a41.71 41.71 0 0 0-36.163-1.217q.21.405.428.805a40.8 40.8 0 0 1 35.313 1.218l81.503 42.672.492-.769z"/><path fill="url(#E)" d="M41.271 55.555A57.5 57.5 0 0 1 7.9 36.228q-.292.36-.55.755A58.4 58.4 0 0 0 41.105 56.45L52.205 58.5l.165-.893z"/><path fill="url(#F)" d="M20.393 34.21a9.49 9.49 0 0 0-9.244-.556l118.736 72.698.919-1.436z"/></g><defs><radialGradient id="c" cx="0" cy="0" r="1" gradientTransform="rotate(258.878 100.91 -2.379)scale(95.9188 88.133)" gradientUnits="userSpaceOnUse"><stop offset=".399" stop-color="#d4c4f7"/><stop offset="1" stop-color="#fff" stop-opacity=".3"/></radialGradient><radialGradient id="d" cx="0" cy="0" r="1" gradientTransform="matrix(-21.1285 -1.89885 -1.78196 37.6628 126.434 67.793)" gradientUnits="userSpaceOnUse"><stop stop-color="#83c3fc"/><stop offset="1" stop-color="#fde2fd" stop-opacity="0"/></radialGradient><radialGradient id="e" cx="0" cy="0" r="1" gradientTransform="matrix(-23.1644 -57.7598 -52.6925 23.2114 140.671 107.446)" gradientUnits="userSpaceOnUse"><stop offset=".1" stop-color="#79d8ec"/><stop offset=".25" stop-color="#70e6c8"/><stop offset=".35" stop-color="#e9de63"/><stop offset=".55" stop-color="#83c3fc" stop-opacity=".5"/><stop offset="1" stop-color="#fde2fd" stop-opacity="0"/></radialGradient><radialGradient id="j" cx="0" cy="0" r="1" gradientTransform="rotate(241.977 99.332 12.329)scale(118.595)" gradientUnits="userSpaceOnUse"><stop offset=".1" stop-color="#b497ed"/><stop offset=".7" stop-color="#fde2fd"/><stop offset="1" stop-color="#fff" stop-opacity=".65"/></radialGradient><radialGradient id="k" cx="0" cy="0" r="1" gradientTransform="rotate(-95.03 105.04 -2.065)scale(58.3272)" gradientUnits="userSpaceOnUse"><stop offset=".15" stop-color="#ef7bb5"/><stop offset=".5" stop-color="#fda64f"/><stop offset="1" stop-color="#d4c4f7" stop-opacity="0"/></radialGradient><radialGradient id="l" cx="0" cy="0" r="1" gradientTransform="rotate(191.179 66.213 33.693)scale(32.5385)" gradientUnits="userSpaceOnUse"><stop offset=".1" stop-color="#70e6c8"/><stop offset=".45" stop-color="#fed872"/><stop offset="1" stop-color="#fde2fd" stop-opacity="0"/></radialGradient><radialGradient id="m" cx="0" cy="0" r="1" gradientTransform="matrix(-39.4783 18.1074 18.1225 39.5521 126.456 83.485)" gradientUnits="userSpaceOnUse"><stop stop-color="#dd73dd"/><stop offset="1" stop-color="#b497ed" stop-opacity=".25"/></radialGradient><radialGradient id="n" cx="0" cy="0" r="1" gradientTransform="matrix(-39.4783 18.1074 18.1225 39.5521 126.456 83.485)" gradientUnits="userSpaceOnUse"><stop stop-color="#dd73dd"/><stop offset="1" stop-color="#b497ed" stop-opacity=".25"/></radialGradient><radialGradient id="o" cx="0" cy="0" r="1" gradientTransform="matrix(-39.4783 18.1074 18.1225 39.5521 126.456 83.485)" gradientUnits="userSpaceOnUse"><stop stop-color="#dd73dd"/><stop offset="1" stop-color="#b497ed" stop-opacity=".25"/></radialGradient><radialGradient id="p" cx="0" cy="0" r="1" gradientTransform="matrix(-39.4783 18.1074 18.1225 39.5521 126.456 83.485)" gradientUnits="userSpaceOnUse"><stop stop-color="#dd73dd"/><stop offset="1" stop-color="#b497ed" stop-opacity=".25"/></radialGradient><radialGradient id="r" cx="0" cy="0" r="1" gradientTransform="rotate(185.699 61.773 51.936)scale(118.595)" gradientUnits="userSpaceOnUse"><stop offset=".1" stop-color="#b497ed"/><stop offset=".7" stop-color="#fde2fd"/><stop offset="1" stop-color="#fff" stop-opacity=".65"/></radialGradient><radialGradient id="s" cx="0" cy="0" r="1" gradientTransform="rotate(208.692 68.191 48.347)scale(58.3272)" gradientUnits="userSpaceOnUse"><stop offset=".15" stop-color="#ef7bb5"/><stop offset=".5" stop-color="#fda64f"/><stop offset="1" stop-color="#d4c4f7" stop-opacity="0"/></radialGradient><radialGradient id="t" cx="0" cy="0" r="1" gradientTransform="rotate(134.901 23.655 70.734)scale(32.5385)" gradientUnits="userSpaceOnUse"><stop offset=".1" stop-color="#70e6c8"/><stop offset=".45" stop-color="#fed872"/><stop offset="1" stop-color="#fde2fd" stop-opacity="0"/></radialGradient><radialGradient id="u" cx="0" cy="0" r="1" gradientTransform="matrix(-6.85655 42.8882 42.958 6.88499 94.708 104.561)" gradientUnits="userSpaceOnUse"><stop stop-color="#dd73dd"/><stop offset="1" stop-color="#b497ed" stop-opacity=".25"/></radialGradient><radialGradient id="v" cx="0" cy="0" r="1" gradientTransform="matrix(-6.85655 42.8882 42.958 6.88499 94.708 104.561)" gradientUnits="userSpaceOnUse"><stop stop-color="#dd73dd"/><stop offset="1" stop-color="#b497ed" stop-opacity=".25"/></radialGradient><radialGradient id="w" cx="0" cy="0" r="1" gradientTransform="matrix(-6.85655 42.8882 42.958 6.88499 94.708 104.561)" gradientUnits="userSpaceOnUse"><stop stop-color="#dd73dd"/><stop offset="1" stop-color="#b497ed" stop-opacity=".25"/></radialGradient><radialGradient id="x" cx="0" cy="0" r="1" gradientTransform="matrix(-6.85655 42.8882 42.958 6.88499 94.708 104.561)" gradientUnits="userSpaceOnUse"><stop stop-color="#dd73dd"/><stop offset="1" stop-color="#b497ed" stop-opacity=".25"/></radialGradient><radialGradient id="z" cx="0" cy="0" r="1" gradientTransform="rotate(212.635 64.71 38.513)scale(113.844 120.463)" gradientUnits="userSpaceOnUse"><stop offset=".399" stop-color="#d4c4f7"/><stop offset="1" stop-color="#fff" stop-opacity=".3"/></radialGradient><radialGradient id="A" cx="0" cy="0" r="1" gradientTransform="matrix(-20.9475 19.6402 29.9494 33.809 78.044 77.969)" gradientUnits="userSpaceOnUse"><stop stop-color="#83c3fc"/><stop offset="1" stop-color="#fde2fd" stop-opacity="0"/></radialGradient><radialGradient id="B" cx="0" cy="0" r="1" gradientTransform="matrix(-69.6542 -25.7983 -28.8064 72.738 124.336 97.355)" gradientUnits="userSpaceOnUse"><stop offset=".1" stop-color="#79d8ec"/><stop offset=".25" stop-color="#70e6c8"/><stop offset=".35" stop-color="#e9de63"/><stop offset=".55" stop-color="#83c3fc" stop-opacity=".5"/><stop offset="1" stop-color="#fde2fd" stop-opacity="0"/></radialGradient><linearGradient id="b" x1="167.696" x2="108.887" y1="167.675" y2="210.506" gradientUnits="userSpaceOnUse"><stop stop-color="#fda64f"/><stop offset="1" stop-color="#bd5f00"/></linearGradient><linearGradient id="f" x1="138.873" x2="100.373" y1="115.978" y2="3.112" gradientUnits="userSpaceOnUse"><stop stop-color="#9270d7"/><stop offset="1" stop-color="#b497ed" stop-opacity=".25"/></linearGradient><linearGradient id="g" x1="138.873" x2="100.373" y1="115.978" y2="3.112" gradientUnits="userSpaceOnUse"><stop stop-color="#9270d7"/><stop offset="1" stop-color="#b497ed" stop-opacity=".25"/></linearGradient><linearGradient id="h" x1="138.873" x2="100.373" y1="115.978" y2="3.112" gradientUnits="userSpaceOnUse"><stop stop-color="#9270d7"/><stop offset="1" stop-color="#b497ed" stop-opacity=".25"/></linearGradient><linearGradient id="i" x1="137.926" x2="115.146" y1="116.164" y2=".289" gradientUnits="userSpaceOnUse"><stop stop-color="#2086df"/><stop offset="1" stop-color="#f8bef8"/></linearGradient><linearGradient id="q" x1="133.849" x2="95.243" y1="116.265" y2="-1.907" gradientUnits="userSpaceOnUse"><stop stop-color="#5c3ba0"/><stop offset="1" stop-color="#b497ed"/></linearGradient><linearGradient id="y" x1="126.076" x2="6.356" y1="116.611" y2="83.115" gradientUnits="userSpaceOnUse"><stop stop-color="#5c3ba0"/><stop offset="1" stop-color="#b497ed"/></linearGradient><linearGradient id="C" x1="129.757" x2="2.106" y1="106.551" y2="44.762" gradientUnits="userSpaceOnUse"><stop stop-color="#9270d7"/><stop offset="1" stop-color="#b497ed" stop-opacity=".25"/></linearGradient><linearGradient id="D" x1="129.757" x2="2.106" y1="106.551" y2="44.762" gradientUnits="userSpaceOnUse"><stop stop-color="#9270d7"/><stop offset="1" stop-color="#b497ed" stop-opacity=".25"/></linearGradient><linearGradient id="E" x1="129.757" x2="2.106" y1="106.551" y2="44.762" gradientUnits="userSpaceOnUse"><stop stop-color="#9270d7"/><stop offset="1" stop-color="#b497ed" stop-opacity=".25"/></linearGradient><linearGradient id="F" x1="129.587" x2="12.367" y1="106.818" y2="31.753" gradientUnits="userSpaceOnUse"><stop stop-color="#2086df"/><stop offset="1" stop-color="#f8bef8"/></linearGradient><clipPath id="a"><path fill="#fff" d="M0 0h220v220H0z"/></clipPath></defs></svg>