<svg xmlns="http://www.w3.org/2000/svg" width="375" height="250" fill="none" viewBox="0 0 375 250"><g clip-path="url(#a)"><path fill="#1e4a71" d="M0 0h375v250H0z"/><path fill="url(#b)" d="M209.58 20.875a48.7 48.7 0 0 1 12.866 5.532l.563.35q.28.179.558.36a48.73 48.73 0 0 1 17.626 20.377l2.764 5.98 4.795-3.382.588-.415a48.8 48.8 0 0 1 13.117-6.551 48 48 0 0 1 3.185-.909 48.8 48.8 0 0 1 9.814-1.406q.332-.014.663-.022a48.7 48.7 0 0 1 13.909 1.642c12.994 3.482 23.348 11.902 29.582 22.7q.426.741.825 1.497a48.8 48.8 0 0 1 4.372 11.518 48.5 48.5 0 0 1-.329 23.952l-1.034 3.858c-2.131 7.952-6.345 15.156-11.937 21.652q-.639.74-1.302 1.47a82 82 0 0 1-5.39 5.407 98 98 0 0 1-3.632 3.175q-.177.146-.355.29a105 105 0 0 1-3.269 2.59 123 123 0 0 1-5.606 4.026q-2.032 1.378-4.124 2.691l-.348.217a168 168 0 0 1-10.458 5.999q-.28.147-.561.293a190 190 0 0 1-3.659 1.868 220 220 0 0 1-11.974 5.505q-.62.265-1.238.526-.292.122-.583.242c-2.26.941-4.5 1.837-6.708 2.686q-.57.218-1.138.432-.645.246-1.287.487-1.854.692-3.668 1.34l-1.014.364q-.254.09-.508.177a300 300 0 0 1-6.189 2.105l-.747.242q-1.766.575-3.455 1.102l-.929.287q-1.598.493-3.114.945l-.782.23-1.07.315q-1.327.385-2.576.735a303 303 0 0 1-5.718 1.55q-.522.135-1.019.26-.885.228-1.686.429l-.604.148c-1.399.345-2.58.626-3.514.841-.79.181-1.402.314-1.818.404l-.639.138c-.027-.023-3.638-3.228-9.126-8.752a274 274 0 0 1-1.722-1.749c-5.723-5.853-13.076-13.841-20.464-23.16a261 261 0 0 1-4.778-6.217 221.156 221.156 0 0 1-6.734-9.563c-2.934-4.414-5.726-8.987-8.255-13.661q-.662-1.222-1.298-2.454c-3.821-7.389-6.947-14.998-8.919-22.596q-.165-.633-.318-1.266a76 76 0 0 1-1.049-5.058c-1.332-7.786-1.311-15.493.56-22.87q.076-.3.156-.597l1.034-3.856q.362-1.351.794-2.663l.039-.12a48.6 48.6 0 0 1 3.983-8.898q.132-.23.265-.459.149-.252.301-.502.126-.21.255-.418a18 18 0 0 0 8.864 5.488c9.641 2.583 19.551-3.139 22.134-12.78.46-1.716.655-3.441.613-5.132 1.04.679 2.202 1.21 3.467 1.549 6.427 1.722 13.033-2.093 14.755-8.52.255-.952.386-1.907.408-2.85q.317.058.633.12l.048.01q.49.097.98.206l.095.02a49 49 0 0 1 2.033.5z"/><path fill="url(#c)" d="m324.444 102.09-1.033 3.857c-13.643 50.915-112.619 71.169-112.619 71.169l33.132-123.65 5.384-3.797a48.72 48.72 0 0 1 40.688-7.246c25.989 6.964 41.412 33.678 34.448 59.667"/><path fill="url(#d)" d="M243.818 7.443c3.491.245 7.074 2.078 9.475 5.06 2.865 3.46 4.012 8.514 2.813 13.043q-.18.713-.369 1.423c-3.314 12.366-9.036 24.088-12.785 36.338 19.17 4.427 38.507-4.326 48.161-20.573l.115.034a52 52 0 0 1 1.361.424 45.7 45.7 0 0 1-6.045 8.128c2.312 1.638 5.958 1.76 10.344.297 2.146-.715 4.423-1.798 6.728-3.215q.697.447 1.377.914c-2.593 1.654-5.179 2.914-7.628 3.73-4.638 1.547-8.988 1.558-11.874-.63-8.77 8.8-20.924 13.844-33.672 13.527a139 139 0 0 1 38.533 19.764c9.368-8.734 21.915-12.12 33.748-10.162q.239.797.451 1.605c-11.503-2.122-23.789 1.035-32.966 9.468a138.2 138.2 0 0 1 28.361 28.496q-.375.75-.775 1.491a136.7 136.7 0 0 0-28.691-28.934l-.087.086-.577-.577a137.6 137.6 0 0 0-47.308-22.393q-.194.663-.379 1.33c-2.964 10.683-5.912 21.37-8.855 32.058 15.437 4.398 29.566 13.463 41.099 26.823 4.963-2.337 11.375-.737 17.715 3.449 3.301 2.179 6.635 5.09 9.819 8.605q-.574.486-1.158.965c-3.095-3.408-6.319-6.218-9.491-8.313-6.016-3.971-11.655-5.263-15.869-3.509 5.012 5.998 9.513 12.827 13.393 20.456q-.635.407-1.277.809c-12.778-25.2-32.358-41.484-54.63-47.833q-2.935 10.657-5.862 21.314l-2.519 9.186c16.229 4.724 28.069 17.421 32.384 32.657q-.705.287-1.406.566c-4.14-14.814-15.619-27.175-31.376-31.771l-10.851 39.568-1.591 5.799c-.527.115-.812.175-.828.179l-.631-.572 1.522-5.816 4.659-17.806c-4.593-.757-9.82 1.953-14.702 7.458a44.5 44.5 0 0 0-3.436 4.44q-.525-.547-1.065-1.115a46 46 0 0 1 3.374-4.325c5.038-5.68 10.814-8.886 16.21-7.918l10.462-39.985q1.631-6.25 3.259-12.5c-22.463-5.64-47.562-1.327-71.227 14.108q-.356-.669-.704-1.339c23.943-15.574 49.424-19.976 72.311-14.227 2.796-10.728 5.587-21.457 8.361-32.19q.165-.637.321-1.275c-18.939-4.414-38.836-4.834-58.333-.897l.118.031c-4.162 15.532-15.806 27.058-30.014 31.746q-.155-.46-.306-.923-.081-.254-.161-.509c13.532-4.468 24.658-15.35 28.835-30.03a137.1 137.1 0 0 0-32.381 11.323 57 57 0 0 1-.053-1.653c27.205-13.354 56.926-17.02 84.997-12.112-15.444-7.765-25.185-23.645-25.264-40.785l.404.086.193.043q.432.097.866.202l.047.01c.237 18.898 12.608 36.146 31.424 41.896 2.877-12.483 3.783-25.495 7.096-37.86q.19-.71.392-1.417c.608-2.057.542-4.326-.397-6.534-.797-1.865-2.227-3.638-4.354-4.874z"/><path fill="url(#e)" d="M112.148 152.168a6.026 6.026 0 0 1 6.816 5.113l4.517 31.626a6.024 6.024 0 0 1-6.654 6.836l3.395 10.182a6.025 6.025 0 0 1-11.431 3.811l-12.314-36.943a6.03 6.03 0 0 0-5.715-4.119h-.704a6.025 6.025 0 0 0-5.715 4.119l-12.315 36.943a6.024 6.024 0 0 1-11.43-3.811l12.315-36.942a18.075 18.075 0 0 1 17.145-12.358h.704a18.075 18.075 0 0 1 17.145 12.358l.976 2.926-1.847-12.925a6.026 6.026 0 0 1 5.112-6.816"/><path fill="#768aea" d="M180.771 120.482q.867 0 1.715.069c.747.061 1.298.702 1.298 1.451v8.914c0 1.039-1.039 1.77-2.073 1.663a9.037 9.037 0 1 0 8.048 8.047c-.108-1.033.622-2.072 1.662-2.072h8.914c.749 0 1.39.551 1.451 1.298q.07.848.07 1.714l-.007.545c-.288 11.393-9.615 20.54-21.078 20.54 0 4.625-1.764 9.249-5.293 12.778-5.795 5.795-14.545 6.831-21.397 3.11a21 21 0 0 1 1.089 6.702c0 1.544-.169 3.05-.485 4.5l7.387-1.715c9.47-2.2 18.985 3.486 21.531 12.869l6.214 22.894 4.539 16.115a3.013 3.013 0 0 0 3.357 2.161l.905-.14a5.426 5.426 0 0 1 6.25 5.363 2.713 2.713 0 0 1-2.713 2.712h-13a6.026 6.026 0 0 1-5.914-4.446l-11.265-41.503a6.026 6.026 0 0 0-7.177-4.29l-15.074 3.501 7.23 36.8a2.49 2.49 0 0 0 2.888 1.969c3.055-.556 5.867 1.792 5.868 4.897v.411a2.66 2.66 0 0 1-2.66 2.661h-11.212a6.025 6.025 0 0 1-5.911-4.86l-7.726-39.219a21.16 21.16 0 0 1-11.478-.918l6.887 35.059a2.49 2.49 0 0 0 2.888 1.969c3.055-.556 5.869 1.792 5.869 4.897v.411a2.66 2.66 0 0 1-2.661 2.661h-11.211a6.025 6.025 0 0 1-5.911-4.86l-8.655-43.94a.753.753 0 0 1 .739-.899h4.662a21.02 21.02 0 0 1-6.33-15.06c0-11.645 9.439-21.084 21.084-21.084 3.098 0 6.041.668 8.691 1.869-2.427-6.439-1.05-13.985 4.132-19.167a18.02 18.02 0 0 1 12.779-5.293l.007-.544c.289-11.393 9.615-20.54 21.077-20.54M72.81 201.492c.592-.395 1.351.177 1.135.855l-13.827 43.456a6.025 6.025 0 0 1-5.74 4.197h-8.93a2.48 2.48 0 0 1-2.478-2.478v-.374a4.53 4.53 0 0 1 3.887-4.48 2.26 2.26 0 0 0 1.826-1.525l10.1-30.299zm38.404 0c.592-.395 1.351.176 1.135.855l-13.826 43.456A6.02 6.02 0 0 1 92.78 250h-8.93a2.48 2.48 0 0 1-2.478-2.478v-.374a4.53 4.53 0 0 1 3.887-4.48 2.26 2.26 0 0 0 1.827-1.525l10.1-30.299z"/><path fill="url(#f)" d="M46.457 203.409c6.375-15.141 22.16-24.078 38.424-21.755l16.268 2.324c11.121 1.589 19.381 11.113 19.381 22.347s-8.26 20.759-19.381 22.347l-16.269 2.324c-16.263 2.324-32.048-6.613-38.423-21.755l-.736-1.747a3 3 0 0 1 0-2.337z"/><path fill="url(#g)" d="M124.245 123.067c-.187-7.105 2.637-14.412 7.755-19.796q.425-.45.869-.882a2.71 2.71 0 0 1 2.123-.802c.796.058 1.567.468 2.125 1.114s.85 1.469.791 2.265a2.7 2.7 0 0 1-1.103 1.982 25 25 0 0 0-.784.606c-4.653 3.717-7.922 9.392-8.617 15.649q-.06.519-.097 1.044a1.53 1.53 0 0 1-.488.996 1.5 1.5 0 0 1-1.018.411c-.374 0-.735-.147-1.018-.411a1.53 1.53 0 0 1-.488-.996 27 27 0 0 1-.05-1.18"/><path fill="url(#h)" d="M122.036 125.753c.025.732.079 1.452.161 2.178 1.275 13.226 13.033 23.891 25.627 24.172.691.028 1.374.03 2.065.005.003 0 .006-.502.009-.753l.006-.817.001-.689-.001-.688-.006-.818c-.003-.251-.005-.753-.008-.753a22 22 0 0 1-1.704-.141c-10.336-1.091-18.537-10.386-18.633-20.09a21 21 0 0 1 .013-1.606 3.53 3.53 0 0 0-1.028-2.662c-.705-.706-1.698-1.103-2.737-1.103s-2.031.397-2.737 1.103a3.54 3.54 0 0 0-1.028 2.662"/><path fill="url(#i)" d="M199.27 198.092c7.105.187 14.412-2.637 19.796-7.755q.45-.425.882-.869a2.71 2.71 0 0 0 .802-2.122c-.058-.796-.467-1.568-1.114-2.126-.646-.557-1.469-.85-2.264-.791a2.71 2.71 0 0 0-1.983 1.103q-.294.398-.606.784c-3.717 4.653-9.392 7.922-15.648 8.617q-.52.06-1.045.097a1.53 1.53 0 0 0-.995.488 1.5 1.5 0 0 0-.412 1.018c0 .374.148.735.412 1.018.264.282.622.463.995.488q.59.038 1.18.05"/><path fill="url(#j)" d="M196.584 200.301a28 28 0 0 1-2.178-.16c-13.226-1.276-23.89-13.034-24.171-25.628a26 26 0 0 1-.006-2.064c0-.003.502-.006.753-.009.202-.002.539-.005.818-.006.285-.002.491-.002.688-.002s.402 0 .688.002c.279.001.615.004.818.006.251.002.753.005.753.007.025.574.072 1.138.141 1.705 1.091 10.336 10.387 18.536 20.09 18.632a21 21 0 0 0 1.606-.013 3.53 3.53 0 0 1 2.662 1.028c.706.705 1.103 1.698 1.103 2.737s-.397 2.032-1.103 2.737a3.53 3.53 0 0 1-2.662 1.028"/><path fill="#1c2554" d="M176.253 161.145a7.53 7.53 0 1 1 0 15.06 7.53 7.53 0 0 1 0-15.06m-22.59-22.591a7.53 7.53 0 1 1 0 15.06 7.53 7.53 0 0 1 0-15.06"/><path fill="#1a5866" d="M180.771 120.482q.976 0 1.93.088c.747.068 1.291.716 1.282 1.466l-.107 8.912c-.013 1.036-1.056 1.754-2.086 1.638a9 9 0 0 0-1.019-.056 9.02 9.02 0 0 0-7.033 3.364q-.305-.416-.609-.834a215 215 0 0 1-6.363-9.254 21 21 0 0 1 14.005-5.324"/></g><defs><linearGradient id="b" x1="157.649" x2="222.609" y1="26.449" y2="138.963" gradientUnits="userSpaceOnUse"><stop stop-color="#e68800"/><stop offset="1" stop-color="#d7cb42"/></linearGradient><linearGradient id="e" x1="94.928" x2="117.518" y1="164.91" y2="221.385" gradientUnits="userSpaceOnUse"><stop stop-color="#768aea"/><stop offset="1" stop-color="#526ae0"/></linearGradient><linearGradient id="f" x1="113" x2="45.229" y1="209.337" y2="209.337" gradientUnits="userSpaceOnUse"><stop stop-color="#768aea"/><stop offset="1" stop-color="#c4cdf8"/></linearGradient><linearGradient id="g" x1="123.542" x2="136.343" y1="128.765" y2="103.163" gradientUnits="userSpaceOnUse"><stop stop-color="#768aea"/><stop offset="1" stop-color="#e60023"/></linearGradient><linearGradient id="h" x1="145.38" x2="125.801" y1="150.602" y2="125.753" gradientUnits="userSpaceOnUse"><stop stop-color="#768aea"/><stop offset="1" stop-color="#9baaf3"/></linearGradient><linearGradient id="i" x1="193.572" x2="219.175" y1="198.795" y2="185.994" gradientUnits="userSpaceOnUse"><stop stop-color="#768aea"/><stop offset="1" stop-color="#e60023"/></linearGradient><linearGradient id="j" x1="171.735" x2="196.584" y1="176.958" y2="196.536" gradientUnits="userSpaceOnUse"><stop stop-color="#768aea"/><stop offset="1" stop-color="#9baaf3"/></linearGradient><radialGradient id="c" cx="0" cy="0" r="1" gradientTransform="rotate(45 51.576 321.989)scale(97.3844)" gradientUnits="userSpaceOnUse"><stop stop-color="#e68800"/><stop offset="1" stop-color="#d7cb42"/></radialGradient><radialGradient id="d" cx="0" cy="0" r="1" gradientTransform="rotate(105 95.814 124.667)scale(146.837 343.04)" gradientUnits="userSpaceOnUse"><stop stop-color="#bd5f00"/><stop offset="1" stop-color="#d7cb42"/></radialGradient><clipPath id="a"><path fill="#fff" d="M0 0h375v250H0z"/></clipPath></defs></svg>