<svg xmlns="http://www.w3.org/2000/svg" width="375" height="250" fill="none" viewBox="0 0 375 250"><g clip-path="url(#a)"><path fill="#402970" d="M0 0h375v250H0z"/><path fill="url(#b)" d="m297.072 150.241-33.445 23.816 19.487 8.775 1.413.635-.661 1.984-1.512-.34-26.051-5.838-143.165 101.951-4.85-6.809 50.866-36.224 3.936-35.032.226-2.014 2.09.071.085 2.026 1.269 29.533 125.463-89.344z"/><path fill="url(#c)" d="M200.823 119.384 167.79-48.641a10.342 10.342 0 0 0-19.127-3.134l-2.113 3.7a81.9 81.9 0 0 0-9.243 56.422l3.781 19.231a43 43 0 0 0 5.685 14.433l48.769 78.411z"/><path fill="url(#d)" d="M200.823 119.384 167.79-48.641a10.342 10.342 0 0 0-19.127-3.134l-2.113 3.7a81.9 81.9 0 0 0-9.243 56.422l3.781 19.231a43 43 0 0 0 5.685 14.433l48.769 78.411z"/><path fill="url(#e)" d="M200.823 119.384 167.79-48.641a10.342 10.342 0 0 0-19.127-3.134l-2.113 3.7a81.9 81.9 0 0 0-9.243 56.422l3.781 19.231a43 43 0 0 0 5.685 14.433l48.769 78.411z"/><path fill="url(#f)" d="M172.484 60.346c-2.969-7.02-10.862-10.437-17.944-7.957l-.026-15.55A101 101 0 0 0 144.5-6.849l-7.392-15.341a84 84 0 0 0-.398 2.384l6.534 13.562a99.6 99.6 0 0 1 9.877 43.086l.025 15.415 1.083 1.741c6.582-2.78 14.184.296 16.972 6.89l25.107 59.384 1.397-.275z"/><path fill="url(#g)" d="M166.836 2.319a51.4 51.4 0 0 0-27.746-32.841q-.2.677-.388 1.357a50 50 0 0 1 26.791 31.856l32.444 117.26 1.372-.269z"/><path fill="url(#h)" d="M168.167-8.538a83.77 83.77 0 0 1-11.461-48.407q-.527.049-1.057.153c-.12.023-.238.053-.356.08a85.17 85.17 0 0 0 11.674 48.883l7.32 12.379 1.199-.71z"/><path fill="url(#i)" d="M167.79-48.64c-.873-4.44-4.466-7.65-8.707-8.246l39.176 176.774 2.564-.504z"/><path fill="url(#j)" d="M202.948 116.359 125.99-51.285a11.781 11.781 0 0 0-22.475 5.505l2.415 48.184a139.35 139.35 0 0 0 34.871 85.429l1.541 1.74a44.6 44.6 0 0 0 19.022 12.647z"/><path fill="url(#k)" d="M202.948 116.359 125.99-51.285a11.781 11.781 0 0 0-22.475 5.505l2.415 48.184a139.35 139.35 0 0 0 34.871 85.429l1.541 1.74a44.6 44.6 0 0 0 19.022 12.647z"/><path fill="url(#l)" d="M202.948 116.359 125.99-51.285a11.781 11.781 0 0 0-22.475 5.505l2.415 48.184a139.35 139.35 0 0 0 34.871 85.429l1.541 1.74a44.6 44.6 0 0 0 19.022 12.647z"/><path fill="url(#m)" d="M180.169 85.306a32.75 32.75 0 0 1-29.619-14.058l-2.061-2.99c-6.874-9.976-18.351-15.376-30.036-14.716q.314.684.636 1.367c11.014-.434 21.768 4.73 28.253 14.14l2.06 2.99a34.14 34.14 0 0 0 30.878 14.656l4.622-.376-.113-1.389z"/><path fill="url(#n)" d="M180.045 74.764a26.04 26.04 0 0 1-23.726-14.2L140.612 29.79c-6.672-13.073-20.44-19.837-33.945-18.447q.08.693.167 1.384c12.947-1.323 26.141 5.164 32.537 17.695l15.706 30.777a27.44 27.44 0 0 0 24.996 14.96z"/><path fill="url(#o)" d="M187.161 92.935a30.65 30.65 0 0 1-25.004-.118l-5.515-2.495a34.14 34.14 0 0 0-16.257-2.964q.207.238.416.476l.766.864a32.74 32.74 0 0 1 14.501 2.894l5.515 2.495a32.04 32.04 0 0 0 26.14.122z"/><path fill="url(#p)" d="M164.433 35.893a16.57 16.57 0 0 1-14.967-9.679l-23.911-52.318c-3.977-8.7-14.382-10.73-21.358-6.087l.083 1.657c6.291-4.822 16.277-3.152 20.008 5.009l23.912 52.32a17.96 17.96 0 0 0 16.224 10.492z"/><path fill="url(#q)" d="M125.991-51.284a11.75 11.75 0 0 0-5.791-5.788l2.753 6.351 69.786 161.04 1.307 3.014 8.902 3.026z"/><path fill="#b497ed" d="M149.443 143.763c1.517-1.059 3.372-1.451 5.178-1.058 1.805.392 3.414 1.537 4.451 3.151s1.411 3.554 1.018 5.358c-.392 1.806-1.519 3.331-3.11 4.27l-4.996 2.952-89.906 53.139-4.995 2.951a2.63 2.63 0 0 1-1.936.279 2.6 2.6 0 0 1-1.594-1.116 2.6 2.6 0 0 1-.352-1.913 2.63 2.63 0 0 1 1.057-1.645l4.759-3.319 85.668-59.73z"/><path fill="#9270d7" d="M180.835 94.266a44.59 44.59 0 0 1 44.437 21.914L195.5 133.367l18.651 32.306c.127.22.312.4.534.523l32.407 17.893-2.563 1.769-31.191-17.222a4.2 4.2 0 0 1-1.599-1.569l-18.653-32.305-6.009 3.468 8.398 31.908c.062.239.189.456.363.63l28.81 28.812-2.332 1.608-28.45-28.448a4.2 4.2 0 0 1-1.086-1.893l-8.204-31.173-5.163 2.982 4.981 18.003c.12.434.169.884.145 1.333l-2.014 38.26c-.017.324.081.644.274.904l13.398 18.06-2.294 1.583-13.343-17.983a4.18 4.18 0 0 1-.817-2.711l2.014-38.258a1.4 1.4 0 0 0-.049-.445l-4.788-17.307-28.881 16.675a44.6 44.6 0 0 1-5.591-16.475 44.58 44.58 0 0 1 21.912-44.436 44.6 44.6 0 0 1 16.475-5.593M67.818 208.183q-1.293.763-2.585 1.527l-3.216-4.989 2.462-1.717zM85.911 197.488l-2.585 1.529-4.072-6.316 2.463-1.717zM104.003 186.795l-2.584 1.527-4.926-7.639 2.461-1.718zM122.096 176.101l-2.586 1.528-5.779-8.965 2.463-1.717zM140.189 165.408l-2.584 1.527-6.636-10.29 2.463-1.718z"/><path fill="#9270d7" d="M238.09 96.863c4.794-.631 7.666 4.355 6.415 9.026l-.98 3.656c-1.394 5.203-6.743 8.292-11.946 6.898l-3.658-.98c-4.67-1.252-7.552-6.232-4.609-10.068a22.3 22.3 0 0 1 14.778-8.532"/><path fill="#e60023" d="m197.586 221.086-2.27 1.616-4.982-6.715 2.268-1.617zM225.954 200.885l-2.303 1.638-5.994-5.994 2.303-1.64zM248.469 184.851l-2.517 1.792-8.117-4.482 2.517-1.791z"/><path fill="url(#r)" d="M182.589 108.798.429 79.736a11.782 11.782 0 0 0-7.899 21.75l41.417 24.741a139.34 139.34 0 0 0 90.414 18.424l2.302-.316a44.6 44.6 0 0 0 21.08-8.799z"/><path fill="url(#s)" d="M182.589 108.798.429 79.736a11.782 11.782 0 0 0-7.899 21.75l41.417 24.741a139.34 139.34 0 0 0 90.414 18.424l2.302-.316a44.6 44.6 0 0 0 21.08-8.799z"/><path fill="url(#t)" d="M182.589 108.798.429 79.736a11.782 11.782 0 0 0-7.899 21.75l41.417 24.741a139.34 139.34 0 0 0 90.414 18.424l2.302-.316a44.6 44.6 0 0 0 21.08-8.799z"/><path fill="url(#u)" d="M144.115 110.505a32.75 32.75 0 0 1-28.136 16.831l-3.631.053c-12.114.18-22.977 6.728-28.915 16.812q.744.12 1.49.231c5.754-9.402 16.019-15.48 27.446-15.649l3.63-.054a34.14 34.14 0 0 0 29.333-17.546l2.253-4.052-1.218-.677z"/><path fill="url(#v)" d="M135.278 104.756a26.05 26.05 0 0 1-24.982 11.85l-34.318-4.022c-14.577-1.708-27.846 5.989-34.188 17.992q.621.319 1.244.63c6.087-11.503 18.808-18.876 32.782-17.238l34.317 4.023a27.44 27.44 0 0 0 26.32-12.486z"/><path fill="url(#w)" d="M154.342 108.925a30.65 30.65 0 0 1-13.979 20.731l-5.138 3.202a34.1 34.1 0 0 0-11.49 11.876q.313-.04.626-.082l1.145-.157a32.74 32.74 0 0 1 10.457-10.455l5.137-3.201a32.04 32.04 0 0 0 14.613-21.674z"/><path fill="url(#x)" d="M94.28 96.16a16.56 16.56 0 0 1-16.359 7.075l-56.79-9.157c-9.444-1.522-16.908 6.005-16.92 14.385l1.424.85c-.517-7.909 6.415-15.288 15.274-13.86L77.7 104.61a17.96 17.96 0 0 0 17.735-7.67z"/><path fill="url(#y)" d="M.43 79.736a11.75 11.75 0 0 0-8.03 1.602l6.812 1.238 172.686 31.36 3.232.586 7.459-5.724z"/><path fill="#e68800" d="M220.098 95.279c6.157 0 11.148 4.991 11.148 11.147s-4.991 11.148-11.148 11.148c-6.156 0-11.147-4.991-11.147-11.148 0-6.156 4.991-11.147 11.147-11.147M242.393 84.131c6.157 0 11.148 4.991 11.148 11.148 0 6.156-4.991 11.147-11.148 11.147-6.156 0-11.147-4.991-11.147-11.147s4.991-11.148 11.147-11.148"/><path fill="#2f1e52" d="M222.188 100.852a6.27 6.27 0 1 1 0 12.542 6.27 6.27 0 0 1 0-12.542M241.697 91.098a6.27 6.27 0 1 1 0 12.54 6.27 6.27 0 0 1 0-12.54"/><path fill="url(#z)" d="M186.495 102.814 17.258-5.562C10.49-9.896 1.489-7.923-2.845-1.155A14.55 14.55 0 0 0-4.798 9.84l.796 3.598A97.6 97.6 0 0 0 38.656 74.53l16.178 10.36a44.6 44.6 0 0 0 17.029 6.483l110.665 17.635z"/><path fill="url(#A)" d="M186.495 102.814 17.258-5.562C10.49-9.896 1.489-7.923-2.845-1.155A14.55 14.55 0 0 0-4.798 9.84l.796 3.598A97.6 97.6 0 0 0 38.656 74.53l16.178 10.36a44.6 44.6 0 0 0 17.029 6.483l110.665 17.635z"/><path fill="url(#B)" d="M186.495 102.814 17.258-5.562C10.49-9.896 1.489-7.923-2.845-1.155A14.55 14.55 0 0 0-4.798 9.84l.796 3.598A97.6 97.6 0 0 0 38.656 74.53l16.178 10.36a44.6 44.6 0 0 0 17.029 6.483l110.665 17.635z"/><path fill="url(#C)" d="M113.035 82.091c-9.924-3.438-20.77 1.242-25.134 10.671L74.028 78.749a101.03 101.03 0 0 0-44.061-26.065l-19.443-5.551q.62.911 1.258 1.807l17.804 5.083a99.63 99.63 0 0 1 43.45 25.707l13.91 14.048 1.901.302c3.833-9.27 14.234-13.962 23.732-10.671l70.663 24.485.773-1.206z"/><path fill="url(#D)" d="M60.186 39.342a63.93 63.93 0 0 0-55.429-1.866q.324.62.655 1.233a62.54 62.54 0 0 1 54.127 1.868l124.927 65.406.754-1.178z"/><path fill="url(#E)" d="M49.26 27.154A88.1 88.1 0 0 1-1.893-2.47a15 15 0 0 0-.844 1.156 89.5 89.5 0 0 0 51.744 29.84l17.012 3.144.253-1.37z"/><path fill="url(#F)" d="M17.258-5.562C12.846-8.387 7.488-8.53 3.09-6.415l181.996 111.43 1.409-2.201z"/></g><defs><radialGradient id="c" cx="0" cy="0" r="1" gradientTransform="rotate(258.878 123.82 -26.888)scale(147.023 135.089)" gradientUnits="userSpaceOnUse"><stop offset=".399" stop-color="#d4c4f7"/><stop offset="1" stop-color="#fff" stop-opacity=".3"/></radialGradient><radialGradient id="d" cx="0" cy="0" r="1" gradientTransform="matrix(-32.3856 -2.91053 -2.73136 57.729 179.796 45.913)" gradientUnits="userSpaceOnUse"><stop stop-color="#83c3fc"/><stop offset="1" stop-color="#fde2fd" stop-opacity="0"/></radialGradient><radialGradient id="e" cx="0" cy="0" r="1" gradientTransform="matrix(-35.506 -88.5335 -80.7664 35.5781 201.618 106.692)" gradientUnits="userSpaceOnUse"><stop offset=".1" stop-color="#79d8ec"/><stop offset=".25" stop-color="#70e6c8"/><stop offset=".35" stop-color="#e9de63"/><stop offset=".55" stop-color="#83c3fc" stop-opacity=".5"/><stop offset="1" stop-color="#fde2fd" stop-opacity="0"/></radialGradient><radialGradient id="j" cx="0" cy="0" r="1" gradientTransform="rotate(241.977 127.839 -5.898)scale(181.782 181.781)" gradientUnits="userSpaceOnUse"><stop offset=".1" stop-color="#b497ed"/><stop offset=".7" stop-color="#fde2fd"/><stop offset="1" stop-color="#fff" stop-opacity=".65"/></radialGradient><radialGradient id="k" cx="0" cy="0" r="1" gradientTransform="rotate(-95.03 127.445 -25.755)scale(89.4032)" gradientUnits="userSpaceOnUse"><stop offset=".15" stop-color="#ef7bb5"/><stop offset=".5" stop-color="#fda64f"/><stop offset="1" stop-color="#d4c4f7" stop-opacity="0"/></radialGradient><radialGradient id="l" cx="0" cy="0" r="1" gradientTransform="rotate(191.179 91.653 23.33)scale(49.8745)" gradientUnits="userSpaceOnUse"><stop offset=".1" stop-color="#70e6c8"/><stop offset=".45" stop-color="#fed872"/><stop offset="1" stop-color="#fde2fd" stop-opacity="0"/></radialGradient><radialGradient id="m" cx="0" cy="0" r="1" gradientTransform="matrix(-60.5118 27.7548 27.778 60.6249 179.831 69.965)" gradientUnits="userSpaceOnUse"><stop stop-color="#dd73dd"/><stop offset="1" stop-color="#b497ed" stop-opacity=".25"/></radialGradient><radialGradient id="n" cx="0" cy="0" r="1" gradientTransform="matrix(-60.5118 27.7548 27.778 60.6249 179.831 69.965)" gradientUnits="userSpaceOnUse"><stop stop-color="#dd73dd"/><stop offset="1" stop-color="#b497ed" stop-opacity=".25"/></radialGradient><radialGradient id="o" cx="0" cy="0" r="1" gradientTransform="matrix(-60.5118 27.7548 27.778 60.6249 179.831 69.965)" gradientUnits="userSpaceOnUse"><stop stop-color="#dd73dd"/><stop offset="1" stop-color="#b497ed" stop-opacity=".25"/></radialGradient><radialGradient id="p" cx="0" cy="0" r="1" gradientTransform="matrix(-60.5118 27.7548 27.778 60.6249 179.831 69.965)" gradientUnits="userSpaceOnUse"><stop stop-color="#dd73dd"/><stop offset="1" stop-color="#b497ed" stop-opacity=".25"/></radialGradient><radialGradient id="r" cx="0" cy="0" r="1" gradientTransform="rotate(185.699 86.242 50.955)scale(181.782 181.781)" gradientUnits="userSpaceOnUse"><stop offset=".1" stop-color="#b497ed"/><stop offset=".7" stop-color="#fde2fd"/><stop offset="1" stop-color="#fff" stop-opacity=".65"/></radialGradient><radialGradient id="s" cx="0" cy="0" r="1" gradientTransform="rotate(208.692 90.106 46.896)scale(89.4032)" gradientUnits="userSpaceOnUse"><stop offset=".15" stop-color="#ef7bb5"/><stop offset=".5" stop-color="#fda64f"/><stop offset="1" stop-color="#d4c4f7" stop-opacity="0"/></radialGradient><radialGradient id="t" cx="0" cy="0" r="1" gradientTransform="rotate(134.901 41.299 76.512)scale(49.8745)" gradientUnits="userSpaceOnUse"><stop offset=".1" stop-color="#70e6c8"/><stop offset=".45" stop-color="#fed872"/><stop offset="1" stop-color="#fde2fd" stop-opacity="0"/></radialGradient><radialGradient id="u" cx="0" cy="0" r="1" gradientTransform="matrix(-10.5096 65.7385 65.8455 10.5532 131.167 102.269)" gradientUnits="userSpaceOnUse"><stop stop-color="#dd73dd"/><stop offset="1" stop-color="#b497ed" stop-opacity=".25"/></radialGradient><radialGradient id="v" cx="0" cy="0" r="1" gradientTransform="matrix(-10.5096 65.7385 65.8455 10.5532 131.167 102.269)" gradientUnits="userSpaceOnUse"><stop stop-color="#dd73dd"/><stop offset="1" stop-color="#b497ed" stop-opacity=".25"/></radialGradient><radialGradient id="w" cx="0" cy="0" r="1" gradientTransform="matrix(-10.5096 65.7385 65.8455 10.5532 131.167 102.269)" gradientUnits="userSpaceOnUse"><stop stop-color="#dd73dd"/><stop offset="1" stop-color="#b497ed" stop-opacity=".25"/></radialGradient><radialGradient id="x" cx="0" cy="0" r="1" gradientTransform="matrix(-10.5096 65.7385 65.8455 10.5532 131.167 102.269)" gradientUnits="userSpaceOnUse"><stop stop-color="#dd73dd"/><stop offset="1" stop-color="#b497ed" stop-opacity=".25"/></radialGradient><radialGradient id="z" cx="0" cy="0" r="1" gradientTransform="rotate(212.635 83.697 32.082)scale(174.499 184.644)" gradientUnits="userSpaceOnUse"><stop offset=".399" stop-color="#d4c4f7"/><stop offset="1" stop-color="#fff" stop-opacity=".3"/></radialGradient><radialGradient id="A" cx="0" cy="0" r="1" gradientTransform="matrix(-32.1081 30.1042 45.906 51.8221 105.625 61.51)" gradientUnits="userSpaceOnUse"><stop stop-color="#83c3fc"/><stop offset="1" stop-color="#fde2fd" stop-opacity="0"/></radialGradient><radialGradient id="B" cx="0" cy="0" r="1" gradientTransform="matrix(-106.765 -39.5433 -44.1541 111.492 176.581 91.224)" gradientUnits="userSpaceOnUse"><stop offset=".1" stop-color="#79d8ec"/><stop offset=".25" stop-color="#70e6c8"/><stop offset=".35" stop-color="#e9de63"/><stop offset=".55" stop-color="#83c3fc" stop-opacity=".5"/><stop offset="1" stop-color="#fde2fd" stop-opacity="0"/></radialGradient><linearGradient id="b" x1="241.697" x2="153.213" y1="192.82" y2="259.008" gradientUnits="userSpaceOnUse"><stop stop-color="#fda64f"/><stop offset="1" stop-color="#bd5f00"/></linearGradient><linearGradient id="f" x1="198.863" x2="139.851" y1="119.77" y2="-53.229" gradientUnits="userSpaceOnUse"><stop stop-color="#9270d7"/><stop offset="1" stop-color="#b497ed" stop-opacity=".25"/></linearGradient><linearGradient id="g" x1="198.863" x2="139.851" y1="119.77" y2="-53.229" gradientUnits="userSpaceOnUse"><stop stop-color="#9270d7"/><stop offset="1" stop-color="#b497ed" stop-opacity=".25"/></linearGradient><linearGradient id="h" x1="198.863" x2="139.851" y1="119.77" y2="-53.229" gradientUnits="userSpaceOnUse"><stop stop-color="#9270d7"/><stop offset="1" stop-color="#b497ed" stop-opacity=".25"/></linearGradient><linearGradient id="i" x1="197.412" x2="162.494" y1="120.055" y2="-57.557" gradientUnits="userSpaceOnUse"><stop stop-color="#2086df"/><stop offset="1" stop-color="#f8bef8"/></linearGradient><linearGradient id="q" x1="191.161" x2="131.988" y1="120.209" y2="-60.923" gradientUnits="userSpaceOnUse"><stop stop-color="#5c3ba0"/><stop offset="1" stop-color="#b497ed"/></linearGradient><linearGradient id="y" x1="179.248" x2="-4.258" y1="120.739" y2="69.397" gradientUnits="userSpaceOnUse"><stop stop-color="#5c3ba0"/><stop offset="1" stop-color="#b497ed"/></linearGradient><linearGradient id="C" x1="184.89" x2="-10.773" y1="105.321" y2="10.611" gradientUnits="userSpaceOnUse"><stop stop-color="#9270d7"/><stop offset="1" stop-color="#b497ed" stop-opacity=".25"/></linearGradient><linearGradient id="D" x1="184.89" x2="-10.773" y1="105.321" y2="10.611" gradientUnits="userSpaceOnUse"><stop stop-color="#9270d7"/><stop offset="1" stop-color="#b497ed" stop-opacity=".25"/></linearGradient><linearGradient id="E" x1="184.89" x2="-10.773" y1="105.321" y2="10.611" gradientUnits="userSpaceOnUse"><stop stop-color="#9270d7"/><stop offset="1" stop-color="#b497ed" stop-opacity=".25"/></linearGradient><linearGradient id="F" x1="184.629" x2="4.956" y1="105.729" y2="-9.33" gradientUnits="userSpaceOnUse"><stop stop-color="#2086df"/><stop offset="1" stop-color="#f8bef8"/></linearGradient><clipPath id="a"><path fill="#fff" d="M0 0h375v250H0z"/></clipPath></defs></svg>