<svg width="375" height="250" viewBox="0 0 375 250" fill="none" xmlns="http://www.w3.org/2000/svg">
<g clip-path="url(#clip0_2583_241177)">
<rect width="375" height="250" fill="#186250"/>
<path d="M192.222 76.1104C196.925 69.5685 205.819 67.6544 212.796 71.6828L269.701 104.537C276.679 108.565 279.468 117.225 276.154 124.569L271.187 135.575L185.174 85.915L192.222 76.1104Z" fill="url(#paint0_linear_2583_241177)"/>
<path d="M361.939 67.2504C335.957 112.254 278.411 127.673 233.407 101.69C188.403 75.7076 172.984 18.1618 198.967 -26.8419C224.95 -71.8455 282.496 -87.2648 327.499 -61.282C372.503 -35.2991 387.922 22.2467 361.939 67.2504Z" fill="url(#paint1_linear_2583_241177)"/>
<path d="M101.817 167.563C103.982 163.813 108.778 162.528 112.528 164.693L239.284 237.876C243.035 240.041 244.32 244.837 242.154 248.587L241.501 249.719L101.164 168.695L101.817 167.563Z" fill="#223077"/>
<path d="M169.15 89.9952C173.846 83.4303 182.757 81.5013 189.747 85.5369L269.227 131.425C276.217 135.46 279.002 144.142 275.664 151.491L237.021 236.569L114.792 166L169.15 89.9952Z" fill="url(#paint2_linear_2583_241177)"/>
<path d="M205.1 124.582L182.465 111.514L158.942 152.257L226.848 191.462L250.371 150.719L227.736 137.65L225.122 142.177C222.235 147.178 215.841 148.891 210.84 146.004L206.313 143.39C201.313 140.503 199.6 134.109 202.487 129.109L205.1 124.582Z" fill="#1F6BAD"/>
<path d="M205.102 124.581L227.737 137.65L225.123 142.177C222.236 147.177 215.842 148.89 210.842 146.004L206.315 143.39C201.314 140.503 199.601 134.109 202.488 129.108L205.102 124.581Z" fill="#223077"/>
<path d="M180.27 167.589C183.157 162.589 189.551 160.875 194.552 163.762L199.079 166.376C204.079 169.263 205.792 175.657 202.905 180.657L197.678 189.711C194.791 194.712 188.397 196.425 183.397 193.538L178.87 190.924C173.869 188.037 172.156 181.643 175.043 176.643L180.27 167.589Z" fill="#1C2554"/>
<path d="M170.517 174.029L129.773 150.506C126.023 148.34 121.228 149.625 119.062 153.376L112.528 164.693L239.285 237.876L245.819 226.558C247.984 222.808 246.699 218.013 242.949 215.847L202.206 192.324C197.875 199.825 188.284 202.395 180.784 198.064L176.257 195.451C168.756 191.12 166.186 181.529 170.517 174.029Z" fill="url(#paint3_linear_2583_241177)"/>
<path d="M191.827 162.661C192.761 162.892 193.678 163.256 194.553 163.761L199.08 166.375C204.081 169.262 205.794 175.656 202.907 180.656L198.986 187.448C196.274 187.776 193.437 187.261 190.889 185.79C184.638 182.181 182.497 174.189 186.106 167.938C187.486 165.548 189.507 163.758 191.827 162.661Z" fill="#A13012"/>
<path d="M277.059 114.254C262.177 113.73 247.203 109.656 233.407 101.691C219.612 93.7261 208.597 82.7956 200.702 70.1696C204.646 69.0593 209.004 69.4934 212.796 71.6828L269.701 104.537C273.493 106.726 276.049 110.284 277.059 114.254Z" fill="#79D8EC"/>
<path d="M297.579 105.542C293.97 111.793 285.977 113.934 279.727 110.325C273.476 106.717 271.335 98.7242 274.943 92.4737C278.552 86.2232 286.545 84.0817 292.795 87.6904C299.046 91.2991 301.187 99.2916 297.579 105.542Z" fill="#E68800"/>
<path d="M323.049 100.631C319.44 106.881 311.448 109.023 305.197 105.414C298.947 101.806 296.805 93.8131 300.414 87.5626C304.022 81.3121 312.015 79.1705 318.265 82.7793C324.516 86.388 326.657 94.3805 323.049 100.631Z" fill="#13434E"/>
<path d="M274.945 92.4734C271.336 98.7239 263.344 100.866 257.093 97.2568C250.843 93.6481 248.701 85.6556 252.31 79.4051C255.918 73.1546 263.911 71.013 270.161 74.6217C276.412 78.2305 278.553 86.2229 274.945 92.4734Z" fill="#2086DF"/>
<path d="M302.062 91.4292C298.453 97.6797 290.461 99.8213 284.21 96.2125C277.96 92.6038 275.818 84.6113 279.427 78.3608C283.036 72.1103 291.028 69.9687 297.279 73.5775C303.529 77.1862 305.671 85.1787 302.062 91.4292Z" fill="#E9DE63"/>
<path d="M330.812 75.7469C327.203 81.9974 319.211 84.139 312.96 80.5303C306.71 76.9216 304.568 68.9291 308.177 62.6786C311.786 56.4281 319.778 54.2865 326.029 57.8952C332.279 61.504 334.421 69.4964 330.812 75.7469Z" fill="#83C3FC"/>
<path d="M324.801 71.4616C328.41 65.2111 336.402 63.0695 342.653 66.6783C348.903 70.287 351.045 78.2795 347.436 84.53C343.827 90.7805 335.835 92.9221 329.584 89.3133C323.334 85.7046 321.192 77.7121 324.801 71.4616Z" fill="#FDBF81"/>
<path d="M343.177 58.9076C339.568 65.1581 331.576 67.2997 325.325 63.6909C319.075 60.0822 316.933 52.0897 320.542 45.8392C324.151 39.5887 332.143 37.4471 338.394 41.0559C344.644 44.6646 346.786 52.6571 343.177 58.9076Z" fill="#6B246B"/>
<path d="M345.372 37.553C348.98 31.3025 356.973 29.1609 363.223 32.7696C369.474 36.3783 371.615 44.3708 368.007 50.6213C364.398 56.8718 356.406 59.0134 350.155 55.4047C343.905 51.7959 341.763 43.8035 345.372 37.553Z" fill="#FA5F2E"/>
<path d="M252.31 79.4055C248.701 85.656 240.709 87.7976 234.458 84.1889C228.208 80.5801 226.066 72.5876 229.675 66.3371C233.284 60.0866 241.276 57.9451 247.527 61.5538C253.777 65.1625 255.919 73.155 252.31 79.4055Z" fill="#1A5866"/>
<path d="M280.826 66.9262C277.217 73.1767 269.224 75.3183 262.974 71.7096C256.723 68.1009 254.582 60.1084 258.191 53.8579C261.799 47.6074 269.792 45.4658 276.042 49.0745C282.293 52.6833 284.434 60.6757 280.826 66.9262Z" fill="#C856C8"/>
<path d="M306.962 65.2926C303.354 71.5431 295.361 73.6846 289.111 70.0759C282.86 66.4672 280.719 58.4747 284.327 52.2242C287.936 45.9737 295.928 43.8321 302.179 47.4408C308.429 51.0496 310.571 59.0421 306.962 65.2926Z" fill="#45C5DE"/>
<path d="M229.674 66.3368C226.065 72.5873 218.073 74.7289 211.822 71.1202C205.572 67.5115 203.43 59.519 207.039 53.2685C210.648 47.018 218.64 44.8764 224.891 48.4851C231.141 52.0939 233.283 60.0863 229.674 66.3368Z" fill="#DA3C0B"/>
<path d="M252.426 53.1532C248.817 59.4037 240.825 61.5453 234.574 57.9366C228.324 54.3278 226.182 46.3353 229.791 40.0848C233.4 33.8343 241.392 31.6928 247.643 35.3015C253.893 38.9102 256.035 46.9027 252.426 53.1532Z" fill="#FDA64F"/>
<path d="M217.118 56.1443C213.509 62.3948 205.516 64.5364 199.266 60.9276C193.015 57.3189 190.874 49.3264 194.483 43.0759C198.091 36.8254 206.084 34.6838 212.334 38.2926C218.585 41.9013 220.726 49.8938 217.118 56.1443Z" fill="#988C1B"/>
<path d="M321.85 43.5754C318.242 49.8259 310.249 51.9674 303.999 48.3587C297.748 44.75 295.607 36.7575 299.215 30.507C302.824 24.2565 310.817 22.1149 317.067 25.7236C323.318 29.3324 325.459 37.3249 321.85 43.5754Z" fill="#776F0D"/>
<path d="M348.336 33.3524C344.727 39.6029 336.735 41.7445 330.484 38.1358C324.234 34.527 322.092 26.5346 325.701 20.2841C329.309 14.0336 337.302 11.892 343.552 15.5007C349.803 19.1094 351.945 27.1019 348.336 33.3524Z" fill="#E60023"/>
<path d="M278.539 50.9171C274.93 57.1676 266.938 59.3092 260.687 55.7005C254.437 52.0917 252.295 44.0993 255.904 37.8488C259.513 31.5983 267.505 29.4567 273.756 33.0654C280.006 36.6741 282.148 44.6666 278.539 50.9171Z" fill="#DD73DD"/>
<path d="M127.834 236.932C127.834 244.15 121.983 250 114.766 250C107.548 250 101.697 244.15 101.697 236.932C101.697 229.715 107.548 223.864 114.766 223.864C121.983 223.864 127.834 229.715 127.834 236.932Z" fill="#988C1B"/>
<path d="M153.971 236.932C153.971 244.15 148.12 250 140.902 250C133.685 250 127.834 244.15 127.834 236.932C127.834 229.715 133.685 223.864 140.902 223.864C148.12 223.864 153.971 229.715 153.971 236.932Z" fill="#DD73DD"/>
<path d="M319.067 236.932C319.067 244.15 313.216 250 305.999 250C298.782 250 292.931 244.15 292.931 236.932C292.931 229.715 298.782 223.864 305.999 223.864C313.216 223.864 319.067 229.715 319.067 236.932Z" fill="#FA5F2E"/>
<path d="M278.238 88.6876C282.311 85.5243 288.054 84.9531 292.795 87.6904C295.787 89.418 297.838 92.1503 298.767 95.2152C294.695 98.3785 288.951 98.9497 284.21 96.2124C281.218 94.4847 279.167 91.7524 278.238 88.6876Z" fill="#DA3C0B"/>
<path d="M323.565 81.6313C326.517 80.6648 329.137 78.6487 330.812 75.7473C332.663 72.5402 333.001 68.8744 332.047 65.5776C329.095 66.5441 326.475 68.5602 324.8 71.4616C322.949 74.6687 322.611 78.3345 323.565 81.6313Z" fill="#BA8221"/>
<path d="M332.008 65.4426C329.739 65.4704 327.433 64.9073 325.326 63.6906C322.326 61.9587 320.273 59.2172 319.347 56.1432C321.616 56.1154 323.921 56.6785 326.029 57.8952C329.029 59.6271 331.082 62.3686 332.008 65.4426Z" fill="#C856C8"/>
<path d="M205.609 62.6795C210.188 62.7424 214.665 60.3923 217.118 56.1444C218.828 53.1813 219.247 49.8268 218.548 46.7333C213.969 46.6705 209.492 49.0206 207.039 53.2685C205.328 56.2316 204.91 59.5861 205.609 62.6795Z" fill="#5E1741"/>
<path d="M258.2 53.8416C261.813 47.6031 269.797 45.4681 276.042 49.0738C276.962 49.6049 277.793 50.2309 278.53 50.9324C274.917 57.1708 266.932 59.3059 260.687 55.7001C259.767 55.169 258.936 54.543 258.2 53.8416Z" fill="#6B246B"/>
<path d="M298.714 95.2566C300.033 94.2431 301.179 92.9592 302.062 91.4292C303.46 89.0073 303.995 86.3239 303.762 83.7353C302.444 84.7488 301.297 86.0326 300.414 87.5626C299.016 89.9845 298.481 92.668 298.714 95.2566Z" fill="#9FC157"/>
<path d="M55.1367 236.932C55.1367 244.15 49.2858 250 42.0684 250C34.8509 250 29 244.15 29 236.932C29 229.715 34.8509 223.864 42.0684 223.864C49.2858 223.864 55.1367 229.715 55.1367 236.932Z" fill="#E60023"/>
</g>
<defs>
<linearGradient id="paint0_linear_2583_241177" x1="213.432" y1="69.6574" x2="185.422" y2="124.109" gradientUnits="userSpaceOnUse">
<stop stop-color="#2086DF"/>
<stop offset="0.65" stop-color="#1A5866"/>
</linearGradient>
<linearGradient id="paint1_linear_2583_241177" x1="295.396" y1="-65.2298" x2="213.719" y2="76.2394" gradientUnits="userSpaceOnUse">
<stop stop-color="white" stop-opacity="0.65"/>
<stop offset="1" stop-color="#E5F7FA"/>
</linearGradient>
<linearGradient id="paint2_linear_2583_241177" x1="229.487" y1="108.481" x2="175.907" y2="201.285" gradientUnits="userSpaceOnUse">
<stop stop-color="#59AAF3"/>
<stop offset="1" stop-color="#ED96ED"/>
</linearGradient>
<linearGradient id="paint3_linear_2583_241177" x1="194.308" y1="181.87" x2="180.979" y2="204.087" gradientUnits="userSpaceOnUse">
<stop stop-color="#9270D7"/>
<stop offset="1" stop-color="#2A3FA7"/>
</linearGradient>
<clipPath id="clip0_2583_241177">
<rect width="375" height="250" fill="white"/>
</clipPath>
</defs>
</svg>
