<svg width="220" height="220" viewBox="0 0 220 220" fill="none" xmlns="http://www.w3.org/2000/svg">
<circle cx="110" cy="110" r="95" fill="#8F2459"/>
<path d="M179.29 169.429C180.769 169.429 182.183 169.706 183.486 170.207C166.064 191.447 139.615 205 110 205C80.0987 205 53.4239 191.186 36.0098 169.591C36.6388 169.486 37.2847 169.429 37.9434 169.429H179.29Z" fill="url(#paint0_radial_2579_234705)"/>
<path d="M24.3016 1.93987C22.2526 3.12288 21.5757 5.7586 22.8011 7.78254L47.3653 48.3532L47.2443 48.4231C42.817 50.9792 41.5738 56.8044 44.5719 60.9452L57.3916 78.651L74.1905 68.9522L65.2667 48.9971C63.1798 44.3302 57.5134 42.4942 53.086 45.0504L52.9649 45.1203L30.1118 3.56174C28.9717 1.48852 26.3507 0.756866 24.3016 1.93987Z" fill="url(#paint1_linear_2579_234705)"/>
<path d="M107.677 19.5618C107.608 13.6964 107.001 7.67404 102.532 3.94971C101.738 3.28786 100.798 3.87185 99.6955 4.5571C98.7392 5.1514 97.6603 5.82186 96.4475 5.82186V0.20542C107.175 -1.78108 109.133 11.0852 109.48 19.5887C110.672 19.1604 111.957 18.9269 113.297 18.9269C119.5 18.9269 124.53 23.9311 124.53 30.1042C124.609 51.4005 92.7831 51.3915 92.7032 30.1042C92.7032 23.9311 97.7324 18.9269 103.936 18.9269C105.248 18.9269 106.507 19.1506 107.677 19.5618Z" fill="#E60023"/>
<path d="M87.4519 37.4132C84.108 36.7087 80.6664 38.0677 78.7058 40.8666C77.7635 42.2119 77.2743 43.6771 77.1691 45.129C77.1339 45.6138 76.7796 46.0282 76.3001 46.1077C67.6703 47.5371 61.1695 55.1736 61.4539 64.2123C61.7559 73.8124 69.6256 81.4385 79.2304 81.4385H138.003C147.607 81.4385 155.477 73.8124 155.779 64.2122C156.079 54.6744 148.824 46.6978 139.484 45.9284C138.944 45.8839 138.531 45.4143 138.524 44.8717C138.496 42.5117 137.557 40.1195 135.499 38.2397C133.056 36.0098 129.612 35.2724 126.394 36.0344C122.382 36.9842 116.841 37.9781 112.829 37.4431C109.413 36.9877 107.549 35.5354 105.996 34.3255C104.358 33.0501 103.067 32.0442 100.669 32.76C100.664 32.7615 100.661 32.7667 100.662 32.7715C100.692 32.8847 100.719 32.998 100.742 33.1112C101.601 37.3853 96.1794 39.2517 91.9135 38.353L87.4519 37.4132Z" fill="url(#paint2_linear_2579_234705)"/>
<path d="M66.3406 51.3986C63.1829 54.7196 61.2979 59.255 61.4539 64.2122C61.5726 67.9873 62.8616 71.4572 64.9662 74.2782L74.1906 68.9525L66.3406 51.3986Z" fill="#FDBF81"/>
<path d="M123.355 36.6904C118.632 48.5495 100.99 49.165 94.8364 38.5472C98.2722 38.3071 101.41 36.4389 100.742 33.1112C100.719 32.998 100.692 32.8847 100.662 32.7715C100.661 32.7667 100.664 32.7615 100.669 32.76C103.067 32.0442 104.358 33.0501 105.996 34.3255C107.549 35.5354 109.413 36.9877 112.829 37.4431C115.899 37.8524 119.864 37.3667 123.355 36.6904Z" fill="#FEDDED"/>
<path d="M100.192 98.2877C100.192 88.1089 104.235 78.3471 111.433 71.1496C118.63 63.9522 128.392 59.9087 138.571 59.9087C148.75 59.9087 158.511 63.9522 165.709 71.1496C172.906 78.3471 176.95 88.1089 176.95 98.2877L100.192 98.2877Z" fill="#70E6C8"/>
<path d="M40.2831 98.2877H176.95L165.717 169.429H51.516L40.2831 98.2877Z" fill="url(#paint3_linear_2579_234705)"/>
<path d="M61.3448 117.009C58.5014 117.009 56.1964 114.704 56.1964 111.861C56.1964 111.084 56.3242 110.293 56.5711 109.545C57.5564 106.559 59.9407 103.692 59.9407 100.549V100.16C59.9407 99.1258 59.1025 98.2877 58.0686 98.2877H65.0098C63.7611 98.2877 62.7489 99.2999 62.7489 100.549C62.7489 103.692 65.1332 106.559 66.1185 109.545C66.3654 110.293 66.4932 111.084 66.4932 111.861C66.4932 114.704 64.1882 117.009 61.3448 117.009Z" fill="#FDC4E1"/>
<path d="M135.763 102.032V169.429H142.315V102.032C142.315 99.964 143.991 98.2877 146.059 98.2877H132.018C134.086 98.2877 135.763 99.964 135.763 102.032Z" fill="#70E6C8"/>
<path d="M131.99 98.2878H129.083L128.274 95.2703L130.987 94.5435L131.99 98.2878Z" fill="#13493C"/>
<path d="M149.085 98.2878H145.842L147.463 95.4796L149.895 96.8837L149.085 98.2878Z" fill="#13493C"/>
<path d="M176.442 92.0625C176.595 92.9928 176.713 93.9306 176.798 94.8743L172.06 96.1438L171.333 93.4312L176.442 92.0625Z" fill="#13493C"/>
<path d="M169.687 75.8221C170.345 76.7326 170.961 77.6697 171.533 78.6303H166.653V75.8221H169.687Z" fill="#13493C"/>
<path d="M157.661 64.9937C158.473 65.4591 159.269 65.9546 160.046 66.4796L158.138 69.7845L155.706 68.3803L157.661 64.9937Z" fill="#13493C"/>
<path d="M127.51 61.5372L126.306 66.0288L123.594 65.302L124.302 62.66C125.353 62.2388 126.424 61.8641 127.51 61.5372Z" fill="#13493C"/>
<path d="M143.205 67.1343L145.637 68.5384L142.361 74.2131L139.929 72.809L143.205 67.1343Z" fill="#13493C"/>
<path d="M148.867 86.1189H151.676V79.5664H148.867V86.1189Z" fill="#13493C"/>
<path d="M160.02 83.2774L162.006 85.2631L157.372 89.8964L155.387 87.9107L160.02 83.2774Z" fill="#13493C"/>
<path d="M118.866 82.3746L120.852 84.3603L116.219 88.9936L114.233 87.0079L118.866 82.3746Z" fill="#13493C"/>
<path d="M115.637 69.2696L114.233 71.7016L119.907 74.9778L121.312 72.5458L115.637 69.2696Z" fill="#13493C"/>
<path d="M131.082 85.0871L131.809 82.3746L138.138 84.0705L137.411 86.783L131.082 85.0871Z" fill="#13493C"/>
<path d="M105.8 71.1496C108.973 74.3222 111.533 77.993 113.403 81.9781C114.603 84.5348 116.983 86.3517 119.424 87.7736C120.321 88.2964 121.155 88.9361 121.902 89.6829C124.184 91.9651 125.466 95.0603 125.466 98.2877L40.2831 98.2877C40.2831 88.1089 44.3266 78.3471 51.5241 71.1496C58.7215 63.9522 68.4834 59.9087 78.6621 59.9087C88.8409 59.9087 98.6027 63.9522 105.8 71.1496Z" fill="#FDC4E1"/>
<path d="M68.3654 129.592C68.3654 131.948 70.2513 133.858 72.5777 133.858C74.9041 133.858 76.79 131.948 76.79 129.592C76.79 127.235 72.5777 120.753 72.5777 120.753C72.5777 120.753 68.3654 127.235 68.3654 129.592Z" fill="#FDC4E1"/>
<defs>
<radialGradient id="paint0_radial_2579_234705" cx="0" cy="0" r="1" gradientUnits="userSpaceOnUse" gradientTransform="translate(46.3676 176.983) scale(142.751 135.524)">
<stop offset="0.101382" stop-color="#FDC4E1"/>
<stop offset="0.266496" stop-color="#D4C4F7"/>
<stop offset="0.422228" stop-color="#C4CDF8"/>
<stop offset="0.626745" stop-color="#70E6C8"/>
</radialGradient>
<linearGradient id="paint1_linear_2579_234705" x1="24.3018" y1="1.93977" x2="65.7912" y2="73.8016" gradientUnits="userSpaceOnUse">
<stop stop-color="#FA5F2E"/>
<stop offset="1" stop-color="#FDA64F"/>
</linearGradient>
<linearGradient id="paint2_linear_2579_234705" x1="106.958" y1="20.835" x2="106.958" y2="79.5819" gradientUnits="userSpaceOnUse">
<stop stop-color="white"/>
<stop offset="1" stop-color="#F9F1E7"/>
</linearGradient>
<linearGradient id="paint3_linear_2579_234705" x1="108.616" y1="98.2877" x2="108.616" y2="169.429" gradientUnits="userSpaceOnUse">
<stop stop-color="#59AAF3"/>
<stop offset="1" stop-color="#2086DF"/>
</linearGradient>
</defs>
</svg>
