<svg xmlns="http://www.w3.org/2000/svg" width="375" height="375" fill="none" viewBox="0 0 375 375"><path fill="#223077" d="M0 0h375v375H0z"/><g clip-path="url(#a)"><path fill="url(#b)" fill-rule="evenodd" d="M187.5 375c98.031 0 177.5-79.469 177.5-177.5C365 99.47 285.531 20 187.5 20 89.47 20 10 99.47 10 197.5 10 295.531 89.47 375 187.5 375m0-17.433c88.403 0 160.067-71.664 160.067-160.067S275.903 37.433 187.5 37.433c-88.402 0-160.067 71.664-160.067 160.067S99.098 357.567 187.5 357.567" clip-rule="evenodd"/><path fill="url(#c)" fill-rule="evenodd" d="M187.5 357.567c88.403 0 160.067-71.664 160.067-160.067S275.903 37.433 187.5 37.433c-88.402 0-160.067 71.664-160.067 160.067S99.098 357.567 187.5 357.567m0-19.018c77.899 0 141.049-63.15 141.049-141.049S265.399 56.45 187.5 56.45 46.451 119.602 46.451 197.5s63.15 141.049 141.049 141.049" clip-rule="evenodd"/><path fill="url(#d)" d="M73.393 362.321h228.214l-26.942-53.883h-174.33z"/><path fill="#e60023" d="M73.393 362.321h228.214c0 7.003-5.676 12.679-12.678 12.679H86.071c-7.002 0-12.678-5.676-12.678-12.679"/><path fill="url(#e)" d="M328.549 197.5c0 77.899-63.15 141.049-141.049 141.049S46.45 275.399 46.45 197.5 109.602 56.45 187.5 56.45s141.049 63.151 141.049 141.05"/><path fill="url(#f)" d="M274.869 168c8.58-4.304 11.482-15.135 6.203-23.153l-.902-1.371a16.02 16.02 0 0 1-2.614-9.761l.096-1.639c.565-9.585-7.361-17.512-16.942-16.947l-1.639.096a16.02 16.02 0 0 1-9.759-2.615l-1.371-.903c-8.015-5.28-18.843-2.377-23.146 6.206l-.736 1.468a16.04 16.04 0 0 1-7.144 7.146l-1.468.736c-8.58 4.304-11.482 15.135-6.204 23.153l.903 1.371a16.03 16.03 0 0 1 2.614 9.761l-.096 1.639c-.565 9.585 7.36 17.513 16.942 16.948l1.639-.097c3.45-.203 6.873.714 9.759 2.615l1.37.903c8.016 5.28 18.844 2.377 23.147-6.206l.736-1.467a16.04 16.04 0 0 1 7.144-7.147z"/><path fill="#939" d="M274.617 308.438c-23.985 18.861-54.237 30.111-87.117 30.111s-63.132-11.25-87.117-30.111z"/><path fill="url(#g)" d="M271.496 145.201c0 14.004-11.353 25.357-25.358 25.357-14.004 0-25.357-11.353-25.357-25.357s11.353-25.357 25.357-25.357c14.005 0 25.358 11.353 25.358 25.357"/><path fill="url(#h)" d="M232.131 131.193c7.736-7.736 20.279-7.736 28.015 0s7.737 20.279 0 28.016L138.115 281.24l-28.016-28.016z" opacity=".75"/><path fill="#c4e0f8" d="M130.446 94.487a1.585 1.585 0 1 0 0-3.17 1.585 1.585 0 0 0 0 3.17M197.009 108.75a1.585 1.585 0 1 1-3.171-.001 1.585 1.585 0 0 1 3.171.001M171.652 118.259a3.17 3.17 0 1 0 0-6.339 3.17 3.17 0 0 0 0 6.339M103.504 165.804a1.585 1.585 0 1 0 0-3.17 1.585 1.585 0 0 0 0 3.17M113.013 170.558a1.585 1.585 0 1 0 0-3.17 1.585 1.585 0 0 0 0 3.17M290.513 246.629a1.584 1.584 0 1 1-3.168.002 1.584 1.584 0 0 1 3.168-.002M263.571 271.987a1.585 1.585 0 1 0 0-3.17 1.585 1.585 0 0 0 0 3.17M255.647 264.062a4.754 4.754 0 1 1-9.509.001 4.754 4.754 0 0 1 9.509-.001M265.156 230.781a3.17 3.17 0 1 0 .001-6.339 3.17 3.17 0 0 0-.001 6.339M93.996 172.143a3.17 3.17 0 1 1-6.34 0 3.17 3.17 0 0 1 6.34 0"/><path fill="#fed872" d="M260.402 144.408c0 7.44-6.031 13.471-13.471 13.471s-13.471-6.031-13.471-13.471c0-7.439 6.031-13.47 13.471-13.47s13.471 6.031 13.471 13.47"/><path fill="#fff" fill-opacity=".8" d="M255.647 142.824a7.131 7.131 0 1 1-14.263 0 7.131 7.131 0 0 1 14.263 0"/></g><defs><linearGradient id="b" x1="187.5" x2="187.5" y1="20" y2="346.473" gradientUnits="userSpaceOnUse"><stop stop-color="#fff" stop-opacity=".3"/><stop offset=".316" stop-color="#b497ed"/><stop offset="1" stop-color="#fff" stop-opacity=".15"/></linearGradient><linearGradient id="c" x1="187.5" x2="187.5" y1="37.433" y2="283.08" gradientUnits="userSpaceOnUse"><stop stop-color="#fff" stop-opacity=".8"/><stop offset=".45" stop-color="#c4cdf8"/><stop offset="1" stop-color="#fff" stop-opacity=".65"/></linearGradient><linearGradient id="d" x1="187.5" x2="187.5" y1="308.437" y2="362.321" gradientUnits="userSpaceOnUse"><stop stop-color="#c856c8"/><stop offset="1" stop-color="#774fc4"/></linearGradient><linearGradient id="e" x1="187.5" x2="187.5" y1="56.451" y2="338.549" gradientUnits="userSpaceOnUse"><stop stop-color="#2f1e52"/><stop offset="1" stop-color="#526ae0"/></linearGradient><linearGradient id="g" x1="264.134" x2="227.325" y1="126.388" y2="163.196" gradientUnits="userSpaceOnUse"><stop stop-color="#d4c4f7"/><stop offset="1" stop-color="#fff" stop-opacity=".15"/></linearGradient><linearGradient id="h" x1="120.917" x2="257.305" y1="264.839" y2="128.452" gradientUnits="userSpaceOnUse"><stop stop-color="#fff" stop-opacity="0"/><stop offset="1" stop-color="#fde2fd"/></linearGradient><radialGradient id="f" cx="0" cy="0" r="1" gradientTransform="rotate(255 179.306 -20.647)scale(41.7473)" gradientUnits="userSpaceOnUse"><stop offset=".2" stop-color="#e2e6fd"/><stop offset="1" stop-color="#fff" stop-opacity="0"/></radialGradient><clipPath id="a"><path fill="#fff" d="M10 20h355v355H10z"/></clipPath></defs></svg>