<svg width="220" height="220" viewBox="0 0 220 220" fill="none" xmlns="http://www.w3.org/2000/svg">
<path d="M20 110C20 60.2944 60.2944 20 110 20C159.706 20 200 60.2944 200 110V192C200 196.418 196.418 200 192 200H28C23.5817 200 20 196.418 20 192V110Z" fill="#402970"/>
<path d="M179.555 137.789C182.179 137.789 184.307 135.662 184.307 133.037C184.307 130.413 182.179 128.285 179.555 128.285C177.843 128.285 176.342 129.19 175.506 130.548C175.1 131.207 174.448 131.741 173.674 131.741H164.866C164.15 131.741 163.57 132.321 163.57 133.037C163.57 133.753 164.15 134.333 164.866 134.333H173.674C174.448 134.333 175.1 134.868 175.506 135.526C176.342 136.884 177.843 137.789 179.555 137.789Z" fill="#526AE0"/>
<path d="M177.395 152.478C177.395 151.047 176.234 149.886 174.803 149.886H161.842V172.351H174.803C176.234 172.351 177.395 171.19 177.395 169.759C177.395 168.327 178.555 167.167 179.987 167.167H180.851V155.07H179.987C178.555 155.07 177.395 153.91 177.395 152.478Z" fill="#E60023"/>
<path d="M49.2277 150.354C50.183 131.725 50.6607 122.41 56.6636 116.707C62.6664 111.004 71.9932 111.004 90.647 111.004H129.353C148.007 111.004 157.334 111.004 163.336 116.707C169.339 122.41 169.817 131.725 170.772 150.354L172.211 178.399H47.7895L49.2277 150.354Z" fill="url(#paint0_linear_2579_234711)"/>
<path d="M45.1974 178.399H174.803V190.496C173.787 190.496 173.279 190.496 172.851 190.607C171.762 190.89 170.879 191.686 170.485 192.74C170.33 193.155 170.277 193.66 170.172 194.67L169.618 200H154.066C153.405 196.364 153.074 194.546 152.076 193.23C151.443 192.396 150.628 191.716 149.694 191.242C148.221 190.496 146.373 190.496 142.678 190.496H77.3225C73.6271 190.496 71.7793 190.496 70.306 191.242C69.3717 191.716 68.5572 192.396 67.9241 193.23C66.9258 194.546 66.5953 196.364 65.9342 200H50.3816L49.8278 194.67C49.7229 193.66 49.6704 193.155 49.5154 192.74C49.1209 191.686 48.238 190.89 47.1488 190.607C46.7208 190.496 46.213 190.496 45.1974 190.496V178.399Z" fill="url(#paint1_linear_2579_234711)"/>
<path d="M118.705 20.8047C119.647 20.0536 120.082 18.7713 119.654 17.6482C118.263 13.9959 118.188 10.6995 119.69 8.10985C124.605 -0.362996 144.548 1.93882 164.235 13.2511C183.921 24.5634 195.896 40.6024 190.981 49.0753C189.478 51.6649 186.572 53.2481 182.699 53.875C181.507 54.0678 180.609 55.084 180.426 56.2712C180.208 57.6913 179.706 59.0931 178.9 60.3955L156.722 96.233C153.565 101.335 146.902 103.011 141.688 100.015L100.011 76.0664C94.7974 73.0704 92.9245 66.4895 95.7853 61.2171L115.88 24.1827C116.61 22.8368 117.579 21.7032 118.705 20.8047Z" fill="url(#paint2_radial_2579_234711)"/>
<path d="M99.996 20.6485C99.071 19.904 98.6435 18.6329 99.0638 17.5197C100.43 13.8995 100.505 10.632 99.0289 8.06503C94.2009 -0.333496 74.6105 1.94813 55.2726 13.1612C35.9346 24.3742 24.172 40.2726 29 48.6711C30.4756 51.238 33.3304 52.8073 37.1354 53.4287C38.3054 53.6198 39.1878 54.6271 39.3673 55.8039C39.582 57.2116 40.0751 58.6011 40.8668 59.892L62.6519 95.4152C65.7533 100.472 72.298 102.134 77.4197 99.1641L118.359 75.4255C123.481 72.4557 125.32 65.9326 122.51 60.7064L102.771 23.9969C102.054 22.6628 101.102 21.5391 99.996 20.6485Z" fill="url(#paint3_radial_2579_234711)"/>
<path d="M109.346 36.2244L95.7853 61.2171C92.9245 66.4895 94.7974 73.0704 100.011 76.0665L108.672 81.0428L118.359 75.4255C123.481 72.4557 125.32 65.9326 122.51 60.7064L109.346 36.2244Z" fill="#F7C545"/>
<path d="M180.851 155.07H183.443V167.167H180.851V155.07Z" fill="#E68800"/>
<path d="M66.7983 119.213C66.7983 118.497 67.3785 117.917 68.0943 117.917H151.906C152.622 117.917 153.202 118.497 153.202 119.213C153.202 119.929 152.622 120.509 151.906 120.509H68.0943C67.3785 120.509 66.7983 119.929 66.7983 119.213Z" fill="#526AE0"/>
<defs>
<linearGradient id="paint0_linear_2579_234711" x1="110" y1="91.9956" x2="110" y2="178.399" gradientUnits="userSpaceOnUse">
<stop stop-color="#9BAAF3"/>
<stop offset="1" stop-color="#B497ED"/>
</linearGradient>
<linearGradient id="paint1_linear_2579_234711" x1="152.174" y1="178.4" x2="152.174" y2="200" gradientUnits="userSpaceOnUse">
<stop stop-color="white" stop-opacity="0.8"/>
<stop offset="1" stop-color="#E2E6FD"/>
</linearGradient>
<radialGradient id="paint2_radial_2579_234711" cx="0" cy="0" r="1" gradientUnits="userSpaceOnUse" gradientTransform="translate(145.413 50.3669) rotate(76.0103) scale(44.4076 45.8459)">
<stop stop-color="#F7C545"/>
<stop offset="1" stop-color="#FFE286"/>
</radialGradient>
<radialGradient id="paint3_radial_2579_234711" cx="0" cy="0" r="1" gradientUnits="userSpaceOnUse" gradientTransform="translate(76.581 50.2279) rotate(-119.676) scale(42.0307 41.9386)">
<stop stop-color="#BD5F00"/>
<stop offset="1" stop-color="#E68800"/>
</radialGradient>
</defs>
</svg>
