<svg width="375" height="375" viewBox="0 0 375 375" fill="none" xmlns="http://www.w3.org/2000/svg">
<g clip-path="url(#clip0_2583_241162)">
<rect width="375" height="375" fill="#6B246B"/>
<path d="M241.48 41.21C241.48 45.9321 245.308 49.76 250.03 49.76C254.752 49.76 258.58 45.9321 258.58 41.21C258.58 36.488 254.752 32.66 250.03 32.66C245.308 32.66 241.48 36.488 241.48 41.21Z" fill="url(#paint0_linear_2583_241162)"/>
<path d="M167.016 58.2424C208.998 35.614 261.376 51.3036 284.004 93.2861L346.883 209.944C357.637 229.897 350.181 254.789 330.229 265.543L269.92 298.049C267.305 299.459 265.161 301.573 263.325 303.909C255.655 313.67 243.742 319.94 230.365 319.94C212.818 319.94 197.791 309.153 191.553 293.849C189.634 289.141 185.005 285.74 179.92 285.74C156.657 285.74 136.494 272.468 126.59 253.083C125.254 250.469 123.453 248.114 121.276 246.146C108.984 235.037 101.26 218.968 101.26 201.095C101.26 185.859 106.873 171.934 116.144 161.275C120.45 156.324 122.762 149.786 122.081 143.26C118.554 109.482 135.266 75.3553 167.016 58.2424Z" fill="url(#paint1_linear_2583_241162)"/>
<path d="M152.56 323.36C152.56 330.915 158.685 337.04 166.24 337.04C173.795 337.04 179.92 330.915 179.92 323.36C179.92 315.805 173.795 309.68 166.24 309.68C158.685 309.68 152.56 315.805 152.56 323.36Z" fill="url(#paint2_linear_2583_241162)"/>
<path d="M109.81 335.33C105.088 335.33 101.26 331.502 101.26 326.78C101.26 322.058 105.088 318.23 109.81 318.23C114.532 318.23 118.36 322.058 118.36 326.78C118.36 331.502 114.532 335.33 109.81 335.33Z" fill="url(#paint3_linear_2583_241162)"/>
<path d="M275.68 60.02C269.069 60.02 263.71 54.6609 263.71 48.05C263.71 41.4392 269.069 36.08 275.68 36.08C282.291 36.08 287.65 41.4392 287.65 48.05C287.65 54.6609 282.291 60.02 275.68 60.02Z" fill="url(#paint4_linear_2583_241162)"/>
<path d="M60.6734 51.3335C89.8833 13.6325 144.125 6.74925 181.826 35.9592C219.527 65.1691 226.41 119.411 197.2 157.112L167.443 195.52C163.605 200.474 162.983 207.089 164.489 213.172C165.633 217.793 166.24 222.625 166.24 227.6C166.24 260.654 139.444 287.45 106.39 287.45C102.933 287.45 99.5454 287.157 96.2494 286.594C90.2316 285.567 83.9771 286.848 78.5521 289.648C72.8034 292.615 66.2797 294.29 59.3647 294.29C36.2267 294.29 17.4697 275.533 17.4697 252.395C17.4697 243.461 20.2659 235.181 25.0309 228.381C25.634 227.52 25.4846 226.328 24.6539 225.685C24.1958 225.33 23.602 225.206 23.0344 225.324C21.2377 225.695 19.3765 225.89 17.4697 225.89C5.96285 225.89 -3.8849 218.786 -7.92754 208.725C-9.77323 204.132 -12.2252 199.662 -15.643 196.081C-22.6732 188.714 -26.9902 178.736 -26.9902 167.75C-26.9902 151.624 -17.69 137.671 -4.16085 130.961C-1.20296 129.494 1.57518 127.611 3.59735 125.001L60.6734 51.3335Z" fill="url(#paint5_linear_2583_241162)"/>
<path d="M94.4198 331.91C105.753 331.91 114.94 322.723 114.94 311.39C114.94 300.057 105.753 290.87 94.4198 290.87C83.0869 290.87 73.8998 300.057 73.8998 311.39C73.8998 322.723 83.0869 331.91 94.4198 331.91Z" fill="url(#paint6_linear_2583_241162)"/>
<path d="M51.6698 330.2C51.6698 337.755 45.545 343.88 37.9898 343.88C30.4345 343.88 24.3098 337.755 24.3098 330.2C24.3098 322.645 30.4345 316.52 37.9898 316.52C45.545 316.52 51.6698 322.645 51.6698 330.2Z" fill="url(#paint7_linear_2583_241162)"/>
<path d="M195.209 48.8307C220.719 79.2912 222.529 124.421 197.2 157.112L167.443 195.52C163.605 200.474 162.983 207.089 164.489 213.172C165.633 217.793 166.24 222.626 166.24 227.6C166.24 246.29 157.673 262.979 144.251 273.955C136.875 268.472 130.804 261.331 126.59 253.083C125.254 250.469 123.453 248.114 121.276 246.146C108.984 235.037 101.26 218.968 101.26 201.095C101.26 185.859 106.873 171.934 116.144 161.275C120.45 156.324 122.762 149.786 122.081 143.26C118.554 109.482 135.266 75.3554 167.016 58.2426C176.065 53.3653 185.597 50.2681 195.209 48.8307Z" fill="#FDBF81"/>
<path d="M113.463 319.048C112.355 318.523 111.117 318.23 109.81 318.23C105.088 318.23 101.26 322.058 101.26 326.78C101.26 328.087 101.553 329.326 102.077 330.434C107.251 328.351 111.381 324.222 113.463 319.048Z" fill="#FDBF81"/>
<path fill-rule="evenodd" clip-rule="evenodd" d="M111.394 133.938C117.791 139.535 118.439 149.258 112.842 155.655L-6.8582 292.455C-12.4553 298.851 -22.1781 299.499 -28.5747 293.902C-34.9714 288.305 -35.6196 278.582 -30.0225 272.186L89.6775 135.386C95.2746 128.989 104.997 128.341 111.394 133.938Z" fill="#BD5F00"/>
<path d="M18.845 263.08C17.948 259.669 17.4702 256.088 17.4702 252.395C17.4702 243.462 20.2664 235.181 25.0314 228.381C25.6345 227.52 25.4851 226.328 24.6544 225.685C24.1963 225.33 23.6025 225.207 23.0349 225.324C21.2382 225.695 19.377 225.89 17.4702 225.89C15.2885 225.89 13.1665 225.635 11.1323 225.152L89.6781 135.386C95.2752 128.989 104.998 128.341 111.395 133.938C117.791 139.535 118.439 149.258 112.842 155.655L18.845 263.08Z" fill="#EF7BB5"/>
<path fill-rule="evenodd" clip-rule="evenodd" d="M216.822 157.712C209.362 161.786 206.617 171.136 210.691 178.595L306.801 354.579C310.875 362.038 320.225 364.783 327.685 360.709C335.144 356.635 337.889 347.285 333.815 339.826L237.705 163.842C233.631 156.383 224.281 153.638 216.822 157.712Z" fill="#BD5F00"/>
<path d="M301.657 280.943L237.705 163.842C233.631 156.383 224.281 153.638 216.822 157.712C209.362 161.786 206.617 171.136 210.691 178.595L274.562 295.547L301.657 280.943Z" fill="#E60023"/>
</g>
<defs>
<linearGradient id="paint0_linear_2583_241162" x1="230.695" y1="32.66" x2="230.695" y2="331.91" gradientUnits="userSpaceOnUse">
<stop stop-color="#FA5F2E"/>
<stop offset="1" stop-color="#E68800"/>
</linearGradient>
<linearGradient id="paint1_linear_2583_241162" x1="230.695" y1="32.66" x2="230.695" y2="331.91" gradientUnits="userSpaceOnUse">
<stop stop-color="#FA5F2E"/>
<stop offset="1" stop-color="#E68800"/>
</linearGradient>
<linearGradient id="paint2_linear_2583_241162" x1="230.695" y1="32.66" x2="230.695" y2="331.91" gradientUnits="userSpaceOnUse">
<stop stop-color="#FA5F2E"/>
<stop offset="1" stop-color="#E68800"/>
</linearGradient>
<linearGradient id="paint3_linear_2583_241162" x1="230.695" y1="32.66" x2="230.695" y2="331.91" gradientUnits="userSpaceOnUse">
<stop stop-color="#FA5F2E"/>
<stop offset="1" stop-color="#E68800"/>
</linearGradient>
<linearGradient id="paint4_linear_2583_241162" x1="230.695" y1="32.66" x2="230.695" y2="331.91" gradientUnits="userSpaceOnUse">
<stop stop-color="#FA5F2E"/>
<stop offset="1" stop-color="#E68800"/>
</linearGradient>
<linearGradient id="paint5_linear_2583_241162" x1="125.2" y1="17.2699" x2="125.2" y2="364.4" gradientUnits="userSpaceOnUse">
<stop stop-color="#FDE2FD"/>
<stop offset="1" stop-color="#ED96ED"/>
</linearGradient>
<linearGradient id="paint6_linear_2583_241162" x1="125.2" y1="17.2699" x2="125.2" y2="364.4" gradientUnits="userSpaceOnUse">
<stop stop-color="#FDE2FD"/>
<stop offset="1" stop-color="#ED96ED"/>
</linearGradient>
<linearGradient id="paint7_linear_2583_241162" x1="125.2" y1="17.2699" x2="125.2" y2="364.4" gradientUnits="userSpaceOnUse">
<stop stop-color="#FDE2FD"/>
<stop offset="1" stop-color="#ED96ED"/>
</linearGradient>
<clipPath id="clip0_2583_241162">
<rect width="375" height="375" fill="white"/>
</clipPath>
</defs>
</svg>
