<svg width="375" height="250" viewBox="0 0 375 250" fill="none" xmlns="http://www.w3.org/2000/svg">
<g clip-path="url(#clip0_2583_240084)">
<rect width="375" height="250" fill="#DBD2EF"/>
<path fill-rule="evenodd" clip-rule="evenodd" d="M316.642 66.8647C307.44 55.8986 291.091 54.4682 280.125 63.6699C276.387 66.8067 273.757 70.7741 272.278 75.0757C271.071 78.5861 269.432 82.0413 266.589 84.4273L234.026 111.751C232.638 112.915 230.76 113.309 229.021 112.8C224.551 111.492 219.722 112.573 216.235 115.66L152.128 172.432C145.123 178.636 141.568 187.857 142.597 197.158L142.668 197.808L265.503 92.9411C268.046 90.7702 272.123 92.1983 273.629 95.1834C274.514 96.937 275.613 98.6171 276.93 100.187C286.132 111.153 302.481 112.583 313.447 103.382C324.413 94.18 325.844 77.8308 316.642 66.8647ZM311.126 71.4928C304.481 63.5728 292.673 62.5398 284.753 69.1854C276.833 75.831 275.8 87.6388 282.446 95.5587C289.091 103.479 300.899 104.512 308.819 97.8661C316.739 91.2205 317.772 79.4127 311.126 71.4928Z" fill="#526AE0"/>
<path d="M28.6399 96.5352L143.14 65.8549L149.929 91.1919C155.517 112.047 166.854 130.912 182.646 145.635L236.558 195.9C252.35 210.623 263.686 229.488 269.274 250.343L276.063 275.68L161.563 306.361L154.774 281.024C149.186 260.169 137.85 241.304 122.058 226.58L68.1453 176.316C52.3534 161.592 41.017 142.727 35.4289 121.872L28.6399 96.5352Z" fill="url(#paint0_linear_2583_240084)"/>
<path fill-rule="evenodd" clip-rule="evenodd" d="M260.414 18.6C272.812 25.7576 277.059 41.61 269.902 54.0074C267.462 58.2336 264.011 61.5127 260.032 63.7158C256.784 65.5136 253.666 67.728 251.81 70.9428L230.556 107.756C229.65 109.325 229.589 111.243 230.392 112.867C232.456 117.042 232.231 121.985 229.795 125.955L185.018 198.946C180.125 206.922 171.661 212.024 162.323 212.627L161.671 212.669L243.614 73.4898C245.311 70.6086 243.196 66.8417 239.995 65.8769C238.114 65.3102 236.269 64.5193 234.494 63.4948C222.097 56.3371 217.849 40.4847 225.007 28.0874C232.165 15.69 248.017 11.4424 260.414 18.6ZM256.814 24.8354C265.768 30.0048 268.836 41.4537 263.666 50.4074C258.497 59.361 247.048 62.4288 238.094 57.2594C229.141 52.09 226.073 40.641 231.242 31.6874C236.412 22.7337 247.861 19.666 256.814 24.8354Z" fill="#768AEA"/>
<path d="M226.13 116.862C227.852 117.856 228.442 120.058 227.448 121.78C226.453 123.502 224.252 124.092 222.53 123.098C220.808 122.104 220.218 119.902 221.212 118.18C222.206 116.458 224.408 115.868 226.13 116.862Z" fill="#223077"/>
<path d="M214.4 292.916L269.838 307.771L271.921 299.997C275.413 286.963 282.499 275.172 292.369 265.97L311.666 247.979C321.535 238.777 328.621 226.986 332.113 213.952L334.196 206.179L278.758 191.324L276.675 199.097C273.183 212.132 266.097 223.922 256.227 233.125L236.93 251.116C227.061 260.318 219.975 272.108 216.483 285.143L214.4 292.916Z" fill="#FA5F2E"/>
<path d="M45.2928 310.6L89.8027 298.674L89.1839 296.364C85.6913 283.33 85.9321 269.577 89.8786 256.672L93.6926 244.201C97.6391 231.297 97.8799 217.544 94.3873 204.509L93.7686 202.2L49.2587 214.126L49.8774 216.436C53.37 229.47 53.1293 243.224 49.1828 256.128L45.3687 268.599C41.4222 281.503 41.1815 295.256 44.674 308.291L45.2928 310.6Z" fill="#FA5F2E"/>
<path d="M21.4399 199.32L84.3693 162.987L86.2744 166.287C97.0276 184.912 112.743 200.172 131.629 210.327L149.881 220.141C168.766 230.297 184.482 245.557 195.235 264.182L197.14 267.482L134.211 303.814L132.306 300.514C121.553 281.889 105.837 266.629 86.9512 256.474L68.6996 246.66C49.8138 236.505 34.0982 221.244 23.345 202.619L21.4399 199.32Z" fill="#FCA58D"/>
<path d="M189.599 35.5847L174.266 92.8065L171.298 92.0111C154.541 87.521 136.859 87.8305 120.269 92.9042L104.237 97.8074C87.6473 102.881 69.9657 103.191 53.2087 98.7005L50.24 97.9051L65.5725 40.6833L68.5412 41.4787C85.2983 45.9688 102.98 45.6593 119.569 40.5856L135.602 35.6823C152.192 30.6087 169.873 30.2992 186.63 34.7892L189.599 35.5847Z" fill="#83C3FC"/>
<path d="M149.309 88.8788C139.524 88.6706 129.719 90.0149 120.269 92.905L104.237 97.8082C87.6473 102.882 69.9657 103.191 53.2087 98.7013L50.24 97.9059L52.3062 90.1945L143.14 65.8556L149.309 88.8788Z" fill="#E2F0FD"/>
<path d="M89.5163 257.896C88.668 257.411 87.813 256.937 86.9513 256.474L68.6997 246.66C62.9285 243.557 57.4533 239.977 52.3253 235.97C52.4072 229.409 51.5924 222.835 49.8775 216.436L49.2588 214.126L93.7687 202.2L94.3874 204.509C97.88 217.544 97.6392 231.297 93.6927 244.201L89.8787 256.672C89.7542 257.079 89.6334 257.487 89.5163 257.896Z" fill="#E60023"/>
<path d="M157.308 290.48L154.774 281.024C149.186 260.169 137.85 241.304 122.058 226.581L68.1453 176.316C67.2737 175.504 66.4157 174.678 65.5715 173.841L84.3693 162.988L86.2743 166.288C97.0276 184.913 112.743 200.173 131.629 210.328L149.881 220.142C168.766 230.297 184.482 245.557 195.235 264.183L197.14 267.482L157.308 290.48Z" fill="#FDC9B9"/>
<path d="M260.893 228.352C264.415 235.346 267.23 242.712 269.275 250.344L276.064 275.681L214.606 292.148L216.483 285.143C219.976 272.109 227.061 260.318 236.931 251.116L256.228 233.125C257.86 231.603 259.417 230.01 260.893 228.352Z" fill="#F8BEF8"/>
</g>
<defs>
<linearGradient id="paint0_linear_2583_240084" x1="238.88" y1="281.896" x2="61.6531" y2="104.669" gradientUnits="userSpaceOnUse">
<stop stop-color="#EBE2FD"/>
<stop offset="1" stop-color="white"/>
</linearGradient>
<clipPath id="clip0_2583_240084">
<rect width="375" height="250" fill="white"/>
</clipPath>
</defs>
</svg>
