<svg fill="none" height="220" viewBox="0 0 220 220" width="220" xmlns="http://www.w3.org/2000/svg" xmlns:xlink="http://www.w3.org/1999/xlink"><linearGradient id="a" gradientUnits="userSpaceOnUse" x1="91.1398" x2="75.9082" y1="101.93" y2="131.541"><stop offset="0" stop-color="#2086df"/><stop offset=".65" stop-color="#1a5866"/></linearGradient><linearGradient id="b" gradientUnits="userSpaceOnUse" x1="111.391" x2="111.391" y1="30.7331" y2="119.579"><stop offset="0" stop-color="#fff" stop-opacity=".8"/><stop offset="1" stop-color="#fff" stop-opacity=".65"/></linearGradient><linearGradient id="c" gradientUnits="userSpaceOnUse" x1="99.8708" x2="70.7341" y1="123.042" y2="173.509"><stop offset="0" stop-color="#59aaf3"/><stop offset="1" stop-color="#ed96ed"/></linearGradient><linearGradient id="d" gradientUnits="userSpaceOnUse" x1="80.7404" x2="73.4919" y1="162.951" y2="175.032"><stop offset="0" stop-color="#9270d7"/><stop offset="1" stop-color="#2a3fa7"/></linearGradient><path d="m20 110c0-49.7056 40.2944-90 90-90 49.706 0 90 40.2944 90 90v82c0 4.418-3.582 8-8 8h-164c-4.4183 0-8-3.582-8-8z" fill="#186250"/><path d="m79.606 105.439c2.5573-3.557 7.3941-4.598 11.1883-2.408l30.9447 17.866c3.794 2.191 5.311 6.9 3.509 10.894l-2.701 5.985-46.7737-27.005z" fill="url(#a)"/><path d="m171.898 100.621c-14.13 24.473-45.423 32.858-69.896 18.729-24.4724-14.13-32.8573-45.4229-18.728-69.8957 14.1294-24.4728 45.423-32.8577 69.895-18.7284 24.473 14.1294 32.858 45.4226 18.729 69.8951z" fill="url(#b)"/><path d="m30.4442 155.171c1.1774-2.039 3.7852-2.738 5.8246-1.561l68.9292 39.797c2.04 1.177 2.739 3.785 1.561 5.825l-.355.615-76.3151-44.06z" fill="#223077"/><path d="m67.0599 112.99c2.5533-3.57 7.3993-4.619 11.2003-2.425l43.2208 24.954c3.801 2.195 5.316 6.916 3.501 10.912l-21.014 46.265-66.4679-38.375z" fill="url(#c)"/><path d="m86.6095 131.798-12.3089-7.107-12.7917 22.156 36.9266 21.32 12.7915-22.156-12.3087-7.107-1.4213 2.462c-1.5699 2.719-5.0469 3.651-7.7661 2.081l-2.4618-1.421c-2.7192-1.57-3.6509-5.047-2.0809-7.766z" fill="#1f6bad"/><path d="m86.6101 131.798 12.3088 7.106-1.4213 2.462c-1.5699 2.719-5.0469 3.651-7.7661 2.081l-2.4618-1.421c-2.7192-1.57-3.6509-5.047-2.0809-7.766z" fill="#223077"/><path d="m73.1069 155.185c1.57-2.719 5.047-3.651 7.7662-2.081l2.4618 1.421c2.7192 1.57 3.6508 5.047 2.0809 7.766l-2.8426 4.924c-1.5699 2.719-5.047 3.651-7.7662 2.081l-2.4617-1.422c-2.7192-1.569-3.6509-5.046-2.081-7.766z" fill="#1c2554"/><path d="m67.8027 158.687-22.1559-12.792c-2.0394-1.177-4.6472-.478-5.8247 1.561l-3.5532 6.154 68.9291 39.797 3.554-6.154c1.177-2.04.478-4.648-1.561-5.825l-22.1559-12.792c-2.3549 4.079-7.5704 5.476-11.6492 3.122l-2.4618-1.422c-4.0788-2.355-5.4763-7.57-3.1214-11.649z" fill="url(#d)"/><path d="m79.3912 152.506c.5078.125 1.0068.323 1.4825.598l2.4618 1.421c2.7192 1.57 3.6508 5.047 2.0809 7.766l-2.1322 3.693c-1.4747.179-3.0176-.101-4.4031-.901-3.399-1.963-4.5636-6.309-2.6012-9.708.7506-1.3 1.8498-2.273 3.1113-2.869z" fill="#a13012"/><path d="m125.74 126.182c-8.093-.285-16.236-2.501-23.738-6.832-7.5014-4.331-13.4915-10.275-17.7848-17.141 2.1447-.604 4.5149-.368 6.5771.823l30.9447 17.865c2.062 1.191 3.451 3.126 4.001 5.285z" fill="#45c5de"/><path d="m136.898 121.444c-1.962 3.399-6.308 4.564-9.707 2.601-3.399-1.962-4.564-6.308-2.601-9.707 1.962-3.399 6.308-4.564 9.707-2.601 3.399 1.962 4.564 6.308 2.601 9.707z" fill="#e68800"/><path d="m150.749 118.774c-1.962 3.399-6.308 4.563-9.707 2.601-3.399-1.963-4.564-6.309-2.602-9.708 1.963-3.399 6.309-4.563 9.708-2.601s4.564 6.309 2.601 9.708z" fill="#13434e"/><path d="m124.59 114.338c-1.962 3.399-6.308 4.563-9.707 2.601-3.399-1.963-4.564-6.309-2.601-9.708 1.962-3.399 6.308-4.563 9.707-2.601s4.564 6.309 2.601 9.708z" fill="#2086df"/><path d="m139.336 113.77c-1.962 3.399-6.308 4.563-9.707 2.601-3.399-1.963-4.564-6.309-2.601-9.708 1.962-3.399 6.308-4.563 9.707-2.601s4.564 6.309 2.601 9.708z" fill="#e9de63"/><path d="m154.971 105.242c-1.963 3.399-6.309 4.563-9.708 2.601s-4.563-6.309-2.601-9.7077c1.962-3.399 6.309-4.5636 9.708-2.6011 3.399 1.9624 4.563 6.3088 2.601 9.7078z" fill="#83c3fc"/><path d="m151.702 102.911c1.962-3.3988 6.309-4.5634 9.707-2.601 3.399 1.962 4.564 6.309 2.602 9.708-1.963 3.399-6.309 4.563-9.708 2.601-3.399-1.963-4.564-6.309-2.601-9.708z" fill="#bd5f00"/><path d="m161.695 96.0845c-1.962 3.399-6.309 4.5635-9.708 2.6012-3.399-1.9625-4.563-6.3087-2.601-9.7077 1.963-3.399 6.309-4.5636 9.708-2.6012s4.563 6.3087 2.601 9.7077z" fill="#6b246b"/><path d="m162.888 84.4718c1.963-3.399 6.309-4.5636 9.708-2.6012s4.564 6.3087 2.601 9.7077c-1.962 3.399-6.309 4.5636-9.707 2.6012-3.399-1.9624-4.564-6.3087-2.602-9.7077z" fill="#fa5f2e"/><path d="m112.282 107.231c-1.963 3.399-6.309 4.564-9.708 2.601-3.3989-1.962-4.5635-6.308-2.6011-9.707 1.9621-3.3994 6.3091-4.5639 9.7081-2.6015s4.563 6.3085 2.601 9.7075z" fill="#1a5866"/><path d="m127.788 100.445c-1.962 3.399-6.308 4.564-9.707 2.601-3.399-1.962-4.564-6.3086-2.601-9.7076 1.962-3.399 6.308-4.5635 9.707-2.6011s4.564 6.3087 2.601 9.7077z" fill="#c856c8"/><path d="m142.002 99.5566c-1.963 3.3994-6.309 4.5634-9.708 2.6014-3.399-1.963-4.564-6.3089-2.601-9.7079 1.962-3.399 6.308-4.5636 9.707-2.6012s4.564 6.3087 2.602 9.7077z" fill="#45c5de"/><path d="m99.9725 100.125c-1.9625 3.399-6.3087 4.563-9.7077 2.601-3.399-1.963-4.5636-6.3089-2.6012-9.7079s6.3087-4.5635 9.7077-2.6011c3.3987 1.9624 4.5637 6.3087 2.6012 9.708z" fill="#da3c0b"/><path d="m112.345 92.9553c-1.963 3.399-6.309 4.5636-9.708 2.6011-3.3988-1.9624-4.5634-6.3086-2.601-9.7076 1.962-3.399 6.309-4.5636 9.708-2.6012s4.563 6.3087 2.601 9.7077z" fill="#fda64f"/><path d="m93.1442 94.582c-1.9624 3.399-6.3087 4.5636-9.7077 2.6011-3.399-1.9624-4.5636-6.3086-2.6011-9.7076 1.9624-3.399 6.3086-4.5636 9.7076-2.6012s4.5636 6.3087 2.6012 9.7077z" fill="#988c1b"/><path d="m150.098 87.7471c-1.963 3.399-6.309 4.5636-9.708 2.6011-3.399-1.9624-4.564-6.3086-2.601-9.7076 1.962-3.399 6.308-4.5636 9.707-2.6012s4.564 6.3087 2.602 9.7077z" fill="#776f0d"/><path d="m164.5 82.1877c-1.962 3.399-6.309 4.5636-9.708 2.6012s-4.563-6.3087-2.601-9.7077c1.963-3.399 6.309-4.5636 9.708-2.6012s4.564 6.3087 2.601 9.7077z" fill="#e60023"/><path d="m126.545 91.7395c-1.963 3.3989-6.309 4.5635-9.708 2.6011s-4.563-6.3087-2.601-9.7077 6.309-4.5635 9.708-2.6011 4.563 6.3087 2.601 9.7077z" fill="#dd73dd"/><path d="m44.5922 192.894c0 3.924-3.1817 7.106-7.1065 7.106-3.9249 0-7.1065-3.182-7.1065-7.106 0-3.925 3.1816-7.107 7.1065-7.107 3.9248 0 7.1065 3.182 7.1065 7.107z" fill="#988c1b"/><path d="m58.8051 192.894c0 3.924-3.1817 7.106-7.1065 7.106-3.9249 0-7.1066-3.182-7.1066-7.106 0-3.925 3.1817-7.107 7.1066-7.107 3.9248 0 7.1065 3.182 7.1065 7.107z" fill="#dd73dd"/><path d="m148.584 192.894c0 3.924-3.182 7.106-7.106 7.106-3.925 0-7.107-3.182-7.107-7.106 0-3.925 3.182-7.107 7.107-7.107 3.924 0 7.106 3.182 7.106 7.107z" fill="#fa5f2e"/><path d="m126.381 112.279c2.215-1.72 5.338-2.031 7.916-.542 1.628.939 2.743 2.425 3.248 4.091-2.215 1.721-5.338 2.031-7.916.543-1.627-.94-2.742-2.426-3.248-4.092z" fill="#da3c0b"/><path d="m151.03 108.442c1.605-.526 3.03-1.622 3.941-3.2 1.007-1.744 1.19-3.738.671-5.5303-1.605.5253-3.029 1.6223-3.94 3.1993-1.007 1.744-1.191 3.738-.672 5.531z" fill="#ba8221"/><path d="m155.621 99.6384c-1.234.0151-2.488-.291-3.634-.9527-1.631-.9418-2.748-2.4326-3.251-4.1042 1.234-.0151 2.488.291 3.634.9527 1.631.9418 2.747 2.4326 3.251 4.1042z" fill="#c856c8"/><path d="m86.8858 98.1358c2.4901.0341 4.9248-1.2439 6.2584-3.5538.9303-1.6113 1.1579-3.4355.7778-5.1177-2.4901-.0342-4.9247 1.2438-6.2584 3.5538-.9303 1.6113-1.1579 3.4355-.7778 5.1177z" fill="#5e1741"/><path d="m115.484 93.3299c1.965-3.3924 6.307-4.5535 9.703-2.5927.5.2888.952.6292 1.353 1.0107-1.965 3.3924-6.307 4.5535-9.703 2.5927-.5-.2888-.952-.6293-1.353-1.0107z" fill="#6b246b"/><path d="m137.516 115.851c.717-.551 1.34-1.249 1.821-2.081.76-1.317 1.051-2.777.924-4.184-.717.551-1.34 1.249-1.821 2.081-.76 1.317-1.051 2.776-.924 4.184z" fill="#9fc157"/></svg>