<svg width="375" height="375" viewBox="0 0 375 375" fill="none" xmlns="http://www.w3.org/2000/svg">
<g clip-path="url(#clip0_2583_240065)">
<rect width="375" height="375" fill="#C4E0F8"/>
<path d="M262.754 285.62C307.032 273.756 338.986 249.435 334.126 231.297C327.397 206.183 289.432 208.073 245.154 219.937C211.516 228.951 187.198 253.392 177.907 266.312C176.757 267.912 174.661 268.56 172.851 267.78L142.807 254.82C138.491 252.958 133.931 256.899 135.148 261.439C135.383 262.317 135.827 263.125 136.443 263.794L143.049 270.966C148.383 276.758 150.538 284.797 148.814 292.48L146.679 301.995C146.48 302.882 146.499 303.804 146.734 304.682C147.951 309.222 153.87 310.355 156.678 306.584L176.216 280.339C177.394 278.758 179.532 278.271 181.329 279.082C195.835 285.625 229.116 294.633 262.754 285.62Z" fill="url(#paint0_linear_2583_240065)"/>
<path d="M319.05 229.125C321.051 236.593 316.619 244.27 309.151 246.271C301.682 248.272 294.006 243.84 292.004 236.372C290.003 228.903 294.435 221.226 301.904 219.225C309.372 217.224 317.049 221.656 319.05 229.125Z" fill="white"/>
<path d="M314.928 229.194C316.214 233.995 313.365 238.93 308.564 240.217C303.763 241.503 298.828 238.654 297.541 233.853C296.255 229.051 299.104 224.116 303.905 222.83C308.706 221.543 313.641 224.393 314.928 229.194Z" fill="#5E1741"/>
<path d="M102.754 105.62C147.032 93.7555 178.986 69.434 174.126 51.2962C167.397 26.1821 129.432 28.0725 85.1544 39.9367C51.5161 48.95 27.1978 73.3919 17.9073 86.3117C16.7565 87.9119 14.6611 88.5598 12.8512 87.7791L-17.1927 74.8195C-21.509 72.9576 -26.069 76.8984 -24.8524 81.4389C-24.6171 82.3169 -24.1726 83.1248 -23.5568 83.7934L-16.9506 90.966C-11.6165 96.7574 -9.46235 104.797 -11.1861 112.479L-13.3209 121.994C-13.5199 122.881 -13.501 123.803 -13.2657 124.681C-12.0491 129.222 -6.12954 130.354 -3.32245 126.584L16.2165 100.338C17.3935 98.7574 19.5322 98.2708 21.3289 99.0813C35.8346 105.625 69.1157 114.633 102.754 105.62Z" fill="url(#paint1_linear_2583_240065)"/>
<path d="M159.05 49.1241C161.051 56.5927 156.619 64.2694 149.151 66.2706C141.682 68.2718 134.006 63.8396 132.004 56.3711C130.003 48.9026 134.435 41.2258 141.904 39.2247C149.372 37.2235 157.049 41.6556 159.05 49.1241Z" fill="white"/>
<path d="M154.928 49.1934C156.214 53.9946 153.365 58.9296 148.564 60.2161C143.763 61.5026 138.828 58.6533 137.541 53.8521C136.255 49.0509 139.104 44.1159 143.905 42.8294C148.706 41.5429 153.641 44.3922 154.928 49.1934Z" fill="#5E1741"/>
<path d="M256.754 105.62C301.032 93.7555 332.986 69.434 328.126 51.2962C321.397 26.1821 283.432 28.0725 239.154 39.9367C205.516 48.95 181.198 73.3919 171.907 86.3117C170.757 87.9119 168.661 88.5598 166.851 87.7791L136.807 74.8195C132.491 72.9576 127.931 76.8984 129.148 81.4389C129.383 82.3169 129.827 83.1248 130.443 83.7934L137.049 90.966C142.383 96.7574 144.538 104.797 142.814 112.479L140.679 121.994C140.48 122.881 140.499 123.803 140.734 124.681C141.951 129.222 147.87 130.354 150.678 126.584L170.216 100.338C171.394 98.7574 173.532 98.2708 175.329 99.0813C189.835 105.625 223.116 114.633 256.754 105.62Z" fill="url(#paint2_linear_2583_240065)"/>
<path d="M313.05 49.1241C315.051 56.5927 310.619 64.2694 303.151 66.2706C295.682 68.2718 288.006 63.8396 286.004 56.3711C284.003 48.9026 288.435 41.2258 295.904 39.2247C303.372 37.2235 311.049 41.6556 313.05 49.1241Z" fill="white"/>
<path d="M302.564 60.2161C307.365 58.9296 310.214 53.9946 308.928 49.1934C307.641 44.3922 302.706 41.5429 297.905 42.8294C293.951 43.8891 291.32 47.424 291.234 51.3207C291.783 51.1135 292.378 51.0001 293 51.0001C295.761 51.0001 298 53.2387 298 56.0001C298 57.4481 297.384 58.7524 296.401 59.6655C298.259 60.5414 300.425 60.7893 302.564 60.2161Z" fill="#5E1741"/>
<path d="M98.7541 209.62C143.032 197.755 174.986 173.434 170.126 155.296C163.397 130.182 125.432 132.073 81.1544 143.937C47.5161 152.95 23.1978 177.392 13.9073 190.312C12.7565 191.912 10.6611 192.56 8.85123 191.779L-21.1927 178.819C-25.509 176.958 -30.069 180.898 -28.8524 185.439C-28.6171 186.317 -28.1726 187.125 -27.5568 187.793L-20.9506 194.966C-15.6165 200.757 -13.4623 208.797 -15.1861 216.479L-17.3209 225.994C-17.5199 226.881 -17.501 227.803 -17.2657 228.681C-16.0491 233.222 -10.1295 234.354 -7.32245 230.584L12.2165 204.338C13.3935 202.757 15.5322 202.271 17.3289 203.081C31.8346 209.625 65.1157 218.633 98.7541 209.62Z" fill="url(#paint3_linear_2583_240065)"/>
<path d="M155.05 153.124C157.051 160.593 152.619 168.269 145.151 170.271C137.682 172.272 130.006 167.84 128.004 160.371C126.003 152.903 130.435 145.226 137.904 143.225C145.372 141.223 153.049 145.656 155.05 153.124Z" fill="white"/>
<path d="M150.928 153.193C152.214 157.995 149.365 162.93 144.564 164.216C139.763 165.503 134.828 162.653 133.541 157.852C132.255 153.051 135.104 148.116 139.905 146.829C144.706 145.543 149.641 148.392 150.928 153.193Z" fill="#5E1741"/>
<path d="M174.754 261.62C219.032 249.755 250.986 225.434 246.126 207.296C239.397 182.182 201.432 184.073 157.154 195.937C123.516 204.95 99.1978 229.392 89.9073 242.312C88.7565 243.912 86.6611 244.56 84.8512 243.779L54.8073 230.819C50.491 228.958 45.931 232.898 47.1476 237.439C47.3829 238.317 47.8274 239.125 48.4432 239.793L55.0494 246.966C60.3835 252.757 62.5377 260.797 60.8139 268.479L58.6791 277.994C58.4801 278.881 58.499 279.803 58.7343 280.681C59.9509 285.222 65.8705 286.354 68.6775 282.584L88.2165 256.338C89.3935 254.757 91.5322 254.271 93.3289 255.081C107.835 261.625 141.116 270.633 174.754 261.62Z" fill="url(#paint4_linear_2583_240065)"/>
<path d="M231.05 205.124C233.051 212.593 228.619 220.269 221.151 222.271C213.682 224.272 206.006 219.84 204.004 212.371C202.003 204.903 206.435 197.226 213.904 195.225C221.372 193.223 229.049 197.656 231.05 205.124Z" fill="white"/>
<path d="M226.928 205.193C228.214 209.995 225.365 214.93 220.564 216.216C215.763 217.503 210.828 214.653 209.541 209.852C208.255 205.051 211.104 200.116 215.905 198.829C220.706 197.543 225.641 200.392 226.928 205.193Z" fill="#5E1741"/>
<path d="M64.7541 341.62C109.032 329.755 140.986 305.434 136.126 287.296C129.397 262.182 91.4321 264.073 47.1544 275.937C13.5161 284.95 -10.8022 309.392 -20.0927 322.312C-21.2435 323.912 -23.3389 324.56 -25.1488 323.779L-55.1927 310.819C-59.509 308.958 -64.069 312.898 -62.8524 317.439C-62.6171 318.317 -62.1726 319.125 -61.5568 319.793L-54.9506 326.966C-49.6165 332.757 -47.4623 340.797 -49.1861 348.479L-51.3209 357.994C-51.5199 358.881 -51.501 359.803 -51.2657 360.681C-50.0491 365.222 -44.1295 366.354 -41.3225 362.584L-21.7835 336.338C-20.6065 334.757 -18.4678 334.271 -16.6711 335.081C-2.16539 341.625 31.1157 350.633 64.7541 341.62Z" fill="url(#paint5_linear_2583_240065)"/>
<path d="M121.05 285.124C123.051 292.593 118.619 300.269 111.151 302.271C103.682 304.272 96.0055 299.84 94.0043 292.371C92.0031 284.903 96.4353 277.226 103.904 275.225C111.372 273.223 119.049 277.656 121.05 285.124Z" fill="white"/>
<path d="M116.928 285.193C118.214 289.995 115.365 294.93 110.564 296.216C105.763 297.503 100.828 294.653 99.5411 289.852C98.2546 285.051 101.104 280.116 105.905 278.829C110.706 277.543 115.641 280.392 116.928 285.193Z" fill="#5E1741"/>
<path d="M186.754 381.62C231.032 369.755 262.986 345.434 258.126 327.296C251.397 302.182 213.432 304.073 169.154 315.937C135.516 324.95 111.198 349.392 101.907 362.312C100.757 363.912 98.6611 364.56 96.8512 363.779L66.8073 350.819C62.491 348.958 57.931 352.898 59.1476 357.439C59.3829 358.317 59.8274 359.125 60.4432 359.793L67.0494 366.966C72.3835 372.757 74.5377 380.797 72.8139 388.479L70.6791 397.994C70.4801 398.881 70.499 399.803 70.7343 400.681C71.9509 405.222 77.8705 406.354 80.6775 402.584L100.216 376.338C101.394 374.757 103.532 374.271 105.329 375.081C119.835 381.625 153.116 390.633 186.754 381.62Z" fill="url(#paint6_linear_2583_240065)"/>
<path d="M243.05 325.124C245.051 332.593 240.619 340.269 233.151 342.271C225.682 344.272 218.006 339.84 216.004 332.371C214.003 324.903 218.435 317.226 225.904 315.225C233.372 313.223 241.049 317.656 243.05 325.124Z" fill="white"/>
<path d="M238.928 325.193C240.214 329.995 237.365 334.93 232.564 336.216C227.763 337.503 222.828 334.653 221.541 329.852C220.255 325.051 223.104 320.116 227.905 318.829C232.706 317.543 237.641 320.392 238.928 325.193Z" fill="#5E1741"/>
<path d="M18.7541 183.62C63.0318 171.755 94.9861 147.434 90.1261 129.296C83.3968 104.182 45.4321 106.073 1.15443 117.937C-32.4839 126.95 -56.8022 151.392 -66.0927 164.312C-67.2435 165.912 -69.3389 166.56 -71.1488 165.779L-101.193 152.819C-105.509 150.958 -110.069 154.898 -108.852 159.439C-108.617 160.317 -108.173 161.125 -107.557 161.793L-100.951 168.966C-95.6165 174.757 -93.4623 182.797 -95.1861 190.479L-97.3209 199.994C-97.5199 200.881 -97.501 201.803 -97.2657 202.681C-96.0491 207.222 -90.1295 208.354 -87.3225 204.584L-67.7835 178.338C-66.6065 176.757 -64.4678 176.271 -62.6711 177.081C-48.1654 183.625 -14.8843 192.633 18.7541 183.62Z" fill="url(#paint7_linear_2583_240065)"/>
<path d="M75.0502 127.124C77.0514 134.593 72.6193 142.269 65.1507 144.271C57.6822 146.272 50.0055 141.84 48.0043 134.371C46.0031 126.903 50.4353 119.226 57.9038 117.225C65.3723 115.223 73.0491 119.656 75.0502 127.124Z" fill="white"/>
<path d="M70.9277 127.193C72.2142 131.995 69.365 136.93 64.5638 138.216C59.7626 139.503 54.8276 136.653 53.5411 131.852C52.2546 127.051 55.1038 122.116 59.905 120.829C64.7062 119.543 69.6413 122.392 70.9277 127.193Z" fill="#5E1741"/>
<path d="M-2.02153 187.089L-21.1927 178.82C-25.509 176.958 -30.069 180.899 -28.8524 185.439C-28.7769 185.721 -28.6798 185.996 -28.5624 186.261C-20.342 187.34 -11.3523 187.775 -2.02153 187.089Z" fill="#5E1741"/>
<path d="M88.1652 142.13C85.8486 142.703 83.5105 143.306 81.1544 143.937C52.8211 151.529 31.1 170.067 19.4018 183.445C53.5079 174.188 80.1908 157.553 88.1652 142.13Z" fill="#5E1741"/>
<path d="M3.59584 117.291C2.7843 117.503 1.97046 117.718 1.15447 117.937C-3.9344 119.3 -8.80997 121.017 -13.4525 122.993C-13.4759 123.56 -13.4135 124.129 -13.2656 124.681C-12.049 129.222 -6.12948 130.354 -3.32239 126.584L3.59584 117.291Z" fill="#1C2554"/>
<path d="M78.6446 269.196C72.6385 270.083 66.3445 271.297 59.8496 272.779L58.6794 277.994C58.4804 278.881 58.4993 279.803 58.7346 280.681C59.9512 285.222 65.8708 286.355 68.6778 282.584L78.6446 269.196Z" fill="#526AE0"/>
<path d="M163.926 263.93L142.807 254.821C138.491 252.959 133.931 256.9 135.148 261.44C135.383 262.318 135.827 263.126 136.443 263.795L137.759 265.223C146.068 265.678 154.911 265.382 163.926 263.93Z" fill="#1F6BAD"/>
<path d="M244.118 220.221C216.629 227.888 195.475 245.79 183.826 258.964C213.791 249.425 236.762 234.324 244.118 220.221Z" fill="#1F6BAD"/>
<path d="M154.589 82.4906L136.807 74.8204C132.491 72.9585 127.931 76.8993 129.147 81.4399C129.383 82.3179 129.827 83.1257 130.443 83.7943L138.248 92.2681C144.337 89.1877 149.828 85.8953 154.589 82.4906Z" fill="#A13012"/>
</g>
<defs>
<linearGradient id="paint0_linear_2583_240065" x1="334.126" y1="231.297" x2="140.814" y2="283.094" gradientUnits="userSpaceOnUse">
<stop stop-color="#83C3FC"/>
<stop offset="1" stop-color="#1F6BAD"/>
</linearGradient>
<linearGradient id="paint1_linear_2583_240065" x1="174.126" y1="51.2962" x2="-19.1858" y2="103.094" gradientUnits="userSpaceOnUse">
<stop stop-color="#83C3FC"/>
<stop offset="1" stop-color="#1F6BAD"/>
</linearGradient>
<linearGradient id="paint2_linear_2583_240065" x1="328.126" y1="51.2962" x2="134.814" y2="103.094" gradientUnits="userSpaceOnUse">
<stop stop-color="#FDA64F"/>
<stop offset="1" stop-color="#E60023"/>
</linearGradient>
<linearGradient id="paint3_linear_2583_240065" x1="170.126" y1="155.296" x2="-23.1858" y2="207.094" gradientUnits="userSpaceOnUse">
<stop stop-color="#83C3FC"/>
<stop offset="1" stop-color="#1F6BAD"/>
</linearGradient>
<linearGradient id="paint4_linear_2583_240065" x1="246.126" y1="207.296" x2="52.8142" y2="259.094" gradientUnits="userSpaceOnUse">
<stop stop-color="#9BAAF3"/>
<stop offset="1" stop-color="#768AEA"/>
</linearGradient>
<linearGradient id="paint5_linear_2583_240065" x1="136.126" y1="287.296" x2="-57.1858" y2="339.094" gradientUnits="userSpaceOnUse">
<stop stop-color="#9BAAF3"/>
<stop offset="1" stop-color="#768AEA"/>
</linearGradient>
<linearGradient id="paint6_linear_2583_240065" x1="258.126" y1="327.296" x2="64.8142" y2="379.094" gradientUnits="userSpaceOnUse">
<stop stop-color="#8F2459"/>
<stop offset="1" stop-color="#2A3FA7"/>
</linearGradient>
<linearGradient id="paint7_linear_2583_240065" x1="90.1261" y1="129.296" x2="-103.186" y2="181.094" gradientUnits="userSpaceOnUse">
<stop stop-color="#8F2459"/>
<stop offset="1" stop-color="#2A3FA7"/>
</linearGradient>
<clipPath id="clip0_2583_240065">
<rect width="375" height="375" fill="white"/>
</clipPath>
</defs>
</svg>
