<svg width="375" height="375" viewBox="0 0 375 375" fill="none" xmlns="http://www.w3.org/2000/svg">
<g clip-path="url(#clip0_2583_241147)">
<rect width="375" height="375" fill="#402970"/>
<path fill-rule="evenodd" clip-rule="evenodd" d="M331.003 89.0338C318.223 73.8031 295.515 71.8165 280.285 84.5966C275.093 88.9532 271.44 94.4635 269.386 100.438C267.71 105.314 265.433 110.112 261.484 113.426L216.258 151.376C214.33 152.993 211.722 153.54 209.307 152.834C203.098 151.017 196.392 152.517 191.549 156.806L102.511 235.656C92.7815 244.272 87.8445 257.079 89.273 269.997L89.3727 270.899L259.977 125.251C263.509 122.236 269.171 124.219 271.263 128.365C272.491 130.801 274.018 133.134 275.847 135.315C288.628 150.545 311.335 152.532 326.565 139.752C341.796 126.972 343.783 104.265 331.003 89.0338ZM323.342 95.4617C314.112 84.4618 297.713 83.027 286.713 92.257C275.713 101.487 274.278 117.887 283.508 128.887C292.738 139.887 309.138 141.321 320.138 132.091C331.137 122.861 332.572 106.462 323.342 95.4617Z" fill="#526AE0"/>
<path d="M-69 130.244L90.0282 87.6323L99.4574 122.823C107.219 151.788 122.964 177.989 144.897 198.438L219.775 268.251C241.708 288.7 257.453 314.901 265.215 343.866L274.644 379.057L115.616 421.668L106.186 386.478C98.4251 357.512 82.6801 331.311 60.747 310.862L-14.1314 241.05C-36.0645 220.601 -51.8095 194.399 -59.5708 165.434L-69 130.244Z" fill="url(#paint0_linear_2583_241147)"/>
<path fill-rule="evenodd" clip-rule="evenodd" d="M252.909 22C270.127 31.9411 276.027 53.9584 266.086 71.1769C262.697 77.0466 257.905 81.6009 252.377 84.6608C247.867 87.1578 243.536 90.2334 240.959 94.6983L211.439 145.827C210.181 148.006 210.095 150.67 211.211 152.926C214.078 158.725 213.765 165.59 210.382 171.104L148.192 272.481C141.395 283.559 129.64 290.645 116.67 291.481L115.765 291.54L229.575 98.2359C231.931 94.2341 228.995 89.0023 224.548 87.6624C221.937 86.8753 219.373 85.7768 216.909 84.3538C199.69 74.4127 193.791 52.3955 203.732 35.1769C213.673 17.9584 235.69 12.0589 252.909 22ZM247.909 30.6603C260.344 37.84 264.605 53.7413 257.425 66.1769C250.246 78.6125 234.344 82.8733 221.909 75.6936C209.473 68.5139 205.212 52.6125 212.392 40.1769C219.572 27.7413 235.473 23.4805 247.909 30.6603Z" fill="#768AEA"/>
<path d="M205.292 158.475C207.683 159.856 208.503 162.914 207.122 165.306C205.741 167.697 202.683 168.516 200.292 167.136C197.9 165.755 197.081 162.697 198.462 160.306C199.842 157.914 202.9 157.095 205.292 158.475Z" fill="#223077"/>
<path d="M189 402.995L265.997 423.627L268.89 412.83C273.741 394.727 283.582 378.351 297.29 365.57L324.091 340.583C337.799 327.802 347.64 311.426 352.491 293.323L355.384 282.526L278.386 261.895L275.493 272.691C270.643 290.795 260.802 307.171 247.094 319.951L220.292 344.939C206.584 357.72 196.744 374.096 191.893 392.199L189 402.995Z" fill="#DA3C0B"/>
<path d="M-45.8709 427.556L15.9483 410.991L15.089 407.784C10.2382 389.681 10.5725 370.578 16.0538 352.656L21.3511 335.335C26.8324 317.413 27.1667 298.311 22.3159 280.207L21.4566 277L-40.3627 293.564L-39.5033 296.772C-34.6525 314.875 -34.9869 333.977 -40.4682 351.9L-45.7654 369.22C-51.2467 387.143 -51.5811 406.245 -46.7303 424.348L-45.8709 427.556Z" fill="#A13012"/>
<path d="M-79 273L8.40195 222.539L11.0479 227.121C25.9829 252.99 47.8102 274.184 74.0404 288.289L99.3898 301.919C125.62 316.023 147.447 337.218 162.382 363.086L165.028 367.669L77.6262 418.131L74.9803 413.548C60.0453 387.68 38.218 366.485 11.9878 352.381L-13.3616 338.75C-39.5918 324.646 -61.4191 303.451 -76.3541 277.583L-79 273Z" fill="#FA5F2E"/>
<path d="M154.554 45.5904L133.259 125.065L129.136 123.96C105.862 117.724 81.3044 118.154 58.2632 125.201L35.9958 132.011C12.9546 139.058 -11.6031 139.487 -34.8768 133.251L-39 132.146L-17.7048 52.6717L-13.5816 53.7765C9.69205 60.0127 34.2498 59.5829 57.291 52.5361L79.5584 45.726C102.6 38.6792 127.157 38.2494 150.431 44.4856L154.554 45.5904Z" fill="#2086DF"/>
<path d="M98.5963 119.609C85.0049 119.32 71.388 121.187 58.2632 125.201L35.9958 132.011C12.9546 139.058 -11.6031 139.488 -34.8768 133.251L-39 132.147L-36.1302 121.436L90.0282 87.6323L98.5963 119.609Z" fill="#83C3FC"/>
<path d="M15.5505 354.355C14.3723 353.682 13.1847 353.024 11.9879 352.381L-13.3615 338.75C-21.3771 334.44 -28.9815 329.468 -36.1038 323.902C-35.99 314.79 -37.1217 305.66 -39.5034 296.772L-40.3628 293.564L21.4565 277L22.3158 280.207C27.1666 298.311 26.8323 317.413 21.351 335.335L16.0537 352.656C15.8809 353.221 15.7131 353.788 15.5505 354.355Z" fill="#E60023"/>
<path d="M109.705 399.61L106.186 386.478C98.4251 357.512 82.6801 331.311 60.747 310.862L-14.1314 241.05C-15.3419 239.921 -16.5336 238.775 -17.7061 237.612L8.40193 222.539L11.0479 227.121C25.9829 252.99 47.8101 274.184 74.0403 288.289L99.3897 301.919C125.62 316.023 147.447 337.218 162.382 363.086L165.028 367.669L109.705 399.61Z" fill="#FDC9B9"/>
<path d="M253.574 313.322C258.465 323.035 262.375 333.266 265.215 343.866L274.644 379.056L189.286 401.928L191.893 392.198C196.744 374.095 206.585 357.719 220.293 344.938L247.094 319.951C249.361 317.837 251.523 315.624 253.574 313.322Z" fill="#ED96ED"/>
</g>
<defs>
<linearGradient id="paint0_linear_2583_241147" x1="207.699" y1="416.568" x2="53.769" y2="78.9885" gradientUnits="userSpaceOnUse">
<stop stop-color="#B497ED"/>
<stop offset="1" stop-color="#EBE2FD"/>
</linearGradient>
<clipPath id="clip0_2583_241147">
<rect width="375" height="375" fill="white"/>
</clipPath>
</defs>
</svg>
