<svg width="220" height="220" viewBox="0 0 220 220" fill="none" xmlns="http://www.w3.org/2000/svg">
<circle cx="110" cy="110" r="95" fill="#8F2459"/>
<path d="M94.0107 203.658C92.7069 203.437 91.4122 203.19 90.127 202.916L75.3711 149.513L63.4072 192.807C62.3399 192.205 61.2854 191.583 60.2441 190.941L75.3711 136.199L94.0107 203.658Z" fill="#C856C8"/>
<path d="M74.9277 133.104L28.9395 159.562C27.1249 156.601 25.4679 153.533 23.9805 150.369L69.8828 123.96L74.9277 133.104Z" fill="#EF7BB5"/>
<path d="M211 72.3821C211 107.387 182.623 135.764 147.618 135.764C112.613 135.764 84.2358 107.387 84.2358 72.3821C84.2358 37.3771 112.613 9 147.618 9C182.623 9 211 37.3771 211 72.3821Z" fill="url(#paint0_linear_2579_234703)"/>
<path d="M147.361 85.2356C154.215 97.1073 150.148 112.288 138.276 119.142C126.404 125.996 111.224 121.928 104.37 110.057C97.5157 98.1849 101.583 83.0046 113.455 76.1505C125.327 69.2964 140.507 73.3639 147.361 85.2356Z" fill="#9BAAF3"/>
<path d="M27.3103 141.468L102.62 87.5243L123.009 122.838L38.6373 161.087L27.3103 141.468Z" fill="url(#paint1_linear_2579_234703)"/>
<path d="M35.5593 155.756L30.3381 146.712L69.8826 123.96L74.928 133.105L35.5593 155.756Z" fill="url(#paint2_linear_2579_234703)"/>
<path d="M61.2327 111.577L119.684 67.4369L148.937 118.105L81.4849 146.655L61.2327 111.577Z" fill="url(#paint3_linear_2579_234703)"/>
<path d="M51.6176 155.202L45.1275 158.145L33.1034 137.318L38.8965 133.169L51.6176 155.202Z" fill="url(#paint4_linear_2579_234703)"/>
<path d="M47.8533 148.682L41.7064 152.219L36.4851 143.175L42.632 139.639L47.8533 148.682Z" fill="url(#paint5_linear_2579_234703)"/>
<path d="M129.195 126.461L102.576 80.3555L108.278 76.0491L135.775 123.675L129.195 126.461Z" fill="url(#paint6_linear_2579_234703)"/>
<circle cx="75.3712" cy="142.856" r="7.0917" fill="#E2E6FD"/>
<circle cx="75.3712" cy="142.856" r="3.54585" fill="#D4C4F7"/>
<path d="M130.332 23.1834C130.821 23.1834 131.218 22.7865 131.218 22.2969C131.218 21.8074 130.821 21.4105 130.332 21.4105C129.842 21.4105 129.445 21.8074 129.445 22.2969C129.445 22.7865 129.842 23.1834 130.332 23.1834Z" fill="#526AE0"/>
<path d="M166.677 24.0699C166.677 24.5594 166.28 24.9563 165.79 24.9563C165.301 24.9563 164.904 24.5594 164.904 24.0699C164.904 23.5803 165.301 23.1834 165.79 23.1834C166.28 23.1834 166.677 23.5803 166.677 24.0699Z" fill="#526AE0"/>
<path d="M152.493 29.3886C153.473 29.3886 154.266 28.5949 154.266 27.6157C154.266 26.6366 153.473 25.8428 152.493 25.8428C151.514 25.8428 150.721 26.6366 150.721 27.6157C150.721 28.5949 151.514 29.3886 152.493 29.3886Z" fill="#526AE0"/>
<path d="M115.262 55.9825C115.752 55.9825 116.148 55.5857 116.148 55.0961C116.148 54.6065 115.752 54.2096 115.262 54.2096C114.772 54.2096 114.376 54.6065 114.376 55.0961C114.376 55.5857 114.772 55.9825 115.262 55.9825Z" fill="#526AE0"/>
<path d="M120.581 58.6419C121.07 58.6419 121.467 58.245 121.467 57.7555C121.467 57.2659 121.07 56.869 120.581 56.869C120.091 56.869 119.694 57.2659 119.694 57.7555C119.694 58.245 120.091 58.6419 120.581 58.6419Z" fill="#526AE0"/>
<path d="M191.498 94.1004C191.498 94.59 191.101 94.9869 190.611 94.9869C190.122 94.9869 189.725 94.59 189.725 94.1004C189.725 93.6109 190.122 93.214 190.611 93.214C191.101 93.214 191.498 93.6109 191.498 94.1004Z" fill="#526AE0"/>
<path d="M176.428 108.284C176.918 108.284 177.314 107.887 177.314 107.397C177.314 106.908 176.918 106.511 176.428 106.511C175.938 106.511 175.542 106.908 175.542 107.397C175.542 107.887 175.938 108.284 176.428 108.284Z" fill="#526AE0"/>
<path d="M171.996 103.852C171.996 105.32 170.805 106.511 169.336 106.511C167.868 106.511 166.677 105.32 166.677 103.852C166.677 102.383 167.868 101.192 169.336 101.192C170.805 101.192 171.996 102.383 171.996 103.852Z" fill="#526AE0"/>
<path d="M177.314 85.2358C178.294 85.2358 179.087 84.442 179.087 83.4629C179.087 82.4837 178.294 81.69 177.314 81.69C176.335 81.69 175.542 82.4837 175.542 83.4629C175.542 84.442 176.335 85.2358 177.314 85.2358Z" fill="#526AE0"/>
<path d="M109.943 59.5284C109.943 60.5075 109.149 61.3013 108.17 61.3013C107.191 61.3013 106.397 60.5075 106.397 59.5284C106.397 58.5492 107.191 57.7555 108.17 57.7555C109.149 57.7555 109.943 58.5492 109.943 59.5284Z" fill="#526AE0"/>
<circle cx="183.52" cy="55.9825" r="12.4105" fill="#E60023"/>
<path d="M192.384 55.9825C192.384 60.8783 188.415 64.8472 183.52 64.8472C178.624 64.8472 174.655 60.8783 174.655 55.9825C174.655 51.0867 178.624 47.1179 183.52 47.1179C188.415 47.1179 192.384 51.0867 192.384 55.9825Z" fill="#FA5F2E"/>
<path d="M188.838 55.9825C188.838 58.92 186.457 61.3013 183.52 61.3013C180.582 61.3013 178.201 58.92 178.201 55.9825C178.201 53.0451 180.582 50.6638 183.52 50.6638C186.457 50.6638 188.838 53.0451 188.838 55.9825Z" fill="#F7C545"/>
<defs>
<linearGradient id="paint0_linear_2579_234703" x1="147.618" y1="9" x2="147.618" y2="135.764" gradientUnits="userSpaceOnUse">
<stop stop-color="#2F1E52"/>
<stop offset="1" stop-color="#2A3FA7"/>
</linearGradient>
<linearGradient id="paint1_linear_2579_234703" x1="32.9738" y1="151.277" x2="112.815" y2="105.181" gradientUnits="userSpaceOnUse">
<stop stop-color="#B497ED"/>
<stop offset="1" stop-color="#E7559E"/>
</linearGradient>
<linearGradient id="paint2_linear_2579_234703" x1="13.3189" y1="163.244" x2="112.815" y2="105.181" gradientUnits="userSpaceOnUse">
<stop offset="0.115216" stop-color="#B497ED"/>
<stop offset="0.586721" stop-color="#E7559E"/>
</linearGradient>
<linearGradient id="paint3_linear_2579_234703" x1="71.3588" y1="129.116" x2="134.31" y2="92.7709" gradientUnits="userSpaceOnUse">
<stop offset="0.4" stop-color="#B497ED"/>
<stop offset="1" stop-color="#F9A4CF"/>
</linearGradient>
<linearGradient id="paint4_linear_2579_234703" x1="33.3217" y1="130.605" x2="51.4585" y2="162.019" gradientUnits="userSpaceOnUse">
<stop stop-color="white" stop-opacity="0.8"/>
<stop offset="1" stop-color="#FDE2FD"/>
</linearGradient>
<linearGradient id="paint5_linear_2579_234703" x1="36.2763" y1="149.965" x2="51.7777" y2="141.001" gradientUnits="userSpaceOnUse">
<stop offset="0.199391" stop-color="#EBE2FD"/>
<stop offset="0.6" stop-color="#FEDDED"/>
</linearGradient>
<linearGradient id="paint6_linear_2579_234703" x1="103.886" y1="75.5334" x2="134.719" y2="128.937" gradientUnits="userSpaceOnUse">
<stop stop-color="white" stop-opacity="0.8"/>
<stop offset="1" stop-color="#FDE2FD"/>
</linearGradient>
</defs>
</svg>
