<svg width="375" height="250" viewBox="0 0 375 250" fill="none" xmlns="http://www.w3.org/2000/svg">
<g clip-path="url(#clip0_2583_241184)">
<rect width="375" height="250" fill="#1E4A71"/>
<path d="M26.2626 25.8623C21.964 25.8623 18.4793 29.347 18.4793 33.6456V64.779C18.4793 68.6264 21.2709 71.8219 24.9391 72.4502L-12.3352 99.8162C-22.3218 107.148 -28.2207 118.797 -28.2207 131.186V374.166C-28.2207 395.66 -10.7971 413.083 10.696 413.083H240.304C261.797 413.083 279.221 395.66 279.221 374.166V131.186C279.221 118.797 273.322 107.148 263.335 99.8162L226.061 72.4502C229.729 71.8219 232.521 68.6264 232.521 64.779V33.6456C232.521 29.347 229.036 25.8623 224.738 25.8623H26.2626Z" fill="url(#paint0_linear_2583_241184)"/>
<path d="M26.2626 25.8623C21.964 25.8623 18.4793 29.347 18.4793 33.6456V64.779C18.4793 68.6264 21.2709 71.8219 24.9391 72.4502L-12.3352 99.8162C-22.3218 107.148 -28.2207 118.797 -28.2207 131.186V374.166C-28.2207 395.66 -10.7971 413.083 10.696 413.083H240.304C261.797 413.083 279.221 395.66 279.221 374.166V131.186C279.221 118.797 273.322 107.148 263.335 99.8162L226.061 72.4502C229.729 71.8219 232.521 68.6264 232.521 64.779V33.6456C232.521 29.347 229.036 25.8623 224.738 25.8623H26.2626Z" fill="url(#paint1_linear_2583_241184)" fill-opacity="0.3"/>
<path opacity="0.5" d="M279.221 374.166V131.186C279.221 118.797 273.322 107.148 263.335 99.816L225.711 72.1927H25.2897L-12.3351 99.816C-22.3218 107.148 -28.2207 118.797 -28.2207 131.186V374.166C-28.2207 395.659 -10.7971 413.083 10.696 413.083H240.304C261.797 413.083 279.221 395.659 279.221 374.166Z" fill="url(#paint2_linear_2583_241184)"/>
<path d="M13.2014 194.008L17.6746 198.481L-8.33076 224.486C-12.1166 228.272 -16.2085 231.739 -20.5648 234.852L-24.9124 237.958L-26.2749 236.596L-23.1713 232.251C-20.0574 227.892 -16.5888 223.798 -12.8008 220.01L13.2014 194.008Z" fill="#C4CDF8"/>
<path d="M55.2621 193.576C49.9429 188.257 41.3186 188.257 35.9994 193.576L30.5114 199.064L36.537 205.089C41.8562 210.409 41.8562 219.033 36.537 224.352L22.1474 238.742L-27.0576 189.537L-12.668 175.147C-7.34876 169.828 1.27548 169.828 6.59474 175.147L12.6187 181.171L18.1066 175.683C23.4259 170.364 23.4259 161.74 18.1066 156.42L17.1142 155.428L22.1466 150.396L61.2869 189.536L56.2545 194.568L55.2621 193.576Z" fill="#70E6C8"/>
<path d="M-0.218714 216.374L21.5657 194.589L17.0925 190.116L-4.69189 211.901L-0.218714 216.374Z" fill="#2B8235"/>
<path d="M70.458 145.362L65.9849 149.835L91.9902 175.841C95.7761 179.626 99.868 183.093 104.224 186.206L108.572 189.312L109.934 187.95L106.831 183.605C103.717 179.246 100.248 175.152 96.4603 171.364L70.458 145.362Z" fill="#C4CDF8"/>
<path d="M28.3968 144.93C33.7161 139.611 42.3403 139.611 47.6596 144.93L53.1475 150.418L47.122 156.444C41.8027 161.763 41.8027 170.387 47.122 175.706L61.5116 190.096L110.717 140.891L96.327 126.501C91.0077 121.182 82.3835 121.182 77.0642 126.501L71.0402 132.525L65.5523 127.037C60.233 121.718 60.233 113.094 65.5523 107.775L66.5447 106.782L61.5124 101.75L22.3721 140.89L27.4044 145.923L28.3968 144.93Z" fill="#2B8235"/>
<path d="M83.8781 167.728L62.0938 145.944L66.5669 141.47L88.3513 163.255L83.8781 167.728Z" fill="#354517"/>
<path d="M80.7524 245.987L80.7524 239.661L117.53 239.661C122.884 239.661 128.228 240.103 133.51 240.982L138.781 241.86L138.781 243.787L133.514 244.664C128.23 245.544 122.882 245.987 117.525 245.987L80.7524 245.987Z" fill="#C4CDF8"/>
<path d="M50.7052 216.55C50.7052 224.073 56.8034 230.171 64.326 230.171L72.0871 230.171L72.0871 221.65C72.0871 214.127 78.1854 208.029 85.7079 208.029L106.058 208.029L106.058 277.615L85.708 277.615C78.1854 277.615 72.0871 271.517 72.0871 263.994L72.0871 255.475L64.326 255.475C56.8034 255.475 50.7052 261.573 50.7052 269.096L50.7052 270.499H43.5884L43.5884 215.147L50.7052 215.147L50.7052 216.55Z" fill="#FDA64F"/>
<path d="M106.057 239.661L75.249 239.661L75.249 245.987L106.057 245.987V239.661Z" fill="#FA5F2E"/>
<path d="M240.682 197.724L247.008 197.724L247.008 234.501C247.008 239.855 246.566 245.2 245.686 250.481L244.809 255.752L242.882 255.752L242.004 250.485C241.124 245.201 240.682 239.853 240.682 234.497L240.682 197.724Z" fill="#C4CDF8"/>
<path d="M270.118 167.677C262.595 167.677 256.497 173.775 256.497 181.298V189.059L265.018 189.059C272.541 189.059 278.639 195.157 278.639 202.68L278.639 223.03H209.053L209.053 202.68C209.053 195.157 215.151 189.059 222.674 189.059H231.193V181.298C231.193 173.775 225.094 167.677 217.572 167.677L216.168 167.677L216.168 160.56L271.521 160.56L271.521 167.677L270.118 167.677Z" fill="#D7CB42"/>
<path d="M247.007 223.028V192.221L240.681 192.221L240.681 223.028H247.007Z" fill="#776F0D"/>
<path d="M5.23584 283.328H11.5619L11.5619 246.551C11.5619 241.197 11.1199 235.852 10.2405 230.571L9.36287 225.3L7.43606 225.3L6.55862 230.566C5.67827 235.851 5.23584 241.198 5.23584 246.555L5.23584 283.328Z" fill="#C4CDF8"/>
<path d="M137.735 158.983L142.208 163.456L116.202 189.461C112.417 193.247 108.325 196.714 103.968 199.827L99.6208 202.933L98.2583 201.571L101.362 197.226C104.476 192.867 107.944 188.773 111.732 184.985L137.735 158.983Z" fill="#C4CDF8"/>
<path d="M179.795 158.551C174.476 153.232 165.852 153.232 160.533 158.551L155.045 164.039L161.07 170.064C166.389 175.384 166.389 184.008 161.07 189.327L146.681 203.717L97.4756 154.512L111.865 140.122C117.184 134.803 125.809 134.803 131.128 140.122L137.152 146.146L142.64 140.658C147.959 135.339 147.959 126.715 142.64 121.395L141.647 120.403L146.68 115.371L185.82 154.511L180.788 159.543L179.795 158.551Z" fill="#F9A4CF"/>
<path d="M124.314 181.349L146.099 159.564L141.626 155.091L119.841 176.876L124.314 181.349Z" fill="#C82376"/>
<path d="M257.407 322.542C259.354 315.276 255.042 307.807 247.776 305.86L240.279 303.851L238.073 312.082C236.126 319.348 228.658 323.661 221.391 321.714L201.735 316.447L219.745 249.231L239.402 254.498C246.668 256.445 250.98 263.914 249.033 271.18L246.828 279.409L254.325 281.418C261.591 283.365 269.06 279.053 271.007 271.787L271.37 270.431L278.244 272.273L263.918 325.74L257.044 323.898L257.407 322.542Z" fill="#70E6C8"/>
<path d="M200.001 124.004L204.474 119.531L178.469 93.5258C174.683 89.74 170.591 86.2731 166.235 83.1605L161.887 80.054L160.525 81.4165L163.629 85.761C166.742 90.1199 170.211 94.2142 173.999 98.0021L200.001 124.004Z" fill="#C4CDF8"/>
<path d="M242.062 124.436C236.743 129.755 228.119 129.755 222.8 124.436L217.312 118.948L223.337 112.923C228.657 107.603 228.657 98.979 223.337 93.6597L208.948 79.2701L159.743 128.475L174.132 142.865C179.452 148.184 188.076 148.184 193.395 142.865L199.419 136.841L204.907 142.329C210.226 147.648 210.226 156.272 204.907 161.591L203.915 162.584L208.947 167.616L248.087 128.476L243.055 123.444L242.062 124.436Z" fill="#E60023"/>
<path d="M186.582 101.638L208.366 123.422L203.893 127.895L182.108 106.111L186.582 101.638Z" fill="#402970"/>
<path d="M169.666 236.453L165.585 241.287L193.688 265.01C197.779 268.464 202.148 271.574 206.751 274.309L211.345 277.038L212.588 275.566L209.13 271.498C205.66 267.417 201.859 263.629 197.765 260.174L169.666 236.453Z" fill="#C4CDF8"/>
<path d="M127.718 239.565C132.57 233.817 141.164 233.09 146.912 237.943L152.843 242.949L147.346 249.461C142.494 255.209 143.22 263.803 148.968 268.655L164.519 281.782L209.405 228.608L193.855 215.481C188.107 210.629 179.513 211.355 174.661 217.103L169.165 223.613L163.235 218.607C157.487 213.754 156.76 205.161 161.613 199.413L162.518 198.34L157.08 193.749L121.375 236.047L126.813 240.637L127.718 239.565Z" fill="#BBDA81"/>
<path d="M184.921 257.61L161.38 237.738L165.46 232.904L189.002 252.776L184.921 257.61Z" fill="#38A845"/>
<path d="M18.4791 37.5373C16.3298 37.5373 14.5874 39.2797 14.5874 41.429C14.5874 43.5783 16.3298 45.3206 18.4791 45.3206H232.521C234.67 45.3206 236.412 43.5783 236.412 41.429C236.412 39.2797 234.67 37.5373 232.521 37.5373H18.4791Z" fill="#F3F9F9"/>
<path d="M18.4791 53.104C16.3298 53.104 14.5874 54.8463 14.5874 56.9956C14.5874 59.1449 16.3298 60.8873 18.4791 60.8873H232.521C234.67 60.8873 236.412 59.1449 236.412 56.9956C236.412 54.8463 234.67 53.104 232.521 53.104H18.4791Z" fill="#F3F9F9"/>
</g>
<defs>
<linearGradient id="paint0_linear_2583_241184" x1="76.8542" y1="25.8622" x2="76.8542" y2="413.083" gradientUnits="userSpaceOnUse">
<stop stop-color="white" stop-opacity="0.8"/>
<stop offset="1" stop-color="#C2F0C8"/>
</linearGradient>
<linearGradient id="paint1_linear_2583_241184" x1="76.8542" y1="25.8622" x2="76.8542" y2="413.083" gradientUnits="userSpaceOnUse">
<stop stop-color="#FDE2FD"/>
<stop offset="1" stop-color="white" stop-opacity="0.8"/>
</linearGradient>
<linearGradient id="paint2_linear_2583_241184" x1="76.8542" y1="72.1926" x2="76.8542" y2="413.083" gradientUnits="userSpaceOnUse">
<stop stop-color="#FDE2FD"/>
<stop offset="1" stop-color="white" stop-opacity="0.8"/>
</linearGradient>
<clipPath id="clip0_2583_241184">
<rect width="375" height="250" fill="white"/>
</clipPath>
</defs>
</svg>
