<svg fill="none" height="220" viewBox="0 0 220 220" width="220" xmlns="http://www.w3.org/2000/svg" xmlns:xlink="http://www.w3.org/1999/xlink"><linearGradient id="a" gradientUnits="userSpaceOnUse" x1="118.165" x2="118.165" y1="29.7501" y2="210.25"><stop offset="0" stop-color="#fff"/><stop offset="1" stop-color="#fde2fd"/></linearGradient><linearGradient id="b" gradientUnits="userSpaceOnUse" x1="203.256" x2="111.668" y1="15.8722" y2="124.329"><stop offset="0" stop-color="#bd5f00"/><stop offset="1" stop-color="#804000"/></linearGradient><circle cx="110" cy="110" fill="#efcdf4" r="95"/><path clip-rule="evenodd" d="m28.6424 159.078c-5.6989-11.841-8.8924-25.117-8.8924-39.139 0-47.8103 37.1367-86.9435 84.106-90.1046 4.069-.2739 8.257.0645 11.93 1.8387 11.116 5.3693 4.9 14.3827-1.434 23.5658-1.524 2.2095-3.054 4.4289-4.352 6.6098-6.443 10.8286-5.028 21.2453 6.017 18.293 61.844-16.5309 84.233 16.533 84.233 39.7973 0 14.022-3.193 27.298-8.892 39.139-16.639 27.523-46.85 45.922-81.358 45.922-34.5082 0-64.719-18.399-81.3576-45.922zm61.4304-88.9904c0-5.5064-4.4609-9.9703-9.9636-9.9703s-9.9636 4.4639-9.9636 9.9703c0 5.5065 4.4609 9.9703 9.9636 9.9703s9.9636-4.4638 9.9636-9.9703z" fill="url(#a)" fill-rule="evenodd"/><circle cx="174.505" cy="113.54" fill="#e60023" r="13.68" transform="matrix(-1 0 -0 -1 349.01 227.08)"/><circle cx="160.825" cy="116.96" fill="#fdbf81" r="13.68" transform="matrix(-1 0 -0 -1 321.65 233.92)"/><circle cx="13.68" cy="13.68" fill="#ef7bb5" r="13.68" transform="matrix(1 0 0 -1 39.415 169.97)"/><circle cx="13.68" cy="13.68" fill="#fda64f" r="13.68" transform="matrix(1 0 0 -1 73.615 182.795)"/><circle cx="13.68" cy="13.68" fill="#bd5f00" r="13.68" transform="matrix(1 0 0 -1 79.6 163.13)"/><circle cx="13.68" cy="13.68" fill="#ed96ed" r="13.68" transform="matrix(1 0 0 -1 87.295 196.475)"/><circle cx="13.68" cy="13.68" fill="#fa5f2e" r="13.68" transform="matrix(1 0 0 -1 124.915 187.07)"/><circle cx="13.68" cy="13.68" fill="#5e1741" r="13.68" transform="matrix(1 0 0 -1 138.595 173.39)"/><circle cx="46.2551" cy="110.975" fill="#c856c8" r="13.68" transform="matrix(-1 0 -0 -1 92.5102 221.95)"/><circle cx="63.355" cy="122.09" fill="#8f2459" r="13.68" transform="matrix(-1 0 -0 -1 126.71 244.18)"/><path d="m49.834 124.182c-.1047-.682-.159-1.381-.159-2.092 0-6.317 4.2816-11.634 10.1011-13.207.1047.682.1589 1.381.1589 2.092 0 6.317-4.2815 11.634-10.101 13.207z" fill="#4c1a4c"/><path d="m98.928 161.913c-2.4124-3.888-6.7203-6.478-11.6331-6.478-2.0139 0-3.9263.435-5.648 1.217 2.4124 3.888 6.7203 6.478 11.633 6.478 2.014 0 3.9264-.435 5.6481-1.217z" fill="#804000"/><path d="m100.975 169.115c-7.5552 0-13.68 6.125-13.68 13.68 7.5553 0 13.68-6.125 13.68-13.68z" fill="#c82376"/><path d="m152.275 173.39c0-7.555-6.125-13.68-13.68-13.68 0 7.555 6.125 13.68 13.68 13.68z" fill="#e60023"/><path d="m164.825 103.874c-2.472 2.475-4 5.892-4 9.666 0 6.164 4.076 11.376 9.68 13.086 2.472-2.475 4-5.892 4-9.666 0-6.164-4.076-11.375-9.68-13.086z" fill="#fa5f2e"/><path d="m123.497 114.288 65.359-79.0355-5.4-4.5605-64.15 80.365c.974.168 1.918.598 2.728 1.298.636.549 1.125 1.211 1.463 1.933z" fill="url(#b)"/><path d="m119.489 111.092c.909.188 1.786.607 2.545 1.263.636.55 1.125 1.211 1.464 1.933l17.551-21.2243-4.085-4.1273-17.658 22.1206c.061.01.122.022.183.035z" fill="#ed96ed"/><path d="m122.712 120.592c2.035-2.466 1.731-6.154-.678-8.237-2.41-2.083-6.012-1.772-8.047.694-1.511 1.832-6.172 11.243-6.172 11.243l2.855 2.928c4.875-.168 8.972-2.906 12.042-6.628z" fill="#5c2e00"/></svg>