<svg xmlns="http://www.w3.org/2000/svg" width="375" height="250" fill="none" viewBox="0 0 375 250"><g clip-path="url(#a)"><path fill="#c4e0f8" d="M0 0h375v250H0z"/><g clip-path="url(#b)"><path fill="#526ae0" d="M254.94 93.62c44.632 0 81.05 18.418 83.07 41.535a.05.05 0 0 0 .048.045c.027 0 .048.021.048.048v55.392c0 45.928-37.232 83.16-83.16 83.16-30.668 0-57.458-16.602-71.875-41.308-.57-.978-1.831-1.305-2.843-.797a23.6 23.6 0 0 1-10.635 2.505h-.407a23.76 23.76 0 0 1-21.969-14.712l-13.682-33.219c-7.693-18.68 6.041-39.189 26.243-39.189 3.179 0 6.25.526 9.123 1.502 1.372.466 2.885-.502 2.885-1.951v-8.969q-.005-.241-.006-.482 0-.242.006-.483v-1.456c0-.023.019-.041.042-.041a.04.04 0 0 0 .041-.039c2.014-23.12 38.435-41.541 83.071-41.541m-95.162 73.26c-6.108.001-10.26 6.201-7.934 11.849l13.681 33.219a3.96 3.96 0 0 0 3.661 2.452h.407a3.96 3.96 0 0 0 3.917-4.536l-5.243-35.652a8.58 8.58 0 0 0-8.489-7.332"/><path fill="url(#c)" d="M181.68 137.18c0-6.5 5.216-14.785 19.05-22.031 13.365-7.001 32.515-11.629 54.21-11.629s40.845 4.628 54.21 11.629c13.834 7.246 19.05 15.531 19.05 22.031s-5.216 14.785-19.05 22.031c-13.365 7.001-32.515 11.629-54.21 11.629v9.9c45.928 0 83.16-19.502 83.16-43.56 0-24.057-37.232-43.56-83.16-43.56s-83.16 19.503-83.16 43.56 37.232 43.56 83.16 43.56v-9.9c-21.695 0-40.845-4.628-54.21-11.629-13.834-7.246-19.05-15.531-19.05-22.031"/><path fill="#c856c8" d="M254.94 93.62c31.663 0 59.192 9.27 73.238 22.91-.926 25.723-33.36 46.39-73.238 46.39s-72.312-20.667-73.238-46.39c14.047-13.64 41.576-22.91 73.238-22.91"/><ellipse cx="254.94" cy="137.18" fill="url(#d)" rx="73.26" ry="33.66"/><g filter="url(#e)"><path fill="url(#f)" d="M215.34 132.527c0 13.167 39.6 24.453 39.6 24.453s39.6-11.286 39.6-24.453v-.997c0-6.721-9.559-12.17-21.35-12.17-6.336 0-12.345 1.604-16.402 4.379l-1.848 1.264-1.848-1.264c-4.057-2.775-10.066-4.379-16.402-4.379-11.791 0-21.35 5.449-21.35 12.17z"/></g><path fill="#fa5f2e" d="M45.06 93.62c-44.632 0-81.05 18.418-83.07 41.535a.05.05 0 0 1-.048.045.05.05 0 0 0-.048.048v55.392c0 45.928 37.232 83.16 83.16 83.16 30.668 0 57.458-16.602 71.875-41.308.57-.978 1.831-1.305 2.843-.797a23.6 23.6 0 0 0 10.635 2.505h.407a23.76 23.76 0 0 0 21.969-14.712l13.682-33.219c7.693-18.68-6.041-39.189-26.243-39.189-3.179 0-6.25.526-9.123 1.502-1.372.466-2.885-.502-2.885-1.951v-8.969q.005-.241.006-.482 0-.242-.006-.483v-1.456a.04.04 0 0 0-.042-.041.04.04 0 0 1-.041-.039c-2.014-23.12-38.435-41.541-83.071-41.541m95.162 73.26c6.108.001 10.26 6.201 7.934 11.849l-13.681 33.219a3.96 3.96 0 0 1-3.661 2.452h-.407a3.96 3.96 0 0 1-3.917-4.536l5.243-35.652a8.58 8.58 0 0 1 8.489-7.332"/><path fill="url(#g)" d="M118.32 137.18c0-6.5-5.216-14.785-19.05-22.031-13.365-7.001-32.515-11.629-54.21-11.629-21.694 0-40.845 4.628-54.21 11.629-13.834 7.246-19.05 15.531-19.05 22.031s5.216 14.785 19.05 22.031c13.365 7.001 32.516 11.629 54.21 11.629v9.9c-45.928 0-83.16-19.502-83.16-43.56 0-24.057 37.232-43.56 83.16-43.56s83.16 19.503 83.16 43.56-37.232 43.56-83.16 43.56v-9.9c21.695 0 40.845-4.628 54.21-11.629 13.834-7.246 19.05-15.531 19.05-22.031"/><path fill="#fda64f" d="M45.06 93.62c-31.664 0-59.192 9.27-73.238 22.911.926 25.722 33.36 46.389 73.238 46.389s72.312-20.667 73.238-46.389C104.252 102.89 76.724 93.619 45.06 93.619"/><ellipse cx="73.26" cy="33.66" fill="url(#h)" rx="73.26" ry="33.66" transform="matrix(-1 0 0 1 118.32 103.52)"/><g filter="url(#i)"><path fill="url(#j)" d="M84.66 132.527c0 13.167-39.6 24.453-39.6 24.453s-39.6-11.286-39.6-24.453v-.997c0-6.721 9.559-12.17 21.35-12.17 6.337 0 12.345 1.604 16.402 4.379l1.848 1.264 1.848-1.264c4.057-2.775 10.066-4.379 16.402-4.379 11.791 0 21.35 5.449 21.35 12.17z"/></g><path fill="#e60023" d="M150 148.787c11.486 4.191 19.089 15.533 18.609 27.747l-.34-2.322a8.58 8.58 0 0 0-8.491-7.332c-6.108 0-10.259 6.201-7.933 11.849l8.861 21.519-7.924 19.239a23.7 23.7 0 0 1-2.782 4.96 23.7 23.7 0 0 1-2.782-4.96l-7.926-19.239 8.863-21.519c2.326-5.648-1.825-11.849-7.933-11.849a8.58 8.58 0 0 0-8.491 7.332l-.34 2.311c-.475-12.21 7.127-23.546 18.609-27.736"/><ellipse cx="45.06" cy="115.4" fill="url(#k)" opacity=".8" rx="73.26" ry="47.52"/><ellipse cx="254.94" cy="115.4" fill="url(#l)" opacity=".8" rx="73.26" ry="47.52"/><ellipse cx="45.06" cy="23.33" fill="url(#m)" opacity=".8" rx="63.36" ry="44.55"/><ellipse cx="254.94" cy="23.33" fill="url(#n)" opacity=".8" rx="63.36" ry="44.55"/><ellipse cx="45.06" cy="-17.26" fill="url(#o)" opacity=".8" rx="37.62" ry="25.74"/><ellipse cx="254.94" cy="-17.26" fill="url(#p)" opacity=".8" rx="37.62" ry="25.74"/><ellipse cx="45.06" cy="71.84" fill="url(#q)" opacity=".8" rx="83.16" ry="63.36"/><ellipse cx="254.94" cy="71.84" fill="url(#r)" opacity=".8" rx="83.16" ry="63.36"/></g></g><defs><radialGradient id="c" cx="0" cy="0" r="1" gradientTransform="rotate(-90 214.87 -40.07)scale(81.18)" gradientUnits="userSpaceOnUse"><stop stop-color="#59aaf3"/><stop offset="1" stop-color="#526ae0"/></radialGradient><radialGradient id="d" cx="0" cy="0" r="1" gradientTransform="matrix(0 33.66 -73.26 0 254.94 137.18)" gradientUnits="userSpaceOnUse"><stop stop-color="#a69377"/><stop offset=".75" stop-color="#804000"/><stop offset="1" stop-color="#5c2e00"/></radialGradient><radialGradient id="g" cx="0" cy="0" r="1" gradientTransform="rotate(-90 112.9 67.84)scale(80.19)" gradientUnits="userSpaceOnUse"><stop stop-color="#fca58d"/><stop offset="1" stop-color="#fa5f2e"/></radialGradient><radialGradient id="h" cx="0" cy="0" r="1" gradientTransform="matrix(0 33.66 -73.26 0 73.26 33.66)" gradientUnits="userSpaceOnUse"><stop stop-color="#a69377"/><stop offset=".75" stop-color="#804000"/><stop offset="1" stop-color="#5c2e00"/></radialGradient><radialGradient id="k" cx="0" cy="0" r="1" gradientTransform="matrix(-88.6831 0 0 -197.467 45.06 115.4)" gradientUnits="userSpaceOnUse"><stop offset=".2" stop-color="#fff" stop-opacity="0"/><stop offset=".9" stop-color="#fdebd8"/></radialGradient><radialGradient id="l" cx="0" cy="0" r="1" gradientTransform="matrix(-88.6831 0 0 -197.467 254.94 115.4)" gradientUnits="userSpaceOnUse"><stop offset=".2" stop-color="#fff" stop-opacity="0"/><stop offset=".9" stop-color="#fdebd8"/></radialGradient><radialGradient id="m" cx="0" cy="0" r="1" gradientTransform="matrix(-76.6989 0 0 -185.126 45.06 23.33)" gradientUnits="userSpaceOnUse"><stop offset=".2" stop-color="#fff" stop-opacity="0"/><stop offset=".9" stop-color="#fdebd8"/></radialGradient><radialGradient id="n" cx="0" cy="0" r="1" gradientTransform="matrix(-76.6989 0 0 -185.126 254.94 23.33)" gradientUnits="userSpaceOnUse"><stop offset=".2" stop-color="#fff" stop-opacity="0"/><stop offset=".9" stop-color="#fdebd8"/></radialGradient><radialGradient id="o" cx="0" cy="0" r="1" gradientTransform="matrix(-45.54 0 0 -106.961 45.06 -17.26)" gradientUnits="userSpaceOnUse"><stop offset=".2" stop-color="#fff" stop-opacity="0"/><stop offset=".9" stop-color="#fdebd8"/></radialGradient><radialGradient id="p" cx="0" cy="0" r="1" gradientTransform="matrix(-45.54 0 0 -106.961 254.94 -17.26)" gradientUnits="userSpaceOnUse"><stop offset=".2" stop-color="#fff" stop-opacity="0"/><stop offset=".9" stop-color="#fdebd8"/></radialGradient><radialGradient id="q" cx="0" cy="0" r="1" gradientTransform="matrix(-100.667 0 0 -263.29 45.06 71.84)" gradientUnits="userSpaceOnUse"><stop offset=".2" stop-color="#fff" stop-opacity="0"/><stop offset=".9" stop-color="#fdebd8"/></radialGradient><radialGradient id="r" cx="0" cy="0" r="1" gradientTransform="matrix(-100.667 0 0 -263.29 254.94 71.84)" gradientUnits="userSpaceOnUse"><stop offset=".2" stop-color="#fff" stop-opacity="0"/><stop offset=".9" stop-color="#fdebd8"/></radialGradient><linearGradient id="f" x1="254.94" x2="254.94" y1="119.36" y2="156.98" gradientUnits="userSpaceOnUse"><stop stop-color="#fff"/><stop offset="1" stop-color="#fdd9b4"/></linearGradient><linearGradient id="j" x1="45.06" x2="45.06" y1="119.36" y2="156.98" gradientUnits="userSpaceOnUse"><stop stop-color="#fff"/><stop offset="1" stop-color="#fdd9b4"/></linearGradient><clipPath id="a"><path fill="#fff" d="M0 0h375v250H0z"/></clipPath><clipPath id="b"><path fill="#fff" d="M-48-43h396v316.8H-48z"/></clipPath><filter id="e" width="83.16" height="41.58" x="213.36" y="117.38" color-interpolation-filters="sRGB" filterUnits="userSpaceOnUse"><feFlood flood-opacity="0" result="BackgroundImageFix"/><feBlend in="SourceGraphic" in2="BackgroundImageFix" result="shape"/><feGaussianBlur result="effect1_foregroundBlur_2779_9881" stdDeviation=".99"/></filter><filter id="i" width="83.16" height="41.58" x="3.48" y="117.38" color-interpolation-filters="sRGB" filterUnits="userSpaceOnUse"><feFlood flood-opacity="0" result="BackgroundImageFix"/><feBlend in="SourceGraphic" in2="BackgroundImageFix" result="shape"/><feGaussianBlur result="effect1_foregroundBlur_2779_9881" stdDeviation=".99"/></filter></defs></svg>