<svg width="375" height="375" viewBox="0 0 375 375" fill="none" xmlns="http://www.w3.org/2000/svg">
<rect width="375" height="375" fill="#354517"/>
<path d="M115 339.25H259L232.623 259.521C274.573 241.74 304 200.182 304 151.75C304 87.1327 251.617 34.75 187 34.75C122.383 34.75 70 87.1327 70 151.75C70 200.182 99.427 241.74 141.377 259.521L115 339.25Z" fill="url(#paint0_linear_2583_241145)"/>
<path d="M247.01 252.209C242.41 254.963 237.605 257.41 232.624 259.521L259 339.25H115L141.377 259.521C119.179 250.112 100.488 234.045 87.8071 213.826C89.7526 212.614 91.7471 211.445 93.756 210.268C109.918 200.799 127.01 190.784 127.01 153.25V76.2354C127.01 70.89 133.472 68.213 137.252 71.9928L163.353 98.0938C170.612 94.9765 178.609 93.2501 187.01 93.2501C195.41 93.2501 203.407 94.9765 210.666 98.0938L236.767 71.9928C240.547 68.213 247.01 70.89 247.01 76.2354V252.209Z" fill="url(#paint1_linear_2583_241145)"/>
<path d="M241 83.9927C241 81.32 237.769 79.9815 235.879 81.8714L219.797 97.9532C218.392 99.3579 218.716 101.715 220.448 102.689L236.529 111.735C238.529 112.86 241 111.415 241 109.121V83.9927Z" fill="url(#paint2_linear_2583_241145)"/>
<path d="M134.5 83.9927C134.5 81.32 137.731 79.9815 139.621 81.8714L155.703 97.9532C157.108 99.3579 156.784 101.715 155.053 102.689L138.971 111.735C136.971 112.86 134.5 111.415 134.5 109.121V83.9927Z" fill="url(#paint3_linear_2583_241145)"/>
<path d="M198.656 163.2C199.259 160.442 197.162 157.75 194.256 157.75H179.743C176.838 157.75 174.74 160.442 175.344 163.2C179.955 164.651 183.408 167.636 184.435 171.25L184.487 171.25H189.513C189.53 171.25 189.548 171.25 189.565 171.25C190.592 167.636 194.044 164.651 198.656 163.2Z" fill="#FDC4E1"/>
<path d="M161.5 154.75C153.216 154.75 146.5 148.034 146.5 139.75C146.5 131.466 153.216 124.75 161.5 124.75C169.784 124.75 176.5 131.466 176.5 139.75C176.5 148.034 169.784 154.75 161.5 154.75Z" fill="#79D8EC"/>
<path d="M212.5 154.75C204.216 154.75 197.5 148.034 197.5 139.75C197.5 131.466 204.216 124.75 212.5 124.75C220.784 124.75 227.5 131.466 227.5 139.75C227.5 148.034 220.784 154.75 212.5 154.75Z" fill="#79D8EC"/>
<path d="M158.5 139.75C158.5 143.892 161.522 147.25 165.25 147.25C168.978 147.25 172 143.892 172 139.75C172 135.608 168.978 132.25 165.25 132.25C161.522 132.25 158.5 135.608 158.5 139.75Z" fill="#13434E"/>
<path d="M202 139.75C202 143.892 205.022 147.25 208.75 147.25C212.478 147.25 215.5 143.892 215.5 139.75C215.5 135.608 212.478 132.25 208.75 132.25C205.022 132.25 202 135.608 202 139.75Z" fill="#13434E"/>
<path d="M103.731 150.865L147.416 166.75L103.731 182.636L105.269 186.865L160.584 166.75L105.269 146.635L103.731 150.865Z" fill="#2086DF"/>
<path d="M270.269 150.865L226.584 166.75L270.269 182.636L268.731 186.865L213.416 166.75L268.731 146.635L270.269 150.865Z" fill="#2086DF"/>
<path d="M247.01 174.178V178.966L213.416 166.75L247.01 154.534V159.323L226.584 166.75L247.01 174.178Z" fill="#BDEEF6"/>
<path d="M126.853 159.273C126.935 157.746 126.985 156.169 127.003 154.539L160.584 166.75L122.825 180.481C123.456 178.784 124.025 176.985 124.526 175.074L147.416 166.75L126.853 159.273Z" fill="#BDEEF6"/>
<defs>
<linearGradient id="paint0_linear_2583_241145" x1="187" y1="15.25" x2="187" y2="346.698" gradientUnits="userSpaceOnUse">
<stop stop-color="#1A5866"/>
<stop offset="1" stop-color="#1BA1BB"/>
</linearGradient>
<linearGradient id="paint1_linear_2583_241145" x1="247" y1="78.25" x2="247" y2="323.5" gradientUnits="userSpaceOnUse">
<stop stop-color="#FDA64F"/>
<stop offset="0.1" stop-color="#FDD9B4"/>
<stop offset="0.3" stop-color="white"/>
</linearGradient>
<linearGradient id="paint2_linear_2583_241145" x1="238.75" y1="81.25" x2="227.5" y2="106.75" gradientUnits="userSpaceOnUse">
<stop offset="0.25" stop-color="#E60023"/>
<stop offset="1" stop-color="white" stop-opacity="0"/>
</linearGradient>
<linearGradient id="paint3_linear_2583_241145" x1="136.75" y1="81.25" x2="148" y2="106.75" gradientUnits="userSpaceOnUse">
<stop offset="0.25" stop-color="#E60023"/>
<stop offset="1" stop-color="white" stop-opacity="0"/>
</linearGradient>
</defs>
</svg>
