<svg width="375" height="250" viewBox="0 0 375 250" fill="none" xmlns="http://www.w3.org/2000/svg">
<g clip-path="url(#clip0_2583_241175)">
<rect width="375" height="250" fill="#1E4A71"/>
<path d="M262.566 212.965C295.774 204.067 319.74 185.826 316.095 172.222C311.048 153.387 282.574 154.804 249.366 163.703C224.137 170.463 205.898 188.794 198.931 198.484C198.068 199.684 196.496 200.17 195.139 199.584L172.606 189.865C169.368 188.468 165.948 191.424 166.861 194.829C167.037 195.488 167.371 196.094 167.833 196.595L172.787 201.975C176.788 206.318 178.403 212.348 177.111 218.11L175.509 225.246C175.36 225.911 175.374 226.602 175.551 227.261C176.463 230.666 180.903 231.516 183.008 228.688L197.662 209.004C198.545 207.818 200.149 207.453 201.497 208.061C212.376 212.969 237.337 219.725 262.566 212.965Z" fill="url(#paint0_linear_2583_241175)"/>
<path d="M304.788 170.593C306.289 176.195 302.965 181.952 297.363 183.453C291.762 184.954 286.004 181.63 284.503 176.028C283.003 170.427 286.327 164.669 291.928 163.168C297.529 161.668 303.287 164.992 304.788 170.593Z" fill="white" fill-opacity="0.8"/>
<path d="M301.696 170.646C302.66 174.247 300.523 177.948 296.923 178.913C293.322 179.878 289.62 177.741 288.656 174.14C287.691 170.539 289.828 166.838 293.428 165.873C297.029 164.908 300.731 167.045 301.696 170.646Z" fill="#5E1741"/>
<path d="M142.566 77.9647C175.774 69.0666 199.74 50.8255 196.095 37.2221C191.048 18.3866 162.574 19.8044 129.366 28.7025C104.137 35.4625 85.8985 53.7939 78.9306 63.4838C78.0675 64.6839 76.4959 65.1699 75.1385 64.5844L52.6056 54.8646C49.3684 53.4682 45.9484 56.4238 46.8608 59.8292C47.0373 60.4877 47.3707 61.0936 47.8325 61.595L52.7872 66.9745C56.7877 71.3181 58.4034 77.3476 57.1106 83.1096L55.5094 90.2457C55.3602 90.9109 55.3744 91.6023 55.5508 92.2608C56.4633 95.6662 60.903 96.5158 63.0083 93.6878L77.6625 74.0038C78.5452 72.8181 80.1493 72.4531 81.4968 73.061C92.3761 77.9687 117.337 84.7248 142.566 77.9647Z" fill="url(#paint1_linear_2583_241175)"/>
<path d="M184.788 35.5931C186.289 41.1945 182.965 46.952 177.363 48.4529C171.762 49.9538 166.004 46.6297 164.503 41.0283C163.003 35.4269 166.327 29.6694 171.928 28.1685C177.529 26.6676 183.287 29.9917 184.788 35.5931Z" fill="white" fill-opacity="0.8"/>
<path d="M181.696 35.645C182.66 39.2459 180.523 42.9472 176.923 43.9121C173.322 44.8769 169.62 42.74 168.656 39.1391C167.691 35.5382 169.828 31.8369 173.428 30.8721C177.029 29.9072 180.731 32.0441 181.696 35.645Z" fill="#5E1741"/>
<path d="M258.066 77.9647C291.274 69.0666 315.24 50.8255 311.595 37.2221C306.548 18.3866 278.074 19.8044 244.866 28.7025C219.637 35.4625 201.398 53.7939 194.431 63.4838C193.568 64.6839 191.996 65.1699 190.639 64.5844L168.106 54.8646C164.868 53.4682 161.448 56.4238 162.361 59.8292C162.537 60.4877 162.871 61.0936 163.333 61.595L168.287 66.9745C172.288 71.3181 173.903 77.3476 172.611 83.1096L171.009 90.2457C170.86 90.9109 170.874 91.6023 171.051 92.2608C171.963 95.6662 176.403 96.5158 178.508 93.6878L193.162 74.0038C194.045 72.8181 195.649 72.4531 196.997 73.061C207.876 77.9687 232.837 84.7248 258.066 77.9647Z" fill="url(#paint2_linear_2583_241175)"/>
<path d="M300.288 35.5931C301.789 41.1945 298.465 46.952 292.863 48.4529C287.262 49.9538 281.504 46.6297 280.003 41.0283C278.503 35.4269 281.827 29.6694 287.428 28.1685C293.029 26.6676 298.787 29.9917 300.288 35.5931Z" fill="white" fill-opacity="0.8"/>
<path d="M292.423 43.9121C296.024 42.9472 298.161 39.2459 297.196 35.645C296.231 32.0441 292.53 29.9072 288.929 30.8721C285.963 31.6668 283.99 34.318 283.926 37.2405C284.338 37.0851 284.784 37.0001 285.25 37.0001C287.321 37.0001 289 38.679 289 40.7501C289 41.8361 288.538 42.8143 287.8 43.4991C289.194 44.1561 290.818 44.342 292.423 43.9121Z" fill="#5E1741"/>
<path d="M139.566 155.965C172.774 147.067 196.74 128.826 193.095 115.222C188.048 96.3866 159.574 97.8044 126.366 106.703C101.137 113.463 82.8985 131.794 75.9306 141.484C75.0675 142.684 73.4959 143.17 72.1385 142.584L49.6056 132.865C46.3684 131.468 42.9484 134.424 43.8608 137.829C44.0373 138.488 44.3707 139.094 44.8325 139.595L49.7872 144.975C53.7877 149.318 55.4034 155.348 54.1106 161.11L52.5094 168.246C52.3602 168.911 52.3744 169.602 52.5508 170.261C53.4633 173.666 57.903 174.516 60.0083 171.688L74.6625 152.004C75.5452 150.818 77.1493 150.453 78.4968 151.061C89.3761 155.969 114.337 162.725 139.566 155.965Z" fill="url(#paint3_linear_2583_241175)"/>
<path d="M181.788 113.593C183.289 119.195 179.965 124.952 174.363 126.453C168.762 127.954 163.004 124.63 161.503 119.028C160.003 113.427 163.327 107.669 168.928 106.168C174.529 104.668 180.287 107.992 181.788 113.593Z" fill="white" fill-opacity="0.8"/>
<path d="M178.696 113.645C179.66 117.246 177.523 120.947 173.923 121.912C170.322 122.877 166.62 120.74 165.656 117.139C164.691 113.538 166.828 109.837 170.428 108.872C174.029 107.907 177.731 110.044 178.696 113.645Z" fill="#5E1741"/>
<path d="M196.566 194.965C229.774 186.067 253.74 167.826 250.095 154.222C245.048 135.387 216.574 136.804 183.366 145.703C158.137 152.463 139.898 170.794 132.931 180.484C132.068 181.684 130.496 182.17 129.139 181.584L106.606 171.865C103.368 170.468 99.9484 173.424 100.861 176.829C101.037 177.488 101.371 178.094 101.833 178.595L106.787 183.975C110.788 188.318 112.403 194.348 111.111 200.11L109.509 207.246C109.36 207.911 109.374 208.602 109.551 209.261C110.463 212.666 114.903 213.516 117.008 210.688L131.662 191.004C132.545 189.818 134.149 189.453 135.497 190.061C146.376 194.969 171.337 201.725 196.566 194.965Z" fill="url(#paint4_linear_2583_241175)"/>
<path d="M238.788 152.593C240.289 158.195 236.965 163.952 231.363 165.453C225.762 166.954 220.004 163.63 218.503 158.028C217.003 152.427 220.327 146.669 225.928 145.168C231.529 143.668 237.287 146.992 238.788 152.593Z" fill="white" fill-opacity="0.8"/>
<path d="M235.696 152.645C236.66 156.246 234.523 159.947 230.923 160.912C227.322 161.877 223.62 159.74 222.656 156.139C221.691 152.538 223.828 148.837 227.428 147.872C231.029 146.907 234.731 149.044 235.696 152.645Z" fill="#5E1741"/>
<path d="M114.066 254.965C147.274 246.067 171.24 227.826 167.595 214.222C162.548 195.387 134.074 196.804 100.866 205.703C75.6372 212.463 57.3985 230.794 50.4306 240.484C49.5675 241.684 47.9959 242.17 46.6385 241.584L24.1056 231.865C20.8684 230.468 17.4484 233.424 18.3608 236.829C18.5373 237.488 18.8707 238.094 19.3325 238.595L24.2872 243.975C28.2877 248.318 29.9034 254.348 28.6106 260.11L27.0094 267.246C26.8602 267.911 26.8744 268.602 27.0508 269.261C27.9633 272.666 32.403 273.516 34.5083 270.688L49.1625 251.004C50.0452 249.818 51.6493 249.453 52.9968 250.061C63.8761 254.969 88.8369 261.725 114.066 254.965Z" fill="url(#paint5_linear_2583_241175)"/>
<path d="M156.288 212.593C157.789 218.195 154.465 223.952 148.863 225.453C143.262 226.954 137.504 223.63 136.003 218.028C134.503 212.427 137.827 206.669 143.428 205.168C149.029 203.668 154.787 206.992 156.288 212.593Z" fill="white" fill-opacity="0.8"/>
<path d="M153.196 212.645C154.16 216.246 152.023 219.947 148.423 220.912C144.822 221.877 141.12 219.74 140.156 216.139C139.191 212.538 141.328 208.837 144.928 207.872C148.529 206.907 152.231 209.044 153.196 212.645Z" fill="#5E1741"/>
<path d="M205.566 284.965C238.774 276.067 262.74 257.826 259.095 244.222C254.048 225.387 225.574 226.804 192.366 235.703C167.137 242.463 148.898 260.794 141.931 270.484C141.068 271.684 139.496 272.17 138.139 271.584L115.606 261.865C112.368 260.468 108.948 263.424 109.861 266.829C110.037 267.488 110.371 268.094 110.833 268.595L115.787 273.975C119.788 278.318 121.403 284.348 120.111 290.11L118.509 297.246C118.36 297.911 118.374 298.602 118.551 299.261C119.463 302.666 123.903 303.516 126.008 300.688L140.662 281.004C141.545 279.818 143.149 279.453 144.497 280.061C155.376 284.969 180.337 291.725 205.566 284.965Z" fill="url(#paint6_linear_2583_241175)"/>
<path d="M247.788 242.593C249.289 248.195 245.965 253.952 240.363 255.453C234.762 256.954 229.004 253.63 227.503 248.028C226.003 242.427 229.327 236.669 234.928 235.168C240.529 233.668 246.287 236.992 247.788 242.593Z" fill="white" fill-opacity="0.8"/>
<path d="M244.696 242.645C245.66 246.246 243.523 249.947 239.923 250.912C236.322 251.877 232.62 249.74 231.656 246.139C230.691 242.538 232.828 238.837 236.428 237.872C240.029 236.907 243.731 239.044 244.696 242.645Z" fill="#5E1741"/>
<path d="M79.5657 136.465C112.774 127.567 136.74 109.326 133.095 95.7221C128.048 76.8866 99.5742 78.3044 66.3659 87.2025C41.1372 93.9625 22.8985 112.294 15.9306 121.984C15.0675 123.184 13.4959 123.67 12.1385 123.084L-10.3944 113.365C-13.6316 111.968 -17.0516 114.924 -16.1392 118.329C-15.9627 118.988 -15.6293 119.594 -15.1675 120.095L-10.2128 125.475C-6.21226 129.818 -4.59664 135.848 -5.88944 141.61L-7.49056 148.746C-7.6398 149.411 -7.6256 150.102 -7.44916 150.761C-6.53668 154.166 -2.09704 155.016 0.00828171 152.188L14.6625 132.504C15.5452 131.318 17.1493 130.953 18.4968 131.561C29.3761 136.469 54.3369 143.225 79.5657 136.465Z" fill="url(#paint7_linear_2583_241175)"/>
<path d="M121.788 94.0931C123.289 99.6945 119.965 105.452 114.363 106.953C108.762 108.454 103.004 105.13 101.503 99.5283C100.003 93.9269 103.327 88.1694 108.928 86.6685C114.529 85.1676 120.287 88.4917 121.788 94.0931Z" fill="white" fill-opacity="0.8"/>
<path d="M118.696 94.145C119.66 97.7459 117.523 101.447 113.923 102.412C110.322 103.377 106.62 101.24 105.656 97.6391C104.691 94.0382 106.828 90.3369 110.428 89.3721C114.029 88.4072 117.731 90.5441 118.696 94.145Z" fill="#5E1741"/>
<path d="M63.984 139.067L49.6056 132.865C46.3684 131.469 42.9484 134.424 43.8608 137.83C43.9175 138.041 43.9903 138.247 44.0783 138.446C50.2436 139.256 56.9859 139.582 63.984 139.067Z" fill="#5E1741"/>
<path d="M131.624 105.348C129.887 105.777 128.133 106.23 126.366 106.703C105.116 112.397 88.8251 126.3 80.0515 136.334C105.631 129.391 125.643 116.915 131.624 105.348Z" fill="#5E1741"/>
<path d="M68.1971 86.7183C67.5884 86.8771 66.978 87.0385 66.366 87.2025C62.5494 88.2252 58.8927 89.5127 55.4108 90.995C55.3933 91.4202 55.4401 91.847 55.5509 92.2608C56.4634 95.6662 60.9031 96.5158 63.0084 93.6879L68.1971 86.7183Z" fill="#1C2554"/>
<path d="M124.483 200.647C119.979 201.312 115.258 202.223 110.387 203.334L109.51 207.246C109.36 207.911 109.375 208.602 109.551 209.261C110.463 212.666 114.903 213.516 117.008 210.688L124.483 200.647Z" fill="#526AE0"/>
<path d="M188.444 196.697L172.606 189.865C169.368 188.469 165.948 191.424 166.861 194.83C167.037 195.488 167.371 196.094 167.833 196.596L168.819 197.667C175.051 198.008 181.683 197.786 188.444 196.697Z" fill="#1F6BAD"/>
<path d="M248.589 163.916C227.971 169.666 212.106 183.092 203.37 192.972C225.843 185.818 243.071 174.492 248.589 163.916Z" fill="#1F6BAD"/>
<path d="M181.442 60.6183L168.106 54.8657C164.868 53.4693 161.448 56.4249 162.361 59.8303C162.537 60.4888 162.871 61.0947 163.333 61.5961L169.186 67.9515C173.753 65.6411 177.871 63.1718 181.442 60.6183Z" fill="#A13012"/>
</g>
<defs>
<linearGradient id="paint0_linear_2583_241175" x1="316.095" y1="172.222" x2="171.111" y2="211.07" gradientUnits="userSpaceOnUse">
<stop stop-color="#83C3FC"/>
<stop offset="1" stop-color="#1F6BAD"/>
</linearGradient>
<linearGradient id="paint1_linear_2583_241175" x1="196.095" y1="37.2221" x2="51.1108" y2="76.0705" gradientUnits="userSpaceOnUse">
<stop stop-color="#83C3FC"/>
<stop offset="1" stop-color="#1F6BAD"/>
</linearGradient>
<linearGradient id="paint2_linear_2583_241175" x1="311.595" y1="37.2221" x2="166.611" y2="76.0705" gradientUnits="userSpaceOnUse">
<stop stop-color="#FDA64F"/>
<stop offset="1" stop-color="#E60023"/>
</linearGradient>
<linearGradient id="paint3_linear_2583_241175" x1="193.095" y1="115.222" x2="48.1108" y2="154.07" gradientUnits="userSpaceOnUse">
<stop stop-color="#83C3FC"/>
<stop offset="1" stop-color="#1F6BAD"/>
</linearGradient>
<linearGradient id="paint4_linear_2583_241175" x1="250.095" y1="154.222" x2="105.111" y2="193.07" gradientUnits="userSpaceOnUse">
<stop stop-color="#9BAAF3"/>
<stop offset="1" stop-color="#768AEA"/>
</linearGradient>
<linearGradient id="paint5_linear_2583_241175" x1="167.595" y1="214.222" x2="22.6108" y2="253.07" gradientUnits="userSpaceOnUse">
<stop stop-color="#9BAAF3"/>
<stop offset="1" stop-color="#768AEA"/>
</linearGradient>
<linearGradient id="paint6_linear_2583_241175" x1="259.309" y1="250.122" x2="109.224" y2="278.935" gradientUnits="userSpaceOnUse">
<stop stop-color="#C82376"/>
<stop offset="1" stop-color="#526AE0"/>
</linearGradient>
<linearGradient id="paint7_linear_2583_241175" x1="132.898" y1="99.4225" x2="-82.5952" y2="170.476" gradientUnits="userSpaceOnUse">
<stop stop-color="#C82376"/>
<stop offset="1" stop-color="#526AE0"/>
</linearGradient>
<clipPath id="clip0_2583_241175">
<rect width="375" height="250" fill="white"/>
</clipPath>
</defs>
</svg>
