<svg width="375" height="250" viewBox="0 0 375 250" fill="none" xmlns="http://www.w3.org/2000/svg">
<g clip-path="url(#clip0_2583_241189)">
<rect width="375" height="250" fill="#402970"/>
<path d="M270.472 175.79C273.603 175.79 276.141 173.251 276.141 170.121C276.141 166.99 273.603 164.452 270.472 164.452C268.43 164.452 266.64 165.532 265.642 167.152C265.158 167.937 264.38 168.575 263.457 168.575H252.95C252.096 168.575 251.404 169.267 251.404 170.121C251.404 170.975 252.096 171.667 252.95 171.667H263.457C264.38 171.667 265.158 172.304 265.642 173.09C266.64 174.71 268.43 175.79 270.472 175.79Z" fill="#526AE0"/>
<path d="M267.895 193.311C267.895 191.604 266.511 190.219 264.803 190.219H249.342V217.018H264.803C266.511 217.018 267.895 215.633 267.895 213.926C267.895 212.218 269.279 210.833 270.987 210.833H272.018V196.404H270.987C269.279 196.404 267.895 195.019 267.895 193.311Z" fill="#E60023"/>
<path d="M115.005 190.778C116.145 168.555 116.715 157.444 123.875 150.641C131.036 143.838 142.162 143.838 164.414 143.838H210.586C232.838 143.838 243.964 143.838 251.125 150.641C258.286 157.444 258.855 168.555 259.995 190.778L261.711 224.233H113.29L115.005 190.778Z" fill="url(#paint0_linear_2583_241189)"/>
<path d="M110.198 224.232H264.803V238.662C263.592 238.662 262.986 238.662 262.475 238.795C261.176 239.133 260.123 240.083 259.652 241.34C259.467 241.834 259.405 242.437 259.279 243.642L258.619 250H240.066C239.278 245.663 238.883 243.494 237.692 241.924C236.937 240.929 235.966 240.118 234.851 239.553C233.094 238.662 230.889 238.662 226.481 238.662H148.52C144.111 238.662 141.907 238.662 140.15 239.553C139.035 240.118 138.064 240.929 137.308 241.924C136.117 243.494 135.723 245.663 134.935 250H116.382L115.721 243.642C115.596 242.437 115.534 241.834 115.349 241.34C114.878 240.083 113.825 239.133 112.526 238.795C112.015 238.662 111.409 238.662 110.198 238.662V224.232Z" fill="url(#paint1_linear_2583_241189)"/>
<path d="M197.885 36.2391C199.008 35.3431 199.527 33.8134 199.017 32.4738C197.357 28.117 197.267 24.1847 199.059 21.0955C204.922 10.9883 228.713 13.7341 252.196 27.2285C275.68 40.7228 289.965 59.8557 284.102 69.9629C282.31 73.0521 278.843 74.9406 274.222 75.6885C272.801 75.9184 271.73 77.1307 271.512 78.5469C271.251 80.2409 270.652 81.9131 269.691 83.4667L243.235 126.217C239.469 132.303 231.521 134.303 225.301 130.729L175.585 102.16C169.365 98.5865 167.131 90.7362 170.544 84.4468L194.515 40.2687C195.386 38.6632 196.541 37.3109 197.885 36.2391Z" fill="url(#paint2_radial_2583_241189)"/>
<path d="M175.566 36.0528C174.463 35.1647 173.953 33.6484 174.454 32.3205C176.085 28.0019 176.173 24.1041 174.413 21.042C168.654 11.0235 145.284 13.7452 122.216 27.1212C99.148 40.4972 85.1165 59.4622 90.8758 69.4808C92.6361 72.5429 96.0414 74.4148 100.58 75.1561C101.976 75.3841 103.029 76.5857 103.243 77.9895C103.499 79.6686 104.087 81.3261 105.032 82.8661L131.019 125.241C134.719 131.274 142.526 133.256 148.635 129.714L197.472 101.396C203.581 97.8533 205.776 90.0719 202.424 83.8376L178.877 40.0471C178.021 38.4556 176.886 37.1152 175.566 36.0528Z" fill="url(#paint3_radial_2583_241189)"/>
<path d="M186.72 54.6332L170.544 84.4468C167.131 90.7362 169.365 98.5865 175.585 102.16L185.916 108.097L197.472 101.396C203.581 97.8533 205.776 90.0719 202.424 83.8376L186.72 54.6332Z" fill="#F7C545"/>
<path d="M272.018 196.404H275.11V210.833H272.018V196.404Z" fill="#E68800"/>
<path d="M135.965 153.629C135.965 152.776 136.658 152.083 137.511 152.083H237.489C238.343 152.083 239.036 152.776 239.036 153.629C239.036 154.483 238.343 155.175 237.489 155.175H137.511C136.658 155.175 135.965 154.483 135.965 153.629Z" fill="#526AE0"/>
</g>
<defs>
<linearGradient id="paint0_linear_2583_241189" x1="187.5" y1="121.162" x2="187.5" y2="224.233" gradientUnits="userSpaceOnUse">
<stop stop-color="#9BAAF3"/>
<stop offset="1" stop-color="#B497ED"/>
</linearGradient>
<linearGradient id="paint1_linear_2583_241189" x1="237.809" y1="224.234" x2="237.809" y2="250" gradientUnits="userSpaceOnUse">
<stop stop-color="white" stop-opacity="0.8"/>
<stop offset="1" stop-color="#E2E6FD"/>
</linearGradient>
<radialGradient id="paint2_radial_2583_241189" cx="0" cy="0" r="1" gradientUnits="userSpaceOnUse" gradientTransform="translate(229.744 71.5037) rotate(76.0103) scale(52.9735 54.6893)">
<stop stop-color="#F7C545"/>
<stop offset="1" stop-color="#FFE286"/>
</radialGradient>
<radialGradient id="paint3_radial_2583_241189" cx="0" cy="0" r="1" gradientUnits="userSpaceOnUse" gradientTransform="translate(147.635 71.3379) rotate(-119.676) scale(50.1381 50.0283)">
<stop stop-color="#BD5F00"/>
<stop offset="1" stop-color="#E68800"/>
</radialGradient>
<clipPath id="clip0_2583_241189">
<rect width="375" height="250" fill="white"/>
</clipPath>
</defs>
</svg>
