<svg xmlns="http://www.w3.org/2000/svg" width="375" height="375" fill="none" viewBox="0 0 375 375"><g clip-path="url(#a)"><path fill="#1e4a71" d="M0 0h375v375H0z"/><g clip-path="url(#b)"><path fill="#768aea" fill-rule="evenodd" d="M242.462 188.012c53.253 0 96.703 21.976 99.114 49.558a.06.06 0 0 0 .059.054.06.06 0 0 1 .059.059v66.091c0 54.801-44.425 99.225-99.225 99.225-36.592 0-68.554-19.809-85.756-49.288-.681-1.167-2.185-1.556-3.393-.951a28.2 28.2 0 0 1-12.692 2.989h-.485a28.35 28.35 0 0 1-26.213-17.555l-16.326-39.636c-9.178-22.288 7.209-46.759 31.313-46.759 3.794 0 7.457.632 10.885 1.798 1.637.557 3.442-.597 3.442-2.326v-10.998c-.001-.095-.007-.191-.007-.286 0-.096.006-.192.007-.288v-2.023c0-.028.023-.052.052-.052a.05.05 0 0 0 .051-.047c2.405-27.586 45.857-49.565 99.115-49.565m-113.545 87.412c-7.288 0-12.241 7.4-9.466 14.139l16.322 39.636a4.73 4.73 0 0 0 4.37 2.925h.485a4.725 4.725 0 0 0 4.674-5.412l-6.255-42.539a10.24 10.24 0 0 0-10.13-8.749" clip-rule="evenodd"/><path fill="url(#c)" d="M155.05 239.987c0-7.755 6.224-17.641 22.73-26.287 15.947-8.353 38.797-13.875 64.683-13.875 25.885 0 48.735 5.522 64.682 13.875 16.506 8.646 22.73 18.532 22.73 26.287 0 7.756-6.224 17.642-22.73 26.288-15.947 8.353-38.797 13.875-64.682 13.875v11.812c54.8 0 99.225-23.27 99.225-51.975s-44.425-51.975-99.225-51.975c-54.801 0-99.225 23.27-99.225 51.975s44.424 51.975 99.225 51.975V280.15c-25.886 0-48.736-5.522-64.683-13.875-16.506-8.646-22.73-18.532-22.73-26.288"/><path fill="#c856c8" d="M242.462 188.012c37.784 0 70.628 11.068 87.385 27.347-1.113 30.687-39.808 55.341-87.385 55.341s-86.273-24.656-87.384-55.343c16.757-16.279 49.601-27.345 87.384-27.345"/><ellipse cx="242.462" cy="239.987" fill="url(#d)" rx="87.412" ry="40.163"/><g filter="url(#e)"><path fill="url(#f)" d="M195.212 234.435c0 15.711 47.25 29.177 47.25 29.177s47.25-13.466 47.25-29.177v-1.19c0-8.019-11.405-14.52-25.474-14.52-7.561 0-14.73 1.914-19.57 5.225l-2.206 1.508-2.205-1.508c-4.84-3.311-12.01-5.225-19.57-5.225-14.069 0-25.475 6.501-25.475 14.52z"/></g><path fill="#fa5f2e" fill-rule="evenodd" d="M-7.962 188.012c-53.253 0-96.703 21.976-99.114 49.558a.06.06 0 0 1-.059.054.06.06 0 0 0-.059.059v66.091c0 54.801 44.425 99.225 99.225 99.225 36.592 0 68.554-19.809 85.756-49.288.681-1.167 2.185-1.556 3.393-.951a28.2 28.2 0 0 0 12.692 2.989h.485a28.35 28.35 0 0 0 26.213-17.555l16.326-39.636c9.178-22.288-7.208-46.759-31.313-46.759-3.794 0-7.457.632-10.885 1.798-1.637.557-3.442-.597-3.442-2.326v-10.998c.001-.095.007-.191.007-.286 0-.096-.006-.192-.007-.288v-2.023a.05.05 0 0 0-.052-.052.05.05 0 0 1-.051-.047c-2.405-27.586-45.857-49.565-99.115-49.565m113.545 87.412c7.288 0 12.242 7.4 9.467 14.139l-16.323 39.636a4.73 4.73 0 0 1-4.37 2.925h-.485a4.725 4.725 0 0 1-4.674-5.412l6.255-42.539a10.24 10.24 0 0 1 10.13-8.749" clip-rule="evenodd"/><path fill="url(#g)" d="M79.45 239.987c0-7.755-6.224-17.641-22.73-26.287-15.947-8.353-38.797-13.875-64.683-13.875-25.885 0-48.735 5.522-64.682 13.875-16.506 8.646-22.73 18.532-22.73 26.287 0 7.756 6.224 17.642 22.73 26.288 15.947 8.353 38.797 13.875 64.682 13.875v11.812c-54.8 0-99.225-23.27-99.225-51.975s44.425-51.975 99.225-51.975 99.226 23.27 99.226 51.975-44.425 51.975-99.226 51.975V280.15c25.886 0 48.736-5.522 64.683-13.875 16.506-8.646 22.73-18.532 22.73-26.288"/><path fill="#fda64f" d="M-7.963 188.012c-37.782.001-70.625 11.067-87.383 27.345C-94.235 246.044-55.54 270.7-7.963 270.7s86.276-24.656 87.387-55.343c-16.757-16.279-49.603-27.345-87.387-27.345"/><ellipse cx="87.412" cy="40.163" fill="url(#h)" rx="87.412" ry="40.163" transform="matrix(-1 0 0 1 79.45 199.825)"/><g filter="url(#i)"><path fill="url(#j)" d="M39.287 234.435c0 15.711-47.25 29.177-47.25 29.177s-47.25-13.466-47.25-29.177v-1.19c0-8.019 11.406-14.52 25.475-14.52 7.56 0 14.73 1.914 19.57 5.225l2.205 1.508 2.206-1.508c4.84-3.311 12.01-5.225 19.57-5.225 14.069 0 25.474 6.501 25.474 14.52z"/></g><path fill="#e60023" d="M117.25 253.837c13.704 5 22.777 18.534 22.204 33.107l-.407-2.77a10.24 10.24 0 0 0-10.13-8.749c-7.288 0-12.241 7.399-9.466 14.138l10.573 25.676-9.454 22.956a28.4 28.4 0 0 1-3.32 5.918 28.3 28.3 0 0 1-3.32-5.918l-9.457-22.956 10.576-25.676c2.775-6.739-2.179-14.138-9.466-14.138a10.24 10.24 0 0 0-10.131 8.749l-.406 2.757c-.567-14.569 8.504-28.095 22.204-33.094"/><ellipse cx="-7.963" cy="214" fill="url(#k)" opacity=".5" rx="87.412" ry="56.7"/><ellipse cx="242.462" cy="214" fill="url(#l)" opacity=".5" rx="87.412" ry="56.7"/><ellipse cx="-7.963" cy="104.144" fill="url(#m)" opacity=".5" rx="75.6" ry="53.156"/><ellipse cx="242.462" cy="104.144" fill="url(#n)" opacity=".5" rx="75.6" ry="53.156"/><ellipse cx="-7.963" cy="55.712" fill="url(#o)" opacity=".5" rx="44.888" ry="30.712"/><ellipse cx="242.462" cy="55.712" fill="url(#p)" opacity=".5" rx="44.888" ry="30.712"/><ellipse cx="-7.963" cy="162.025" fill="url(#q)" opacity=".5" rx="99.225" ry="75.6"/><ellipse cx="242.462" cy="162.025" fill="url(#r)" opacity=".5" rx="99.225" ry="75.6"/></g></g><defs><radialGradient id="c" cx="0" cy="0" r="1" gradientTransform="rotate(-90 263.669 21.206)scale(96.8625)" gradientUnits="userSpaceOnUse"><stop stop-color="#83c3fc"/><stop offset="1" stop-color="#768aea"/></radialGradient><radialGradient id="d" cx="0" cy="0" r="1" gradientTransform="matrix(0 40.1625 -87.4125 0 242.462 239.987)" gradientUnits="userSpaceOnUse"><stop stop-color="#a69377"/><stop offset=".75" stop-color="#804000"/><stop offset="1" stop-color="#5c2e00"/></radialGradient><radialGradient id="g" cx="0" cy="0" r="1" gradientTransform="rotate(-90 142 149.962)scale(95.6812)" gradientUnits="userSpaceOnUse"><stop stop-color="#fca58d"/><stop offset="1" stop-color="#fa5f2e"/></radialGradient><radialGradient id="h" cx="0" cy="0" r="1" gradientTransform="matrix(0 40.1625 -87.4125 0 87.412 40.163)" gradientUnits="userSpaceOnUse"><stop stop-color="#a69377"/><stop offset=".75" stop-color="#804000"/><stop offset="1" stop-color="#5c2e00"/></radialGradient><radialGradient id="k" cx="0" cy="0" r="1" gradientTransform="matrix(-147.221 0 0 -193.773 -7.963 214)" gradientUnits="userSpaceOnUse"><stop offset=".2" stop-color="#fff" stop-opacity="0"/><stop offset=".654" stop-color="#fdd9b4"/></radialGradient><radialGradient id="l" cx="0" cy="0" r="1" gradientTransform="matrix(-147.221 0 0 -193.773 242.462 214)" gradientUnits="userSpaceOnUse"><stop offset=".2" stop-color="#fff" stop-opacity="0"/><stop offset=".654" stop-color="#fdd9b4"/></radialGradient><radialGradient id="m" cx="0" cy="0" r="1" gradientTransform="matrix(-127.326 0 0 -181.662 -7.963 104.144)" gradientUnits="userSpaceOnUse"><stop offset=".2" stop-color="#fff" stop-opacity="0"/><stop offset=".654" stop-color="#fdd9b4"/></radialGradient><radialGradient id="n" cx="0" cy="0" r="1" gradientTransform="matrix(-127.326 0 0 -181.662 242.462 104.144)" gradientUnits="userSpaceOnUse"><stop offset=".2" stop-color="#fff" stop-opacity="0"/><stop offset=".654" stop-color="#fdd9b4"/></radialGradient><radialGradient id="o" cx="0" cy="0" r="1" gradientTransform="matrix(-75.6 0 0 -104.96 -7.963 55.712)" gradientUnits="userSpaceOnUse"><stop offset=".2" stop-color="#fff" stop-opacity="0"/><stop offset=".654" stop-color="#fdd9b4"/></radialGradient><radialGradient id="p" cx="0" cy="0" r="1" gradientTransform="matrix(-75.6 0 0 -104.96 242.462 55.712)" gradientUnits="userSpaceOnUse"><stop offset=".2" stop-color="#fff" stop-opacity="0"/><stop offset=".654" stop-color="#fdd9b4"/></radialGradient><radialGradient id="q" cx="0" cy="0" r="1" gradientTransform="matrix(-167.116 0 0 -258.364 -7.963 162.025)" gradientUnits="userSpaceOnUse"><stop offset=".2" stop-color="#fff" stop-opacity="0"/><stop offset=".654" stop-color="#fdd9b4"/></radialGradient><radialGradient id="r" cx="0" cy="0" r="1" gradientTransform="matrix(-167.116 0 0 -258.364 242.462 162.025)" gradientUnits="userSpaceOnUse"><stop offset=".2" stop-color="#fff" stop-opacity="0"/><stop offset=".654" stop-color="#fdd9b4"/></radialGradient><linearGradient id="f" x1="242.462" x2="242.462" y1="218.725" y2="263.612" gradientUnits="userSpaceOnUse"><stop stop-color="#fff" stop-opacity=".8"/><stop offset="1" stop-color="#fdd9b4"/></linearGradient><linearGradient id="j" x1="-7.963" x2="-7.963" y1="218.725" y2="263.612" gradientUnits="userSpaceOnUse"><stop stop-color="#fff" stop-opacity=".8"/><stop offset="1" stop-color="#fdd9b4"/></linearGradient><clipPath id="a"><path fill="#fff" d="M0 0h375v375H0z"/></clipPath><clipPath id="b"><path fill="#fff" d="M-119 25h472.5v378H-119z"/></clipPath><filter id="e" width="99.225" height="49.612" x="192.85" y="216.362" color-interpolation-filters="sRGB" filterUnits="userSpaceOnUse"><feFlood flood-opacity="0" result="BackgroundImageFix"/><feBlend in="SourceGraphic" in2="BackgroundImageFix" result="shape"/><feGaussianBlur result="effect1_foregroundBlur_2779_9891" stdDeviation="1.181"/></filter><filter id="i" width="99.225" height="49.612" x="-57.575" y="216.362" color-interpolation-filters="sRGB" filterUnits="userSpaceOnUse"><feFlood flood-opacity="0" result="BackgroundImageFix"/><feBlend in="SourceGraphic" in2="BackgroundImageFix" result="shape"/><feGaussianBlur result="effect1_foregroundBlur_2779_9891" stdDeviation="1.181"/></filter></defs></svg>