<svg width="375" height="250" viewBox="0 0 375 250" fill="none" xmlns="http://www.w3.org/2000/svg">
<g clip-path="url(#clip0_2583_241183)">
<rect width="375" height="250" fill="#6B246B"/>
<path fill-rule="evenodd" clip-rule="evenodd" d="M101.025 12.0247L305.273 48.4253L304.564 52.4002L101.025 16.1258L-102.515 52.4002L-103.223 48.4253L101.025 12.0247Z" fill="#993399"/>
<rect x="-108.925" y="46.375" width="419.9" height="294.737" fill="url(#paint0_radial_2583_241183)"/>
<path d="M-108.925 46.375V341.112L-92.7748 324.962V62.525L-108.925 46.375Z" fill="url(#paint1_linear_2583_241183)"/>
<path d="M310.975 46.375V341.112L294.825 324.962V62.525L310.975 46.375Z" fill="url(#paint2_linear_2583_241183)"/>
<path d="M-108.925 46.375L310.975 46.375L294.825 62.525L-92.7748 62.525L-108.925 46.375Z" fill="#DA3C0B"/>
<path d="M131.045 88.7687L212.944 110.713L190.999 192.612L109.101 170.667L131.045 88.7687Z" fill="#FFE286"/>
<path d="M-64.5127 92.5446L17.3857 70.6L39.3304 152.498L-42.5681 174.443L-64.5127 92.5446Z" fill="#FA5F2E"/>
<path d="M12.2002 100.881H96.9877V139.07C96.9877 155.145 100.429 171.034 107.081 185.669H22.2939C15.6419 171.034 12.2002 155.145 12.2002 139.07V100.881Z" fill="#E9DE63"/>
<path d="M159.569 173.556H244.356V211.745C244.356 227.82 247.798 243.709 254.45 258.344H169.663C163.011 243.709 159.569 227.82 159.569 211.745V173.556Z" fill="#DD73DD"/>
<path d="M318.862 99.4054L301.335 198.809L218.113 184.135L235.64 84.7311L318.862 99.4054Z" fill="url(#paint3_linear_2583_241183)"/>
<rect width="72.675" height="72.675" transform="translate(240.553 91.7474) rotate(10)" fill="#FCA58D"/>
<path d="M292.718 156.292C293.179 153.682 292.966 150.978 292.093 148.337C291.219 145.696 289.702 143.169 287.627 140.9C285.553 138.63 282.962 136.664 280.003 135.112C277.043 133.56 273.773 132.453 270.379 131.854C266.985 131.256 263.533 131.178 260.222 131.624C256.91 132.07 253.802 133.032 251.077 134.455C248.351 135.878 246.061 137.734 244.337 139.917C242.613 142.1 241.489 144.567 241.028 147.178L292.718 156.292Z" fill="#804000"/>
<path d="M241.028 147.178L292.718 156.293L285.237 175.472L241.499 167.76L241.028 147.178Z" fill="#FA5F2E"/>
<path d="M262.627 111.508C259.996 110.184 256.79 111.088 255.239 113.591C254.884 114.163 254.7 114.779 254.665 115.389C254.624 116.107 254.081 116.837 253.371 116.951C250.385 117.43 247.919 119.81 247.491 122.982C247.394 123.694 247.408 124.397 247.518 125.072C247.619 125.689 247.244 126.32 246.653 126.524C244.414 127.3 242.624 129.184 242.069 131.652C241.183 135.585 243.764 139.461 247.735 140.161L288.817 147.405C292.788 148.105 296.539 145.346 297.052 141.347C297.385 138.753 296.265 136.295 294.309 134.812C293.802 134.428 293.643 133.695 293.943 133.136C294.248 132.569 294.479 131.951 294.623 131.293C295.478 127.372 292.899 123.526 288.946 122.829C288.594 122.767 288.461 122.314 288.689 122.038C289.964 120.49 290.411 118.257 289.413 116.169C287.924 113.052 283.465 111.773 280.065 111.166C279.481 111.062 278.863 110.907 278.211 110.687C275.789 109.871 274.275 108.469 272.968 107.259C271.462 105.864 270.232 104.725 268.206 105.036C268.203 105.037 268.201 105.041 268.203 105.043C269.998 107.87 268.641 110.138 267.268 111.501C266.233 112.528 264.65 112.525 263.347 111.87L262.627 111.508Z" fill="url(#paint4_linear_2583_241183)"/>
<path d="M291.719 147.313C290.815 145.043 289.432 142.874 287.627 140.9C285.553 138.63 282.962 136.664 280.003 135.112C277.043 133.56 273.773 132.453 270.379 131.854C266.985 131.256 263.533 131.178 260.222 131.624C256.91 132.07 253.802 133.032 251.077 134.455C248.706 135.693 246.665 137.258 245.039 139.082C245.828 139.609 246.737 139.985 247.735 140.161L288.817 147.405C289.814 147.581 290.798 147.538 291.719 147.313Z" fill="#FDD9B4"/>
<path d="M284.235 123.024C284.784 123.121 285.152 123.644 285.055 124.193L284.558 127.004C284.462 127.553 283.938 127.921 283.389 127.824C282.84 127.728 282.474 127.202 282.571 126.653L283.066 123.842C283.163 123.294 283.686 122.928 284.235 123.024ZM291.784 122.606C292.24 122.286 292.869 122.396 293.189 122.852C293.509 123.309 293.399 123.938 292.943 124.258L290.603 125.896C290.146 126.216 289.517 126.104 289.197 125.648C288.878 125.191 288.989 124.562 289.446 124.242L291.784 122.606ZM265.94 118.048C266.397 117.729 267.026 117.84 267.346 118.296C267.665 118.753 267.554 119.382 267.097 119.702L264.759 121.338C264.303 121.658 263.674 121.548 263.354 121.092C263.034 120.636 263.144 120.006 263.6 119.686L265.94 118.048ZM274.074 116.707C274.623 116.804 274.991 117.328 274.894 117.876L274.398 120.688C274.301 121.237 273.778 121.605 273.229 121.508C272.68 121.411 272.314 120.888 272.41 120.339L272.905 117.528C273.002 116.979 273.526 116.611 274.074 116.707ZM253.828 118.687L256.639 119.184C257.188 119.28 257.554 119.804 257.457 120.353C257.36 120.901 256.837 121.268 256.288 121.171L253.477 120.676C252.928 120.579 252.562 120.054 252.659 119.505C252.756 118.956 253.279 118.59 253.828 118.687ZM284.533 117.226C284.989 116.906 285.619 117.018 285.938 117.474C286.258 117.931 286.148 118.56 285.692 118.88L283.352 120.518C282.895 120.838 282.266 120.726 281.946 120.27C281.627 119.813 281.738 119.184 282.195 118.864L284.533 117.226ZM275.295 111.497C275.751 111.178 276.381 111.289 276.7 111.745L278.337 114.083C278.656 114.54 278.547 115.171 278.09 115.491C277.634 115.811 277.004 115.699 276.684 115.243L275.046 112.905C274.726 112.448 274.838 111.817 275.295 111.497ZM257.051 110.332C257.507 110.012 258.137 110.122 258.457 110.578L260.095 112.918C260.414 113.375 260.303 114.004 259.846 114.324C259.39 114.644 258.761 114.532 258.441 114.076L256.803 111.737C256.483 111.281 256.594 110.652 257.051 110.332ZM265.757 111.566L268.568 112.061C269.117 112.158 269.483 112.683 269.386 113.232C269.289 113.78 268.766 114.147 268.217 114.05L265.406 113.553C264.857 113.456 264.491 112.933 264.588 112.384C264.685 111.835 265.208 111.469 265.757 111.566Z" fill="#E60023"/>
<circle cx="276.656" cy="94.825" r="6.05625" fill="#E60023"/>
<path d="M105.062 228.062H189.85V266.251C189.85 282.326 193.292 298.216 199.944 312.85H115.156C108.504 298.216 105.062 282.326 105.062 266.251V228.062Z" fill="url(#paint5_linear_2583_241183)"/>
<path d="M8.1626 209.894H92.9501V294.681H8.1626V209.894Z" fill="url(#paint6_linear_2583_241183)"/>
<path d="M25.5 100.881L39.3307 152.498L14.0282 159.278C12.8154 152.629 12.2002 145.866 12.2002 139.07V100.881H25.5Z" fill="#FDA64F"/>
<path d="M196.105 173.556L190.999 192.612L159.569 184.19V173.556H196.105Z" fill="#F9A4CF"/>
<path d="M189.85 258.344H169.663C165.276 248.693 162.286 238.498 160.757 228.062H189.85V258.344Z" fill="#5CD6B7"/>
<circle cx="54.5938" cy="112.994" r="6.05625" fill="#66CC71"/>
<circle cx="169.663" cy="112.994" r="6.05625" fill="#E68800"/>
<circle cx="203.981" cy="185.669" r="6.05625" fill="#5C3BA0"/>
<circle cx="147.456" cy="240.175" r="6.05625" fill="#207E67"/>
<circle cx="50.5563" cy="222.006" r="6.05625" fill="#E60023"/>
<circle cx="101.025" cy="12.0562" r="6.05625" fill="#E7559E"/>
</g>
<defs>
<radialGradient id="paint0_radial_2583_241183" cx="0" cy="0" r="1" gradientUnits="userSpaceOnUse" gradientTransform="translate(101.025 193.744) rotate(90) scale(228.119 228.119)">
<stop stop-color="#FDA64F"/>
<stop offset="1" stop-color="#FDD9B4"/>
</radialGradient>
<linearGradient id="paint1_linear_2583_241183" x1="101.025" y1="46.375" x2="101.025" y2="341.112" gradientUnits="userSpaceOnUse">
<stop stop-color="#FA5F2E"/>
<stop offset="1" stop-color="#DA3C0B"/>
</linearGradient>
<linearGradient id="paint2_linear_2583_241183" x1="101.025" y1="46.375" x2="101.025" y2="341.112" gradientUnits="userSpaceOnUse">
<stop stop-color="#FA5F2E"/>
<stop offset="1" stop-color="#DA3C0B"/>
</linearGradient>
<linearGradient id="paint3_linear_2583_241183" x1="277.252" y1="92.0681" x2="253.916" y2="225.296" gradientUnits="userSpaceOnUse">
<stop stop-color="white" stop-opacity="0.8"/>
<stop offset="1" stop-color="#FDE2FD"/>
</linearGradient>
<linearGradient id="paint4_linear_2583_241183" x1="283.412" y1="112.618" x2="274.529" y2="163.413" gradientUnits="userSpaceOnUse">
<stop stop-color="white" stop-opacity="0.8"/>
<stop offset="1" stop-color="#FEDDED"/>
</linearGradient>
<linearGradient id="paint5_linear_2583_241183" x1="152.503" y1="228.062" x2="152.503" y2="312.85" gradientUnits="userSpaceOnUse">
<stop stop-color="#8DE296"/>
<stop offset="1" stop-color="#5CD6B7"/>
</linearGradient>
<linearGradient id="paint6_linear_2583_241183" x1="50.5564" y1="209.894" x2="50.5564" y2="362.309" gradientUnits="userSpaceOnUse">
<stop stop-color="white" stop-opacity="0.8"/>
<stop offset="1" stop-color="#FDE2FD"/>
</linearGradient>
<clipPath id="clip0_2583_241183">
<rect width="375" height="250" fill="white"/>
</clipPath>
</defs>
</svg>
