<svg width="375" height="250" viewBox="0 0 375 250" fill="none" xmlns="http://www.w3.org/2000/svg">
<g clip-path="url(#clip0_2583_241174)">
<rect width="375" height="250" fill="#402970"/>
<rect width="162" height="135" transform="matrix(4.37114e-08 1 1 -4.37114e-08 14 -9)" fill="url(#paint0_linear_2583_241174)"/>
<g clip-path="url(#clip1_2583_241174)">
<rect width="120" height="120" transform="matrix(-1 0 0 1 141.5 -1.5)" fill="url(#paint1_linear_2583_241174)"/>
<path d="M102.675 57.0517C98.0393 62.2678 89.8893 62.2678 85.2532 57.0516L84.4602 56.1595C82.7911 54.2816 80.5598 52.9933 78.0988 52.4868L76.9298 52.2461C70.0944 50.8391 66.0194 43.7811 68.2186 37.158L68.5948 36.0252C69.3865 33.6407 69.3865 31.0642 68.5948 28.6797L68.2186 27.5469C66.0194 20.9239 70.0944 13.8658 76.9298 12.4588L78.0988 12.2182C80.5598 11.7116 82.7911 10.4234 84.4602 8.54542L85.2532 7.6533C89.8893 2.43719 98.0393 2.43718 102.675 7.65329L103.468 8.54542C105.138 10.4234 107.369 11.7116 109.83 12.2182L110.999 12.4588C117.834 13.8658 121.909 20.9239 119.71 27.5469L119.334 28.6797C118.542 31.0642 118.542 33.6407 119.334 36.0252L119.71 37.158C121.909 43.7811 117.834 50.8391 110.999 52.2461L109.83 52.4868C107.369 52.9933 105.138 54.2816 103.468 56.1595L102.675 57.0517Z" fill="#FA5F2E"/>
<path d="M47.3565 118.5H52.1096L46.712 102.629C42.7052 90.8463 43.6807 77.939 49.4131 66.8929L59.066 48.292C59.6384 47.189 59.2082 45.8309 58.1053 45.2585C57.0023 44.6861 55.6442 45.1162 55.0718 46.2192L45.4189 64.8201C39.1216 76.9548 38.0499 91.1341 42.4517 104.077L47.3565 118.5Z" fill="#DA3C0B"/>
<path d="M69.0065 73.8864C64.3703 79.1025 56.2204 79.1025 51.5842 73.8864L50.7913 72.9942C49.1222 71.1163 46.8908 69.828 44.4299 69.3215L43.2608 69.0808C36.4254 67.6739 32.3505 60.6158 34.5497 53.9927L34.9258 52.86C35.7176 50.4755 35.7176 47.8989 34.9258 45.5144L34.5497 44.3817C32.3505 37.7586 36.4254 30.7005 43.2608 29.2935L44.4299 29.0529C46.8908 28.5464 49.1221 27.2581 50.7913 25.3801L51.5842 24.488C56.2204 19.2719 64.3703 19.2719 69.0065 24.488L69.7994 25.3801C71.4686 27.2581 73.6999 28.5464 76.1608 29.0529L77.3299 29.2935C84.1653 30.7005 88.2402 37.7586 86.041 44.3817L85.6649 45.5144C84.8731 47.8989 84.8731 50.4755 85.6649 52.86L86.041 53.9927C88.2402 60.6158 84.1653 67.6739 77.3299 69.0808L76.1608 69.3215C73.6999 69.828 71.4686 71.1163 69.7994 72.9942L69.0065 73.8864Z" fill="#E7559E"/>
<path d="M67.6408 23.179C68.1222 23.571 68.5793 24.0074 69.0065 24.4881L69.7994 25.3802C71.4686 27.2582 73.6999 28.5464 76.1608 29.053L77.3299 29.2936C84.1653 30.7006 88.2402 37.7586 86.041 44.3817L85.6649 45.5145C84.8731 47.899 84.8731 50.4755 85.6649 52.86L86.041 53.9928C86.5247 55.4494 86.7049 56.9271 86.619 58.361C86.1376 57.9689 85.6805 57.5326 85.2533 57.0519L84.4604 56.1598C82.7912 54.2818 80.5599 52.9936 78.099 52.487L76.9299 52.2464C70.0945 50.8394 66.0195 43.7813 68.2188 37.1583L68.5949 36.0255C69.3867 33.641 69.3867 31.0645 68.5949 28.68L68.2188 27.5472C67.7351 26.0906 67.5549 24.6129 67.6408 23.179Z" fill="#DA3C0B"/>
<path d="M84.1999 105.17C79.5637 110.386 71.4138 110.386 66.7776 105.17L65.9847 104.278C64.3155 102.4 62.0842 101.112 59.6232 100.605L58.4542 100.365C51.6188 98.9578 47.5438 91.8997 49.743 85.2767L50.1192 84.1439C50.911 81.7594 50.911 79.1829 50.1192 76.7984L49.743 75.6656C47.5438 69.0425 51.6188 61.9845 58.4542 60.5775L59.6232 60.3368C62.0842 59.8303 64.3155 58.542 65.9847 56.6641L66.7776 55.772C71.4138 50.5558 79.5637 50.5558 84.1998 55.7719L84.9928 56.6641C86.6619 58.542 88.8933 59.8303 91.3542 60.3368L92.5233 60.5775C99.3586 61.9845 103.434 69.0425 101.234 75.6656L100.858 76.7984C100.066 79.1829 100.066 81.7594 100.858 84.1439L101.234 85.2766C103.434 91.8997 99.3586 98.9578 92.5233 100.365L91.3542 100.605C88.8933 101.112 86.6619 102.4 84.9928 104.278L84.1999 105.17Z" fill="#774FC4"/>
<path d="M51.5848 73.8862C56.221 79.1023 64.3709 79.1023 69.0071 73.8862L69.8 72.9941C71.4692 71.1161 73.7005 69.8279 76.1614 69.3213L77.3305 69.0807C82.725 67.9703 86.4002 63.3401 86.6289 58.1819C86.0399 57.7318 85.4921 57.2242 84.9943 56.6641L84.2014 55.7719C79.5652 50.5558 71.4153 50.5558 66.7791 55.772L65.9862 56.6641C64.317 58.542 62.0857 59.8303 59.6247 60.3368L58.4557 60.5775C53.0612 61.6879 49.386 66.318 49.1573 71.4763C49.7463 71.9264 50.2941 72.434 50.7919 72.9941L51.5848 73.8862Z" fill="#993399"/>
<path d="M88.242 89.7868C87.0486 91.1295 84.9508 91.1295 83.7574 89.7868L82.4615 88.3288C82.0318 87.8454 81.4575 87.5138 80.824 87.3834L78.9134 86.9901C77.1539 86.628 76.105 84.8112 76.671 83.1063L77.2858 81.255C77.4896 80.6412 77.4896 79.978 77.2858 79.3642L76.671 77.5129C76.105 75.8081 77.1539 73.9913 78.9134 73.6291L80.824 73.2359C81.4575 73.1055 82.0318 72.7739 82.4615 72.2905L83.7574 70.8324C84.9508 69.4898 87.0486 69.4898 88.242 70.8324L89.5379 72.2905C89.9676 72.7739 90.5419 73.1055 91.1754 73.2359L93.086 73.6291C94.8455 73.9913 95.8944 75.8081 95.3283 77.5129L94.7136 79.3642C94.5098 79.978 94.5098 80.6412 94.7136 81.255L95.3283 83.1063C95.8944 84.8112 94.8455 86.628 93.086 86.9901L91.1754 87.3834C90.5419 87.5138 89.9676 87.8454 89.5379 88.3288L88.242 89.7868Z" fill="#5C3BA0"/>
<path d="M103.641 42.9953C102.448 44.338 100.35 44.338 99.1568 42.9953L97.8609 41.5373C97.4312 41.0539 96.8569 40.7223 96.2234 40.5919L94.3128 40.1986C92.5533 39.8365 91.5044 38.0197 92.0705 36.3148L92.6852 34.4635C92.889 33.8497 92.889 33.1865 92.6852 32.5727L92.0705 30.7214C91.5044 29.0166 92.5533 27.1998 94.3128 26.8376L96.2234 26.4444C96.8569 26.314 97.4312 25.9824 97.8609 25.499L99.1568 24.0409C100.35 22.6983 102.448 22.6983 103.641 24.0409L104.937 25.499C105.367 25.9824 105.941 26.314 106.575 26.4444L108.485 26.8376C110.245 27.1998 111.294 29.0166 110.728 30.7214L110.113 32.5727C109.909 33.1865 109.909 33.8497 110.113 34.4635L110.728 36.3148C111.294 38.0197 110.245 39.8365 108.485 40.1986L106.575 40.5919C105.941 40.7223 105.367 41.0539 104.937 41.5373L103.641 42.9953Z" fill="#BD5F00"/>
<path d="M94.6067 118.5H99.3862L107.139 96.8393C111.65 84.2345 98.8419 72.3756 86.6212 77.8428L85.8313 78.1962C84.697 78.7037 84.1888 80.0346 84.6963 81.1689C85.2037 82.3032 86.5346 82.8113 87.6689 82.3039L88.4589 81.9505C97.0615 78.1019 106.078 86.4498 102.902 95.3229L94.6067 118.5Z" fill="#BD5F00"/>
<path d="M111.658 118.5H116.296L126.006 79.5579C130.764 60.4749 121.637 40.6463 104.046 31.8508C102.935 31.2951 101.583 31.7456 101.027 32.8571C100.472 33.9685 100.922 35.32 102.034 35.8757C117.739 43.7285 125.888 61.4316 121.64 78.4692L111.658 118.5Z" fill="#804000"/>
</g>
<rect width="162" height="135" transform="matrix(4.37114e-08 1 1 -4.37114e-08 40 113)" fill="url(#paint2_linear_2583_241174)"/>
<g clip-path="url(#clip2_2583_241174)">
<rect width="120" height="120" transform="matrix(-1 0 0 1 167.5 120.5)" fill="url(#paint3_linear_2583_241174)"/>
<path d="M167.5 225.5H47.5V240.5H167.5V225.5Z" fill="#2A3FA7"/>
<path d="M110.5 129.5C110.5 127.843 109.157 126.5 107.5 126.5C105.843 126.5 104.5 127.843 104.5 129.5V135.5C104.5 137.157 105.843 138.5 107.5 138.5C109.157 138.5 110.5 137.157 110.5 135.5V129.5Z" fill="#2086DF"/>
<path d="M110.5 201.822C110.5 211.966 117.959 220.566 128 222L128.53 222.076C130.234 222.319 131.5 223.779 131.5 225.5H83.5C83.5 223.779 84.7658 222.319 86.4698 222.076L87 222C97.0414 220.566 104.5 211.966 104.5 201.822V183.5H110.5V201.822Z" fill="url(#paint4_linear_2583_241174)"/>
<rect width="6" height="6" transform="matrix(-1 0 0 1 110.5 131)" fill="#C4CDF8"/>
<path d="M58 183.5C58 170.372 63.2152 157.781 72.4982 148.498C81.7813 139.215 94.3718 134 107.5 134C120.628 134 133.219 139.215 142.502 148.498C151.785 157.781 157 170.372 157 183.5L58 183.5Z" fill="url(#paint5_linear_2583_241174)"/>
</g>
<rect width="162" height="135" transform="matrix(4.37114e-08 1 1 -4.37114e-08 203.5 54)" fill="url(#paint6_linear_2583_241174)"/>
<g clip-path="url(#clip3_2583_241174)">
<rect width="120" height="120" transform="matrix(-1 0 0 1 331 61.5)" fill="url(#paint7_linear_2583_241174)"/>
<path d="M220 147C220 142.469 221.319 137.983 223.882 133.797C226.445 129.612 230.202 125.808 234.938 122.605C239.673 119.401 245.296 116.86 251.483 115.126C257.671 113.392 264.303 112.5 271 112.5C277.697 112.5 284.329 113.392 290.517 115.126C296.704 116.86 302.327 119.401 307.062 122.605C311.798 125.808 315.555 129.612 318.118 133.797C320.681 137.983 322 142.469 322 147L220 147Z" fill="#BD5F00"/>
<path d="M322 147H220L228.25 181.5H313.75L322 147Z" fill="url(#paint8_linear_2583_241174)"/>
<path d="M288.596 79.5217C292.467 78.0762 296.767 80.1097 298.106 84.0186L299.051 86.775C299.679 88.6086 299.613 90.468 299.024 92.112C298.863 92.5634 299.152 93.0781 299.624 93.1619C304.699 94.062 308.49 98.6034 308.267 103.939C308.2 105.547 307.773 107.058 307.067 108.396C306.812 108.878 307.142 109.5 307.688 109.5H307.923C313.942 109.5 318.73 114.551 318.408 120.562C318.109 126.134 313.503 130.5 307.923 130.5H234.078C228.497 130.5 223.891 126.134 223.593 120.562C223.271 114.551 228.058 109.5 234.078 109.5H234.762C235.307 109.5 235.637 108.878 235.382 108.396C234.676 107.058 234.25 105.547 234.183 103.939C233.961 98.6388 237.7 94.1223 242.725 93.1803C243.192 93.0925 243.476 92.5817 243.315 92.1341C242.404 89.6152 242.707 86.6447 244.7 84.2363L247.585 80.7488C250.352 77.4046 255.354 76.8948 259.554 77.9918C261.746 78.5644 264.321 78.8615 267.087 78.4426C271.023 77.8464 273.172 75.9452 274.962 74.3614C276.85 72.6909 278.339 71.3736 281.104 72.3135C281.108 72.3146 281.11 72.3182 281.109 72.3215C280.801 73.6281 280.836 74.9437 281.041 76.156C281.612 79.5223 285.397 80.7162 288.596 79.5217Z" fill="url(#paint9_linear_2583_241174)"/>
<path d="M227.936 128.517C229.937 126.384 232.283 124.4 234.937 122.605C239.673 119.401 245.295 116.86 251.483 115.126C257.671 113.392 264.302 112.5 271 112.5C277.697 112.5 284.329 113.392 290.517 115.126C296.704 116.86 302.327 119.401 307.062 122.605C309.716 124.4 312.062 126.384 314.063 128.517C312.333 129.767 310.209 130.5 307.922 130.5H234.077C231.79 130.5 229.666 129.767 227.936 128.517Z" fill="#FDD9B4"/>
<path fill-rule="evenodd" clip-rule="evenodd" d="M266.939 91.9393C266.354 92.5251 266.354 93.4749 266.939 94.0607L271.439 98.5607C272.025 99.1464 272.975 99.1464 273.561 98.5607C274.146 97.9749 274.146 97.0251 273.561 96.4393L269.061 91.9393C268.475 91.3536 267.525 91.3536 266.939 91.9393Z" fill="#FDA64F"/>
<path fill-rule="evenodd" clip-rule="evenodd" d="M281.939 97.0607C282.525 97.6464 283.475 97.6464 284.061 97.0607L288.561 92.5607C289.146 91.9749 289.146 91.0251 288.561 90.4393C287.975 89.8536 287.025 89.8536 286.439 90.4393L281.939 94.9393C281.354 95.5251 281.354 96.4749 281.939 97.0607Z" fill="#E60023"/>
<path fill-rule="evenodd" clip-rule="evenodd" d="M264.638 84.0957C265.438 83.8812 265.913 83.0587 265.699 82.2585L264.052 76.1114C263.837 75.3112 263.015 74.8363 262.215 75.0508C261.414 75.2652 260.939 76.0877 261.154 76.8879L262.801 83.035C263.015 83.8352 263.838 84.3101 264.638 84.0957Z" fill="#FA5F2E"/>
<path fill-rule="evenodd" clip-rule="evenodd" d="M279.949 84.3615C280.163 85.1617 279.688 85.9842 278.888 86.1986L272.741 87.8457C271.941 88.0601 271.118 87.5853 270.904 86.7851C270.689 85.9849 271.164 85.1624 271.965 84.9479L278.112 83.3008C278.912 83.0864 279.734 83.5613 279.949 84.3615Z" fill="#B497ED"/>
<path fill-rule="evenodd" clip-rule="evenodd" d="M255.561 88.9393C256.146 89.5251 256.146 90.4749 255.561 91.0607L251.061 95.5607C250.475 96.1464 249.525 96.1464 248.939 95.5607C248.354 94.9749 248.354 94.0251 248.939 93.4393L253.439 88.9393C254.025 88.3536 254.975 88.3536 255.561 88.9393Z" fill="#9BAAF3"/>
<path fill-rule="evenodd" clip-rule="evenodd" d="M260.138 94.5508C260.938 94.7652 261.413 95.5878 261.199 96.3879L259.552 102.535C259.337 103.335 258.515 103.81 257.715 103.596C256.914 103.381 256.439 102.559 256.654 101.759L258.301 95.6115C258.515 94.8113 259.338 94.3364 260.138 94.5508Z" fill="#E60023"/>
<path fill-rule="evenodd" clip-rule="evenodd" d="M290.939 97.9393C290.354 98.5251 290.354 99.4749 290.939 100.061L295.439 104.561C296.025 105.146 296.975 105.146 297.561 104.561C298.146 103.975 298.146 103.025 297.561 102.439L293.061 97.9393C292.475 97.3536 291.525 97.3536 290.939 97.9393Z" fill="#FCA58D"/>
<path fill-rule="evenodd" clip-rule="evenodd" d="M305.085 90.2009C305.803 90.6152 306.048 91.5325 305.634 92.25L302.452 97.7613C302.038 98.4788 301.121 98.7246 300.403 98.3104C299.686 97.8962 299.44 96.9788 299.854 96.2613L303.036 90.75C303.45 90.0325 304.368 89.7867 305.085 90.2009Z" fill="#59AAF3"/>
<path fill-rule="evenodd" clip-rule="evenodd" d="M246.403 78.2009C245.686 78.6152 245.44 79.5325 245.854 80.25L249.036 85.7613C249.45 86.4788 250.368 86.7246 251.085 86.3104C251.803 85.8962 252.048 84.9788 251.634 84.2613L248.452 78.75C248.038 78.0325 247.121 77.7867 246.403 78.2009Z" fill="#59AAF3"/>
<path fill-rule="evenodd" clip-rule="evenodd" d="M291.956 77.7339C291.156 77.5195 290.334 77.9943 290.119 78.7945L288.472 84.9416C288.258 85.7418 288.733 86.5643 289.533 86.7788C290.333 86.9932 291.156 86.5183 291.37 85.7181L293.017 79.571C293.231 78.7708 292.757 77.9483 291.956 77.7339Z" fill="#FDA64F"/>
<path d="M317.5 147H314.5L310.75 181.5H313.75L317.5 147Z" fill="url(#paint10_linear_2583_241174)"/>
<path d="M306.25 181.5L307.75 147H304.75L303.25 181.5H306.25Z" fill="url(#paint11_linear_2583_241174)"/>
<path d="M299.5 147H296.5L295.75 181.5H298.75L299.5 147Z" fill="url(#paint12_linear_2583_241174)"/>
<path d="M287.5 147H290.5V181.5H287.5V147Z" fill="url(#paint13_linear_2583_241174)"/>
<path d="M281.5 147H278.5V181.5H281.5V147Z" fill="url(#paint14_linear_2583_241174)"/>
<path d="M272.5 147H269.5V181.5H272.5V147Z" fill="url(#paint15_linear_2583_241174)"/>
<path d="M263.5 147H260.5V181.5H263.5V147Z" fill="url(#paint16_linear_2583_241174)"/>
<path d="M251.5 147H254.5V181.5H251.5V147Z" fill="url(#paint17_linear_2583_241174)"/>
<path d="M245.5 147H242.5L243.25 181.5H246.25L245.5 147Z" fill="url(#paint18_linear_2583_241174)"/>
<path d="M234.25 147L235.75 181.5H238.75L237.25 147H234.25Z" fill="url(#paint19_linear_2583_241174)"/>
<path d="M227.5 147H224.5L228.25 181.5H231.25L227.5 147Z" fill="url(#paint20_linear_2583_241174)"/>
</g>
<path fill-rule="evenodd" clip-rule="evenodd" d="M318.392 34.1733L327.274 22.6336C331.149 17.5985 339.176 19.7495 340.015 26.0476L341.937 40.482L355.656 45.3629C361.642 47.4925 362.077 55.7917 356.346 58.5354L343.212 64.8235L342.81 79.3798C342.634 85.7311 334.876 88.7093 330.496 84.1069L320.456 73.5587L306.488 77.6741C300.394 79.4698 295.164 73.0113 298.187 67.4231L305.117 54.6159L296.886 42.6031C293.295 37.3616 297.822 30.3918 304.07 31.5405L318.392 34.1733ZM310.383 54.3399L300.599 40.0596C299.27 38.1202 300.945 35.5413 303.257 35.9664L320.282 39.0961L330.84 25.3782C332.274 23.5152 335.244 24.3111 335.554 26.6415L337.839 43.8004L354.148 49.6026C356.363 50.3906 356.524 53.4613 354.403 54.4765L338.79 61.9516L338.312 79.2554C338.247 81.6055 335.376 82.7075 333.755 81.0045L321.821 68.4654L305.216 73.3576C302.961 74.022 301.026 71.6323 302.145 69.5646L310.383 54.3399Z" fill="white"/>
<path d="M335.554 26.6412C335.243 24.3108 332.273 23.5149 330.839 25.378L320.281 39.0958L303.256 35.9661C300.944 35.541 299.269 38.12 300.598 40.0594L310.382 54.3396L302.144 69.5643C301.025 71.632 302.961 74.0217 305.216 73.3573L321.82 68.4651L333.754 81.0042C335.375 82.7072 338.246 81.6052 338.311 79.2552L338.789 61.9514L354.402 54.4763C356.523 53.4611 356.362 50.3903 354.147 49.6023L337.838 43.8002L335.554 26.6412Z" fill="#E60023"/>
</g>
<defs>
<linearGradient id="paint0_linear_2583_241174" x1="254.25" y1="67.5" x2="-54" y2="67.5" gradientUnits="userSpaceOnUse">
<stop stop-color="#E2E6FD"/>
<stop offset="1" stop-color="white" stop-opacity="0.8"/>
</linearGradient>
<linearGradient id="paint1_linear_2583_241174" x1="60" y1="0" x2="60" y2="120" gradientUnits="userSpaceOnUse">
<stop stop-color="#FDA64F"/>
<stop offset="1" stop-color="#FA5F2E"/>
</linearGradient>
<linearGradient id="paint2_linear_2583_241174" x1="254.25" y1="67.5" x2="-54" y2="67.5" gradientUnits="userSpaceOnUse">
<stop stop-color="#E2E6FD"/>
<stop offset="1" stop-color="white" stop-opacity="0.8"/>
</linearGradient>
<linearGradient id="paint3_linear_2583_241174" x1="60" y1="0" x2="60" y2="104.25" gradientUnits="userSpaceOnUse">
<stop stop-color="#1F6BAD"/>
<stop offset="1" stop-color="#526AE0"/>
</linearGradient>
<linearGradient id="paint4_linear_2583_241174" x1="107.5" y1="182" x2="107.5" y2="218.75" gradientUnits="userSpaceOnUse">
<stop stop-color="#FCA58D"/>
<stop offset="1" stop-color="#9BAAF3"/>
</linearGradient>
<linearGradient id="paint5_linear_2583_241174" x1="107.5" y1="134" x2="107.5" y2="183.5" gradientUnits="userSpaceOnUse">
<stop stop-color="white" stop-opacity="0.8"/>
<stop offset="1" stop-color="#E2E6FD"/>
</linearGradient>
<linearGradient id="paint6_linear_2583_241174" x1="-37.5" y1="135" x2="166.5" y2="-2.76191e-05" gradientUnits="userSpaceOnUse">
<stop stop-color="#E2E6FD"/>
<stop offset="1" stop-color="white" stop-opacity="0.8"/>
</linearGradient>
<linearGradient id="paint7_linear_2583_241174" x1="60" y1="0" x2="60" y2="120" gradientUnits="userSpaceOnUse">
<stop stop-color="#9270D7"/>
<stop offset="1" stop-color="#768AEA"/>
</linearGradient>
<linearGradient id="paint8_linear_2583_241174" x1="271" y1="156" x2="271" y2="196.5" gradientUnits="userSpaceOnUse">
<stop stop-color="#5C3BA0"/>
<stop offset="1" stop-color="#1A3D5B"/>
</linearGradient>
<linearGradient id="paint9_linear_2583_241174" x1="272.421" y1="82.5769" x2="272.421" y2="125.634" gradientUnits="userSpaceOnUse">
<stop stop-color="white" stop-opacity="0.8"/>
<stop offset="1" stop-color="#F9F1E7"/>
</linearGradient>
<linearGradient id="paint10_linear_2583_241174" x1="287.28" y1="147" x2="287.28" y2="181.5" gradientUnits="userSpaceOnUse">
<stop stop-color="#774FC4"/>
<stop offset="1" stop-color="#2A3FA7"/>
</linearGradient>
<linearGradient id="paint11_linear_2583_241174" x1="287.28" y1="147" x2="287.28" y2="181.5" gradientUnits="userSpaceOnUse">
<stop stop-color="#774FC4"/>
<stop offset="1" stop-color="#2A3FA7"/>
</linearGradient>
<linearGradient id="paint12_linear_2583_241174" x1="287.28" y1="147" x2="287.28" y2="181.5" gradientUnits="userSpaceOnUse">
<stop stop-color="#774FC4"/>
<stop offset="1" stop-color="#2A3FA7"/>
</linearGradient>
<linearGradient id="paint13_linear_2583_241174" x1="287.28" y1="147" x2="287.28" y2="181.5" gradientUnits="userSpaceOnUse">
<stop stop-color="#774FC4"/>
<stop offset="1" stop-color="#2A3FA7"/>
</linearGradient>
<linearGradient id="paint14_linear_2583_241174" x1="287.28" y1="147" x2="287.28" y2="181.5" gradientUnits="userSpaceOnUse">
<stop stop-color="#774FC4"/>
<stop offset="1" stop-color="#2A3FA7"/>
</linearGradient>
<linearGradient id="paint15_linear_2583_241174" x1="287.28" y1="147" x2="287.28" y2="181.5" gradientUnits="userSpaceOnUse">
<stop stop-color="#774FC4"/>
<stop offset="1" stop-color="#2A3FA7"/>
</linearGradient>
<linearGradient id="paint16_linear_2583_241174" x1="287.28" y1="147" x2="287.28" y2="181.5" gradientUnits="userSpaceOnUse">
<stop stop-color="#774FC4"/>
<stop offset="1" stop-color="#2A3FA7"/>
</linearGradient>
<linearGradient id="paint17_linear_2583_241174" x1="287.28" y1="147" x2="287.28" y2="181.5" gradientUnits="userSpaceOnUse">
<stop stop-color="#774FC4"/>
<stop offset="1" stop-color="#2A3FA7"/>
</linearGradient>
<linearGradient id="paint18_linear_2583_241174" x1="287.28" y1="147" x2="287.28" y2="181.5" gradientUnits="userSpaceOnUse">
<stop stop-color="#774FC4"/>
<stop offset="1" stop-color="#2A3FA7"/>
</linearGradient>
<linearGradient id="paint19_linear_2583_241174" x1="287.28" y1="147" x2="287.28" y2="181.5" gradientUnits="userSpaceOnUse">
<stop stop-color="#774FC4"/>
<stop offset="1" stop-color="#2A3FA7"/>
</linearGradient>
<linearGradient id="paint20_linear_2583_241174" x1="287.28" y1="147" x2="287.28" y2="181.5" gradientUnits="userSpaceOnUse">
<stop stop-color="#774FC4"/>
<stop offset="1" stop-color="#2A3FA7"/>
</linearGradient>
<clipPath id="clip0_2583_241174">
<rect width="375" height="250" fill="white"/>
</clipPath>
<clipPath id="clip1_2583_241174">
<rect width="120" height="120" fill="white" transform="matrix(-1 0 0 1 141.5 -1.5)"/>
</clipPath>
<clipPath id="clip2_2583_241174">
<rect width="120" height="120" fill="white" transform="matrix(-1 0 0 1 167.5 120.5)"/>
</clipPath>
<clipPath id="clip3_2583_241174">
<rect width="120" height="120" fill="white" transform="matrix(-1 0 0 1 331 61.5)"/>
</clipPath>
</defs>
</svg>
