<svg xmlns="http://www.w3.org/2000/svg" width="375" height="375" fill="none" viewBox="0 0 375 375"><g clip-path="url(#a)"><path fill="#1e4a71" d="M0 0h375v375H0z"/><path fill="url(#b)" d="M354.292 84.013a70 70 0 0 1 6.654 2.149 68 68 0 0 1 9.277 4.346 67.7 67.7 0 0 1 13.975 10.465q1.185 1.153 2.308 2.356a68.65 68.65 0 0 1 15.213 25.989 69 69 0 0 1 2.024 7.998q.309 1.628.538 3.276a68 68 0 0 1 .136 17.671 69 69 0 0 1-1.832 9.396l-1.449 5.407q-.112.418-.23.835a66.5 66.5 0 0 1-2.878 8.129c-3.327 7.789-8.093 15.017-13.9 21.707a113 113 0 0 1-7.279 7.617q-1.057 1.007-2.145 1.997a135 135 0 0 1-5.626 4.86 162 162 0 0 1-9.389 7.119 200.439 200.439 0 0 1-12.962 8.374 236 236 0 0 1-8.516 4.825 261 261 0 0 1-5.754 3.018 284 284 0 0 1-6.315 3.115 317 317 0 0 1-9.344 4.284q-1.396.611-2.787 1.206-1.211.52-2.42 1.027a378 378 0 0 1-16.12 6.314 407 407 0 0 1-7.261 2.58q-.685.236-1.365.465-.896.308-1.782.608-1.97.66-3.883 1.282a448 448 0 0 1-5.068 1.617q-.559.173-1.111.342a429 429 0 0 1-20.688 5.842q-.245.06-.485.121c-6.591 1.669-10.518 2.476-10.57 2.487-.03-.028-2.919-2.593-7.641-7.177q-.554-.537-1.139-1.11a408 408 0 0 1-7.773-7.817c-12.987-13.403-31.312-34.039-46.301-57.535a256 256 0 0 1-3.918-6.34c-5.356-8.962-10.138-18.269-13.892-27.692a145 145 0 0 1-2.613-7.071c-1.825-5.378-3.283-10.776-4.289-16.151a97 97 0 0 1-.85-5.342 87 87 0 0 1-.669-7.798 79 79 0 0 1-.055-4.391 74 74 0 0 1 .323-5.885 71 71 0 0 1 .835-5.982 66 66 0 0 1 1.141-5.052l1.449-5.407q.15-.558.309-1.111l.099-.345q.322-1.103.676-2.187l.113-.341q.368-1.102.769-2.185l.096-.254a67 67 0 0 1 .955-2.406q.466-1.108.966-2.192l.073-.157q.49-1.055 1.014-2.087l.147-.29q.252-.49.509-.974l.087-.162a69 69 0 0 1 1.763-3.085l.132-.218.194-.313a25.2 25.2 0 0 0 12.427 7.694c13.516 3.62 27.408-4.4 31.029-17.915.645-2.405.919-4.822.86-7.191a16.9 16.9 0 0 0 4.859 2.166c9.011 2.414 18.273-2.933 20.687-11.944.358-1.334.543-2.674.574-3.997a69 69 0 0 1 2.213.448l.342.076a65 65 0 0 1 1.188.278l.393.097a68 68 0 0 1 1.172.302 68 68 0 0 1 3.631 1.082 68.3 68.3 0 0 1 26.789 16.4 68.2 68.2 0 0 1 13.899 19.834l3.874 8.383 7.547-5.322a68.29 68.29 0 0 1 57.04-10.158"/><path fill="url(#c)" d="m402.539 167.648-1.449 5.407c-19.125 71.377-157.878 99.77-157.878 99.77l46.447-173.342 7.548-5.323a68.3 68.3 0 0 1 57.039-10.157c36.434 9.762 58.055 47.212 48.293 83.645"/><path fill="url(#d)" d="M289.511 34.963c4.895.344 9.917 2.913 13.283 7.094 4.016 4.85 5.625 11.935 3.943 18.286q-.252 1-.518 1.994c-4.625 17.263-12.6 33.63-17.857 50.723 26.773 6.154 53.768-6.025 67.33-28.654a72 72 0 0 1 2.076.638 64 64 0 0 1-8.357 11.197c3.242 2.294 8.35 2.464 14.497.415 2.951-.984 6.077-2.463 9.245-4.393q.986.622 1.947 1.277c-3.579 2.264-7.144 3.993-10.523 5.12-6.502 2.166-12.599 2.184-16.645-.883-12.291 12.332-29.324 19.407-47.19 18.967a194.9 194.9 0 0 1 54.002 27.701c13.115-12.228 30.674-16.981 47.244-14.259q.34 1.12.642 2.254c-16.11-2.954-33.308 1.473-46.158 13.282a193.8 193.8 0 0 1 39.829 40.041q-.176.355-.356.708-.063.127-.127.252-.295.57-.598 1.135a191.7 191.7 0 0 0-40.297-40.657l-.12.119-.805-.805c-20.007-14.706-42.552-25.289-66.261-31.378q-.305 1.038-.595 2.081a23114 23114 0 0 0-12.356 44.723c21.618 6.17 41.403 18.872 57.556 37.583 6.958-3.277 15.948-1.03 24.837 4.838 4.668 3.082 9.384 7.209 13.884 12.195q-.804.682-1.621 1.356c-4.375-4.839-8.938-8.825-13.426-11.788-8.434-5.568-16.343-7.384-22.25-4.923 7.067 8.456 13.408 18.09 18.869 28.858q-.891.57-1.79 1.132c-17.9-35.406-45.367-58.288-76.62-67.214q-3.644 13.235-7.278 26.471l-4.466 16.285c22.794 6.659 39.402 24.54 45.397 45.973q-.176.073-.353.145-.81.327-1.618.648c-5.748-20.842-21.852-38.251-43.984-44.73l-15.272 55.687-2.229 8.126-1.165.255c-.013-.012-.317-.286-.882-.8l2.134-8.155 6.59-25.186c-6.453-1.095-13.804 2.702-20.669 10.444a62 62 0 0 0-4.911 6.36q-.737-.765-1.494-1.56a64 64 0 0 1 4.825-6.201c7.081-7.986 15.203-12.485 22.786-11.094l14.723-56.274q2.258-8.647 4.511-17.295c-31.535-7.935-66.782-1.878-100.007 19.823q-.496-.938-.984-1.877c33.613-21.896 69.394-28.079 101.524-19.989 3.9-14.966 7.791-29.935 11.662-44.909q.257-1.003.502-2.008c-26.568-6.199-54.48-6.794-81.832-1.271l.167.045c-5.841 21.799-22.196 37.973-42.147 44.531q-.336-1.003-.653-2.008c19.005-6.248 34.635-21.52 40.499-42.126a192.3 192.3 0 0 0-45.414 15.88 82 82 0 0 1-.069-2.32c38.14-18.724 79.806-23.863 119.16-16.983-21.578-10.852-35.213-33.004-35.411-56.94q.077.014.155.032a62 62 0 0 1 .772.17l.306.068.634.15.102.024.148.036c.433 26.416 17.774 50.492 44.101 58.514 3.994-17.434 5.273-35.596 9.899-52.86q.267-.995.549-1.986c.853-2.884.759-6.063-.557-9.159-1.117-2.615-3.122-5.1-6.104-6.833z"/><path fill="url(#e)" d="M104.925 237.852a8.447 8.447 0 0 1 9.555 7.167l6.334 44.336a8.446 8.446 0 0 1-9.33 9.583l4.759 14.275a8.446 8.446 0 0 1-16.024 5.342l-17.262-51.789a8.45 8.45 0 0 0-8.012-5.775h-.988a8.45 8.45 0 0 0-8.012 5.775l-17.263 51.789a8.445 8.445 0 0 1-16.023-5.342l17.262-51.788a25.34 25.34 0 0 1 24.036-17.324h.988a25.34 25.34 0 0 1 24.035 17.324l1.368 4.104-2.589-18.122a8.446 8.446 0 0 1 7.166-9.555"/><path fill="#768aea" d="M201.126 193.431q1.215 0 2.404.097c1.047.085 1.819.985 1.819 2.035v12.494c0 1.457-1.457 2.481-2.906 2.331a13 13 0 0 0-1.317-.067c-6.996 0-12.667 5.672-12.668 12.668.001 6.996 5.672 12.668 12.668 12.668 6.997 0 12.668-5.672 12.668-12.668q0-.667-.067-1.317c-.15-1.449.874-2.906 2.331-2.906h12.493c1.051 0 1.95.773 2.035 1.82q.098 1.189.098 2.403c0 16.324-13.233 29.557-29.558 29.558a25.26 25.26 0 0 1-7.419 17.915c-8.124 8.123-20.391 9.575-29.998 4.359a29.5 29.5 0 0 1 1.526 9.394c0 2.165-.236 4.275-.678 6.308l10.355-2.405c13.276-3.085 26.614 4.888 30.184 18.042l8.692 32.021 6.382 22.665a4.225 4.225 0 0 0 4.707 3.03l1.268-.196c4.607-.708 8.761 2.856 8.762 7.517 0 2.1-1.703 3.803-3.803 3.803h-18.211a8.45 8.45 0 0 1-8.305-6.233l-15.793-58.183a8.445 8.445 0 0 0-10.06-6.014l-21.131 4.908 10.135 51.59a3.49 3.49 0 0 0 4.048 2.761c4.283-.779 8.227 2.511 8.227 6.865v.576a3.73 3.73 0 0 1-3.729 3.73h-15.718a8.445 8.445 0 0 1-8.286-6.813l-10.83-54.98a29.8 29.8 0 0 1-5.774.566c-3.629 0-7.106-.656-10.318-1.852l9.655 49.147a3.49 3.49 0 0 0 4.048 2.761c4.284-.779 8.227 2.511 8.228 6.865v.576a3.73 3.73 0 0 1-3.73 3.73h-15.718a8.445 8.445 0 0 1-8.286-6.813l-12.133-61.599a1.056 1.056 0 0 1 1.036-1.259h6.537c-5.477-5.365-8.876-12.842-8.876-21.114 0-16.324 13.233-29.557 29.557-29.557 4.344 0 8.47.937 12.185 2.62-3.403-9.026-1.473-19.605 5.792-26.869a25.26 25.26 0 0 1 17.915-7.42l.01-.763c.404-15.972 13.478-28.795 29.547-28.795M49.779 306.998c.83-.554 1.893.247 1.59 1.198l-19.382 60.92a8.445 8.445 0 0 1-8.048 5.883H11.42a3.473 3.473 0 0 1-3.474-3.473v-.524a6.346 6.346 0 0 1 5.448-6.281 3.17 3.17 0 0 0 2.562-2.138l14.158-42.476zm53.837 0c.83-.554 1.894.247 1.592 1.198l-19.384 60.92a8.445 8.445 0 0 1-8.048 5.883H65.257a3.473 3.473 0 0 1-3.474-3.473v-.524a6.346 6.346 0 0 1 5.448-6.281 3.17 3.17 0 0 0 2.562-2.138l14.159-42.476z"/><path fill="url(#f)" d="M12.834 309.685c8.937-21.226 31.066-33.755 53.865-30.498l22.806 3.258c15.591 2.228 27.171 15.58 27.171 31.328 0 15.749-11.58 29.101-27.17 31.328l-22.807 3.258c-22.8 3.257-44.928-9.271-53.865-30.498l-1.031-2.449a4.22 4.22 0 0 1 0-3.277z"/><path fill="url(#g)" d="M121.884 197.056c-.262-9.961 3.696-20.205 10.872-27.752q.595-.63 1.218-1.237c.798-.79 1.858-1.206 2.975-1.124s2.198.656 2.98 1.561c.781.906 1.191 2.06 1.109 3.175-.081 1.118-.649 2.106-1.547 2.78q-.557.412-1.098.849c-6.523 5.211-11.106 13.166-12.08 21.938q-.084.728-.137 1.463a2.13 2.13 0 0 1-.684 1.396c-.397.37-.903.577-1.427.577s-1.03-.207-1.427-.577a2.14 2.14 0 0 1-.684-1.396q-.053-.825-.07-1.653"/><path fill="url(#h)" d="M118.787 200.821c.036 1.026.111 2.036.225 3.053 1.788 18.542 18.272 33.492 35.927 33.886.969.04 1.926.042 2.894.008.004 0 .009-.704.013-1.056.003-.284.006-.755.008-1.146.002-.401.002-.689.002-.965s0-.564-.002-.965c-.002-.391-.005-.862-.008-1.146-.004-.352-.007-1.056-.011-1.056a31 31 0 0 1-2.389-.198c-14.49-1.53-25.986-14.56-26.121-28.164a29 29 0 0 1 .019-2.251 4.96 4.96 0 0 0-1.442-3.732c-.989-.99-2.38-1.547-3.837-1.547-1.456 0-2.848.557-3.837 1.547a4.96 4.96 0 0 0-1.441 3.732"/><path fill="url(#i)" d="M227.06 302.232c9.961.262 20.204-3.697 27.751-10.872q.63-.596 1.237-1.219c.79-.797 1.207-1.857 1.124-2.975-.081-1.116-.655-2.197-1.561-2.979s-2.059-1.192-3.175-1.109c-1.118.081-2.106.648-2.779 1.546q-.413.558-.85 1.099c-5.21 6.523-13.166 11.106-21.937 12.08q-.729.084-1.464.136a2.14 2.14 0 0 0-1.396.685 2.1 2.1 0 0 0-.577 1.426c0 .524.207 1.031.577 1.427.37.395.873.649 1.396.685q.825.052 1.654.07"/><path fill="url(#j)" d="M223.295 305.328a39 39 0 0 1-3.054-.225c-18.541-1.788-33.491-18.271-33.885-35.926a37 37 0 0 1-.008-2.895c0-.004.703-.008 1.055-.012l1.147-.009c.4-.002.689-.002.965-.002s.564 0 .965.002l1.146.009c.352.003 1.055.007 1.055.01.036.805.102 1.595.198 2.39 1.53 14.49 14.561 25.985 28.164 26.12a29 29 0 0 0 2.252-.018c1.4-.057 2.742.45 3.732 1.441.99.989 1.546 2.381 1.546 3.837s-.556 2.848-1.546 3.837a4.95 4.95 0 0 1-3.732 1.441"/><path fill="#1c2554" d="M194.793 250.435c5.83 0 10.556 4.727 10.556 10.557s-4.726 10.555-10.556 10.556-10.557-4.726-10.557-10.556 4.727-10.557 10.557-10.557m-31.669-31.669c5.83.001 10.556 4.727 10.556 10.557s-4.726 10.555-10.556 10.556-10.556-4.726-10.557-10.556c0-5.83 4.727-10.557 10.557-10.557"/><path fill="#1a5866" d="M201.126 193.431q1.369 0 2.706.122c1.047.096 1.811 1.005 1.798 2.057l-.152 12.493c-.018 1.453-1.479 2.459-2.923 2.297a13 13 0 0 0-1.429-.079 12.64 12.64 0 0 0-9.858 4.717q-.428-.583-.855-1.169a300 300 0 0 1-8.92-12.973 29.45 29.45 0 0 1 19.633-7.465"/></g><defs><linearGradient id="b" x1="168.712" x2="259.779" y1="61.608" y2="219.339" gradientUnits="userSpaceOnUse"><stop stop-color="#e68800"/><stop offset="1" stop-color="#d7cb42"/></linearGradient><linearGradient id="e" x1="80.784" x2="112.453" y1="255.714" y2="334.886" gradientUnits="userSpaceOnUse"><stop stop-color="#768aea"/><stop offset="1" stop-color="#526ae0"/></linearGradient><linearGradient id="f" x1="106.119" x2="11.113" y1="317.996" y2="317.996" gradientUnits="userSpaceOnUse"><stop stop-color="#768aea"/><stop offset="1" stop-color="#c4cdf8"/></linearGradient><linearGradient id="g" x1="120.898" x2="138.844" y1="205.043" y2="169.152" gradientUnits="userSpaceOnUse"><stop stop-color="#768aea"/><stop offset="1" stop-color="#e60023"/></linearGradient><linearGradient id="h" x1="151.512" x2="124.065" y1="235.657" y2="200.821" gradientUnits="userSpaceOnUse"><stop stop-color="#768aea"/><stop offset="1" stop-color="#9baaf3"/></linearGradient><linearGradient id="i" x1="219.072" x2="254.964" y1="303.217" y2="285.271" gradientUnits="userSpaceOnUse"><stop stop-color="#768aea"/><stop offset="1" stop-color="#e60023"/></linearGradient><linearGradient id="j" x1="188.459" x2="223.295" y1="272.604" y2="300.05" gradientUnits="userSpaceOnUse"><stop stop-color="#768aea"/><stop offset="1" stop-color="#9baaf3"/></linearGradient><radialGradient id="c" cx="0" cy="0" r="1" gradientTransform="rotate(45 16.548 400.532)scale(136.521)" gradientUnits="userSpaceOnUse"><stop stop-color="#e68800"/><stop offset="1" stop-color="#d7cb42"/></radialGradient><radialGradient id="d" cx="0" cy="0" r="1" gradientTransform="rotate(105 98.755 166.96)scale(205.85 481.088)" gradientUnits="userSpaceOnUse"><stop stop-color="#bd5f00"/><stop offset="1" stop-color="#d7cb42"/></radialGradient><clipPath id="a"><path fill="#fff" d="M0 0h375v375H0z"/></clipPath></defs></svg>