<svg width="375" height="375" viewBox="0 0 375 375" fill="none" xmlns="http://www.w3.org/2000/svg">
<g clip-path="url(#clip0_2583_241144)">
<rect width="375" height="375" fill="#A13012"/>
<path d="M132.787 207.213C148.222 207.213 160.143 219.306 160.143 234.741V245.512C135.525 247.133 116.373 268.361 116.373 293.39V362.234H258.627V293.375C258.627 268.346 239.475 247.133 214.857 245.512V234.741C214.857 219.306 226.778 207.213 242.213 207.213V190.799H132.787V207.213Z" fill="url(#paint0_linear_2583_241144)"/>
<path d="M69.8577 228.938C75.4945 235.28 85.4036 235.28 91.0404 228.938L92.0045 227.854C94.0339 225.57 96.7469 224.004 99.739 223.388L101.16 223.095C109.471 221.385 114.426 212.803 111.752 204.751L111.294 203.373C110.332 200.474 110.332 197.342 111.294 194.442L111.752 193.065C114.426 185.012 109.471 176.431 101.16 174.72L99.739 174.428C96.7469 173.812 94.034 172.245 92.0045 169.962L91.0404 168.877C85.4036 162.535 75.4945 162.535 69.8577 168.877L68.8936 169.962C66.8641 172.245 64.1512 173.812 61.1591 174.428L59.7377 174.72C51.4269 176.431 46.4724 185.012 49.1463 193.065L49.6036 194.442C50.5663 197.342 50.5663 200.474 49.6036 203.373L49.1463 204.751C46.4724 212.803 51.4269 221.385 59.7377 223.095L61.1591 223.388C64.1512 224.004 66.8641 225.57 68.8936 227.854L69.8577 228.938Z" fill="#E60023"/>
<path d="M80.8194 199.659C82.2703 201.291 84.821 201.291 86.272 199.659L87.8476 197.886C88.37 197.298 89.0683 196.895 89.8385 196.736L92.1615 196.258C94.3008 195.818 95.5761 193.609 94.8878 191.536L94.1404 189.285C93.8926 188.539 93.8926 187.733 94.1404 186.986L94.8879 184.735C95.5761 182.663 94.3008 180.454 92.1615 180.013L89.8385 179.535C89.0683 179.377 88.37 178.973 87.8476 178.386L86.272 176.613C84.821 174.981 82.2703 174.981 80.8194 176.613L79.2437 178.386C78.7213 178.973 78.023 179.377 77.2528 179.535L74.9298 180.013C72.7905 180.454 71.5152 182.663 72.2035 184.735L72.9509 186.986C73.1987 187.733 73.1987 188.539 72.9509 189.285L72.2035 191.536C71.5152 193.609 72.7905 195.818 74.9298 196.258L77.2528 196.736C78.023 196.895 78.7213 197.298 79.2437 197.886L80.8194 199.659Z" fill="#8F2459"/>
<path fill-rule="evenodd" clip-rule="evenodd" d="M259.752 126.627C264.183 118.141 274.979 115.346 282.971 120.617L320.953 145.665C322.214 146.497 323.911 146.149 324.743 144.888C325.575 143.626 325.226 141.93 323.965 141.098L285.983 116.049C275.285 108.994 260.834 112.735 254.902 124.094L134.692 354.316L139.542 356.848L259.752 126.627Z" fill="#9FC157"/>
<path d="M313.403 175.157C319.039 181.499 328.948 181.499 334.585 175.157L335.549 174.072C337.579 171.789 340.292 170.222 343.284 169.606L344.705 169.314C353.016 167.603 357.971 159.022 355.297 150.969L354.839 149.592C353.877 146.693 353.877 143.56 354.839 140.661L355.297 139.283C357.971 131.231 353.016 122.649 344.705 120.939L343.284 120.646C340.292 120.03 337.579 118.464 335.549 116.181L334.585 115.096C328.948 108.754 319.039 108.754 313.403 115.096L312.438 116.181C310.409 118.464 307.696 120.03 304.704 120.646L303.283 120.939C294.972 122.649 290.017 131.231 292.691 139.283L293.149 140.661C294.111 143.56 294.111 146.693 293.149 149.592L292.691 150.969C290.017 159.022 294.972 167.603 303.283 169.314L304.704 169.606C307.696 170.222 310.409 171.789 312.438 174.072L313.403 175.157Z" fill="#5C3BA0"/>
<path d="M282.412 214.768C288.049 221.11 297.958 221.11 303.595 214.768L304.559 213.683C306.588 211.4 309.301 209.834 312.293 209.218L313.715 208.925C322.025 207.215 326.98 198.633 324.306 190.58L323.849 189.203C322.886 186.304 322.886 183.171 323.849 180.272L324.306 178.895C326.98 170.842 322.025 162.261 313.715 160.55L312.293 160.257C309.301 159.641 306.588 158.075 304.559 155.792L303.595 154.707C297.958 148.365 288.049 148.365 282.412 154.707L281.448 155.792C279.418 158.075 276.705 159.641 273.713 160.257L272.292 160.55C263.981 162.261 259.027 170.842 261.7 178.895L262.158 180.272C263.12 183.171 263.12 186.304 262.158 189.203L261.7 190.58C259.027 198.633 263.981 207.215 272.292 208.925L273.713 209.218C276.705 209.834 279.418 211.4 281.448 213.683L282.412 214.768Z" fill="#DD73DD"/>
<path d="M323.967 179.913C320.09 179.906 316.215 178.321 313.403 175.157L312.438 174.072C310.409 171.789 307.696 170.222 304.704 169.607L303.283 169.314C294.972 167.603 290.017 159.022 292.691 150.969L293.029 149.951C296.907 149.958 300.782 151.543 303.594 154.707L304.558 155.792C306.588 158.075 309.301 159.641 312.293 160.257L313.714 160.55C322.025 162.261 326.98 170.842 324.306 178.895L323.967 179.913Z" fill="#6B246B"/>
<path d="M283.257 188.716C284.708 190.348 287.259 190.348 288.71 188.716L290.286 186.943C290.808 186.356 291.506 185.952 292.276 185.794L294.6 185.316C296.739 184.875 298.014 182.666 297.326 180.594L296.578 178.343C296.331 177.596 296.331 176.79 296.578 176.044L297.326 173.793C298.014 171.72 296.739 169.511 294.6 169.071L292.276 168.593C291.506 168.434 290.808 168.031 290.286 167.443L288.71 165.67C287.259 164.038 284.708 164.038 283.257 165.67L281.682 167.443C281.159 168.031 280.461 168.434 279.691 168.593L277.368 169.071C275.228 169.511 273.953 171.72 274.641 173.793L275.389 176.044C275.637 176.79 275.637 177.596 275.389 178.343L274.641 180.594C273.953 182.666 275.228 184.875 277.368 185.316L279.691 185.794C280.461 185.952 281.159 186.356 281.682 186.943L283.257 188.716Z" fill="#E60023"/>
<path fill-rule="evenodd" clip-rule="evenodd" d="M130.76 165.015C124.906 154.75 110.375 154.035 103.542 163.675L85.7772 188.734C84.9035 189.967 83.1959 190.258 81.9634 189.384C80.7308 188.51 80.4399 186.803 81.3137 185.57L99.078 160.511C108.225 147.607 127.677 148.564 135.513 162.305L244.59 353.584L239.837 356.294L130.76 165.015Z" fill="#9FC157"/>
<path fill-rule="evenodd" clip-rule="evenodd" d="M250.044 163.855C257.043 153.547 272.581 154.704 277.976 165.934L282.606 175.57C283.26 176.932 284.895 177.506 286.256 176.851C287.618 176.197 288.192 174.563 287.538 173.201L282.908 163.565C275.686 148.532 254.886 146.984 245.518 160.782L119.109 346.96L123.635 350.033L250.044 163.855Z" fill="#354517"/>
<path d="M169.05 77.7887C174.686 84.1307 184.596 84.1307 190.232 77.7887L191.196 76.704C193.226 74.4207 195.939 72.8544 198.931 72.2385L200.352 71.9459C208.663 70.2352 213.618 61.6537 210.944 53.6011L210.486 52.2238C209.524 49.3246 209.524 46.1919 210.486 43.2928L210.944 41.9155C213.618 33.8628 208.663 25.2813 200.352 23.5707L198.931 23.2781C195.939 22.6622 193.226 21.0959 191.196 18.8126L190.232 17.7279C184.596 11.3859 174.686 11.3859 169.05 17.7279L168.086 18.8126C166.056 21.0959 163.343 22.6622 160.351 23.2781L158.93 23.5707C150.619 25.2813 145.664 33.8628 148.338 41.9155L148.796 43.2928C149.758 46.192 149.758 49.3246 148.796 52.2238L148.338 53.6011C145.664 61.6537 150.619 70.2352 158.93 71.9459L160.351 72.2385C163.343 72.8544 166.056 74.4207 168.086 76.704L169.05 77.7887Z" fill="#5C3BA0"/>
<path d="M226.928 64.618C226.232 63.2769 224.581 62.754 223.24 63.4499C221.899 64.1458 221.376 65.7971 222.072 67.1382L233.808 89.754C240.778 103.184 241.964 118.878 237.092 133.203L191.139 268.33L149.633 165.768C149.307 164.961 148.97 164.16 148.624 163.364L132.661 123.938L98.6775 65.4095C97.9188 64.1029 96.2446 63.6587 94.938 64.4174C93.6314 65.176 93.1873 66.8502 93.9459 68.1568L127.735 126.35L132.223 137.434C120.852 124.405 106.179 114.387 89.4824 108.598L77.1462 104.321C75.7187 103.826 74.1603 104.582 73.6654 106.01C73.1704 107.437 73.9264 108.996 75.3539 109.491L87.6901 113.768C112.758 122.459 133.004 141.234 143.579 165.484L188.437 276.275L160.427 358.637L165.607 360.399L191.577 284.033L221.439 357.788L226.511 355.736L194.279 276.089L242.272 134.965C247.624 119.228 246.321 101.988 238.665 87.2338L226.928 64.618Z" fill="#988C1B"/>
<path d="M151.762 190.799L187.421 253.332L220.072 190.799L226.244 190.799L190.643 258.982L244.59 353.583L239.837 356.294L187.632 264.747L139.542 356.848L134.692 354.315L184.41 259.097L145.463 190.799L151.762 190.799Z" fill="#D7CB42"/>
<path d="M209.986 98.2565C215.622 104.598 225.532 104.598 231.168 98.2565L232.132 97.1718C234.162 94.8885 236.875 93.3222 239.867 92.7063L241.288 92.4137C249.599 90.703 254.554 82.1215 251.88 74.0689L251.422 72.6916C250.46 69.7924 250.46 66.6598 251.422 63.7606L251.88 62.3833C254.554 54.3306 249.599 45.7492 241.288 44.0385L239.867 43.7459C236.875 43.13 234.162 41.5637 232.132 39.2804L231.168 38.1957C225.532 31.8537 215.622 31.8537 209.986 38.1957L209.021 39.2804C206.992 41.5637 204.279 43.13 201.287 43.7459L199.866 44.0385C191.555 45.7492 186.6 54.3307 189.274 62.3833L189.732 63.7606C190.694 66.6598 190.694 69.7924 189.732 72.6916L189.274 74.0689C186.6 82.1215 191.555 90.703 199.866 92.4137L201.287 92.7063C204.279 93.3222 206.992 94.8885 209.021 97.1718L209.986 98.2565Z" fill="#E60023"/>
<path d="M211.646 36.6041C211.061 37.0808 210.505 37.6114 209.986 38.1958L209.021 39.2805C206.992 41.5638 204.279 43.1301 201.287 43.746L199.866 44.0386C191.555 45.7493 186.6 54.3308 189.274 62.3834L189.732 63.7607C190.694 66.6599 190.694 69.7925 189.732 72.6917L189.274 74.069C188.686 75.84 188.467 77.6366 188.571 79.3801C189.157 78.9034 189.713 78.3728 190.232 77.7884L191.196 76.7037C193.225 74.4204 195.938 72.8541 198.931 72.2382L200.352 71.9456C208.663 70.235 213.617 61.6535 210.943 53.6008L210.486 52.2235C209.523 49.3243 209.523 46.1917 210.486 43.2925L210.943 41.9152C211.531 40.1442 211.751 38.3476 211.646 36.6041Z" fill="#6B246B"/>
<path d="M82.4534 95.1077C88.0902 101.45 97.9993 101.45 103.636 95.1077L104.6 94.023C106.63 91.7397 109.343 90.1734 112.335 89.5575L113.756 89.2649C122.067 87.5542 127.021 78.9727 124.348 70.9201L123.89 69.5428C122.928 66.6436 122.928 63.511 123.89 60.6118L124.348 59.2345C127.021 51.1818 122.067 42.6004 113.756 40.8897L112.335 40.5971C109.343 39.9812 106.63 38.4149 104.6 36.1316L103.636 35.0469C97.9993 28.7049 88.0902 28.7049 82.4534 35.0469L81.4893 36.1316C79.4598 38.4149 76.7469 39.9812 73.7548 40.5971L72.3334 40.8897C64.0226 42.6004 59.0681 51.1818 61.742 59.2345L62.1993 60.6118C63.162 63.511 63.162 66.6436 62.1993 69.5428L61.742 70.9201C59.0681 78.9727 64.0226 87.5542 72.3334 89.2649L73.7548 89.5575C76.7469 90.1734 79.4598 91.7397 81.4893 94.023L82.4534 95.1077Z" fill="#774FC4"/>
<path d="M63.5598 139.193C69.1967 145.535 79.1057 145.535 84.7426 139.193L85.7067 138.108C87.7361 135.825 90.4491 134.259 93.4412 133.643L94.8626 133.35C103.173 131.639 108.128 123.058 105.454 115.005L104.997 113.628C104.034 110.729 104.034 107.596 104.997 104.697L105.454 103.32C108.128 95.267 103.173 86.6856 94.8626 84.9749L93.4412 84.6823C90.4491 84.0664 87.7361 82.5001 85.7067 80.2168L84.7426 79.1321C79.1057 72.7901 69.1967 72.7901 63.5598 79.1321L62.5957 80.2168C60.5663 82.5001 57.8533 84.0664 54.8612 84.6823L53.4398 84.9749C45.1291 86.6856 40.1745 95.2671 42.8484 103.32L43.3057 104.697C44.2684 107.596 44.2684 110.729 43.3057 113.628L42.8484 115.005C40.1745 123.058 45.1291 131.639 53.4398 133.35L54.8612 133.643C57.8533 134.259 60.5663 135.825 62.5957 138.108L63.5598 139.193Z" fill="#ED96ED"/>
<path d="M103.636 95.108C97.9995 101.45 88.0905 101.45 82.4536 95.108L81.4895 94.0233C79.4601 91.74 76.7471 90.1737 73.755 89.5578L72.3336 89.2652C67.5013 88.2706 63.8036 84.9529 62.0806 80.7669C62.2568 80.5887 62.4287 80.4054 62.5959 80.2173L63.56 79.1326C69.1968 72.7906 79.1059 72.7906 84.7427 79.1326L85.7068 80.2173C87.7363 82.5006 90.4492 84.0669 93.4413 84.6828L94.8627 84.9754C99.6951 85.9701 103.393 89.2877 105.116 93.4737C104.94 93.652 104.768 93.8352 104.6 94.0233L103.636 95.108Z" fill="#C856C8"/>
<path d="M191.512 136.293C197.149 142.635 207.058 142.635 212.695 136.293L213.659 135.209C215.688 132.925 218.401 131.359 221.393 130.743L222.815 130.451C231.125 128.74 236.08 120.158 233.406 112.106L232.949 110.729C231.986 107.829 231.986 104.697 232.949 101.797L233.406 100.42C236.08 92.3676 231.125 83.7861 222.815 82.0754L221.393 81.7828C218.401 81.1669 215.688 79.6006 213.659 77.3173L212.695 76.2326C207.058 69.8906 197.149 69.8906 191.512 76.2326L190.548 77.3173C188.518 79.6006 185.805 81.1669 182.813 81.7828L181.392 82.0754C173.081 83.7861 168.127 92.3676 170.801 100.42L171.258 101.798C172.221 104.697 172.221 107.829 171.258 110.729L170.801 112.106C168.127 120.158 173.081 128.74 181.392 130.451L182.813 130.743C185.805 131.359 188.518 132.925 190.548 135.209L191.512 136.293Z" fill="#DD73DD"/>
<path d="M231.168 98.2567C225.531 104.599 215.622 104.599 209.985 98.2568L209.021 97.1721C206.992 94.8888 204.279 93.3224 201.287 92.7065L199.865 92.414C193.307 91.0639 188.838 85.4344 188.56 79.1627C189.276 78.6155 189.942 77.9983 190.548 77.3173L191.512 76.2326C197.148 69.8906 207.058 69.8906 212.694 76.2326L213.658 77.3173C215.688 79.6006 218.401 81.1669 221.393 81.7828L222.814 82.0754C229.373 83.4255 233.842 89.055 234.12 95.3267C233.404 95.8739 232.738 96.4911 232.132 97.1721L231.168 98.2567Z" fill="#993399"/>
<path d="M186.598 117.589C188.049 119.222 190.599 119.222 192.05 117.589L193.626 115.816C194.148 115.229 194.847 114.825 195.617 114.667L197.94 114.189C200.079 113.748 201.354 111.539 200.666 109.467L199.919 107.216C199.671 106.469 199.671 105.663 199.919 104.917L200.666 102.666C201.354 100.593 200.079 98.3841 197.94 97.9438L195.617 97.4656C194.847 97.3071 194.148 96.9039 193.626 96.3162L192.05 94.5434C190.599 92.911 188.049 92.911 186.598 94.5434L185.022 96.3162C184.5 96.9039 183.801 97.3071 183.031 97.4656L180.708 97.9438C178.569 98.3841 177.293 100.593 177.982 102.666L178.729 104.917C178.977 105.663 178.977 106.469 178.729 107.216L177.982 109.467C177.293 111.539 178.569 113.748 180.708 114.189L183.031 114.667C183.801 114.825 184.5 115.229 185.022 115.816L186.598 117.589Z" fill="#E60023"/>
<path d="M167.875 58.874C169.325 60.5065 171.876 60.5065 173.327 58.874L174.903 57.1012C175.425 56.5135 176.123 56.1103 176.894 55.9518L179.217 55.4736C181.356 55.0333 182.631 52.8243 181.943 50.7515L181.196 48.5006C180.948 47.7544 180.948 46.948 181.196 46.2017L181.943 43.9508C182.631 41.878 181.356 39.6691 179.217 39.2287L176.894 38.7505C176.123 38.592 175.425 38.1888 174.903 37.6011L173.327 35.8284C171.876 34.1959 169.325 34.1959 167.875 35.8284L166.299 37.6011C165.777 38.1888 165.078 38.592 164.308 38.7505L161.985 39.2287C159.846 39.6691 158.57 41.878 159.259 43.9508L160.006 46.2017C160.254 46.948 160.254 47.7544 160.006 48.5006L159.259 50.7515C158.57 52.8243 159.846 55.0333 161.985 55.4736L164.308 55.9518C165.078 56.1103 165.777 56.5135 166.299 57.1012L167.875 58.874Z" fill="#DA3C0B"/>
<path d="M223.284 190.799H217.505L191.139 268.329L159.763 190.799H153.861L188.444 276.255L160.427 358.637L165.607 360.398L191.584 284.014L221.44 357.789L226.511 355.736L194.279 276.089L223.284 190.799Z" fill="#66CC71"/>
<path d="M168.139 190.826H162.5L179.319 258.281L119.109 346.96L123.635 350.033L181.095 265.404L204.727 360.18L210.036 358.856L185.22 259.33L202.287 234.193L238.457 335.248L243.608 333.404L206.093 228.588L231.732 190.826H225.119L203.81 222.21L192.577 190.826H186.766L200.005 227.815L183.443 252.206L168.139 190.826Z" fill="#75982A"/>
<path d="M116.373 362.234H258.627V362.404C258.627 369.361 252.988 375 246.031 375H128.969C122.012 375 116.373 369.361 116.373 362.404V362.234Z" fill="white" fill-opacity="0.8"/>
<path d="M116.373 362.234H258.627V296.578H116.373V362.234Z" fill="url(#paint1_linear_2583_241144)"/>
<path d="M171.054 46.5479C171.729 47.8992 171.182 49.5425 169.83 50.2181C150.735 59.7658 140.827 81.2902 145.992 102.005L168.133 190.8H162.494L140.683 103.329C134.898 80.1269 145.996 56.0184 167.383 45.3244C168.735 44.6488 170.378 45.1965 171.054 46.5479Z" fill="#354517"/>
<path d="M163.623 126.164C158.138 110.839 173.711 96.4201 188.569 103.067L189.53 103.497C190.909 104.114 191.527 105.732 190.91 107.111C190.293 108.49 188.674 109.108 187.295 108.491L186.335 108.062C175.875 103.382 164.913 113.532 168.774 124.32L192.568 190.799H186.757L163.623 126.164Z" fill="#354517"/>
</g>
<defs>
<linearGradient id="paint0_linear_2583_241144" x1="116.649" y1="190.799" x2="116.649" y2="373.704" gradientUnits="userSpaceOnUse">
<stop stop-color="white" stop-opacity="0.3"/>
<stop offset="1" stop-color="#BA8221"/>
</linearGradient>
<linearGradient id="paint1_linear_2583_241144" x1="187.5" y1="362.234" x2="187.5" y2="296.578" gradientUnits="userSpaceOnUse">
<stop stop-color="white" stop-opacity="0"/>
<stop offset="1" stop-color="white" stop-opacity="0.65"/>
</linearGradient>
<clipPath id="clip0_2583_241144">
<rect width="375" height="375" fill="white"/>
</clipPath>
</defs>
</svg>
