<svg xmlns="http://www.w3.org/2000/svg" width="375" height="375" fill="none" viewBox="0 0 375 375"><path fill="#eae4aa" d="M0 0h375v375H0z"/><g clip-path="url(#a)"><path fill="url(#b)" fill-rule="evenodd" d="M187.5 375c98.031 0 177.5-79.469 177.5-177.5C365 99.47 285.531 20 187.5 20 89.47 20 10 99.47 10 197.5 10 295.531 89.47 375 187.5 375m0-17.433c88.403 0 160.067-71.664 160.067-160.067S275.903 37.433 187.5 37.433c-88.402 0-160.067 71.664-160.067 160.067S99.098 357.567 187.5 357.567" clip-rule="evenodd"/><path fill="url(#c)" fill-rule="evenodd" d="M187.5 357.567c88.402 0 160.067-71.664 160.067-160.067S275.902 37.433 187.5 37.433c-88.403 0-160.067 71.664-160.067 160.067S99.097 357.567 187.5 357.567m0-19.018c77.899 0 141.049-63.15 141.049-141.049S265.399 56.45 187.5 56.45 46.45 119.602 46.45 197.5s63.151 141.049 141.05 141.049" clip-rule="evenodd"/><path fill="url(#d)" d="M73.393 362.321h228.214l-26.942-53.883h-174.33z"/><path fill="#e60023" d="M73.393 362.321h228.214c0 7.003-5.676 12.679-12.678 12.679H86.071c-7.002 0-12.678-5.676-12.678-12.679"/><path fill="url(#e)" d="M328.549 197.5c0 77.899-63.15 141.049-141.049 141.049S46.45 275.399 46.45 197.5 109.602 56.45 187.5 56.45s141.049 63.151 141.049 141.05"/><path fill="url(#f)" d="M132.875 276.817c11.503 23.348 40.631 31.153 62.268 16.684l3.7-2.474c7.79-5.209 17.016-7.743 26.303-7.222l4.412.247c25.797 1.446 47.217-20.238 45.79-46.353l-.244-4.467a44.33 44.33 0 0 1 7.135-26.628l2.445-3.746c14.293-21.903 6.584-51.392-16.479-63.038l-3.944-1.992c-8.304-4.193-15.027-11-19.169-19.406l-1.967-3.993c-11.503-23.349-40.631-31.154-62.268-16.685l-3.7 2.475c-7.79 5.209-17.016 7.742-26.304 7.222l-4.412-.247c-25.796-1.446-47.216 20.238-45.789 46.353l.244 4.466a44.33 44.33 0 0 1-7.135 26.628l-2.445 3.747c-14.293 21.903-6.585 51.391 16.478 63.037l3.945 1.992c8.303 4.193 15.027 11 19.168 19.406z"/><path fill="#fd865e" d="M274.617 308.438c-23.985 18.861-54.237 30.111-87.117 30.111s-63.132-11.25-87.117-30.111z"/><path fill="url(#g)" d="M273.404 154.388c1.619-25.126-19.043-45.788-44.169-44.17l-4.298.277c-9.046.583-18.005-1.771-25.543-6.712l-3.581-2.347c-20.936-13.722-49.361-5.959-60.765 16.596l-1.95 3.857a42.7 42.7 0 0 1-18.832 18.832l-3.857 1.95c-22.555 11.404-30.318 39.829-16.596 60.765l2.347 3.581c4.941 7.538 7.295 16.497 6.712 25.543l-.276 4.298c-1.619 25.126 19.043 45.788 44.169 44.169l4.298-.277c9.046-.582 18.005 1.772 25.543 6.713l3.581 2.347c20.936 13.722 49.361 5.959 60.765-16.596l1.95-3.858a42.7 42.7 0 0 1 18.832-18.831l3.857-1.95c22.555-11.404 30.318-39.829 16.596-60.766l-2.347-3.58c-4.941-7.538-7.295-16.498-6.712-25.544z"/><path fill="#fff" d="M238.08 123.513h4.438l1.154 4.039a21.52 21.52 0 0 0 14.776 14.776l4.039 1.154v4.438l-4.039 1.153a21.52 21.52 0 0 0-14.776 14.777l-1.154 4.038h-4.438l-1.153-4.038a21.52 21.52 0 0 0-14.777-14.777l-4.038-1.153v-4.438l4.038-1.154a21.52 21.52 0 0 0 14.777-14.776z"/><path fill="#fff" fill-opacity=".25" d="M202.263 236.036h3.17l.824 2.884a15.37 15.37 0 0 0 10.555 10.555l2.884.824v3.17l-2.884.824a15.37 15.37 0 0 0-10.555 10.555l-.824 2.884h-3.17l-.824-2.884a15.37 15.37 0 0 0-10.555-10.555l-2.884-.824v-3.17l2.884-.824a15.37 15.37 0 0 0 10.555-10.555z"/><path fill="#fff" fill-opacity=".5" d="M201.154 93.402h2.219l.577 2.019a10.76 10.76 0 0 0 7.388 7.388l2.019.577v2.219l-2.019.577a10.76 10.76 0 0 0-7.388 7.388l-.577 2.019h-2.219l-.577-2.019a10.76 10.76 0 0 0-7.388-7.388l-2.019-.577v-2.219l2.019-.577a10.76 10.76 0 0 0 7.388-7.388z"/><path fill="#fff" fill-opacity=".75" d="M190.06 158.379h2.219l.577 2.02a10.76 10.76 0 0 0 7.388 7.388l2.019.577v2.219l-2.019.576a10.76 10.76 0 0 0-7.388 7.389l-.577 2.019h-2.219l-.577-2.019a10.76 10.76 0 0 0-7.388-7.389l-2.019-.576v-2.219l2.019-.577a10.76 10.76 0 0 0 7.388-7.388z"/><path fill="#fff" fill-opacity=".25" d="M129.837 169.473h2.219l.577 2.019a10.76 10.76 0 0 0 7.388 7.389l2.019.577v2.218l-2.019.577a10.76 10.76 0 0 0-7.388 7.389l-.577 2.019h-2.219l-.577-2.019a10.76 10.76 0 0 0-7.388-7.389l-2.019-.577v-2.218l2.019-.577a10.76 10.76 0 0 0 7.388-7.389zM282.297 264.562h1.585l.412 1.443a7.68 7.68 0 0 0 5.277 5.277l1.442.412v1.585l-1.442.412a7.68 7.68 0 0 0-5.277 5.277l-.412 1.443h-1.585l-.412-1.443a7.69 7.69 0 0 0-5.278-5.277l-1.442-.412v-1.585l1.442-.412a7.69 7.69 0 0 0 5.278-5.277z"/><path fill="#fff" fill-opacity=".5" d="M87.364 221.772h1.585l.412 1.443a7.68 7.68 0 0 0 5.277 5.277l1.442.412v1.585l-1.442.412a7.68 7.68 0 0 0-5.277 5.277l-.412 1.443h-1.585l-.412-1.443a7.68 7.68 0 0 0-5.278-5.277l-1.442-.412v-1.585l1.442-.412a7.68 7.68 0 0 0 5.278-5.277zM253.77 209.094h1.585l.412 1.442a7.68 7.68 0 0 0 5.277 5.277l1.443.412v1.585l-1.443.412a7.69 7.69 0 0 0-5.277 5.278l-.412 1.442h-1.585l-.412-1.442a7.69 7.69 0 0 0-5.277-5.278l-1.443-.412v-1.585l1.443-.412a7.68 7.68 0 0 0 5.277-5.277zM277.542 175.812h1.585l.412 1.443a7.69 7.69 0 0 0 5.278 5.277l1.442.412v1.585l-1.442.412a7.69 7.69 0 0 0-5.278 5.277l-.412 1.443h-1.585l-.412-1.443a7.68 7.68 0 0 0-5.277-5.277l-1.442-.412v-1.585l1.442-.412a7.68 7.68 0 0 0 5.277-5.277zM108.125 120.344h1.268l.329 1.154a6.15 6.15 0 0 0 4.222 4.221l1.154.33v1.268l-1.154.33a6.15 6.15 0 0 0-4.222 4.222l-.329 1.153h-1.268l-.33-1.153a6.14 6.14 0 0 0-4.222-4.222l-1.153-.33v-1.268l1.153-.33a6.15 6.15 0 0 0 4.222-4.221z"/><path fill="#fff" fill-opacity=".25" d="M252.344 87.063h1.268l.329 1.153a6.15 6.15 0 0 0 4.222 4.222l1.154.33v1.268l-1.154.33a6.15 6.15 0 0 0-4.222 4.221l-.329 1.154h-1.268l-.33-1.154a6.15 6.15 0 0 0-4.222-4.222l-1.154-.33v-1.267l1.154-.33a6.15 6.15 0 0 0 4.222-4.222z"/></g><defs><linearGradient id="b" x1="187.5" x2="187.5" y1="20" y2="346.473" gradientUnits="userSpaceOnUse"><stop stop-color="#fff" stop-opacity=".5"/><stop offset=".316" stop-color="#fedded"/><stop offset="1" stop-color="#fff" stop-opacity=".25"/></linearGradient><linearGradient id="c" x1="187.5" x2="187.5" y1="37.433" y2="283.08" gradientUnits="userSpaceOnUse"><stop stop-color="#fff"/><stop offset=".45" stop-color="#fdebd8"/><stop offset="1" stop-color="#fff" stop-opacity=".75"/></linearGradient><linearGradient id="d" x1="187.5" x2="187.5" y1="308.438" y2="376.585" gradientUnits="userSpaceOnUse"><stop stop-color="#fd865e"/><stop offset="1" stop-color="#fdc4e1"/></linearGradient><linearGradient id="e" x1="187.5" x2="187.5" y1="56.451" y2="338.549" gradientUnits="userSpaceOnUse"><stop stop-color="#f9a4cf"/><stop offset=".5" stop-color="#fda64f"/><stop offset="1" stop-color="#e9de63"/></linearGradient><radialGradient id="f" cx="0" cy="0" r="1" gradientTransform="rotate(135 63.36 128.927)scale(121.408)" gradientUnits="userSpaceOnUse"><stop stop-color="#fdebd8"/><stop offset="1" stop-color="#fff" stop-opacity=".25"/></radialGradient><radialGradient id="g" cx="0" cy="0" r="1" gradientTransform="rotate(135 73.99 132.441)scale(162.496)" gradientUnits="userSpaceOnUse"><stop stop-color="#fedded"/><stop offset="1" stop-color="#fff" stop-opacity="0"/></radialGradient><clipPath id="a"><path fill="#fff" d="M10 20h355v355H10z"/></clipPath></defs></svg>