<svg width="220" height="220" viewBox="0 0 220 220" fill="none" xmlns="http://www.w3.org/2000/svg">
<path d="M20 110C20 60.2944 60.2944 20 110 20C159.706 20 200 60.2944 200 110V192C200 196.418 196.418 200 192 200H28C23.5817 200 20 196.418 20 192V110Z" fill="#A13012"/>
<path d="M80 108C88.4631 108 95 114.63 95 123.094V129C81.5012 129.888 71 141.528 71 155.252V193H149V155.244C149 141.52 138.499 129.888 125 129V123.094C125 114.63 131.537 108 140 108V99H80V108Z" fill="url(#paint0_linear_2359_20889)"/>
<path d="M45.4947 119.912C48.5855 123.39 54.0188 123.39 57.1095 119.912L57.6382 119.317C58.7509 118.065 60.2385 117.207 61.8791 116.869L62.6585 116.708C67.2154 115.77 69.932 111.065 68.4659 106.65L68.2151 105.895C67.6873 104.305 67.6873 102.587 68.2151 100.997L68.4659 100.242C69.932 95.8269 67.2154 91.1216 62.6585 90.1836L61.8791 90.0231C60.2385 89.6854 58.7509 88.8266 57.6382 87.5746L57.1095 86.9799C54.0188 83.5025 48.5855 83.5025 45.4947 86.9799L44.9661 87.5746C43.8533 88.8266 42.3657 89.6854 40.7251 90.0231L39.9458 90.1836C35.3888 91.1216 32.6722 95.8269 34.1383 100.242L34.3891 100.997C34.9169 102.587 34.9169 104.305 34.3891 105.895L34.1383 106.65C32.6722 111.065 35.3888 115.77 39.9457 116.708L40.7251 116.869C42.3657 117.207 43.8533 118.065 44.9661 119.317L45.4947 119.912Z" fill="#E60023"/>
<path d="M51.5052 103.858C52.3008 104.753 53.6993 104.753 54.4949 103.858L55.3589 102.886C55.6453 102.563 56.0282 102.342 56.4505 102.255L57.7243 101.993C58.8973 101.752 59.5965 100.541 59.2191 99.404L58.8093 98.1698C58.6735 97.7606 58.6735 97.3184 58.8093 96.9092L59.2191 95.675C59.5965 94.5385 58.8973 93.3273 57.7243 93.0859L56.4505 92.8237C56.0282 92.7367 55.6453 92.5157 55.3589 92.1934L54.4949 91.2214C53.6993 90.3263 52.3008 90.3263 51.5052 91.2214L50.6412 92.1934C50.3548 92.5157 49.9719 92.7367 49.5496 92.8237L48.2758 93.0859C47.1028 93.3273 46.4036 94.5385 46.7809 95.675L47.1908 96.9092C47.3266 97.3184 47.3266 97.7606 47.1908 98.1698L46.7809 99.404C46.4036 100.541 47.1028 101.752 48.2758 101.993L49.5496 102.255C49.9719 102.342 50.3548 102.563 50.6412 102.886L51.5052 103.858Z" fill="#8F2459"/>
<path fill-rule="evenodd" clip-rule="evenodd" d="M149.617 63.8132C152.047 59.1602 157.966 57.6279 162.348 60.5178L183.174 74.2524C183.866 74.7085 184.796 74.5176 185.252 73.826C185.708 73.1344 185.517 72.204 184.826 71.748L164 58.0134C158.134 54.145 150.21 56.1961 146.958 62.4247L81.0444 188.658L83.7037 190.047L149.617 63.8132Z" fill="#9FC157"/>
<path d="M179.034 90.4229C182.125 93.9003 187.558 93.9003 190.649 90.4229L191.178 89.8281C192.29 88.5761 193.778 87.7173 195.419 87.3796L196.198 87.2192C200.755 86.2812 203.472 81.5758 202.005 77.1604L201.755 76.4053C201.227 74.8156 201.227 73.0979 201.755 71.5082L202.005 70.7531C203.472 66.3377 200.755 61.6323 196.198 60.6943L195.419 60.5339C193.778 60.1962 192.29 59.3373 191.178 58.0854L190.649 57.4906C187.558 54.0132 182.125 54.0132 179.034 57.4906L178.506 58.0854C177.393 59.3373 175.905 60.1962 174.265 60.5339L173.485 60.6943C168.928 61.6323 166.212 66.3377 167.678 70.7531L167.929 71.5082C168.456 73.0979 168.456 74.8156 167.929 76.4053L167.678 77.1604C166.212 81.5758 168.928 86.2812 173.485 87.2192L174.265 87.3796C175.905 87.7173 177.393 88.5761 178.506 89.8281L179.034 90.4229Z" fill="#5C3BA0"/>
<path d="M162.042 112.142C165.132 115.62 170.566 115.62 173.656 112.142L174.185 111.548C175.298 110.296 176.785 109.437 178.426 109.099L179.205 108.939C183.762 108.001 186.479 103.295 185.013 98.8799L184.762 98.1247C184.234 96.5351 184.234 94.8174 184.762 93.2277L185.013 92.4725C186.479 88.0571 183.762 83.3518 179.205 82.4138L178.426 82.2534C176.785 81.9157 175.298 81.0568 174.185 79.8049L173.656 79.2101C170.566 75.7327 165.132 75.7327 162.042 79.2101L161.513 79.8049C160.4 81.0568 158.913 81.9157 157.272 82.2534L156.493 82.4138C151.936 83.3518 149.219 88.0571 150.685 92.4725L150.936 93.2277C151.464 94.8174 151.464 96.5351 150.936 98.1247L150.685 98.8799C149.219 103.295 151.936 108.001 156.493 108.939L157.272 109.099C158.913 109.437 160.4 110.296 161.513 111.548L162.042 112.142Z" fill="#DD73DD"/>
<path d="M184.827 93.031C182.701 93.027 180.576 92.1577 179.034 90.4229L178.506 89.8282C177.393 88.5762 175.905 87.7174 174.265 87.3797L173.485 87.2192C168.928 86.2812 166.212 81.5759 167.678 77.1605L167.863 76.6021C169.989 76.606 172.114 77.4753 173.656 79.2101L174.185 79.8048C175.298 81.0568 176.785 81.9157 178.426 82.2534L179.205 82.4138C183.762 83.3518 186.479 88.0571 185.013 92.4725L184.827 93.031Z" fill="#6B246B"/>
<path d="M162.505 97.8576C163.301 98.7528 164.699 98.7528 165.495 97.8576L166.359 96.8856C166.645 96.5634 167.028 96.3423 167.451 96.2554L168.724 95.9932C169.897 95.7517 170.597 94.5405 170.219 93.404L169.809 92.1698C169.673 91.7606 169.673 91.3184 169.809 90.9092L170.219 89.675C170.597 88.5385 169.897 87.3273 168.724 87.0859L167.451 86.8237C167.028 86.7367 166.645 86.5157 166.359 86.1934L165.495 85.2214C164.699 84.3263 163.301 84.3263 162.505 85.2214L161.641 86.1934C161.355 86.5157 160.972 86.7367 160.55 86.8237L159.276 87.0859C158.103 87.3273 157.404 88.5385 157.781 89.675L158.191 90.9092C158.327 91.3184 158.327 91.7606 158.191 92.1698L157.781 93.404C157.404 94.5405 158.103 95.7517 159.276 95.9932L160.55 96.2554C160.972 96.3423 161.355 96.5634 161.641 96.8856L162.505 97.8576Z" fill="#E60023"/>
<path fill-rule="evenodd" clip-rule="evenodd" d="M78.8884 84.862C75.6789 79.2338 67.7112 78.8414 63.9643 84.1271L54.2238 97.8675C53.7447 98.5434 52.8085 98.7029 52.1326 98.2238C51.4568 97.7447 51.2973 96.8084 51.7764 96.1326L61.5169 82.3921C66.5326 75.3167 77.1982 75.8419 81.4945 83.3759L141.303 188.257L138.697 189.743L78.8884 84.862Z" fill="#9FC157"/>
<path fill-rule="evenodd" clip-rule="evenodd" d="M144.294 84.226C148.131 78.5741 156.651 79.2083 159.61 85.366L162.148 90.6495C162.507 91.3963 163.403 91.7108 164.15 91.352C164.896 90.9933 165.211 90.0971 164.852 89.3504L162.314 84.0668C158.354 75.8241 146.949 74.9752 141.812 82.5408L72.5 184.625L74.982 186.31L144.294 84.226Z" fill="#1B6523"/>
<path d="M99.8833 37.0345C102.974 40.5119 108.407 40.5119 111.498 37.0345L112.027 36.4397C113.139 35.1878 114.627 34.3289 116.268 33.9912L117.047 33.8308C121.604 32.8928 124.321 28.1874 122.854 23.772L122.604 23.0169C122.076 21.4272 122.076 19.7095 122.604 18.1198L122.854 17.3647C124.321 12.9493 121.604 8.24392 117.047 7.30593L116.268 7.1455C114.627 6.8078 113.139 5.94896 112.027 4.69699L111.498 4.10225C108.407 0.624836 102.974 0.624828 99.8833 4.10224L99.3546 4.69699C98.2419 5.94896 96.7543 6.8078 95.1137 7.1455L94.3343 7.30593C89.7774 8.24392 87.0608 12.9493 88.5269 17.3647L88.7776 18.1199C89.3055 19.7095 89.3055 21.4272 88.7776 23.0169L88.5269 23.772C87.0608 28.1874 89.7774 32.8928 94.3343 33.8308L95.1137 33.9912C96.7543 34.3289 98.2419 35.1878 99.3546 36.4397L99.8833 37.0345Z" fill="#5C3BA0"/>
<path d="M131.619 29.8128C131.237 29.0775 130.332 28.7907 129.597 29.1723C128.861 29.5539 128.575 30.4593 128.956 31.1947L135.391 43.5953C139.213 50.9594 139.863 59.5642 137.192 67.4191L111.995 141.511L89.237 85.2751C89.058 84.8326 88.8734 84.3932 88.6835 83.9567L79.9308 62.3386L61.2972 30.2468C60.8812 29.5304 59.9632 29.2868 59.2468 29.7028C58.5304 30.1188 58.2868 31.0368 58.7028 31.7532L77.2297 63.6614L79.6905 69.7391C73.4559 62.5947 65.4101 57.1019 56.2554 53.9279L49.4913 51.5827C48.7086 51.3113 47.8541 51.7258 47.5827 52.5086C47.3113 53.2913 47.7258 54.1458 48.5086 54.4172L55.2727 56.7623C69.018 61.528 80.119 71.8224 85.9175 85.119L110.513 145.868L95.1555 191.028L97.9958 191.994L112.236 150.121L128.609 190.563L131.39 189.437L113.717 145.766L140.032 68.385C142.967 59.756 142.252 50.3032 138.054 42.2134L131.619 29.8128Z" fill="#988C1B"/>
<path d="M90.404 99L109.956 133.287L127.86 99L131.244 99L111.723 136.385L141.303 188.257L138.697 189.743L110.072 139.547L83.7037 190.047L81.0444 188.658L108.306 136.449L86.9505 99L90.404 99Z" fill="#D7CB42"/>
<path d="M122.329 48.2573C125.42 51.7347 130.853 51.7347 133.944 48.2573L134.473 47.6626C135.585 46.4106 137.073 45.5518 138.714 45.2141L139.493 45.0536C144.05 44.1157 146.767 39.4103 145.3 34.9949L145.05 34.2397C144.522 32.6501 144.522 30.9324 145.05 29.3427L145.3 28.5875C146.767 24.1721 144.05 19.4668 139.493 18.5288L138.714 18.3684C137.073 18.0307 135.585 17.1718 134.473 15.9198L133.944 15.3251C130.853 11.8477 125.42 11.8477 122.329 15.3251L121.801 15.9198C120.688 17.1718 119.2 18.0307 117.56 18.3684L116.78 18.5288C112.223 19.4668 109.507 24.1721 110.973 28.5875L111.224 29.3427C111.751 30.9324 111.751 32.6501 111.224 34.2397L110.973 34.9949C109.507 39.4103 112.223 44.1157 116.78 45.0536L117.56 45.2141C119.2 45.5518 120.688 46.4106 121.801 47.6626L122.329 48.2573Z" fill="#E60023"/>
<path d="M123.24 14.4524C122.919 14.7138 122.614 15.0047 122.329 15.3251L121.801 15.9199C120.688 17.1719 119.2 18.0307 117.56 18.3684L116.78 18.5288C112.223 19.4668 109.507 24.1722 110.973 28.5876L111.224 29.3428C111.751 30.9324 111.751 32.6501 111.224 34.2398L110.973 34.9949C110.65 35.966 110.53 36.9511 110.587 37.9071C110.908 37.6457 111.213 37.3548 111.498 37.0344L112.027 36.4396C113.139 35.1876 114.627 34.3288 116.268 33.9911L117.047 33.8307C121.604 32.8927 124.32 28.1873 122.854 23.7719L122.604 23.0168C122.076 21.4271 122.076 19.7094 122.604 18.1197L122.854 17.3646C123.177 16.3935 123.297 15.4084 123.24 14.4524Z" fill="#6B246B"/>
<path d="M52.4012 46.5308C55.492 50.0082 60.9253 50.0082 64.016 46.5308L64.5447 45.936C65.6574 44.6841 67.145 43.8252 68.7856 43.4875L69.565 43.3271C74.1219 42.3891 76.8385 37.6837 75.3724 33.2683L75.1216 32.5132C74.5938 30.9235 74.5938 29.2058 75.1216 27.6161L75.3724 26.861C76.8385 22.4456 74.1219 17.7402 69.565 16.8022L68.7856 16.6418C67.145 16.3041 65.6574 15.4452 64.5447 14.1933L64.016 13.5985C60.9253 10.1211 55.492 10.1211 52.4012 13.5985L51.8726 14.1933C50.7598 15.4452 49.2722 16.3041 47.6316 16.6418L46.8522 16.8022C42.2953 17.7402 39.5787 22.4456 41.0448 26.861L41.2956 27.6161C41.8234 29.2058 41.8234 30.9235 41.2956 32.5132L41.0448 33.2683C39.5787 37.6837 42.2953 42.3891 46.8522 43.3271L47.6316 43.4875C49.2722 43.8252 50.7598 44.6841 51.8726 45.936L52.4012 46.5308Z" fill="#774FC4"/>
<path d="M42.0416 70.7034C45.1323 74.1808 50.5656 74.1808 53.6564 70.7034L54.185 70.1086C55.2978 68.8567 56.7854 67.9978 58.426 67.6601L59.2054 67.4997C63.7623 66.5617 66.4789 61.8563 65.0128 57.4409L64.762 56.6858C64.2342 55.0961 64.2342 53.3784 64.762 51.7887L65.0128 51.0336C66.4789 46.6182 63.7623 41.9128 59.2054 40.9748L58.426 40.8144C56.7854 40.4767 55.2978 39.6179 54.185 38.3659L53.6564 37.7711C50.5656 34.2937 45.1323 34.2937 42.0416 37.7711L41.5129 38.3659C40.4002 39.6179 38.9126 40.4767 37.272 40.8144L36.4926 40.9748C31.9357 41.9128 29.2191 46.6182 30.6852 51.0336L30.936 51.7888C31.4638 53.3784 31.4638 55.0961 30.936 56.6858L30.6852 57.4409C29.2191 61.8563 31.9357 66.5617 36.4926 67.4997L37.272 67.6601C38.9126 67.9978 40.4002 68.8567 41.5129 70.1086L42.0416 70.7034Z" fill="#ED96ED"/>
<path d="M64.0162 46.531C60.9254 50.0084 55.4921 50.0084 52.4013 46.531L51.8727 45.9362C50.7599 44.6842 49.2724 43.8254 47.6318 43.4877L46.8524 43.3273C44.2027 42.7819 42.1752 40.9627 41.2305 38.6675C41.3271 38.5698 41.4213 38.4693 41.513 38.3661L42.0416 37.7714C45.1324 34.294 50.5657 34.294 53.6565 37.7714L54.1851 38.3661C55.2979 39.6181 56.7854 40.4769 58.426 40.8146L59.2054 40.9751C61.8551 41.5205 63.8826 43.3396 64.8273 45.6348C64.7307 45.7326 64.6365 45.8331 64.5448 45.9362L64.0162 46.531Z" fill="#C856C8"/>
<path d="M112.2 69.1135C115.291 72.5909 120.724 72.5909 123.815 69.1135L124.343 68.5188C125.456 67.2668 126.944 66.408 128.584 66.0703L129.364 65.9099C133.92 64.9719 136.637 60.2665 135.171 55.8511L134.92 55.0959C134.392 53.5063 134.392 51.7886 134.92 50.1989L135.171 49.4437C136.637 45.0283 133.92 40.323 129.364 39.385L128.584 39.2246C126.944 38.8869 125.456 38.028 124.343 36.776L123.815 36.1813C120.724 32.7039 115.291 32.7039 112.2 36.1813L111.671 36.776C110.558 38.028 109.071 38.8869 107.43 39.2246L106.651 39.385C102.094 40.323 99.3773 45.0283 100.843 49.4437L101.094 50.1989C101.622 51.7886 101.622 53.5063 101.094 55.0959L100.843 55.8511C99.3773 60.2665 102.094 64.9719 106.651 65.9099L107.43 66.0703C109.071 66.408 110.558 67.2668 111.671 68.5188L112.2 69.1135Z" fill="#DD73DD"/>
<path d="M133.944 48.2575C130.853 51.7349 125.42 51.7349 122.329 48.2575L121.8 47.6627C120.688 46.4107 119.2 45.5519 117.559 45.2142L116.78 45.0538C113.184 44.3135 110.734 41.2268 110.581 37.7879C110.974 37.4879 111.339 37.1494 111.671 36.776L112.199 36.1813C115.29 32.7039 120.723 32.7039 123.814 36.1813L124.343 36.776C125.456 38.028 126.943 38.8869 128.584 39.2246L129.363 39.385C132.96 40.1252 135.41 43.212 135.562 46.6508C135.169 46.9509 134.804 47.2893 134.472 47.6627L133.944 48.2575Z" fill="#993399"/>
<path d="M109.505 58.8576C110.301 59.7528 111.699 59.7528 112.495 58.8576L113.359 57.8856C113.645 57.5634 114.028 57.3423 114.451 57.2554L115.724 56.9932C116.897 56.7517 117.597 55.5405 117.219 54.404L116.809 53.1698C116.673 52.7606 116.673 52.3184 116.809 51.9092L117.219 50.675C117.597 49.5385 116.897 48.3273 115.724 48.0859L114.451 47.8237C114.028 47.7367 113.645 47.5157 113.359 47.1934L112.495 46.2214C111.699 45.3263 110.301 45.3263 109.505 46.2214L108.641 47.1934C108.355 47.5157 107.972 47.7367 107.55 47.8237L106.276 48.0859C105.103 48.3273 104.404 49.5385 104.781 50.675L105.191 51.9092C105.327 52.3184 105.327 52.7606 105.191 53.1698L104.781 54.404C104.404 55.5405 105.103 56.7517 106.276 56.9932L107.55 57.2554C107.972 57.3423 108.355 57.5634 108.641 57.8856L109.505 58.8576Z" fill="#E60023"/>
<path d="M99.2391 26.6633C100.035 27.5584 101.433 27.5584 102.229 26.6633L103.093 25.6913C103.379 25.369 103.762 25.148 104.184 25.061L105.458 24.7988C106.631 24.5574 107.33 23.3462 106.953 22.2096L106.543 20.9754C106.407 20.5662 106.407 20.1241 106.543 19.7149L106.953 18.4807C107.33 17.3442 106.631 16.133 105.458 15.8915L104.184 15.6293C103.762 15.5424 103.379 15.3213 103.093 14.9991L102.229 14.027C101.433 13.1319 100.035 13.1319 99.2391 14.027L98.3751 14.9991C98.0887 15.3213 97.7058 15.5424 97.2835 15.6293L96.0097 15.8915C94.8367 16.133 94.1374 17.3442 94.5148 18.4807L94.9247 19.7149C95.0605 20.1241 95.0605 20.5662 94.9247 20.9754L94.5148 22.2096C94.1374 23.3462 94.8367 24.5574 96.0097 24.7988L97.2835 25.061C97.7058 25.148 98.0887 25.369 98.3751 25.6913L99.2391 26.6633Z" fill="#DA3C0B"/>
<path d="M129.621 99H126.452L111.995 141.511L94.7913 99H91.5549L110.517 145.856L95.1554 191.028L97.9957 191.994L112.239 150.111L128.609 190.563L131.39 189.437L113.717 145.766L129.621 99Z" fill="#66CC71"/>
<path d="M99.3837 99.0144H96.2919L105.514 136.001L72.5 184.625L74.982 186.31L106.488 139.907L119.446 191.874L122.357 191.148L108.75 136.576L118.108 122.793L137.94 178.203L140.765 177.192L120.195 119.72L134.253 99.0144H130.627L118.943 116.223L112.784 99.0144H109.597L116.856 119.296L107.776 132.67L99.3837 99.0144Z" fill="#75982A"/>
<path d="M71 193H149V193.094C149 196.908 145.908 200 142.094 200H77.9065C74.0921 200 71 196.908 71 193.094V193Z" fill="white" fill-opacity="0.65"/>
<path d="M71 193H149V157H71V193Z" fill="url(#paint1_linear_2359_20889)"/>
<path d="M100.982 19.9047C101.353 20.6457 101.052 21.5467 100.311 21.9172C89.8409 27.1523 84.4083 38.9544 87.2404 50.3128L99.3803 99.0001H96.2884L84.3295 51.0386C81.1574 38.3166 87.2422 25.0975 98.9696 19.2339C99.7105 18.8634 100.612 19.1637 100.982 19.9047Z" fill="#354517"/>
<path d="M96.9076 63.5595C93.8999 55.1563 102.439 47.2504 110.586 50.8952L111.113 51.1308C111.869 51.4691 112.208 52.3564 111.869 53.1126C111.531 53.8688 110.644 54.2076 109.888 53.8693L109.361 53.6337C103.626 51.068 97.6149 56.6332 99.7321 62.5486L112.779 99H109.592L96.9076 63.5595Z" fill="#354517"/>
<defs>
<linearGradient id="paint0_linear_2359_20889" x1="71.1511" y1="99" x2="71.1511" y2="199.289" gradientUnits="userSpaceOnUse">
<stop stop-color="white" stop-opacity="0.3"/>
<stop offset="1" stop-color="#BA8221"/>
</linearGradient>
<linearGradient id="paint1_linear_2359_20889" x1="110" y1="193" x2="110" y2="157" gradientUnits="userSpaceOnUse">
<stop stop-color="white" stop-opacity="0"/>
<stop offset="1" stop-color="white" stop-opacity="0.65"/>
</linearGradient>
</defs>
</svg>
