<svg xmlns="http://www.w3.org/2000/svg" width="220" height="220" fill="none" viewBox="0 0 220 220"><path fill="#c4cdf8" d="M20 110c0-49.706 40.294-90 90-90s90 40.294 90 90v82a8 8 0 0 1-8 8H28a8 8 0 0 1-8-8z"/><g clip-path="url(#a)"><path fill="url(#b)" fill-rule="evenodd" d="M110 200c45.84 0 83-37.16 83-83s-37.16-83-83-83-83 37.16-83 83 37.16 83 83 83m0-8.152c41.338 0 74.848-33.51 74.848-74.848S151.338 42.152 110 42.152 35.152 75.662 35.152 117s33.51 74.848 74.848 74.848" clip-rule="evenodd"/><path fill="url(#c)" fill-rule="evenodd" d="M110 191.848c41.338 0 74.848-33.51 74.848-74.848S151.338 42.152 110 42.152 35.152 75.662 35.152 117s33.51 74.848 74.848 74.848m0-8.893c36.426 0 65.955-29.529 65.955-65.955S146.426 51.045 110 51.045 44.045 80.574 44.045 117 73.574 182.955 110 182.955" clip-rule="evenodd"/><path fill="url(#d)" d="M56.643 194.071h106.714l-12.598-25.196H69.241z"/><path fill="#e60023" d="M56.643 194.071h106.714a5.93 5.93 0 0 1-5.928 5.929H62.572a5.93 5.93 0 0 1-5.93-5.929"/><path fill="url(#e)" d="M175.955 117c0 36.426-29.529 65.955-65.955 65.955S44.045 153.426 44.045 117 73.574 51.045 110 51.045 175.955 80.574 175.955 117"/><path fill="url(#f)" d="M150.854 103.206c4.012-2.013 5.369-7.078 2.901-10.827l-.422-.64a7.5 7.5 0 0 1-1.223-4.565l.046-.767c.264-4.481-3.442-8.188-7.923-7.924l-.766.045a7.5 7.5 0 0 1-4.563-1.223l-.641-.422c-3.749-2.47-8.812-1.112-10.824 2.901l-.344.687a7.5 7.5 0 0 1-3.341 3.342l-.686.344c-4.012 2.013-5.369 7.077-2.901 10.826l.422.641a7.5 7.5 0 0 1 1.223 4.565l-.045.766c-.264 4.482 3.442 8.189 7.922 7.925l.766-.045a7.5 7.5 0 0 1 4.564 1.222l.641.423c3.748 2.469 8.811 1.111 10.823-2.902l.344-.686a7.5 7.5 0 0 1 3.341-3.342z"/><path fill="#dd73dd" d="M150.737 168.875c-11.216 8.82-25.362 14.08-40.737 14.08s-29.52-5.26-40.737-14.08z"/><path fill="url(#g)" d="M149.277 92.545c0 6.548-5.309 11.857-11.857 11.857-6.549 0-11.858-5.309-11.858-11.857 0-6.549 5.309-11.858 11.858-11.858 6.548 0 11.857 5.31 11.857 11.858"/><path fill="url(#h)" d="M130.87 85.995a9.26 9.26 0 0 1 13.099 0 9.26 9.26 0 0 1 0 13.1l-57.062 57.062-13.1-13.1z" opacity=".75"/><path fill="#e2f0fd" d="M83.321 68.83a.741.741 0 1 0 0-1.482.741.741 0 0 0 0 1.482M114.446 75.5a.74.74 0 1 1-1.481.001.74.74 0 0 1 1.481-.001M102.589 79.946a1.482 1.482 0 1 0 0-2.963 1.482 1.482 0 0 0 0 2.963M70.723 102.179a.741.741 0 1 0 0-1.483.741.741 0 0 0 0 1.483M75.17 104.402a.741.741 0 1 0 0-1.482.741.741 0 0 0 0 1.482M158.17 139.973a.741.741 0 1 1-1.483 0 .741.741 0 0 1 1.483 0M145.571 151.83a.74.74 0 1 0 .002-1.48.74.74 0 0 0-.002 1.48M141.866 148.125a2.223 2.223 0 1 1-4.445 0 2.223 2.223 0 0 1 4.445 0M146.312 132.562a1.482 1.482 0 1 0 .002-2.964 1.482 1.482 0 0 0-.002 2.964M66.277 105.143a1.482 1.482 0 1 1-2.965 0 1.482 1.482 0 0 1 2.965 0"/><path fill="#fed872" d="M144.089 92.174a6.299 6.299 0 1 1-12.598 0 6.299 6.299 0 0 1 12.598 0"/><path fill="#fff" d="M141.866 91.433a3.335 3.335 0 1 1-6.67 0 3.335 3.335 0 0 1 6.67 0"/></g><defs><linearGradient id="b" x1="110" x2="110" y1="34" y2="186.661" gradientUnits="userSpaceOnUse"><stop stop-color="#fff" stop-opacity=".5"/><stop offset=".316" stop-color="#ebe2fd"/><stop offset="1" stop-color="#fff" stop-opacity=".25"/></linearGradient><linearGradient id="c" x1="110" x2="110" y1="42.152" y2="157.018" gradientUnits="userSpaceOnUse"><stop stop-color="#fff"/><stop offset=".45" stop-color="#e2e6fd"/><stop offset="1" stop-color="#fff" stop-opacity=".75"/></linearGradient><linearGradient id="d" x1="110" x2="110" y1="168.875" y2="194.071" gradientUnits="userSpaceOnUse"><stop stop-color="#c856c8"/><stop offset="1" stop-color="#774fc4"/></linearGradient><linearGradient id="e" x1="110" x2="110" y1="51.045" y2="182.955" gradientUnits="userSpaceOnUse"><stop stop-color="#5c3ba0"/><stop offset="1" stop-color="#526ae0"/></linearGradient><linearGradient id="g" x1="145.834" x2="128.622" y1="83.747" y2="100.959" gradientUnits="userSpaceOnUse"><stop stop-color="#d4c4f7"/><stop offset="1" stop-color="#fff" stop-opacity=".25"/></linearGradient><linearGradient id="h" x1="78.865" x2="142.641" y1="148.488" y2="84.713" gradientUnits="userSpaceOnUse"><stop stop-color="#fff" stop-opacity="0"/><stop offset="1" stop-color="#fde2fd"/></linearGradient><radialGradient id="f" cx="0" cy="0" r="1" gradientTransform="rotate(255 104.463 -5.895)scale(19.5213)" gradientUnits="userSpaceOnUse"><stop offset=".2" stop-color="#e2e6fd"/><stop offset="1" stop-color="#fff" stop-opacity="0"/></radialGradient><clipPath id="a"><path fill="#fff" d="M27 34h166v166H27z"/></clipPath></defs></svg>