<svg xmlns="http://www.w3.org/2000/svg" width="220" height="220" fill="none" viewBox="0 0 220 220"><g clip-path="url(#a)"><circle cx="110" cy="110" r="95" fill="#1e4a71"/><path fill="url(#b)" d="M154 57.663a4.105 4.105 0 0 1-2.978 3.947 6.16 6.16 0 0 0-4.465 5.92v2.8h-122.9A95 95 0 0 1 38.02 48H154z"/><path fill="url(#c)" d="M149.747 62.886A4.254 4.254 0 0 1 154 67.14v127.076C140.845 201.103 125.878 205 110 205c-52.467 0-95-42.533-95-95 0-17.145 4.542-33.228 12.488-47.114z"/><path fill="#fff" fill-opacity=".8" d="M148.672 62.886a6.16 6.16 0 0 0-2.114 4.644v2.8H23.656a95 95 0 0 1 3.832-7.444z"/><path fill="url(#d)" d="M92.33 33.114h-5.317a8.506 8.506 0 0 0-8.507 8.506 6.38 6.38 0 0 0 6.38 6.38H55.114a6.38 6.38 0 0 0 6.38-6.38c0-4.325-3.228-7.894-7.406-8.433a95 95 0 0 1 12.129-7.516h26.112z"/><circle cx="91.266" cy="111.797" r="41.468" fill="url(#e)"/><path fill="url(#f)" d="M108.279 168.151c18.561.001 34.272 12.197 39.562 29.011C136.246 202.203 123.45 205 110 205c-14.615 0-28.46-3.302-40.828-9.198 5.692-16.108 21.05-27.651 39.107-27.651"/><circle cx="112.532" cy="156.456" r="41.468" fill="url(#g)"/><path fill="url(#h)" d="M39.165 149.013c22.902 0 41.468 18.566 41.468 41.468a41.6 41.6 0 0 1-1.102 9.528c-24.115-8.161-43.887-25.741-54.938-48.362a41.4 41.4 0 0 1 14.572-2.634"/><path fill="url(#i)" d="M27.469 103.291c22.902 0 41.467 18.567 41.467 41.469 0 15.771-8.804 29.484-21.765 36.496C27.444 163.848 15 138.378 15 110q0-2.435.121-4.841a41.5 41.5 0 0 1 12.348-1.868"/><path fill="#e68800" d="M108.278 168.152c13.935 0 26.263 6.874 33.782 17.414-7.521 7.628-17.971 12.358-29.529 12.358-13.348 0-25.22-6.308-32.805-16.104.594 2.794.907 5.691.907 8.661 0 3.279-.382 6.469-1.102 9.528a94 94 0 0 1-10.36-4.207 41.5 41.5 0 0 1 9.579-15.291l-.001-.002q.166-.168.335-.333.101-.102.204-.203c7.477-7.313 17.706-11.821 28.99-11.821M39.165 149.013a41.3 41.3 0 0 1 27.194 10.162c-3.514 9.478-10.395 17.322-19.19 22.08a95.3 95.3 0 0 1-22.576-29.609 41.4 41.4 0 0 1 14.572-2.633M112.531 114.987c7.019 0 13.63 1.746 19.425 4.825-3.734 19.066-20.53 33.454-40.69 33.454a41.3 41.3 0 0 1-19.426-4.826c3.734-19.066 20.531-33.452 40.691-33.453M49.845 109.841c11.483 7.374 19.091 20.258 19.091 34.919q-.001.983-.047 1.955c-11.483-7.374-19.091-20.257-19.091-34.917q.001-.985.047-1.957"/><path fill="#9270d7" d="M85.95 146.886a5.316 5.316 0 1 1 0 10.633 5.316 5.316 0 0 1 0-10.633"/><path fill="#fa5f2e" d="M99.772 190.481a5.317 5.317 0 1 1 0 10.633 5.317 5.317 0 0 1 0-10.633M35.975 144.759a5.317 5.317 0 1 1-.001 10.634 5.317 5.317 0 0 1 0-10.634M95.519 79.899a5.316 5.316 0 1 1 0 10.632 5.316 5.316 0 0 1 0-10.632"/><path fill="#2aa788" d="M57.24 166.025a5.317 5.317 0 1 1 0 10.634 5.317 5.317 0 0 1 0-10.634"/><path fill="#bd5f00" d="M105.089 155.392a5.317 5.317 0 1 1-.002 10.634 5.317 5.317 0 0 1 .002-10.634M111.468 109.671a5.316 5.316 0 1 1 .002 10.632 5.316 5.316 0 0 1-.002-10.632"/><path fill="#776f0d" d="M57.24 166.025a5.31 5.31 0 0 1 4.364 2.28 41.7 41.7 0 0 1-6.892 7.714 5.317 5.317 0 0 1 2.528-9.994"/><path fill="#c82376" d="M99.772 190.481a5.317 5.317 0 0 1 5.121 6.74 41.2 41.2 0 0 1-10.106-3.275 5.32 5.32 0 0 1 4.985-3.465M39.165 149.013q1.02 0 2.028.048.096.494.098 1.015a5.316 5.316 0 1 1-10.629-.19 41.6 41.6 0 0 1 8.503-.873"/><path fill="#dd73dd" d="M84.886 222.38a5.316 5.316 0 1 1 0 10.632 5.316 5.316 0 0 1 0-10.632M30.658 114.987a5.317 5.317 0 1 1-.001 10.634 5.317 5.317 0 0 1 .001-10.634"/><path fill="#e60023" d="M132.734 137.316a5.318 5.318 0 0 1 0 10.633 5.316 5.316 0 1 1 0-10.633"/><path fill="#526ae0" d="M83.823 121.367a5.316 5.316 0 1 1 0 10.633 5.316 5.316 0 0 1 0-10.633"/><path fill="#5c3ba0" d="M122.101 175.595a5.317 5.317 0 1 1 0 10.634 5.317 5.317 0 0 1 0-10.634M87.807 123.164a5.316 5.316 0 0 1-7.643 7.374 41.7 41.7 0 0 1 7.643-7.374"/><path fill="#573905" d="M112.532 114.987q2.151.002 4.247.216a5.316 5.316 0 0 1-10.605.269 42 42 0 0 1 6.358-.485"/><path fill="#939" d="M85.95 146.886a5.316 5.316 0 0 1 5.209 6.379 41.5 41.5 0 0 1-10.517-1.375 5.316 5.316 0 0 1 5.307-5.004"/></g><defs><radialGradient id="e" cx="0" cy="0" r="1" gradientTransform="rotate(90 -10.266 101.531)scale(41.4684)" gradientUnits="userSpaceOnUse"><stop stop-color="#fdbf81"/><stop offset="1" stop-color="#fda64f"/></radialGradient><radialGradient id="f" cx="0" cy="0" r="1" gradientTransform="rotate(90 -50.67 158.95)scale(41.4684)" gradientUnits="userSpaceOnUse"><stop stop-color="#fdbf81"/><stop offset="1" stop-color="#fda64f"/></radialGradient><radialGradient id="g" cx="0" cy="0" r="1" gradientTransform="rotate(90 -21.962 134.494)scale(41.4684)" gradientUnits="userSpaceOnUse"><stop stop-color="#fdbf81"/><stop offset="1" stop-color="#fda64f"/></radialGradient><radialGradient id="h" cx="0" cy="0" r="1" gradientTransform="rotate(90 -75.658 114.823)scale(41.4684)" gradientUnits="userSpaceOnUse"><stop stop-color="#fdbf81"/><stop offset="1" stop-color="#fda64f"/></radialGradient><radialGradient id="i" cx="0" cy="0" r="1" gradientTransform="rotate(90 -58.645 86.114)scale(41.4684)" gradientUnits="userSpaceOnUse"><stop stop-color="#fdbf81"/><stop offset="1" stop-color="#fda64f"/></radialGradient><linearGradient id="b" x1="70" x2="70" y1="48" y2="68.203" gradientUnits="userSpaceOnUse"><stop stop-color="#fff" stop-opacity=".8"/><stop offset="1" stop-color="#fff" stop-opacity=".65"/></linearGradient><linearGradient id="c" x1="43.418" x2="43.418" y1="62.886" y2="263.848" gradientUnits="userSpaceOnUse"><stop stop-color="#fff" stop-opacity=".8"/><stop offset="1" stop-color="#fedded"/></linearGradient><linearGradient id="d" x1="70" x2="70" y1="25.671" y2="48" gradientUnits="userSpaceOnUse"><stop stop-color="#fff" stop-opacity=".8"/><stop offset="1" stop-color="#fff" stop-opacity=".65"/></linearGradient><clipPath id="a"><path fill="#fff" d="M0 0h220v220H0z"/></clipPath></defs></svg>