<svg width="375" height="250" viewBox="0 0 375 250" fill="none" xmlns="http://www.w3.org/2000/svg">
<g clip-path="url(#clip0_2583_241181)">
<rect width="375" height="250" fill="#1E4A71"/>
<path d="M261.123 25.6221L287.958 52.4568L275.76 64.6544C278.455 67.349 278.455 71.7178 275.76 74.4124L270.881 79.2915C268.187 81.9861 263.818 81.9861 261.123 79.2915L226.881 113.534L225.038 193.785C224.712 207.982 218.927 221.508 208.885 231.55L104.994 335.441C91.5209 348.914 69.6767 348.914 56.2036 335.441L-21.861 257.376C-35.3341 243.903 -35.3341 222.059 -21.861 208.586L81.8452 104.88C91.9971 94.728 105.705 88.9308 120.06 88.7183L199.199 87.5465L234.289 52.4568C231.594 49.7622 231.594 45.3933 234.289 42.6987L239.168 37.8197C241.862 35.125 246.231 35.125 248.926 37.8197L261.123 25.6221Z" fill="url(#paint0_linear_2583_241181)"/>
<path d="M57.459 238.87C9.90935 191.321 -8.32129 195.046 -8.32129 195.046L82.4343 104.29C82.4343 104.29 91.7214 92.8536 147.599 148.731L57.459 238.87Z" fill="#2086DF"/>
<path d="M276.98 12.2053L301.375 36.6005L272.101 60.9957L252.585 41.4795L276.98 12.2053Z" fill="#E60023"/>
<path d="M285.408 49.9064L272.101 60.9951L252.585 41.479L263.674 28.1725L285.408 49.9064Z" fill="#9BAAF3"/>
<path d="M195.428 187.671C207.498 185.292 219.003 193.795 220.273 206.031C221.564 218.477 211.711 229.263 199.199 229.101L104.272 227.865L-11.8304 259.342L-17.9795 205.152L103.56 205.773L195.428 187.671Z" fill="url(#paint1_linear_2583_241181)"/>
<path d="M100.537 212.525L104.217 209.506L108.803 213.506L77.3186 256.303L65.1906 241.516L94.2779 217.659L61.7734 195.016L73.4149 180.856L100.537 212.525Z" fill="#EF7BB5"/>
<path fill-rule="evenodd" clip-rule="evenodd" d="M101.987 232.417L100.672 202.161L108.49 201.821L109.805 232.077L101.987 232.417Z" fill="#EF7BB5"/>
<path d="M103.56 205.773L100.827 205.732L101.102 212.061L100.537 212.525L94.7158 205.728L77.0212 205.637L94.2777 217.658L70.7539 236.952L96.736 229.908L101.591 223.309L101.816 228.492L104.272 227.865L109.625 227.934L108.618 204.776L103.56 205.773Z" fill="#E60023"/>
<path fill-rule="evenodd" clip-rule="evenodd" d="M191.016 208.12C190.274 199.927 196.282 192.646 204.416 191.663L204.83 195.089C198.515 195.851 193.881 201.506 194.452 207.809L194.882 212.559C195.408 218.378 201.565 221.897 206.846 219.398C209.741 218.029 211.606 215.133 211.655 211.93L211.742 206.241C211.77 204.414 210.255 202.941 208.431 203.021C206.679 203.097 205.321 204.578 205.397 206.33L205.623 211.521L202.176 211.67L201.95 206.48C201.792 202.825 204.626 199.733 208.281 199.574C212.089 199.409 215.25 202.483 215.192 206.293L215.105 211.983C215.035 216.5 212.405 220.585 208.322 222.517C200.873 226.042 192.189 221.078 191.446 212.87L191.016 208.12Z" fill="#EF7BB5"/>
<path d="M9.55649 223.1C-3.18387 210.36 -8.20996 194.934 -8.20996 194.934L79.3789 107.346C79.3789 107.346 84.6117 122.337 97.4658 135.191L9.55649 223.1Z" fill="#223077"/>
</g>
<defs>
<linearGradient id="paint0_linear_2583_241181" x1="134.661" y1="13.4196" x2="134.661" y2="345.739" gradientUnits="userSpaceOnUse">
<stop stop-color="#E2F0FD"/>
<stop offset="1" stop-color="white" stop-opacity="0.3"/>
</linearGradient>
<linearGradient id="paint1_linear_2583_241181" x1="-13.6653" y1="230.721" x2="227.755" y2="211.289" gradientUnits="userSpaceOnUse">
<stop stop-color="#FDC4E1"/>
<stop offset="1" stop-color="#E2E6FD"/>
</linearGradient>
<clipPath id="clip0_2583_241181">
<rect width="375" height="250" fill="white"/>
</clipPath>
</defs>
</svg>
