<svg width="220" height="220" viewBox="0 0 220 220" fill="none" xmlns="http://www.w3.org/2000/svg">
<path d="M20 110C20 60.2944 60.2944 20 110 20C159.706 20 200 60.2944 200 110V192C200 196.418 196.418 200 192 200H28C23.5817 200 20 196.418 20 192V110Z" fill="#D5E5B5"/>
<path d="M71.931 193H148.069L134.123 150.844C156.303 141.443 171.862 119.47 171.862 93.8621C171.862 59.6966 144.165 32 110 32C75.8345 32 48.1379 59.6966 48.1379 93.8621C48.1379 119.47 63.697 141.443 85.8773 150.844L71.931 193Z" fill="url(#paint0_linear_2579_234700)"/>
<path d="M141.729 146.978C139.297 148.434 136.757 149.728 134.123 150.844L148.069 193H71.931L85.8772 150.844C74.1404 145.87 64.2576 137.374 57.553 126.684C58.5817 126.043 59.6363 125.425 60.6984 124.803C69.2438 119.796 78.2808 114.501 78.2808 94.6551V53.9347C78.2808 51.1084 81.6979 49.693 83.6964 51.6915L97.497 65.492C101.335 63.8438 105.563 62.931 110.005 62.931C114.447 62.931 118.675 63.8438 122.513 65.492L136.313 51.6915C138.312 49.693 141.729 51.1084 141.729 53.9347V146.978Z" fill="url(#paint1_linear_2579_234700)"/>
<path d="M138.552 58.0363C138.552 56.6232 136.843 55.9155 135.844 56.9147L127.341 65.4178C126.598 66.1605 126.769 67.4069 127.685 67.9219L136.188 72.7048C137.245 73.2996 138.552 72.5355 138.552 71.3223V58.0363Z" fill="url(#paint2_linear_2579_234700)"/>
<path d="M82.2414 58.0363C82.2414 56.6232 83.95 55.9155 84.9492 56.9147L93.4522 65.4178C94.1949 66.1605 94.0237 67.4069 93.1083 67.9219L84.6053 72.7048C83.5479 73.2996 82.2414 72.5355 82.2414 71.3223V58.0363Z" fill="url(#paint3_linear_2579_234700)"/>
<path d="M116.163 99.916C116.482 98.4581 115.373 97.0345 113.837 97.0345H106.163C104.627 97.0345 103.518 98.4581 103.837 99.916C106.275 100.683 108.101 102.262 108.644 104.172L108.671 104.172H111.329C111.338 104.172 111.347 104.172 111.356 104.172C111.899 102.262 113.725 100.683 116.163 99.916Z" fill="#FDC4E1"/>
<path d="M96.5172 95.4483C92.1371 95.4483 88.5862 91.8974 88.5862 87.5172C88.5862 83.137 92.1371 79.5862 96.5172 79.5862C100.897 79.5862 104.448 83.137 104.448 87.5172C104.448 91.8974 100.897 95.4483 96.5172 95.4483Z" fill="#79D8EC"/>
<path d="M123.483 95.4483C119.103 95.4483 115.552 91.8974 115.552 87.5172C115.552 83.137 119.103 79.5862 123.483 79.5862C127.863 79.5862 131.414 83.137 131.414 87.5172C131.414 91.8974 127.863 95.4483 123.483 95.4483Z" fill="#79D8EC"/>
<path d="M94.931 87.5172C94.931 89.7073 96.5289 91.4827 98.5 91.4827C100.471 91.4827 102.069 89.7073 102.069 87.5172C102.069 85.3271 100.471 83.5517 98.5 83.5517C96.5289 83.5517 94.931 85.3271 94.931 87.5172Z" fill="#13434E"/>
<path d="M117.931 87.5172C117.931 89.7073 119.529 91.4827 121.5 91.4827C123.471 91.4827 125.069 89.7073 125.069 87.5172C125.069 85.3271 123.471 83.5517 121.5 83.5517C119.529 83.5517 117.931 85.3271 117.931 87.5172Z" fill="#13434E"/>
<path d="M65.9728 93.3938L89.0706 101.793L65.9728 110.192L66.7859 112.428L96.0329 101.793L66.7859 91.1578L65.9728 93.3938Z" fill="#2086DF"/>
<path d="M154.027 93.3938L130.929 101.793L154.027 110.192L153.214 112.428L123.967 101.793L153.214 91.1578L154.027 93.3938Z" fill="#2086DF"/>
<path d="M141.729 105.72V108.252L123.967 101.793L141.729 95.3341V97.8658L130.929 101.793L141.729 105.72Z" fill="#BDEEF6"/>
<path d="M78.1983 97.8394C78.2415 97.0323 78.268 96.1984 78.2772 95.3364L96.0329 101.793L76.0684 109.053C76.4018 108.156 76.7027 107.205 76.9675 106.194L89.0706 101.793L78.1983 97.8394Z" fill="#BDEEF6"/>
<defs>
<linearGradient id="paint0_linear_2579_234700" x1="110" y1="21.6897" x2="110" y2="196.938" gradientUnits="userSpaceOnUse">
<stop stop-color="#1A5866"/>
<stop offset="1" stop-color="#1BA1BB"/>
</linearGradient>
<linearGradient id="paint1_linear_2579_234700" x1="141.724" y1="54.9999" x2="141.724" y2="184.672" gradientUnits="userSpaceOnUse">
<stop stop-color="#FDA64F"/>
<stop offset="0.1" stop-color="#FDD9B4"/>
<stop offset="0.3" stop-color="white"/>
</linearGradient>
<linearGradient id="paint2_linear_2579_234700" x1="137.362" y1="56.5862" x2="131.414" y2="70.0689" gradientUnits="userSpaceOnUse">
<stop offset="0.25" stop-color="#E60023"/>
<stop offset="1" stop-color="white" stop-opacity="0"/>
</linearGradient>
<linearGradient id="paint3_linear_2579_234700" x1="83.431" y1="56.5862" x2="89.3793" y2="70.0689" gradientUnits="userSpaceOnUse">
<stop offset="0.25" stop-color="#E60023"/>
<stop offset="1" stop-color="white" stop-opacity="0"/>
</linearGradient>
</defs>
</svg>
