<svg xmlns="http://www.w3.org/2000/svg" width="375" height="250" fill="none" viewBox="0 0 375 250"><g clip-path="url(#a)"><path fill="#bfe4ea" d="M0 0h375v250H0z"/><path fill="url(#b)" d="M209.58 20.875a48.7 48.7 0 0 1 23.081 13.898 48.7 48.7 0 0 1 8.533 12.72l2.763 5.98 5.383-3.795a48.72 48.72 0 0 1 40.688-7.247c25.989 6.964 41.413 33.679 34.45 59.667l-1.034 3.858c-2.238 8.353-6.774 15.881-12.792 22.63q-.538.603-1.093 1.196c-3.464 3.724-7.375 7.206-11.595 10.452q-1.233.946-2.499 1.866a126 126 0 0 1-3.346 2.354 143 143 0 0 1-7.298 4.643c-7.361 4.39-15.134 8.221-22.766 11.52l-.489.208a259 259 0 0 1-9.304 3.783l-.854.324q-1.961.747-3.879 1.446-.461.165-.919.329a295 295 0 0 1-11.492 3.875l-.869.274-.501.155c-10.547 3.271-18.632 5.167-21.644 5.836q-.449.1-.745.161l-.533.116h-.001c-.03-.026-3.64-3.23-9.126-8.752q-.591-.594-1.209-1.224c-6.594-6.713-15.499-16.397-24.138-27.753q-.81-1.065-1.616-2.149a224 224 0 0 1-6.735-9.563c-8.05-12.112-15.024-25.427-18.472-38.711a77.326 77.326 0 0 1-1.367-6.324c-.648-3.788-.975-7.557-.926-11.279q.017-1.24.09-2.473c.196-3.287.7-6.533 1.553-9.715l1.033-3.856a48.8 48.8 0 0 1 4.795-11.642q.157-.276.318-.55a34 34 0 0 1 .526-.868 18 18 0 0 0 8.863 5.488c9.641 2.583 19.55-3.139 22.134-12.78.46-1.716.654-3.441.613-5.132a12 12 0 0 0 3.466 1.549c6.427 1.722 13.033-2.093 14.756-8.52a12 12 0 0 0 .407-2.85q.324.06.646.122l.032.007q.492.098.984.207l.094.02q.453.102.906.212l.207.05q.46.114.92.237z"/><path fill="url(#c)" d="m324.445 102.09-1.034 3.857c-13.642 50.915-112.619 71.169-112.619 71.169l33.132-123.65 5.384-3.797a48.72 48.72 0 0 1 40.688-7.246c25.989 6.964 41.412 33.678 34.449 59.667"/><path fill="url(#d)" d="M243.818 7.442c3.491.245 7.074 2.078 9.475 5.06 2.865 3.46 4.012 8.515 2.813 13.044q-.18.713-.37 1.423c-3.313 12.366-9.036 24.088-12.786 36.338 19.17 4.428 38.508-4.325 48.162-20.572l.115.034a47 47 0 0 1 1.362.424 45.7 45.7 0 0 1-6.045 8.128c2.312 1.638 5.958 1.759 10.344.297 2.145-.715 4.421-1.798 6.726-3.215q.7.445 1.381.912c-2.594 1.655-5.181 2.916-7.631 3.733-4.637 1.545-8.987 1.557-11.873-.631-8.77 8.8-20.925 13.844-33.673 13.527a139 139 0 0 1 38.534 19.764c9.369-8.735 21.916-12.121 33.75-10.162q.237.797.448 1.604c-11.503-2.121-23.788 1.035-32.965 9.468a138.2 138.2 0 0 1 28.36 28.495q-.375.751-.775 1.492a136.7 136.7 0 0 0-28.69-28.933l-.087.086-.577-.577a137.6 137.6 0 0 0-47.31-22.394q-.193.664-.377 1.33a16925 16925 0 0 0-8.856 32.059c15.438 4.397 29.566 13.462 41.1 26.823 4.962-2.338 11.374-.738 17.715 3.448 3.3 2.179 6.633 5.091 9.817 8.605q-.574.486-1.157.966c-3.094-3.408-6.319-6.219-9.491-8.313-6.015-3.972-11.655-5.264-15.869-3.509 5.012 5.997 9.513 12.826 13.393 20.454q-.635.407-1.277.809c-12.778-25.199-32.358-41.483-54.63-47.831q-2.15 7.807-4.297 15.615l-4.082 14.884c16.228 4.725 28.067 17.421 32.383 32.657q-.705.286-1.407.567c-4.139-14.814-15.618-27.175-31.374-31.771l-10.851 39.568-1.591 5.796-.83.181-.629-.572 1.522-5.815 4.659-17.806c-4.594-.758-9.821 1.952-14.703 7.458a44 44 0 0 0-3.436 4.44l-1.065-1.115a45 45 0 0 1 3.374-4.325c5.038-5.681 10.814-8.886 16.211-7.918l9.8-37.458q1.961-7.514 3.919-15.028c-22.462-5.638-47.56-1.326-71.225 14.108q-.184-.344-.366-.688-.17-.325-.337-.651c23.942-15.573 49.422-19.975 72.308-14.227 2.796-10.728 5.588-21.457 8.362-32.191q.164-.636.32-1.274c-18.939-4.413-38.835-4.833-58.333-.897l.118.032c-4.161 15.53-15.805 27.056-30.012 31.745a98 98 0 0 1-.467-1.432c13.532-4.468 24.657-15.35 28.834-30.029a137.1 137.1 0 0 0-32.381 11.322 50 50 0 0 1-.039-.946q-.01-.354-.014-.707c27.205-13.354 56.926-17.019 84.997-12.11-15.444-7.766-25.184-23.646-25.263-40.786l.402.086.193.043q.434.096.866.201l.049.011c.237 18.897 12.607 36.145 31.422 41.895 2.877-12.483 3.784-25.495 7.097-37.86q.19-.711.392-1.418c.608-2.057.542-4.325-.397-6.533-.797-1.865-2.227-3.638-4.354-4.874z"/><path fill="url(#e)" d="M112.148 152.168a6.025 6.025 0 0 1 6.815 5.113l4.518 31.626a6.025 6.025 0 0 1-6.654 6.836l3.394 10.182a6.025 6.025 0 0 1-11.43 3.811l-12.314-36.943a6.03 6.03 0 0 0-5.716-4.119h-.704a6.025 6.025 0 0 0-5.715 4.119l-12.314 36.943a6.024 6.024 0 0 1-11.43-3.811l12.315-36.942a18.07 18.07 0 0 1 17.144-12.358h.704a18.075 18.075 0 0 1 17.146 12.358l.975 2.926-1.846-12.925a6.026 6.026 0 0 1 5.112-6.816"/><path fill="#526ae0" d="M180.771 120.482q.866 0 1.715.069c.747.061 1.298.702 1.298 1.451v8.914c0 1.039-1.04 1.77-2.073 1.663a9.037 9.037 0 1 0 8.047 8.047c-.107-1.033.623-2.072 1.663-2.072h8.913c.749 0 1.391.551 1.452 1.298q.07.848.07 1.714l-.007.545c-.289 11.393-9.616 20.54-21.078 20.54 0 4.625-1.765 9.249-5.294 12.778-5.795 5.795-14.545 6.831-21.397 3.11a21.182 21.182 0 0 1 .605 11.202l7.387-1.715c9.47-2.2 18.984 3.486 21.531 12.869l6.214 22.894 4.539 16.115a3.013 3.013 0 0 0 3.358 2.161l.904-.14a5.426 5.426 0 0 1 6.25 5.363 2.713 2.713 0 0 1-2.713 2.712h-13a6.025 6.025 0 0 1-5.914-4.446l-11.265-41.503a6.026 6.026 0 0 0-7.178-4.29l-15.073 3.501 7.23 36.8a2.49 2.49 0 0 0 2.887 1.969c3.056-.556 5.868 1.792 5.869 4.897v.411A2.66 2.66 0 0 1 163.05 250h-11.211a6.025 6.025 0 0 1-5.911-4.86l-7.726-39.219a21.17 21.17 0 0 1-11.478-.918l6.887 35.059a2.49 2.49 0 0 0 2.888 1.969c3.055-.556 5.869 1.792 5.869 4.897v.411a2.66 2.66 0 0 1-2.661 2.661h-11.211a6.025 6.025 0 0 1-5.911-4.86l-8.655-43.94a.753.753 0 0 1 .739-.899h4.662a21.02 21.02 0 0 1-6.331-15.06c0-11.644 9.44-21.084 21.084-21.084 3.098 0 6.041.668 8.691 1.868-2.427-6.438-1.05-13.985 4.132-19.166a18.02 18.02 0 0 1 12.78-5.293l.007-.544c.289-11.393 9.615-20.54 21.077-20.54M72.81 201.492c.593-.394 1.351.177 1.135.855l-13.827 43.455a6.02 6.02 0 0 1-5.74 4.198h-8.93a2.48 2.48 0 0 1-2.478-2.478v-.373a4.53 4.53 0 0 1 3.887-4.482 2.26 2.26 0 0 0 1.827-1.524l10.1-30.3zm38.404 0c.592-.394 1.351.177 1.135.855l-13.826 43.455A6.025 6.025 0 0 1 92.78 250h-8.93a2.48 2.48 0 0 1-2.478-2.478v-.373a4.53 4.53 0 0 1 3.887-4.482 2.26 2.26 0 0 0 1.827-1.524l10.1-30.3z"/><path fill="url(#f)" d="M46.457 203.409c6.375-15.141 22.16-24.078 38.424-21.755l16.268 2.324c11.121 1.589 19.381 11.113 19.381 22.347s-8.26 20.759-19.381 22.347l-16.269 2.324c-16.263 2.324-32.048-6.613-38.423-21.755l-.736-1.747a3 3 0 0 1 0-2.337z"/><path fill="url(#g)" d="M124.245 123.067c-.187-7.105 2.637-14.412 7.755-19.796q.424-.45.87-.882a2.7 2.7 0 0 1 2.122-.802c.796.058 1.567.468 2.125 1.114s.85 1.469.791 2.265a2.7 2.7 0 0 1-1.103 1.982 25 25 0 0 0-.784.606c-4.653 3.717-7.922 9.392-8.617 15.649q-.06.519-.097 1.044a1.52 1.52 0 0 1-.488.996 1.5 1.5 0 0 1-1.018.411c-.374 0-.735-.147-1.018-.411a1.53 1.53 0 0 1-.488-.996 27 27 0 0 1-.05-1.18"/><path fill="url(#h)" d="M122.036 125.753c.025.732.079 1.452.16 2.178 1.276 13.226 13.034 23.891 25.628 24.172.691.028 1.374.03 2.065.005.003 0 .006-.502.009-.753l.006-.817.001-.689-.001-.688-.006-.818c-.003-.251-.005-.753-.008-.753a22 22 0 0 1-1.704-.141c-10.337-1.091-18.537-10.386-18.633-20.09a21 21 0 0 1 .013-1.606 3.53 3.53 0 0 0-1.028-2.662c-.705-.706-1.698-1.103-2.737-1.103s-2.031.397-2.737 1.103a3.53 3.53 0 0 0-1.028 2.662"/><path fill="url(#i)" d="M199.27 198.092c7.105.187 14.412-2.637 19.796-7.755q.45-.425.882-.869a2.71 2.71 0 0 0 .802-2.122c-.058-.796-.467-1.568-1.113-2.126s-1.47-.85-2.265-.791a2.71 2.71 0 0 0-1.983 1.103q-.294.398-.606.784c-3.717 4.653-9.392 7.922-15.648 8.617q-.52.06-1.045.097a1.53 1.53 0 0 0-.995.488 1.5 1.5 0 0 0-.412 1.018c0 .374.148.735.412 1.018.264.282.622.463.995.488q.59.038 1.18.05"/><path fill="url(#j)" d="M196.584 200.301a28 28 0 0 1-2.178-.16c-13.226-1.276-23.89-13.034-24.171-25.628a26 26 0 0 1-.006-2.064c0-.003.502-.006.753-.009.203-.002.539-.005.818-.006.286-.002.491-.002.688-.002s.402 0 .688.002c.279.001.615.004.818.006.251.002.753.005.753.007.025.574.072 1.138.141 1.705 1.091 10.336 10.387 18.536 20.09 18.632.538.017 1.069.012 1.606-.013a3.53 3.53 0 0 1 2.662 1.028c.706.705 1.103 1.698 1.103 2.737s-.397 2.032-1.103 2.737a3.53 3.53 0 0 1-2.662 1.028"/><path fill="#1c2554" d="M176.253 161.145a7.53 7.53 0 1 1 0 15.06 7.53 7.53 0 0 1 0-15.06m-22.59-22.591a7.53 7.53 0 1 1 0 15.06 7.53 7.53 0 0 1 0-15.06"/><path fill="#13434e" d="M180.77 120.482q.977 0 1.931.088c.747.068 1.291.716 1.282 1.466l-.107 8.912c-.013 1.036-1.056 1.754-2.086 1.638a9 9 0 0 0-1.02-.056 9.02 9.02 0 0 0-7.032 3.364q-.305-.416-.609-.834a215 215 0 0 1-6.363-9.254 21 21 0 0 1 14.004-5.324"/></g><defs><linearGradient id="b" x1="157.649" x2="222.609" y1="26.449" y2="138.963" gradientUnits="userSpaceOnUse"><stop stop-color="#e68800"/><stop offset="1" stop-color="#d7cb42"/></linearGradient><linearGradient id="e" x1="94.927" x2="117.518" y1="164.91" y2="221.385" gradientUnits="userSpaceOnUse"><stop stop-color="#526ae0"/><stop offset="1" stop-color="#2a3fa7"/></linearGradient><linearGradient id="f" x1="113" x2="45.229" y1="209.337" y2="209.337" gradientUnits="userSpaceOnUse"><stop stop-color="#526ae0"/><stop offset="1" stop-color="#9baaf3"/></linearGradient><linearGradient id="g" x1="123.542" x2="136.343" y1="128.765" y2="103.163" gradientUnits="userSpaceOnUse"><stop stop-color="#768aea"/><stop offset="1" stop-color="#e60023"/></linearGradient><linearGradient id="h" x1="145.38" x2="125.801" y1="150.602" y2="125.753" gradientUnits="userSpaceOnUse"><stop stop-color="#526ae0"/><stop offset="1" stop-color="#768aea"/></linearGradient><linearGradient id="i" x1="193.572" x2="219.175" y1="198.795" y2="185.994" gradientUnits="userSpaceOnUse"><stop stop-color="#768aea"/><stop offset="1" stop-color="#e60023"/></linearGradient><linearGradient id="j" x1="171.735" x2="196.584" y1="176.958" y2="196.536" gradientUnits="userSpaceOnUse"><stop stop-color="#526ae0"/><stop offset="1" stop-color="#768aea"/></linearGradient><radialGradient id="c" cx="0" cy="0" r="1" gradientTransform="rotate(45 51.576 321.989)scale(97.3844)" gradientUnits="userSpaceOnUse"><stop stop-color="#e68800"/><stop offset="1" stop-color="#d7cb42"/></radialGradient><radialGradient id="d" cx="0" cy="0" r="1" gradientTransform="rotate(105 95.814 124.667)scale(146.838 343.038)" gradientUnits="userSpaceOnUse"><stop stop-color="#bd5f00"/><stop offset="1" stop-color="#d7cb42"/></radialGradient><clipPath id="a"><path fill="#fff" d="M0 0h375v250H0z"/></clipPath></defs></svg>