<svg width="375" height="375" viewBox="0 0 375 375" fill="none" xmlns="http://www.w3.org/2000/svg">
<g clip-path="url(#clip0_2583_241149)">
<rect width="375" height="375" fill="#186250"/>
<path d="M292.177 427H-27.8232V27H292.177V427Z" fill="url(#paint0_linear_2583_241149)"/>
<path fill-rule="evenodd" clip-rule="evenodd" d="M188.177 173C188.177 210.555 157.732 241 120.177 241C82.6214 241 52.1768 210.555 52.1768 173C52.1768 135.445 82.6214 105 120.177 105V97C78.2031 97 44.1768 131.026 44.1768 173C44.1768 214.974 78.2031 249 120.177 249C162.15 249 196.177 214.974 196.177 173H188.177Z" fill="#9BAAF3"/>
<path fill-rule="evenodd" clip-rule="evenodd" d="M160.185 381.084C122.339 402.935 73.9442 389.968 52.0933 352.121C30.2425 314.274 43.2098 265.88 81.0565 244.029C118.903 222.178 167.298 235.145 189.148 272.992L196.077 268.992C172.017 227.319 118.73 213.041 77.0565 237.101C35.3834 261.161 21.1052 314.448 45.1651 356.121C69.2251 397.794 122.512 412.072 164.185 388.012L160.185 381.084Z" fill="#5CD6B7"/>
<path fill-rule="evenodd" clip-rule="evenodd" d="M75.8205 166.924C103.674 166.924 126.253 189.503 126.253 217.357C126.253 245.21 103.674 267.789 75.8205 267.789C47.9672 267.789 25.3877 245.21 25.3877 217.357H17.3877C17.3877 249.628 43.5489 275.789 75.8205 275.789C108.092 275.789 134.253 249.628 134.253 217.357C134.253 185.085 108.092 158.924 75.8205 158.924V166.924Z" fill="#59AAF3"/>
<path d="M154.282 240.936C157.128 239.505 159.871 237.9 162.498 236.136C159.714 234.614 156.855 233.248 153.934 232.042C150.661 233.918 147.217 235.529 143.632 236.847C147.27 237.951 150.83 239.317 154.282 240.936Z" fill="#1F6BAD"/>
<path d="M78.2705 236.412C80.9058 238.157 83.6562 239.742 86.5079 241.154C89.9779 239.491 93.5184 238.104 97.1028 236.985C93.5157 235.691 90.0686 234.104 86.7905 232.253C83.9087 233.472 81.0647 234.857 78.2705 236.412Z" fill="#1F6BAD"/>
<path d="M115.221 248.841C116.859 248.946 118.512 249 120.177 249C121.814 249 123.439 248.948 125.051 248.846C126.773 246.159 128.281 243.322 129.551 240.359C126.552 240.772 123.49 240.99 120.379 240.999C118.902 243.778 117.172 246.402 115.221 248.841Z" fill="#774FC4"/>
<path d="M131.784 234.215C132.548 231.675 133.144 229.062 133.559 226.39C130.92 225.992 128.261 225.714 125.589 225.559C125.145 228.276 124.483 230.921 123.623 233.474C126.359 233.58 129.083 233.828 131.784 234.215Z" fill="#1A5866"/>
<path d="M45.9678 267.599C48.2584 268.963 50.6502 270.174 53.1293 271.22C54.5496 268.896 56.0944 266.639 57.7608 264.459C55.203 263.478 52.7455 262.295 50.4079 260.928C48.8208 263.089 47.3401 265.315 45.9678 267.599Z" fill="#1A5866"/>
<path d="M309.892 28.0186L332.756 50.4072L226.41 159.01L203.546 136.621L309.892 28.0186Z" fill="#9BAAF3"/>
<path d="M187.694 170.278C186.078 173.708 189.697 177.252 193.093 175.565L226.409 159.01L203.546 136.621L187.694 170.278Z" fill="#FDD9B4"/>
<path d="M193.093 175.565C189.697 177.252 186.078 173.708 187.694 170.278L194.147 156.576C196.515 158.135 198.816 159.982 200.985 162.105C203.153 164.229 205.048 166.491 206.656 168.825L193.093 175.565Z" fill="#768AEA"/>
<path d="M315.489 22.3025C320.126 17.5673 327.723 17.4875 332.458 22.1244L338.174 27.7215C342.91 32.3584 342.989 39.9559 338.352 44.6912L332.755 50.4071L309.892 28.0184L315.489 22.3025Z" fill="#E60023"/>
<path d="M332.756 50.4072L309.892 28.0186L304.295 33.7345L327.159 56.1231L332.756 50.4072Z" fill="#E2E6FD"/>
<path d="M-42.5553 85.3203L-70.2681 101.32L5.73193 232.956L33.4447 216.956L-42.5553 85.3203Z" fill="#59AAF3"/>
<path d="M40.4293 253.498C41.1412 257.222 36.755 259.755 33.8856 257.276L5.73193 232.957L33.4447 216.957L40.4293 253.498Z" fill="#FDD9B4"/>
<path d="M33.8854 257.276C36.7548 259.755 41.1409 257.222 40.4291 253.498L37.5856 238.622C34.9048 239.543 32.2165 240.759 29.588 242.277C26.9596 243.794 24.5618 245.514 22.4238 247.375L33.8854 257.276Z" fill="#1F6BAD"/>
<path d="M319.663 352.986L335.94 325.435L205.072 248.12L188.795 275.671L319.663 352.986Z" fill="#5CD6B7"/>
<path d="M164.76 247.275C162.31 244.381 164.886 240.021 168.603 240.77L205.073 248.12L188.796 275.671L164.76 247.275Z" fill="#FDD9B4"/>
<path d="M168.603 240.77C164.886 240.021 162.31 244.381 164.76 247.275L174.545 258.835C176.427 256.716 178.171 254.336 179.715 251.723C181.259 249.109 182.502 246.433 183.45 243.762L168.603 240.77Z" fill="#207E67"/>
<path d="M326.551 357.055C332.257 360.426 339.616 358.534 342.987 352.828L347.056 345.94C350.427 340.234 348.534 332.875 342.828 329.504L335.94 325.435L319.663 352.986L326.551 357.055Z" fill="#E60023"/>
<rect x="335.94" y="325.435" width="32" height="8" transform="rotate(120.574 335.94 325.435)" fill="#E2FDF6"/>
</g>
<defs>
<linearGradient id="paint0_linear_2583_241149" x1="132.177" y1="427" x2="132.177" y2="27" gradientUnits="userSpaceOnUse">
<stop stop-color="#E2FDF6"/>
<stop offset="1" stop-color="white"/>
</linearGradient>
<clipPath id="clip0_2583_241149">
<rect width="375" height="375" fill="white"/>
</clipPath>
</defs>
</svg>
