<svg width="375" height="375" viewBox="0 0 375 375" fill="none" xmlns="http://www.w3.org/2000/svg">
<g clip-path="url(#clip0_2583_240073)">
<rect width="375" height="375" fill="#EFCDF4"/>
<path fill-rule="evenodd" clip-rule="evenodd" d="M68.9998 25.4603L321.938 70.5385L321.061 75.4609L68.9998 30.5391L-183.062 75.4609L-183.939 70.5385L68.9998 25.4603Z" fill="#ED96ED"/>
<rect x="-191" y="68" width="520" height="365" fill="url(#paint0_radial_2583_240073)"/>
<path d="M-191 68V433L-171 413V88L-191 68Z" fill="url(#paint1_linear_2583_240073)"/>
<path d="M329 68V433L309 413V88L329 68Z" fill="url(#paint2_linear_2583_240073)"/>
<path d="M-191 68L329 68L309 88L-171 88L-191 68Z" fill="#FA5F2E"/>
<path d="M106.177 120.5L207.599 147.676L180.423 249.098L79.0006 221.922L106.177 120.5Z" fill="#FFE286"/>
<path d="M-41 135.5H64V182.792C64 202.7 68.2622 222.377 76.5 240.5H-28.5C-36.7378 222.377 -41 202.7 -41 182.792V135.5Z" fill="#E9DE63"/>
<path d="M141.5 225.5H246.5V272.792C246.5 292.7 250.762 312.377 259 330.5H154C145.762 312.377 141.5 292.7 141.5 272.792V225.5Z" fill="#DD73DD"/>
<path d="M338.768 133.672L317.062 256.773L214.001 238.601L235.707 115.5L338.768 133.672Z" fill="url(#paint3_linear_2583_240073)"/>
<rect width="90" height="90" transform="translate(241.791 124.188) rotate(10)" fill="#FCA58D"/>
<path d="M306.391 204.121C306.962 200.888 306.698 197.54 305.616 194.27C304.535 190.999 302.656 187.869 300.087 185.059C297.518 182.249 294.309 179.813 290.644 177.891C286.979 175.969 282.929 174.598 278.726 173.857C274.523 173.116 270.249 173.019 266.148 173.572C262.046 174.124 258.198 175.316 254.823 177.078C251.448 178.84 248.612 181.138 246.477 183.842C244.341 186.545 242.949 189.601 242.379 192.834L306.391 204.121Z" fill="#804000"/>
<path d="M242.379 192.833L306.391 204.121L297.126 227.873L242.962 218.322L242.379 192.833Z" fill="#FA5F2E"/>
<path d="M269.126 148.659C265.868 147.02 261.898 148.14 259.976 151.239C259.537 151.948 259.31 152.71 259.266 153.466C259.216 154.355 258.543 155.259 257.664 155.4C253.966 155.993 250.912 158.941 250.381 162.869C250.262 163.751 250.279 164.621 250.416 165.458C250.541 166.222 250.076 167.002 249.344 167.256C246.571 168.217 244.355 170.549 243.667 173.606C242.571 178.477 245.767 183.277 250.684 184.144L301.56 193.115C306.477 193.982 311.122 190.565 311.758 185.612C312.17 182.4 310.783 179.356 308.36 177.519C307.733 177.044 307.536 176.136 307.908 175.443C308.285 174.741 308.572 173.977 308.75 173.161C309.808 168.305 306.615 163.543 301.72 162.68C301.284 162.603 301.119 162.042 301.401 161.7C302.981 159.783 303.533 157.018 302.298 154.432C300.454 150.572 294.932 148.988 290.721 148.237C289.998 148.108 289.233 147.915 288.426 147.643C285.426 146.633 283.55 144.896 281.932 143.398C280.067 141.67 278.544 140.26 276.035 140.645C276.031 140.646 276.029 140.651 276.031 140.654C278.255 144.155 276.574 146.964 274.873 148.651C273.592 149.923 271.631 149.92 270.018 149.108L269.126 148.659Z" fill="url(#paint4_linear_2583_240073)"/>
<path d="M305.154 193.001C304.034 190.19 302.321 187.504 300.086 185.059C297.517 182.249 294.309 179.813 290.644 177.891C286.979 175.969 282.929 174.598 278.726 173.857C274.523 173.116 270.249 173.019 266.147 173.572C262.046 174.124 258.198 175.316 254.823 177.078C251.887 178.611 249.358 180.549 247.345 182.807C248.322 183.46 249.449 183.926 250.684 184.144L301.559 193.115C302.794 193.332 304.012 193.28 305.154 193.001Z" fill="#FDD9B4"/>
<path d="M295.886 162.921C296.565 163.041 297.021 163.689 296.901 164.369L296.286 167.85C296.166 168.53 295.518 168.986 294.838 168.866C294.158 168.746 293.705 168.095 293.825 167.416L294.438 163.934C294.558 163.255 295.206 162.802 295.886 162.921ZM305.234 162.403C305.799 162.008 306.578 162.144 306.975 162.709C307.37 163.274 307.234 164.053 306.669 164.449L303.771 166.478C303.206 166.874 302.427 166.736 302.031 166.17C301.636 165.605 301.773 164.826 302.338 164.43L305.234 162.403ZM273.229 156.759C273.795 156.363 274.574 156.501 274.97 157.066C275.365 157.632 275.228 158.411 274.663 158.807L271.767 160.834C271.202 161.229 270.422 161.093 270.026 160.528C269.631 159.963 269.767 159.184 270.331 158.788L273.229 156.759ZM283.303 155.099C283.982 155.219 284.438 155.867 284.318 156.546L283.703 160.028C283.583 160.708 282.935 161.163 282.255 161.044C281.576 160.924 281.123 160.275 281.242 159.596L281.855 156.114C281.975 155.435 282.623 154.979 283.303 155.099ZM258.229 157.55L261.711 158.165C262.391 158.285 262.844 158.933 262.724 159.613C262.604 160.292 261.956 160.746 261.276 160.626L257.795 160.013C257.115 159.893 256.662 159.243 256.782 158.563C256.902 157.884 257.55 157.43 258.229 157.55ZM296.254 155.741C296.82 155.345 297.599 155.483 297.995 156.048C298.391 156.614 298.254 157.393 297.69 157.789L294.792 159.818C294.226 160.213 293.447 160.076 293.051 159.51C292.656 158.945 292.793 158.165 293.359 157.77L296.254 155.741ZM284.814 148.646C285.379 148.251 286.159 148.389 286.555 148.954L288.581 151.849C288.977 152.415 288.841 153.196 288.276 153.592C287.711 153.988 286.931 153.85 286.535 153.285L284.506 150.389C284.11 149.824 284.248 149.042 284.814 148.646ZM262.221 147.203C262.786 146.807 263.566 146.943 263.962 147.508L265.991 150.406C266.386 150.972 266.248 151.751 265.683 152.147C265.118 152.543 264.338 152.405 263.942 151.839L261.914 148.944C261.518 148.378 261.656 147.599 262.221 147.203ZM273.002 148.732L276.484 149.344C277.164 149.464 277.617 150.115 277.497 150.794C277.377 151.474 276.729 151.927 276.049 151.808L272.568 151.192C271.888 151.072 271.435 150.424 271.555 149.745C271.675 149.065 272.323 148.612 273.002 148.732Z" fill="#E60023"/>
<circle cx="286.5" cy="128" r="7.5" fill="#E60023"/>
<path d="M74 293H179V340.292C179 360.2 183.262 379.877 191.5 398H86.5C78.2622 379.877 74 360.2 74 340.292V293Z" fill="url(#paint5_linear_2583_240073)"/>
<path d="M-46 270.5H59V375.5H-46V270.5Z" fill="url(#paint6_linear_2583_240073)"/>
<path d="M186.746 225.5L180.423 249.098L141.5 238.669V225.5H186.746Z" fill="#F9A4CF"/>
<path d="M179 330.5H154C148.568 318.549 144.865 305.923 142.972 293H179V330.5Z" fill="#5CD6B7"/>
<circle cx="11.5" cy="150.5" r="7.5" fill="#66CC71"/>
<circle cx="154" cy="150.5" r="7.5" fill="#E68800"/>
<circle cx="196.5" cy="240.5" r="7.5" fill="#5C3BA0"/>
<circle cx="126.5" cy="308" r="7.5" fill="#207E67"/>
<circle cx="6.5" cy="285.5" r="7.5" fill="#E60023"/>
<circle cx="69" cy="25.5" r="7.5" fill="#8F2459"/>
</g>
<defs>
<radialGradient id="paint0_radial_2583_240073" cx="0" cy="0" r="1" gradientUnits="userSpaceOnUse" gradientTransform="translate(69 250.5) rotate(90) scale(282.5 282.5)">
<stop stop-color="#FDA64F"/>
<stop offset="1" stop-color="#FDD9B4"/>
</radialGradient>
<linearGradient id="paint1_linear_2583_240073" x1="69" y1="68" x2="69" y2="433" gradientUnits="userSpaceOnUse">
<stop stop-color="#FD865E"/>
<stop offset="1" stop-color="#FA5F2E"/>
</linearGradient>
<linearGradient id="paint2_linear_2583_240073" x1="69" y1="68" x2="69" y2="433" gradientUnits="userSpaceOnUse">
<stop stop-color="#FD865E"/>
<stop offset="1" stop-color="#FA5F2E"/>
</linearGradient>
<linearGradient id="paint3_linear_2583_240073" x1="287.237" y1="124.586" x2="258.339" y2="289.574" gradientUnits="userSpaceOnUse">
<stop stop-color="white"/>
<stop offset="1" stop-color="#FDE2FD"/>
</linearGradient>
<linearGradient id="paint4_linear_2583_240073" x1="294.867" y1="150.035" x2="283.865" y2="212.938" gradientUnits="userSpaceOnUse">
<stop stop-color="white"/>
<stop offset="1" stop-color="#FEDDED"/>
</linearGradient>
<linearGradient id="paint5_linear_2583_240073" x1="132.75" y1="293" x2="132.75" y2="398" gradientUnits="userSpaceOnUse">
<stop stop-color="#8DE296"/>
<stop offset="1" stop-color="#5CD6B7"/>
</linearGradient>
<linearGradient id="paint6_linear_2583_240073" x1="6.50001" y1="270.5" x2="6.50004" y2="459.25" gradientUnits="userSpaceOnUse">
<stop stop-color="white"/>
<stop offset="1" stop-color="#FDE2FD"/>
</linearGradient>
<clipPath id="clip0_2583_240073">
<rect width="375" height="375" fill="white"/>
</clipPath>
</defs>
</svg>
