<svg width="375" height="250" viewBox="0 0 375 250" fill="none" xmlns="http://www.w3.org/2000/svg">
<g clip-path="url(#clip0_2583_241176)">
<rect width="375" height="250" fill="#1E4A71"/>
<path d="M198.375 31.9502V19.7002H14.625V31.9502C20.5868 31.9502 23.9263 38.8212 20.243 43.5091L2.375 66.2502H2.25467C-10.3741 85.516 -17.3794 107.8 -15.7727 130.782C-13.8362 158.633 -4.7353 186.415 13.3064 208.162C23.1265 219.996 35.5994 229.551 49.5451 236.525H162.6C233.931 201.234 244.22 123.631 210.451 66.2502H210.625L192.757 43.5091C189.074 38.8212 192.413 31.9502 198.375 31.9502Z" fill="url(#paint0_linear_2583_241176)"/>
<path d="M-15.7727 130.782C-17.2118 110.197 -11.7419 90.1727 -1.51046 72.3752H213.849C243.421 129.036 231.423 202.474 162.6 236.525H49.5451C35.5994 229.551 23.1265 219.996 13.3064 208.162C-4.7353 186.415 -13.8362 158.633 -15.7727 130.782Z" fill="url(#paint1_linear_2583_241176)"/>
<path d="M178.637 214.561C200.162 162.115 203.668 133.708 189.002 103.56L185.697 105.168C199.644 133.836 196.669 160.946 175.237 213.165L178.637 214.561Z" fill="#83C3FC"/>
<path d="M146.078 215.278L153.428 119.728L157.093 120.01L150.729 202.742C151.002 202.139 151.29 201.522 151.594 200.894C155.522 192.784 162.125 182.702 172.8 175.009L173.33 175.744C175.859 164.463 180.076 152.655 187.104 143.268L190.046 145.47C180.673 157.989 176.456 175.365 174.616 189.806C173.701 196.994 173.382 203.388 173.292 207.983C173.247 210.28 173.26 212.124 173.283 213.391C173.295 214.024 173.31 214.512 173.321 214.84C173.327 215.005 173.332 215.128 173.335 215.21L173.339 215.301L173.34 215.323L173.341 215.327C173.341 215.327 173.341 215.328 171.505 215.419C169.67 215.51 169.67 215.509 169.67 215.509L169.67 215.507L169.67 215.499L169.668 215.471L169.664 215.367C169.661 215.313 169.659 215.245 169.656 215.163L169.648 214.969C169.636 214.622 169.621 214.113 169.609 213.459C169.585 212.151 169.572 210.259 169.618 207.911C169.709 203.218 170.035 196.689 170.971 189.341C171.356 186.314 171.847 183.136 172.471 179.882C163.874 186.824 158.341 195.396 154.902 202.496C153.025 206.37 151.782 209.787 151.01 212.228C150.624 213.447 150.356 214.421 150.186 215.084C150.101 215.416 150.04 215.669 150.002 215.837C149.991 215.884 149.982 215.925 149.974 215.958L149.96 216.022L149.951 216.064L149.949 216.073C149.949 216.073 149.949 216.072 148.15 215.7C146.35 215.328 146.351 215.327 146.351 215.327L146.352 215.319L146.356 215.301L146.078 215.278Z" fill="#83C3FC"/>
<path d="M133.081 198.639C134.781 205.699 136.972 211.221 139.514 214.234L136.705 216.604C133.578 212.896 131.231 206.654 129.508 199.499C127.767 192.269 126.602 183.833 125.994 175.501C125.386 167.167 125.332 158.886 125.831 151.959C126.08 148.497 126.469 145.346 127.005 142.681C127.535 140.048 128.233 137.764 129.158 136.118L132.362 137.92C131.717 139.067 131.111 140.907 130.608 143.406C130.112 145.874 129.738 148.863 129.496 152.223C129.012 158.943 129.062 167.044 129.659 175.233C130.257 183.425 131.399 191.654 133.081 198.639Z" fill="#83C3FC"/>
<path d="M125.771 215.419C127.603 215.57 127.603 215.569 127.603 215.569L127.603 215.567L127.603 215.562L127.604 215.548L127.608 215.503C127.61 215.466 127.614 215.414 127.617 215.348C127.625 215.216 127.634 215.027 127.642 214.788C127.656 214.309 127.664 213.626 127.637 212.783C127.582 211.1 127.389 208.761 126.833 206.127C125.725 200.88 123.14 194.3 117.171 189.488L114.864 192.35C119.937 196.438 122.229 202.109 123.237 206.886C123.739 209.265 123.914 211.383 123.964 212.902C123.988 213.66 123.981 214.265 123.968 214.675C123.962 214.879 123.954 215.035 123.949 215.135C123.946 215.186 123.943 215.222 123.942 215.245L123.94 215.267L123.94 215.269C123.94 215.269 123.94 215.268 125.771 215.419Z" fill="#83C3FC"/>
<path d="M131.16 146.967C116.665 145.378 105.453 139.184 106.117 133.131C106.78 127.078 119.068 123.46 133.562 125.049C148.057 126.638 159.269 132.832 158.605 138.885C158.339 141.311 156.205 143.346 152.81 144.812L135.66 135.794L140.56 147.278C137.613 147.42 134.443 147.327 131.16 146.967Z" fill="url(#paint2_linear_2583_241176)"/>
<path d="M155.349 168.416C158.394 163.143 167.967 162.97 176.732 168.03C185.496 173.091 190.133 181.468 187.089 186.741C184.279 191.607 175.91 192.13 167.747 188.204L169.134 179.329L160.679 183.483C155.308 178.621 152.957 172.56 155.349 168.416Z" fill="url(#paint3_linear_2583_241176)"/>
<path d="M208.958 92.8823C211.699 100.507 203.611 110.394 190.895 114.965C178.178 119.537 165.647 117.061 162.906 109.437C160.438 102.572 166.747 93.8735 177.31 88.8715L182.21 95.599L182.21 86.9294C194.492 82.949 206.306 85.5059 208.958 92.8823Z" fill="url(#paint4_linear_2583_241176)"/>
<path d="M201.742 155.086C198.393 158.435 190.249 155.72 183.551 149.023C182.439 147.91 181.436 146.758 180.553 145.594L188.575 139.469L178.174 141.919C175.708 137.332 175.28 133.04 177.488 130.833C180.837 127.484 188.981 130.199 195.678 136.896C202.376 143.593 205.091 151.738 201.742 155.086Z" fill="url(#paint5_linear_2583_241176)"/>
<path d="M174.078 120.63C173.686 123.881 165.206 125.532 155.137 124.319C151.535 123.885 148.218 123.143 145.46 122.22L150.36 118.644L140.282 119.869C138.461 118.702 137.47 117.444 137.615 116.236C138.007 112.985 146.487 111.334 156.556 112.547C166.625 113.761 174.469 117.38 174.078 120.63Z" fill="url(#paint6_linear_2583_241176)"/>
<path d="M142.538 185.73C141.048 180.171 130.183 178.252 118.27 181.444C106.357 184.636 97.9072 191.731 99.3968 197.29C100.327 200.759 104.908 202.811 111.117 203.087L116.017 194.594L118.27 202.692C120.023 202.437 121.831 202.067 123.664 201.576C135.577 198.384 144.027 191.29 142.538 185.73Z" fill="url(#paint7_linear_2583_241176)"/>
<path d="M35.4502 250H177.55C177.55 242.558 171.517 236.525 164.075 236.525H48.9252C41.4832 236.525 35.4502 242.558 35.4502 250Z" fill="white" fill-opacity="0.8"/>
<path d="M49.5452 236.525C37.6571 230.58 26.8393 222.759 17.8228 213.25H195.765C186.69 222.172 175.67 230.059 162.6 236.525H49.5452Z" fill="url(#paint8_linear_2583_241176)"/>
<path fill-rule="evenodd" clip-rule="evenodd" d="M72.2001 159.35L81.5798 149.971C83.4176 148.133 84.4501 145.64 84.4501 143.041V125.05H74.6501V134.85H64.8501V125.05H55.0501V134.85H45.2501L45.2501 125.05H35.5508V134.85H25.4823V125.05H15.8501V142.765C15.8501 145.526 17.0149 148.159 19.0579 150.016L29.3251 159.35V184.265C29.3251 193.754 28.1768 203.207 25.9052 212.42L25.7004 213.25H76.6134C73.6869 203.502 72.2001 193.38 72.2001 183.202V159.35ZM50.1501 156.9C46.0908 156.9 42.8001 160.191 42.8001 164.25V176.5H57.5001V164.25C57.5001 160.191 54.2094 156.9 50.1501 156.9Z" fill="url(#paint9_linear_2583_241176)"/>
<path d="M50.405 202.998L43.524 199.786C42.6797 199.392 41.7017 199.406 40.8683 199.822C40.1443 200.184 39.5937 200.819 39.3377 201.587L37.033 208.501C36.8192 209.143 36.219 209.575 35.5429 209.575C34.7806 209.575 34.1284 209.028 33.996 208.277L32.5127 199.872C32.4301 199.404 32.2504 198.957 31.9869 198.562C31.4623 197.775 30.6332 197.237 29.7003 197.082L28.8913 196.947C28.0389 196.805 27.3519 196.17 27.1423 195.332C26.9743 194.66 27.1372 193.948 27.5806 193.416L29.135 191.551C29.6632 190.917 30.0414 190.172 30.2415 189.372C30.4445 188.56 30.4588 187.712 30.2835 186.894L28.8082 180.009C28.7463 179.72 28.7845 179.419 28.9168 179.154C29.3677 178.252 30.6285 178.183 31.1754 179.03L35.9354 186.404C36.5782 187.399 37.8543 187.773 38.9325 187.28C39.4519 187.043 39.8691 186.628 40.1084 186.109L42.7896 180.3C43.1168 179.591 43.9997 179.342 44.6493 179.775C45.0219 180.023 45.2363 180.449 45.214 180.896L44.6798 191.58C44.6521 192.134 44.7679 192.686 45.0161 193.182C45.171 193.492 45.3749 193.775 45.6199 194.02L52.1319 200.532C52.7287 201.129 52.7287 202.097 52.1319 202.693C51.6775 203.148 50.9874 203.269 50.405 202.998Z" fill="#E60023"/>
<path d="M156.065 133.367C155.127 132.457 153.954 131.582 152.58 130.759L151.55 144.149L152.81 144.812C153.733 144.414 154.562 143.974 155.286 143.495L156.065 133.367Z" fill="#75982A"/>
<path d="M184.279 189.441C185.471 188.779 186.432 187.879 187.089 186.741C188.243 184.742 188.293 182.298 187.434 179.757C186.483 182.876 185.432 186.101 184.279 189.441Z" fill="#9FC157"/>
<path d="M174.535 190.459C174.561 190.242 174.589 190.024 174.617 189.806C175.441 183.333 176.744 176.27 178.774 169.319C178.121 168.87 177.44 168.439 176.731 168.03C176.329 167.798 175.925 167.577 175.52 167.367C173.25 174.89 171.843 182.5 170.971 189.341C170.964 189.4 170.956 189.458 170.949 189.517C172.163 189.93 173.364 190.244 174.535 190.459Z" fill="#9FC157"/>
<path d="M196.67 156.456C197.312 152.182 197.7 148.083 197.836 144.116C197.891 142.492 197.904 140.891 197.874 139.31C197.2 138.492 196.467 137.684 195.679 136.896C195.136 136.353 194.584 135.837 194.026 135.347C194.218 138.162 194.263 141.036 194.163 143.991C194.037 147.692 193.681 151.525 193.093 155.53C194.349 156.016 195.555 156.33 196.67 156.456Z" fill="#BD5F00"/>
<path d="M130.06 179.909C130.687 186.261 131.643 192.488 132.926 197.985C131.859 198.552 130.724 199.088 129.529 199.587C129.522 199.558 129.515 199.529 129.508 199.5C128.082 193.577 127.042 186.844 126.379 180.022C127.651 179.921 128.882 179.884 130.06 179.909Z" fill="#4D6813"/>
</g>
<defs>
<linearGradient id="paint0_linear_2583_241176" x1="58.9236" y1="19.7002" x2="58.9236" y2="169.15" gradientUnits="userSpaceOnUse">
<stop stop-color="white" stop-opacity="0.3"/>
<stop offset="1" stop-color="#C4E0F8"/>
</linearGradient>
<linearGradient id="paint1_linear_2583_241176" x1="106.5" y1="213.863" x2="106.5" y2="72.3752" gradientUnits="userSpaceOnUse">
<stop stop-color="white" stop-opacity="0.3"/>
<stop offset="1" stop-color="white" stop-opacity="0.65"/>
</linearGradient>
<linearGradient id="paint2_linear_2583_241176" x1="147.056" y1="124.675" x2="147.056" y2="190.811" gradientUnits="userSpaceOnUse">
<stop stop-color="#9FC157"/>
<stop offset="1" stop-color="#8DE296"/>
</linearGradient>
<linearGradient id="paint3_linear_2583_241176" x1="147.056" y1="124.675" x2="147.056" y2="190.811" gradientUnits="userSpaceOnUse">
<stop stop-color="#9FC157"/>
<stop offset="1" stop-color="#8DE296"/>
</linearGradient>
<linearGradient id="paint4_linear_2583_241176" x1="179.807" y1="156.521" x2="179.807" y2="77.4804" gradientUnits="userSpaceOnUse">
<stop stop-color="#BA8221"/>
<stop offset="1" stop-color="#D7CB42"/>
</linearGradient>
<linearGradient id="paint5_linear_2583_241176" x1="179.807" y1="156.521" x2="179.807" y2="77.4804" gradientUnits="userSpaceOnUse">
<stop stop-color="#BA8221"/>
<stop offset="1" stop-color="#D7CB42"/>
</linearGradient>
<linearGradient id="paint6_linear_2583_241176" x1="136.659" y1="112.149" x2="136.659" y2="203.087" gradientUnits="userSpaceOnUse">
<stop stop-color="#D7CB42"/>
<stop offset="1" stop-color="#776F0D"/>
</linearGradient>
<linearGradient id="paint7_linear_2583_241176" x1="136.659" y1="112.149" x2="136.659" y2="203.087" gradientUnits="userSpaceOnUse">
<stop stop-color="#D7CB42"/>
<stop offset="1" stop-color="#776F0D"/>
</linearGradient>
<linearGradient id="paint8_linear_2583_241176" x1="105.937" y1="213.25" x2="105.937" y2="236.525" gradientUnits="userSpaceOnUse">
<stop stop-color="#FDC9B9"/>
<stop offset="1" stop-color="#FEE4DC"/>
</linearGradient>
<linearGradient id="paint9_linear_2583_241176" x1="49.4359" y1="125.05" x2="49.4359" y2="213.25" gradientUnits="userSpaceOnUse">
<stop stop-color="#FA5F2E"/>
<stop offset="1" stop-color="#FCA58D"/>
</linearGradient>
<clipPath id="clip0_2583_241176">
<rect width="375" height="250" fill="white"/>
</clipPath>
</defs>
</svg>
