<svg xmlns="http://www.w3.org/2000/svg" width="24" height="24" fill="none" viewBox="0 0 24 24"><path fill="#5cd6b7" d="M20 1v22h-2l-.01-.232a2.575 2.575 0 0 0-2.118-2.304L4.305 18.422A4 4 0 0 1 1 14.483V9.517a4 4 0 0 1 3.305-3.939l11.567-2.042A2.575 2.575 0 0 0 18 1z"/><path fill="#c0f2e5" d="m7 18.897-2-.353V5.454l2-.352z"/><path fill="#1a5866" d="M20 7c.525 0 1.045.13 1.53.38.486.252.927.62 1.298 1.084.372.465.666 1.016.867 1.623.201.606.305 1.256.305 1.913s-.104 1.307-.305 1.913a5.2 5.2 0 0 1-.867 1.623 4.1 4.1 0 0 1-1.297 1.083A3.3 3.3 0 0 1 20 17z"/><path fill="#2aa788" d="M7 18.897v.717a1 1 0 0 0 .648.937l.939.351a1 1 0 0 0 1.265-.53l.399-.9 2.03.357-.602 1.354a3 3 0 0 1-3.794 1.591l-.939-.351A3 3 0 0 1 5 19.614v-1.07zM18 1h2v22h-2z"/></svg>