<svg xmlns="http://www.w3.org/2000/svg" width="24" height="24" fill="none" viewBox="0 0 24 24"><path fill="#70e6c8" d="M22 20a3 3 0 0 1-3 3H5a3 3 0 0 1-3-3v-7h20z"/><path fill="#5cd6b7" d="M1 9a1 1 0 0 1 1-1h20a1 1 0 0 1 1 1v3a1 1 0 0 1-1 1H2a1 1 0 0 1-1-1z"/><path stroke="#207e67" stroke-width="2" d="M12 12v7"/><path fill="#c856c8" d="M13 23h-2V13h2z"/><path fill="#c856c8" fill-rule="evenodd" d="M16.524 0c2.81 0 4.898 2.602 4.289 5.346l-.03.13-.047.191A4.5 4.5 0 0 1 16.391 9H13v4h-2V9H7.61a4.5 4.5 0 0 1-4.346-3.333l-.047-.19-.03-.131C2.579 2.602 4.668 0 7.478 0l.191.004a4.394 4.394 0 0 1 4.097 3.435L12 4.498l.236-1.059A4.39 4.39 0 0 1 16.331.004zm0 2c-1.122 0-2.093.78-2.336 1.874L13.493 7h2.898a2.5 2.5 0 0 0 2.44-1.958l.029-.13A2.393 2.393 0 0 0 16.524 2M7.477 2A2.393 2.393 0 0 0 5.14 4.912l.028.13A2.5 2.5 0 0 0 7.61 7h2.898l-.694-3.126A2.394 2.394 0 0 0 7.477 2" clip-rule="evenodd"/><path fill="#939" d="M11 13h2v2h-2z"/><path fill="#2aa788" d="M2 13h9v2H2zM13 13h9v2h-9z"/></svg>