<svg xmlns="http://www.w3.org/2000/svg" width="24" height="24" fill="none" viewBox="0 0 24 24"><path fill="#f7c545" d="M11.838 23c1.291 0 2.447-.825 2.743-2.082.22-.935.419-2.026.419-2.918 0-.611-.094-1.316-.224-2H18.5a2.5 2.5 0 0 0 2.205-3.676 2.49 2.49 0 0 0 0-3.647A2.492 2.492 0 0 0 20 5.504L20 5.5A2.5 2.5 0 0 0 17.5 3h-5.161a10 10 0 0 0-2.631.353l-2.916.794a10 10 0 0 1-2.63.353H4a1 1 0 0 0-1 1v5.746a1 1 0 0 0 .726.961l2.091.598c.442.126.827.4 1.09.776l2.912 4.161a1 1 0 0 1 .181.573V22.5a.5.5 0 0 0 .5.5z"/></svg>