<svg xmlns="http://www.w3.org/2000/svg" width="24" height="24" fill="none" viewBox="0 0 24 24"><path fill="#4d6813" d="M15 6h2v5h-2z"/><path fill="#9fc157" d="M17 0a3 3 0 0 0 3 3v2a4.98 4.98 0 0 1-3.003-1.003V4H17a3 3 0 0 0 3 3v2a5 5 0 0 1-4.001-2.001A4.99 4.99 0 0 1 12 9V7a3 3 0 0 0 2.997-2.87v-.129A4.98 4.98 0 0 1 12 5V3A3 3 0 0 0 14.997.13V0z"/><path fill="#fa5f2e" d="M4.413 11.94A2 2 0 0 1 6.108 11h11.783a2 2 0 0 1 1.695.94l3.805 6.087a4 4 0 0 1 .608 2.12V21a2 2 0 0 1-2 2H1.863A1.863 1.863 0 0 1 0 21.137c0-1.396.392-2.765 1.133-3.95z"/><path fill="#fca58d" d="M4.413 11.94A2 2 0 0 1 6.108 11H8a2 2 0 0 1 1.6.8l3.8 5.067a8 8 0 0 1 1.6 4.8V22a1 1 0 0 1-1 1H1a1 1 0 0 1-1-1v-.706a8 8 0 0 1 1.216-4.24z"/><path fill="#fa5f2e" d="M8 23H6V11h2z"/><path fill="#e9de63" d="M8 5.5a3.5 3.5 0 1 1-7 0 3.5 3.5 0 0 1 7 0"/></svg>