<svg xmlns="http://www.w3.org/2000/svg" width="24" height="24" fill="none" viewBox="0 0 24 24"><path fill="#9baaf3" d="m11.82 10.954 1.226 1.226-6.128 6.128a26.7 26.7 0 0 1-3.353 2.84L2.373 22 2 21.627l.85-1.191a26.7 26.7 0 0 1 2.843-3.355z"/><path fill="#e60023" d="m24 10.728-1.38 1.38-.271-.273a3.734 3.734 0 0 0-5.28 0l-.505.504 1.655 1.655a3.733 3.733 0 0 1 .003 5.276L14.5 23 1 9.5l3.73-3.722a3.734 3.734 0 0 1 5.277.003l1.652 1.654.505-.504a3.733 3.733 0 0 0 0-5.28l-.271-.272L13.27 0z"/><path fill="#4c1a4c" d="m13.112 12.113-4.75 4.75-1.225-1.226 4.75-4.75z"/></svg>