<svg xmlns="http://www.w3.org/2000/svg" width="24" height="24" fill="none" viewBox="0 0 24 24"><path fill="#526ae0" d="M6 3H4.64a1 1 0 0 0-.98.804l-1.227 6.13A5.48 5.48 0 0 1 5.5 9c1.886 0 3.55.95 4.541 2.398A5 5 0 0 1 12 11c.695 0 1.357.141 1.958.398A5.5 5.5 0 0 1 18.5 9c1.135 0 2.19.344 3.066.934l-1.225-6.13A1 1 0 0 0 19.36 3H18V1h1.36a3 3 0 0 1 2.942 2.412l1.286 6.43c.274 1.37.412 2.762.412 4.158h-.023q.022.247.023.5a5.5 5.5 0 1 1-10.852-1.273A3 3 0 0 0 12 13c-.407 0-.796.08-1.15.227A5.5 5.5 0 1 1 .024 15H0v-2h.024c.05-1.06.18-2.116.388-3.157l1.286-6.43A3 3 0 0 1 4.64 1H6z"/><path fill="#e2fdf6" d="M5.5 11a3.5 3.5 0 1 1 0 7 3.5 3.5 0 0 1 0-7M18.5 11a3.5 3.5 0 1 1 0 7 3.5 3.5 0 0 1 0-7"/></svg>