<svg xmlns="http://www.w3.org/2000/svg" width="24" height="24" fill="none" viewBox="0 0 24 24"><path fill="#c4cdf8" d="M17 2a1 1 0 0 0-1 1v9.54l5.934 5.086A3.055 3.055 0 0 1 19.945 23H4.055a3.055 3.055 0 0 1-1.989-5.374L8 12.54V3a1 1 0 0 0-1-1V0c1.289 0 2.384.814 2.809 1.954a2.99 2.99 0 0 1 4.381 0A3 3 0 0 1 17 0z"/><path fill="#988c1b" d="M21.934 17.626A3.055 3.055 0 0 1 19.945 23H4.055a3.055 3.055 0 0 1-1.989-5.374L5.13 15h13.74z"/><path stroke="#c4cdf8" stroke-width="2" d="M7 1h2v12l-6.282 5.385A2.055 2.055 0 0 0 4.055 22h15.89a2.055 2.055 0 0 0 1.337-3.615L15 13V1h2"/><path fill="#768aea" d="M18 2H6V0h12z"/><path fill="#9baaf3" d="M16 10h-4V8h4zM16 6h-4V4h4z"/></svg>