<svg xmlns="http://www.w3.org/2000/svg" width="24" height="24" fill="none" viewBox="0 0 24 24"><path fill="#fdc4e1" d="M12.086 0A2 2 0 0 1 13.5.585l2.969 2.97a2 2 0 0 1 .567 1.145l2.12 15.688A1.86 1.86 0 0 0 21 22v2H3v-2a1.86 1.86 0 0 0 1.844-1.61l2.12-15.69c.059-.433.258-.835.567-1.145L10.5.585A2 2 0 0 1 11.914 0z"/><path fill="#e9de63" d="m4.947 10.895-4 2-.894-1.79 4-2zM23.947 11.106l-.894 1.789-4-2 .894-1.79zM4 8H0V6h4zM24 8h-4V6h4zM4.947 3.106l-.894 1.789-4-2 .894-1.79zM23.947 2.895l-4 2-.894-1.79 4-2z"/><path fill="#fa5f2e" d="M19 19.231V20H5v-.769L5.167 18h13.666zM18.564 16H5.437l.27-2h12.586zM18.023 12H5.978l.27-2h11.504z"/><path fill="#5e1741" d="M10.5 4.5a1.5 1.5 0 0 1 3 0V6h-3z"/><path fill="#e7559e" d="M21 24H3v-2h18zM19 8H5V6h14z"/></svg>