<svg xmlns="http://www.w3.org/2000/svg" width="24" height="24" fill="none" viewBox="0 0 24 24"><path fill="#d9ccb9" d="M7.941 1.005q.25.014.497.068l3.421.76.376.073Q12.803 2 13.378 2H20l.154.004A3 3 0 0 1 23 5v1.292a7 7 0 0 1-3.87 6.26L15 14.619v1.46a3 3 0 0 0 1.126 2.342l2.942 2.353c.923.739.4 2.227-.78 2.227H6V2.773l.009-.181A1.774 1.774 0 0 1 7.773 1z"/><path fill="#da3c0b" d="M15 16.077c0 .317.052.628.148.923H9v-2h6z"/><path fill="#907c60" d="M23 6.292a7 7 0 0 1-1.296 4.056c-.742.474-1.637.652-2.408.652h-.585a5 5 0 0 1-2.459-.646l-.314-.194-.493-.328 1.11-1.664.492.328.188.116A3 3 0 0 0 18.711 9h.585c.91 0 1.542-.342 1.768-.82l.102-.237c.223-.562.334-1.202.334-1.943H23z"/><path fill="#526ae0" d="M14 5.5a1.5 1.5 0 1 1-3 0 1.5 1.5 0 0 1 3 0"/><path fill="#3a332c" d="m20 2 .154.004A3 3 0 0 1 23 5v1h-2.5A1.5 1.5 0 0 1 19 4.5V2z"/><path fill="#544a3b" d="M10.235 17.545a4.653 4.653 0 1 1-9.23 1.042L1 18.347V6a5 5 0 0 1 5-5h1.34z"/></svg>