<svg xmlns="http://www.w3.org/2000/svg" width="24" height="24" fill="none" viewBox="0 0 24 24"><path fill="#526ae0" d="M6.5 17a.5.5 0 0 1 .5.5v1a.5.5 0 0 1-.5.5h-1a.5.5 0 0 1-.5-.5v-1a.5.5 0 0 1 .5-.5z"/><path fill="#526ae0" fill-rule="evenodd" d="M8.154 13.004A3 3 0 0 1 11 16v4l-.004.154a3 3 0 0 1-2.842 2.842L8 23H4a3 3 0 0 1-2.996-2.846L1 20v-4a3 3 0 0 1 3-3h4zM4 15a1 1 0 0 0-1 1v4a1 1 0 0 0 1 1h4a1 1 0 0 0 1-1v-4a1 1 0 0 0-1-1z" clip-rule="evenodd"/><path fill="#526ae0" d="M15 21h3v2h-5v-4h2zM23 23h-3v-2h3zM23 15h-3v4h-5v-2h3v-4h5z"/><path fill="#526ae0" d="M23 19h-2v-2h2zM16 15h-3v-2h3zM6.5 5a.5.5 0 0 1 .5.5v1a.5.5 0 0 1-.5.5h-1a.5.5 0 0 1-.5-.5v-1a.5.5 0 0 1 .5-.5z"/><path fill="#526ae0" fill-rule="evenodd" d="M8.154 1.004A3 3 0 0 1 11 4v4l-.004.154a3 3 0 0 1-2.842 2.842L8 11H4a3 3 0 0 1-2.996-2.846L1 8V4a3 3 0 0 1 3-3h4zM4 3a1 1 0 0 0-1 1v4a1 1 0 0 0 1 1h4a1 1 0 0 0 1-1V4a1 1 0 0 0-1-1z" clip-rule="evenodd"/><path fill="#526ae0" d="M18.5 5a.5.5 0 0 1 .5.5v1a.5.5 0 0 1-.5.5h-1a.5.5 0 0 1-.5-.5v-1a.5.5 0 0 1 .5-.5z"/><path fill="#526ae0" fill-rule="evenodd" d="M20.154 1.004A3 3 0 0 1 23 4v4l-.004.154a3 3 0 0 1-2.842 2.842L20 11h-4a3 3 0 0 1-2.996-2.846L13 8V4a3 3 0 0 1 3-3h4zM16 3a1 1 0 0 0-1 1v4a1 1 0 0 0 1 1h4a1 1 0 0 0 1-1V4a1 1 0 0 0-1-1z" clip-rule="evenodd"/></svg>