<svg xmlns="http://www.w3.org/2000/svg" width="24" height="24" fill="none" viewBox="0 0 24 24"><path fill="#fdbf81" d="M12.579 20.597c.96 1.392 1.901 2.755-.579 3.403-6.626 0-12-5.373-12-12S5.373 0 12 0s12 5.373 12 12c0 3.091-2.977 7.485-11.2 5.288-1.469-.392-1.657.992-.8 2.43.172.29.376.585.579.879"/><circle cx="5.5" cy="12" r="1.5" fill="#e60023"/><circle cx="16.596" cy="7.404" r="1.5" fill="#2aa788" transform="rotate(-45 16.596 7.404)"/><circle cx="1.5" cy="1.5" r="1.5" fill="#c856c8" transform="rotate(45 -4.175 15.2)scale(-1 1)"/><circle cx="1.5" cy="1.5" r="1.5" fill="#75982a" transform="matrix(0 -1 -1 0 13.5 7)"/></svg>