<svg xmlns="http://www.w3.org/2000/svg" width="24" height="24" fill="none" viewBox="0 0 24 24"><path fill="#a13012" d="M13 10h-2V2h2z"/><path fill="#526ae0" d="M12 9c.872 0 1.7.385 2.26 1.052l8.123 9.66c1.094 1.302.17 3.288-1.53 3.288H3.148c-1.7 0-2.624-1.986-1.53-3.287l8.123-9.661.108-.121A2.95 2.95 0 0 1 12 9"/><path fill="#c4cdf8" d="M12 9c.871 0 1.699.385 2.26 1.052l5 5.948h-5.846a1 1 0 0 0-.707.293l-2 2a1 1 0 0 1-1.414 0l-3.522-3.521 3.97-4.72.108-.121A2.95 2.95 0 0 1 12 9"/><path fill="#da3c0b" d="M16 3a1 1 0 0 1 1-1h4a1 1 0 0 1 1 1v4a1 1 0 0 1-1 1h-4a1 1 0 0 1-1-1z"/><path fill="#fa5f2e" d="M11 1a1 1 0 0 1 1-1h5a1 1 0 0 1 1 1v4a1 1 0 0 1-1 1h-5a1 1 0 0 1-1-1z"/></svg>