<svg xmlns="http://www.w3.org/2000/svg" width="24" height="24" fill="none" viewBox="0 0 24 24"><g clip-path="url(#a)"><path fill="#768aea" d="M10.792 23h9.16a4 4 0 0 0 4-4V5a4 4 0 0 0-4-4h-5.86z"/><path fill="#c4cdf8" d="M11.693.337a4 4 0 0 1 4.898 2.829l3.624 13.522a4 4 0 0 1-2.829 4.9l-7.727 2.07A4 4 0 0 1 4.76 20.83l-1.83-6.834q.034.003.07.004a1 1 0 1 0-.56-1.83L1.137 7.308a4 4 0 0 1 2.828-4.899z"/><path fill="#774fc4" fill-rule="evenodd" d="M3 24a3 3 0 0 0 3-3 2.99 2.99 0 0 0-1.145-2.353l.485-.332 4.982 2.656a2.18 2.18 0 0 0 3.027-.53l-6.01-3.44 6.006-3.442a2.18 2.18 0 0 0-3.028-.53L5.34 15.687l-.485-.331a3 3 0 1 0-3.504.151H1.35L3.596 17 1.35 18.494l.002.001A3 3 0 0 0 3 24m0-10a1 1 0 1 1 0-2 1 1 0 0 1 0 2m0 8a1 1 0 1 1 0-2 1 1 0 0 1 0 2" clip-rule="evenodd"/></g><defs><clipPath id="a"><path fill="#fff" d="M0 0h24v24H0z"/></clipPath></defs></svg>