<svg xmlns="http://www.w3.org/2000/svg" width="24" height="24" fill="none" viewBox="0 0 24 24"><path fill="#fdbf81" d="M10.874 2.344a3.207 3.207 0 1 1 5.954 2.339l-2.336 4.896 2.259.869c1.408.541 2.094 1.98 2.035 3.303a11.7 11.7 0 0 0 .098 2.11c.165 1.187.517 2.264 1.052 3.015C20.447 19.592 21.101 20 22 20v2H3.465l-.297-.446c-1.341-2.011-1.897-4.352-2.01-6.429-.112-2.06.206-3.976.729-5.176a13.2 13.2 0 0 1 1.478-2.546c.778-1.053 2.117-1.29 3.207-.87L9.24 7.558z"/><path fill="#804000" d="M10.874 2.345a3.207 3.207 0 1 1 5.954 2.339l-2.336 4.895 2.259.87c1.408.54 2.094 1.98 2.035 3.303a11.7 11.7 0 0 0 .172 2.568L1.592 10.783q.132-.459.295-.834a13.2 13.2 0 0 1 1.478-2.546c.778-1.052 2.117-1.29 3.207-.87L9.24 7.56z"/><path fill="#e68800" d="M8 16c0 1.629.71 3.155 1.675 4.44.447.595.937 1.119 1.407 1.559H8.354a13 13 0 0 1-.279-.358C6.957 20.15 6 18.21 6 16z"/><path fill="#c856c8" d="M20.7 5h.6l.087.372a3 3 0 0 0 2.24 2.241L24 7.7v.6l-.372.087a3 3 0 0 0-2.241 2.24L21.3 11h-.6l-.087-.372a3 3 0 0 0-2.24-2.241L18 8.3v-.6l.372-.087a3 3 0 0 0 2.241-2.24z"/></svg>