<svg xmlns="http://www.w3.org/2000/svg" width="24" height="24" fill="none" viewBox="0 0 24 24"><path fill="#e60023" d="M12 0c.89 0 1.748.326 2.412.917l7.245 6.44A4 4 0 0 1 23 10.347v8.468c0 2.033-1.535 3.766-3.602 3.913A106 106 0 0 1 12 23c-2.916 0-5.551-.14-7.397-.271C2.535 22.58 1 20.848 1 18.814v-8.466c0-1.143.489-2.232 1.343-2.99L9.588.916A3.63 3.63 0 0 1 12 0"/><path fill="#4c1a4c" d="M16.276 16.541A6.98 6.98 0 0 1 12 17.999a6.98 6.98 0 0 1-4.275-1.458l1.222-1.582A4.97 4.97 0 0 0 12 15.999c1.15 0 2.209-.388 3.054-1.04z"/></svg>