<svg xmlns="http://www.w3.org/2000/svg" width="24" height="24" fill="none" viewBox="0 0 24 24"><path fill="#9baaf3" d="m9.172 17.463-4.247 2.549c-1.286.771-2.932-.095-3.026-1.591l-.319-5.115a3 3 0 0 1 1.505-2.792L6.61 8.499zM20.915 10.514a3 3 0 0 1 1.505 2.792l-.32 5.115c-.093 1.496-1.74 2.362-3.025 1.59l-4.247-2.548 2.56-8.964z"/><path fill="#fd865e" d="M15 23H9v-2h6z"/><path fill="#526ae0" d="M12.064 0a3 3 0 0 1 2.304 1.08l1.734 2.08a12.504 12.504 0 0 1 .397 15.508l-.4.532a2 2 0 0 1-1.599.8h-5a2 2 0 0 1-1.6-.8l-.399-.532A12.506 12.506 0 0 1 7.898 3.16l1.734-2.08A3 3 0 0 1 11.937 0z"/><path fill="#223077" d="M12 13a3 3 0 1 0 0-6 3 3 0 0 0 0 6"/></svg>