<svg xmlns="http://www.w3.org/2000/svg" width="24" height="24" fill="none" viewBox="0 0 24 24"><path fill="#fa5f2e" fill-rule="evenodd" d="m8.237.06.182.014.361.044c4.51.605 7.627 3.434 8.964 6.745.165-.14.353-.266.567-.368a2.35 2.35 0 0 1 1.612-.152 2.42 2.42 0 0 1 1.328.918c.605.822 1.021 2.003 1.284 3.01.276 1.055.465 2.24.465 3.23C23 19.301 17.98 24 12 24S1 19.301 1 13.5c0-2.767 1.544-5.23 3.022-6.85l.032-.033.032-.032c.7-.7 1.056-1.883 1.075-3.536l.018-.29c.157-1.4 1.324-2.784 3.058-2.7" clip-rule="evenodd"/><path fill="#fda64f" d="M16 17c0 2.761-1.79 5-4 5s-4-2.239-4-5 1.79-5 4-5 4 2.239 4 5"/></svg>