<svg xmlns="http://www.w3.org/2000/svg" width="24" height="24" fill="none" viewBox="0 0 24 24"><path fill="#bd5f00" d="M14.885 12.692 12 15l2.884 2.308A7.72 7.72 0 0 0 19.71 19H20a4 4 0 0 0 0-8h-.29a7.72 7.72 0 0 0-4.826 1.692"/><path fill="#bd5f00" d="M17.229 6.518A2.77 2.77 0 0 0 14.47 4h-.17c-.519 0-1.021.176-1.426.5l-.43.344a.71.71 0 0 1-.89 0l-.43-.344A2.28 2.28 0 0 0 9.7 4h-.171A2.77 2.77 0 0 0 6.77 6.518L6 15h12z"/><path fill="#fdbf81" d="M6 15h10.905a1 1 0 0 0 .996-1.09L17.636 11H6.364z"/><path fill="#804000" d="M9.528 4a2.77 2.77 0 0 0-2.757 2.519L6 15h4V4.021q-.15-.02-.3-.021z"/><path fill="#e68800" d="M6 15h4v-4H6.364z"/><path fill="#804000" d="M9.116 12.692 12 15l-2.884 2.308A7.72 7.72 0 0 1 4.29 19H4a4 4 0 0 1 0-8h.29c1.755 0 3.456.597 4.826 1.692"/></svg>