<svg xmlns="http://www.w3.org/2000/svg" width="24" height="24" fill="none" viewBox="0 0 24 24"><path fill="#e2fdf6" d="M12 3a9 9 0 1 1 0 18 9 9 0 0 1 0-18"/><path fill="#da3c0b" d="M15 12a3 3 0 1 1-6 0 3 3 0 0 1 6 0"/><path fill="#5cd6b7" fill-rule="evenodd" d="M12 5a7 7 0 1 1 0 14 7 7 0 0 1 0-14m0 2a5 5 0 1 0 0 10 5 5 0 0 0 0-10" clip-rule="evenodd"/><path fill="#5cd6b7" fill-rule="evenodd" d="M12 1c6.075 0 11 4.925 11 11s-4.925 11-11 11S1 18.075 1 12 5.925 1 12 1m0 2a9 9 0 1 0 0 18 9 9 0 0 0 0-18" clip-rule="evenodd"/><path fill="#186250" d="M22 2h2v2h-2.586l-8.707 8.707-1.414-1.414L20 2.586V0h2z"/></svg>