<svg xmlns="http://www.w3.org/2000/svg" width="24" height="24" fill="none" viewBox="0 0 24 24"><path fill="#a69377" d="M24.001 19a4 4 0 0 1-4 4H19v-2h1.001a2 2 0 0 0 2-2v-1h2z"/><path fill="#d9ccb9" d="M3.501 0c.392 0 .785.035 1.17.105L9.592 1h3.411a2 2 0 0 1 2 2l-.001.512c0 1.324-.87 2.493-2.138 2.874l-2.862.858v2.623c0 .351.184.678.485.859l6.116 3.669a7 7 0 0 1 3.399 6.003V23h-19v-2h1v-9h.232L1.501 1.5l2-.167z"/><path fill="#907c60" d="M6.999 23h-2v-7h2zM11.999 18.5c0 1.53 1.035 2.5 2.001 2.5v2H9v-2h1.676a4.95 4.95 0 0 1-.677-2.5V17h2z"/><path fill="#526ae0" d="M9 3a1 1 0 1 1-2 0 1 1 0 0 1 2 0"/><path fill="#3a332c" d="M13 1h1a1 1 0 0 1 1 1v1h-1a1 1 0 0 1-1-1z"/><path fill="#da3c0b" d="M9.999 9.867q0 .068.008.133H4.999V8h5z"/><path fill="#544a3b" d="m3.5 0 2.236 9.688A2.704 2.704 0 1 1 .4 10.4L.134 3.497A3.37 3.37 0 0 1 3.5 0"/></svg>