<svg xmlns="http://www.w3.org/2000/svg" width="24" height="24" fill="none" viewBox="0 0 24 24"><path fill="#207e67" d="m6.047 12.698 7.303 3.11-1.856 6.925a1.707 1.707 0 0 1-3.127.412l-1.12-1.942-1.943 1.121a1.708 1.708 0 0 1-2.503-1.92l2.185-8.156z"/><path fill="#13434e" d="m6.047 12.698 7.303 3.11-1.856 6.925a1.707 1.707 0 0 1-2.52 1.025 1.7 1.7 0 0 0 .778-1.025l1.855-6.924-6.8-2.897.18-.664z"/><path fill="#207e67" d="M21.2 20.404a1.707 1.707 0 0 1-2.504 1.92l-1.942-1.12-1.121 1.941a1.707 1.707 0 0 1-3.127-.412L10.65 15.81l7.303-3.11 1.06-.451z"/><path fill="#5cd6b7" d="M21 9A9 9 0 1 1 3 9a9 9 0 0 1 18 0"/><path fill="#e2fdf6" d="M12 2a7 7 0 1 1 0 14 7 7 0 0 1 0-14m0 2a5 5 0 1 0 0 10 5 5 0 0 0 0-10"/></svg>