<svg xmlns="http://www.w3.org/2000/svg" width="24" height="24" fill="none" viewBox="0 0 24 24"><g clip-path="url(#a)"><circle cx="12" cy="12" r="12" fill="#f7c545"/><path fill="#bd5f00" d="M17.204 15.979a25.5 25.5 0 0 1-4.537.513L12 16.5c-1.78 0-3.548-.177-5.204-.521l.408-1.957A23.7 23.7 0 0 0 12 14.5l.618-.008a23.5 23.5 0 0 0 4.178-.47zM8.5 9a1.5 1.5 0 1 1 0 3 1.5 1.5 0 0 1 0-3M15.5 9a1.5 1.5 0 1 1 0 3 1.5 1.5 0 0 1 0-3"/></g><defs><clipPath id="a"><path fill="#fff" d="M0 0h24v24H0z"/></clipPath></defs></svg>