<svg xmlns="http://www.w3.org/2000/svg" width="24" height="24" fill="none" viewBox="0 0 24 24"><path fill="#768aea" d="M13 9h-2V5h2zM5.679 1.44c1.53-.698 3.173-.53 4.31.252.33.229.483.628.483 1.03V4H4.477l.512-1.72c.109-.364.345-.684.69-.84M14.012 1.692c1.136-.783 2.778-.95 4.31-.253.344.157.58.477.689.84L19.523 4h-5.995V2.724c0-.403.152-.802.484-1.03"/><path fill="#da3c0b" d="M4.688 3.139c2.016-.918 4.18-.699 5.676.333.437.3.636.827.636 1.357V17l-3 4H5.5a3.5 3.5 0 1 0 0-7 3.5 3.5 0 0 0 0 7H3l-2-4-.5-1.75L3.778 4.245c.143-.479.455-.9.91-1.106M13.636 3.472c1.496-1.032 3.66-1.251 5.677-.333.454.207.766.627.909 1.106L23.5 15.25 23 17l-2 4h-2.5a3.5 3.5 0 1 0 0-7 3.5 3.5 0 0 0 0 7H16l-3-4V4.83c0-.531.2-1.057.636-1.358"/><path fill="#2a3fa7" d="M5.5 14a3.5 3.5 0 1 1 0 7 3.5 3.5 0 0 1 0-7M18.5 14a3.5 3.5 0 1 1 0 7 3.5 3.5 0 0 1 0-7"/><path fill="#9baaf3" fill-rule="evenodd" d="M18.5 12a5.5 5.5 0 1 1-5.49 5.822A3 3 0 0 1 12 18a3 3 0 0 1-1.01-.178 5.5 5.5 0 0 1-.726 2.427l-.149.241A5.5 5.5 0 0 1 3 22.396l-.25-.134a5.5 5.5 0 1 1 6.608-8.685 3 3 0 0 1 5.284.003A5.48 5.48 0 0 1 18.5 12m0 2a3.5 3.5 0 1 0 0 7 3.5 3.5 0 0 0 0-7m-11.25.469a3.5 3.5 0 0 0-3.5 6.06 3.5 3.5 0 0 0 3.5-6.06m4.75-.47a1 1 0 1 0 0 2.002A1 1 0 0 0 12 14" clip-rule="evenodd"/></svg>