<svg xmlns="http://www.w3.org/2000/svg" width="24" height="24" fill="none" viewBox="0 0 24 24"><path fill="#bd5f00" d="M13.491 2.627a4 4 0 0 0-2.888-.268l-5.56 1.589L1.688 2.69A1.25 1.25 0 0 0 0 3.86v7.68a2 2 0 0 0 .698 1.519l6.026 5.165a5 5 0 0 0 1.763.976l6.793 2.123a2.095 2.095 0 0 0 2.66-1.503 2.145 2.145 0 0 0 2.371-2.45 3 3 0 0 0 2.038-2.142l.023-.092a2 2 0 0 0-.21-1.488l-5.146-8.89a2 2 0 0 0-.837-.786z"/><path fill="#f7c545" d="M6.725 18.223a5 5 0 0 0 1.762.977l5.367 1.677-1.49 1.305a2 2 0 0 1-.833.435l-.164.041a2 2 0 0 1-2.15-.831L9 21.5l-1.142.285a2 2 0 0 1-1.594-.276l-.12-.08a2 2 0 0 1-.832-1.18L5 19l-.11.037a2.37 2.37 0 0 1-2.427-.573A1.58 1.58 0 0 1 2 17.344v-3.17zM21.83 2.468A1.5 1.5 0 0 1 24 3.809V13a2 2 0 0 1-2 2h-.5a7.15 7.15 0 0 1-4.206-1.366L13.779 11l-.828.724c-1.85 1.62-4.326 1.932-6.216.358l-.148-.124a1.25 1.25 0 0 1-.013-1.91l3.211-2.752 1.247-1.497a5 5 0 0 1 3.841-1.8h3.89z"/></svg>