<svg xmlns="http://www.w3.org/2000/svg" width="24" height="24" fill="none" viewBox="0 0 24 24"><path fill="#e68800" d="M13.252 23.936a12 12 0 0 1-2.504 0l.413-3.979a8 8 0 0 0 1.678 0zM7.299 18.474c.45.327.934.609 1.447.837l-1.629 3.653a12 12 0 0 1-2.172-1.256zM19.055 21.708a12 12 0 0 1-2.172 1.256l-1.63-3.652q.772-.346 1.448-.838zM4.688 15.254q.346.77.838 1.447l-3.234 2.354a12 12 0 0 1-1.256-2.172zM22.964 16.883a12 12 0 0 1-1.256 2.172L18.474 16.7c.327-.45.609-.934.837-1.447zM12 6a6 6 0 1 1 0 12 6 6 0 0 1 0-12M4.043 11.161a8 8 0 0 0 0 1.678l-3.979.413a12 12 0 0 1 0-2.504zM23.936 10.748a12 12 0 0 1 0 2.504l-3.979-.413a8 8 0 0 0 0-1.678zM5.526 7.299c-.327.45-.609.934-.838 1.447L1.036 7.117a12 12 0 0 1 1.256-2.172zM21.708 4.945c.49.674.912 1.401 1.256 2.172l-3.652 1.63a8 8 0 0 0-.838-1.448zM8.746 4.688q-.77.346-1.447.838L4.945 2.292a12 12 0 0 1 2.172-1.256zM16.883 1.036c.77.344 1.498.766 2.172 1.256L16.7 5.526a8 8 0 0 0-1.447-.838zM12 0q.633 0 1.252.064l-.413 3.979a8 8 0 0 0-1.678 0L10.748.064Q11.367.001 12 0"/></svg>