<svg xmlns="http://www.w3.org/2000/svg" width="24" height="24" fill="none" viewBox="0 0 24 24"><path fill="#a13012" d="M13 24h-2v-4h2zM13 12h-2v-2h2zM13 2h-2V0h2z"/><path fill="#fa5f2e" d="M19.06 2a2.5 2.5 0 0 1 1.647.618l2.917 2.553a1.102 1.102 0 0 1 0 1.658l-2.917 2.553a2.5 2.5 0 0 1-1.646.618H5.5A2.5 2.5 0 0 1 3 7.5v-3A2.5 2.5 0 0 1 5.5 2z"/><path fill="#fd865e" d="M18.5 12a2.5 2.5 0 0 1 2.5 2.5v3a2.5 2.5 0 0 1-2.5 2.5H4.94a2.5 2.5 0 0 1-1.647-.618L.376 16.829a1.102 1.102 0 0 1 0-1.658l2.917-2.553A2.5 2.5 0 0 1 4.939 12z"/></svg>