<svg xmlns="http://www.w3.org/2000/svg" width="24" height="24" fill="none" viewBox="0 0 24 24"><path fill="#f8bef8" d="M22 10c0 5.523-4.477 10-10 10S2 15.523 2 10 6.477 0 12 0s10 4.477 10 10"/><path fill="#c856c8" d="m1 22 .265-.088A4 4 0 0 0 4 18.117V17h16v1.117a4 4 0 0 0 2.735 3.795L23 22v2H1z"/><path fill="#939" d="M23 24H1v-2h22zM8.5 11a1.5 1.5 0 1 1 0 3 1.5 1.5 0 0 1 0-3m5.451-5.565a3.5 3.5 0 0 0 2.614 2.614L17 8.15v.7l-.435.101a3.5 3.5 0 0 0-2.614 2.614L13.85 12h-.7l-.101-.435a3.5 3.5 0 0 0-2.614-2.614L10 8.85v-.7l.435-.101a3.5 3.5 0 0 0 2.614-2.614L13.15 5h.7z"/></svg>