<svg xmlns="http://www.w3.org/2000/svg" width="24" height="24" fill="none" viewBox="0 0 24 24"><path fill="#5cd6b7" d="M1 5a4 4 0 0 1 4-4h14a4 4 0 0 1 4 4v14a4 4 0 0 1-4 4H5a4 4 0 0 1-4-4z"/><path fill="#fdebd8" d="M7 15v8h12a4 4 0 0 0 4-4v-8l-4.31-4.703a1 1 0 0 0-1.696.389L16 10l-4 1-2.89-2.168c-.546-.41-1.316-.158-1.468.508A25.8 25.8 0 0 0 7 15"/><path fill="#ef7bb5" d="M16.476 15.627C16.622 16.14 15.5 18 15.5 18s-1.83-1.115-1.976-1.627c-.146-.513.397-1.095 1.212-1.3.816-.207 1.595.042 1.74.554"/><path fill="#bd5f00" d="M11 14a1 1 0 1 1 0 2 1 1 0 0 1 0-2M18 12a1 1 0 1 1 0 2 1 1 0 0 1 0-2"/><path fill="#2aa788" d="M19.206 1.005A4 4 0 0 1 23 5v14l-.005.206a4 4 0 0 1-3.789 3.79L19 23H5a4 4 0 0 1-3.995-3.794L1 19V5a4 4 0 0 1 4-4h14zM5 3a2 2 0 0 0-2 2v14a2 2 0 0 0 2 2h14a2 2 0 0 0 2-2V5a2 2 0 0 0-2-2z"/></svg>