<svg id="Layer_1" data-name="Layer 1" xmlns="http://www.w3.org/2000/svg" xmlns:xlink="http://www.w3.org/1999/xlink" viewBox="0 0 4157.49 938.47"><defs><style>.cls-1{fill:url(#linear-gradient);}.cls-2{fill:url(#linear-gradient-2);}.cls-3{fill:url(#linear-gradient-3);}.cls-4{fill:url(#linear-gradient-4);}.cls-5{fill:#160b54;}.cls-6{fill:url(#linear-gradient-5);}</style><linearGradient id="linear-gradient" x1="-637.43" y1="494.13" x2="96.03" y2="494.13" gradientTransform="matrix(0.71, 0.71, 0.71, -0.71, 609.33, 1137.88)" gradientUnits="userSpaceOnUse"><stop offset="0" stop-color="#a62dba"/><stop offset="1" stop-color="#401fa0"/></linearGradient><linearGradient id="linear-gradient-2" x1="-639.26" y1="231.31" x2="94.2" y2="231.31" gradientTransform="matrix(0.71, 0.71, 0.71, -0.71, 346.51, 503.38)" xlink:href="#linear-gradient"/><linearGradient id="linear-gradient-3" x1="-639.31" y1="763.69" x2="94.15" y2="763.69" gradientTransform="matrix(0.71, 0.71, 0.71, -0.71, -41.44, 1407.44)" xlink:href="#linear-gradient"/><linearGradient id="linear-gradient-4" x1="-479.73" y1="500.88" x2="41.96" y2="500.88" gradientTransform="matrix(-1, 0, 0, 1, 248.1, 0)" xlink:href="#linear-gradient"/><linearGradient id="linear-gradient-5" x1="73" y1="492.33" x2="179.62" y2="480.37" gradientTransform="matrix(-1, 0, 0, 1, 248.1, 0)" gradientUnits="userSpaceOnUse"><stop offset="0" stop-color="#d72dba"/><stop offset="1" stop-color="#401fa0"/></linearGradient></defs><rect class="cls-1" x="509.51" y="339.26" width="309.73" height="309.73" rx="38.55" transform="translate(1439.57 345.48) rotate(135)"/><rect class="cls-2" x="246.69" y="76.44" width="309.73" height="309.73" rx="38.55" transform="translate(805.07 82.66) rotate(135)"/><rect class="cls-3" x="239.95" y="608.82" width="309.73" height="309.73" rx="38.55" transform="translate(1170.01 996.25) rotate(135)"/><path class="cls-4" d="M44.81,632.7l57.53,57.53a41.89,41.89,0,0,0,59.3,0L321.36,530.51a41.89,41.89,0,0,0,0-59.3L161.64,311.49a42,42,0,0,0-59.3,0L86.62,327.21C77,397.07,59.4,525.73,44.81,632.7Z" transform="translate(-43.99 -28.26)"/><path class="cls-5" d="M198,567.21,44,632.7C59,525.78,76.94,397.18,86.6,327.32L214,510.14A42,42,0,0,1,198,567.21Z" transform="translate(-43.99 -28.26)"/><path class="cls-6" d="M170.07,562.05,44,632.7C59,525.78,76.94,397.18,86.6,327.32L186.15,505A42,42,0,0,1,170.07,562.05Z" transform="translate(-43.99 -28.26)"/><path d="M1150,468.14c69,12.8,145.86,37.85,140.3,130.28-3.34,75.16-75.16,110.23-147,110.23-60.13,0-119.7-32.29-147.54-95.2l59-26.73c17.26,37.86,52.89,58.46,89.64,58.46,40.08,0,78.5-17.26,80.73-51.78,3.34-44.54-40.65-56.23-89.08-63.47-66.25-10-133.06-40.64-133.62-119.14,4.45-71.82,72.38-109.12,141.41-109.12,59,0,114.69,22.83,142,85.18l-58.46,25.61c-16.7-36.74-47.32-50.66-83.51-50.66-38.41,0-74.6,17.81-76.83,51.22C1064.22,447.54,1108.2,460.34,1150,468.14Z" transform="translate(-43.99 -28.26)"/><path d="M1342,443.08c49.55-35.07,147.54-49,182.06,9.47,44-65.7,186-46.77,186,56.78v193.2h-60.68v-191c3.34-52.33-94.65-46.76-94.65-2.23v193.2h-60.13V508.22c0-40.64-59-48.44-92.42-26.72v221H1342Z" transform="translate(-43.99 -28.26)"/><path d="M1803,488.74l-35.63-32.85c31.18-34.52,67.92-45.66,104.67-45.66,56.23,0,113.57,30.07,113.57,95.21V690.28c-86.29,31.73-226.59,38.41-226.59-84.07.55-90.75,101.88-109.12,165.35-81.29V507.11C1914.94,454.22,1838.11,450.88,1803,488.74Zm121.37,88.52c-30.62-14.48-102.44-19.49-105.22,29-3.34,58.46,62.35,56.79,105.22,45.1Z" transform="translate(-43.99 -28.26)"/><path d="M2154.89,411.9a149.09,149.09,0,0,1,32.85,3.34v54c-31.73-9.47-82.4,3.9-82.4,42.87V702.53H2044.1V511c0-41.19,22.27-71.26,53.45-86.85,8.35-4.45,17.81-7.23,27.84-9.46,1.11,0,2.22-.56,3.34-.56C2134.29,412.46,2146.54,411.9,2154.89,411.9Z" transform="translate(-43.99 -28.26)"/><path d="M2347.53,705.31c-67.37,10-124.71-18.37-124.71-100.77V308.35h60.68V414.13h55.12v61.24H2283.5V604c0,45.66,30.62,48.44,64,48.44Z" transform="translate(-43.99 -28.26)"/><path d="M2523.46,702.53H2455L2340.84,308.35h66.81L2477.25,555c-.56,0,11.69,73.49,11.69,73.49h5l12.25-76.28c21.71-72.37,40.64-115.8,62.35-186h54l61.24,187.07c-.56,0,16.7,74,16.7,74h5l8.91-73.49,69-245.53h66.25L2735.58,702.53H2667.1l-62.36-192.64L2597,460.34h-3.9s-9.46,49-8.91,49Z" transform="translate(-43.99 -28.26)"/><path d="M2902.61,307.79c22.83,0,39,16.71,39,39,0,21.72-16.14,39-39,39-21.71,0-38.42-17.26-38.42-39C2864.19,324.5,2880.9,307.79,2902.61,307.79ZM2873.1,413.57v289h61.24v-289Z" transform="translate(-43.99 -28.26)"/><path d="M3220,307.79V690.28c-84.07,33.4-218.24,44-227.71-74.61V509.33c-.55-85.18,100.77-119.7,166.47-88V307.79ZM3158.71,473.7c-34.52-21.71-100.77-13.92-105.23,32.85V615.67c2.79,50.67,72.38,52.34,105.23,37.86Z" transform="translate(-43.99 -28.26)"/><path d="M3314,719.79c34.51,45.65,127.49,57.9,126.93-22.83-71.26,29.51-166.46-5-166.46-89.64V507.67c0-113,152.55-122.49,224.92-71.83V702.53c0,128.05-170.36,133.06-222.14,52.33Zm124.71-245.53c-30.07-21.16-101.89-16.7-103,33.41V607.88c2.78,47.32,71.82,52.33,103,30.06Z" transform="translate(-43.99 -28.26)"/><path d="M3770.57,649.64c-22.27,39.52-65.7,59-103.56,59-56.79,0-114.13-32.85-114.13-99.1V508.22c0-67.37,57.34-99.1,114.13-99.1,55.12,0,112.47,31.73,112.47,99.1v78.5h-164.8v22.83c-1.12,47.32,81.28,59,104.67,10.58Zm-50.11-142.53c0-54-108-54.56-105.78,1.11v27.84h105.78Z" transform="translate(-43.99 -28.26)"/><path d="M3957.08,705.31c-67.37,10-124.71-18.37-124.71-100.77V308.35h60.68V414.13h55.12v61.24h-55.12V604c0,45.66,30.62,48.44,64,48.44Z" transform="translate(-43.99 -28.26)"/><path d="M4031.67,610.11c29.51,51.22,106.9,55.67,109.13,8.9,0-21.15-25.06-27.28-45.1-31.73-40.64-7.79-102.44-23.94-102.44-89.08,0-64,58.46-88,107.45-88,30.62,0,65.7,13.37,94.09,41.2l-36.75,40.09c-31.73-31.74-100.77-34.52-104.11,1.67-2.22,25.61,28.4,34,52.34,37.86,46.21,7.79,94.64,25.61,95.2,86.85,0,111.91-169.81,121.37-215.46,21.71Z" transform="translate(-43.99 -28.26)"/></svg>